G04*
G04 #@! TF.GenerationSoftware,Altium Limited,Altium Designer,22.2.1 (43)*
G04*
G04 Layer_Color=2752767*
%FSAX24Y24*%
%MOIN*%
G70*
G04*
G04 #@! TF.SameCoordinates,07477AA8-A169-438C-A272-D3E418652323*
G04*
G04*
G04 #@! TF.FilePolarity,Positive*
G04*
G01*
G75*
%ADD223C,0.0020*%
%ADD224C,0.0027*%
%ADD225C,0.0013*%
D223*
X046180Y018247D02*
Y018407D01*
X046340D01*
Y018247D01*
X046180D01*
X046260Y015865D02*
X046180Y016025D01*
X046340D01*
X046260Y015865D01*
X015108Y047951D02*
X015148Y047991D01*
X015188D01*
X015148Y048032D01*
X015188Y048071D01*
X015148D01*
X015108Y048112D01*
X015068Y048071D01*
X015028D01*
X015068Y048032D01*
X015028Y047991D01*
X015068D01*
X015108Y047951D01*
X025798Y042833D02*
X025838Y042913D01*
X025798Y042993D01*
X025878Y042953D01*
X025958Y042993D01*
X025918Y042913D01*
X025958Y042833D01*
X025878Y042873D01*
X025798Y042833D01*
X026798D02*
X026838Y042913D01*
X026798Y042993D01*
X026878Y042953D01*
X026958Y042993D01*
X026918Y042913D01*
X026958Y042833D01*
X026878Y042873D01*
X026798Y042833D01*
X047614Y041647D02*
Y041607D01*
X047694D01*
Y041647D01*
X047734D01*
Y041727D01*
X047694D01*
Y041767D01*
X047614D01*
Y041727D01*
X047574D01*
Y041647D01*
X047614D01*
Y041147D02*
Y041107D01*
X047694D01*
Y041147D01*
X047734D01*
Y041227D01*
X047694D01*
Y041267D01*
X047614D01*
Y041227D01*
X047574D01*
Y041147D01*
X047614D01*
X047114Y041647D02*
Y041607D01*
X047194D01*
Y041647D01*
X047234D01*
Y041727D01*
X047194D01*
Y041767D01*
X047114D01*
Y041727D01*
X047074D01*
Y041647D01*
X047114D01*
X046614D02*
Y041607D01*
X046694D01*
Y041647D01*
X046734D01*
Y041727D01*
X046694D01*
Y041767D01*
X046614D01*
Y041727D01*
X046574D01*
Y041647D01*
X046614D01*
X047114Y041147D02*
Y041107D01*
X047194D01*
Y041147D01*
X047234D01*
Y041227D01*
X047194D01*
Y041267D01*
X047114D01*
Y041227D01*
X047074D01*
Y041147D01*
X047114D01*
X046614D02*
Y041107D01*
X046694D01*
Y041147D01*
X046734D01*
Y041227D01*
X046694D01*
Y041267D01*
X046614D01*
Y041227D01*
X046574D01*
Y041147D01*
X046614D01*
X046114Y041647D02*
Y041607D01*
X046194D01*
Y041647D01*
X046234D01*
Y041727D01*
X046194D01*
Y041767D01*
X046114D01*
Y041727D01*
X046074D01*
Y041647D01*
X046114D01*
X045614D02*
Y041607D01*
X045694D01*
Y041647D01*
X045734D01*
Y041727D01*
X045694D01*
Y041767D01*
X045614D01*
Y041727D01*
X045574D01*
Y041647D01*
X045614D01*
X046114Y041147D02*
Y041107D01*
X046194D01*
Y041147D01*
X046234D01*
Y041227D01*
X046194D01*
Y041267D01*
X046114D01*
Y041227D01*
X046074D01*
Y041147D01*
X046114D01*
X045614D02*
Y041107D01*
X045694D01*
Y041147D01*
X045734D01*
Y041227D01*
X045694D01*
Y041267D01*
X045614D01*
Y041227D01*
X045574D01*
Y041147D01*
X045614D01*
X026377Y014221D02*
X026417D01*
X026457Y014261D01*
X026497Y014221D01*
X026537D01*
Y014261D01*
X026497Y014301D01*
X026537Y014341D01*
Y014381D01*
X026497D01*
X026457Y014341D01*
X026417Y014381D01*
X026377D01*
Y014341D01*
X026417Y014301D01*
X026377Y014261D01*
Y014221D01*
X028975D02*
X029015D01*
X029055Y014261D01*
X029095Y014221D01*
X029135D01*
Y014261D01*
X029095Y014301D01*
X029135Y014341D01*
Y014381D01*
X029095D01*
X029055Y014341D01*
X029015Y014381D01*
X028975D01*
Y014341D01*
X029015Y014301D01*
X028975Y014261D01*
Y014221D01*
X031219Y019138D02*
X031299Y019218D01*
X031379Y019138D01*
X031299Y019058D01*
X031219Y019138D01*
X033975D02*
X034055Y019218D01*
X034135Y019138D01*
X034055Y019058D01*
X033975Y019138D01*
X032991D02*
X033071Y019218D01*
X033151Y019138D01*
X033071Y019058D01*
X032991Y019138D01*
X032203D02*
X032283Y019218D01*
X032363Y019138D01*
X032283Y019058D01*
X032203Y019138D01*
X032991Y018106D02*
X033071Y018186D01*
X033151Y018106D01*
X033071Y018026D01*
X032991Y018106D01*
X032203D02*
X032283Y018186D01*
X032363Y018106D01*
X032283Y018026D01*
X032203Y018106D01*
X033975D02*
X034055Y018186D01*
X034135Y018106D01*
X034055Y018026D01*
X033975Y018106D01*
X031219D02*
X031299Y018186D01*
X031379Y018106D01*
X031299Y018026D01*
X031219Y018106D01*
X030011Y019196D02*
Y019356D01*
X030171D01*
Y019196D01*
X030011D01*
X030051Y019236D02*
Y019316D01*
X030131D01*
Y019236D01*
X030051D01*
X035184Y019196D02*
Y019356D01*
X035344D01*
Y019196D01*
X035184D01*
X035224Y019236D02*
Y019316D01*
X035304D01*
Y019236D01*
X035224D01*
X035184Y016959D02*
Y017119D01*
X035344D01*
Y016959D01*
X035184D01*
X035224Y016999D02*
Y017079D01*
X035304D01*
Y016999D01*
X035224D01*
X030011Y016959D02*
Y017119D01*
X030171D01*
Y016959D01*
X030011D01*
X030051Y016999D02*
Y017079D01*
X030131D01*
Y016999D01*
X030051D01*
X015910Y019843D02*
X015830Y020003D01*
X015990D01*
X015910Y019843D01*
Y019883D02*
X015870Y019963D01*
X015950D01*
X015910Y019883D01*
X020310Y019843D02*
X020230Y020003D01*
X020390D01*
X020310Y019843D01*
Y019883D02*
X020270Y019963D01*
X020350D01*
X020310Y019883D01*
X015910Y020443D02*
X015830Y020603D01*
X015990D01*
X015910Y020443D01*
Y020483D02*
X015870Y020563D01*
X015950D01*
X015910Y020483D01*
X020310Y020443D02*
X020230Y020603D01*
X020390D01*
X020310Y020443D01*
Y020483D02*
X020270Y020563D01*
X020350D01*
X020310Y020483D01*
X015610Y017243D02*
X015650Y017283D01*
X015690D01*
X015650Y017323D01*
X015690Y017363D01*
X015650D01*
X015610Y017403D01*
X015570Y017363D01*
X015530D01*
X015570Y017323D01*
X015530Y017283D01*
X015570D01*
X015610Y017243D01*
Y017283D02*
X015630Y017303D01*
X015650D01*
X015630Y017323D01*
X015650Y017343D01*
X015630D01*
X015610Y017363D01*
X015590Y017343D01*
X015570D01*
X015590Y017323D01*
X015570Y017303D01*
X015590D01*
X015610Y017283D01*
X020610Y017243D02*
X020650Y017283D01*
X020690D01*
X020650Y017323D01*
X020690Y017363D01*
X020650D01*
X020610Y017403D01*
X020570Y017363D01*
X020530D01*
X020570Y017323D01*
X020530Y017283D01*
X020570D01*
X020610Y017243D01*
Y017283D02*
X020630Y017303D01*
X020650D01*
X020630Y017323D01*
X020650Y017343D01*
X020630D01*
X020610Y017363D01*
X020590Y017343D01*
X020570D01*
X020590Y017323D01*
X020570Y017303D01*
X020590D01*
X020610Y017283D01*
X015630Y025243D02*
X015670Y025323D01*
X015630Y025403D01*
X015710Y025363D01*
X015790Y025403D01*
X015750Y025323D01*
X015790Y025243D01*
X015710Y025283D01*
X015630Y025243D01*
X015670Y025283D02*
X015690Y025323D01*
X015670Y025363D01*
X015710Y025343D01*
X015750Y025363D01*
X015730Y025323D01*
X015750Y025283D01*
X015710Y025303D01*
X015670Y025283D01*
X019430Y025243D02*
X019470Y025323D01*
X019430Y025403D01*
X019510Y025363D01*
X019590Y025403D01*
X019550Y025323D01*
X019590Y025243D01*
X019510Y025283D01*
X019430Y025243D01*
X019470Y025283D02*
X019490Y025323D01*
X019470Y025363D01*
X019510Y025343D01*
X019550Y025363D01*
X019530Y025323D01*
X019550Y025283D01*
X019510Y025303D01*
X019470Y025283D01*
X014895Y016033D02*
Y015993D01*
X014975D01*
Y016033D01*
X015015D01*
Y016113D01*
X014975D01*
Y016153D01*
X014895D01*
Y016113D01*
X014855D01*
Y016033D01*
X014895D01*
X014915Y016053D02*
Y016033D01*
X014955D01*
Y016053D01*
X014975D01*
Y016093D01*
X014955D01*
Y016113D01*
X014915D01*
Y016093D01*
X014895D01*
Y016053D01*
X014915D01*
X021245Y016033D02*
Y015993D01*
X021325D01*
Y016033D01*
X021365D01*
Y016113D01*
X021325D01*
Y016153D01*
X021245D01*
Y016113D01*
X021205D01*
Y016033D01*
X021245D01*
X021265Y016053D02*
Y016033D01*
X021305D01*
Y016053D01*
X021325D01*
Y016093D01*
X021305D01*
Y016113D01*
X021265D01*
Y016093D01*
X021245D01*
Y016053D01*
X021265D01*
X020510Y024243D02*
X020430Y024403D01*
X020590D01*
X020510Y024243D01*
Y024283D02*
X020470Y024363D01*
X020550D01*
X020510Y024283D01*
X020110Y023243D02*
X020030Y023403D01*
X020190D01*
X020110Y023243D01*
Y023283D02*
X020070Y023363D01*
X020150D01*
X020110Y023283D01*
X016110Y023243D02*
X016030Y023403D01*
X016190D01*
X016110Y023243D01*
Y023283D02*
X016070Y023363D01*
X016150D01*
X016110Y023283D01*
X015710Y024243D02*
X015630Y024403D01*
X015790D01*
X015710Y024243D01*
Y024283D02*
X015670Y024363D01*
X015750D01*
X015710Y024283D01*
X019710Y024243D02*
X019630Y024403D01*
X019790D01*
X019710Y024243D01*
Y024283D02*
X019670Y024363D01*
X019750D01*
X019710Y024283D01*
X018910Y024243D02*
X018830Y024403D01*
X018990D01*
X018910Y024243D01*
Y024283D02*
X018870Y024363D01*
X018950D01*
X018910Y024283D01*
X018510Y023243D02*
X018430Y023403D01*
X018590D01*
X018510Y023243D01*
Y023283D02*
X018470Y023363D01*
X018550D01*
X018510Y023283D01*
X019310Y023243D02*
X019230Y023403D01*
X019390D01*
X019310Y023243D01*
Y023283D02*
X019270Y023363D01*
X019350D01*
X019310Y023283D01*
X017710Y023243D02*
X017630Y023403D01*
X017790D01*
X017710Y023243D01*
Y023283D02*
X017670Y023363D01*
X017750D01*
X017710Y023283D01*
X016910Y023243D02*
X016830Y023403D01*
X016990D01*
X016910Y023243D01*
Y023283D02*
X016870Y023363D01*
X016950D01*
X016910Y023283D01*
X016510Y024243D02*
X016430Y024403D01*
X016590D01*
X016510Y024243D01*
Y024283D02*
X016470Y024363D01*
X016550D01*
X016510Y024283D01*
X017310Y024243D02*
X017230Y024403D01*
X017390D01*
X017310Y024243D01*
Y024283D02*
X017270Y024363D01*
X017350D01*
X017310Y024283D01*
X016630Y025243D02*
X016670Y025323D01*
X016630Y025403D01*
X016710Y025363D01*
X016790Y025403D01*
X016750Y025323D01*
X016790Y025243D01*
X016710Y025283D01*
X016630Y025243D01*
X016670Y025283D02*
X016690Y025323D01*
X016670Y025363D01*
X016710Y025343D01*
X016750Y025363D01*
X016730Y025323D01*
X016750Y025283D01*
X016710Y025303D01*
X016670Y025283D01*
X020430Y025243D02*
X020470Y025323D01*
X020430Y025403D01*
X020510Y025363D01*
X020590Y025403D01*
X020550Y025323D01*
X020590Y025243D01*
X020510Y025283D01*
X020430Y025243D01*
X020470Y025283D02*
X020490Y025323D01*
X020470Y025363D01*
X020510Y025343D01*
X020550Y025363D01*
X020530Y025323D01*
X020550Y025283D01*
X020510Y025303D01*
X020470Y025283D01*
X023328Y015804D02*
X023368D01*
X023408Y015844D01*
X023448Y015804D01*
X023488D01*
Y015844D01*
X023448Y015884D01*
X023488Y015924D01*
Y015964D01*
X023448D01*
X023408Y015924D01*
X023368Y015964D01*
X023328D01*
Y015924D01*
X023368Y015884D01*
X023328Y015844D01*
Y015804D01*
X023368Y015844D02*
X023388D01*
X023408Y015864D01*
X023428Y015844D01*
X023448D01*
Y015864D01*
X023428Y015884D01*
X023448Y015904D01*
Y015924D01*
X023428D01*
X023408Y015904D01*
X023388Y015924D01*
X023368D01*
Y015904D01*
X023388Y015884D01*
X023368Y015864D01*
Y015844D01*
X023820Y014820D02*
X023860D01*
X023900Y014860D01*
X023940Y014820D01*
X023980D01*
Y014860D01*
X023940Y014900D01*
X023980Y014940D01*
Y014980D01*
X023940D01*
X023900Y014940D01*
X023860Y014980D01*
X023820D01*
Y014940D01*
X023860Y014900D01*
X023820Y014860D01*
Y014820D01*
X023860Y014860D02*
X023880D01*
X023900Y014880D01*
X023920Y014860D01*
X023940D01*
Y014880D01*
X023920Y014900D01*
X023940Y014920D01*
Y014940D01*
X023920D01*
X023900Y014920D01*
X023880Y014940D01*
X023860D01*
Y014920D01*
X023880Y014900D01*
X023860Y014880D01*
Y014860D01*
X025592Y014820D02*
X025632D01*
X025672Y014860D01*
X025712Y014820D01*
X025752D01*
Y014860D01*
X025712Y014900D01*
X025752Y014940D01*
Y014980D01*
X025712D01*
X025672Y014940D01*
X025632Y014980D01*
X025592D01*
Y014940D01*
X025632Y014900D01*
X025592Y014860D01*
Y014820D01*
X025632Y014860D02*
X025652D01*
X025672Y014880D01*
X025692Y014860D01*
X025712D01*
Y014880D01*
X025692Y014900D01*
X025712Y014920D01*
Y014940D01*
X025692D01*
X025672Y014920D01*
X025652Y014940D01*
X025632D01*
Y014920D01*
X025652Y014900D01*
X025632Y014880D01*
Y014860D01*
X026084Y015804D02*
X026124D01*
X026164Y015844D01*
X026204Y015804D01*
X026244D01*
Y015844D01*
X026204Y015884D01*
X026244Y015924D01*
Y015964D01*
X026204D01*
X026164Y015924D01*
X026124Y015964D01*
X026084D01*
Y015924D01*
X026124Y015884D01*
X026084Y015844D01*
Y015804D01*
X026124Y015844D02*
X026144D01*
X026164Y015864D01*
X026184Y015844D01*
X026204D01*
Y015864D01*
X026184Y015884D01*
X026204Y015904D01*
Y015924D01*
X026184D01*
X026164Y015904D01*
X026144Y015924D01*
X026124D01*
Y015904D01*
X026144Y015884D01*
X026124Y015864D01*
Y015844D01*
X037303Y017136D02*
Y017269D01*
X037370Y017336D01*
X037436Y017269D01*
Y017136D01*
Y017236D01*
X037303D01*
X043012Y017136D02*
Y017269D01*
X043078Y017336D01*
X043145Y017269D01*
Y017136D01*
Y017236D01*
X043012D01*
X037303Y014974D02*
Y014774D01*
X037403D01*
X037436Y014807D01*
Y014840D01*
X037403Y014874D01*
X037303D01*
X037403D01*
X037436Y014907D01*
Y014940D01*
X037403Y014974D01*
X037303D01*
X043012D02*
Y014774D01*
X043112D01*
X043145Y014807D01*
Y014840D01*
X043112Y014874D01*
X043012D01*
X043112D01*
X043145Y014907D01*
Y014940D01*
X043112Y014974D01*
X043012D01*
X013322Y015324D02*
X013289Y015357D01*
X013222D01*
X013189Y015324D01*
Y015191D01*
X013222Y015157D01*
X013289D01*
X013322Y015191D01*
X049936Y015324D02*
X049903Y015357D01*
X049836D01*
X049803Y015324D01*
Y015191D01*
X049836Y015157D01*
X049903D01*
X049936Y015191D01*
Y051938D02*
X049903Y051972D01*
X049836D01*
X049803Y051938D01*
Y051805D01*
X049836Y051772D01*
X049903D01*
X049936Y051805D01*
X013322Y051938D02*
X013289Y051972D01*
X013222D01*
X013189Y051938D01*
Y051805D01*
X013222Y051772D01*
X013289D01*
X013322Y051805D01*
X045915Y044294D02*
Y044094D01*
X046015D01*
X046049Y044128D01*
Y044261D01*
X046015Y044294D01*
X045915D01*
X046049Y052168D02*
X045915D01*
Y051968D01*
X046049D01*
X045915Y052068D02*
X045982D01*
X024936Y018409D02*
X024803D01*
Y018309D01*
X024870D01*
X024803D01*
Y018209D01*
X050319Y023867D02*
X050186D01*
Y023767D01*
X050252D01*
X050186D01*
Y023667D01*
X049977Y023577D02*
X049843D01*
Y023477D01*
X049910D01*
X049843D01*
Y023377D01*
X015183Y026350D02*
X015050D01*
Y026250D01*
X015117D01*
X015050D01*
Y026150D01*
X021383Y028350D02*
X021250D01*
Y028250D01*
X021317D01*
X021250D01*
Y028150D01*
X021683Y027950D02*
X021550D01*
Y027850D01*
X021617D01*
X021550D01*
Y027750D01*
X027533Y031150D02*
X027400D01*
Y031050D01*
X027467D01*
X027400D01*
Y030950D01*
X028033Y030700D02*
X027900D01*
Y030600D01*
X027967D01*
X027900D01*
Y030500D01*
X037220Y029294D02*
X037087D01*
Y029194D01*
X037153D01*
X037087D01*
Y029094D01*
X039500Y023649D02*
X039367D01*
Y023549D01*
X039434D01*
X039367D01*
Y023449D01*
X038173Y022221D02*
X038039D01*
Y022121D01*
X038106D01*
X038039D01*
Y022021D01*
X038333Y022400D02*
X038200D01*
Y022300D01*
X038267D01*
X038200D01*
Y022200D01*
X038133Y022900D02*
X038000D01*
Y022800D01*
X038067D01*
X038000D01*
Y022700D01*
X038176Y021895D02*
X038043D01*
Y021795D01*
X038110D01*
X038043D01*
Y021695D01*
X050483Y032700D02*
X050350D01*
Y032600D01*
X050417D01*
X050350D01*
Y032500D01*
X049383Y032700D02*
X049250D01*
Y032600D01*
X049317D01*
X049250D01*
Y032500D01*
X021633Y039750D02*
X021500D01*
Y039650D01*
X021567D01*
X021500D01*
Y039550D01*
X021683Y042300D02*
X021550D01*
Y042200D01*
X021617D01*
X021550D01*
Y042100D01*
X021151Y039742D02*
X021018D01*
Y039642D01*
X021084D01*
X021018D01*
Y039542D01*
X021393Y041460D02*
X021260D01*
Y041360D01*
X021326D01*
X021260D01*
Y041260D01*
X021333Y042550D02*
X021200D01*
Y042450D01*
X021267D01*
X021200D01*
Y042350D01*
X038716Y038822D02*
X038583D01*
Y038722D01*
X038649D01*
X038583D01*
Y038622D01*
X013683Y046500D02*
X013550D01*
Y046400D01*
X013617D01*
X013550D01*
Y046300D01*
X013633Y046100D02*
X013500D01*
Y046000D01*
X013567D01*
X013500D01*
Y045900D01*
X012635Y046187D02*
X012502D01*
Y046087D01*
X012568D01*
X012502D01*
Y045987D01*
X012883Y046100D02*
X012750D01*
Y046000D01*
X012817D01*
X012750D01*
Y045900D01*
X012418Y046266D02*
X012285D01*
Y046166D01*
X012352D01*
X012285D01*
Y046066D01*
X036983Y029800D02*
X036850D01*
Y029700D01*
X036917D01*
X036850D01*
Y029600D01*
X032344Y030206D02*
X032211D01*
Y030106D01*
X032277D01*
X032211D01*
Y030006D01*
X032595Y029924D02*
X032462D01*
Y029824D01*
X032528D01*
X032462D01*
Y029724D01*
X032822Y029924D02*
X032689D01*
Y029824D01*
X032756D01*
X032689D01*
Y029724D01*
X036983Y027350D02*
X036850D01*
Y027250D01*
X036917D01*
X036850D01*
Y027150D01*
X048833Y029350D02*
X048700D01*
Y029250D01*
X048767D01*
X048700D01*
Y029150D01*
X047533Y028950D02*
X047400D01*
Y028850D01*
X047467D01*
X047400D01*
Y028750D01*
X026733Y024000D02*
X026600D01*
Y023900D01*
X026667D01*
X026600D01*
Y023800D01*
X026083Y020900D02*
X025950D01*
Y020800D01*
X026017D01*
X025950D01*
Y020700D01*
X024233Y020500D02*
X024100D01*
Y020400D01*
X024167D01*
X024100D01*
Y020300D01*
X025933Y021900D02*
X025800D01*
Y021800D01*
X025867D01*
X025800D01*
Y021700D01*
X022874Y021578D02*
X022741D01*
Y021478D01*
X022808D01*
X022741D01*
Y021378D01*
X022874Y022050D02*
X022741D01*
Y021950D01*
X022808D01*
X022741D01*
Y021850D01*
X035960Y027857D02*
X035827D01*
Y027757D01*
X035893D01*
X035827D01*
Y027657D01*
X046492Y036617D02*
X046358D01*
Y036517D01*
X046425D01*
X046358D01*
Y036417D01*
X046885Y036617D02*
X046752D01*
Y036517D01*
X046819D01*
X046752D01*
Y036417D01*
X046295Y039176D02*
X046161D01*
Y039076D01*
X046228D01*
X046161D01*
Y038976D01*
X048755Y041046D02*
X048622D01*
Y040946D01*
X048689D01*
X048622D01*
Y040846D01*
X049398Y034973D02*
X049265D01*
Y034873D01*
X049331D01*
X049265D01*
Y034773D01*
X026511Y030909D02*
X026378D01*
Y030809D01*
X026445D01*
X026378D01*
Y030709D01*
X034090Y031499D02*
X033957D01*
Y031399D01*
X034023D01*
X033957D01*
Y031299D01*
X035195Y031497D02*
X035061D01*
Y031397D01*
X035128D01*
X035061D01*
Y031297D01*
X034090Y025102D02*
X033957D01*
Y025002D01*
X034023D01*
X033957D01*
Y024902D01*
X035173Y025102D02*
X035039D01*
Y025002D01*
X035106D01*
X035039D01*
Y024902D01*
X034444Y022200D02*
X034311D01*
Y022100D01*
X034378D01*
X034311D01*
Y022000D01*
X033795Y023035D02*
X033661D01*
Y022935D01*
X033728D01*
X033661D01*
Y022835D01*
X033696Y023428D02*
X033563D01*
Y023328D01*
X033630D01*
X033563D01*
Y023228D01*
X030055Y014767D02*
X029921D01*
Y014667D01*
X029988D01*
X029921D01*
Y014567D01*
X027003Y017031D02*
X026870D01*
Y016931D01*
X026937D01*
X026870D01*
Y016831D01*
X028381Y016539D02*
X028248D01*
Y016439D01*
X028315D01*
X028248D01*
Y016339D01*
X028003Y016634D02*
X027870D01*
Y016534D01*
X027937D01*
X027870D01*
Y016434D01*
X028134Y016239D02*
X028000D01*
Y016139D01*
X028067D01*
X028000D01*
Y016039D01*
X034558Y024019D02*
X034425D01*
Y023919D01*
X034491D01*
X034425D01*
Y023819D01*
X034331Y024019D02*
X034197D01*
Y023919D01*
X034264D01*
X034197D01*
Y023819D01*
X026672Y016995D02*
X026539D01*
Y016895D01*
X026605D01*
X026539D01*
Y016795D01*
X025542Y018409D02*
X025409D01*
Y018309D01*
X025475D01*
X025409D01*
Y018209D01*
X025315Y018409D02*
X025182D01*
Y018309D01*
X025248D01*
X025182D01*
Y018209D01*
X031236Y028842D02*
X031102D01*
Y028742D01*
X031169D01*
X031102D01*
Y028642D01*
X026511Y016834D02*
X026378D01*
Y016734D01*
X026445D01*
X026378D01*
Y016634D01*
X028473Y018570D02*
X028340D01*
Y018470D01*
X028407D01*
X028340D01*
Y018370D01*
X034113Y022480D02*
X033980D01*
Y022380D01*
X034046D01*
X033980D01*
Y022280D01*
X030214Y021785D02*
X030080D01*
Y021685D01*
X030147D01*
X030080D01*
Y021585D01*
X033952Y022641D02*
X033819D01*
Y022541D01*
X033886D01*
X033819D01*
Y022441D01*
X030165Y022007D02*
X030032D01*
Y021907D01*
X030098D01*
X030032D01*
Y021807D01*
X032020Y021846D02*
X031886D01*
Y021746D01*
X031953D01*
X031886D01*
Y021646D01*
X035074Y022444D02*
X034941D01*
Y022344D01*
X035008D01*
X034941D01*
Y022244D01*
X035448Y027300D02*
X035315D01*
Y027200D01*
X035382D01*
X035315D01*
Y027100D01*
X035566Y025082D02*
X035433D01*
Y024982D01*
X035500D01*
X035433D01*
Y024882D01*
X035566Y031145D02*
X035433D01*
Y031045D01*
X035500D01*
X035433D01*
Y030945D01*
X033177Y029934D02*
X033044D01*
Y029834D01*
X033110D01*
X033044D01*
Y029734D01*
X035606Y024452D02*
X035472D01*
Y024352D01*
X035539D01*
X035472D01*
Y024252D01*
X033184Y023704D02*
X033051D01*
Y023604D01*
X033118D01*
X033051D01*
Y023504D01*
X034727Y025121D02*
X034594D01*
Y025021D01*
X034660D01*
X034594D01*
Y024921D01*
X034500Y025121D02*
X034366D01*
Y025021D01*
X034433D01*
X034366D01*
Y024921D01*
X034373Y027856D02*
X034239D01*
Y027756D01*
X034306D01*
X034239D01*
Y027656D01*
X034373Y027300D02*
X034239D01*
Y027200D01*
X034306D01*
X034239D01*
Y027100D01*
X034770Y031499D02*
X034637D01*
Y031399D01*
X034703D01*
X034637D01*
Y031299D01*
X034543Y031499D02*
X034409D01*
Y031399D01*
X034476D01*
X034409D01*
Y031299D01*
X043086Y042680D02*
X042953D01*
Y042580D01*
X043019D01*
X042953D01*
Y042480D01*
X039779Y041617D02*
X039646D01*
Y041517D01*
X039712D01*
X039646D01*
Y041417D01*
X039940Y041778D02*
X039806D01*
Y041678D01*
X039873D01*
X039806D01*
Y041578D01*
X039543Y040672D02*
X039409D01*
Y040572D01*
X039476D01*
X039409D01*
Y040472D01*
X039703Y040833D02*
X039570D01*
Y040733D01*
X039637D01*
X039570D01*
Y040633D01*
X038558Y040672D02*
X038425D01*
Y040572D01*
X038492D01*
X038425D01*
Y040472D01*
X038728Y040838D02*
X038595D01*
Y040738D01*
X038662D01*
X038595D01*
Y040638D01*
X038480Y039491D02*
X038346D01*
Y039391D01*
X038413D01*
X038346D01*
Y039291D01*
X037464Y039942D02*
X037331D01*
Y039842D01*
X037398D01*
X037331D01*
Y039742D01*
X038220Y039241D02*
X038087D01*
Y039141D01*
X038154D01*
X038087D01*
Y039041D01*
X037889Y039137D02*
X037756D01*
Y039037D01*
X037823D01*
X037756D01*
Y038937D01*
X039866Y023920D02*
X039733D01*
Y023820D01*
X039799D01*
X039733D01*
Y023720D01*
X044110Y019058D02*
X043976D01*
Y018958D01*
X044043D01*
X043976D01*
Y018858D01*
X044110Y019294D02*
X043976D01*
Y019194D01*
X044043D01*
X043976D01*
Y019094D01*
X040446Y042392D02*
X040312D01*
Y042292D01*
X040379D01*
X040312D01*
Y042192D01*
X042503Y023230D02*
X042370D01*
Y023130D01*
X042437D01*
X042370D01*
Y023030D01*
X040285Y042232D02*
X040152D01*
Y042132D01*
X040219D01*
X040152D01*
Y042032D01*
X042276Y023230D02*
X042143D01*
Y023130D01*
X042210D01*
X042143D01*
Y023030D01*
X041873Y022870D02*
X041740D01*
Y022770D01*
X041807D01*
X041740D01*
Y022670D01*
X041646Y022870D02*
X041513D01*
Y022770D01*
X041580D01*
X041513D01*
Y022670D01*
X041392Y023340D02*
X041259D01*
Y023240D01*
X041325D01*
X041259D01*
Y023140D01*
X041165Y023340D02*
X041032D01*
Y023240D01*
X041098D01*
X041032D01*
Y023140D01*
X040900Y023090D02*
X040767D01*
Y022990D01*
X040833D01*
X040767D01*
Y022890D01*
X040673Y023090D02*
X040539D01*
Y022990D01*
X040606D01*
X040539D01*
Y022890D01*
X023362Y042602D02*
X023228D01*
Y042502D01*
X023295D01*
X023228D01*
Y042402D01*
X033204Y025003D02*
X033071D01*
Y024903D01*
X033138D01*
X033071D01*
Y024803D01*
X032220Y025003D02*
X032087D01*
Y024903D01*
X032153D01*
X032087D01*
Y024803D01*
X050330Y026972D02*
X050197D01*
Y026872D01*
X050264D01*
X050197D01*
Y026772D01*
X050330Y027287D02*
X050197D01*
Y027187D01*
X050264D01*
X050197D01*
Y027087D01*
X050330Y027602D02*
X050197D01*
Y027502D01*
X050264D01*
X050197D01*
Y027402D01*
X050330Y027916D02*
X050197D01*
Y027817D01*
X050264D01*
X050197D01*
Y027717D01*
X050330Y028231D02*
X050197D01*
Y028131D01*
X050264D01*
X050197D01*
Y028031D01*
X050330Y028586D02*
X050197D01*
Y028486D01*
X050264D01*
X050197D01*
Y028386D01*
X050330Y028901D02*
X050197D01*
Y028801D01*
X050264D01*
X050197D01*
Y028701D01*
X050192Y025305D02*
X050058D01*
Y025205D01*
X050125D01*
X050058D01*
Y025105D01*
X049591Y025312D02*
X049458D01*
Y025212D01*
X049524D01*
X049458D01*
Y025112D01*
X049124Y023531D02*
X048991D01*
Y023431D01*
X049058D01*
X048991D01*
Y023331D01*
X048514Y023528D02*
X048380D01*
Y023428D01*
X048447D01*
X048380D01*
Y023328D01*
X048363Y024423D02*
X048229D01*
Y024323D01*
X048296D01*
X048229D01*
Y024223D01*
X042103Y022570D02*
X041970D01*
Y022470D01*
X042037D01*
X041970D01*
Y022370D01*
X040983Y022650D02*
X040850D01*
Y022550D01*
X040917D01*
X040850D01*
Y022450D01*
X020601Y035248D02*
X020468D01*
Y035148D01*
X020535D01*
X020468D01*
Y035048D01*
X020618Y034947D02*
X020485D01*
Y034847D01*
X020551D01*
X020485D01*
Y034747D01*
X020601Y035512D02*
X020468D01*
Y035412D01*
X020535D01*
X020468D01*
Y035312D01*
X020324Y034952D02*
X020191D01*
Y034852D01*
X020258D01*
X020191D01*
Y034752D01*
X020324Y035520D02*
X020191D01*
Y035420D01*
X020258D01*
X020191D01*
Y035320D01*
X021673Y037860D02*
X021540D01*
Y037760D01*
X021607D01*
X021540D01*
Y037660D01*
X025724Y030416D02*
X025591D01*
Y030317D01*
X025657D01*
X025591D01*
Y030217D01*
X025724Y022346D02*
X025591D01*
Y022246D01*
X025657D01*
X025591D01*
Y022146D01*
X032444Y027300D02*
X032310D01*
Y027200D01*
X032377D01*
X032310D01*
Y027100D01*
X048303Y026775D02*
X048169D01*
Y026675D01*
X048236D01*
X048169D01*
Y026575D01*
X048657Y026775D02*
X048524D01*
Y026675D01*
X048590D01*
X048524D01*
Y026575D01*
X048303Y027070D02*
X048169D01*
Y026970D01*
X048236D01*
X048169D01*
Y026870D01*
X048657Y027070D02*
X048524D01*
Y026970D01*
X048590D01*
X048524D01*
Y026870D01*
X048303Y027365D02*
X048169D01*
Y027265D01*
X048236D01*
X048169D01*
Y027165D01*
X048657Y027365D02*
X048524D01*
Y027265D01*
X048590D01*
X048524D01*
Y027165D01*
X048303Y027661D02*
X048169D01*
Y027561D01*
X048236D01*
X048169D01*
Y027461D01*
X048657Y027661D02*
X048524D01*
Y027561D01*
X048590D01*
X048524D01*
Y027461D01*
X048303Y027956D02*
X048169D01*
Y027856D01*
X048236D01*
X048169D01*
Y027756D01*
X048657Y027956D02*
X048524D01*
Y027856D01*
X048590D01*
X048524D01*
Y027756D01*
X048303Y028251D02*
X048169D01*
Y028151D01*
X048236D01*
X048169D01*
Y028051D01*
X048657Y028251D02*
X048524D01*
Y028151D01*
X048590D01*
X048524D01*
Y028051D01*
X048303Y028546D02*
X048169D01*
Y028446D01*
X048236D01*
X048169D01*
Y028346D01*
X048657Y028546D02*
X048524D01*
Y028446D01*
X048590D01*
X048524D01*
Y028346D01*
X014403Y026760D02*
X014269D01*
Y026660D01*
X014336D01*
X014269D01*
Y026560D01*
X014598Y026977D02*
X014465D01*
Y026877D01*
X014532D01*
X014465D01*
Y026777D01*
X013625Y024425D02*
X013491D01*
Y024325D01*
X013558D01*
X013491D01*
Y024225D01*
X013618Y024706D02*
X013484D01*
Y024606D01*
X013551D01*
X013484D01*
Y024506D01*
X014107Y023337D02*
X013974D01*
Y023237D01*
X014040D01*
X013974D01*
Y023137D01*
X014110Y023133D02*
X013976D01*
Y023033D01*
X014043D01*
X013976D01*
Y022933D01*
X014017Y020440D02*
X013884D01*
Y020340D01*
X013951D01*
X013884D01*
Y020240D01*
X014011Y020672D02*
X013878D01*
Y020572D01*
X013945D01*
X013878D01*
Y020472D01*
X016669Y043704D02*
X016535D01*
Y043604D01*
X016602D01*
X016535D01*
Y043504D01*
X016669Y035042D02*
X016535D01*
Y034942D01*
X016602D01*
X016535D01*
Y034843D01*
X031393Y043074D02*
X031260D01*
Y042974D01*
X031326D01*
X031260D01*
Y042874D01*
X030881Y043625D02*
X030748D01*
Y043525D01*
X030815D01*
X030748D01*
Y043425D01*
X031043Y043100D02*
X030910D01*
Y043000D01*
X030977D01*
X030910D01*
Y042900D01*
X030883Y043261D02*
X030749D01*
Y043161D01*
X030816D01*
X030749D01*
Y043061D01*
X031708Y046972D02*
X031575D01*
Y046872D01*
X031641D01*
X031575D01*
Y046772D01*
X033440Y047287D02*
X033307D01*
Y047187D01*
X033374D01*
X033307D01*
Y047087D01*
X038558Y040318D02*
X038425D01*
Y040218D01*
X038492D01*
X038425D01*
Y040118D01*
X040921Y042405D02*
X040787D01*
Y042305D01*
X040854D01*
X040787D01*
Y042205D01*
X040370Y041814D02*
X040236D01*
Y041714D01*
X040303D01*
X040236D01*
Y041614D01*
X039740Y041184D02*
X039606D01*
Y041084D01*
X039673D01*
X039606D01*
Y040984D01*
X039149Y040830D02*
X039016D01*
Y040730D01*
X039082D01*
X039016D01*
Y040630D01*
X023755Y018192D02*
X023622D01*
Y018092D01*
X023689D01*
X023622D01*
Y017992D01*
X021984Y019334D02*
X021850D01*
Y019234D01*
X021917D01*
X021850D01*
Y019134D01*
X026905Y024216D02*
X026772D01*
Y024116D01*
X026838D01*
X026772D01*
Y024016D01*
X026236Y023546D02*
X026102D01*
Y023446D01*
X026169D01*
X026102D01*
Y023346D01*
X045212Y030810D02*
X045079D01*
Y030710D01*
X045145D01*
X045079D01*
Y030610D01*
X045015Y030594D02*
X044882D01*
Y030494D01*
X044949D01*
X044882D01*
Y030394D01*
X045409Y030594D02*
X045276D01*
Y030494D01*
X045342D01*
X045276D01*
Y030394D01*
X045409Y031027D02*
X045276D01*
Y030927D01*
X045342D01*
X045276D01*
Y030827D01*
X045015Y031027D02*
X044882D01*
Y030927D01*
X044949D01*
X044882D01*
Y030827D01*
X021551Y033409D02*
X021417D01*
Y033309D01*
X021484D01*
X021417D01*
Y033209D01*
X021236Y033409D02*
X021102D01*
Y033309D01*
X021169D01*
X021102D01*
Y033209D01*
X021728Y033704D02*
X021594D01*
Y033604D01*
X021661D01*
X021594D01*
Y033504D01*
X021019Y033704D02*
X020886D01*
Y033604D01*
X020952D01*
X020886D01*
Y033504D01*
X014287Y033350D02*
X014154D01*
Y033250D01*
X014220D01*
X014154D01*
Y033150D01*
X014287Y033704D02*
X014154D01*
Y033604D01*
X014220D01*
X014154D01*
Y033504D01*
X014287Y034019D02*
X014154D01*
Y033919D01*
X014220D01*
X014154D01*
Y033819D01*
X014287Y034334D02*
X014154D01*
Y034234D01*
X014220D01*
X014154D01*
Y034134D01*
X014287Y034609D02*
X014154D01*
Y034509D01*
X014220D01*
X014154D01*
Y034409D01*
X014641Y038783D02*
X014508D01*
Y038683D01*
X014575D01*
X014508D01*
Y038583D01*
X014641Y039413D02*
X014508D01*
Y039313D01*
X014575D01*
X014508D01*
Y039213D01*
X014641Y040003D02*
X014508D01*
Y039903D01*
X014575D01*
X014508D01*
Y039803D01*
X016334Y038783D02*
X016201D01*
Y038683D01*
X016267D01*
X016201D01*
Y038583D01*
X016334Y039452D02*
X016201D01*
Y039352D01*
X016267D01*
X016201D01*
Y039252D01*
X016334Y039964D02*
X016201D01*
Y039864D01*
X016267D01*
X016201D01*
Y039764D01*
X019484Y035357D02*
X019350D01*
Y035257D01*
X019417D01*
X019350D01*
Y035157D01*
X019484Y035594D02*
X019350D01*
Y035494D01*
X019417D01*
X019350D01*
Y035394D01*
X019484Y035830D02*
X019350D01*
Y035730D01*
X019417D01*
X019350D01*
Y035630D01*
X019484Y036066D02*
X019350D01*
Y035966D01*
X019417D01*
X019350D01*
Y035866D01*
X019494Y036308D02*
X019361D01*
Y036208D01*
X019427D01*
X019361D01*
Y036108D01*
X050055Y045357D02*
X049921D01*
Y045257D01*
X049988D01*
X049921D01*
Y045157D01*
X049818Y044649D02*
X049685D01*
Y044549D01*
X049752D01*
X049685D01*
Y044449D01*
X047574Y044609D02*
X047441D01*
Y044509D01*
X047508D01*
X047441D01*
Y044409D01*
X048677Y044806D02*
X048543D01*
Y044706D01*
X048610D01*
X048543D01*
Y044606D01*
X047574Y044964D02*
X047441D01*
Y044864D01*
X047508D01*
X047441D01*
Y044764D01*
X022496Y019019D02*
X022362D01*
Y018919D01*
X022429D01*
X022362D01*
Y018819D01*
X021383Y027530D02*
X021250D01*
Y027430D01*
X021317D01*
X021250D01*
Y027330D01*
X020473Y041140D02*
X020340D01*
Y041040D01*
X020407D01*
X020340D01*
Y040940D01*
X044110Y018861D02*
X043976D01*
Y018761D01*
X044043D01*
X043976D01*
Y018661D01*
X044110Y019531D02*
X043976D01*
Y019431D01*
X044043D01*
X043976D01*
Y019331D01*
X041411Y042340D02*
X041278D01*
Y042240D01*
X041345D01*
X041278D01*
Y042140D01*
X049818Y047129D02*
X049685D01*
Y047029D01*
X049752D01*
X049685D01*
Y046929D01*
X048716Y022700D02*
X048583D01*
Y022600D01*
X048649D01*
X048583D01*
Y022500D01*
X048204Y022700D02*
X048071D01*
Y022600D01*
X048138D01*
X048071D01*
Y022500D01*
X048716Y023172D02*
X048583D01*
Y023072D01*
X048649D01*
X048583D01*
Y022972D01*
X048204Y023172D02*
X048071D01*
Y023072D01*
X048138D01*
X048071D01*
Y022972D01*
X048972Y022916D02*
X048839D01*
Y022817D01*
X048905D01*
X048839D01*
Y022717D01*
X048460Y022916D02*
X048327D01*
Y022817D01*
X048393D01*
X048327D01*
Y022717D01*
X047948Y022916D02*
X047815D01*
Y022817D01*
X047882D01*
X047815D01*
Y022717D01*
X049633Y023902D02*
X049500D01*
Y023802D01*
X049566D01*
X049500D01*
Y023702D01*
X049633Y024404D02*
X049500D01*
Y024304D01*
X049566D01*
X049500D01*
Y024204D01*
X049627Y024904D02*
X049494D01*
Y024804D01*
X049561D01*
X049494D01*
Y024704D01*
X049022Y024896D02*
X048889D01*
Y024796D01*
X048955D01*
X048889D01*
Y024696D01*
X049011Y024413D02*
X048878D01*
Y024313D01*
X048945D01*
X048878D01*
Y024213D01*
X049011Y023901D02*
X048878D01*
Y023801D01*
X048945D01*
X048878D01*
Y023701D01*
X048755Y024137D02*
X048622D01*
Y024037D01*
X048689D01*
X048622D01*
Y023937D01*
X048755Y024668D02*
X048622D01*
Y024568D01*
X048689D01*
X048622D01*
Y024469D01*
X049346Y024668D02*
X049213D01*
Y024568D01*
X049279D01*
X049213D01*
Y024469D01*
X049346Y024137D02*
X049213D01*
Y024037D01*
X049279D01*
X049213D01*
Y023937D01*
X049936Y024157D02*
X049803D01*
Y024057D01*
X049870D01*
X049803D01*
Y023957D01*
X049936Y024688D02*
X049803D01*
Y024588D01*
X049870D01*
X049803D01*
Y024488D01*
X049720Y025869D02*
X049587D01*
Y025769D01*
X049653D01*
X049587D01*
Y025669D01*
X050232Y025869D02*
X050098D01*
Y025769D01*
X050165D01*
X050098D01*
Y025669D01*
X050744Y025869D02*
X050610D01*
Y025769D01*
X050677D01*
X050610D01*
Y025669D01*
X049976Y025633D02*
X049843D01*
Y025533D01*
X049909D01*
X049843D01*
Y025433D01*
X050488Y025633D02*
X050354D01*
Y025533D01*
X050421D01*
X050354D01*
Y025433D01*
X050488Y026125D02*
X050354D01*
Y026025D01*
X050421D01*
X050354D01*
Y025925D01*
X049976Y026125D02*
X049843D01*
Y026025D01*
X049909D01*
X049843D01*
Y025925D01*
X045291Y027680D02*
X045157D01*
Y027580D01*
X045224D01*
X045157D01*
Y027480D01*
X045291Y027995D02*
X045157D01*
Y027895D01*
X045224D01*
X045157D01*
Y027795D01*
X045291Y028231D02*
X045157D01*
Y028131D01*
X045224D01*
X045157D01*
Y028031D01*
X044976Y028231D02*
X044843D01*
Y028131D01*
X044909D01*
X044843D01*
Y028031D01*
X044700Y028231D02*
X044567D01*
Y028131D01*
X044634D01*
X044567D01*
Y028031D01*
X044425Y028231D02*
X044291D01*
Y028131D01*
X044358D01*
X044291D01*
Y028031D01*
X044149Y028231D02*
X044016D01*
Y028131D01*
X044082D01*
X044016D01*
Y028031D01*
X043873Y028231D02*
X043740D01*
Y028131D01*
X043807D01*
X043740D01*
Y028031D01*
X046866Y026853D02*
X046732D01*
Y026754D01*
X046799D01*
X046732D01*
Y026654D01*
X046866Y027208D02*
X046732D01*
Y027108D01*
X046799D01*
X046732D01*
Y027008D01*
X046866Y027523D02*
X046732D01*
Y027423D01*
X046799D01*
X046732D01*
Y027323D01*
X046866Y027838D02*
X046732D01*
Y027738D01*
X046799D01*
X046732D01*
Y027638D01*
X046866Y028192D02*
X046732D01*
Y028092D01*
X046799D01*
X046732D01*
Y027992D01*
X043337Y024323D02*
X043204D01*
Y024223D01*
X043271D01*
X043204D01*
Y024123D01*
X042947Y022779D02*
X042814D01*
Y022679D01*
X042880D01*
X042814D01*
Y022580D01*
X044436Y020889D02*
X044303D01*
Y020789D01*
X044369D01*
X044303D01*
Y020689D01*
X044436Y021504D02*
X044303D01*
Y021404D01*
X044369D01*
X044303D01*
Y021304D01*
X044436Y022169D02*
X044303D01*
Y022069D01*
X044369D01*
X044303D01*
Y021969D01*
X044848Y022161D02*
X044715D01*
Y022061D01*
X044781D01*
X044715D01*
Y021961D01*
X044067Y022700D02*
X043934D01*
Y022600D01*
X044000D01*
X043934D01*
Y022500D01*
X044586Y022693D02*
X044452D01*
Y022593D01*
X044519D01*
X044452D01*
Y022493D01*
X044595Y023166D02*
X044462D01*
Y023066D01*
X044528D01*
X044462D01*
Y022966D01*
X044067Y023172D02*
X043934D01*
Y023073D01*
X044000D01*
X043934D01*
Y022973D01*
X043825Y023438D02*
X043692D01*
Y023338D01*
X043759D01*
X043692D01*
Y023238D01*
X043809Y022947D02*
X043676D01*
Y022847D01*
X043742D01*
X043676D01*
Y022747D01*
X043797Y022468D02*
X043664D01*
Y022368D01*
X043731D01*
X043664D01*
Y022268D01*
X044328Y022468D02*
X044194D01*
Y022368D01*
X044261D01*
X044194D01*
Y022268D01*
X044842Y022482D02*
X044708D01*
Y022382D01*
X044775D01*
X044708D01*
Y022282D01*
X044828Y022947D02*
X044694D01*
Y022847D01*
X044761D01*
X044694D01*
Y022747D01*
X044811Y023512D02*
X044678D01*
Y023412D01*
X044745D01*
X044678D01*
Y023312D01*
X044318Y023503D02*
X044185D01*
Y023403D01*
X044252D01*
X044185D01*
Y023303D01*
X045800Y025208D02*
X045667D01*
Y025108D01*
X045733D01*
X045667D01*
Y025008D01*
X045835Y025638D02*
X045701D01*
Y025538D01*
X045768D01*
X045701D01*
Y025439D01*
X045863Y026119D02*
X045730D01*
Y026019D01*
X045796D01*
X045730D01*
Y025919D01*
X046341Y026132D02*
X046207D01*
Y026032D01*
X046274D01*
X046207D01*
Y025932D01*
X046344Y025648D02*
X046211D01*
Y025548D01*
X046277D01*
X046211D01*
Y025448D01*
X046617Y025428D02*
X046484D01*
Y025328D01*
X046551D01*
X046484D01*
Y025228D01*
X046096Y025431D02*
X045962D01*
Y025331D01*
X046029D01*
X045962D01*
Y025231D01*
X045590Y025428D02*
X045456D01*
Y025328D01*
X045523D01*
X045456D01*
Y025228D01*
X045599Y025893D02*
X045466D01*
Y025793D01*
X045532D01*
X045466D01*
Y025693D01*
X046098Y025909D02*
X045965D01*
Y025809D01*
X046031D01*
X045965D01*
Y025709D01*
X046605Y025893D02*
X046472D01*
Y025793D01*
X046538D01*
X046472D01*
Y025693D01*
X046592Y026405D02*
X046459D01*
Y026305D01*
X046526D01*
X046459D01*
Y026206D01*
X046105Y026393D02*
X045972D01*
Y026293D01*
X046038D01*
X045972D01*
Y026193D01*
X045593Y026387D02*
X045459D01*
Y026287D01*
X045526D01*
X045459D01*
Y026187D01*
X046086Y024413D02*
X045953D01*
Y024313D01*
X046020D01*
X045953D01*
Y024213D01*
X046089Y024925D02*
X045956D01*
Y024825D01*
X046023D01*
X045956D01*
Y024725D01*
X046070Y023765D02*
X045937D01*
Y023665D01*
X046004D01*
X045937D01*
Y023565D01*
X044232Y023894D02*
X044098D01*
Y023794D01*
X044165D01*
X044098D01*
Y023694D01*
X044210Y024111D02*
X044076D01*
Y024011D01*
X044143D01*
X044076D01*
Y023911D01*
X044188Y024447D02*
X044054D01*
Y024347D01*
X044121D01*
X044054D01*
Y024247D01*
X043807Y024136D02*
X043674D01*
Y024036D01*
X043741D01*
X043674D01*
Y023936D01*
X042751Y024108D02*
X042618D01*
Y024008D01*
X042684D01*
X042618D01*
Y023908D01*
X042078Y024108D02*
X041945D01*
Y024008D01*
X042012D01*
X041945D01*
Y023908D01*
X045515Y024414D02*
X045382D01*
Y024314D01*
X045448D01*
X045382D01*
Y024214D01*
X044920Y024414D02*
X044787D01*
Y024314D01*
X044854D01*
X044787D01*
Y024214D01*
X045489Y023901D02*
X045356D01*
Y023801D01*
X045423D01*
X045356D01*
Y023701D01*
X044917Y023920D02*
X044783D01*
Y023820D01*
X044850D01*
X044783D01*
Y023720D01*
X044621Y024117D02*
X044488D01*
Y024017D01*
X044555D01*
X044488D01*
Y023917D01*
X045784Y024171D02*
X045651D01*
Y024071D01*
X045718D01*
X045651D01*
Y023971D01*
X045212Y024157D02*
X045079D01*
Y024057D01*
X045145D01*
X045079D01*
Y023957D01*
X045803Y024668D02*
X045669D01*
Y024568D01*
X045736D01*
X045669D01*
Y024469D01*
X045468Y024924D02*
X045335D01*
Y024824D01*
X045401D01*
X045335D01*
Y024724D01*
X045212Y024668D02*
X045079D01*
Y024568D01*
X045145D01*
X045079D01*
Y024469D01*
X044917Y024905D02*
X044783D01*
Y024805D01*
X044850D01*
X044783D01*
Y024705D01*
X044611Y024690D02*
X044478D01*
Y024590D01*
X044544D01*
X044478D01*
Y024490D01*
X037128Y023510D02*
X036995D01*
Y023410D01*
X037061D01*
X036995D01*
Y023310D01*
X036289Y023500D02*
X036155D01*
Y023400D01*
X036222D01*
X036155D01*
Y023300D01*
X031826Y028546D02*
X031693D01*
Y028446D01*
X031760D01*
X031693D01*
Y028346D01*
X031432Y026578D02*
X031299D01*
Y026478D01*
X031366D01*
X031299D01*
Y026378D01*
X032300Y027856D02*
X032167D01*
Y027756D01*
X032233D01*
X032167D01*
Y027656D01*
X030473Y027320D02*
X030340D01*
Y027220D01*
X030407D01*
X030340D01*
Y027120D01*
X032121Y027562D02*
X031988D01*
Y027462D01*
X032055D01*
X031988D01*
Y027362D01*
X037633Y027365D02*
X037500D01*
Y027265D01*
X037567D01*
X037500D01*
Y027165D01*
X029378Y023047D02*
X029245D01*
Y022947D01*
X029312D01*
X029245D01*
Y022847D01*
X035133Y041250D02*
X035000D01*
Y041150D01*
X035067D01*
X035000D01*
Y041050D01*
X031504Y027863D02*
X031370D01*
Y027763D01*
X031437D01*
X031370D01*
Y027663D01*
X031443Y027550D02*
X031310D01*
Y027450D01*
X031377D01*
X031310D01*
Y027350D01*
X031196Y027723D02*
X031063D01*
Y027623D01*
X031130D01*
X031063D01*
Y027523D01*
X021763Y027460D02*
X021630D01*
Y027360D01*
X021697D01*
X021630D01*
Y027260D01*
X027743Y016600D02*
X027610D01*
Y016500D01*
X027677D01*
X027610D01*
Y016400D01*
X027533Y016920D02*
X027400D01*
Y016820D01*
X027467D01*
X027400D01*
Y016720D01*
X028063Y015089D02*
X027930D01*
Y014989D01*
X027997D01*
X027930D01*
Y014889D01*
X028113Y019190D02*
X027980D01*
Y019090D01*
X028047D01*
X027980D01*
Y018990D01*
X027843Y019550D02*
X027710D01*
Y019450D01*
X027777D01*
X027710D01*
Y019350D01*
X028163Y019880D02*
X028030D01*
Y019780D01*
X028097D01*
X028030D01*
Y019680D01*
X027493Y018310D02*
X027360D01*
Y018210D01*
X027427D01*
X027360D01*
Y018110D01*
X046073Y033490D02*
X045940D01*
Y033390D01*
X046007D01*
X045940D01*
Y033290D01*
X046551Y033403D02*
X046417D01*
Y033303D01*
X046484D01*
X046417D01*
Y033203D01*
X046333Y031880D02*
X046200D01*
Y031780D01*
X046267D01*
X046200D01*
Y031680D01*
X046013Y031860D02*
X045880D01*
Y031760D01*
X045947D01*
X045880D01*
Y031660D01*
X045613Y031970D02*
X045480D01*
Y031870D01*
X045547D01*
X045480D01*
Y031770D01*
X045310Y031963D02*
X045177D01*
Y031863D01*
X045244D01*
X045177D01*
Y031763D01*
X042377Y052405D02*
X042244D01*
Y052305D01*
X042311D01*
X042244D01*
Y052205D01*
X042377Y052720D02*
X042244D01*
Y052620D01*
X042311D01*
X042244D01*
Y052520D01*
X044425Y052956D02*
X044291D01*
Y052856D01*
X044358D01*
X044291D01*
Y052756D01*
X044031Y052956D02*
X043898D01*
Y052856D01*
X043964D01*
X043898D01*
Y052756D01*
X041785Y043915D02*
X041652D01*
Y043815D01*
X041719D01*
X041652D01*
Y043715D01*
X045015Y042877D02*
X044882D01*
Y042777D01*
X044949D01*
X044882D01*
Y042677D01*
X044385Y042680D02*
X044252D01*
Y042580D01*
X044319D01*
X044252D01*
Y042480D01*
X044070Y042680D02*
X043937D01*
Y042580D01*
X044004D01*
X043937D01*
Y042480D01*
X043401Y042680D02*
X043268D01*
Y042580D01*
X043334D01*
X043268D01*
Y042480D01*
X045606Y040554D02*
X045472D01*
Y040454D01*
X045539D01*
X045472D01*
Y040354D01*
X050803Y040554D02*
X050669D01*
Y040454D01*
X050736D01*
X050669D01*
Y040354D01*
X050803Y034964D02*
X050669D01*
Y034864D01*
X050736D01*
X050669D01*
Y034764D01*
X050330Y034964D02*
X050197D01*
Y034864D01*
X050264D01*
X050197D01*
Y034764D01*
X045606Y035003D02*
X045472D01*
Y034903D01*
X045539D01*
X045472D01*
Y034803D01*
X044188Y037720D02*
X044055D01*
Y037620D01*
X044122D01*
X044055D01*
Y037520D01*
X044621Y038192D02*
X044488D01*
Y038092D01*
X044555D01*
X044488D01*
Y037992D01*
X043873Y037720D02*
X043740D01*
Y037620D01*
X043807D01*
X043740D01*
Y037520D01*
X032595Y025003D02*
X032462D01*
Y024903D01*
X032528D01*
X032462D01*
Y024803D01*
X032822Y025003D02*
X032689D01*
Y024903D01*
X032756D01*
X032689D01*
Y024803D01*
X044621Y029039D02*
X044488D01*
Y028939D01*
X044555D01*
X044488D01*
Y028839D01*
X044228Y029039D02*
X044094D01*
Y028939D01*
X044161D01*
X044094D01*
Y028839D01*
X044228Y030909D02*
X044095D01*
Y030809D01*
X044161D01*
X044095D01*
Y030709D01*
X046295Y030515D02*
X046161D01*
Y030415D01*
X046228D01*
X046161D01*
Y030315D01*
X030350Y040653D02*
X030217D01*
Y040553D01*
X030283D01*
X030217D01*
Y040453D01*
X020326Y035224D02*
X020193D01*
Y035124D01*
X020260D01*
X020193D01*
Y035024D01*
X040045Y023671D02*
X039911D01*
Y023571D01*
X039978D01*
X039911D01*
Y023471D01*
X039789Y023644D02*
X039656D01*
Y023544D01*
X039722D01*
X039656D01*
Y023444D01*
X034188Y040653D02*
X034055D01*
Y040553D01*
X034122D01*
X034055D01*
Y040453D01*
X037464Y041232D02*
X037331D01*
Y041132D01*
X037398D01*
X037331D01*
Y041032D01*
X021988Y021558D02*
X021855D01*
Y021458D01*
X021922D01*
X021855D01*
Y021358D01*
X021988Y022050D02*
X021855D01*
Y021950D01*
X021922D01*
X021855D01*
Y021850D01*
X015192Y027261D02*
X015059D01*
Y027161D01*
X015126D01*
X015059D01*
Y027061D01*
X015586Y027263D02*
X015453D01*
Y027163D01*
X015519D01*
X015453D01*
Y027063D01*
X015980Y027266D02*
X015846D01*
Y027166D01*
X015913D01*
X015846D01*
Y027066D01*
X029759Y042621D02*
X029626D01*
Y042521D01*
X029693D01*
X029626D01*
Y042421D01*
X048460Y021657D02*
X048327D01*
Y021557D01*
X048393D01*
X048327D01*
Y021457D01*
X048795Y021991D02*
X048661D01*
Y021891D01*
X048728D01*
X048661D01*
Y021791D01*
X050881Y021991D02*
X050748D01*
Y021891D01*
X050815D01*
X050748D01*
Y021791D01*
X050881Y021322D02*
X050748D01*
Y021222D01*
X050815D01*
X050748D01*
Y021122D01*
X047870Y022050D02*
X047736D01*
Y021950D01*
X047803D01*
X047736D01*
Y021850D01*
X049149Y017129D02*
X049016D01*
Y017029D01*
X049082D01*
X049016D01*
Y016929D01*
X027323Y020590D02*
X027190D01*
Y020490D01*
X027257D01*
X027190D01*
Y020390D01*
X027353Y020930D02*
X027220D01*
Y020830D01*
X027287D01*
X027220D01*
Y020730D01*
X028103Y022270D02*
X027970D01*
Y022170D01*
X028037D01*
X027970D01*
Y022070D01*
X028313Y022060D02*
X028180D01*
Y021960D01*
X028247D01*
X028180D01*
Y021860D01*
X031043Y025030D02*
X030910D01*
Y024930D01*
X030977D01*
X030910D01*
Y024830D01*
X031307Y024912D02*
X031174D01*
Y024812D01*
X031241D01*
X031174D01*
Y024713D01*
X032011Y021492D02*
X031878D01*
Y021392D01*
X031945D01*
X031878D01*
Y021292D01*
X023614Y023920D02*
X023480D01*
Y023820D01*
X023547D01*
X023480D01*
Y023720D01*
X024403Y023920D02*
X024270D01*
Y023820D01*
X024336D01*
X024270D01*
Y023720D01*
X024420Y025397D02*
X024287D01*
Y025297D01*
X024353D01*
X024287D01*
Y025197D01*
X023676Y025397D02*
X023543D01*
Y025297D01*
X023610D01*
X023543D01*
Y025197D01*
X048572Y046361D02*
X048439D01*
Y046261D01*
X048505D01*
X048439D01*
Y046161D01*
X048963Y047050D02*
X048830D01*
Y046950D01*
X048897D01*
X048830D01*
Y046850D01*
X048874Y046536D02*
X048740D01*
Y046436D01*
X048807D01*
X048740D01*
Y046336D01*
X048866Y046763D02*
X048733D01*
Y046663D01*
X048800D01*
X048733D01*
Y046563D01*
X048613Y047140D02*
X048480D01*
Y047041D01*
X048547D01*
X048480D01*
Y046941D01*
X048613Y047368D02*
X048480D01*
Y047268D01*
X048547D01*
X048480D01*
Y047168D01*
X048983Y047400D02*
X048850D01*
Y047300D01*
X048917D01*
X048850D01*
Y047200D01*
X048580Y048133D02*
X048447D01*
Y048033D01*
X048513D01*
X048447D01*
Y047933D01*
X048580Y048724D02*
X048447D01*
Y048624D01*
X048513D01*
X048447D01*
Y048524D01*
X048580Y049314D02*
X048447D01*
Y049214D01*
X048513D01*
X048447D01*
Y049114D01*
X048580Y049905D02*
X048447D01*
Y049805D01*
X048513D01*
X048447D01*
Y049705D01*
X048580Y050495D02*
X048447D01*
Y050395D01*
X048513D01*
X048447D01*
Y050295D01*
X048580Y051086D02*
X048447D01*
Y050986D01*
X048513D01*
X048447D01*
Y050886D01*
X048580Y051676D02*
X048447D01*
Y051576D01*
X048513D01*
X048447D01*
Y051476D01*
X048580Y051873D02*
X048447D01*
Y051773D01*
X048513D01*
X048447D01*
Y051673D01*
X029793Y026820D02*
X029660D01*
Y026720D01*
X029727D01*
X029660D01*
Y026620D01*
X034976Y027300D02*
X034843D01*
Y027200D01*
X034909D01*
X034843D01*
Y027100D01*
X034031Y027300D02*
X033898D01*
Y027200D01*
X033964D01*
X033898D01*
Y027100D01*
X033244Y027300D02*
X033110D01*
Y027200D01*
X033177D01*
X033110D01*
Y027100D01*
X031669Y027300D02*
X031535D01*
Y027200D01*
X031602D01*
X031535D01*
Y027100D01*
X030881Y027300D02*
X030748D01*
Y027200D01*
X030815D01*
X030748D01*
Y027100D01*
X037496Y027856D02*
X037362D01*
Y027756D01*
X037429D01*
X037362D01*
Y027656D01*
X035606Y027856D02*
X035472D01*
Y027756D01*
X035539D01*
X035472D01*
Y027656D01*
X034976Y027856D02*
X034843D01*
Y027756D01*
X034909D01*
X034843D01*
Y027656D01*
X033873Y027856D02*
X033740D01*
Y027756D01*
X033807D01*
X033740D01*
Y027656D01*
X033086Y027856D02*
X032953D01*
Y027756D01*
X033019D01*
X032953D01*
Y027656D01*
X030881Y027856D02*
X030748D01*
Y027756D01*
X030815D01*
X030748D01*
Y027656D01*
X029936Y027856D02*
X029803D01*
Y027756D01*
X029870D01*
X029803D01*
Y027656D01*
X030409Y027856D02*
X030276D01*
Y027756D01*
X030342D01*
X030276D01*
Y027656D01*
X037023Y039946D02*
X036890D01*
Y039846D01*
X036956D01*
X036890D01*
Y039746D01*
X036551Y039946D02*
X036417D01*
Y039846D01*
X036484D01*
X036417D01*
Y039746D01*
X036078Y039946D02*
X035945D01*
Y039846D01*
X036012D01*
X035945D01*
Y039746D01*
X035606Y039946D02*
X035472D01*
Y039846D01*
X035539D01*
X035472D01*
Y039746D01*
X035133Y039946D02*
X035000D01*
Y039846D01*
X035067D01*
X035000D01*
Y039746D01*
X034661Y039946D02*
X034528D01*
Y039846D01*
X034594D01*
X034528D01*
Y039746D01*
X032771Y039946D02*
X032638D01*
Y039846D01*
X032704D01*
X032638D01*
Y039746D01*
X032299Y039946D02*
X032165D01*
Y039846D01*
X032232D01*
X032165D01*
Y039746D01*
X031826Y039946D02*
X031693D01*
Y039846D01*
X031760D01*
X031693D01*
Y039746D01*
X031354Y039946D02*
X031220D01*
Y039846D01*
X031287D01*
X031220D01*
Y039746D01*
X030881Y039946D02*
X030748D01*
Y039846D01*
X030815D01*
X030748D01*
Y039746D01*
X037023Y041230D02*
X036890D01*
Y041130D01*
X036956D01*
X036890D01*
Y041030D01*
X036551Y041237D02*
X036417D01*
Y041137D01*
X036484D01*
X036417D01*
Y041037D01*
X036078Y041235D02*
X035945D01*
Y041135D01*
X036012D01*
X035945D01*
Y041035D01*
X035606Y041217D02*
X035472D01*
Y041118D01*
X035539D01*
X035472D01*
Y041018D01*
X034661Y041837D02*
X034528D01*
Y041738D01*
X034594D01*
X034528D01*
Y041638D01*
X034188Y041855D02*
X034055D01*
Y041755D01*
X034122D01*
X034055D01*
Y041655D01*
X033716Y041877D02*
X033583D01*
Y041777D01*
X033649D01*
X033583D01*
Y041677D01*
X033244Y041880D02*
X033110D01*
Y041780D01*
X033177D01*
X033110D01*
Y041680D01*
X032771Y041878D02*
X032638D01*
Y041778D01*
X032704D01*
X032638D01*
Y041678D01*
X032299Y041245D02*
X032165D01*
Y041145D01*
X032232D01*
X032165D01*
Y041045D01*
X031826Y041247D02*
X031693D01*
Y041147D01*
X031760D01*
X031693D01*
Y041047D01*
X031354Y041239D02*
X031220D01*
Y041139D01*
X031287D01*
X031220D01*
Y041040D01*
X030881Y041238D02*
X030748D01*
Y041138D01*
X030815D01*
X030748D01*
Y041038D01*
X030409Y041236D02*
X030276D01*
Y041136D01*
X030342D01*
X030276D01*
Y041036D01*
X029956Y042326D02*
X029823D01*
Y042226D01*
X029889D01*
X029823D01*
Y042126D01*
X032768Y023924D02*
X032634D01*
Y023824D01*
X032701D01*
X032634D01*
Y023724D01*
X029267Y022542D02*
X029134D01*
Y022442D01*
X029200D01*
X029134D01*
Y022343D01*
X028590Y022446D02*
X028456D01*
Y022346D01*
X028523D01*
X028456D01*
Y022246D01*
X028573Y023640D02*
X028440D01*
Y023540D01*
X028507D01*
X028440D01*
Y023440D01*
X029471Y023638D02*
X029338D01*
Y023538D01*
X029404D01*
X029338D01*
Y023438D01*
X029283Y024530D02*
X029150D01*
Y024430D01*
X029217D01*
X029150D01*
Y024330D01*
X029498Y024785D02*
X029365D01*
Y024685D01*
X029432D01*
X029365D01*
Y024585D01*
X030323Y024912D02*
X030190D01*
Y024812D01*
X030256D01*
X030190D01*
Y024713D01*
X045653Y045830D02*
X045520D01*
Y045730D01*
X045587D01*
X045520D01*
Y045630D01*
X045943Y046040D02*
X045810D01*
Y045940D01*
X045877D01*
X045810D01*
Y045840D01*
X031341Y025390D02*
X031208D01*
Y025290D01*
X031275D01*
X031208D01*
Y025190D01*
X030357Y025350D02*
X030224D01*
Y025250D01*
X030290D01*
X030224D01*
Y025150D01*
X031688Y025397D02*
X031555D01*
Y025297D01*
X031622D01*
X031555D01*
Y025197D01*
X030711Y025350D02*
X030578D01*
Y025250D01*
X030645D01*
X030578D01*
Y025150D01*
X029936Y021814D02*
X029803D01*
Y021714D01*
X029870D01*
X029803D01*
Y021614D01*
X029287Y021794D02*
X029154D01*
Y021694D01*
X029220D01*
X029154D01*
Y021594D01*
X029641Y021794D02*
X029508D01*
Y021694D01*
X029575D01*
X029508D01*
Y021594D01*
X029169Y021322D02*
X029035D01*
Y021222D01*
X029102D01*
X029035D01*
Y021122D01*
X031610Y020731D02*
X031476D01*
Y020631D01*
X031543D01*
X031476D01*
Y020531D01*
X038509Y023614D02*
X038376D01*
Y023514D01*
X038443D01*
X038376D01*
Y023414D01*
X040301Y023647D02*
X040167D01*
Y023547D01*
X040234D01*
X040167D01*
Y023447D01*
X038913Y016899D02*
X038780D01*
Y016799D01*
X038846D01*
X038780D01*
Y016700D01*
X040094Y016919D02*
X039961D01*
Y016819D01*
X040027D01*
X039961D01*
Y016719D01*
X040684Y016909D02*
X040551D01*
Y016809D01*
X040618D01*
X040551D01*
Y016709D01*
X041275Y016902D02*
X041142D01*
Y016802D01*
X041208D01*
X041142D01*
Y016702D01*
X041866Y016902D02*
X041732D01*
Y016802D01*
X041799D01*
X041732D01*
Y016702D01*
X033703Y047180D02*
X033570D01*
Y047080D01*
X033637D01*
X033570D01*
Y046980D01*
X033703Y047407D02*
X033570D01*
Y047307D01*
X033637D01*
X033570D01*
Y047207D01*
X031963Y047097D02*
X031830D01*
Y046997D01*
X031897D01*
X031830D01*
Y046897D01*
X031963Y046870D02*
X031830D01*
Y046770D01*
X031897D01*
X031830D01*
Y046670D01*
X033204Y020031D02*
X033071D01*
Y019931D01*
X033138D01*
X033071D01*
Y019831D01*
X033204Y020909D02*
X033071D01*
Y020809D01*
X033138D01*
X033071D01*
Y020709D01*
X048893Y047724D02*
X048760D01*
Y047624D01*
X048827D01*
X048760D01*
Y047524D01*
X048893Y047951D02*
X048760D01*
Y047851D01*
X048827D01*
X048760D01*
Y047751D01*
X031347Y023205D02*
X031213D01*
Y023105D01*
X031280D01*
X031213D01*
Y023005D01*
X030914Y023205D02*
X030780D01*
Y023105D01*
X030847D01*
X030780D01*
Y023005D01*
X030480Y023205D02*
X030347D01*
Y023105D01*
X030414D01*
X030347D01*
Y023005D01*
X031347Y023638D02*
X031213D01*
Y023538D01*
X031280D01*
X031213D01*
Y023438D01*
X030914Y023638D02*
X030780D01*
Y023538D01*
X030847D01*
X030780D01*
Y023438D01*
X030480Y023638D02*
X030347D01*
Y023538D01*
X030414D01*
X030347D01*
Y023438D01*
X031347Y024071D02*
X031213D01*
Y023971D01*
X031280D01*
X031213D01*
Y023871D01*
X030914Y024071D02*
X030780D01*
Y023971D01*
X030847D01*
X030780D01*
Y023871D01*
X030480Y024071D02*
X030347D01*
Y023971D01*
X030414D01*
X030347D01*
Y023871D01*
D224*
X048230Y017185D02*
G03*
X048230Y017185I-000080J000000D01*
G01*
X042206Y040551D02*
G03*
X042206Y040551I-000080J000000D01*
G01*
X023308Y027559D02*
G03*
X023308Y027559I-000080J000000D01*
G01*
X042206D02*
G03*
X042206Y027559I-000080J000000D01*
G01*
X023308Y040551D02*
G03*
X023308Y040551I-000080J000000D01*
G01*
D225*
X042166D02*
G03*
X042166Y040551I-000040J000000D01*
G01*
X023268Y027559D02*
G03*
X023268Y027559I-000040J000000D01*
G01*
X042166D02*
G03*
X042166Y027559I-000040J000000D01*
G01*
X023268Y040551D02*
G03*
X023268Y040551I-000040J000000D01*
G01*
M02*
