G04*
G04 #@! TF.GenerationSoftware,Altium Limited,Altium Designer,22.2.1 (43)*
G04*
G04 Layer_Color=32896*
%FSAX24Y24*%
%MOIN*%
G70*
G04*
G04 #@! TF.SameCoordinates,07477AA8-A169-438C-A272-D3E418652323*
G04*
G04*
G04 #@! TF.FilePolarity,Positive*
G04*
G01*
G75*
%ADD21C,0.0060*%
%ADD221C,0.0060*%
%ADD222R,0.1575X0.0197*%
G36*
X022147Y051941D02*
X022167D01*
Y051928D01*
X022174D01*
Y051901D01*
X022180D01*
Y051867D01*
X022187D01*
Y051827D01*
X022194D01*
Y051793D01*
X022201D01*
Y051753D01*
X022207D01*
Y051719D01*
X022214D01*
Y051685D01*
X022221D01*
Y051645D01*
X022228D01*
Y051611D01*
X022234D01*
Y051571D01*
X022241D01*
Y051537D01*
X022248D01*
Y051503D01*
X022255D01*
Y051470D01*
X022261D01*
Y051429D01*
X022268D01*
Y051409D01*
X022275D01*
Y051396D01*
X022288D01*
Y051389D01*
X022302D01*
Y051382D01*
X022315D01*
Y051375D01*
X022335D01*
Y051369D01*
X022349D01*
Y051362D01*
X022369D01*
Y051355D01*
X022383D01*
Y051348D01*
X022396D01*
Y051342D01*
X022416D01*
Y051335D01*
X022430D01*
Y051328D01*
X022450D01*
Y051321D01*
X022463D01*
Y051315D01*
X022484D01*
Y051308D01*
X022497D01*
Y051301D01*
X022517D01*
Y051294D01*
X022531D01*
Y051288D01*
X022544D01*
Y051281D01*
X022565D01*
Y051274D01*
X022578D01*
Y051267D01*
X022598D01*
Y051261D01*
X022612D01*
Y051254D01*
X022632D01*
Y051247D01*
X022666D01*
Y051254D01*
X022672D01*
Y051261D01*
X022686D01*
Y051267D01*
X022693D01*
Y051274D01*
X022706D01*
Y051281D01*
X022713D01*
Y051288D01*
X022726D01*
Y051294D01*
X022733D01*
Y051301D01*
X022740D01*
Y051308D01*
X022753D01*
Y051315D01*
X022760D01*
Y051321D01*
X022773D01*
Y051328D01*
X022780D01*
Y051335D01*
X022794D01*
Y051342D01*
X022800D01*
Y051348D01*
X022814D01*
Y051355D01*
X022821D01*
Y051362D01*
X022834D01*
Y051369D01*
X022841D01*
Y051375D01*
X022848D01*
Y051382D01*
X022861D01*
Y051389D01*
X022868D01*
Y051396D01*
X022881D01*
Y051402D01*
X022888D01*
Y051409D01*
X022902D01*
Y051416D01*
X022908D01*
Y051423D01*
X022922D01*
Y051429D01*
X022928D01*
Y051436D01*
X022935D01*
Y051443D01*
X022949D01*
Y051449D01*
X022955D01*
Y051456D01*
X022969D01*
Y051463D01*
X022976D01*
Y051470D01*
X022989D01*
Y051476D01*
X022996D01*
Y051483D01*
X023009D01*
Y051490D01*
X023016D01*
Y051497D01*
X023030D01*
Y051503D01*
X023036D01*
Y051510D01*
X023043D01*
Y051517D01*
X023057D01*
Y051524D01*
X023063D01*
Y051530D01*
X023077D01*
Y051537D01*
X023083D01*
Y051544D01*
X023097D01*
Y051551D01*
X023110D01*
Y051544D01*
X023124D01*
Y051537D01*
X023131D01*
Y051530D01*
X023137D01*
Y051524D01*
X023144D01*
Y051517D01*
X023151D01*
Y051510D01*
X023158D01*
Y051503D01*
X023164D01*
Y051497D01*
X023171D01*
Y051490D01*
X023178D01*
Y051483D01*
X023185D01*
Y051476D01*
X023191D01*
Y051470D01*
X023198D01*
Y051463D01*
X023205D01*
Y051456D01*
X023212D01*
Y051449D01*
X023218D01*
Y051443D01*
X023225D01*
Y051436D01*
X023232D01*
Y051429D01*
X023238D01*
Y051423D01*
X023245D01*
Y051416D01*
X023252D01*
Y051409D01*
X023259D01*
Y051402D01*
X023265D01*
Y051396D01*
X023272D01*
Y051389D01*
X023279D01*
Y051382D01*
X023286D01*
Y051375D01*
X023292D01*
Y051369D01*
X023299D01*
Y051362D01*
X023306D01*
Y051355D01*
X023313D01*
Y051348D01*
X023319D01*
Y051342D01*
X023326D01*
Y051335D01*
X023333D01*
Y051328D01*
X023340D01*
Y051321D01*
X023346D01*
Y051315D01*
X023353D01*
Y051308D01*
X023360D01*
Y051301D01*
X023367D01*
Y051294D01*
X023373D01*
Y051288D01*
X023380D01*
Y051281D01*
X023387D01*
Y051274D01*
X023393D01*
Y051267D01*
X023400D01*
Y051261D01*
X023407D01*
Y051254D01*
X023414D01*
Y051247D01*
X023420D01*
Y051241D01*
X023427D01*
Y051234D01*
X023434D01*
Y051227D01*
X023441D01*
Y051220D01*
X023447D01*
Y051214D01*
X023454D01*
Y051207D01*
X023461D01*
Y051200D01*
X023468D01*
Y051193D01*
X023474D01*
Y051187D01*
X023481D01*
Y051180D01*
X023488D01*
Y051146D01*
X023481D01*
Y051133D01*
X023474D01*
Y051126D01*
X023468D01*
Y051119D01*
X023461D01*
Y051106D01*
X023454D01*
Y051099D01*
X023447D01*
Y051086D01*
X023441D01*
Y051079D01*
X023434D01*
Y051065D01*
X023427D01*
Y051059D01*
X023420D01*
Y051045D01*
X023414D01*
Y051038D01*
X023407D01*
Y051032D01*
X023400D01*
Y051018D01*
X023393D01*
Y051011D01*
X023387D01*
Y050998D01*
X023380D01*
Y050991D01*
X023373D01*
Y050978D01*
X023367D01*
Y050971D01*
X023360D01*
Y050957D01*
X023353D01*
Y050951D01*
X023346D01*
Y050937D01*
X023340D01*
Y050931D01*
X023333D01*
Y050917D01*
X023326D01*
Y050910D01*
X023319D01*
Y050904D01*
X023313D01*
Y050890D01*
X023306D01*
Y050883D01*
X023299D01*
Y050870D01*
X023292D01*
Y050863D01*
X023286D01*
Y050850D01*
X023279D01*
Y050843D01*
X023272D01*
Y050829D01*
X023265D01*
Y050823D01*
X023259D01*
Y050809D01*
X023252D01*
Y050802D01*
X023245D01*
Y050796D01*
X023238D01*
Y050782D01*
X023232D01*
Y050776D01*
X023225D01*
Y050762D01*
X023218D01*
Y050755D01*
X023212D01*
Y050742D01*
X023205D01*
Y050735D01*
X023198D01*
Y050688D01*
X023205D01*
Y050674D01*
X023212D01*
Y050654D01*
X023218D01*
Y050641D01*
X023225D01*
Y050627D01*
X023232D01*
Y050607D01*
X023238D01*
Y050594D01*
X023245D01*
Y050580D01*
X023252D01*
Y050560D01*
X023259D01*
Y050546D01*
X023265D01*
Y050533D01*
X023272D01*
Y050513D01*
X023279D01*
Y050499D01*
X023286D01*
Y050486D01*
X023292D01*
Y050466D01*
X023299D01*
Y050452D01*
X023306D01*
Y050439D01*
X023313D01*
Y050418D01*
X023319D01*
Y050405D01*
X023326D01*
Y050391D01*
X023333D01*
Y050371D01*
X023340D01*
Y050358D01*
X023346D01*
Y050344D01*
X023353D01*
Y050331D01*
X023360D01*
Y050324D01*
X023380D01*
Y050317D01*
X023420D01*
Y050311D01*
X023454D01*
Y050304D01*
X023488D01*
Y050297D01*
X023522D01*
Y050290D01*
X023562D01*
Y050284D01*
X023596D01*
Y050277D01*
X023636D01*
Y050270D01*
X023670D01*
Y050263D01*
X023703D01*
Y050257D01*
X023744D01*
Y050250D01*
X023778D01*
Y050243D01*
X023818D01*
Y050236D01*
X023852D01*
Y050230D01*
X023879D01*
Y050223D01*
X023885D01*
Y050203D01*
X023892D01*
Y049697D01*
X023885D01*
Y049684D01*
X023879D01*
Y049677D01*
X023872D01*
Y049670D01*
X023845D01*
Y049664D01*
X023805D01*
Y049657D01*
X023771D01*
Y049650D01*
X023730D01*
Y049643D01*
X023697D01*
Y049637D01*
X023663D01*
Y049630D01*
X023629D01*
Y049623D01*
X023589D01*
Y049616D01*
X023555D01*
Y049610D01*
X023515D01*
Y049603D01*
X023481D01*
Y049596D01*
X023441D01*
Y049589D01*
X023407D01*
Y049583D01*
X023380D01*
Y049576D01*
X023373D01*
Y049569D01*
X023367D01*
Y049563D01*
X023360D01*
Y049549D01*
X023353D01*
Y049529D01*
X023346D01*
Y049515D01*
X023340D01*
Y049495D01*
X023333D01*
Y049482D01*
X023326D01*
Y049461D01*
X023319D01*
Y049448D01*
X023313D01*
Y049428D01*
X023306D01*
Y049414D01*
X023299D01*
Y049394D01*
X023292D01*
Y049381D01*
X023286D01*
Y049360D01*
X023279D01*
Y049347D01*
X023272D01*
Y049327D01*
X023265D01*
Y049313D01*
X023259D01*
Y049293D01*
X023252D01*
Y049279D01*
X023245D01*
Y049259D01*
X023238D01*
Y049246D01*
X023232D01*
Y049226D01*
X023225D01*
Y049212D01*
X023218D01*
Y049192D01*
X023212D01*
Y049151D01*
X023218D01*
Y049138D01*
X023225D01*
Y049131D01*
X023232D01*
Y049118D01*
X023238D01*
Y049111D01*
X023245D01*
Y049097D01*
X023252D01*
Y049091D01*
X023259D01*
Y049077D01*
X023265D01*
Y049071D01*
X023272D01*
Y049064D01*
X023279D01*
Y049050D01*
X023286D01*
Y049037D01*
X023292D01*
Y049030D01*
X023299D01*
Y049023D01*
X023306D01*
Y049010D01*
X023313D01*
Y049003D01*
X023319D01*
Y048990D01*
X023326D01*
Y048983D01*
X023333D01*
Y048969D01*
X023340D01*
Y048963D01*
X023346D01*
Y048949D01*
X023353D01*
Y048942D01*
X023360D01*
Y048936D01*
X023367D01*
Y048922D01*
X023373D01*
Y048916D01*
X023380D01*
Y048902D01*
X023387D01*
Y048895D01*
X023393D01*
Y048882D01*
X023400D01*
Y048875D01*
X023407D01*
Y048862D01*
X023414D01*
Y048855D01*
X023420D01*
Y048841D01*
X023427D01*
Y048835D01*
X023434D01*
Y048828D01*
X023441D01*
Y048814D01*
X023447D01*
Y048808D01*
X023454D01*
Y048794D01*
X023461D01*
Y048787D01*
X023468D01*
Y048774D01*
X023474D01*
Y048767D01*
X023481D01*
Y048754D01*
X023488D01*
Y048720D01*
X023481D01*
Y048713D01*
X023474D01*
Y048707D01*
X023468D01*
Y048700D01*
X023461D01*
Y048693D01*
X023454D01*
Y048686D01*
X023447D01*
Y048680D01*
X023441D01*
Y048673D01*
X023434D01*
Y048666D01*
X023427D01*
Y048659D01*
X023420D01*
Y048653D01*
X023414D01*
Y048646D01*
X023407D01*
Y048639D01*
X023400D01*
Y048632D01*
X023393D01*
Y048626D01*
X023387D01*
Y048619D01*
X023380D01*
Y048612D01*
X023373D01*
Y048606D01*
X023367D01*
Y048599D01*
X023360D01*
Y048592D01*
X023353D01*
Y048585D01*
X023346D01*
Y048579D01*
X023340D01*
Y048572D01*
X023333D01*
Y048565D01*
X023326D01*
Y048558D01*
X023319D01*
Y048552D01*
X023313D01*
Y048545D01*
X023306D01*
Y048538D01*
X023299D01*
Y048531D01*
X023292D01*
Y048525D01*
X023286D01*
Y048518D01*
X023279D01*
Y048511D01*
X023272D01*
Y048504D01*
X023265D01*
Y048498D01*
X023259D01*
Y048491D01*
X023252D01*
Y048484D01*
X023245D01*
Y048478D01*
X023238D01*
Y048471D01*
X023232D01*
Y048464D01*
X023225D01*
Y048457D01*
X023218D01*
Y048451D01*
X023212D01*
Y048444D01*
X023205D01*
Y048437D01*
X023198D01*
Y048430D01*
X023191D01*
Y048424D01*
X023185D01*
Y048417D01*
X023178D01*
Y048410D01*
X023171D01*
Y048403D01*
X023164D01*
Y048397D01*
X023158D01*
Y048390D01*
X023151D01*
Y048383D01*
X023144D01*
Y048376D01*
X023137D01*
Y048370D01*
X023131D01*
Y048363D01*
X023124D01*
Y048356D01*
X023090D01*
Y048363D01*
X023077D01*
Y048370D01*
X023070D01*
Y048376D01*
X023057D01*
Y048383D01*
X023050D01*
Y048390D01*
X023036D01*
Y048397D01*
X023030D01*
Y048403D01*
X023023D01*
Y048410D01*
X023009D01*
Y048417D01*
X023003D01*
Y048424D01*
X022989D01*
Y048430D01*
X022982D01*
Y048437D01*
X022969D01*
Y048444D01*
X022962D01*
Y048451D01*
X022949D01*
Y048457D01*
X022942D01*
Y048464D01*
X022928D01*
Y048471D01*
X022922D01*
Y048478D01*
X022915D01*
Y048484D01*
X022902D01*
Y048491D01*
X022895D01*
Y048498D01*
X022881D01*
Y048504D01*
X022875D01*
Y048511D01*
X022861D01*
Y048518D01*
X022854D01*
Y048525D01*
X022841D01*
Y048531D01*
X022834D01*
Y048538D01*
X022821D01*
Y048545D01*
X022814D01*
Y048552D01*
X022800D01*
Y048558D01*
X022794D01*
Y048565D01*
X022787D01*
Y048572D01*
X022773D01*
Y048579D01*
X022767D01*
Y048585D01*
X022753D01*
Y048592D01*
X022747D01*
Y048599D01*
X022733D01*
Y048606D01*
X022726D01*
Y048612D01*
X022713D01*
Y048619D01*
X022706D01*
Y048626D01*
X022693D01*
Y048632D01*
X022672D01*
Y048626D01*
X022659D01*
Y048619D01*
X022645D01*
Y048612D01*
X022632D01*
Y048606D01*
X022618D01*
Y048599D01*
X022612D01*
Y048592D01*
X022598D01*
Y048585D01*
X022585D01*
Y048579D01*
X022571D01*
Y048572D01*
X022558D01*
Y048565D01*
X022544D01*
Y048558D01*
X022531D01*
Y048552D01*
X022524D01*
Y048545D01*
X022511D01*
Y048538D01*
X022497D01*
Y048531D01*
X022477D01*
Y048538D01*
X022463D01*
Y048558D01*
X022457D01*
Y048572D01*
X022450D01*
Y048592D01*
X022443D01*
Y048606D01*
X022437D01*
Y048619D01*
X022430D01*
Y048639D01*
X022423D01*
Y048653D01*
X022416D01*
Y048673D01*
X022410D01*
Y048686D01*
X022403D01*
Y048707D01*
X022396D01*
Y048720D01*
X022389D01*
Y048734D01*
X022383D01*
Y048754D01*
X022376D01*
Y048767D01*
X022369D01*
Y048787D01*
X022362D01*
Y048801D01*
X022356D01*
Y048821D01*
X022349D01*
Y048835D01*
X022342D01*
Y048848D01*
X022335D01*
Y048868D01*
X022329D01*
Y048882D01*
X022322D01*
Y048902D01*
X022315D01*
Y048916D01*
X022308D01*
Y048929D01*
X022302D01*
Y048949D01*
X022295D01*
Y048963D01*
X022288D01*
Y048983D01*
X022282D01*
Y048996D01*
X022275D01*
Y049017D01*
X022268D01*
Y049030D01*
X022261D01*
Y049044D01*
X022255D01*
Y049064D01*
X022248D01*
Y049077D01*
X022241D01*
Y049091D01*
X022234D01*
Y049111D01*
X022228D01*
Y049124D01*
X022221D01*
Y049145D01*
X022214D01*
Y049158D01*
X022207D01*
Y049178D01*
X022201D01*
Y049192D01*
X022194D01*
Y049212D01*
X022187D01*
Y049226D01*
X022180D01*
Y049239D01*
X022174D01*
Y049259D01*
X022167D01*
Y049273D01*
X022160D01*
Y049293D01*
X022153D01*
Y049306D01*
X022147D01*
Y049320D01*
X022140D01*
Y049340D01*
X022133D01*
Y049354D01*
X022127D01*
Y049374D01*
X022120D01*
Y049387D01*
X022113D01*
Y049408D01*
X022106D01*
Y049414D01*
X022113D01*
Y049428D01*
X022120D01*
Y049434D01*
X022133D01*
Y049441D01*
X022140D01*
Y049448D01*
X022153D01*
Y049455D01*
X022167D01*
Y049461D01*
X022174D01*
Y049468D01*
X022180D01*
Y049475D01*
X022194D01*
Y049482D01*
X022201D01*
Y049488D01*
X022207D01*
Y049495D01*
X022221D01*
Y049502D01*
X022228D01*
Y049509D01*
X022234D01*
Y049515D01*
X022248D01*
Y049522D01*
X022255D01*
Y049529D01*
X022261D01*
Y049536D01*
X022268D01*
Y049542D01*
X022275D01*
Y049549D01*
X022282D01*
Y049556D01*
X022288D01*
Y049563D01*
X022295D01*
Y049569D01*
X022302D01*
Y049576D01*
X022308D01*
Y049583D01*
X022315D01*
Y049589D01*
X022322D01*
Y049596D01*
X022329D01*
Y049610D01*
X022335D01*
Y049616D01*
X022342D01*
Y049623D01*
X022349D01*
Y049637D01*
X022356D01*
Y049643D01*
X022362D01*
Y049657D01*
X022369D01*
Y049664D01*
X022376D01*
Y049677D01*
X022383D01*
Y049691D01*
X022389D01*
Y049704D01*
X022396D01*
Y049717D01*
X022403D01*
Y049731D01*
X022410D01*
Y049751D01*
X022416D01*
Y049765D01*
X022423D01*
Y049792D01*
X022430D01*
Y049812D01*
X022437D01*
Y049846D01*
X022443D01*
Y049899D01*
X022450D01*
Y050001D01*
X022443D01*
Y050048D01*
X022437D01*
Y050081D01*
X022430D01*
Y050108D01*
X022423D01*
Y050129D01*
X022416D01*
Y050149D01*
X022410D01*
Y050162D01*
X022403D01*
Y050176D01*
X022396D01*
Y050189D01*
X022389D01*
Y050203D01*
X022383D01*
Y050216D01*
X022376D01*
Y050230D01*
X022369D01*
Y050243D01*
X022362D01*
Y050250D01*
X022356D01*
Y050263D01*
X022349D01*
Y050270D01*
X022342D01*
Y050284D01*
X022335D01*
Y050290D01*
X022329D01*
Y050297D01*
X022322D01*
Y050304D01*
X022315D01*
Y050317D01*
X022308D01*
Y050324D01*
X022302D01*
Y050331D01*
X022295D01*
Y050338D01*
X022288D01*
Y050344D01*
X022282D01*
Y050351D01*
X022275D01*
Y050358D01*
X022268D01*
Y050364D01*
X022255D01*
Y050371D01*
X022248D01*
Y050378D01*
X022241D01*
Y050385D01*
X022234D01*
Y050391D01*
X022221D01*
Y050398D01*
X022214D01*
Y050405D01*
X022207D01*
Y050412D01*
X022194D01*
Y050418D01*
X022187D01*
Y050425D01*
X022174D01*
Y050432D01*
X022160D01*
Y050439D01*
X022147D01*
Y050445D01*
X022133D01*
Y050452D01*
X022120D01*
Y050459D01*
X022106D01*
Y050466D01*
X022086D01*
Y050472D01*
X022066D01*
Y050479D01*
X022046D01*
Y050486D01*
X022019D01*
Y050493D01*
X021985D01*
Y050499D01*
X021931D01*
Y050506D01*
X021857D01*
Y050499D01*
X021803D01*
Y050493D01*
X021763D01*
Y050486D01*
X021736D01*
Y050479D01*
X021715D01*
Y050472D01*
X021695D01*
Y050466D01*
X021682D01*
Y050459D01*
X021668D01*
Y050452D01*
X021655D01*
Y050445D01*
X021641D01*
Y050439D01*
X021628D01*
Y050432D01*
X021614D01*
Y050425D01*
X021601D01*
Y050418D01*
X021594D01*
Y050412D01*
X021581D01*
Y050405D01*
X021574D01*
Y050398D01*
X021560D01*
Y050391D01*
X021554D01*
Y050385D01*
X021547D01*
Y050378D01*
X021540D01*
Y050371D01*
X021527D01*
Y050364D01*
X021520D01*
Y050358D01*
X021513D01*
Y050351D01*
X021507D01*
Y050344D01*
X021500D01*
Y050338D01*
X021493D01*
Y050331D01*
X021486D01*
Y050324D01*
X021480D01*
Y050317D01*
X021473D01*
Y050311D01*
X021466D01*
Y050297D01*
X021459D01*
Y050290D01*
X021453D01*
Y050284D01*
X021446D01*
Y050270D01*
X021439D01*
Y050263D01*
X021432D01*
Y050250D01*
X021426D01*
Y050243D01*
X021419D01*
Y050230D01*
X021412D01*
Y050223D01*
X021405D01*
Y050209D01*
X021399D01*
Y050196D01*
X021392D01*
Y050182D01*
X021385D01*
Y050169D01*
X021378D01*
Y050149D01*
X021372D01*
Y050135D01*
X021365D01*
Y050115D01*
X021358D01*
Y050088D01*
X021352D01*
Y050061D01*
X021345D01*
Y050014D01*
X021338D01*
Y049879D01*
X021345D01*
Y049839D01*
X021352D01*
Y049812D01*
X021358D01*
Y049785D01*
X021365D01*
Y049765D01*
X021372D01*
Y049744D01*
X021378D01*
Y049731D01*
X021385D01*
Y049717D01*
X021392D01*
Y049704D01*
X021399D01*
Y049691D01*
X021405D01*
Y049677D01*
X021412D01*
Y049664D01*
X021419D01*
Y049650D01*
X021426D01*
Y049643D01*
X021432D01*
Y049630D01*
X021439D01*
Y049623D01*
X021446D01*
Y049616D01*
X021453D01*
Y049603D01*
X021459D01*
Y049596D01*
X021466D01*
Y049589D01*
X021473D01*
Y049583D01*
X021480D01*
Y049576D01*
X021486D01*
Y049563D01*
X021493D01*
Y049556D01*
X021500D01*
Y049549D01*
X021507D01*
Y049542D01*
X021520D01*
Y049536D01*
X021527D01*
Y049529D01*
X021533D01*
Y049522D01*
X021540D01*
Y049515D01*
X021547D01*
Y049509D01*
X021560D01*
Y049502D01*
X021567D01*
Y049495D01*
X021574D01*
Y049488D01*
X021587D01*
Y049482D01*
X021594D01*
Y049475D01*
X021601D01*
Y049468D01*
X021614D01*
Y049461D01*
X021621D01*
Y049455D01*
X021635D01*
Y049448D01*
X021648D01*
Y049441D01*
X021655D01*
Y049434D01*
X021668D01*
Y049428D01*
X021675D01*
Y049394D01*
X021668D01*
Y049374D01*
X021662D01*
Y049360D01*
X021655D01*
Y049340D01*
X021648D01*
Y049327D01*
X021641D01*
Y049313D01*
X021635D01*
Y049293D01*
X021628D01*
Y049279D01*
X021621D01*
Y049259D01*
X021614D01*
Y049246D01*
X021608D01*
Y049226D01*
X021601D01*
Y049212D01*
X021594D01*
Y049199D01*
X021587D01*
Y049178D01*
X021581D01*
Y049165D01*
X021574D01*
Y049145D01*
X021567D01*
Y049131D01*
X021560D01*
Y049118D01*
X021554D01*
Y049097D01*
X021547D01*
Y049084D01*
X021540D01*
Y049064D01*
X021533D01*
Y049050D01*
X021527D01*
Y049037D01*
X021520D01*
Y049017D01*
X021513D01*
Y049003D01*
X021507D01*
Y048983D01*
X021500D01*
Y048969D01*
X021493D01*
Y048949D01*
X021486D01*
Y048936D01*
X021480D01*
Y048922D01*
X021473D01*
Y048902D01*
X021466D01*
Y048889D01*
X021459D01*
Y048868D01*
X021453D01*
Y048855D01*
X021446D01*
Y048835D01*
X021439D01*
Y048821D01*
X021432D01*
Y048808D01*
X021426D01*
Y048787D01*
X021419D01*
Y048774D01*
X021412D01*
Y048754D01*
X021405D01*
Y048740D01*
X021399D01*
Y048727D01*
X021392D01*
Y048707D01*
X021385D01*
Y048693D01*
X021378D01*
Y048673D01*
X021372D01*
Y048659D01*
X021365D01*
Y048646D01*
X021358D01*
Y048626D01*
X021352D01*
Y048612D01*
X021345D01*
Y048592D01*
X021338D01*
Y048579D01*
X021331D01*
Y048558D01*
X021325D01*
Y048545D01*
X021318D01*
Y048538D01*
X021311D01*
Y048531D01*
X021291D01*
Y048538D01*
X021277D01*
Y048545D01*
X021264D01*
Y048552D01*
X021250D01*
Y048558D01*
X021244D01*
Y048565D01*
X021230D01*
Y048572D01*
X021217D01*
Y048579D01*
X021203D01*
Y048585D01*
X021190D01*
Y048592D01*
X021176D01*
Y048599D01*
X021163D01*
Y048606D01*
X021149D01*
Y048612D01*
X021143D01*
Y048619D01*
X021129D01*
Y048626D01*
X021116D01*
Y048632D01*
X021095D01*
Y048626D01*
X021082D01*
Y048619D01*
X021068D01*
Y048612D01*
X021062D01*
Y048606D01*
X021048D01*
Y048599D01*
X021042D01*
Y048592D01*
X021035D01*
Y048585D01*
X021021D01*
Y048579D01*
X021015D01*
Y048572D01*
X021001D01*
Y048565D01*
X020994D01*
Y048558D01*
X020981D01*
Y048552D01*
X020974D01*
Y048545D01*
X020961D01*
Y048538D01*
X020954D01*
Y048531D01*
X020947D01*
Y048525D01*
X020934D01*
Y048518D01*
X020927D01*
Y048511D01*
X020913D01*
Y048504D01*
X020907D01*
Y048498D01*
X020893D01*
Y048491D01*
X020887D01*
Y048484D01*
X020873D01*
Y048478D01*
X020866D01*
Y048471D01*
X020853D01*
Y048464D01*
X020846D01*
Y048457D01*
X020839D01*
Y048451D01*
X020826D01*
Y048444D01*
X020819D01*
Y048437D01*
X020806D01*
Y048430D01*
X020799D01*
Y048424D01*
X020785D01*
Y048417D01*
X020779D01*
Y048410D01*
X020765D01*
Y048403D01*
X020758D01*
Y048397D01*
X020745D01*
Y048390D01*
X020738D01*
Y048383D01*
X020725D01*
Y048376D01*
X020718D01*
Y048370D01*
X020711D01*
Y048363D01*
X020698D01*
Y048356D01*
X020664D01*
Y048363D01*
X020657D01*
Y048370D01*
X020651D01*
Y048376D01*
X020644D01*
Y048383D01*
X020637D01*
Y048390D01*
X020630D01*
Y048397D01*
X020624D01*
Y048403D01*
X020617D01*
Y048410D01*
X020610D01*
Y048417D01*
X020603D01*
Y048424D01*
X020597D01*
Y048430D01*
X020590D01*
Y048437D01*
X020583D01*
Y048444D01*
X020577D01*
Y048451D01*
X020570D01*
Y048457D01*
X020563D01*
Y048464D01*
X020556D01*
Y048471D01*
X020550D01*
Y048478D01*
X020543D01*
Y048484D01*
X020536D01*
Y048491D01*
X020529D01*
Y048498D01*
X020523D01*
Y048504D01*
X020516D01*
Y048511D01*
X020509D01*
Y048518D01*
X020502D01*
Y048525D01*
X020496D01*
Y048531D01*
X020489D01*
Y048538D01*
X020482D01*
Y048545D01*
X020475D01*
Y048552D01*
X020469D01*
Y048558D01*
X020462D01*
Y048565D01*
X020455D01*
Y048572D01*
X020448D01*
Y048579D01*
X020442D01*
Y048585D01*
X020435D01*
Y048592D01*
X020428D01*
Y048599D01*
X020422D01*
Y048606D01*
X020415D01*
Y048612D01*
X020408D01*
Y048619D01*
X020401D01*
Y048626D01*
X020395D01*
Y048632D01*
X020388D01*
Y048639D01*
X020381D01*
Y048646D01*
X020374D01*
Y048653D01*
X020368D01*
Y048659D01*
X020361D01*
Y048666D01*
X020354D01*
Y048673D01*
X020347D01*
Y048680D01*
X020341D01*
Y048686D01*
X020334D01*
Y048693D01*
X020327D01*
Y048700D01*
X020320D01*
Y048707D01*
X020314D01*
Y048713D01*
X020307D01*
Y048720D01*
X020300D01*
Y048727D01*
X020293D01*
Y048747D01*
X020300D01*
Y048761D01*
X020307D01*
Y048767D01*
X020314D01*
Y048781D01*
X020320D01*
Y048787D01*
X020327D01*
Y048801D01*
X020334D01*
Y048808D01*
X020341D01*
Y048814D01*
X020347D01*
Y048828D01*
X020354D01*
Y048835D01*
X020361D01*
Y048848D01*
X020368D01*
Y048855D01*
X020374D01*
Y048868D01*
X020381D01*
Y048875D01*
X020388D01*
Y048889D01*
X020395D01*
Y048895D01*
X020401D01*
Y048909D01*
X020408D01*
Y048916D01*
X020415D01*
Y048922D01*
X020422D01*
Y048936D01*
X020428D01*
Y048942D01*
X020435D01*
Y048956D01*
X020442D01*
Y048963D01*
X020448D01*
Y048976D01*
X020455D01*
Y048983D01*
X020462D01*
Y048996D01*
X020469D01*
Y049003D01*
X020475D01*
Y049017D01*
X020482D01*
Y049023D01*
X020489D01*
Y049030D01*
X020496D01*
Y049044D01*
X020502D01*
Y049050D01*
X020509D01*
Y049064D01*
X020516D01*
Y049071D01*
X020523D01*
Y049084D01*
X020529D01*
Y049091D01*
X020536D01*
Y049104D01*
X020543D01*
Y049111D01*
X020550D01*
Y049124D01*
X020556D01*
Y049131D01*
X020563D01*
Y049138D01*
X020570D01*
Y049151D01*
X020577D01*
Y049192D01*
X020570D01*
Y049205D01*
X020563D01*
Y049226D01*
X020556D01*
Y049239D01*
X020550D01*
Y049259D01*
X020543D01*
Y049273D01*
X020536D01*
Y049293D01*
X020529D01*
Y049306D01*
X020523D01*
Y049327D01*
X020516D01*
Y049340D01*
X020509D01*
Y049360D01*
X020502D01*
Y049374D01*
X020496D01*
Y049394D01*
X020489D01*
Y049408D01*
X020482D01*
Y049428D01*
X020475D01*
Y049441D01*
X020469D01*
Y049461D01*
X020462D01*
Y049475D01*
X020455D01*
Y049495D01*
X020448D01*
Y049509D01*
X020442D01*
Y049529D01*
X020435D01*
Y049542D01*
X020428D01*
Y049563D01*
X020422D01*
Y049569D01*
X020415D01*
Y049576D01*
X020408D01*
Y049583D01*
X020381D01*
Y049589D01*
X020341D01*
Y049596D01*
X020307D01*
Y049603D01*
X020267D01*
Y049610D01*
X020233D01*
Y049616D01*
X020199D01*
Y049623D01*
X020159D01*
Y049630D01*
X020125D01*
Y049637D01*
X020091D01*
Y049643D01*
X020051D01*
Y049650D01*
X020017D01*
Y049657D01*
X019977D01*
Y049664D01*
X019943D01*
Y049670D01*
X019916D01*
Y049677D01*
X019903D01*
Y049691D01*
X019896D01*
Y050209D01*
X019903D01*
Y050223D01*
X019909D01*
Y050230D01*
X019936D01*
Y050236D01*
X019970D01*
Y050243D01*
X020004D01*
Y050250D01*
X020044D01*
Y050257D01*
X020078D01*
Y050263D01*
X020118D01*
Y050270D01*
X020152D01*
Y050277D01*
X020186D01*
Y050284D01*
X020226D01*
Y050290D01*
X020260D01*
Y050297D01*
X020300D01*
Y050304D01*
X020334D01*
Y050311D01*
X020368D01*
Y050317D01*
X020408D01*
Y050324D01*
X020422D01*
Y050331D01*
X020428D01*
Y050338D01*
X020435D01*
Y050344D01*
X020442D01*
Y050364D01*
X020448D01*
Y050378D01*
X020455D01*
Y050391D01*
X020462D01*
Y050412D01*
X020469D01*
Y050425D01*
X020475D01*
Y050439D01*
X020482D01*
Y050459D01*
X020489D01*
Y050472D01*
X020496D01*
Y050486D01*
X020502D01*
Y050506D01*
X020509D01*
Y050519D01*
X020516D01*
Y050533D01*
X020523D01*
Y050553D01*
X020529D01*
Y050567D01*
X020536D01*
Y050580D01*
X020543D01*
Y050600D01*
X020550D01*
Y050614D01*
X020556D01*
Y050627D01*
X020563D01*
Y050648D01*
X020570D01*
Y050661D01*
X020577D01*
Y050674D01*
X020583D01*
Y050695D01*
X020590D01*
Y050728D01*
X020583D01*
Y050742D01*
X020577D01*
Y050749D01*
X020570D01*
Y050762D01*
X020563D01*
Y050769D01*
X020556D01*
Y050782D01*
X020550D01*
Y050789D01*
X020543D01*
Y050802D01*
X020536D01*
Y050809D01*
X020529D01*
Y050816D01*
X020523D01*
Y050829D01*
X020516D01*
Y050836D01*
X020509D01*
Y050850D01*
X020502D01*
Y050856D01*
X020496D01*
Y050870D01*
X020489D01*
Y050877D01*
X020482D01*
Y050890D01*
X020475D01*
Y050897D01*
X020469D01*
Y050910D01*
X020462D01*
Y050917D01*
X020455D01*
Y050924D01*
X020448D01*
Y050937D01*
X020442D01*
Y050944D01*
X020435D01*
Y050957D01*
X020428D01*
Y050964D01*
X020422D01*
Y050978D01*
X020415D01*
Y050984D01*
X020408D01*
Y050998D01*
X020401D01*
Y051005D01*
X020395D01*
Y051018D01*
X020388D01*
Y051025D01*
X020381D01*
Y051038D01*
X020374D01*
Y051045D01*
X020368D01*
Y051052D01*
X020361D01*
Y051065D01*
X020354D01*
Y051072D01*
X020347D01*
Y051086D01*
X020341D01*
Y051092D01*
X020334D01*
Y051106D01*
X020327D01*
Y051112D01*
X020320D01*
Y051126D01*
X020314D01*
Y051133D01*
X020307D01*
Y051146D01*
X020300D01*
Y051153D01*
X020293D01*
Y051173D01*
X020300D01*
Y051180D01*
X020307D01*
Y051187D01*
X020314D01*
Y051193D01*
X020320D01*
Y051200D01*
X020327D01*
Y051207D01*
X020334D01*
Y051214D01*
X020341D01*
Y051220D01*
X020347D01*
Y051227D01*
X020354D01*
Y051234D01*
X020361D01*
Y051241D01*
X020368D01*
Y051247D01*
X020374D01*
Y051254D01*
X020381D01*
Y051261D01*
X020388D01*
Y051267D01*
X020395D01*
Y051274D01*
X020401D01*
Y051281D01*
X020408D01*
Y051288D01*
X020415D01*
Y051294D01*
X020422D01*
Y051301D01*
X020428D01*
Y051308D01*
X020435D01*
Y051315D01*
X020442D01*
Y051321D01*
X020448D01*
Y051328D01*
X020455D01*
Y051335D01*
X020462D01*
Y051342D01*
X020469D01*
Y051348D01*
X020475D01*
Y051355D01*
X020482D01*
Y051362D01*
X020489D01*
Y051369D01*
X020496D01*
Y051375D01*
X020502D01*
Y051382D01*
X020509D01*
Y051389D01*
X020516D01*
Y051396D01*
X020523D01*
Y051402D01*
X020529D01*
Y051409D01*
X020536D01*
Y051416D01*
X020543D01*
Y051423D01*
X020550D01*
Y051429D01*
X020556D01*
Y051436D01*
X020563D01*
Y051443D01*
X020570D01*
Y051449D01*
X020577D01*
Y051456D01*
X020583D01*
Y051463D01*
X020590D01*
Y051470D01*
X020597D01*
Y051476D01*
X020603D01*
Y051483D01*
X020610D01*
Y051490D01*
X020617D01*
Y051497D01*
X020624D01*
Y051503D01*
X020630D01*
Y051510D01*
X020637D01*
Y051517D01*
X020644D01*
Y051524D01*
X020651D01*
Y051530D01*
X020657D01*
Y051537D01*
X020664D01*
Y051544D01*
X020671D01*
Y051551D01*
X020691D01*
Y051544D01*
X020698D01*
Y051537D01*
X020711D01*
Y051530D01*
X020718D01*
Y051524D01*
X020732D01*
Y051517D01*
X020738D01*
Y051510D01*
X020752D01*
Y051503D01*
X020758D01*
Y051497D01*
X020772D01*
Y051490D01*
X020779D01*
Y051483D01*
X020792D01*
Y051476D01*
X020799D01*
Y051470D01*
X020806D01*
Y051463D01*
X020819D01*
Y051456D01*
X020826D01*
Y051449D01*
X020839D01*
Y051443D01*
X020846D01*
Y051436D01*
X020860D01*
Y051429D01*
X020866D01*
Y051423D01*
X020880D01*
Y051416D01*
X020887D01*
Y051409D01*
X020900D01*
Y051402D01*
X020907D01*
Y051396D01*
X020920D01*
Y051389D01*
X020927D01*
Y051382D01*
X020934D01*
Y051375D01*
X020947D01*
Y051369D01*
X020954D01*
Y051362D01*
X020967D01*
Y051355D01*
X020974D01*
Y051348D01*
X020988D01*
Y051342D01*
X020994D01*
Y051335D01*
X021008D01*
Y051328D01*
X021015D01*
Y051321D01*
X021028D01*
Y051315D01*
X021035D01*
Y051308D01*
X021042D01*
Y051301D01*
X021055D01*
Y051294D01*
X021062D01*
Y051288D01*
X021075D01*
Y051281D01*
X021082D01*
Y051274D01*
X021095D01*
Y051267D01*
X021102D01*
Y051261D01*
X021116D01*
Y051254D01*
X021122D01*
Y051247D01*
X021156D01*
Y051254D01*
X021170D01*
Y051261D01*
X021190D01*
Y051267D01*
X021203D01*
Y051274D01*
X021223D01*
Y051281D01*
X021237D01*
Y051288D01*
X021257D01*
Y051294D01*
X021271D01*
Y051301D01*
X021291D01*
Y051308D01*
X021304D01*
Y051315D01*
X021325D01*
Y051321D01*
X021338D01*
Y051328D01*
X021352D01*
Y051335D01*
X021372D01*
Y051342D01*
X021385D01*
Y051348D01*
X021405D01*
Y051355D01*
X021419D01*
Y051362D01*
X021439D01*
Y051369D01*
X021453D01*
Y051375D01*
X021466D01*
Y051382D01*
X021486D01*
Y051389D01*
X021500D01*
Y051396D01*
X021507D01*
Y051402D01*
X021513D01*
Y051409D01*
X021520D01*
Y051436D01*
X021527D01*
Y051476D01*
X021533D01*
Y051510D01*
X021540D01*
Y051551D01*
X021547D01*
Y051584D01*
X021554D01*
Y051618D01*
X021560D01*
Y051652D01*
X021567D01*
Y051692D01*
X021574D01*
Y051726D01*
X021581D01*
Y051766D01*
X021587D01*
Y051800D01*
X021594D01*
Y051834D01*
X021601D01*
Y051874D01*
X021608D01*
Y051908D01*
X021614D01*
Y051935D01*
X021621D01*
Y051941D01*
X021635D01*
Y051948D01*
X022147D01*
Y051941D01*
D02*
G37*
G36*
X021129Y047581D02*
X021122D01*
Y047527D01*
X021116D01*
Y047507D01*
X021109D01*
Y047494D01*
X021102D01*
Y047480D01*
X021095D01*
Y047473D01*
X021089D01*
Y047467D01*
X021082D01*
Y047453D01*
X021075D01*
Y047446D01*
X021062D01*
Y047440D01*
X021055D01*
Y047433D01*
X021048D01*
Y047426D01*
X021042D01*
Y047419D01*
X021028D01*
Y047413D01*
X021008D01*
Y047406D01*
X020988D01*
Y047399D01*
X020900D01*
Y047406D01*
X020873D01*
Y047413D01*
X020860D01*
Y047419D01*
X020846D01*
Y047426D01*
X020839D01*
Y047433D01*
X020826D01*
Y047440D01*
X020819D01*
Y047446D01*
X020812D01*
Y047460D01*
X020806D01*
Y047406D01*
X020698D01*
Y047938D01*
X020806D01*
Y047588D01*
X020812D01*
Y047568D01*
X020819D01*
Y047554D01*
X020826D01*
Y047547D01*
X020833D01*
Y047534D01*
X020839D01*
Y047527D01*
X020853D01*
Y047521D01*
X020866D01*
Y047514D01*
X020887D01*
Y047507D01*
X020934D01*
Y047514D01*
X020954D01*
Y047521D01*
X020967D01*
Y047527D01*
X020981D01*
Y047534D01*
X020988D01*
Y047541D01*
X020994D01*
Y047554D01*
X021001D01*
Y047568D01*
X021008D01*
Y047588D01*
X021015D01*
Y047938D01*
X021129D01*
Y047581D01*
D02*
G37*
G36*
X020044Y047938D02*
X020071D01*
Y047932D01*
X020091D01*
Y047925D01*
X020105D01*
Y047918D01*
X020118D01*
Y047911D01*
X020125D01*
Y047905D01*
X020138D01*
Y047898D01*
X020145D01*
Y047891D01*
X020152D01*
Y047884D01*
X020159D01*
Y047878D01*
X020165D01*
Y047871D01*
X020172D01*
Y047864D01*
X020179D01*
Y047851D01*
X020186D01*
Y047844D01*
X020192D01*
Y047831D01*
X020199D01*
Y047817D01*
X020206D01*
Y047804D01*
X020213D01*
Y047783D01*
X020219D01*
Y047763D01*
X020226D01*
Y047723D01*
X020233D01*
Y047622D01*
X020226D01*
Y047581D01*
X020219D01*
Y047561D01*
X020213D01*
Y047541D01*
X020206D01*
Y047527D01*
X020199D01*
Y047514D01*
X020192D01*
Y047500D01*
X020186D01*
Y047487D01*
X020179D01*
Y047480D01*
X020172D01*
Y047473D01*
X020165D01*
Y047467D01*
X020159D01*
Y047460D01*
X020152D01*
Y047453D01*
X020145D01*
Y047446D01*
X020138D01*
Y047440D01*
X020125D01*
Y047433D01*
X020118D01*
Y047426D01*
X020105D01*
Y047419D01*
X020091D01*
Y047413D01*
X020071D01*
Y047406D01*
X020044D01*
Y047399D01*
X019936D01*
Y047406D01*
X019909D01*
Y047413D01*
X019896D01*
Y047419D01*
X019882D01*
Y047426D01*
X019869D01*
Y047433D01*
X019855D01*
Y047440D01*
X019849D01*
Y047446D01*
X019835D01*
Y047453D01*
X019828D01*
Y047460D01*
X019822D01*
Y047467D01*
X019815D01*
Y047473D01*
X019808D01*
Y047480D01*
X019802D01*
Y047487D01*
X019795D01*
Y047494D01*
X019802D01*
Y047500D01*
X019808D01*
Y047507D01*
X019815D01*
Y047514D01*
X019822D01*
Y047521D01*
X019828D01*
Y047527D01*
X019842D01*
Y047534D01*
X019849D01*
Y047541D01*
X019855D01*
Y047547D01*
X019862D01*
Y047554D01*
X019869D01*
Y047561D01*
X019882D01*
Y047554D01*
X019889D01*
Y047547D01*
X019896D01*
Y047541D01*
X019903D01*
Y047534D01*
X019909D01*
Y047527D01*
X019923D01*
Y047521D01*
X019936D01*
Y047514D01*
X019957D01*
Y047507D01*
X020017D01*
Y047514D01*
X020044D01*
Y047521D01*
X020058D01*
Y047527D01*
X020064D01*
Y047534D01*
X020078D01*
Y047541D01*
X020085D01*
Y047547D01*
X020091D01*
Y047561D01*
X020098D01*
Y047568D01*
X020105D01*
Y047588D01*
X020112D01*
Y047608D01*
X020118D01*
Y047669D01*
X020125D01*
Y047676D01*
X020118D01*
Y047736D01*
X020112D01*
Y047756D01*
X020105D01*
Y047777D01*
X020098D01*
Y047783D01*
X020091D01*
Y047797D01*
X020085D01*
Y047804D01*
X020078D01*
Y047810D01*
X020071D01*
Y047817D01*
X020058D01*
Y047824D01*
X020044D01*
Y047831D01*
X020017D01*
Y047837D01*
X019957D01*
Y047831D01*
X019936D01*
Y047824D01*
X019923D01*
Y047817D01*
X019909D01*
Y047810D01*
X019903D01*
Y047804D01*
X019896D01*
Y047797D01*
X019889D01*
Y047790D01*
X019882D01*
Y047783D01*
X019869D01*
Y047790D01*
X019862D01*
Y047797D01*
X019855D01*
Y047804D01*
X019849D01*
Y047810D01*
X019835D01*
Y047817D01*
X019828D01*
Y047824D01*
X019822D01*
Y047831D01*
X019815D01*
Y047837D01*
X019808D01*
Y047844D01*
X019802D01*
Y047851D01*
X019795D01*
Y047857D01*
X019802D01*
Y047864D01*
X019808D01*
Y047871D01*
X019815D01*
Y047878D01*
X019822D01*
Y047884D01*
X019828D01*
Y047891D01*
X019835D01*
Y047898D01*
X019849D01*
Y047905D01*
X019855D01*
Y047911D01*
X019869D01*
Y047918D01*
X019882D01*
Y047925D01*
X019896D01*
Y047932D01*
X019909D01*
Y047938D01*
X019936D01*
Y047945D01*
X020044D01*
Y047938D01*
D02*
G37*
G36*
X023252D02*
X023279D01*
Y047932D01*
X023299D01*
Y047925D01*
X023313D01*
Y047918D01*
X023319D01*
Y047911D01*
X023333D01*
Y047905D01*
X023340D01*
Y047898D01*
X023346D01*
Y047891D01*
X023353D01*
Y047884D01*
X023360D01*
Y047878D01*
X023367D01*
Y047871D01*
X023373D01*
Y047864D01*
X023380D01*
Y047851D01*
X023387D01*
Y047837D01*
X023393D01*
Y047831D01*
X023400D01*
Y047817D01*
Y047810D01*
X023407D01*
Y047790D01*
X023414D01*
Y047770D01*
X023420D01*
Y047729D01*
X023427D01*
Y047608D01*
X023420D01*
Y047574D01*
X023414D01*
Y047547D01*
X023407D01*
Y047527D01*
X023400D01*
Y047514D01*
X023393D01*
Y047500D01*
X023387D01*
Y047494D01*
X023380D01*
Y047480D01*
X023373D01*
Y047473D01*
X023367D01*
Y047467D01*
X023360D01*
Y047460D01*
X023353D01*
Y047453D01*
X023346D01*
Y047446D01*
X023340D01*
Y047440D01*
X023333D01*
Y047433D01*
X023319D01*
Y047426D01*
X023306D01*
Y047419D01*
X023292D01*
Y047413D01*
X023272D01*
Y047406D01*
X023252D01*
Y047399D01*
X023131D01*
Y047406D01*
X023104D01*
Y047413D01*
X023090D01*
Y047419D01*
X023070D01*
Y047426D01*
X023057D01*
Y047433D01*
X023050D01*
Y047440D01*
X023036D01*
Y047446D01*
X023030D01*
Y047453D01*
X023023D01*
Y047460D01*
X023016D01*
Y047467D01*
X023009D01*
Y047473D01*
X023003D01*
Y047480D01*
X022996D01*
Y047487D01*
X023003D01*
Y047494D01*
X023009D01*
Y047500D01*
X023016D01*
Y047507D01*
X023023D01*
Y047514D01*
X023030D01*
Y047521D01*
X023036D01*
Y047527D01*
X023050D01*
Y047534D01*
X023057D01*
Y047541D01*
X023063D01*
Y047547D01*
X023070D01*
Y047554D01*
X023077D01*
Y047547D01*
X023083D01*
Y047541D01*
X023090D01*
Y047534D01*
X023104D01*
Y047527D01*
X023110D01*
Y047521D01*
X023124D01*
Y047514D01*
X023137D01*
Y047507D01*
X023164D01*
Y047500D01*
X023218D01*
Y047507D01*
X023245D01*
Y047514D01*
X023259D01*
Y047521D01*
X023272D01*
Y047527D01*
X023279D01*
Y047534D01*
X023286D01*
Y047541D01*
X023292D01*
Y047554D01*
X023299D01*
Y047561D01*
X023306D01*
Y047581D01*
X023313D01*
Y047615D01*
X023319D01*
Y047628D01*
X022982D01*
Y047756D01*
X022989D01*
Y047790D01*
X022996D01*
Y047810D01*
X023003D01*
Y047824D01*
X023009D01*
Y047837D01*
X023016D01*
Y047851D01*
X023023D01*
Y047857D01*
X023030D01*
Y047864D01*
X023036D01*
Y047878D01*
X023043D01*
Y047884D01*
X023050D01*
Y047891D01*
X023057D01*
Y047898D01*
X023070D01*
Y047905D01*
X023077D01*
Y047911D01*
X023083D01*
Y047918D01*
X023097D01*
Y047925D01*
X023110D01*
Y047932D01*
X023131D01*
Y047938D01*
X023151D01*
Y047945D01*
X023252D01*
Y047938D01*
D02*
G37*
G36*
X019599D02*
X019620D01*
Y047932D01*
X019640D01*
Y047925D01*
X019653D01*
Y047918D01*
X019667D01*
Y047911D01*
X019673D01*
Y047905D01*
X019680D01*
Y047898D01*
X019694D01*
Y047891D01*
X019700D01*
Y047884D01*
X019707D01*
Y047871D01*
X019714D01*
Y047864D01*
X019721D01*
Y047857D01*
X019727D01*
Y047844D01*
X019734D01*
Y047831D01*
X019741D01*
Y047817D01*
X019748D01*
Y047797D01*
X019754D01*
Y047777D01*
X019761D01*
Y047743D01*
X019768D01*
Y047595D01*
X019761D01*
Y047561D01*
X019754D01*
Y047541D01*
X019748D01*
Y047521D01*
X019741D01*
Y047507D01*
X019734D01*
Y047500D01*
X019727D01*
Y047487D01*
X019721D01*
Y047480D01*
X019714D01*
Y047467D01*
X019707D01*
Y047460D01*
X019700D01*
Y047453D01*
X019694D01*
Y047446D01*
X019680D01*
Y047440D01*
X019673D01*
Y047433D01*
X019660D01*
Y047426D01*
X019653D01*
Y047419D01*
X019640D01*
Y047413D01*
X019620D01*
Y047406D01*
X019593D01*
Y047399D01*
X019478D01*
Y047406D01*
X019451D01*
Y047413D01*
X019431D01*
Y047419D01*
X019417D01*
Y047426D01*
X019404D01*
Y047433D01*
X019390D01*
Y047440D01*
X019384D01*
Y047446D01*
X019370D01*
Y047453D01*
X019363D01*
Y047460D01*
X019357D01*
Y047467D01*
X019350D01*
Y047473D01*
X019343D01*
Y047480D01*
X019337D01*
Y047487D01*
X019343D01*
Y047494D01*
X019350D01*
Y047500D01*
X019357D01*
Y047507D01*
X019363D01*
Y047514D01*
X019377D01*
Y047521D01*
X019384D01*
Y047527D01*
X019390D01*
Y047534D01*
X019397D01*
Y047541D01*
X019404D01*
Y047547D01*
X019411D01*
Y047554D01*
X019417D01*
Y047547D01*
X019424D01*
Y047541D01*
X019431D01*
Y047534D01*
X019444D01*
Y047527D01*
X019451D01*
Y047521D01*
X019465D01*
Y047514D01*
X019485D01*
Y047507D01*
X019505D01*
Y047500D01*
X019566D01*
Y047507D01*
X019586D01*
Y047514D01*
X019599D01*
Y047521D01*
X019613D01*
Y047527D01*
X019620D01*
Y047534D01*
X019626D01*
Y047541D01*
X019633D01*
Y047547D01*
X019640D01*
Y047561D01*
X019647D01*
Y047574D01*
X019653D01*
Y047595D01*
X019660D01*
Y047628D01*
X019337D01*
Y047790D01*
Y047797D01*
Y047804D01*
X019343D01*
Y047817D01*
X019350D01*
Y047831D01*
X019357D01*
Y047844D01*
X019363D01*
Y047857D01*
X019370D01*
Y047864D01*
X019377D01*
Y047871D01*
X019384D01*
Y047878D01*
X019390D01*
Y047884D01*
X019397D01*
Y047891D01*
X019404D01*
Y047898D01*
X019411D01*
Y047905D01*
X019417D01*
Y047911D01*
X019431D01*
Y047918D01*
X019444D01*
Y047925D01*
X019458D01*
Y047932D01*
X019471D01*
Y047938D01*
X019498D01*
Y047945D01*
X019599D01*
Y047938D01*
D02*
G37*
G36*
X022693D02*
X022713D01*
Y047932D01*
X022726D01*
Y047925D01*
X022740D01*
Y047918D01*
X022753D01*
Y047911D01*
X022760D01*
Y047905D01*
X022767D01*
Y047898D01*
X022773D01*
Y047891D01*
X022780D01*
Y047884D01*
X022787D01*
Y047938D01*
X022895D01*
Y047406D01*
X022787D01*
Y047736D01*
X022780D01*
Y047770D01*
X022773D01*
Y047783D01*
X022767D01*
Y047797D01*
X022760D01*
Y047804D01*
X022753D01*
Y047810D01*
X022747D01*
Y047817D01*
X022740D01*
Y047824D01*
X022726D01*
Y047831D01*
X022706D01*
Y047837D01*
X022652D01*
Y047831D01*
X022632D01*
Y047824D01*
X022618D01*
Y047817D01*
X022612D01*
Y047810D01*
X022605D01*
Y047804D01*
X022598D01*
Y047797D01*
X022592D01*
Y047783D01*
X022585D01*
Y047770D01*
X022578D01*
Y047406D01*
X022463D01*
Y047790D01*
X022470D01*
Y047824D01*
X022477D01*
Y047837D01*
X022484D01*
Y047851D01*
X022490D01*
Y047864D01*
X022497D01*
Y047878D01*
X022504D01*
Y047884D01*
X022511D01*
Y047891D01*
X022517D01*
Y047898D01*
X022524D01*
Y047905D01*
X022531D01*
Y047911D01*
X022544D01*
Y047918D01*
X022551D01*
Y047925D01*
X022565D01*
Y047932D01*
X022578D01*
Y047938D01*
X022605D01*
Y047945D01*
X022693D01*
Y047938D01*
D02*
G37*
G36*
X020374D02*
X020401D01*
Y047932D01*
X020415D01*
Y047925D01*
X020428D01*
Y047918D01*
X020435D01*
Y047911D01*
X020448D01*
Y047905D01*
X020455D01*
Y047898D01*
X020462D01*
Y047891D01*
X020469D01*
Y047938D01*
X020583D01*
Y047406D01*
X020469D01*
Y047763D01*
X020462D01*
Y047783D01*
X020455D01*
Y047797D01*
X020448D01*
Y047804D01*
X020442D01*
Y047810D01*
X020435D01*
Y047817D01*
X020422D01*
Y047824D01*
X020415D01*
Y047831D01*
X020395D01*
Y047837D01*
X020341D01*
Y047831D01*
X020320D01*
Y047824D01*
X020314D01*
Y047817D01*
X020300D01*
Y047810D01*
X020293D01*
Y047817D01*
X020287D01*
Y047824D01*
X020280D01*
Y047831D01*
X020273D01*
Y047844D01*
X020267D01*
Y047851D01*
X020260D01*
Y047857D01*
X020253D01*
Y047864D01*
X020246D01*
Y047871D01*
X020240D01*
Y047878D01*
X020233D01*
Y047891D01*
X020226D01*
Y047898D01*
X020219D01*
Y047911D01*
X020233D01*
Y047918D01*
X020240D01*
Y047925D01*
X020253D01*
Y047932D01*
X020267D01*
Y047938D01*
X020287D01*
Y047945D01*
X020374D01*
Y047938D01*
D02*
G37*
G36*
X024290D02*
X024317D01*
Y047932D01*
X024330D01*
Y047925D01*
X024350D01*
Y047918D01*
X024357D01*
Y047911D01*
X024371D01*
Y047905D01*
X024377D01*
Y047898D01*
X024384D01*
Y047891D01*
X024391D01*
Y047884D01*
X024398D01*
Y047878D01*
X024404D01*
Y047871D01*
X024411D01*
Y047864D01*
X024418D01*
Y047857D01*
X024425D01*
Y047844D01*
X024431D01*
Y047831D01*
X024438D01*
Y047817D01*
X024445D01*
Y047797D01*
X024452D01*
Y047763D01*
X024458D01*
Y047581D01*
X024452D01*
Y047547D01*
X024445D01*
Y047527D01*
X024438D01*
Y047514D01*
X024431D01*
Y047500D01*
X024425D01*
Y047487D01*
X024418D01*
Y047480D01*
X024411D01*
Y047473D01*
X024404D01*
Y047467D01*
X024398D01*
Y047460D01*
X024391D01*
Y047453D01*
X024384D01*
Y047446D01*
X024377D01*
Y047440D01*
X024371D01*
Y047433D01*
X024357D01*
Y047426D01*
X024350D01*
Y047419D01*
X024337D01*
Y047413D01*
X024317D01*
Y047406D01*
X024297D01*
Y047399D01*
X024182D01*
Y047406D01*
X024162D01*
Y047413D01*
X024142D01*
Y047419D01*
X024128D01*
Y047426D01*
X024115D01*
Y047433D01*
X024108D01*
Y047440D01*
X024101D01*
Y047446D01*
X024088D01*
Y047453D01*
X024081D01*
Y047460D01*
X024074D01*
Y047473D01*
X024067D01*
Y047480D01*
X024061D01*
Y047487D01*
X024054D01*
Y047494D01*
X024047D01*
Y047507D01*
X024040D01*
Y047521D01*
X024034D01*
Y047541D01*
X024027D01*
Y047568D01*
X024020D01*
Y047628D01*
X024013D01*
Y047716D01*
X024020D01*
Y047777D01*
X024027D01*
Y047804D01*
X024034D01*
Y047824D01*
X024040D01*
Y047837D01*
X024047D01*
Y047851D01*
X024054D01*
Y047857D01*
X024061D01*
Y047864D01*
X024067D01*
Y047871D01*
X024074D01*
Y047884D01*
X024081D01*
Y047891D01*
X024094D01*
Y047898D01*
X024101D01*
Y047905D01*
X024108D01*
Y047911D01*
X024115D01*
Y047918D01*
X024128D01*
Y047925D01*
X024142D01*
Y047932D01*
X024162D01*
Y047938D01*
X024182D01*
Y047945D01*
X024290D01*
Y047938D01*
D02*
G37*
G36*
X021998D02*
X022025D01*
Y047932D01*
X022046D01*
Y047925D01*
X022059D01*
Y047918D01*
X022073D01*
Y047911D01*
X022079D01*
Y047905D01*
X022086D01*
Y047898D01*
X022093D01*
Y047891D01*
X022100D01*
Y047884D01*
X022106D01*
Y047878D01*
X022113D01*
Y047871D01*
X022120D01*
Y047857D01*
X022127D01*
Y047844D01*
X022133D01*
Y047824D01*
X022140D01*
Y047736D01*
X022133D01*
Y047716D01*
X022127D01*
Y047702D01*
X022120D01*
Y047696D01*
X022113D01*
Y047689D01*
X022106D01*
Y047676D01*
X022100D01*
Y047669D01*
X022086D01*
Y047662D01*
X022079D01*
Y047655D01*
X022073D01*
Y047649D01*
X022059D01*
Y047642D01*
X022039D01*
Y047635D01*
X022012D01*
Y047628D01*
X021951D01*
Y047622D01*
X021884D01*
Y047615D01*
X021857D01*
Y047608D01*
X021843D01*
Y047601D01*
X021837D01*
Y047595D01*
X021830D01*
Y047541D01*
X021837D01*
Y047534D01*
X021843D01*
Y047527D01*
X021850D01*
Y047521D01*
X021857D01*
Y047514D01*
X021870D01*
Y047507D01*
X021897D01*
Y047500D01*
X021972D01*
Y047507D01*
X022005D01*
Y047514D01*
X022025D01*
Y047521D01*
X022039D01*
Y047527D01*
X022052D01*
Y047534D01*
X022059D01*
Y047541D01*
X022073D01*
Y047547D01*
X022079D01*
Y047554D01*
X022086D01*
Y047561D01*
X022093D01*
Y047568D01*
X022106D01*
Y047561D01*
X022113D01*
Y047554D01*
X022120D01*
Y047547D01*
X022127D01*
Y047541D01*
X022133D01*
Y047534D01*
X022140D01*
Y047527D01*
X022147D01*
Y047521D01*
X022153D01*
Y047514D01*
X022160D01*
Y047507D01*
X022167D01*
Y047500D01*
X022174D01*
Y047487D01*
X022167D01*
Y047480D01*
X022160D01*
Y047473D01*
X022147D01*
Y047467D01*
X022140D01*
Y047460D01*
X022133D01*
Y047453D01*
X022120D01*
Y047446D01*
X022106D01*
Y047440D01*
X022100D01*
Y047433D01*
X022086D01*
Y047426D01*
X022073D01*
Y047419D01*
X022052D01*
Y047413D01*
X022032D01*
Y047406D01*
X022005D01*
Y047399D01*
X021877D01*
Y047406D01*
X021843D01*
Y047413D01*
X021830D01*
Y047419D01*
X021810D01*
Y047426D01*
X021796D01*
Y047433D01*
X021790D01*
Y047440D01*
X021776D01*
Y047446D01*
X021769D01*
Y047453D01*
X021763D01*
Y047460D01*
X021756D01*
Y047467D01*
X021749D01*
Y047473D01*
X021742D01*
Y047487D01*
X021736D01*
Y047494D01*
X021729D01*
Y047514D01*
X021722D01*
Y047534D01*
X021715D01*
Y047595D01*
X021722D01*
Y047622D01*
X021729D01*
Y047642D01*
X021736D01*
Y047655D01*
X021742D01*
Y047662D01*
X021749D01*
Y047676D01*
X021756D01*
Y047682D01*
X021763D01*
Y047689D01*
X021776D01*
Y047696D01*
X021783D01*
Y047702D01*
X021796D01*
Y047709D01*
X021817D01*
Y047716D01*
X021837D01*
Y047723D01*
X021891D01*
Y047729D01*
X021978D01*
Y047736D01*
X021998D01*
Y047743D01*
X022012D01*
Y047750D01*
X022019D01*
Y047756D01*
X022025D01*
Y047763D01*
X022032D01*
Y047797D01*
X022025D01*
Y047810D01*
X022019D01*
Y047824D01*
X022005D01*
Y047831D01*
X021998D01*
Y047837D01*
X021972D01*
Y047844D01*
X021904D01*
Y047837D01*
X021877D01*
Y047831D01*
X021857D01*
Y047824D01*
X021843D01*
Y047817D01*
X021830D01*
Y047810D01*
X021817D01*
Y047804D01*
X021810D01*
Y047797D01*
X021790D01*
Y047804D01*
X021783D01*
Y047810D01*
X021776D01*
Y047824D01*
X021769D01*
Y047831D01*
X021763D01*
Y047837D01*
X021756D01*
Y047844D01*
X021749D01*
Y047851D01*
X021742D01*
Y047864D01*
X021736D01*
Y047871D01*
X021729D01*
Y047878D01*
X021736D01*
Y047884D01*
X021749D01*
Y047891D01*
X021756D01*
Y047898D01*
X021769D01*
Y047905D01*
X021776D01*
Y047911D01*
X021790D01*
Y047918D01*
X021803D01*
Y047925D01*
X021823D01*
Y047932D01*
X021843D01*
Y047938D01*
X021870D01*
Y047945D01*
X021998D01*
Y047938D01*
D02*
G37*
G36*
X021493D02*
X021513D01*
Y047932D01*
X021533D01*
Y047925D01*
X021547D01*
Y047918D01*
X021560D01*
Y047911D01*
X021567D01*
Y047905D01*
X021574D01*
Y047898D01*
X021581D01*
Y047891D01*
X021587D01*
Y047884D01*
X021594D01*
Y047878D01*
X021601D01*
Y047871D01*
X021608D01*
Y047864D01*
X021614D01*
Y047857D01*
X021621D01*
Y047844D01*
X021628D01*
Y047837D01*
X021635D01*
Y047824D01*
X021641D01*
Y047804D01*
X021648D01*
Y047770D01*
X021655D01*
Y047702D01*
X021662D01*
Y047662D01*
Y047655D01*
Y047642D01*
X021655D01*
Y047574D01*
X021648D01*
Y047541D01*
X021641D01*
Y047527D01*
X021635D01*
Y047507D01*
X021628D01*
Y047500D01*
X021621D01*
Y047487D01*
X021614D01*
Y047480D01*
X021608D01*
Y047473D01*
X021601D01*
Y047467D01*
X021594D01*
Y047460D01*
X021587D01*
Y047453D01*
X021581D01*
Y047446D01*
X021574D01*
Y047440D01*
X021567D01*
Y047433D01*
X021560D01*
Y047426D01*
X021547D01*
Y047419D01*
X021533D01*
Y047413D01*
X021513D01*
Y047406D01*
X021493D01*
Y047399D01*
X021378D01*
Y047406D01*
X021358D01*
Y047413D01*
X021338D01*
Y047419D01*
X021325D01*
Y047426D01*
X021318D01*
Y047433D01*
X021304D01*
Y047440D01*
X021298D01*
Y047446D01*
X021291D01*
Y047453D01*
X021284D01*
Y047460D01*
X021277D01*
Y047467D01*
X021271D01*
Y047473D01*
X021264D01*
Y047480D01*
X021257D01*
Y047487D01*
X021250D01*
Y047500D01*
X021244D01*
Y047514D01*
X021237D01*
Y047527D01*
X021230D01*
Y047547D01*
X021223D01*
Y047581D01*
X021217D01*
Y047763D01*
X021223D01*
Y047797D01*
X021230D01*
Y047817D01*
X021237D01*
Y047831D01*
X021244D01*
Y047844D01*
X021250D01*
Y047857D01*
X021257D01*
Y047864D01*
X021264D01*
Y047871D01*
X021271D01*
Y047878D01*
X021277D01*
Y047884D01*
X021284D01*
Y047891D01*
X021291D01*
Y047898D01*
X021298D01*
Y047905D01*
X021304D01*
Y047911D01*
X021318D01*
Y047918D01*
X021325D01*
Y047925D01*
X021338D01*
Y047932D01*
X021358D01*
Y047938D01*
X021385D01*
Y047945D01*
X021493D01*
Y047938D01*
D02*
G37*
G36*
X023724D02*
X023744D01*
Y047932D01*
X023764D01*
Y047925D01*
X023771D01*
Y047918D01*
X023784D01*
Y047911D01*
X023791D01*
Y047905D01*
X023805D01*
Y047898D01*
X023811D01*
Y047891D01*
X023818D01*
Y047938D01*
X023926D01*
Y046557D01*
X023818D01*
Y046907D01*
X023811D01*
Y046927D01*
X023805D01*
Y046941D01*
X023798D01*
Y046954D01*
X023791D01*
Y046961D01*
X023784D01*
Y046968D01*
X023778D01*
Y046975D01*
X023764D01*
Y046981D01*
X023751D01*
Y046988D01*
X023717D01*
Y046995D01*
X023703D01*
Y046988D01*
X023670D01*
Y046981D01*
X023656D01*
Y046975D01*
X023650D01*
Y046968D01*
X023643D01*
Y046961D01*
X023636D01*
Y046954D01*
X023629D01*
Y046948D01*
X023623D01*
Y046934D01*
X023616D01*
Y046914D01*
X023609D01*
Y046557D01*
X023501D01*
Y046564D01*
X023495D01*
Y046934D01*
X023501D01*
Y046975D01*
X023508D01*
Y046981D01*
Y046988D01*
X023515D01*
Y047008D01*
X023522D01*
Y047015D01*
X023528D01*
Y047029D01*
X023535D01*
Y047035D01*
X023542D01*
Y047042D01*
X023548D01*
Y047049D01*
X023555D01*
Y047056D01*
X023562D01*
Y047062D01*
X023569D01*
Y047069D01*
X023575D01*
Y047076D01*
X023589D01*
Y047083D01*
X023602D01*
Y047089D01*
X023616D01*
Y047096D01*
X023643D01*
Y047103D01*
X023717D01*
Y047096D01*
X023737D01*
Y047089D01*
X023757D01*
Y047083D01*
X023771D01*
Y047076D01*
X023784D01*
Y047069D01*
X023791D01*
Y047062D01*
X023798D01*
Y047056D01*
X023805D01*
Y047049D01*
X023811D01*
Y047042D01*
X023818D01*
Y047460D01*
X023811D01*
Y047453D01*
X023805D01*
Y047446D01*
X023798D01*
Y047440D01*
X023791D01*
Y047433D01*
X023784D01*
Y047426D01*
X023771D01*
Y047419D01*
X023757D01*
Y047413D01*
X023744D01*
Y047406D01*
X023724D01*
Y047399D01*
X023629D01*
Y047406D01*
X023609D01*
Y047413D01*
X023596D01*
Y047419D01*
X023582D01*
Y047426D01*
X023575D01*
Y047433D01*
X023562D01*
Y047440D01*
X023555D01*
Y047446D01*
X023548D01*
Y047453D01*
X023542D01*
Y047467D01*
X023535D01*
Y047473D01*
X023528D01*
Y047480D01*
X023522D01*
Y047494D01*
X023515D01*
Y047507D01*
X023508D01*
Y047534D01*
X023501D01*
Y047601D01*
X023495D01*
Y047743D01*
X023501D01*
Y047810D01*
X023508D01*
Y047831D01*
X023515D01*
Y047851D01*
X023522D01*
Y047864D01*
X023528D01*
Y047871D01*
X023535D01*
Y047878D01*
X023542D01*
Y047891D01*
X023548D01*
Y047898D01*
X023555D01*
Y047905D01*
X023562D01*
Y047911D01*
X023575D01*
Y047918D01*
X023582D01*
Y047925D01*
X023596D01*
Y047932D01*
X023609D01*
Y047938D01*
X023636D01*
Y047945D01*
X023724D01*
Y047938D01*
D02*
G37*
G36*
X023265Y047096D02*
X023299D01*
Y047089D01*
X023319D01*
Y047083D01*
X023333D01*
Y047076D01*
X023346D01*
Y047069D01*
X023353D01*
Y047062D01*
X023367D01*
Y047056D01*
X023373D01*
Y047049D01*
X023380D01*
Y047042D01*
X023387D01*
Y047035D01*
X023393D01*
Y047015D01*
X023380D01*
Y047008D01*
X023373D01*
Y047002D01*
X023367D01*
Y046995D01*
X023360D01*
Y046988D01*
X023346D01*
Y046981D01*
X023340D01*
Y046975D01*
X023333D01*
Y046968D01*
X023319D01*
Y046961D01*
X023306D01*
Y046968D01*
X023299D01*
Y046975D01*
X023292D01*
Y046981D01*
X023286D01*
Y046988D01*
X023272D01*
Y046995D01*
X023144D01*
Y046988D01*
X023131D01*
Y046981D01*
X023117D01*
Y046975D01*
X023110D01*
Y046961D01*
X023104D01*
Y046887D01*
X023097D01*
Y046880D01*
X023104D01*
Y046874D01*
X023110D01*
Y046880D01*
X023252D01*
Y046874D01*
X023306D01*
Y046867D01*
X023326D01*
Y046860D01*
X023340D01*
Y046853D01*
X023353D01*
Y046847D01*
X023367D01*
Y046840D01*
X023373D01*
Y046833D01*
X023380D01*
Y046826D01*
X023387D01*
Y046820D01*
X023393D01*
Y046813D01*
X023400D01*
Y046799D01*
X023407D01*
Y046786D01*
X023414D01*
Y046766D01*
X023420D01*
Y046732D01*
X023427D01*
Y046698D01*
X023420D01*
Y046665D01*
X023414D01*
Y046651D01*
X023407D01*
Y046638D01*
X023400D01*
Y046624D01*
X023393D01*
Y046617D01*
X023387D01*
Y046611D01*
X023380D01*
Y046604D01*
X023373D01*
Y046597D01*
X023367D01*
Y046591D01*
X023360D01*
Y046584D01*
X023346D01*
Y046577D01*
X023340D01*
Y046570D01*
X023319D01*
Y046564D01*
X023299D01*
Y046557D01*
X023164D01*
Y046564D01*
X023144D01*
Y046570D01*
X023131D01*
Y046577D01*
X023124D01*
Y046584D01*
X023117D01*
Y046591D01*
X023110D01*
Y046597D01*
X023104D01*
Y046604D01*
X023097D01*
Y046591D01*
X023104D01*
Y046564D01*
X023097D01*
Y046557D01*
X022996D01*
Y046564D01*
X022989D01*
Y046954D01*
X022996D01*
Y046961D01*
Y046968D01*
Y046988D01*
X023003D01*
Y047008D01*
X023009D01*
Y047022D01*
X023016D01*
Y047029D01*
X023023D01*
Y047035D01*
X023030D01*
Y047049D01*
X023036D01*
Y047056D01*
X023050D01*
Y047062D01*
X023057D01*
Y047069D01*
X023070D01*
Y047076D01*
X023083D01*
Y047083D01*
X023097D01*
Y047089D01*
X023124D01*
Y047096D01*
X023158D01*
Y047103D01*
X023265D01*
Y047096D01*
D02*
G37*
G36*
X021102D02*
X021136D01*
Y047089D01*
X021156D01*
Y047083D01*
X021170D01*
Y047076D01*
X021183D01*
Y047069D01*
X021197D01*
Y047062D01*
X021203D01*
Y047056D01*
X021210D01*
Y047049D01*
X021217D01*
Y047042D01*
X021223D01*
Y047035D01*
X021230D01*
Y047029D01*
X021237D01*
Y047022D01*
X021230D01*
Y047015D01*
X021223D01*
Y047008D01*
X021210D01*
Y047002D01*
X021203D01*
Y046995D01*
X021197D01*
Y046988D01*
X021183D01*
Y046981D01*
X021176D01*
Y046975D01*
X021170D01*
Y046968D01*
X021163D01*
Y046961D01*
X021143D01*
Y046968D01*
X021136D01*
Y046975D01*
X021129D01*
Y046981D01*
X021122D01*
Y046988D01*
X021102D01*
Y046995D01*
X020981D01*
Y046988D01*
X020967D01*
Y046981D01*
X020961D01*
Y046975D01*
X020954D01*
Y046968D01*
X020947D01*
Y046961D01*
X020940D01*
Y046880D01*
Y046874D01*
X020947D01*
Y046880D01*
X021089D01*
Y046874D01*
X021143D01*
Y046867D01*
X021163D01*
Y046860D01*
X021176D01*
Y046853D01*
X021190D01*
Y046847D01*
X021203D01*
Y046840D01*
X021210D01*
Y046833D01*
X021217D01*
Y046826D01*
X021223D01*
Y046820D01*
X021230D01*
Y046813D01*
X021237D01*
Y046799D01*
X021244D01*
Y046786D01*
X021250D01*
Y046772D01*
X021257D01*
Y046746D01*
X021264D01*
Y046692D01*
X021257D01*
Y046665D01*
X021250D01*
Y046644D01*
X021244D01*
Y046631D01*
X021237D01*
Y046624D01*
X021230D01*
Y046617D01*
X021223D01*
Y046611D01*
X021217D01*
Y046604D01*
X021210D01*
Y046597D01*
X021203D01*
Y046591D01*
X021197D01*
Y046584D01*
X021190D01*
Y046577D01*
X021176D01*
Y046570D01*
X021156D01*
Y046564D01*
X021136D01*
Y046557D01*
X021001D01*
Y046564D01*
X020981D01*
Y046570D01*
X020967D01*
Y046577D01*
X020961D01*
Y046584D01*
X020954D01*
Y046591D01*
X020947D01*
Y046604D01*
X020940D01*
Y046557D01*
X020833D01*
Y046564D01*
X020826D01*
Y046941D01*
X020833D01*
Y046981D01*
X020839D01*
Y047002D01*
X020846D01*
Y047015D01*
X020853D01*
Y047029D01*
X020860D01*
Y047035D01*
X020866D01*
Y047042D01*
X020873D01*
Y047049D01*
X020880D01*
Y047056D01*
X020887D01*
Y047062D01*
X020893D01*
Y047069D01*
X020907D01*
Y047076D01*
X020920D01*
Y047083D01*
X020934D01*
Y047089D01*
X020961D01*
Y047096D01*
X020994D01*
Y047103D01*
X021102D01*
Y047096D01*
D02*
G37*
G36*
X030694Y051564D02*
X030721D01*
Y051559D01*
X030738D01*
Y051554D01*
X030756D01*
Y051550D01*
X030770D01*
Y051546D01*
X030779D01*
Y051541D01*
X030793D01*
Y051536D01*
X030801D01*
Y051532D01*
X030810D01*
Y051528D01*
X030819D01*
Y051523D01*
X030828D01*
Y051519D01*
X030838D01*
Y051514D01*
X030842D01*
Y051509D01*
X030851D01*
Y051505D01*
X030856D01*
Y051501D01*
X030860D01*
Y051496D01*
X030869D01*
Y051491D01*
X030873D01*
Y051487D01*
X030878D01*
Y051483D01*
X030882D01*
Y051478D01*
X030891D01*
Y051473D01*
X030896D01*
Y051469D01*
X030900D01*
Y051465D01*
X030905D01*
Y051460D01*
X030910D01*
Y051455D01*
X030914D01*
Y051451D01*
X030919D01*
Y051442D01*
X030923D01*
Y051438D01*
X030928D01*
Y051433D01*
X030932D01*
Y051428D01*
X030937D01*
Y051420D01*
X030941D01*
Y051415D01*
X030945D01*
Y051410D01*
X030950D01*
Y051402D01*
X030954D01*
Y051397D01*
X030959D01*
Y051388D01*
X030963D01*
Y051379D01*
X030968D01*
Y051370D01*
X030972D01*
Y051361D01*
X030977D01*
Y051352D01*
X030982D01*
Y051339D01*
X030986D01*
Y051329D01*
X030991D01*
Y051316D01*
X030995D01*
Y051298D01*
X031000D01*
Y051280D01*
X031004D01*
Y051253D01*
X031009D01*
Y051203D01*
X031013D01*
Y047172D01*
X031009D01*
Y047131D01*
X031004D01*
Y047108D01*
X031000D01*
Y047091D01*
X030995D01*
Y047077D01*
X030991D01*
Y047063D01*
X030986D01*
Y047050D01*
X030982D01*
Y047041D01*
X030977D01*
Y047032D01*
X030972D01*
Y047023D01*
X030968D01*
Y047014D01*
X030963D01*
Y047005D01*
X030959D01*
Y047000D01*
X030954D01*
Y046992D01*
X030950D01*
Y046987D01*
X030945D01*
Y046978D01*
X030941D01*
Y046974D01*
X030937D01*
Y046969D01*
X030932D01*
Y046960D01*
X030928D01*
Y046955D01*
X030923D01*
Y046951D01*
X030919D01*
Y046947D01*
X030914D01*
Y046942D01*
X030910D01*
Y046937D01*
X030905D01*
Y046933D01*
X030900D01*
Y046929D01*
X030896D01*
Y046924D01*
X030891D01*
Y046919D01*
X030887D01*
Y046915D01*
X030882D01*
Y046911D01*
X030878D01*
Y046906D01*
X030869D01*
Y046901D01*
X030865D01*
Y046897D01*
X030860D01*
Y046892D01*
X030851D01*
Y046888D01*
X030847D01*
Y046884D01*
X030838D01*
Y046879D01*
X030833D01*
Y046874D01*
X030824D01*
Y046870D01*
X030815D01*
Y046866D01*
X030806D01*
Y046861D01*
X030797D01*
Y046856D01*
X030788D01*
Y046852D01*
X030775D01*
Y046848D01*
X030761D01*
Y046843D01*
X030747D01*
Y046838D01*
X030729D01*
Y046834D01*
X030707D01*
Y046830D01*
X030671D01*
Y046825D01*
X026621D01*
Y046830D01*
X026581D01*
Y046834D01*
X026558D01*
Y046838D01*
X026540D01*
Y046843D01*
X026527D01*
Y046848D01*
X026513D01*
Y046852D01*
X026504D01*
Y046856D01*
X026490D01*
Y046861D01*
X026481D01*
Y046866D01*
X026472D01*
Y046870D01*
X026463D01*
Y046874D01*
X026459D01*
Y046879D01*
X026450D01*
Y046884D01*
X026441D01*
Y046888D01*
X026437D01*
Y046892D01*
X026428D01*
Y046897D01*
X026423D01*
Y046901D01*
X026418D01*
Y046906D01*
X026409D01*
Y046911D01*
X026405D01*
Y046915D01*
X026400D01*
Y046919D01*
X026396D01*
Y046924D01*
X026391D01*
Y046929D01*
X026387D01*
Y046933D01*
X026383D01*
Y046937D01*
X026378D01*
Y046942D01*
X026374D01*
Y046947D01*
X026369D01*
Y046951D01*
X026365D01*
Y046955D01*
X026360D01*
Y046965D01*
X026356D01*
Y046969D01*
X026351D01*
Y046974D01*
X026346D01*
Y046982D01*
X026342D01*
Y046987D01*
X026337D01*
Y046996D01*
X026333D01*
Y047000D01*
X026328D01*
Y047010D01*
X026324D01*
Y047018D01*
X026319D01*
Y047023D01*
X026315D01*
Y047032D01*
X026311D01*
Y047045D01*
X026306D01*
Y047055D01*
X026302D01*
Y047068D01*
X026297D01*
Y047081D01*
X026293D01*
Y047095D01*
X026288D01*
Y047113D01*
X026284D01*
Y047140D01*
X026279D01*
Y050726D01*
Y050731D01*
Y051244D01*
X026284D01*
Y051276D01*
X026288D01*
Y051294D01*
X026293D01*
Y051311D01*
X026297D01*
Y051325D01*
X026302D01*
Y051339D01*
X026306D01*
Y051347D01*
X026311D01*
Y051361D01*
X026315D01*
Y051370D01*
X026319D01*
Y051379D01*
X026324D01*
Y051384D01*
X026328D01*
Y051392D01*
X026333D01*
Y051402D01*
X026337D01*
Y051406D01*
X026342D01*
Y051415D01*
X026346D01*
Y051420D01*
X026351D01*
Y051424D01*
X026356D01*
Y051433D01*
X026360D01*
Y051438D01*
X026365D01*
Y051442D01*
X026369D01*
Y051446D01*
X026374D01*
Y051451D01*
X026378D01*
Y051455D01*
X026383D01*
Y051460D01*
X026387D01*
Y051465D01*
X026391D01*
Y051469D01*
X026396D01*
Y051473D01*
X026400D01*
Y051478D01*
X026405D01*
Y051483D01*
X026409D01*
Y051487D01*
X026414D01*
Y051491D01*
X026418D01*
Y051496D01*
X026428D01*
Y051501D01*
X026432D01*
Y051505D01*
X026441D01*
Y051509D01*
X026446D01*
Y051514D01*
X026455D01*
Y051519D01*
X026459D01*
Y051523D01*
X026468D01*
Y051528D01*
X026477D01*
Y051532D01*
X026486D01*
Y051536D01*
X026495D01*
Y051541D01*
X026509D01*
Y051546D01*
X026518D01*
Y051550D01*
X026531D01*
Y051554D01*
X026549D01*
Y051559D01*
X026567D01*
Y051564D01*
X026594D01*
Y051568D01*
X030694D01*
Y051564D01*
D02*
G37*
G36*
X022025Y047076D02*
X022019D01*
Y047056D01*
X022012D01*
Y047035D01*
X022005D01*
Y047015D01*
X021998D01*
Y046995D01*
X021992D01*
Y046975D01*
X021985D01*
Y046948D01*
X021978D01*
Y046927D01*
X021972D01*
Y046907D01*
X021965D01*
Y046887D01*
X021958D01*
Y046867D01*
X021951D01*
Y046847D01*
X021945D01*
Y046826D01*
X021938D01*
Y046799D01*
X021931D01*
Y046779D01*
X021924D01*
Y046759D01*
X021918D01*
Y046739D01*
X021911D01*
Y046719D01*
X021904D01*
Y046698D01*
X021897D01*
Y046678D01*
X021891D01*
Y046658D01*
X021884D01*
Y046631D01*
X021877D01*
Y046611D01*
X021870D01*
Y046591D01*
X021864D01*
Y046570D01*
X021857D01*
Y046557D01*
X021763D01*
Y046564D01*
X021756D01*
Y046584D01*
X021749D01*
Y046604D01*
X021742D01*
Y046631D01*
X021736D01*
Y046651D01*
X021729D01*
Y046671D01*
X021722D01*
Y046692D01*
X021715D01*
Y046719D01*
X021709D01*
Y046739D01*
X021702D01*
Y046766D01*
X021695D01*
Y046786D01*
X021688D01*
Y046806D01*
X021682D01*
Y046833D01*
X021675D01*
Y046853D01*
X021668D01*
Y046874D01*
X021662D01*
Y046901D01*
X021655D01*
Y046921D01*
X021641D01*
Y046901D01*
X021635D01*
Y046874D01*
X021628D01*
Y046853D01*
X021621D01*
Y046833D01*
X021614D01*
Y046806D01*
X021608D01*
Y046786D01*
X021601D01*
Y046766D01*
X021594D01*
Y046746D01*
X021587D01*
Y046719D01*
X021581D01*
Y046698D01*
X021574D01*
Y046671D01*
X021567D01*
Y046651D01*
X021560D01*
Y046631D01*
X021554D01*
Y046604D01*
X021547D01*
Y046584D01*
X021540D01*
Y046564D01*
X021533D01*
Y046557D01*
X021439D01*
Y046570D01*
X021432D01*
Y046591D01*
X021426D01*
Y046611D01*
X021419D01*
Y046631D01*
X021412D01*
Y046651D01*
X021405D01*
Y046671D01*
X021399D01*
Y046698D01*
X021392D01*
Y046719D01*
X021385D01*
Y046739D01*
X021378D01*
Y046759D01*
X021372D01*
Y046779D01*
X021365D01*
Y046799D01*
X021358D01*
Y046820D01*
X021352D01*
Y046847D01*
X021345D01*
Y046867D01*
X021338D01*
Y046887D01*
X021331D01*
Y046907D01*
X021325D01*
Y046927D01*
X021318D01*
Y046948D01*
X021311D01*
Y046954D01*
Y046961D01*
Y046968D01*
X021304D01*
Y046988D01*
X021298D01*
Y047015D01*
X021291D01*
Y047035D01*
X021284D01*
Y047056D01*
X021277D01*
Y047076D01*
X021271D01*
Y047096D01*
X021385D01*
Y047083D01*
X021392D01*
Y047056D01*
X021399D01*
Y047029D01*
X021405D01*
Y047008D01*
X021412D01*
Y046981D01*
X021419D01*
Y046954D01*
X021426D01*
Y046934D01*
X021432D01*
Y046907D01*
X021439D01*
Y046880D01*
X021446D01*
Y046860D01*
X021453D01*
Y046833D01*
X021459D01*
Y046813D01*
X021466D01*
Y046786D01*
X021473D01*
Y046759D01*
X021480D01*
Y046732D01*
X021493D01*
Y046752D01*
X021500D01*
Y046772D01*
X021507D01*
Y046793D01*
X021513D01*
Y046813D01*
X021520D01*
Y046833D01*
X021527D01*
Y046853D01*
X021533D01*
Y046874D01*
X021540D01*
Y046901D01*
X021547D01*
Y046921D01*
X021554D01*
Y046941D01*
X021560D01*
Y046961D01*
X021567D01*
Y046981D01*
X021574D01*
Y047002D01*
X021581D01*
Y047022D01*
X021587D01*
Y047042D01*
X021594D01*
Y047062D01*
X021601D01*
Y047083D01*
X021608D01*
Y047096D01*
X021688D01*
Y047083D01*
X021695D01*
Y047062D01*
X021702D01*
Y047042D01*
X021709D01*
Y047022D01*
X021715D01*
Y047002D01*
X021722D01*
Y046981D01*
X021729D01*
Y046961D01*
X021736D01*
Y046941D01*
X021742D01*
Y046921D01*
X021749D01*
Y046901D01*
X021756D01*
Y046874D01*
X021763D01*
Y046853D01*
X021769D01*
Y046833D01*
X021776D01*
Y046813D01*
X021783D01*
Y046793D01*
X021790D01*
Y046772D01*
X021796D01*
Y046752D01*
X021803D01*
Y046725D01*
X021810D01*
Y046732D01*
X021817D01*
Y046759D01*
X021823D01*
Y046786D01*
X021830D01*
Y046813D01*
X021837D01*
Y046833D01*
X021843D01*
Y046860D01*
X021850D01*
Y046887D01*
X021857D01*
Y046907D01*
X021864D01*
Y046934D01*
X021870D01*
Y046961D01*
X021877D01*
Y046981D01*
X021884D01*
Y047008D01*
X021891D01*
Y047029D01*
X021897D01*
Y047056D01*
X021904D01*
Y047083D01*
X021911D01*
Y047096D01*
X022025D01*
Y047076D01*
D02*
G37*
G36*
X020165Y047096D02*
X020199D01*
Y047089D01*
X020213D01*
Y047083D01*
X020226D01*
Y047076D01*
X020240D01*
Y047069D01*
X020253D01*
Y047062D01*
X020260D01*
Y047056D01*
X020267D01*
Y047049D01*
X020273D01*
Y047042D01*
X020280D01*
Y047035D01*
X020287D01*
Y047029D01*
X020293D01*
Y047022D01*
X020300D01*
Y047015D01*
X020307D01*
Y047002D01*
X020314D01*
Y046988D01*
X020320D01*
Y046975D01*
X020327D01*
Y046961D01*
X020334D01*
Y046934D01*
X020341D01*
Y046907D01*
X020347D01*
Y046847D01*
X020354D01*
Y046806D01*
X020347D01*
Y046746D01*
X020341D01*
Y046712D01*
X020334D01*
Y046692D01*
X020327D01*
Y046678D01*
X020320D01*
Y046665D01*
X020314D01*
Y046651D01*
X020307D01*
Y046644D01*
X020300D01*
Y046631D01*
X020293D01*
Y046624D01*
X020287D01*
Y046617D01*
X020280D01*
Y046611D01*
X020273D01*
Y046604D01*
X020267D01*
Y046597D01*
X020260D01*
Y046591D01*
X020246D01*
Y046584D01*
X020233D01*
Y046577D01*
X020219D01*
Y046570D01*
X020206D01*
Y046564D01*
X020179D01*
Y046557D01*
X020044D01*
Y046564D01*
X020024D01*
Y046570D01*
X020004D01*
Y046577D01*
X019990D01*
Y046584D01*
X019977D01*
Y046591D01*
X019970D01*
Y046597D01*
X019957D01*
Y046604D01*
X019950D01*
Y046611D01*
X019943D01*
Y046617D01*
X019936D01*
Y046624D01*
X019930D01*
Y046631D01*
X019923D01*
Y046638D01*
X019916D01*
Y046644D01*
X019930D01*
Y046651D01*
X019936D01*
Y046658D01*
X019943D01*
Y046665D01*
X019950D01*
Y046671D01*
X019957D01*
Y046678D01*
X019963D01*
Y046685D01*
X019977D01*
Y046692D01*
X019983D01*
Y046698D01*
X019990D01*
Y046705D01*
X020004D01*
Y046698D01*
X020010D01*
Y046692D01*
X020024D01*
Y046685D01*
X020031D01*
Y046678D01*
X020044D01*
Y046671D01*
X020058D01*
Y046665D01*
X020078D01*
Y046658D01*
X020152D01*
Y046665D01*
X020172D01*
Y046671D01*
X020186D01*
Y046678D01*
X020199D01*
Y046685D01*
X020206D01*
Y046692D01*
X020213D01*
Y046698D01*
X020219D01*
Y046712D01*
X020226D01*
Y046725D01*
X020233D01*
Y046746D01*
X020240D01*
Y046786D01*
X019909D01*
Y046927D01*
X019916D01*
Y046954D01*
X019923D01*
Y046975D01*
X019930D01*
Y046988D01*
X019936D01*
Y047002D01*
X019943D01*
Y047008D01*
X019950D01*
Y047022D01*
X019957D01*
Y047029D01*
X019963D01*
Y047035D01*
X019970D01*
Y047042D01*
X019977D01*
Y047049D01*
X019983D01*
Y047056D01*
X019997D01*
Y047062D01*
X020004D01*
Y047069D01*
X020017D01*
Y047076D01*
X020031D01*
Y047083D01*
X020044D01*
Y047089D01*
X020064D01*
Y047096D01*
X020091D01*
Y047103D01*
X020165D01*
Y047096D01*
D02*
G37*
G36*
X022659D02*
X022686D01*
Y047089D01*
X022706D01*
Y047083D01*
X022720D01*
Y047076D01*
X022726D01*
Y047069D01*
X022740D01*
Y047062D01*
X022747D01*
Y047056D01*
X022753D01*
Y047049D01*
X022760D01*
Y047042D01*
X022767D01*
Y047096D01*
X022875D01*
Y046557D01*
X022767D01*
Y046907D01*
X022760D01*
Y046934D01*
X022753D01*
Y046948D01*
X022747D01*
Y046954D01*
X022740D01*
Y046961D01*
X022733D01*
Y046968D01*
X022726D01*
Y046975D01*
X022720D01*
Y046981D01*
X022699D01*
Y046988D01*
X022672D01*
Y046995D01*
X022652D01*
Y046988D01*
X022625D01*
Y046981D01*
X022612D01*
Y046975D01*
X022598D01*
Y046968D01*
X022585D01*
Y046975D01*
X022578D01*
Y046988D01*
X022571D01*
Y046995D01*
X022565D01*
Y047002D01*
X022558D01*
Y047008D01*
X022551D01*
Y047015D01*
X022544D01*
Y047029D01*
X022538D01*
Y047035D01*
X022531D01*
Y047042D01*
X022524D01*
Y047049D01*
X022517D01*
Y047056D01*
X022511D01*
Y047062D01*
X022517D01*
Y047069D01*
X022531D01*
Y047076D01*
X022538D01*
Y047083D01*
X022551D01*
Y047089D01*
X022571D01*
Y047096D01*
X022592D01*
Y047103D01*
X022659D01*
Y047096D01*
D02*
G37*
G36*
X022194Y047042D02*
X022201D01*
Y047049D01*
X022207D01*
Y047056D01*
X022214D01*
Y047062D01*
X022221D01*
Y047069D01*
X022234D01*
Y047076D01*
X022241D01*
Y047083D01*
X022255D01*
Y047089D01*
X022275D01*
Y047096D01*
X022295D01*
Y047103D01*
X022369D01*
Y047096D01*
X022389D01*
Y047089D01*
X022410D01*
Y047083D01*
X022423D01*
Y047076D01*
X022437D01*
Y047069D01*
X022443D01*
Y047062D01*
X022450D01*
Y047056D01*
X022457D01*
Y047049D01*
X022463D01*
Y047042D01*
X022470D01*
Y047035D01*
X022477D01*
Y047022D01*
X022484D01*
Y047015D01*
X022490D01*
Y047002D01*
X022497D01*
Y046981D01*
X022504D01*
Y046954D01*
X022511D01*
Y046705D01*
X022504D01*
Y046671D01*
X022497D01*
Y046651D01*
X022490D01*
Y046638D01*
X022484D01*
Y046631D01*
X022477D01*
Y046617D01*
X022470D01*
Y046611D01*
X022463D01*
Y046604D01*
X022457D01*
Y046597D01*
X022450D01*
Y046591D01*
X022437D01*
Y046584D01*
X022430D01*
Y046577D01*
X022416D01*
Y046570D01*
X022403D01*
Y046564D01*
X022383D01*
Y046557D01*
X022275D01*
Y046564D01*
X022261D01*
Y046570D01*
X022241D01*
Y046577D01*
X022234D01*
Y046584D01*
X022221D01*
Y046591D01*
X022214D01*
Y046597D01*
X022207D01*
Y046604D01*
X022201D01*
Y046611D01*
X022194D01*
Y046557D01*
X022086D01*
Y046564D01*
X022079D01*
Y047312D01*
X022194D01*
Y047042D01*
D02*
G37*
G36*
X020502Y047096D02*
X020523D01*
Y047089D01*
X020543D01*
Y047083D01*
X020556D01*
Y047076D01*
X020570D01*
Y047069D01*
X020577D01*
Y047062D01*
X020583D01*
Y047056D01*
X020590D01*
Y047049D01*
X020597D01*
Y047042D01*
X020603D01*
Y047096D01*
X020711D01*
Y047008D01*
Y047002D01*
Y046557D01*
X020603D01*
Y046914D01*
X020597D01*
Y046934D01*
X020590D01*
Y046948D01*
X020583D01*
Y046954D01*
X020577D01*
Y046961D01*
X020570D01*
Y046968D01*
X020563D01*
Y046975D01*
X020556D01*
Y046981D01*
X020543D01*
Y046988D01*
X020509D01*
Y046995D01*
X020489D01*
Y046988D01*
X020462D01*
Y046981D01*
X020448D01*
Y046975D01*
X020435D01*
Y046968D01*
X020422D01*
Y046981D01*
X020415D01*
Y046988D01*
X020408D01*
Y046995D01*
X020401D01*
Y047002D01*
X020395D01*
Y047008D01*
X020388D01*
Y047015D01*
X020381D01*
Y047029D01*
X020374D01*
Y047035D01*
X020368D01*
Y047042D01*
X020361D01*
Y047049D01*
X020354D01*
Y047056D01*
X020347D01*
Y047062D01*
X020354D01*
Y047069D01*
X020368D01*
Y047076D01*
X020374D01*
Y047083D01*
X020388D01*
Y047089D01*
X020408D01*
Y047096D01*
X020428D01*
Y047103D01*
X020502D01*
Y047096D01*
D02*
G37*
%LPC*%
G36*
X023232Y047844D02*
X023178D01*
Y047837D01*
X023158D01*
Y047831D01*
X023144D01*
Y047824D01*
X023137D01*
Y047817D01*
X023131D01*
Y047810D01*
X023124D01*
Y047804D01*
X023117D01*
Y047790D01*
X023110D01*
Y047783D01*
X023104D01*
Y047763D01*
X023097D01*
Y047723D01*
X023319D01*
Y047729D01*
X023313D01*
Y047770D01*
X023306D01*
Y047783D01*
X023299D01*
Y047797D01*
X023292D01*
Y047804D01*
X023286D01*
Y047810D01*
X023279D01*
Y047817D01*
X023272D01*
Y047824D01*
X023265D01*
Y047831D01*
X023252D01*
Y047837D01*
X023232D01*
Y047844D01*
D02*
G37*
G36*
X019572D02*
X019525D01*
Y047837D01*
X019505D01*
Y047831D01*
X019492D01*
Y047824D01*
X019478D01*
Y047817D01*
X019471D01*
Y047810D01*
X019465D01*
Y047797D01*
X019458D01*
Y047790D01*
X019451D01*
Y047777D01*
X019444D01*
Y047750D01*
X019438D01*
Y047723D01*
X019660D01*
Y047750D01*
X019653D01*
Y047777D01*
X019647D01*
Y047790D01*
X019640D01*
Y047797D01*
X019633D01*
Y047810D01*
X019626D01*
Y047817D01*
X019620D01*
Y047824D01*
X019606D01*
Y047831D01*
X019593D01*
Y047837D01*
X019572D01*
Y047844D01*
D02*
G37*
G36*
X024263Y047837D02*
X024216D01*
Y047831D01*
X024189D01*
Y047824D01*
X024175D01*
Y047817D01*
X024168D01*
Y047810D01*
X024162D01*
Y047804D01*
X024155D01*
Y047797D01*
X024148D01*
Y047783D01*
X024142D01*
Y047770D01*
X024135D01*
Y047750D01*
X024128D01*
Y047642D01*
Y047635D01*
Y047595D01*
X024135D01*
Y047574D01*
X024142D01*
Y047561D01*
X024148D01*
Y047547D01*
X024155D01*
Y047541D01*
X024162D01*
Y047534D01*
X024168D01*
Y047527D01*
X024175D01*
Y047521D01*
X024189D01*
Y047514D01*
X024209D01*
Y047507D01*
X024263D01*
Y047514D01*
X024283D01*
Y047521D01*
X024297D01*
Y047527D01*
X024310D01*
Y047534D01*
X024317D01*
Y047541D01*
X024323D01*
Y047554D01*
X024330D01*
Y047561D01*
X024337D01*
Y047581D01*
X024344D01*
Y047615D01*
X024350D01*
Y047729D01*
X024344D01*
Y047763D01*
X024337D01*
Y047783D01*
X024330D01*
Y047790D01*
X024323D01*
Y047804D01*
X024317D01*
Y047810D01*
X024310D01*
Y047817D01*
X024297D01*
Y047824D01*
X024283D01*
Y047831D01*
X024263D01*
Y047837D01*
D02*
G37*
G36*
X021459D02*
X021412D01*
Y047831D01*
X021392D01*
Y047824D01*
X021378D01*
Y047817D01*
X021365D01*
Y047810D01*
X021358D01*
Y047804D01*
X021352D01*
Y047790D01*
X021345D01*
Y047783D01*
X021338D01*
Y047770D01*
X021331D01*
Y047736D01*
X021325D01*
Y047608D01*
X021331D01*
Y047574D01*
X021338D01*
Y047561D01*
X021345D01*
Y047554D01*
X021352D01*
Y047541D01*
X021358D01*
Y047534D01*
X021365D01*
Y047527D01*
X021378D01*
Y047521D01*
X021385D01*
Y047514D01*
X021405D01*
Y047507D01*
X021466D01*
Y047514D01*
X021486D01*
Y047521D01*
X021500D01*
Y047527D01*
X021507D01*
Y047534D01*
X021513D01*
Y047541D01*
X021520D01*
Y047547D01*
X021527D01*
Y047561D01*
X021533D01*
Y047574D01*
X021540D01*
Y047601D01*
X021547D01*
Y047743D01*
X021540D01*
Y047770D01*
X021533D01*
Y047783D01*
X021527D01*
Y047797D01*
X021520D01*
Y047804D01*
X021513D01*
Y047810D01*
X021507D01*
Y047817D01*
X021500D01*
Y047824D01*
X021486D01*
Y047831D01*
X021459D01*
Y047837D01*
D02*
G37*
G36*
X023744D02*
X023683D01*
Y047831D01*
X023663D01*
Y047824D01*
X023650D01*
Y047817D01*
X023643D01*
Y047810D01*
X023636D01*
Y047804D01*
X023629D01*
Y047790D01*
X023623D01*
Y047777D01*
X023616D01*
Y047750D01*
X023609D01*
Y047669D01*
Y047662D01*
Y047595D01*
X023616D01*
Y047568D01*
X023623D01*
Y047554D01*
X023629D01*
Y047541D01*
X023636D01*
Y047534D01*
X023643D01*
Y047527D01*
X023650D01*
Y047521D01*
X023663D01*
Y047514D01*
X023683D01*
Y047507D01*
X023744D01*
Y047514D01*
X023764D01*
Y047521D01*
X023771D01*
Y047527D01*
X023784D01*
Y047541D01*
X023791D01*
Y047547D01*
X023798D01*
Y047561D01*
X023805D01*
Y047574D01*
X023811D01*
Y047622D01*
X023818D01*
Y047723D01*
X023811D01*
Y047763D01*
X023805D01*
Y047783D01*
X023798D01*
Y047797D01*
X023791D01*
Y047804D01*
X023784D01*
Y047817D01*
X023771D01*
Y047824D01*
X023764D01*
Y047831D01*
X023744D01*
Y047837D01*
D02*
G37*
G36*
X023259Y046786D02*
X023104D01*
Y046698D01*
X023110D01*
Y046685D01*
X023117D01*
Y046678D01*
X023124D01*
Y046671D01*
X023131D01*
Y046665D01*
X023151D01*
Y046658D01*
X023265D01*
Y046665D01*
X023286D01*
Y046671D01*
X023292D01*
Y046678D01*
X023306D01*
Y046685D01*
X023313D01*
Y046698D01*
X023319D01*
Y046746D01*
X023313D01*
Y046759D01*
X023306D01*
Y046766D01*
X023292D01*
Y046772D01*
X023286D01*
Y046779D01*
X023259D01*
Y046786D01*
D02*
G37*
G36*
X021095D02*
X020940D01*
Y046705D01*
X020947D01*
Y046685D01*
X020954D01*
Y046678D01*
X020961D01*
Y046671D01*
X020974D01*
Y046665D01*
X020988D01*
Y046658D01*
X021102D01*
Y046665D01*
X021122D01*
Y046671D01*
X021136D01*
Y046678D01*
X021143D01*
Y046685D01*
X021149D01*
Y046698D01*
X021156D01*
Y046746D01*
X021149D01*
Y046759D01*
X021143D01*
Y046766D01*
X021136D01*
Y046772D01*
X021122D01*
Y046779D01*
X021095D01*
Y046786D01*
D02*
G37*
G36*
X028637Y050996D02*
X028614D01*
Y050992D01*
X028596D01*
Y050988D01*
X028588D01*
Y050983D01*
X028583D01*
Y050978D01*
X028579D01*
Y050974D01*
X028574D01*
Y050970D01*
X028570D01*
Y050965D01*
X028565D01*
Y050960D01*
X028561D01*
Y050956D01*
X028556D01*
Y050951D01*
X028551D01*
Y050947D01*
X028547D01*
Y050943D01*
X028542D01*
Y050938D01*
X028538D01*
Y050933D01*
X028533D01*
Y050929D01*
X028529D01*
Y050925D01*
X028524D01*
Y050920D01*
X028520D01*
Y050915D01*
X028516D01*
Y050911D01*
X028511D01*
Y050907D01*
X028507D01*
Y050902D01*
X028502D01*
Y050897D01*
X028498D01*
Y050893D01*
X028493D01*
Y050889D01*
X028489D01*
Y050884D01*
X028484D01*
Y050880D01*
X028479D01*
Y050875D01*
X028475D01*
Y050870D01*
X028470D01*
Y050866D01*
X028466D01*
Y050862D01*
X028461D01*
Y050857D01*
X028457D01*
Y050852D01*
X028452D01*
Y050848D01*
X028448D01*
Y050844D01*
X028444D01*
Y050839D01*
X028439D01*
Y050834D01*
X028435D01*
Y050830D01*
X028430D01*
Y050826D01*
X028426D01*
Y050821D01*
X028421D01*
Y050816D01*
X028417D01*
Y050812D01*
X028412D01*
Y050807D01*
X028407D01*
Y050803D01*
X028403D01*
Y050799D01*
X028398D01*
Y050794D01*
X028394D01*
Y050789D01*
X028389D01*
Y050785D01*
X028385D01*
Y050781D01*
X028380D01*
Y050776D01*
X028376D01*
Y050771D01*
X028372D01*
Y050767D01*
X028367D01*
Y050763D01*
X028363D01*
Y050758D01*
X028358D01*
Y050753D01*
X028354D01*
Y050749D01*
X028349D01*
Y050745D01*
X028345D01*
Y050740D01*
X028340D01*
Y050736D01*
X028335D01*
Y050731D01*
X028331D01*
Y050726D01*
X028326D01*
Y050722D01*
X028322D01*
Y050718D01*
X028317D01*
Y050713D01*
X028313D01*
Y050708D01*
X028308D01*
Y050704D01*
X028304D01*
Y050700D01*
X028300D01*
Y050695D01*
X028295D01*
Y050690D01*
X028291D01*
Y050686D01*
X028286D01*
Y050682D01*
X028282D01*
Y050677D01*
X028277D01*
Y050672D01*
X028273D01*
Y050668D01*
X028268D01*
Y050663D01*
X028263D01*
Y050659D01*
X028259D01*
Y050655D01*
X028254D01*
Y050650D01*
X028250D01*
Y050645D01*
X028245D01*
Y050641D01*
X028241D01*
Y050637D01*
X028236D01*
Y050632D01*
X028232D01*
Y050627D01*
X028228D01*
Y050623D01*
X028223D01*
Y050619D01*
X028219D01*
Y050614D01*
X028214D01*
Y050609D01*
X028210D01*
Y050605D01*
X028205D01*
Y050601D01*
X028201D01*
Y050596D01*
X028196D01*
Y050592D01*
X028191D01*
Y050587D01*
X028187D01*
Y050582D01*
X028182D01*
Y050578D01*
X028178D01*
Y050574D01*
X028173D01*
Y050569D01*
X028169D01*
Y050564D01*
X028165D01*
Y050560D01*
X028160D01*
Y050556D01*
X028156D01*
Y050551D01*
X028151D01*
Y050546D01*
X028147D01*
Y050542D01*
X028142D01*
Y050538D01*
X028138D01*
Y050533D01*
X028133D01*
Y050528D01*
X028128D01*
Y050524D01*
X028124D01*
Y050519D01*
X028119D01*
Y050515D01*
X028115D01*
Y050511D01*
X028110D01*
Y050506D01*
X028106D01*
Y050501D01*
X028101D01*
Y050497D01*
X028097D01*
Y050493D01*
X028093D01*
Y050488D01*
X028088D01*
Y050483D01*
X028084D01*
Y050479D01*
X028079D01*
Y050475D01*
X028075D01*
Y050470D01*
X028070D01*
Y050465D01*
X028066D01*
Y050461D01*
X028061D01*
Y050457D01*
X028056D01*
Y050452D01*
X028052D01*
Y050448D01*
X028047D01*
Y050443D01*
X028043D01*
Y050438D01*
X028038D01*
Y050434D01*
X028034D01*
Y050430D01*
X028029D01*
Y050425D01*
X028025D01*
Y050420D01*
X028021D01*
Y050416D01*
X028016D01*
Y050412D01*
X028012D01*
Y050407D01*
X028007D01*
Y050402D01*
X028003D01*
Y050398D01*
X027998D01*
Y050394D01*
X027994D01*
Y050389D01*
X027989D01*
Y050384D01*
X027984D01*
Y050380D01*
X027980D01*
Y050375D01*
X027975D01*
Y050371D01*
X027971D01*
Y050367D01*
X027966D01*
Y050362D01*
X027962D01*
Y050357D01*
X027957D01*
Y050353D01*
X027953D01*
Y050349D01*
X027949D01*
Y050344D01*
X027944D01*
Y050339D01*
X027940D01*
Y050335D01*
X027935D01*
Y050331D01*
X027931D01*
Y050326D01*
X027926D01*
Y050321D01*
X027922D01*
Y050317D01*
X027917D01*
Y050312D01*
X027912D01*
Y050308D01*
X027908D01*
Y050304D01*
X027903D01*
Y050299D01*
X027899D01*
Y050294D01*
X027894D01*
Y050290D01*
X027890D01*
Y050286D01*
X027885D01*
Y050281D01*
X027881D01*
Y050276D01*
X027877D01*
Y050272D01*
X027872D01*
Y050268D01*
X027868D01*
Y050263D01*
X027863D01*
Y050258D01*
X027859D01*
Y050254D01*
X027854D01*
Y050250D01*
X027850D01*
Y050245D01*
X027845D01*
Y050241D01*
X027840D01*
Y050236D01*
X027836D01*
Y050231D01*
X027831D01*
Y050227D01*
X027827D01*
Y050223D01*
X027822D01*
Y050218D01*
X027818D01*
Y050213D01*
X027813D01*
Y050209D01*
X027809D01*
Y050205D01*
X027805D01*
Y050200D01*
X027800D01*
Y050195D01*
X027796D01*
Y050191D01*
X027791D01*
Y050187D01*
X027787D01*
Y050182D01*
X027782D01*
Y050177D01*
X027778D01*
Y050173D01*
X027773D01*
Y050168D01*
X027768D01*
Y050164D01*
X027764D01*
Y050160D01*
X027759D01*
Y050155D01*
X027755D01*
Y050150D01*
X027750D01*
Y050146D01*
X027746D01*
Y050142D01*
X027741D01*
Y050137D01*
X027737D01*
Y050132D01*
X027733D01*
Y050128D01*
X027728D01*
Y050124D01*
X027724D01*
Y050119D01*
X027719D01*
Y050114D01*
X027715D01*
Y050110D01*
X027710D01*
Y050106D01*
X027706D01*
Y050101D01*
X027701D01*
Y050097D01*
X027696D01*
Y050092D01*
X027692D01*
Y050087D01*
X027687D01*
Y050083D01*
X027683D01*
Y050079D01*
X027678D01*
Y050074D01*
X027674D01*
Y050069D01*
X027669D01*
Y050065D01*
X027665D01*
Y050061D01*
X027661D01*
Y050056D01*
X027656D01*
Y050051D01*
X027652D01*
Y050047D01*
X027647D01*
Y050043D01*
X027643D01*
Y050038D01*
X027638D01*
Y050033D01*
X027634D01*
Y050029D01*
X027624D01*
Y050213D01*
X027620D01*
Y050227D01*
X027615D01*
Y050231D01*
X027611D01*
Y050241D01*
X027606D01*
Y050245D01*
X027602D01*
Y050250D01*
X027593D01*
Y050254D01*
X027589D01*
Y050258D01*
X027575D01*
Y050263D01*
X027224D01*
Y050258D01*
X027215D01*
Y050254D01*
X027206D01*
Y050250D01*
X027201D01*
Y050245D01*
X027197D01*
Y050241D01*
X027192D01*
Y050236D01*
X027188D01*
Y050227D01*
X027183D01*
Y050218D01*
X027179D01*
Y050200D01*
X027174D01*
Y049899D01*
X027179D01*
Y049579D01*
X027174D01*
Y049570D01*
X027170D01*
Y049566D01*
X027166D01*
Y049561D01*
X027161D01*
Y049556D01*
X027157D01*
Y049552D01*
X027152D01*
Y049548D01*
X027148D01*
Y049543D01*
X027143D01*
Y049538D01*
X027139D01*
Y049534D01*
X027134D01*
Y049530D01*
X027129D01*
Y049525D01*
X027125D01*
Y049521D01*
X027120D01*
Y049516D01*
X027116D01*
Y049511D01*
X027111D01*
Y049507D01*
X027107D01*
Y049503D01*
X027102D01*
Y049498D01*
X027098D01*
Y049493D01*
X027094D01*
Y049489D01*
X027089D01*
Y049485D01*
X027085D01*
Y049480D01*
X027080D01*
Y049475D01*
X027076D01*
Y049471D01*
X027071D01*
Y049467D01*
X027067D01*
Y049462D01*
X027062D01*
Y049458D01*
X027057D01*
Y049453D01*
X027053D01*
Y049448D01*
X027048D01*
Y049444D01*
X027044D01*
Y049440D01*
X027039D01*
Y049435D01*
X027035D01*
Y049430D01*
X027030D01*
Y049426D01*
X027026D01*
Y049422D01*
X027022D01*
Y049417D01*
X027017D01*
Y049412D01*
X027013D01*
Y049408D01*
X027008D01*
Y049404D01*
X027004D01*
Y049399D01*
X026999D01*
Y049394D01*
X026995D01*
Y049390D01*
X026990D01*
Y049385D01*
X026985D01*
Y049381D01*
X026981D01*
Y049377D01*
X026976D01*
Y049372D01*
X026972D01*
Y049367D01*
X026967D01*
Y049363D01*
X026963D01*
Y049359D01*
X026958D01*
Y049354D01*
X026954D01*
Y049349D01*
X026950D01*
Y049345D01*
X026945D01*
Y049341D01*
X026941D01*
Y049336D01*
X026936D01*
Y049331D01*
X026932D01*
Y049327D01*
X026927D01*
Y049323D01*
X026923D01*
Y049318D01*
X026918D01*
Y049314D01*
X026913D01*
Y049309D01*
X026909D01*
Y049304D01*
X026904D01*
Y049300D01*
X026900D01*
Y049296D01*
X026895D01*
Y049291D01*
X026891D01*
Y049286D01*
X026886D01*
Y049282D01*
X026882D01*
Y049278D01*
X026878D01*
Y049273D01*
X026873D01*
Y049268D01*
X026869D01*
Y049264D01*
X026864D01*
Y049260D01*
X026860D01*
Y049255D01*
X026855D01*
Y049250D01*
X026851D01*
Y049246D01*
X026846D01*
Y049241D01*
X026841D01*
Y049237D01*
X026837D01*
Y049233D01*
X026832D01*
Y049228D01*
X026828D01*
Y049223D01*
X026823D01*
Y049219D01*
X026819D01*
Y049215D01*
X026814D01*
Y049210D01*
X026810D01*
Y049205D01*
X026806D01*
Y049201D01*
X026801D01*
Y049197D01*
X026797D01*
Y049192D01*
X026792D01*
Y049187D01*
X026788D01*
Y049183D01*
X026783D01*
Y049179D01*
X026779D01*
Y049174D01*
X026774D01*
Y049170D01*
X026769D01*
Y049165D01*
X026765D01*
Y049160D01*
X026760D01*
Y049156D01*
X026756D01*
Y049152D01*
X026751D01*
Y049147D01*
X026747D01*
Y049142D01*
X026742D01*
Y049138D01*
X026738D01*
Y049134D01*
X026734D01*
Y049129D01*
X026729D01*
Y049124D01*
X026725D01*
Y049120D01*
X026720D01*
Y049116D01*
X026716D01*
Y049106D01*
X026711D01*
Y049097D01*
X026707D01*
Y049053D01*
X026711D01*
Y049039D01*
X026716D01*
Y049035D01*
X026720D01*
Y049026D01*
X026725D01*
Y049021D01*
X026729D01*
Y049016D01*
X026738D01*
Y049012D01*
X026742D01*
Y049008D01*
X026756D01*
Y049003D01*
X027166D01*
Y048998D01*
X027170D01*
Y047662D01*
X027174D01*
Y047653D01*
X027179D01*
Y047644D01*
X027183D01*
Y047639D01*
X027188D01*
Y047635D01*
X027192D01*
Y047631D01*
X027197D01*
Y047626D01*
X027206D01*
Y047621D01*
X027215D01*
Y047617D01*
X028565D01*
Y047621D01*
X028561D01*
Y047626D01*
X028551D01*
Y047631D01*
X028547D01*
Y047635D01*
X028542D01*
Y047639D01*
X028538D01*
Y047644D01*
X028533D01*
Y047649D01*
X028529D01*
Y047653D01*
X028524D01*
Y047657D01*
X028520D01*
Y047662D01*
X028516D01*
Y047667D01*
X028511D01*
Y047671D01*
X028507D01*
Y047675D01*
X028502D01*
Y047680D01*
X028498D01*
Y047684D01*
X028493D01*
Y047689D01*
X028489D01*
Y047694D01*
X028484D01*
Y047698D01*
X028479D01*
Y047702D01*
X028475D01*
Y047707D01*
X028470D01*
Y047712D01*
X028466D01*
Y047716D01*
X028461D01*
Y047720D01*
X028457D01*
Y047725D01*
X028452D01*
Y047730D01*
X028448D01*
Y047734D01*
X028444D01*
Y047738D01*
X028439D01*
Y047743D01*
X028435D01*
Y047748D01*
X028430D01*
Y047752D01*
X028426D01*
Y047757D01*
X028421D01*
Y047761D01*
X028417D01*
Y047765D01*
X028412D01*
Y047770D01*
X028407D01*
Y047775D01*
X028403D01*
Y047779D01*
X028398D01*
Y047783D01*
X028394D01*
Y047788D01*
X028389D01*
Y047793D01*
X028385D01*
Y047797D01*
X028380D01*
Y047801D01*
X028376D01*
Y047806D01*
X028372D01*
Y047811D01*
X028367D01*
Y047815D01*
X028363D01*
Y047819D01*
X028358D01*
Y047824D01*
X028354D01*
Y047828D01*
X028349D01*
Y047833D01*
X028345D01*
Y047838D01*
X028340D01*
Y047842D01*
X028335D01*
Y047846D01*
X028331D01*
Y047851D01*
X028326D01*
Y047856D01*
X028322D01*
Y047860D01*
X028317D01*
Y047864D01*
X028313D01*
Y047869D01*
X028308D01*
Y047874D01*
X028304D01*
Y047878D01*
X028012D01*
Y047869D01*
X028007D01*
Y047860D01*
X028003D01*
Y047851D01*
X027998D01*
Y047846D01*
X027994D01*
Y047842D01*
X027989D01*
Y047838D01*
X027984D01*
Y047833D01*
X027980D01*
Y047828D01*
X027975D01*
Y047824D01*
X027971D01*
Y047819D01*
X027966D01*
Y047815D01*
X027957D01*
Y047811D01*
X027949D01*
Y047806D01*
X027940D01*
Y047801D01*
X027926D01*
Y047797D01*
X027894D01*
Y047793D01*
X027890D01*
Y047797D01*
X027859D01*
Y047801D01*
X027845D01*
Y047806D01*
X027836D01*
Y047811D01*
X027827D01*
Y047815D01*
X027818D01*
Y047819D01*
X027813D01*
Y047824D01*
X027805D01*
Y047828D01*
X027800D01*
Y047833D01*
X027796D01*
Y047838D01*
X027791D01*
Y047846D01*
X027787D01*
Y047851D01*
X027782D01*
Y047856D01*
X027778D01*
Y047864D01*
X027773D01*
Y047874D01*
X027768D01*
Y047887D01*
X027764D01*
Y047905D01*
X027759D01*
Y047945D01*
X027764D01*
Y047964D01*
X027768D01*
Y047977D01*
X027773D01*
Y047986D01*
X027778D01*
Y047995D01*
X027782D01*
Y048000D01*
X027787D01*
Y048008D01*
X027791D01*
Y048013D01*
X027796D01*
Y048018D01*
X027800D01*
Y048022D01*
X027805D01*
Y048026D01*
X027809D01*
Y048031D01*
X027818D01*
Y048035D01*
X027822D01*
Y048040D01*
X027831D01*
Y048045D01*
X027840D01*
Y048049D01*
X027854D01*
Y048053D01*
X027877D01*
Y048058D01*
X027908D01*
Y048053D01*
X027931D01*
Y048049D01*
X027944D01*
Y048045D01*
X027953D01*
Y048040D01*
X027962D01*
Y048035D01*
X027966D01*
Y048031D01*
X027975D01*
Y048026D01*
X027980D01*
Y048022D01*
X027984D01*
Y048018D01*
X027989D01*
Y048013D01*
X027994D01*
Y048008D01*
X027998D01*
Y048000D01*
X028003D01*
Y047995D01*
X028007D01*
Y047986D01*
X028012D01*
Y047977D01*
X028016D01*
Y047972D01*
X028340D01*
Y047968D01*
X028349D01*
Y047964D01*
X028354D01*
Y047959D01*
X028358D01*
Y047955D01*
X028363D01*
Y047950D01*
X028367D01*
Y047945D01*
X028372D01*
Y047941D01*
X028376D01*
Y047937D01*
X028380D01*
Y047932D01*
X028385D01*
Y047923D01*
X028394D01*
Y047919D01*
X028398D01*
Y047914D01*
X028403D01*
Y047909D01*
X028407D01*
Y047901D01*
X028417D01*
Y047896D01*
X028421D01*
Y047892D01*
X028426D01*
Y047887D01*
X028430D01*
Y047882D01*
X028435D01*
Y047878D01*
X028439D01*
Y047874D01*
X028444D01*
Y047869D01*
X028448D01*
Y047864D01*
X028452D01*
Y047860D01*
X028457D01*
Y047856D01*
X028461D01*
Y047851D01*
X028466D01*
Y047846D01*
X028470D01*
Y047842D01*
X028475D01*
Y047838D01*
X028479D01*
Y047833D01*
X028484D01*
Y047828D01*
X028489D01*
Y047824D01*
X028493D01*
Y047819D01*
X028498D01*
Y047815D01*
X028502D01*
Y047811D01*
X028507D01*
Y047806D01*
X028511D01*
Y047801D01*
X028516D01*
Y047797D01*
X028520D01*
Y047793D01*
X028524D01*
Y047788D01*
X028529D01*
Y047783D01*
X028533D01*
Y047779D01*
X028538D01*
Y047775D01*
X028542D01*
Y047770D01*
X028547D01*
Y047765D01*
X028551D01*
Y047761D01*
X028556D01*
Y047757D01*
X028561D01*
Y047752D01*
X028565D01*
Y047748D01*
X028570D01*
Y047743D01*
X028574D01*
Y048053D01*
X028565D01*
Y048058D01*
X028561D01*
Y048063D01*
X028556D01*
Y048067D01*
X028551D01*
Y048071D01*
X028547D01*
Y048076D01*
X028542D01*
Y048081D01*
X028538D01*
Y048085D01*
X028533D01*
Y048089D01*
X028529D01*
Y048094D01*
X028524D01*
Y048099D01*
X028520D01*
Y048103D01*
X028516D01*
Y048108D01*
X028511D01*
Y048112D01*
X028507D01*
Y048116D01*
X028502D01*
Y048121D01*
X028498D01*
Y048126D01*
X028493D01*
Y048130D01*
X028489D01*
Y048134D01*
X028484D01*
Y048139D01*
X028479D01*
Y048144D01*
X028475D01*
Y048148D01*
X028470D01*
Y048152D01*
X028466D01*
Y048157D01*
X028461D01*
Y048162D01*
X028457D01*
Y048166D01*
X028452D01*
Y048170D01*
X028448D01*
Y048175D01*
X028444D01*
Y048179D01*
X028439D01*
Y048184D01*
X028435D01*
Y048189D01*
X028430D01*
Y048193D01*
X028426D01*
Y048197D01*
X028421D01*
Y048202D01*
X028417D01*
Y048207D01*
X028412D01*
Y048211D01*
X028407D01*
Y048215D01*
X028403D01*
Y048220D01*
X028398D01*
Y048225D01*
X028394D01*
Y048229D01*
X028389D01*
Y048233D01*
X028385D01*
Y048238D01*
X028380D01*
Y048243D01*
X028376D01*
Y048247D01*
X028372D01*
Y048252D01*
X028367D01*
Y048256D01*
X028363D01*
Y048260D01*
X028358D01*
Y048265D01*
X028354D01*
Y048270D01*
X028349D01*
Y048274D01*
X028345D01*
Y048278D01*
X028340D01*
Y048283D01*
X028335D01*
Y048288D01*
X028331D01*
Y048292D01*
X028326D01*
Y048296D01*
X028322D01*
Y048301D01*
X028317D01*
Y048306D01*
X028313D01*
Y048310D01*
X028308D01*
Y048314D01*
X028304D01*
Y048319D01*
X028300D01*
Y048323D01*
X028295D01*
Y048328D01*
X028291D01*
Y048333D01*
X028286D01*
Y048337D01*
X028282D01*
Y048341D01*
X028277D01*
Y048346D01*
X028273D01*
Y048351D01*
X027764D01*
Y048341D01*
X027759D01*
Y048333D01*
X027755D01*
Y048323D01*
X027750D01*
Y048319D01*
X027746D01*
Y048314D01*
X027741D01*
Y048310D01*
X027737D01*
Y048306D01*
X027733D01*
Y048301D01*
X027728D01*
Y048296D01*
X027724D01*
Y048292D01*
X027715D01*
Y048288D01*
X027710D01*
Y048283D01*
X027701D01*
Y048278D01*
X027687D01*
Y048274D01*
X027674D01*
Y048270D01*
X027615D01*
Y048274D01*
X027602D01*
Y048278D01*
X027589D01*
Y048283D01*
X027580D01*
Y048288D01*
X027571D01*
Y048292D01*
X027566D01*
Y048296D01*
X027562D01*
Y048301D01*
X027552D01*
Y048306D01*
X027548D01*
Y048314D01*
X027543D01*
Y048319D01*
X027539D01*
Y048323D01*
X027534D01*
Y048333D01*
X027530D01*
Y048337D01*
X027525D01*
Y048351D01*
X027521D01*
Y048359D01*
X027517D01*
Y048377D01*
X027512D01*
Y048418D01*
X027517D01*
Y048436D01*
X027521D01*
Y048450D01*
X027525D01*
Y048458D01*
X027530D01*
Y048467D01*
X027534D01*
Y048472D01*
X027539D01*
Y048481D01*
X027543D01*
Y048485D01*
X027548D01*
Y048490D01*
X027552D01*
Y048495D01*
X027557D01*
Y048499D01*
X027562D01*
Y048503D01*
X027571D01*
Y048508D01*
X027575D01*
Y048513D01*
X027584D01*
Y048517D01*
X027593D01*
Y048521D01*
X027606D01*
Y048526D01*
X027624D01*
Y048531D01*
X027669D01*
Y048526D01*
X027687D01*
Y048521D01*
X027696D01*
Y048517D01*
X027706D01*
Y048513D01*
X027715D01*
Y048508D01*
X027724D01*
Y048503D01*
X027728D01*
Y048499D01*
X027733D01*
Y048495D01*
X027737D01*
Y048490D01*
X027741D01*
Y048485D01*
X027746D01*
Y048481D01*
X027750D01*
Y048472D01*
X027755D01*
Y048467D01*
X027759D01*
Y048458D01*
X027764D01*
Y048450D01*
X027768D01*
Y048445D01*
X028169D01*
Y048454D01*
X028165D01*
Y048458D01*
X028160D01*
Y048463D01*
X028156D01*
Y048467D01*
X028151D01*
Y048472D01*
X028147D01*
Y048477D01*
X028142D01*
Y048481D01*
X028138D01*
Y048485D01*
X028133D01*
Y048490D01*
X028124D01*
Y048495D01*
X028119D01*
Y048503D01*
X028115D01*
Y048508D01*
X028110D01*
Y048513D01*
X028101D01*
Y048517D01*
X028097D01*
Y048526D01*
X028093D01*
Y048531D01*
X028088D01*
Y048535D01*
X028084D01*
Y048540D01*
X028075D01*
Y048544D01*
X028070D01*
Y048553D01*
X028066D01*
Y048558D01*
X028061D01*
Y048562D01*
X028052D01*
Y048566D01*
X028047D01*
Y048576D01*
X028043D01*
Y048580D01*
X028038D01*
Y048584D01*
X028029D01*
Y048589D01*
X028025D01*
Y048598D01*
X028021D01*
Y048602D01*
X028016D01*
Y048607D01*
X028012D01*
Y048611D01*
X028003D01*
Y048616D01*
X027998D01*
Y048621D01*
X027994D01*
Y048625D01*
X027989D01*
Y048629D01*
X027984D01*
Y048634D01*
X027980D01*
Y048639D01*
X027975D01*
Y048643D01*
X027971D01*
Y048647D01*
X027966D01*
Y048652D01*
X027962D01*
Y048657D01*
X027957D01*
Y048661D01*
X027953D01*
Y048665D01*
X027949D01*
Y048670D01*
X027944D01*
Y048675D01*
X027940D01*
Y048679D01*
X027935D01*
Y048684D01*
X027931D01*
Y048688D01*
X027926D01*
Y048692D01*
X027922D01*
Y048697D01*
X027917D01*
Y048702D01*
X027912D01*
Y048706D01*
X027908D01*
Y048710D01*
X027903D01*
Y048720D01*
X027899D01*
Y048990D01*
X027894D01*
Y048994D01*
X027890D01*
Y048998D01*
X027885D01*
Y049003D01*
X027881D01*
Y049008D01*
X027877D01*
Y049012D01*
X027872D01*
Y049016D01*
X027868D01*
Y049021D01*
X027863D01*
Y049026D01*
X027859D01*
Y049030D01*
X027854D01*
Y049035D01*
X027850D01*
Y049039D01*
X027845D01*
Y049043D01*
X027840D01*
Y049048D01*
X027836D01*
Y049053D01*
X027831D01*
Y049057D01*
X027827D01*
Y049061D01*
X027822D01*
Y049066D01*
X027818D01*
Y049071D01*
X027813D01*
Y049075D01*
X027809D01*
Y049079D01*
X027805D01*
Y049084D01*
X027800D01*
Y049089D01*
X027796D01*
Y049093D01*
X027791D01*
Y049097D01*
X027787D01*
Y049102D01*
X027782D01*
Y049106D01*
X027778D01*
Y049111D01*
X027773D01*
Y049116D01*
X027768D01*
Y049120D01*
X027764D01*
Y049124D01*
X027759D01*
Y049129D01*
X027755D01*
Y049134D01*
X027750D01*
Y049138D01*
X027746D01*
Y049142D01*
X027741D01*
Y049147D01*
X027737D01*
Y049152D01*
X027733D01*
Y049156D01*
X027728D01*
Y049160D01*
X027724D01*
Y049165D01*
X027719D01*
Y049170D01*
X027715D01*
Y049174D01*
X027710D01*
Y049179D01*
X027706D01*
Y049183D01*
X027696D01*
Y049179D01*
X027678D01*
Y049174D01*
X027620D01*
Y049179D01*
X027602D01*
Y049183D01*
X027593D01*
Y049187D01*
X027584D01*
Y049192D01*
X027575D01*
Y049197D01*
X027571D01*
Y049201D01*
X027566D01*
Y049205D01*
X027557D01*
Y049210D01*
X027552D01*
Y049215D01*
X027548D01*
Y049223D01*
X027543D01*
Y049228D01*
X027539D01*
Y049233D01*
X027534D01*
Y049241D01*
X027530D01*
Y049250D01*
X027525D01*
Y049264D01*
X027521D01*
Y049282D01*
X027517D01*
Y049327D01*
X027521D01*
Y049345D01*
X027525D01*
Y049354D01*
X027530D01*
Y049363D01*
X027534D01*
Y049372D01*
X027539D01*
Y049381D01*
X027543D01*
Y049385D01*
X027548D01*
Y049390D01*
X027552D01*
Y049394D01*
X027557D01*
Y049399D01*
X027562D01*
Y049404D01*
X027566D01*
Y049408D01*
X027575D01*
Y049412D01*
X027580D01*
Y049417D01*
X027589D01*
Y049422D01*
X027597D01*
Y049426D01*
X027611D01*
Y049430D01*
X027629D01*
Y049435D01*
X027669D01*
Y049430D01*
X027687D01*
Y049426D01*
X027696D01*
Y049422D01*
X027710D01*
Y049417D01*
X027715D01*
Y049412D01*
X027724D01*
Y049408D01*
X027728D01*
Y049404D01*
X027737D01*
Y049399D01*
X027741D01*
Y049394D01*
X027746D01*
Y049390D01*
X027750D01*
Y049381D01*
X027755D01*
Y049377D01*
X027759D01*
Y049367D01*
X027764D01*
Y049359D01*
X027768D01*
Y049349D01*
X027773D01*
Y049336D01*
X027778D01*
Y049268D01*
X027773D01*
Y049255D01*
X027768D01*
Y049246D01*
X027773D01*
Y049241D01*
X027778D01*
Y049237D01*
X027782D01*
Y049233D01*
X027787D01*
Y049228D01*
X027791D01*
Y049223D01*
X027796D01*
Y049219D01*
X027800D01*
Y049215D01*
X027805D01*
Y049210D01*
X027809D01*
Y049205D01*
X027813D01*
Y049201D01*
X027818D01*
Y049197D01*
X027822D01*
Y049192D01*
X027827D01*
Y049187D01*
X027831D01*
Y049183D01*
X027836D01*
Y049179D01*
X027840D01*
Y049174D01*
X027845D01*
Y049170D01*
X027850D01*
Y049165D01*
X027854D01*
Y049160D01*
X027859D01*
Y049156D01*
X027863D01*
Y049152D01*
X027868D01*
Y049147D01*
X027872D01*
Y049142D01*
X027877D01*
Y049138D01*
X027881D01*
Y049134D01*
X027885D01*
Y049129D01*
X027890D01*
Y049124D01*
X027899D01*
Y049552D01*
X027890D01*
Y049556D01*
X027881D01*
Y049561D01*
X027877D01*
Y049566D01*
X027868D01*
Y049570D01*
X027863D01*
Y049574D01*
X027859D01*
Y049579D01*
X027854D01*
Y049584D01*
X027850D01*
Y049588D01*
X027845D01*
Y049592D01*
X027840D01*
Y049601D01*
X027836D01*
Y049606D01*
X027831D01*
Y049619D01*
X027827D01*
Y049629D01*
X027822D01*
Y049647D01*
X027818D01*
Y049692D01*
X027822D01*
Y049710D01*
X027827D01*
Y049718D01*
X027831D01*
Y049728D01*
X027836D01*
Y049736D01*
X027840D01*
Y049745D01*
X027845D01*
Y049750D01*
X027850D01*
Y049755D01*
X027854D01*
Y049759D01*
X027859D01*
Y049763D01*
X027863D01*
Y049768D01*
X027868D01*
Y049773D01*
X027872D01*
Y049777D01*
X027881D01*
Y049781D01*
X027885D01*
Y049786D01*
X027894D01*
Y049791D01*
X027908D01*
Y049795D01*
X027926D01*
Y049799D01*
X027975D01*
Y049795D01*
X027994D01*
Y049791D01*
X028003D01*
Y049786D01*
X028012D01*
Y049781D01*
X028021D01*
Y049777D01*
X028025D01*
Y049773D01*
X028034D01*
Y049768D01*
X028038D01*
Y049763D01*
X028043D01*
Y049759D01*
X028047D01*
Y049755D01*
X028052D01*
Y049750D01*
X028056D01*
Y049741D01*
X028061D01*
Y049732D01*
X028066D01*
Y049728D01*
X028070D01*
Y049714D01*
X028075D01*
Y049700D01*
X028079D01*
Y049637D01*
X028075D01*
Y049624D01*
X028070D01*
Y049611D01*
X028066D01*
Y049606D01*
X028061D01*
Y049597D01*
X028056D01*
Y049592D01*
X028052D01*
Y049588D01*
X028047D01*
Y049579D01*
X028043D01*
Y049574D01*
X028034D01*
Y049570D01*
X028029D01*
Y049566D01*
X028025D01*
Y049561D01*
X028016D01*
Y049556D01*
X028012D01*
Y049552D01*
X028003D01*
Y049548D01*
X027998D01*
Y049124D01*
X028007D01*
Y049129D01*
X028012D01*
Y049134D01*
X028016D01*
Y049138D01*
X028021D01*
Y049142D01*
X028025D01*
Y049147D01*
X028029D01*
Y049156D01*
X028034D01*
Y049160D01*
X028038D01*
Y049165D01*
X028043D01*
Y049170D01*
X028047D01*
Y049174D01*
X028052D01*
Y049179D01*
X028056D01*
Y049183D01*
X028061D01*
Y049187D01*
X028066D01*
Y049192D01*
X028070D01*
Y049197D01*
X028075D01*
Y049201D01*
X028079D01*
Y049205D01*
X028084D01*
Y049210D01*
X028088D01*
Y049219D01*
X028093D01*
Y049223D01*
X028097D01*
Y049228D01*
X028101D01*
Y049233D01*
X028106D01*
Y049237D01*
X028110D01*
Y049241D01*
X028115D01*
Y049246D01*
X028119D01*
Y049250D01*
X028124D01*
Y049255D01*
X028119D01*
Y049268D01*
X028115D01*
Y049286D01*
X028110D01*
Y049331D01*
X028115D01*
Y049349D01*
X028119D01*
Y049363D01*
X028124D01*
Y049372D01*
X028128D01*
Y049377D01*
X028133D01*
Y049381D01*
X028138D01*
Y049390D01*
X028142D01*
Y049394D01*
X028147D01*
Y049399D01*
X028151D01*
Y049404D01*
X028156D01*
Y049408D01*
X028165D01*
Y049412D01*
X028169D01*
Y049417D01*
X028178D01*
Y049422D01*
X028182D01*
Y049426D01*
X028196D01*
Y049430D01*
X028210D01*
Y049435D01*
X028228D01*
Y049440D01*
X028259D01*
Y049435D01*
X028282D01*
Y049430D01*
X028291D01*
Y049426D01*
X028304D01*
Y049422D01*
X028313D01*
Y049417D01*
X028317D01*
Y049412D01*
X028326D01*
Y049408D01*
X028331D01*
Y049404D01*
X028335D01*
Y049399D01*
X028340D01*
Y049394D01*
X028345D01*
Y049390D01*
X028349D01*
Y049381D01*
X028354D01*
Y049377D01*
X028358D01*
Y049367D01*
X028363D01*
Y049359D01*
X028367D01*
Y049345D01*
X028372D01*
Y049323D01*
X028376D01*
Y049291D01*
X028372D01*
Y049273D01*
X028367D01*
Y049260D01*
X028363D01*
Y049250D01*
X028358D01*
Y049241D01*
X028354D01*
Y049233D01*
X028349D01*
Y049228D01*
X028345D01*
Y049223D01*
X028340D01*
Y049215D01*
X028335D01*
Y049210D01*
X028326D01*
Y049205D01*
X028322D01*
Y049201D01*
X028317D01*
Y049197D01*
X028308D01*
Y049192D01*
X028300D01*
Y049187D01*
X028291D01*
Y049183D01*
X028277D01*
Y049179D01*
X028210D01*
Y049183D01*
X028196D01*
Y049187D01*
X028187D01*
Y049183D01*
X028182D01*
Y049179D01*
X028178D01*
Y049174D01*
X028173D01*
Y049170D01*
X028169D01*
Y049165D01*
X028165D01*
Y049160D01*
X028160D01*
Y049156D01*
X028156D01*
Y049152D01*
X028151D01*
Y049147D01*
X028147D01*
Y049142D01*
X028142D01*
Y049138D01*
X028138D01*
Y049134D01*
X028133D01*
Y049129D01*
X028128D01*
Y049124D01*
X028124D01*
Y049120D01*
X028119D01*
Y049116D01*
X028115D01*
Y049111D01*
X028110D01*
Y049106D01*
X028106D01*
Y049102D01*
X028101D01*
Y049097D01*
X028097D01*
Y049093D01*
X028093D01*
Y049089D01*
X028088D01*
Y049084D01*
X028084D01*
Y049079D01*
X028079D01*
Y049075D01*
X028075D01*
Y049071D01*
X028070D01*
Y049066D01*
X028066D01*
Y049061D01*
X028061D01*
Y049057D01*
X028056D01*
Y049053D01*
X028052D01*
Y049048D01*
X028047D01*
Y049043D01*
X028043D01*
Y049039D01*
X028038D01*
Y049035D01*
X028034D01*
Y049030D01*
X028029D01*
Y049026D01*
X028025D01*
Y049021D01*
X028021D01*
Y049016D01*
X028016D01*
Y049012D01*
X028012D01*
Y049008D01*
X028007D01*
Y049003D01*
X028003D01*
Y048998D01*
X027998D01*
Y048994D01*
X027994D01*
Y048755D01*
X027998D01*
Y048751D01*
X028003D01*
Y048747D01*
X028007D01*
Y048742D01*
X028012D01*
Y048738D01*
X028016D01*
Y048733D01*
X028021D01*
Y048728D01*
X028025D01*
Y048724D01*
X028029D01*
Y048720D01*
X028034D01*
Y048715D01*
X028038D01*
Y048710D01*
X028043D01*
Y048706D01*
X028047D01*
Y048702D01*
X028052D01*
Y048697D01*
X028056D01*
Y048692D01*
X028061D01*
Y048688D01*
X028066D01*
Y048684D01*
X028070D01*
Y048679D01*
X028075D01*
Y048675D01*
X028079D01*
Y048670D01*
X028084D01*
Y048665D01*
X028088D01*
Y048661D01*
X028093D01*
Y048657D01*
X028097D01*
Y048652D01*
X028101D01*
Y048647D01*
X028106D01*
Y048643D01*
X028110D01*
Y048639D01*
X028115D01*
Y048634D01*
X028119D01*
Y048629D01*
X028124D01*
Y048625D01*
X028128D01*
Y048621D01*
X028133D01*
Y048616D01*
X028138D01*
Y048611D01*
X028142D01*
Y048607D01*
X028147D01*
Y048602D01*
X028151D01*
Y048598D01*
X028156D01*
Y048594D01*
X028160D01*
Y048589D01*
X028165D01*
Y048584D01*
X028169D01*
Y048580D01*
X028173D01*
Y048576D01*
X028178D01*
Y048571D01*
X028182D01*
Y048566D01*
X028187D01*
Y048562D01*
X028191D01*
Y048558D01*
X028196D01*
Y048553D01*
X028201D01*
Y048548D01*
X028205D01*
Y048544D01*
X028210D01*
Y048540D01*
X028214D01*
Y048535D01*
X028219D01*
Y048531D01*
X028223D01*
Y048526D01*
X028228D01*
Y048521D01*
X028232D01*
Y048517D01*
X028236D01*
Y048513D01*
X028241D01*
Y048508D01*
X028245D01*
Y048503D01*
X028250D01*
Y048710D01*
X028241D01*
Y048715D01*
X028232D01*
Y048720D01*
X028223D01*
Y048724D01*
X028219D01*
Y048728D01*
X028214D01*
Y048733D01*
X028205D01*
Y048738D01*
X028201D01*
Y048747D01*
X028196D01*
Y048751D01*
X028191D01*
Y048755D01*
X028187D01*
Y048765D01*
X028182D01*
Y048773D01*
X028178D01*
Y048783D01*
X028173D01*
Y048796D01*
X028169D01*
Y048818D01*
X028165D01*
Y048841D01*
X028169D01*
Y048864D01*
X028173D01*
Y048877D01*
X028178D01*
Y048891D01*
X028182D01*
Y048895D01*
X028187D01*
Y048904D01*
X028191D01*
Y048909D01*
X028196D01*
Y048917D01*
X028201D01*
Y048922D01*
X028205D01*
Y048927D01*
X028210D01*
Y048931D01*
X028219D01*
Y048935D01*
X028223D01*
Y048940D01*
X028232D01*
Y048945D01*
X028241D01*
Y048949D01*
X028250D01*
Y048953D01*
X028263D01*
Y048958D01*
X028282D01*
Y048962D01*
X028313D01*
Y048958D01*
X028335D01*
Y048953D01*
X028345D01*
Y048949D01*
X028358D01*
Y048945D01*
X028363D01*
Y048940D01*
X028372D01*
Y048935D01*
X028376D01*
Y048931D01*
X028385D01*
Y048927D01*
X028389D01*
Y048922D01*
X028394D01*
Y048917D01*
X028398D01*
Y048913D01*
X028403D01*
Y048904D01*
X028407D01*
Y048899D01*
X028412D01*
Y048891D01*
X028417D01*
Y048882D01*
X028421D01*
Y048868D01*
X028426D01*
Y048850D01*
X028430D01*
Y048809D01*
X028426D01*
Y048791D01*
X028421D01*
Y048778D01*
X028417D01*
Y048769D01*
X028412D01*
Y048760D01*
X028407D01*
Y048755D01*
X028403D01*
Y048747D01*
X028398D01*
Y048742D01*
X028394D01*
Y048738D01*
X028389D01*
Y048733D01*
X028385D01*
Y048728D01*
X028380D01*
Y048724D01*
X028372D01*
Y048720D01*
X028367D01*
Y048715D01*
X028358D01*
Y048710D01*
X028349D01*
Y048706D01*
X028345D01*
Y048404D01*
X028349D01*
Y048400D01*
X028354D01*
Y048396D01*
X028358D01*
Y048391D01*
X028363D01*
Y048387D01*
X028367D01*
Y048382D01*
X028372D01*
Y048377D01*
X028376D01*
Y048373D01*
X028380D01*
Y048369D01*
X028385D01*
Y048364D01*
X028389D01*
Y048359D01*
X028394D01*
Y048355D01*
X028398D01*
Y048351D01*
X028403D01*
Y048346D01*
X028407D01*
Y048341D01*
X028412D01*
Y048337D01*
X028417D01*
Y048333D01*
X028421D01*
Y048328D01*
X028426D01*
Y048323D01*
X028430D01*
Y048319D01*
X028435D01*
Y048314D01*
X028439D01*
Y048310D01*
X028444D01*
Y048306D01*
X028448D01*
Y048301D01*
X028452D01*
Y048296D01*
X028457D01*
Y048292D01*
X028461D01*
Y048288D01*
X028466D01*
Y048283D01*
X028470D01*
Y048278D01*
X028475D01*
Y048274D01*
X028479D01*
Y048270D01*
X028484D01*
Y048265D01*
X028489D01*
Y048260D01*
X028493D01*
Y048256D01*
X028498D01*
Y048252D01*
X028502D01*
Y048247D01*
X028507D01*
Y048243D01*
X028511D01*
Y048238D01*
X028516D01*
Y048233D01*
X028520D01*
Y048229D01*
X028524D01*
Y048225D01*
X028529D01*
Y048220D01*
X028533D01*
Y048215D01*
X028538D01*
Y048211D01*
X028542D01*
Y048207D01*
X028547D01*
Y048202D01*
X028551D01*
Y048197D01*
X028556D01*
Y048193D01*
X028561D01*
Y048189D01*
X028565D01*
Y048184D01*
X028574D01*
Y049570D01*
X028570D01*
Y049579D01*
X028565D01*
Y049584D01*
X028561D01*
Y049588D01*
X028556D01*
Y049592D01*
X028551D01*
Y049597D01*
X028547D01*
Y049601D01*
X028542D01*
Y049606D01*
X028538D01*
Y049611D01*
X028533D01*
Y049615D01*
X028529D01*
Y049619D01*
X028524D01*
Y049624D01*
X028520D01*
Y049629D01*
X028516D01*
Y049633D01*
X028511D01*
Y049637D01*
X028507D01*
Y049642D01*
X028502D01*
Y049647D01*
X028498D01*
Y049651D01*
X028493D01*
Y049655D01*
X028484D01*
Y049660D01*
X028479D01*
Y049669D01*
X028475D01*
Y049674D01*
X028470D01*
Y049678D01*
X028466D01*
Y049682D01*
X028457D01*
Y049687D01*
X028452D01*
Y049696D01*
X028448D01*
Y049700D01*
X028444D01*
Y049705D01*
X028435D01*
Y049710D01*
X028430D01*
Y049718D01*
X028426D01*
Y049723D01*
X028421D01*
Y049728D01*
X028412D01*
Y049732D01*
X028407D01*
Y049741D01*
X028403D01*
Y049745D01*
X028398D01*
Y049750D01*
X028394D01*
Y049755D01*
X028385D01*
Y049763D01*
X028380D01*
Y049768D01*
X028367D01*
Y049763D01*
X028354D01*
Y049759D01*
X028291D01*
Y049763D01*
X028277D01*
Y049768D01*
X028263D01*
Y049773D01*
X028254D01*
Y049777D01*
X028250D01*
Y049781D01*
X028241D01*
Y049786D01*
X028236D01*
Y049791D01*
X028232D01*
Y049795D01*
X028228D01*
Y049799D01*
X028223D01*
Y049804D01*
X028219D01*
Y049809D01*
X028214D01*
Y049818D01*
X028210D01*
Y049822D01*
X028205D01*
Y049831D01*
X028201D01*
Y049840D01*
X028196D01*
Y049854D01*
X028191D01*
Y049921D01*
X028196D01*
Y049935D01*
X028201D01*
Y049943D01*
X028205D01*
Y049953D01*
X028210D01*
Y049962D01*
X028214D01*
Y049966D01*
X028219D01*
Y049970D01*
X028223D01*
Y049980D01*
X028228D01*
Y049984D01*
X028232D01*
Y049988D01*
X028241D01*
Y049993D01*
X028245D01*
Y049998D01*
X028254D01*
Y050002D01*
X028259D01*
Y050006D01*
X028268D01*
Y050011D01*
X028282D01*
Y050016D01*
X028304D01*
Y050020D01*
X028335D01*
Y050016D01*
X028358D01*
Y050011D01*
X028372D01*
Y050006D01*
X028380D01*
Y050002D01*
X028389D01*
Y049998D01*
X028394D01*
Y049993D01*
X028403D01*
Y049988D01*
X028407D01*
Y049984D01*
X028412D01*
Y049980D01*
X028417D01*
Y049975D01*
X028421D01*
Y049970D01*
X028426D01*
Y049966D01*
X028430D01*
Y049957D01*
X028435D01*
Y049948D01*
X028439D01*
Y049939D01*
X028444D01*
Y049925D01*
X028448D01*
Y049912D01*
X028452D01*
Y049862D01*
X028448D01*
Y049849D01*
X028444D01*
Y049831D01*
X028448D01*
Y049826D01*
X028452D01*
Y049822D01*
X028457D01*
Y049818D01*
X028461D01*
Y049813D01*
X028466D01*
Y049809D01*
X028470D01*
Y049804D01*
X028475D01*
Y049799D01*
X028479D01*
Y049795D01*
X028484D01*
Y049791D01*
X028489D01*
Y049786D01*
X028493D01*
Y049781D01*
X028498D01*
Y049777D01*
X028502D01*
Y049773D01*
X028507D01*
Y049768D01*
X028511D01*
Y049763D01*
X028516D01*
Y049759D01*
X028520D01*
Y049755D01*
X028524D01*
Y049750D01*
X028529D01*
Y049745D01*
X028533D01*
Y049741D01*
X028538D01*
Y049736D01*
X028542D01*
Y049732D01*
X028547D01*
Y049728D01*
X028551D01*
Y049723D01*
X028556D01*
Y049718D01*
X028561D01*
Y049714D01*
X028565D01*
Y049710D01*
X028570D01*
Y049705D01*
X028574D01*
Y049700D01*
X028579D01*
Y049696D01*
X028583D01*
Y049692D01*
X028588D01*
Y049687D01*
X028592D01*
Y049682D01*
X028596D01*
Y049678D01*
X028601D01*
Y049674D01*
X028605D01*
Y049669D01*
X028610D01*
Y049665D01*
X028614D01*
Y049660D01*
X028619D01*
Y049655D01*
X028628D01*
Y049660D01*
X028633D01*
Y049665D01*
X028637D01*
Y049669D01*
X028642D01*
Y049674D01*
X028646D01*
Y049678D01*
X028651D01*
Y049682D01*
X028655D01*
Y049687D01*
X028660D01*
Y049692D01*
X028664D01*
Y049696D01*
X028668D01*
Y049700D01*
X028673D01*
Y049705D01*
X028677D01*
Y049710D01*
X028682D01*
Y049714D01*
X028686D01*
Y049718D01*
X028691D01*
Y049723D01*
X028695D01*
Y049728D01*
X028700D01*
Y049732D01*
X028705D01*
Y049736D01*
X028709D01*
Y049741D01*
X028714D01*
Y049745D01*
X028718D01*
Y049750D01*
X028723D01*
Y049755D01*
X028727D01*
Y049759D01*
X028732D01*
Y049763D01*
X028736D01*
Y049768D01*
X028740D01*
Y049773D01*
X028745D01*
Y049777D01*
X028749D01*
Y049781D01*
X028754D01*
Y049786D01*
X028758D01*
Y049791D01*
X028763D01*
Y049795D01*
X028767D01*
Y049799D01*
X028772D01*
Y049804D01*
X028777D01*
Y049809D01*
X028781D01*
Y049813D01*
X028786D01*
Y049818D01*
X028790D01*
Y049822D01*
X028795D01*
Y049826D01*
X028799D01*
Y049831D01*
X028804D01*
Y049840D01*
X028799D01*
Y049854D01*
X028795D01*
Y049876D01*
X028790D01*
Y049907D01*
X028795D01*
Y049925D01*
X028799D01*
Y049939D01*
X028804D01*
Y049948D01*
X028808D01*
Y049957D01*
X028812D01*
Y049962D01*
X028817D01*
Y049970D01*
X028821D01*
Y049975D01*
X028826D01*
Y049980D01*
X028830D01*
Y049984D01*
X028835D01*
Y049988D01*
X028844D01*
Y049993D01*
X028849D01*
Y049998D01*
X028858D01*
Y050002D01*
X028862D01*
Y050006D01*
X028876D01*
Y050011D01*
X028884D01*
Y050016D01*
X028907D01*
Y050020D01*
X028939D01*
Y050016D01*
X028961D01*
Y050011D01*
X028974D01*
Y050006D01*
X028984D01*
Y050002D01*
X028993D01*
Y049998D01*
X028997D01*
Y049993D01*
X029006D01*
Y049988D01*
X029011D01*
Y049984D01*
X029015D01*
Y049980D01*
X029019D01*
Y049975D01*
X029024D01*
Y049970D01*
X029028D01*
Y049962D01*
X029033D01*
Y049957D01*
X029037D01*
Y049948D01*
X029042D01*
Y049939D01*
X029046D01*
Y049925D01*
X029051D01*
Y049907D01*
X029056D01*
Y049867D01*
X029051D01*
Y049849D01*
X029046D01*
Y049836D01*
X029042D01*
Y049826D01*
X029037D01*
Y049822D01*
X029033D01*
Y049813D01*
X029028D01*
Y049809D01*
X029024D01*
Y049799D01*
X029019D01*
Y049795D01*
X029015D01*
Y049791D01*
X029006D01*
Y049786D01*
X029002D01*
Y049781D01*
X028997D01*
Y049777D01*
X028988D01*
Y049773D01*
X028979D01*
Y049768D01*
X028970D01*
Y049763D01*
X028952D01*
Y049759D01*
X028893D01*
Y049763D01*
X028880D01*
Y049768D01*
X028867D01*
Y049763D01*
X028862D01*
Y049759D01*
X028858D01*
Y049755D01*
X028853D01*
Y049750D01*
X028849D01*
Y049745D01*
X028844D01*
Y049741D01*
X028839D01*
Y049736D01*
X028835D01*
Y049732D01*
X028830D01*
Y049728D01*
X028826D01*
Y049723D01*
X028821D01*
Y049718D01*
X028817D01*
Y049714D01*
X028812D01*
Y049710D01*
X028808D01*
Y049705D01*
X028804D01*
Y049700D01*
X028799D01*
Y049696D01*
X028795D01*
Y049692D01*
X028790D01*
Y049687D01*
X028786D01*
Y049682D01*
X028781D01*
Y049678D01*
X028777D01*
Y049674D01*
X028772D01*
Y049669D01*
X028767D01*
Y049665D01*
X028763D01*
Y049660D01*
X028758D01*
Y049655D01*
X028754D01*
Y049651D01*
X028749D01*
Y049647D01*
X028745D01*
Y049642D01*
X028740D01*
Y049637D01*
X028736D01*
Y049633D01*
X028732D01*
Y049629D01*
X028727D01*
Y049624D01*
X028723D01*
Y049619D01*
X028718D01*
Y049615D01*
X028714D01*
Y049611D01*
X028709D01*
Y049606D01*
X028705D01*
Y049601D01*
X028700D01*
Y049597D01*
X028695D01*
Y049592D01*
X028691D01*
Y049588D01*
X028686D01*
Y049584D01*
X028682D01*
Y049579D01*
X028677D01*
Y049574D01*
X028673D01*
Y048594D01*
X028682D01*
Y048598D01*
X028686D01*
Y048602D01*
X028691D01*
Y048607D01*
X028695D01*
Y048611D01*
X028700D01*
Y048616D01*
X028705D01*
Y048621D01*
X028709D01*
Y048625D01*
X028714D01*
Y048629D01*
X028718D01*
Y048634D01*
X028723D01*
Y048639D01*
X028727D01*
Y048643D01*
X028732D01*
Y048647D01*
X028736D01*
Y048652D01*
X028740D01*
Y048657D01*
X028745D01*
Y048661D01*
X028749D01*
Y048665D01*
X028754D01*
Y048670D01*
X028758D01*
Y048675D01*
X028763D01*
Y048679D01*
X028767D01*
Y048684D01*
X028772D01*
Y048688D01*
X028777D01*
Y048692D01*
X028781D01*
Y048697D01*
X028786D01*
Y048702D01*
X028790D01*
Y048706D01*
X028795D01*
Y048710D01*
X028799D01*
Y048715D01*
X028804D01*
Y048720D01*
X028808D01*
Y048724D01*
X028812D01*
Y048728D01*
X028817D01*
Y048733D01*
X028821D01*
Y048738D01*
X028826D01*
Y048742D01*
X028830D01*
Y048747D01*
X028835D01*
Y048751D01*
X028839D01*
Y048755D01*
X028844D01*
Y048760D01*
X028849D01*
Y048765D01*
X028853D01*
Y048769D01*
X028858D01*
Y048773D01*
X028862D01*
Y048778D01*
X028867D01*
Y048783D01*
X028871D01*
Y048787D01*
X028876D01*
Y048791D01*
X028880D01*
Y048796D01*
X028884D01*
Y048801D01*
X028889D01*
Y048805D01*
X028893D01*
Y048809D01*
X028898D01*
Y048814D01*
X028902D01*
Y048818D01*
X028907D01*
Y048823D01*
X028911D01*
Y048828D01*
X028916D01*
Y048832D01*
X028921D01*
Y048836D01*
X028925D01*
Y048841D01*
X028930D01*
Y048846D01*
X028934D01*
Y048850D01*
X028939D01*
Y048854D01*
X028943D01*
Y048859D01*
X028948D01*
Y048864D01*
X028952D01*
Y048868D01*
X028956D01*
Y048872D01*
X028961D01*
Y048877D01*
X028965D01*
Y048882D01*
X028970D01*
Y048886D01*
X028974D01*
Y048891D01*
X028979D01*
Y048895D01*
X028984D01*
Y048899D01*
X028988D01*
Y048904D01*
X028993D01*
Y048909D01*
X028997D01*
Y048913D01*
X029002D01*
Y048917D01*
X029006D01*
Y048922D01*
X029011D01*
Y049201D01*
X029006D01*
Y049205D01*
X029002D01*
Y049210D01*
X028993D01*
Y049215D01*
X028984D01*
Y049219D01*
X028979D01*
Y049223D01*
X028970D01*
Y049228D01*
X028965D01*
Y049233D01*
X028961D01*
Y049237D01*
X028956D01*
Y049241D01*
X028952D01*
Y049250D01*
X028948D01*
Y049255D01*
X028943D01*
Y049264D01*
X028939D01*
Y049273D01*
X028934D01*
Y049282D01*
X028930D01*
Y049300D01*
X028925D01*
Y049354D01*
X028930D01*
Y049372D01*
X028934D01*
Y049381D01*
X028939D01*
Y049390D01*
X028943D01*
Y049399D01*
X028948D01*
Y049404D01*
X028952D01*
Y049408D01*
X028956D01*
Y049417D01*
X028961D01*
Y049422D01*
X028970D01*
Y049426D01*
X028974D01*
Y049430D01*
X028979D01*
Y049435D01*
X028988D01*
Y049440D01*
X028993D01*
Y049444D01*
X029002D01*
Y049448D01*
X029015D01*
Y049453D01*
X029033D01*
Y049458D01*
X029078D01*
Y049453D01*
X029096D01*
Y049448D01*
X029105D01*
Y049444D01*
X029118D01*
Y049440D01*
X029123D01*
Y049435D01*
X029132D01*
Y049430D01*
X029137D01*
Y049426D01*
X029141D01*
Y049422D01*
X029146D01*
Y049417D01*
X029150D01*
Y049412D01*
X029155D01*
Y049408D01*
X029159D01*
Y049404D01*
X029163D01*
Y049394D01*
X029168D01*
Y049390D01*
X029172D01*
Y049381D01*
X029177D01*
Y049367D01*
X029181D01*
Y049354D01*
X029186D01*
Y049300D01*
X029181D01*
Y049282D01*
X029177D01*
Y049273D01*
X029172D01*
Y049264D01*
X029168D01*
Y049255D01*
X029163D01*
Y049246D01*
X029159D01*
Y049241D01*
X029155D01*
Y049237D01*
X029150D01*
Y049233D01*
X029146D01*
Y049228D01*
X029141D01*
Y049223D01*
X029132D01*
Y049219D01*
X029128D01*
Y049215D01*
X029118D01*
Y049210D01*
X029114D01*
Y049205D01*
X029100D01*
Y049016D01*
X029105D01*
Y049021D01*
X029109D01*
Y049026D01*
X029114D01*
Y049030D01*
X029118D01*
Y049035D01*
X029123D01*
Y049039D01*
X029128D01*
Y049043D01*
X029132D01*
Y049048D01*
X029137D01*
Y049053D01*
X029141D01*
Y049057D01*
X029146D01*
Y049061D01*
X029150D01*
Y049066D01*
X029155D01*
Y049071D01*
X029159D01*
Y049075D01*
X029163D01*
Y049079D01*
X029168D01*
Y049084D01*
X029172D01*
Y049089D01*
X029177D01*
Y049093D01*
X029181D01*
Y049097D01*
X029186D01*
Y049102D01*
X029190D01*
Y049106D01*
X029195D01*
Y049111D01*
X029200D01*
Y049116D01*
X029209D01*
Y049120D01*
X029213D01*
Y049124D01*
X029218D01*
Y049129D01*
X029222D01*
Y049134D01*
X029227D01*
Y049138D01*
X029231D01*
Y049142D01*
X029235D01*
Y049147D01*
X029240D01*
Y049152D01*
X029244D01*
Y049156D01*
X029249D01*
Y049160D01*
X029253D01*
Y049165D01*
X029258D01*
Y049170D01*
X029262D01*
Y049174D01*
X029267D01*
Y049179D01*
X029272D01*
Y049183D01*
X029276D01*
Y049187D01*
X029281D01*
Y049192D01*
X029285D01*
Y049197D01*
X029290D01*
Y049201D01*
X029294D01*
Y049205D01*
X029299D01*
Y049210D01*
X029303D01*
Y049215D01*
X029307D01*
Y049219D01*
X029312D01*
Y049223D01*
X029316D01*
Y049228D01*
X029321D01*
Y049233D01*
X029325D01*
Y049237D01*
X029330D01*
Y049241D01*
X029334D01*
Y049246D01*
X029339D01*
Y049250D01*
X029344D01*
Y049255D01*
X029348D01*
Y049260D01*
X029353D01*
Y049264D01*
X029357D01*
Y049268D01*
X029362D01*
Y049273D01*
X029366D01*
Y049278D01*
X029371D01*
Y049282D01*
X029375D01*
Y049556D01*
X029366D01*
Y049561D01*
X029357D01*
Y049566D01*
X029353D01*
Y049570D01*
X029344D01*
Y049574D01*
X029339D01*
Y049579D01*
X029334D01*
Y049584D01*
X029330D01*
Y049588D01*
X029325D01*
Y049592D01*
X029321D01*
Y049597D01*
X029316D01*
Y049601D01*
X029312D01*
Y049611D01*
X029307D01*
Y049619D01*
X029303D01*
Y049629D01*
X029299D01*
Y049642D01*
X029294D01*
Y049665D01*
X029290D01*
Y049687D01*
X029294D01*
Y049714D01*
X029299D01*
Y049723D01*
X029303D01*
Y049736D01*
X029307D01*
Y049745D01*
X029312D01*
Y049750D01*
X029316D01*
Y049755D01*
X029321D01*
Y049763D01*
X029325D01*
Y049768D01*
X029330D01*
Y049773D01*
X029334D01*
Y049777D01*
X029344D01*
Y049781D01*
X029348D01*
Y049786D01*
X029353D01*
Y049791D01*
X029362D01*
Y049795D01*
X029371D01*
Y049799D01*
X029384D01*
Y049804D01*
X029406D01*
Y049809D01*
X029438D01*
Y049804D01*
X029460D01*
Y049799D01*
X029474D01*
Y049795D01*
X029483D01*
Y049791D01*
X029492D01*
Y049786D01*
X029497D01*
Y049781D01*
X029506D01*
Y049777D01*
X029510D01*
Y049773D01*
X029515D01*
Y049768D01*
X029519D01*
Y049763D01*
X029523D01*
Y049759D01*
X029528D01*
Y049750D01*
X029532D01*
Y049745D01*
X029537D01*
Y049736D01*
X029541D01*
Y049728D01*
X029546D01*
Y049714D01*
X029550D01*
Y049692D01*
X029555D01*
Y049660D01*
X029550D01*
Y049637D01*
X029546D01*
Y049624D01*
X029541D01*
Y049615D01*
X029537D01*
Y049606D01*
X029532D01*
Y049601D01*
X029528D01*
Y049597D01*
X029523D01*
Y049588D01*
X029519D01*
Y049584D01*
X029515D01*
Y049579D01*
X029510D01*
Y049574D01*
X029501D01*
Y049570D01*
X029497D01*
Y049566D01*
X029488D01*
Y049561D01*
X029478D01*
Y049556D01*
X029469D01*
Y049241D01*
X029465D01*
Y049233D01*
X029460D01*
Y049223D01*
X029456D01*
Y049219D01*
X029451D01*
Y049215D01*
X029443D01*
Y049210D01*
X029438D01*
Y049205D01*
X029434D01*
Y049201D01*
X029429D01*
Y049197D01*
X029425D01*
Y049192D01*
X029420D01*
Y049187D01*
X029416D01*
Y049183D01*
X029411D01*
Y049179D01*
X029406D01*
Y049174D01*
X029402D01*
Y049170D01*
X029397D01*
Y049165D01*
X029393D01*
Y049160D01*
X029388D01*
Y049156D01*
X029384D01*
Y049152D01*
X029379D01*
Y049147D01*
X029375D01*
Y049142D01*
X029371D01*
Y049138D01*
X029366D01*
Y049134D01*
X029362D01*
Y049129D01*
X029357D01*
Y049124D01*
X029353D01*
Y049120D01*
X029348D01*
Y049116D01*
X029344D01*
Y049111D01*
X029339D01*
Y049106D01*
X029334D01*
Y049102D01*
X029330D01*
Y049097D01*
X029325D01*
Y049093D01*
X029321D01*
Y049089D01*
X029316D01*
Y049084D01*
X029312D01*
Y049079D01*
X029307D01*
Y049075D01*
X029303D01*
Y049071D01*
X029299D01*
Y049066D01*
X029294D01*
Y049061D01*
X029290D01*
Y049057D01*
X029285D01*
Y049053D01*
X029281D01*
Y049048D01*
X029276D01*
Y049043D01*
X029272D01*
Y049039D01*
X029267D01*
Y049035D01*
X029262D01*
Y049030D01*
X029258D01*
Y049026D01*
X029253D01*
Y049021D01*
X029249D01*
Y049016D01*
X029244D01*
Y049012D01*
X029240D01*
Y049008D01*
X029235D01*
Y049003D01*
X029231D01*
Y048998D01*
X029227D01*
Y048994D01*
X029222D01*
Y048990D01*
X029218D01*
Y048985D01*
X029213D01*
Y048980D01*
X029209D01*
Y048976D01*
X029204D01*
Y048972D01*
X029200D01*
Y048967D01*
X029195D01*
Y048962D01*
X029190D01*
Y048958D01*
X029186D01*
Y048953D01*
X029181D01*
Y048949D01*
X029177D01*
Y048945D01*
X029357D01*
Y048953D01*
X029362D01*
Y048962D01*
X029366D01*
Y048967D01*
X029371D01*
Y048976D01*
X029375D01*
Y048980D01*
X029379D01*
Y048985D01*
X029384D01*
Y048994D01*
X029393D01*
Y048998D01*
X029397D01*
Y049003D01*
X029402D01*
Y049008D01*
X029406D01*
Y049012D01*
X029416D01*
Y049016D01*
X029425D01*
Y049021D01*
X029438D01*
Y049026D01*
X029456D01*
Y049030D01*
X029506D01*
Y049026D01*
X029523D01*
Y049021D01*
X029532D01*
Y049016D01*
X029541D01*
Y049012D01*
X029550D01*
Y049008D01*
X029555D01*
Y049003D01*
X029564D01*
Y048998D01*
X029569D01*
Y048994D01*
X029573D01*
Y048990D01*
X029578D01*
Y048985D01*
X029582D01*
Y048980D01*
X029587D01*
Y048972D01*
X029591D01*
Y048967D01*
X029595D01*
Y048958D01*
X029600D01*
Y048949D01*
X029604D01*
Y048935D01*
X029609D01*
Y048913D01*
X029613D01*
Y048886D01*
X029609D01*
Y048864D01*
X029604D01*
Y048850D01*
X029600D01*
Y048841D01*
X029595D01*
Y048832D01*
X029591D01*
Y048828D01*
X029587D01*
Y048818D01*
X029582D01*
Y048814D01*
X029578D01*
Y048809D01*
X029573D01*
Y048805D01*
X029569D01*
Y048801D01*
X029564D01*
Y048796D01*
X029560D01*
Y048791D01*
X029550D01*
Y048787D01*
X029541D01*
Y048783D01*
X029532D01*
Y048778D01*
X029523D01*
Y048773D01*
X029506D01*
Y048769D01*
X029456D01*
Y048773D01*
X029438D01*
Y048778D01*
X029429D01*
Y048783D01*
X029420D01*
Y048787D01*
X029411D01*
Y048791D01*
X029402D01*
Y048796D01*
X029397D01*
Y048801D01*
X029393D01*
Y048805D01*
X029388D01*
Y048809D01*
X029384D01*
Y048814D01*
X029379D01*
Y048818D01*
X029375D01*
Y048823D01*
X029371D01*
Y048832D01*
X029366D01*
Y048836D01*
X029362D01*
Y048846D01*
X029357D01*
Y048854D01*
X029078D01*
Y048850D01*
X029074D01*
Y048846D01*
X029069D01*
Y048841D01*
X029065D01*
Y048836D01*
X029060D01*
Y048832D01*
X029056D01*
Y048828D01*
X029051D01*
Y048823D01*
X029046D01*
Y048818D01*
X029042D01*
Y048814D01*
X029037D01*
Y048809D01*
X029033D01*
Y048805D01*
X029028D01*
Y048801D01*
X029024D01*
Y048796D01*
X029019D01*
Y048791D01*
X029015D01*
Y048787D01*
X029011D01*
Y048783D01*
X029006D01*
Y048778D01*
X029002D01*
Y048773D01*
X028997D01*
Y048769D01*
X028993D01*
Y048765D01*
X028988D01*
Y048760D01*
X028984D01*
Y048755D01*
X028979D01*
Y048751D01*
X028974D01*
Y048747D01*
X028970D01*
Y048742D01*
X028965D01*
Y048738D01*
X028961D01*
Y048733D01*
X028956D01*
Y048728D01*
X028952D01*
Y048724D01*
X028948D01*
Y048720D01*
X028943D01*
Y048715D01*
X028939D01*
Y048710D01*
X028934D01*
Y048706D01*
X028930D01*
Y048702D01*
X028925D01*
Y048697D01*
X028921D01*
Y048692D01*
X028916D01*
Y048688D01*
X028911D01*
Y048684D01*
X028907D01*
Y048679D01*
X028902D01*
Y048675D01*
X028898D01*
Y048670D01*
X028893D01*
Y048665D01*
X028889D01*
Y048661D01*
X028884D01*
Y048657D01*
X028880D01*
Y048652D01*
X028876D01*
Y048647D01*
X028871D01*
Y048643D01*
X028867D01*
Y048639D01*
X028862D01*
Y048634D01*
X028858D01*
Y048629D01*
X028853D01*
Y048625D01*
X028849D01*
Y048621D01*
X028844D01*
Y048616D01*
X028839D01*
Y048611D01*
X028835D01*
Y048607D01*
X028830D01*
Y048602D01*
X028826D01*
Y048598D01*
X028821D01*
Y048594D01*
X028817D01*
Y048589D01*
X028812D01*
Y048584D01*
X028808D01*
Y048580D01*
X028804D01*
Y048576D01*
X028799D01*
Y048571D01*
X028795D01*
Y048566D01*
X028790D01*
Y048562D01*
X028786D01*
Y048558D01*
X028781D01*
Y048553D01*
X028777D01*
Y048548D01*
X028772D01*
Y048544D01*
X028767D01*
Y048540D01*
X028763D01*
Y048535D01*
X028758D01*
Y048531D01*
X028754D01*
Y048526D01*
X028749D01*
Y048521D01*
X028745D01*
Y048517D01*
X028740D01*
Y048513D01*
X028736D01*
Y048508D01*
X028732D01*
Y048503D01*
X028727D01*
Y048499D01*
X028718D01*
Y048495D01*
X028714D01*
Y048490D01*
X028709D01*
Y048485D01*
X028705D01*
Y048481D01*
X028700D01*
Y048477D01*
X028695D01*
Y048472D01*
X028691D01*
Y048467D01*
X028686D01*
Y048463D01*
X028682D01*
Y048458D01*
X028677D01*
Y048450D01*
X028673D01*
Y047743D01*
X028677D01*
Y047748D01*
X028682D01*
Y047752D01*
X028686D01*
Y047757D01*
X028691D01*
Y047761D01*
X028695D01*
Y047765D01*
X028700D01*
Y047770D01*
X028705D01*
Y047775D01*
X028709D01*
Y047779D01*
X028714D01*
Y047783D01*
X028718D01*
Y047788D01*
X028723D01*
Y047793D01*
X028727D01*
Y047797D01*
X028732D01*
Y047801D01*
X028736D01*
Y047806D01*
X028740D01*
Y047811D01*
X028745D01*
Y047815D01*
X028749D01*
Y047819D01*
X028754D01*
Y047824D01*
X028758D01*
Y047828D01*
X028763D01*
Y047833D01*
X028767D01*
Y047838D01*
X028772D01*
Y047842D01*
X028777D01*
Y047846D01*
X028781D01*
Y047851D01*
X028786D01*
Y047856D01*
X028790D01*
Y047860D01*
X028795D01*
Y047864D01*
X028799D01*
Y047869D01*
X028804D01*
Y047874D01*
X028808D01*
Y047878D01*
X028812D01*
Y047882D01*
X028817D01*
Y047887D01*
X028821D01*
Y047892D01*
X028826D01*
Y047896D01*
X028830D01*
Y047901D01*
X028835D01*
Y047905D01*
X028839D01*
Y047909D01*
X028844D01*
Y047914D01*
X028849D01*
Y047919D01*
X028853D01*
Y047923D01*
X028858D01*
Y047927D01*
X028862D01*
Y047932D01*
X028867D01*
Y047937D01*
X028871D01*
Y047941D01*
X028876D01*
Y047945D01*
X028880D01*
Y048233D01*
X028876D01*
Y048238D01*
X028867D01*
Y048243D01*
X028862D01*
Y048247D01*
X028853D01*
Y048252D01*
X028849D01*
Y048256D01*
X028839D01*
Y048260D01*
X028835D01*
Y048265D01*
X028830D01*
Y048270D01*
X028826D01*
Y048278D01*
X028821D01*
Y048283D01*
X028817D01*
Y048292D01*
X028812D01*
Y048301D01*
X028808D01*
Y048310D01*
X028804D01*
Y048323D01*
X028799D01*
Y048346D01*
X028795D01*
Y048369D01*
X028799D01*
Y048391D01*
X028804D01*
Y048404D01*
X028808D01*
Y048414D01*
X028812D01*
Y048422D01*
X028817D01*
Y048432D01*
X028821D01*
Y048436D01*
X028826D01*
Y048440D01*
X028830D01*
Y048445D01*
X028835D01*
Y048450D01*
X028839D01*
Y048454D01*
X028844D01*
Y048458D01*
X028849D01*
Y048463D01*
X028853D01*
Y048467D01*
X028862D01*
Y048472D01*
X028871D01*
Y048477D01*
X028880D01*
Y048481D01*
X028893D01*
Y048485D01*
X028961D01*
Y048481D01*
X028974D01*
Y048477D01*
X028984D01*
Y048472D01*
X028993D01*
Y048467D01*
X029002D01*
Y048463D01*
X029006D01*
Y048458D01*
X029015D01*
Y048454D01*
X029019D01*
Y048450D01*
X029024D01*
Y048445D01*
X029028D01*
Y048436D01*
X029033D01*
Y048432D01*
X029037D01*
Y048422D01*
X029042D01*
Y048418D01*
X029046D01*
Y048409D01*
X029051D01*
Y048396D01*
X029056D01*
Y048377D01*
X029060D01*
Y048337D01*
X029056D01*
Y048314D01*
X029051D01*
Y048306D01*
X029046D01*
Y048296D01*
X029042D01*
Y048288D01*
X029037D01*
Y048278D01*
X029033D01*
Y048274D01*
X029028D01*
Y048270D01*
X029024D01*
Y048265D01*
X029019D01*
Y048260D01*
X029015D01*
Y048256D01*
X029011D01*
Y048252D01*
X029002D01*
Y048247D01*
X028997D01*
Y048243D01*
X028988D01*
Y048238D01*
X028979D01*
Y048233D01*
X028974D01*
Y048049D01*
X028979D01*
Y048053D01*
X028984D01*
Y048058D01*
X028988D01*
Y048063D01*
X028993D01*
Y048067D01*
X028997D01*
Y048071D01*
X029002D01*
Y048076D01*
X029006D01*
Y048081D01*
X029011D01*
Y048085D01*
X029015D01*
Y048089D01*
X029019D01*
Y048094D01*
X029024D01*
Y048099D01*
X029028D01*
Y048103D01*
X029033D01*
Y048108D01*
X029037D01*
Y048112D01*
X029042D01*
Y048116D01*
X029051D01*
Y048121D01*
X029056D01*
Y048126D01*
X029060D01*
Y048134D01*
X029069D01*
Y048139D01*
X029074D01*
Y048144D01*
X029078D01*
Y048152D01*
X029087D01*
Y048157D01*
X029091D01*
Y048162D01*
X029096D01*
Y048166D01*
X029100D01*
Y048170D01*
X029105D01*
Y048175D01*
X029109D01*
Y048179D01*
X029114D01*
Y048184D01*
X029118D01*
Y048189D01*
X029123D01*
Y048193D01*
X029128D01*
Y048197D01*
X029132D01*
Y048202D01*
X029137D01*
Y048207D01*
X029141D01*
Y048211D01*
X029146D01*
Y048215D01*
X029150D01*
Y048220D01*
X029155D01*
Y048225D01*
X029159D01*
Y048229D01*
X029163D01*
Y048233D01*
X029168D01*
Y048238D01*
X029172D01*
Y048243D01*
X029177D01*
Y048247D01*
X029181D01*
Y048252D01*
X029186D01*
Y048256D01*
X029190D01*
Y048260D01*
X029195D01*
Y048265D01*
X029200D01*
Y048270D01*
X029204D01*
Y048274D01*
X029209D01*
Y048278D01*
X029213D01*
Y048283D01*
X029218D01*
Y048288D01*
X029222D01*
Y048292D01*
X029227D01*
Y048296D01*
X029231D01*
Y048301D01*
X029235D01*
Y048306D01*
X029240D01*
Y048310D01*
X029244D01*
Y048314D01*
X029249D01*
Y048319D01*
X029253D01*
Y048323D01*
X029258D01*
Y048328D01*
X029262D01*
Y048333D01*
X029267D01*
Y048337D01*
X029272D01*
Y048341D01*
X029276D01*
Y048346D01*
X029281D01*
Y048351D01*
X029285D01*
Y048355D01*
X029290D01*
Y048359D01*
X029294D01*
Y048364D01*
X029299D01*
Y048369D01*
X029303D01*
Y048387D01*
X029299D01*
Y048404D01*
X029294D01*
Y048445D01*
X029299D01*
Y048467D01*
X029303D01*
Y048477D01*
X029307D01*
Y048485D01*
X029312D01*
Y048495D01*
X029316D01*
Y048503D01*
X029321D01*
Y048508D01*
X029325D01*
Y048513D01*
X029330D01*
Y048517D01*
X029334D01*
Y048521D01*
X029339D01*
Y048526D01*
X029344D01*
Y048531D01*
X029348D01*
Y048535D01*
X029357D01*
Y048540D01*
X029366D01*
Y048544D01*
X029375D01*
Y048548D01*
X029384D01*
Y048553D01*
X029402D01*
Y048558D01*
X029447D01*
Y048553D01*
X029469D01*
Y048548D01*
X029478D01*
Y048544D01*
X029488D01*
Y048540D01*
X029497D01*
Y048535D01*
X029506D01*
Y048531D01*
X029510D01*
Y048526D01*
X029515D01*
Y048521D01*
X029519D01*
Y048517D01*
X029523D01*
Y048513D01*
X029528D01*
Y048508D01*
X029532D01*
Y048499D01*
X029537D01*
Y048495D01*
X029541D01*
Y048485D01*
X029546D01*
Y048477D01*
X029550D01*
Y048463D01*
X029555D01*
Y048436D01*
X029560D01*
Y048414D01*
X029555D01*
Y048391D01*
X029550D01*
Y048377D01*
X029546D01*
Y048364D01*
X029541D01*
Y048359D01*
X029537D01*
Y048351D01*
X029532D01*
Y048346D01*
X029528D01*
Y048341D01*
X029523D01*
Y048333D01*
X029519D01*
Y048328D01*
X029510D01*
Y048323D01*
X029506D01*
Y048319D01*
X029501D01*
Y048314D01*
X029492D01*
Y048310D01*
X029483D01*
Y048306D01*
X029474D01*
Y048301D01*
X029456D01*
Y048296D01*
X029397D01*
Y048301D01*
X029379D01*
Y048306D01*
X029371D01*
Y048301D01*
X029366D01*
Y048296D01*
X029362D01*
Y048292D01*
X029357D01*
Y048288D01*
X029353D01*
Y048283D01*
X029348D01*
Y048278D01*
X029344D01*
Y048274D01*
X029339D01*
Y048270D01*
X029330D01*
Y048265D01*
X029325D01*
Y048260D01*
X029321D01*
Y048256D01*
X029316D01*
Y048252D01*
X029312D01*
Y048247D01*
X029307D01*
Y048243D01*
X029303D01*
Y048238D01*
X029299D01*
Y048233D01*
X029294D01*
Y048229D01*
X029290D01*
Y048225D01*
X029285D01*
Y048220D01*
X029281D01*
Y048215D01*
X029276D01*
Y048211D01*
X029272D01*
Y048207D01*
X029267D01*
Y048202D01*
X029262D01*
Y048197D01*
X029258D01*
Y048193D01*
X029253D01*
Y048189D01*
X029249D01*
Y048184D01*
X029244D01*
Y048179D01*
X029240D01*
Y048175D01*
X029235D01*
Y048170D01*
X029231D01*
Y048166D01*
X029227D01*
Y048162D01*
X029222D01*
Y048157D01*
X029218D01*
Y048152D01*
X029213D01*
Y048148D01*
X029209D01*
Y048144D01*
X029204D01*
Y048139D01*
X029200D01*
Y048134D01*
X029195D01*
Y048130D01*
X029190D01*
Y048126D01*
X029186D01*
Y048121D01*
X029181D01*
Y048116D01*
X029177D01*
Y048112D01*
X029172D01*
Y048108D01*
X029168D01*
Y048103D01*
X029163D01*
Y048099D01*
X029159D01*
Y048094D01*
X029155D01*
Y048089D01*
X029150D01*
Y048085D01*
X029146D01*
Y048081D01*
X029141D01*
Y048076D01*
X029137D01*
Y048071D01*
X029132D01*
Y048067D01*
X029128D01*
Y048063D01*
X029123D01*
Y048058D01*
X029118D01*
Y048053D01*
X029114D01*
Y048049D01*
X029109D01*
Y048045D01*
X029105D01*
Y048040D01*
X029100D01*
Y048035D01*
X029096D01*
Y048031D01*
X029091D01*
Y048026D01*
X029087D01*
Y048022D01*
X029083D01*
Y048018D01*
X029078D01*
Y048013D01*
X029074D01*
Y048008D01*
X029069D01*
Y048004D01*
X029065D01*
Y048000D01*
X029060D01*
Y047995D01*
X029051D01*
Y047990D01*
X029046D01*
Y047982D01*
X029231D01*
Y047990D01*
X029235D01*
Y048000D01*
X029240D01*
Y048004D01*
X029244D01*
Y048013D01*
X029249D01*
Y048018D01*
X029253D01*
Y048022D01*
X029258D01*
Y048026D01*
X029262D01*
Y048031D01*
X029267D01*
Y048035D01*
X029272D01*
Y048040D01*
X029281D01*
Y048045D01*
X029285D01*
Y048049D01*
X029294D01*
Y048053D01*
X029303D01*
Y048058D01*
X029316D01*
Y048063D01*
X029384D01*
Y048058D01*
X029397D01*
Y048053D01*
X029411D01*
Y048049D01*
X029420D01*
Y048045D01*
X029425D01*
Y048040D01*
X029434D01*
Y048035D01*
X029438D01*
Y048031D01*
X029443D01*
Y048026D01*
X029447D01*
Y048022D01*
X029451D01*
Y048018D01*
X029456D01*
Y048013D01*
X029460D01*
Y048004D01*
X029465D01*
Y048000D01*
X029469D01*
Y047990D01*
X029474D01*
Y047977D01*
X029478D01*
Y047964D01*
X029483D01*
Y047905D01*
X029478D01*
Y047887D01*
X029474D01*
Y047878D01*
X029469D01*
Y047869D01*
X029465D01*
Y047860D01*
X029460D01*
Y047856D01*
X029456D01*
Y047851D01*
X029451D01*
Y047846D01*
X029447D01*
Y047842D01*
X029443D01*
Y047838D01*
X029438D01*
Y047833D01*
X029434D01*
Y047828D01*
X029429D01*
Y047824D01*
X029420D01*
Y047819D01*
X029411D01*
Y047815D01*
X029402D01*
Y047811D01*
X029388D01*
Y047806D01*
X029371D01*
Y047801D01*
X029334D01*
Y047806D01*
X029316D01*
Y047811D01*
X029303D01*
Y047815D01*
X029294D01*
Y047819D01*
X029285D01*
Y047824D01*
X029281D01*
Y047828D01*
X029272D01*
Y047833D01*
X029267D01*
Y047838D01*
X029262D01*
Y047842D01*
X029258D01*
Y047846D01*
X029253D01*
Y047851D01*
X029249D01*
Y047856D01*
X029244D01*
Y047864D01*
X029240D01*
Y047869D01*
X029235D01*
Y047878D01*
X029231D01*
Y047887D01*
X028943D01*
Y047882D01*
X028939D01*
Y047878D01*
X028934D01*
Y047874D01*
X028930D01*
Y047869D01*
X028921D01*
Y047864D01*
X028916D01*
Y047860D01*
X028911D01*
Y047856D01*
X028907D01*
Y047851D01*
X028902D01*
Y047846D01*
X028898D01*
Y047842D01*
X028893D01*
Y047838D01*
X028889D01*
Y047833D01*
X028884D01*
Y047828D01*
X028880D01*
Y047824D01*
X028876D01*
Y047819D01*
X028871D01*
Y047815D01*
X028867D01*
Y047811D01*
X028862D01*
Y047806D01*
X028858D01*
Y047801D01*
X028853D01*
Y047797D01*
X028849D01*
Y047793D01*
X028844D01*
Y047788D01*
X028839D01*
Y047783D01*
X028835D01*
Y047779D01*
X028830D01*
Y047775D01*
X028826D01*
Y047770D01*
X028821D01*
Y047765D01*
X028817D01*
Y047761D01*
X028812D01*
Y047757D01*
X028808D01*
Y047752D01*
X028804D01*
Y047748D01*
X028799D01*
Y047743D01*
X028795D01*
Y047738D01*
X028790D01*
Y047734D01*
X028786D01*
Y047730D01*
X028781D01*
Y047725D01*
X028777D01*
Y047720D01*
X028772D01*
Y047716D01*
X028767D01*
Y047712D01*
X028763D01*
Y047707D01*
X028758D01*
Y047702D01*
X028754D01*
Y047698D01*
X028749D01*
Y047694D01*
X028745D01*
Y047689D01*
X028740D01*
Y047684D01*
X028736D01*
Y047680D01*
X028732D01*
Y047675D01*
X028727D01*
Y047671D01*
X028723D01*
Y047667D01*
X028718D01*
Y047662D01*
X028714D01*
Y047657D01*
X028709D01*
Y047653D01*
X028705D01*
Y047649D01*
X028700D01*
Y047644D01*
X028695D01*
Y047639D01*
X028691D01*
Y047635D01*
X028686D01*
Y047631D01*
X028682D01*
Y047626D01*
X028677D01*
Y047621D01*
X028673D01*
Y047617D01*
X030036D01*
Y047621D01*
X030050D01*
Y047626D01*
X030055D01*
Y047631D01*
X030059D01*
Y047635D01*
X030064D01*
Y047639D01*
X030068D01*
Y047644D01*
X030073D01*
Y047649D01*
X030077D01*
Y047657D01*
X030082D01*
Y047671D01*
X030086D01*
Y049003D01*
X030500D01*
Y049008D01*
X030509D01*
Y049012D01*
X030518D01*
Y049016D01*
X030522D01*
Y049021D01*
X030527D01*
Y049026D01*
X030531D01*
Y049030D01*
X030536D01*
Y049039D01*
X030540D01*
Y049048D01*
X030545D01*
Y049061D01*
X030549D01*
Y049084D01*
X030545D01*
Y049102D01*
X030540D01*
Y049111D01*
X030536D01*
Y049116D01*
X030531D01*
Y049120D01*
X030527D01*
Y049129D01*
X030522D01*
Y049134D01*
X030518D01*
Y049138D01*
X030514D01*
Y049142D01*
X030509D01*
Y049147D01*
X030505D01*
Y049152D01*
X030500D01*
Y049156D01*
X030496D01*
Y049160D01*
X030491D01*
Y049165D01*
X030487D01*
Y049170D01*
X030482D01*
Y049174D01*
X030477D01*
Y049179D01*
X030473D01*
Y049183D01*
X030468D01*
Y049187D01*
X030464D01*
Y049192D01*
X030459D01*
Y049197D01*
X030455D01*
Y049201D01*
X030450D01*
Y049205D01*
X030446D01*
Y049210D01*
X030442D01*
Y049215D01*
X030437D01*
Y049219D01*
X030433D01*
Y049223D01*
X030428D01*
Y049228D01*
X030424D01*
Y049233D01*
X030419D01*
Y049237D01*
X030415D01*
Y049241D01*
X030410D01*
Y049246D01*
X030405D01*
Y049250D01*
X030401D01*
Y049255D01*
X030396D01*
Y049260D01*
X030392D01*
Y049264D01*
X030387D01*
Y049268D01*
X030383D01*
Y049273D01*
X030378D01*
Y049278D01*
X030374D01*
Y049282D01*
X030370D01*
Y049286D01*
X030365D01*
Y049291D01*
X030361D01*
Y049296D01*
X030356D01*
Y049300D01*
X030352D01*
Y049304D01*
X030347D01*
Y049309D01*
X030343D01*
Y049314D01*
X030338D01*
Y049318D01*
X030333D01*
Y049323D01*
X030329D01*
Y049327D01*
X030324D01*
Y049331D01*
X030320D01*
Y049336D01*
X030315D01*
Y049341D01*
X030311D01*
Y049345D01*
X030306D01*
Y049349D01*
X030302D01*
Y049354D01*
X030298D01*
Y049359D01*
X030293D01*
Y049363D01*
X030289D01*
Y049367D01*
X030284D01*
Y049372D01*
X030280D01*
Y049377D01*
X030275D01*
Y049381D01*
X030271D01*
Y049385D01*
X030266D01*
Y049390D01*
X030261D01*
Y049394D01*
X030257D01*
Y049399D01*
X030252D01*
Y049404D01*
X030248D01*
Y049408D01*
X030243D01*
Y049412D01*
X030239D01*
Y049417D01*
X030234D01*
Y049422D01*
X030230D01*
Y049426D01*
X030226D01*
Y049430D01*
X030221D01*
Y049435D01*
X030217D01*
Y049440D01*
X030212D01*
Y049444D01*
X030208D01*
Y049448D01*
X030203D01*
Y049453D01*
X030199D01*
Y049458D01*
X030194D01*
Y049462D01*
X030189D01*
Y049467D01*
X030185D01*
Y049471D01*
X030180D01*
Y049475D01*
X030176D01*
Y049480D01*
X030171D01*
Y049485D01*
X030167D01*
Y049489D01*
X030162D01*
Y049493D01*
X030158D01*
Y049498D01*
X030154D01*
Y049503D01*
X030149D01*
Y049507D01*
X030145D01*
Y049511D01*
X030140D01*
Y049516D01*
X030136D01*
Y049521D01*
X030131D01*
Y049525D01*
X030127D01*
Y049530D01*
X030122D01*
Y049534D01*
X030117D01*
Y049538D01*
X030113D01*
Y049543D01*
X030108D01*
Y049548D01*
X030104D01*
Y049552D01*
X030099D01*
Y049556D01*
X030095D01*
Y049561D01*
X030090D01*
Y049566D01*
X030086D01*
Y049570D01*
X030082D01*
Y049574D01*
X030077D01*
Y049579D01*
X030073D01*
Y049584D01*
X030068D01*
Y049588D01*
X030064D01*
Y049592D01*
X030059D01*
Y049597D01*
X030055D01*
Y049601D01*
X030050D01*
Y049606D01*
X030045D01*
Y049611D01*
X030041D01*
Y049615D01*
X030036D01*
Y049619D01*
X030032D01*
Y049624D01*
X030027D01*
Y049629D01*
X030023D01*
Y049633D01*
X030018D01*
Y049637D01*
X030014D01*
Y049642D01*
X030010D01*
Y049647D01*
X030005D01*
Y049651D01*
X030001D01*
Y049655D01*
X029996D01*
Y049660D01*
X029992D01*
Y049665D01*
X029987D01*
Y049669D01*
X029983D01*
Y049674D01*
X029978D01*
Y049678D01*
X029973D01*
Y049682D01*
X029969D01*
Y049687D01*
X029964D01*
Y049692D01*
X029960D01*
Y049696D01*
X029955D01*
Y049700D01*
X029951D01*
Y049705D01*
X029946D01*
Y049710D01*
X029942D01*
Y049714D01*
X029938D01*
Y049718D01*
X029933D01*
Y049723D01*
X029929D01*
Y049728D01*
X029924D01*
Y049732D01*
X029920D01*
Y049736D01*
X029915D01*
Y049741D01*
X029911D01*
Y049745D01*
X029906D01*
Y049750D01*
X029901D01*
Y049755D01*
X029897D01*
Y049759D01*
X029892D01*
Y049763D01*
X029888D01*
Y049768D01*
X029883D01*
Y049773D01*
X029879D01*
Y049777D01*
X029874D01*
Y049781D01*
X029870D01*
Y049786D01*
X029866D01*
Y049791D01*
X029861D01*
Y049795D01*
X029857D01*
Y049799D01*
X029852D01*
Y049804D01*
X029848D01*
Y049809D01*
X029843D01*
Y049813D01*
X029839D01*
Y049818D01*
X029834D01*
Y049822D01*
X029829D01*
Y049826D01*
X029825D01*
Y049831D01*
X029820D01*
Y049836D01*
X029816D01*
Y049840D01*
X029811D01*
Y049844D01*
X029807D01*
Y049849D01*
X029802D01*
Y049854D01*
X029798D01*
Y049858D01*
X029794D01*
Y049862D01*
X029789D01*
Y049867D01*
X029785D01*
Y049872D01*
X029780D01*
Y049876D01*
X029776D01*
Y049880D01*
X029771D01*
Y049885D01*
X029766D01*
Y049889D01*
X029762D01*
Y049894D01*
X029757D01*
Y049899D01*
X029753D01*
Y049903D01*
X029748D01*
Y049907D01*
X029744D01*
Y049912D01*
X029739D01*
Y049917D01*
X029735D01*
Y049921D01*
X029731D01*
Y049925D01*
X029726D01*
Y049930D01*
X029722D01*
Y049935D01*
X029717D01*
Y049939D01*
X029713D01*
Y049943D01*
X029708D01*
Y049948D01*
X029704D01*
Y049953D01*
X029699D01*
Y049957D01*
X029694D01*
Y049962D01*
X029690D01*
Y049966D01*
X029685D01*
Y049970D01*
X029681D01*
Y049975D01*
X029676D01*
Y049980D01*
X029672D01*
Y049984D01*
X029667D01*
Y049988D01*
X029663D01*
Y049993D01*
X029659D01*
Y049998D01*
X029654D01*
Y050002D01*
X029650D01*
Y050006D01*
X029645D01*
Y050011D01*
X029641D01*
Y050016D01*
X029636D01*
Y050020D01*
X029632D01*
Y050024D01*
X029627D01*
Y050029D01*
X029622D01*
Y050033D01*
X029618D01*
Y050038D01*
X029613D01*
Y050043D01*
X029609D01*
Y050047D01*
X029604D01*
Y050051D01*
X029600D01*
Y050056D01*
X029595D01*
Y050061D01*
X029591D01*
Y050065D01*
X029587D01*
Y050069D01*
X029582D01*
Y050074D01*
X029578D01*
Y050079D01*
X029573D01*
Y050083D01*
X029569D01*
Y050087D01*
X029564D01*
Y050092D01*
X029560D01*
Y050097D01*
X029555D01*
Y050101D01*
X029550D01*
Y050106D01*
X029546D01*
Y050110D01*
X029541D01*
Y050114D01*
X029537D01*
Y050119D01*
X029532D01*
Y050124D01*
X029528D01*
Y050128D01*
X029523D01*
Y050132D01*
X029519D01*
Y050137D01*
X029515D01*
Y050142D01*
X029510D01*
Y050146D01*
X029506D01*
Y050150D01*
X029501D01*
Y050155D01*
X029497D01*
Y050160D01*
X029492D01*
Y050164D01*
X029488D01*
Y050168D01*
X029483D01*
Y050173D01*
X029478D01*
Y050177D01*
X029474D01*
Y050182D01*
X029469D01*
Y050187D01*
X029465D01*
Y050191D01*
X029460D01*
Y050195D01*
X029456D01*
Y050200D01*
X029451D01*
Y050205D01*
X029447D01*
Y050209D01*
X029443D01*
Y050213D01*
X029438D01*
Y050218D01*
X029434D01*
Y050223D01*
X029429D01*
Y050227D01*
X029425D01*
Y050231D01*
X029420D01*
Y050236D01*
X029416D01*
Y050241D01*
X029411D01*
Y050245D01*
X029406D01*
Y050250D01*
X029402D01*
Y050254D01*
X029397D01*
Y050258D01*
X029393D01*
Y050263D01*
X029388D01*
Y050268D01*
X029384D01*
Y050272D01*
X029379D01*
Y050276D01*
X029375D01*
Y050281D01*
X029371D01*
Y050286D01*
X029366D01*
Y050290D01*
X029362D01*
Y050294D01*
X029357D01*
Y050299D01*
X029353D01*
Y050304D01*
X029348D01*
Y050308D01*
X029344D01*
Y050312D01*
X029339D01*
Y050317D01*
X029334D01*
Y050321D01*
X029330D01*
Y050326D01*
X029325D01*
Y050331D01*
X029321D01*
Y050335D01*
X029316D01*
Y050339D01*
X029312D01*
Y050344D01*
X029307D01*
Y050349D01*
X029303D01*
Y050353D01*
X029299D01*
Y050357D01*
X029294D01*
Y050362D01*
X029290D01*
Y050367D01*
X029285D01*
Y050371D01*
X029281D01*
Y050375D01*
X029276D01*
Y050380D01*
X029272D01*
Y050384D01*
X029267D01*
Y050389D01*
X029262D01*
Y050394D01*
X029258D01*
Y050398D01*
X029253D01*
Y050402D01*
X029249D01*
Y050407D01*
X029244D01*
Y050412D01*
X029240D01*
Y050416D01*
X029235D01*
Y050420D01*
X029231D01*
Y050425D01*
X029227D01*
Y050430D01*
X029222D01*
Y050434D01*
X029218D01*
Y050438D01*
X029213D01*
Y050443D01*
X029209D01*
Y050448D01*
X029204D01*
Y050452D01*
X029200D01*
Y050457D01*
X029195D01*
Y050461D01*
X029190D01*
Y050465D01*
X029186D01*
Y050470D01*
X029181D01*
Y050475D01*
X029177D01*
Y050479D01*
X029172D01*
Y050483D01*
X029168D01*
Y050488D01*
X029163D01*
Y050493D01*
X029159D01*
Y050497D01*
X029155D01*
Y050501D01*
X029150D01*
Y050506D01*
X029146D01*
Y050511D01*
X029141D01*
Y050515D01*
X029137D01*
Y050519D01*
X029132D01*
Y050524D01*
X029128D01*
Y050528D01*
X029123D01*
Y050533D01*
X029118D01*
Y050538D01*
X029114D01*
Y050542D01*
X029109D01*
Y050546D01*
X029105D01*
Y050551D01*
X029100D01*
Y050556D01*
X029096D01*
Y050560D01*
X029091D01*
Y050564D01*
X029087D01*
Y050569D01*
X029083D01*
Y050574D01*
X029078D01*
Y050578D01*
X029074D01*
Y050582D01*
X029069D01*
Y050587D01*
X029065D01*
Y050592D01*
X029060D01*
Y050596D01*
X029056D01*
Y050601D01*
X029051D01*
Y050605D01*
X029046D01*
Y050609D01*
X029042D01*
Y050614D01*
X029037D01*
Y050619D01*
X029033D01*
Y050623D01*
X029028D01*
Y050627D01*
X029024D01*
Y050632D01*
X029019D01*
Y050637D01*
X029015D01*
Y050641D01*
X029011D01*
Y050645D01*
X029006D01*
Y050650D01*
X029002D01*
Y050655D01*
X028997D01*
Y050659D01*
X028993D01*
Y050663D01*
X028988D01*
Y050668D01*
X028984D01*
Y050672D01*
X028979D01*
Y050677D01*
X028974D01*
Y050682D01*
X028970D01*
Y050686D01*
X028965D01*
Y050690D01*
X028961D01*
Y050695D01*
X028956D01*
Y050700D01*
X028952D01*
Y050704D01*
X028948D01*
Y050708D01*
X028943D01*
Y050713D01*
X028939D01*
Y050718D01*
X028934D01*
Y050722D01*
X028930D01*
Y050726D01*
X028925D01*
Y050731D01*
X028921D01*
Y050736D01*
X028916D01*
Y050740D01*
X028911D01*
Y050745D01*
X028907D01*
Y050749D01*
X028902D01*
Y050753D01*
X028898D01*
Y050758D01*
X028893D01*
Y050763D01*
X028889D01*
Y050767D01*
X028884D01*
Y050771D01*
X028880D01*
Y050776D01*
X028876D01*
Y050781D01*
X028871D01*
Y050785D01*
X028867D01*
Y050789D01*
X028862D01*
Y050794D01*
X028858D01*
Y050799D01*
X028853D01*
Y050803D01*
X028849D01*
Y050807D01*
X028844D01*
Y050812D01*
X028839D01*
Y050816D01*
X028835D01*
Y050821D01*
X028830D01*
Y050826D01*
X028826D01*
Y050830D01*
X028821D01*
Y050834D01*
X028817D01*
Y050839D01*
X028812D01*
Y050844D01*
X028808D01*
Y050848D01*
X028804D01*
Y050852D01*
X028799D01*
Y050857D01*
X028795D01*
Y050862D01*
X028790D01*
Y050866D01*
X028786D01*
Y050870D01*
X028781D01*
Y050875D01*
X028777D01*
Y050880D01*
X028772D01*
Y050884D01*
X028767D01*
Y050889D01*
X028763D01*
Y050893D01*
X028758D01*
Y050897D01*
X028754D01*
Y050902D01*
X028749D01*
Y050907D01*
X028745D01*
Y050911D01*
X028740D01*
Y050915D01*
X028736D01*
Y050920D01*
X028732D01*
Y050925D01*
X028727D01*
Y050929D01*
X028723D01*
Y050933D01*
X028718D01*
Y050938D01*
X028714D01*
Y050943D01*
X028709D01*
Y050947D01*
X028705D01*
Y050951D01*
X028700D01*
Y050956D01*
X028695D01*
Y050960D01*
X028691D01*
Y050965D01*
X028686D01*
Y050970D01*
X028682D01*
Y050974D01*
X028677D01*
Y050978D01*
X028668D01*
Y050983D01*
X028664D01*
Y050988D01*
X028655D01*
Y050992D01*
X028637D01*
Y050996D01*
D02*
G37*
G36*
X028930Y049948D02*
X028916D01*
Y049943D01*
X028898D01*
Y049939D01*
X028889D01*
Y049935D01*
X028884D01*
Y049925D01*
X028880D01*
Y049921D01*
X028876D01*
Y049912D01*
X028871D01*
Y049903D01*
X028867D01*
Y049880D01*
X028871D01*
Y049867D01*
X028876D01*
Y049858D01*
X028880D01*
Y049854D01*
X028884D01*
Y049849D01*
X028889D01*
Y049844D01*
X028893D01*
Y049840D01*
X028907D01*
Y049836D01*
X028948D01*
Y049840D01*
X028956D01*
Y049844D01*
X028961D01*
Y049849D01*
X028965D01*
Y049854D01*
X028970D01*
Y049862D01*
X028974D01*
Y049872D01*
X028979D01*
Y049907D01*
X028974D01*
Y049917D01*
X028970D01*
Y049925D01*
X028965D01*
Y049930D01*
X028961D01*
Y049935D01*
X028956D01*
Y049939D01*
X028948D01*
Y049943D01*
X028930D01*
Y049948D01*
D02*
G37*
G36*
X028331D02*
X028317D01*
Y049943D01*
X028300D01*
Y049939D01*
X028291D01*
Y049935D01*
X028286D01*
Y049930D01*
X028282D01*
Y049921D01*
X028277D01*
Y049917D01*
X028273D01*
Y049903D01*
X028268D01*
Y049876D01*
X028273D01*
Y049867D01*
X028277D01*
Y049858D01*
X028282D01*
Y049854D01*
X028286D01*
Y049849D01*
X028291D01*
Y049844D01*
X028295D01*
Y049840D01*
X028304D01*
Y049836D01*
X028345D01*
Y049840D01*
X028354D01*
Y049844D01*
X028363D01*
Y049854D01*
X028367D01*
Y049858D01*
X028372D01*
Y049867D01*
X028376D01*
Y049912D01*
X028372D01*
Y049921D01*
X028367D01*
Y049930D01*
X028363D01*
Y049935D01*
X028358D01*
Y049939D01*
X028349D01*
Y049943D01*
X028331D01*
Y049948D01*
D02*
G37*
G36*
X029434Y049736D02*
X029425D01*
Y049732D01*
X029406D01*
Y049728D01*
X029402D01*
Y049723D01*
X029393D01*
Y049718D01*
X029388D01*
Y049714D01*
X029384D01*
Y049710D01*
X029379D01*
Y049700D01*
X029375D01*
Y049687D01*
X029371D01*
Y049660D01*
X029375D01*
Y049651D01*
X029379D01*
Y049642D01*
X029384D01*
Y049637D01*
X029393D01*
Y049633D01*
X029397D01*
Y049629D01*
X029406D01*
Y049624D01*
X029447D01*
Y049629D01*
X029456D01*
Y049633D01*
X029460D01*
Y049637D01*
X029465D01*
Y049642D01*
X029469D01*
Y049647D01*
X029474D01*
Y049651D01*
X029478D01*
Y049660D01*
X029483D01*
Y049700D01*
X029478D01*
Y049710D01*
X029474D01*
Y049714D01*
X029469D01*
Y049723D01*
X029460D01*
Y049728D01*
X029451D01*
Y049732D01*
X029434D01*
Y049736D01*
D02*
G37*
G36*
X027957Y049728D02*
X027931D01*
Y049723D01*
X027922D01*
Y049718D01*
X027912D01*
Y049714D01*
X027908D01*
Y049710D01*
X027903D01*
Y049705D01*
X027899D01*
Y049700D01*
X027894D01*
Y049692D01*
X027890D01*
Y049674D01*
X027885D01*
Y049669D01*
X027890D01*
Y049647D01*
X027894D01*
Y049637D01*
X027899D01*
Y049633D01*
X027903D01*
Y049629D01*
X027908D01*
Y049624D01*
X027912D01*
Y049619D01*
X027926D01*
Y049615D01*
X027957D01*
Y049619D01*
X027971D01*
Y049624D01*
X027975D01*
Y049629D01*
X027980D01*
Y049633D01*
X027984D01*
Y049637D01*
X027989D01*
Y049642D01*
X027994D01*
Y049651D01*
X027998D01*
Y049692D01*
X027994D01*
Y049700D01*
X027989D01*
Y049710D01*
X027984D01*
Y049714D01*
X027980D01*
Y049718D01*
X027971D01*
Y049723D01*
X027957D01*
Y049728D01*
D02*
G37*
G36*
X029078Y049381D02*
X029051D01*
Y049377D01*
X029037D01*
Y049372D01*
X029028D01*
Y049367D01*
X029024D01*
Y049363D01*
X029019D01*
Y049359D01*
X029015D01*
Y049349D01*
X029011D01*
Y049341D01*
X029006D01*
Y049300D01*
X029011D01*
Y049291D01*
X029015D01*
Y049286D01*
X029019D01*
Y049282D01*
X029024D01*
Y049278D01*
X029033D01*
Y049273D01*
X029042D01*
Y049268D01*
X029074D01*
Y049273D01*
X029083D01*
Y049278D01*
X029091D01*
Y049282D01*
X029096D01*
Y049286D01*
X029100D01*
Y049291D01*
X029105D01*
Y049296D01*
X029109D01*
Y049304D01*
X029114D01*
Y049318D01*
X029118D01*
Y049336D01*
X029114D01*
Y049349D01*
X029109D01*
Y049359D01*
X029105D01*
Y049363D01*
X029100D01*
Y049367D01*
X029096D01*
Y049372D01*
X029091D01*
Y049377D01*
X029078D01*
Y049381D01*
D02*
G37*
G36*
X028263Y049363D02*
X028219D01*
Y049359D01*
X028210D01*
Y049354D01*
X028205D01*
Y049349D01*
X028201D01*
Y049341D01*
X028196D01*
Y049336D01*
X028191D01*
Y049323D01*
X028187D01*
Y049318D01*
Y049296D01*
X028191D01*
Y049282D01*
X028196D01*
Y049278D01*
X028201D01*
Y049273D01*
X028205D01*
Y049268D01*
X028210D01*
Y049264D01*
X028214D01*
Y049260D01*
X028223D01*
Y049255D01*
X028268D01*
Y049260D01*
X028277D01*
Y049264D01*
X028282D01*
Y049273D01*
X028286D01*
Y049278D01*
X028291D01*
Y049282D01*
X028295D01*
Y049296D01*
X028300D01*
Y049323D01*
X028295D01*
Y049336D01*
X028291D01*
Y049341D01*
X028286D01*
Y049349D01*
X028282D01*
Y049354D01*
X028273D01*
Y049359D01*
X028263D01*
Y049363D01*
D02*
G37*
G36*
X027665D02*
X027620D01*
Y049359D01*
X027611D01*
Y049354D01*
X027606D01*
Y049349D01*
X027602D01*
Y049345D01*
X027597D01*
Y049336D01*
X027593D01*
Y049327D01*
X027589D01*
Y049291D01*
X027593D01*
Y049282D01*
X027597D01*
Y049278D01*
X027602D01*
Y049268D01*
X027606D01*
Y049264D01*
X027615D01*
Y049260D01*
X027624D01*
Y049255D01*
X027669D01*
Y049260D01*
X027674D01*
Y049264D01*
X027678D01*
Y049268D01*
X027683D01*
Y049273D01*
X027687D01*
Y049278D01*
X027692D01*
Y049286D01*
X027696D01*
Y049296D01*
X027701D01*
Y049323D01*
X027696D01*
Y049331D01*
X027692D01*
Y049341D01*
X027687D01*
Y049345D01*
X027683D01*
Y049349D01*
X027678D01*
Y049354D01*
X027674D01*
Y049359D01*
X027665D01*
Y049363D01*
D02*
G37*
G36*
X029497Y048958D02*
X029469D01*
Y048953D01*
X029460D01*
Y048949D01*
X029451D01*
Y048945D01*
X029447D01*
Y048940D01*
X029443D01*
Y048935D01*
X029438D01*
Y048931D01*
X029434D01*
Y048922D01*
X029429D01*
Y048904D01*
X029425D01*
Y048895D01*
X029429D01*
Y048877D01*
X029434D01*
Y048868D01*
X029438D01*
Y048864D01*
X029443D01*
Y048859D01*
X029447D01*
Y048854D01*
X029451D01*
Y048850D01*
X029465D01*
Y048846D01*
X029497D01*
Y048850D01*
X029506D01*
Y048854D01*
X029515D01*
Y048859D01*
X029519D01*
Y048864D01*
X029523D01*
Y048868D01*
X029528D01*
Y048872D01*
X029532D01*
Y048886D01*
X029537D01*
Y048922D01*
X029532D01*
Y048931D01*
X029528D01*
Y048940D01*
X029523D01*
Y048945D01*
X029519D01*
Y048949D01*
X029510D01*
Y048953D01*
X029497D01*
Y048958D01*
D02*
G37*
G36*
X028317Y048882D02*
X028295D01*
Y048877D01*
X028282D01*
Y048872D01*
X028273D01*
Y048868D01*
X028268D01*
Y048864D01*
X028263D01*
Y048859D01*
X028259D01*
Y048854D01*
X028254D01*
Y048846D01*
X028250D01*
Y048828D01*
X028245D01*
Y048814D01*
X028250D01*
Y048801D01*
X028254D01*
Y048791D01*
X028259D01*
Y048787D01*
X028263D01*
Y048783D01*
X028268D01*
Y048778D01*
X028273D01*
Y048773D01*
X028282D01*
Y048769D01*
X028317D01*
Y048773D01*
X028326D01*
Y048778D01*
X028335D01*
Y048783D01*
X028340D01*
Y048787D01*
X028345D01*
Y048791D01*
X028349D01*
Y048796D01*
X028354D01*
Y048805D01*
X028358D01*
Y048846D01*
X028354D01*
Y048854D01*
X028349D01*
Y048864D01*
X028345D01*
Y048868D01*
X028335D01*
Y048872D01*
X028331D01*
Y048877D01*
X028317D01*
Y048882D01*
D02*
G37*
G36*
X029443Y048477D02*
X029411D01*
Y048472D01*
X029402D01*
Y048467D01*
X029393D01*
Y048463D01*
X029388D01*
Y048458D01*
X029384D01*
Y048454D01*
X029379D01*
Y048450D01*
X029375D01*
Y048440D01*
X029371D01*
Y048396D01*
X029375D01*
Y048391D01*
X029379D01*
Y048382D01*
X029384D01*
Y048377D01*
X029388D01*
Y048373D01*
X029393D01*
Y048369D01*
X029402D01*
Y048364D01*
X029416D01*
Y048359D01*
X029434D01*
Y048364D01*
X029451D01*
Y048369D01*
X029456D01*
Y048373D01*
X029465D01*
Y048377D01*
X029469D01*
Y048382D01*
X029474D01*
Y048391D01*
X029478D01*
Y048400D01*
X029483D01*
Y048436D01*
X029478D01*
Y048445D01*
X029474D01*
Y048454D01*
X029469D01*
Y048458D01*
X029465D01*
Y048463D01*
X029460D01*
Y048467D01*
X029451D01*
Y048472D01*
X029443D01*
Y048477D01*
D02*
G37*
G36*
X027643Y048463D02*
X027638D01*
Y048458D01*
X027620D01*
Y048454D01*
X027611D01*
Y048450D01*
X027602D01*
Y048445D01*
X027597D01*
Y048436D01*
X027593D01*
Y048432D01*
X027589D01*
Y048387D01*
X027593D01*
Y048377D01*
X027597D01*
Y048373D01*
X027602D01*
Y048364D01*
X027611D01*
Y048359D01*
X027615D01*
Y048355D01*
X027624D01*
Y048351D01*
X027665D01*
Y048355D01*
X027674D01*
Y048359D01*
X027678D01*
Y048364D01*
X027683D01*
Y048369D01*
X027687D01*
Y048373D01*
X027692D01*
Y048377D01*
X027696D01*
Y048422D01*
X027692D01*
Y048432D01*
X027687D01*
Y048440D01*
X027683D01*
Y048445D01*
X027674D01*
Y048450D01*
X027669D01*
Y048454D01*
X027661D01*
Y048458D01*
X027643D01*
Y048463D01*
D02*
G37*
G36*
X028939Y048409D02*
X028925D01*
Y048404D01*
X028911D01*
Y048400D01*
X028902D01*
Y048396D01*
X028893D01*
Y048391D01*
X028889D01*
Y048387D01*
X028884D01*
Y048377D01*
X028880D01*
Y048369D01*
X028876D01*
Y048328D01*
X028880D01*
Y048319D01*
X028884D01*
Y048314D01*
X028889D01*
Y048310D01*
X028893D01*
Y048306D01*
X028898D01*
Y048301D01*
X028907D01*
Y048296D01*
X028948D01*
Y048301D01*
X028956D01*
Y048306D01*
X028961D01*
Y048310D01*
X028965D01*
Y048314D01*
X028970D01*
Y048319D01*
X028974D01*
Y048323D01*
X028979D01*
Y048333D01*
X028984D01*
Y048373D01*
X028979D01*
Y048382D01*
X028974D01*
Y048391D01*
X028970D01*
Y048396D01*
X028961D01*
Y048400D01*
X028956D01*
Y048404D01*
X028939D01*
Y048409D01*
D02*
G37*
G36*
X027908Y047986D02*
X027868D01*
Y047982D01*
X027859D01*
Y047977D01*
X027854D01*
Y047972D01*
X027850D01*
Y047968D01*
X027845D01*
Y047964D01*
X027840D01*
Y047955D01*
X027836D01*
Y047941D01*
Y047937D01*
Y047914D01*
X027840D01*
Y047905D01*
X027845D01*
Y047896D01*
X027850D01*
Y047892D01*
X027854D01*
Y047887D01*
X027863D01*
Y047882D01*
X027872D01*
Y047878D01*
X027912D01*
Y047882D01*
X027922D01*
Y047887D01*
X027926D01*
Y047892D01*
X027931D01*
Y047896D01*
X027935D01*
Y047901D01*
X027940D01*
Y047909D01*
X027944D01*
Y047950D01*
X027940D01*
Y047959D01*
X027935D01*
Y047964D01*
X027931D01*
Y047968D01*
X027926D01*
Y047972D01*
X027922D01*
Y047977D01*
X027917D01*
Y047982D01*
X027908D01*
Y047986D01*
D02*
G37*
G36*
X029379Y047982D02*
X029334D01*
Y047977D01*
X029325D01*
Y047972D01*
X029321D01*
Y047968D01*
X029316D01*
Y047964D01*
X029312D01*
Y047959D01*
X029307D01*
Y047950D01*
X029303D01*
Y047941D01*
X029299D01*
Y047914D01*
X029303D01*
Y047901D01*
X029307D01*
Y047892D01*
X029312D01*
Y047887D01*
X029316D01*
Y047882D01*
X029325D01*
Y047878D01*
X029330D01*
Y047874D01*
X029371D01*
Y047878D01*
X029379D01*
Y047882D01*
X029388D01*
Y047887D01*
X029393D01*
Y047892D01*
X029397D01*
Y047896D01*
X029402D01*
Y047905D01*
X029406D01*
Y047914D01*
X029411D01*
Y047941D01*
X029406D01*
Y047955D01*
X029402D01*
Y047964D01*
X029397D01*
Y047968D01*
X029393D01*
Y047972D01*
X029388D01*
Y047977D01*
X029379D01*
Y047982D01*
D02*
G37*
G36*
X020172Y046995D02*
X020091D01*
Y046988D01*
X020071D01*
Y046981D01*
X020064D01*
Y046975D01*
X020058D01*
Y046968D01*
X020051D01*
Y046961D01*
X020044D01*
Y046954D01*
X020037D01*
Y046941D01*
X020031D01*
Y046927D01*
X020024D01*
Y046901D01*
X020017D01*
Y046880D01*
X020240D01*
Y046914D01*
X020233D01*
Y046934D01*
X020226D01*
Y046948D01*
X020219D01*
Y046954D01*
X020213D01*
Y046968D01*
X020206D01*
Y046975D01*
X020192D01*
Y046981D01*
X020186D01*
Y046988D01*
X020172D01*
Y046995D01*
D02*
G37*
G36*
X022308D02*
X022288D01*
Y046988D01*
X022255D01*
Y046981D01*
X022241D01*
Y046975D01*
X022234D01*
Y046968D01*
X022228D01*
Y046961D01*
X022221D01*
Y046954D01*
X022214D01*
Y046941D01*
X022207D01*
Y046927D01*
X022201D01*
Y046901D01*
X022194D01*
Y046759D01*
X022201D01*
Y046725D01*
X022207D01*
Y046712D01*
X022214D01*
Y046698D01*
X022221D01*
Y046692D01*
X022228D01*
Y046685D01*
X022234D01*
Y046678D01*
X022241D01*
Y046671D01*
X022261D01*
Y046665D01*
X022335D01*
Y046671D01*
X022356D01*
Y046678D01*
X022362D01*
Y046685D01*
X022369D01*
Y046692D01*
X022376D01*
Y046698D01*
X022383D01*
Y046712D01*
X022389D01*
Y046725D01*
X022396D01*
Y046759D01*
X022403D01*
Y046894D01*
X022396D01*
Y046927D01*
X022389D01*
Y046941D01*
X022383D01*
Y046954D01*
X022376D01*
Y046961D01*
X022369D01*
Y046968D01*
X022362D01*
Y046975D01*
X022356D01*
Y046981D01*
X022342D01*
Y046988D01*
X022308D01*
Y046995D01*
D02*
G37*
%LPD*%
D21*
X029045Y015453D02*
X029232D01*
X026280D02*
X026467D01*
X026280Y013514D02*
X029232D01*
X029816Y014439D02*
Y014372D01*
Y014406D01*
X029649D01*
X029616Y014372D01*
Y014339D01*
X029649Y014306D01*
X029816Y014639D02*
X029783Y014572D01*
X029716Y014506D01*
X029649D01*
X029616Y014539D01*
Y014606D01*
X029649Y014639D01*
X029683D01*
X029716Y014606D01*
Y014506D01*
D221*
X026280Y014656D02*
Y015453D01*
X029232Y014656D02*
Y015453D01*
Y013514D02*
Y013937D01*
X026280Y013514D02*
Y013937D01*
D222*
X027756Y013583D02*
D03*
M02*
