G04*
G04 #@! TF.GenerationSoftware,Altium Limited,Altium Designer,22.2.1 (43)*
G04*
G04 Layer_Color=8388736*
%FSAX24Y24*%
%MOIN*%
G70*
G04*
G04 #@! TF.SameCoordinates,07477AA8-A169-438C-A272-D3E418652323*
G04*
G04*
G04 #@! TF.FilePolarity,Negative*
G04*
G01*
G75*
%ADD36R,0.0691X0.0240*%
G04:AMPARAMS|DCode=37|XSize=69.1mil|YSize=24mil|CornerRadius=12mil|HoleSize=0mil|Usage=FLASHONLY|Rotation=0.000|XOffset=0mil|YOffset=0mil|HoleType=Round|Shape=RoundedRectangle|*
%AMROUNDEDRECTD37*
21,1,0.0691,0.0000,0,0,0.0*
21,1,0.0451,0.0240,0,0,0.0*
1,1,0.0240,0.0226,0.0000*
1,1,0.0240,-0.0226,0.0000*
1,1,0.0240,-0.0226,0.0000*
1,1,0.0240,0.0226,0.0000*
%
%ADD37ROUNDEDRECTD37*%
G04:AMPARAMS|DCode=41|XSize=48.7mil|YSize=8.4mil|CornerRadius=4.2mil|HoleSize=0mil|Usage=FLASHONLY|Rotation=180.000|XOffset=0mil|YOffset=0mil|HoleType=Round|Shape=RoundedRectangle|*
%AMROUNDEDRECTD41*
21,1,0.0487,0.0000,0,0,180.0*
21,1,0.0404,0.0084,0,0,180.0*
1,1,0.0084,-0.0202,0.0000*
1,1,0.0084,0.0202,0.0000*
1,1,0.0084,0.0202,0.0000*
1,1,0.0084,-0.0202,0.0000*
%
%ADD41ROUNDEDRECTD41*%
%ADD42R,0.0487X0.0084*%
G04:AMPARAMS|DCode=47|XSize=71.1mil|YSize=24.1mil|CornerRadius=12.1mil|HoleSize=0mil|Usage=FLASHONLY|Rotation=270.000|XOffset=0mil|YOffset=0mil|HoleType=Round|Shape=RoundedRectangle|*
%AMROUNDEDRECTD47*
21,1,0.0711,0.0000,0,0,270.0*
21,1,0.0470,0.0241,0,0,270.0*
1,1,0.0241,0.0000,-0.0235*
1,1,0.0241,0.0000,0.0235*
1,1,0.0241,0.0000,0.0235*
1,1,0.0241,0.0000,-0.0235*
%
%ADD47ROUNDEDRECTD47*%
%ADD48R,0.0241X0.0711*%
G04:AMPARAMS|DCode=49|XSize=71.1mil|YSize=24.1mil|CornerRadius=12.1mil|HoleSize=0mil|Usage=FLASHONLY|Rotation=0.000|XOffset=0mil|YOffset=0mil|HoleType=Round|Shape=RoundedRectangle|*
%AMROUNDEDRECTD49*
21,1,0.0711,0.0000,0,0,0.0*
21,1,0.0470,0.0241,0,0,0.0*
1,1,0.0241,0.0235,0.0000*
1,1,0.0241,-0.0235,0.0000*
1,1,0.0241,-0.0235,0.0000*
1,1,0.0241,0.0235,0.0000*
%
%ADD49ROUNDEDRECTD49*%
%ADD50R,0.0711X0.0241*%
%ADD52R,0.0787X0.1181*%
%ADD54R,0.0433X0.0748*%
%ADD55R,0.0394X0.0354*%
G04:AMPARAMS|DCode=59|XSize=65.3mil|YSize=24.7mil|CornerRadius=12.3mil|HoleSize=0mil|Usage=FLASHONLY|Rotation=180.000|XOffset=0mil|YOffset=0mil|HoleType=Round|Shape=RoundedRectangle|*
%AMROUNDEDRECTD59*
21,1,0.0653,0.0000,0,0,180.0*
21,1,0.0406,0.0247,0,0,180.0*
1,1,0.0247,-0.0203,0.0000*
1,1,0.0247,0.0203,0.0000*
1,1,0.0247,0.0203,0.0000*
1,1,0.0247,-0.0203,0.0000*
%
%ADD59ROUNDEDRECTD59*%
%ADD60R,0.0653X0.0247*%
%ADD61R,0.2000X0.0500*%
%ADD62R,0.0118X0.0118*%
%ADD63R,0.0118X0.0354*%
%ADD64R,0.0354X0.0118*%
%ADD67R,0.0827X0.0500*%
G04:AMPARAMS|DCode=69|XSize=31.5mil|YSize=94.5mil|CornerRadius=15.7mil|HoleSize=0mil|Usage=FLASHONLY|Rotation=270.000|XOffset=0mil|YOffset=0mil|HoleType=Round|Shape=RoundedRectangle|*
%AMROUNDEDRECTD69*
21,1,0.0315,0.0630,0,0,270.0*
21,1,0.0000,0.0945,0,0,270.0*
1,1,0.0315,-0.0315,0.0000*
1,1,0.0315,-0.0315,0.0000*
1,1,0.0315,0.0315,0.0000*
1,1,0.0315,0.0315,0.0000*
%
%ADD69ROUNDEDRECTD69*%
G04:AMPARAMS|DCode=70|XSize=94.5mil|YSize=31.5mil|CornerRadius=15.7mil|HoleSize=0mil|Usage=FLASHONLY|Rotation=270.000|XOffset=0mil|YOffset=0mil|HoleType=Round|Shape=RoundedRectangle|*
%AMROUNDEDRECTD70*
21,1,0.0945,0.0000,0,0,270.0*
21,1,0.0630,0.0315,0,0,270.0*
1,1,0.0315,0.0000,-0.0315*
1,1,0.0315,0.0000,0.0315*
1,1,0.0315,0.0000,0.0315*
1,1,0.0315,0.0000,-0.0315*
%
%ADD70ROUNDEDRECTD70*%
%ADD73R,0.0512X0.0433*%
%ADD74C,0.0364*%
%ADD75R,0.0433X0.0394*%
%ADD76R,0.0433X0.0354*%
%ADD80R,0.0217X0.0315*%
%ADD84R,0.0236X0.0512*%
%ADD92R,0.0610X0.0118*%
%ADD93R,0.1083X0.0472*%
%ADD94R,0.0098X0.0256*%
%ADD95R,0.0098X0.0256*%
%ADD96R,0.0098X0.0256*%
%ADD97R,0.0098X0.0256*%
%ADD98R,0.0651X0.0513*%
%ADD99R,0.0324X0.0308*%
%ADD100R,0.0415X0.0769*%
%ADD101R,0.0324X0.0324*%
%ADD102R,0.0669X0.0394*%
%ADD103R,0.0513X0.0946*%
%ADD104R,0.0474X0.0513*%
%ADD105R,0.0297X0.0493*%
%ADD106R,0.0324X0.0324*%
%ADD107R,0.0308X0.0324*%
%ADD108R,0.0316X0.0316*%
%ADD109R,0.0159X0.0356*%
%ADD110R,0.0572X0.1655*%
G04:AMPARAMS|DCode=111|XSize=15.9mil|YSize=30.2mil|CornerRadius=6mil|HoleSize=0mil|Usage=FLASHONLY|Rotation=90.000|XOffset=0mil|YOffset=0mil|HoleType=Round|Shape=RoundedRectangle|*
%AMROUNDEDRECTD111*
21,1,0.0159,0.0183,0,0,90.0*
21,1,0.0039,0.0302,0,0,90.0*
1,1,0.0119,0.0092,0.0020*
1,1,0.0119,0.0092,-0.0020*
1,1,0.0119,-0.0092,-0.0020*
1,1,0.0119,-0.0092,0.0020*
%
%ADD111ROUNDEDRECTD111*%
G04:AMPARAMS|DCode=112|XSize=23.7mil|YSize=30.2mil|CornerRadius=6mil|HoleSize=0mil|Usage=FLASHONLY|Rotation=90.000|XOffset=0mil|YOffset=0mil|HoleType=Round|Shape=RoundedRectangle|*
%AMROUNDEDRECTD112*
21,1,0.0237,0.0183,0,0,90.0*
21,1,0.0118,0.0302,0,0,90.0*
1,1,0.0119,0.0092,0.0059*
1,1,0.0119,0.0092,-0.0059*
1,1,0.0119,-0.0092,-0.0059*
1,1,0.0119,-0.0092,0.0059*
%
%ADD112ROUNDEDRECTD112*%
%ADD113R,0.0190X0.1104*%
%ADD114R,0.0257X0.0661*%
%ADD115R,0.1560X0.1560*%
%ADD116R,0.0709X0.0709*%
%ADD117R,0.0474X0.0474*%
%ADD118R,0.0946X0.0690*%
%ADD119R,0.0474X0.0474*%
%ADD120R,0.0493X0.0631*%
%ADD121R,0.0513X0.0651*%
%ADD122R,0.0237X0.0434*%
%ADD123R,0.0474X0.0316*%
%ADD124R,0.0789X0.0572*%
%ADD125R,0.0631X0.0533*%
%ADD126R,0.0434X0.0395*%
%ADD127R,0.0631X0.0493*%
%ADD128R,0.0356X0.0245*%
%ADD129R,0.0293X0.0245*%
%ADD130R,0.0753X0.1013*%
G04:AMPARAMS|DCode=131|XSize=15.9mil|YSize=30.2mil|CornerRadius=6mil|HoleSize=0mil|Usage=FLASHONLY|Rotation=0.000|XOffset=0mil|YOffset=0mil|HoleType=Round|Shape=RoundedRectangle|*
%AMROUNDEDRECTD131*
21,1,0.0159,0.0183,0,0,0.0*
21,1,0.0039,0.0302,0,0,0.0*
1,1,0.0119,0.0020,-0.0092*
1,1,0.0119,-0.0020,-0.0092*
1,1,0.0119,-0.0020,0.0092*
1,1,0.0119,0.0020,0.0092*
%
%ADD131ROUNDEDRECTD131*%
G04:AMPARAMS|DCode=132|XSize=23.7mil|YSize=30.2mil|CornerRadius=6mil|HoleSize=0mil|Usage=FLASHONLY|Rotation=0.000|XOffset=0mil|YOffset=0mil|HoleType=Round|Shape=RoundedRectangle|*
%AMROUNDEDRECTD132*
21,1,0.0237,0.0183,0,0,0.0*
21,1,0.0118,0.0302,0,0,0.0*
1,1,0.0119,0.0059,-0.0092*
1,1,0.0119,-0.0059,-0.0092*
1,1,0.0119,-0.0059,0.0092*
1,1,0.0119,0.0059,0.0092*
%
%ADD132ROUNDEDRECTD132*%
%ADD133O,0.0434X0.0190*%
%ADD134O,0.0190X0.0434*%
%ADD135R,0.1537X0.1537*%
%ADD136O,0.1852X0.0789*%
%ADD137O,0.0789X0.1655*%
%ADD138O,0.1655X0.0789*%
%ADD139C,0.2442*%
%ADD140C,0.0710*%
%ADD141R,0.0710X0.0710*%
%ADD142C,0.0493*%
%ADD143O,0.0434X0.0710*%
%ADD144C,0.0639*%
%ADD145C,0.1438*%
%ADD146C,0.2049*%
%ADD147C,0.0620*%
%ADD148C,0.1360*%
%ADD149C,0.0755*%
%ADD150C,0.1010*%
%ADD151C,0.0680*%
%ADD152R,0.0680X0.0680*%
%ADD153C,0.0671*%
%ADD154O,0.0671X0.1379*%
%ADD155O,0.0671X0.1143*%
%ADD156C,0.0630*%
%ADD157C,0.0433*%
G36*
X045925Y023681D02*
X045728Y023484D01*
X045413D01*
Y023917D01*
X045925D01*
Y023681D01*
D02*
G37*
G36*
X050059D02*
X049862Y023484D01*
X049547D01*
Y023917D01*
X050059D01*
Y023681D01*
D02*
G37*
D36*
X036575Y023681D02*
D03*
D37*
Y023307D02*
D03*
Y022933D02*
D03*
X037500D02*
D03*
Y023681D02*
D03*
D41*
X033576Y023465D02*
D03*
Y023661D02*
D03*
Y023858D02*
D03*
Y024055D02*
D03*
Y024252D02*
D03*
X035164D02*
D03*
Y024055D02*
D03*
Y023858D02*
D03*
Y023661D02*
D03*
D42*
Y023465D02*
D03*
D47*
X023110Y017264D02*
D03*
X022362D02*
D03*
Y018169D02*
D03*
X022736D02*
D03*
D48*
X023110D02*
D03*
D49*
X025442Y021055D02*
D03*
Y020307D02*
D03*
X024536D02*
D03*
Y020681D02*
D03*
D50*
Y021055D02*
D03*
D52*
X021260Y035630D02*
D03*
X018898D02*
D03*
D54*
X020866Y037106D02*
D03*
X019882D02*
D03*
D55*
X050320Y046117D02*
D03*
X049680D02*
D03*
Y046599D02*
D03*
X050320D02*
D03*
D59*
X020491Y041372D02*
D03*
X021260Y041732D02*
D03*
D60*
Y041012D02*
D03*
D61*
X015354Y034848D02*
D03*
Y043498D02*
D03*
D62*
X045571Y030118D02*
D03*
X044586D02*
D03*
X045571Y031102D02*
D03*
X044586D02*
D03*
D63*
X044783Y031220D02*
D03*
X044980D02*
D03*
X045177D02*
D03*
X045374D02*
D03*
Y030000D02*
D03*
X045177D02*
D03*
X044980D02*
D03*
X044783D02*
D03*
D64*
X045689Y030905D02*
D03*
Y030709D02*
D03*
Y030512D02*
D03*
Y030315D02*
D03*
X044468D02*
D03*
Y030512D02*
D03*
Y030709D02*
D03*
Y030905D02*
D03*
D67*
X013386Y026569D02*
D03*
Y025006D02*
D03*
D69*
X045394Y036181D02*
D03*
Y036654D02*
D03*
Y037126D02*
D03*
Y037598D02*
D03*
Y038071D02*
D03*
Y038543D02*
D03*
Y039016D02*
D03*
D70*
X050669Y035374D02*
D03*
X050197D02*
D03*
X049724D02*
D03*
X049252D02*
D03*
X048780D02*
D03*
X048307D02*
D03*
X047835D02*
D03*
X047362D02*
D03*
X046890D02*
D03*
X046417D02*
D03*
X045945D02*
D03*
X045472D02*
D03*
Y039823D02*
D03*
X045945D02*
D03*
X046417D02*
D03*
X046890D02*
D03*
X047362D02*
D03*
X047835D02*
D03*
X048307D02*
D03*
X048780D02*
D03*
X049252D02*
D03*
X049724D02*
D03*
X050197D02*
D03*
X050669D02*
D03*
D73*
X049803Y024724D02*
D03*
X049213D02*
D03*
X048622D02*
D03*
Y024213D02*
D03*
X049213D02*
D03*
X049803D02*
D03*
X049213Y023701D02*
D03*
X048622D02*
D03*
X045669Y024724D02*
D03*
X045079D02*
D03*
X044488D02*
D03*
Y024213D02*
D03*
X045079D02*
D03*
X045669D02*
D03*
X045079Y023701D02*
D03*
X044488D02*
D03*
D74*
X049785Y023715D02*
D03*
X045651D02*
D03*
D75*
X048839Y022500D02*
D03*
X048327D02*
D03*
X047815D02*
D03*
X048839Y022972D02*
D03*
X048327D02*
D03*
X047815D02*
D03*
Y025925D02*
D03*
X048327D02*
D03*
X048839D02*
D03*
X047815Y025453D02*
D03*
X048327D02*
D03*
X048839D02*
D03*
X049587D02*
D03*
X050098D02*
D03*
X050610D02*
D03*
X049587Y025925D02*
D03*
X050098D02*
D03*
X050610D02*
D03*
X049587Y022972D02*
D03*
X050098D02*
D03*
X050610D02*
D03*
X049587Y022500D02*
D03*
X050098D02*
D03*
X050610D02*
D03*
X044705D02*
D03*
X044193D02*
D03*
X043681D02*
D03*
X044705Y022972D02*
D03*
X044193D02*
D03*
X043681D02*
D03*
Y025925D02*
D03*
X044193D02*
D03*
X044705D02*
D03*
X043681Y025453D02*
D03*
X044193D02*
D03*
X044705D02*
D03*
X045453D02*
D03*
X045965D02*
D03*
X046476D02*
D03*
X045453Y025925D02*
D03*
X045965D02*
D03*
X046476D02*
D03*
X045453Y022972D02*
D03*
X045965D02*
D03*
X046476D02*
D03*
X045453Y022500D02*
D03*
X045965D02*
D03*
X046476D02*
D03*
D76*
X047815Y023583D02*
D03*
Y024213D02*
D03*
Y024843D02*
D03*
X050610D02*
D03*
Y024213D02*
D03*
Y023583D02*
D03*
X043681D02*
D03*
Y024213D02*
D03*
Y024843D02*
D03*
X046476D02*
D03*
Y024213D02*
D03*
Y023583D02*
D03*
D80*
X028720Y017638D02*
D03*
X028346D02*
D03*
X027972D02*
D03*
Y018583D02*
D03*
X028346D02*
D03*
X028720D02*
D03*
D84*
X020018Y040118D02*
D03*
X020518D02*
D03*
X021018D02*
D03*
X021518D02*
D03*
Y038031D02*
D03*
X021018D02*
D03*
X020518D02*
D03*
X020018D02*
D03*
D92*
X045020Y044488D02*
D03*
Y044685D02*
D03*
Y044882D02*
D03*
Y045079D02*
D03*
Y046063D02*
D03*
Y046260D02*
D03*
Y046457D02*
D03*
Y046654D02*
D03*
Y046850D02*
D03*
Y047047D02*
D03*
Y047244D02*
D03*
Y047441D02*
D03*
Y047638D02*
D03*
Y047835D02*
D03*
Y048032D02*
D03*
Y048228D02*
D03*
Y048425D02*
D03*
Y048622D02*
D03*
Y048819D02*
D03*
Y049016D02*
D03*
Y049213D02*
D03*
Y049409D02*
D03*
Y049606D02*
D03*
Y049803D02*
D03*
Y050000D02*
D03*
Y050197D02*
D03*
Y050394D02*
D03*
Y050591D02*
D03*
Y050787D02*
D03*
Y050984D02*
D03*
Y051181D02*
D03*
Y051378D02*
D03*
Y051575D02*
D03*
X047992Y044390D02*
D03*
Y044587D02*
D03*
Y044783D02*
D03*
Y044980D02*
D03*
Y045177D02*
D03*
Y046161D02*
D03*
Y046358D02*
D03*
Y046555D02*
D03*
Y046752D02*
D03*
Y046949D02*
D03*
Y047146D02*
D03*
Y047343D02*
D03*
Y047539D02*
D03*
Y047736D02*
D03*
Y047933D02*
D03*
Y048130D02*
D03*
Y048327D02*
D03*
Y048524D02*
D03*
Y048720D02*
D03*
Y048917D02*
D03*
Y049114D02*
D03*
Y049311D02*
D03*
Y049508D02*
D03*
Y049705D02*
D03*
Y049902D02*
D03*
Y050098D02*
D03*
Y050295D02*
D03*
Y050492D02*
D03*
Y050689D02*
D03*
Y050886D02*
D03*
Y051083D02*
D03*
Y051280D02*
D03*
Y051476D02*
D03*
Y051673D02*
D03*
D93*
X047687Y043957D02*
D03*
Y052106D02*
D03*
D94*
X012206Y046470D02*
D03*
X012600Y045505D02*
D03*
D95*
X012403Y046470D02*
D03*
X012797Y045505D02*
D03*
D96*
X012600Y046470D02*
D03*
X012797Y046470D02*
D03*
D97*
X012403Y045505D02*
D03*
X012206Y045505D02*
D03*
D98*
X021260Y033504D02*
D03*
Y034213D02*
D03*
X043898Y037835D02*
D03*
Y038543D02*
D03*
X043110Y042756D02*
D03*
Y043465D02*
D03*
X044094Y042756D02*
D03*
Y043465D02*
D03*
D99*
X047146Y024028D02*
D03*
Y024398D02*
D03*
X024000Y017215D02*
D03*
Y017585D02*
D03*
X013300Y047035D02*
D03*
Y046665D02*
D03*
X024400Y017215D02*
D03*
Y017585D02*
D03*
X035433Y022823D02*
D03*
Y022453D02*
D03*
X034961Y022453D02*
D03*
Y022823D02*
D03*
X044980Y029047D02*
D03*
Y029417D02*
D03*
X045374Y029047D02*
D03*
Y029417D02*
D03*
X047736Y021272D02*
D03*
Y021642D02*
D03*
X047343D02*
D03*
Y021272D02*
D03*
X027362Y017902D02*
D03*
Y017531D02*
D03*
X031272Y021643D02*
D03*
Y021272D02*
D03*
X046949Y021642D02*
D03*
Y021272D02*
D03*
X042815Y022858D02*
D03*
Y023228D02*
D03*
X049016Y017138D02*
D03*
Y017508D02*
D03*
X021260Y027941D02*
D03*
Y027571D02*
D03*
X015453Y026858D02*
D03*
Y026488D02*
D03*
D100*
X012984Y023583D02*
D03*
X013984D02*
D03*
Y021299D02*
D03*
X012984D02*
D03*
X012886Y017559D02*
D03*
X013886D02*
D03*
Y019843D02*
D03*
X012886D02*
D03*
D101*
X013300Y045923D02*
D03*
Y046277D02*
D03*
X026240Y020689D02*
D03*
Y021043D02*
D03*
X044488Y038209D02*
D03*
Y038563D02*
D03*
Y029055D02*
D03*
Y029409D02*
D03*
X044094Y029055D02*
D03*
Y029409D02*
D03*
X031666Y021292D02*
D03*
Y021646D02*
D03*
X031260Y020886D02*
D03*
Y020531D02*
D03*
X029291Y020768D02*
D03*
Y021122D02*
D03*
X049409Y017500D02*
D03*
Y017146D02*
D03*
X015059Y026850D02*
D03*
Y026496D02*
D03*
X015846Y026850D02*
D03*
Y026496D02*
D03*
X044882Y042933D02*
D03*
Y043287D02*
D03*
X044291Y052539D02*
D03*
Y052185D02*
D03*
X043898Y052539D02*
D03*
Y052185D02*
D03*
D102*
X012502Y045987D02*
D03*
D103*
X050321Y033070D02*
D03*
X049179D02*
D03*
D104*
X049750Y033700D02*
D03*
D105*
X042026Y042415D02*
D03*
X041652D02*
D03*
X041278D02*
D03*
Y043439D02*
D03*
X041652D02*
D03*
X042026D02*
D03*
D106*
X023406Y020394D02*
D03*
X023760D02*
D03*
X028465Y022441D02*
D03*
X028819D02*
D03*
X020335Y040748D02*
D03*
X019980D02*
D03*
X039547Y023720D02*
D03*
X039193D02*
D03*
X031208Y024973D02*
D03*
X031562D02*
D03*
X032854Y023504D02*
D03*
X032500D02*
D03*
X030224Y024973D02*
D03*
X030578D02*
D03*
X029154Y021772D02*
D03*
X029508D02*
D03*
X022524Y021358D02*
D03*
X022170D02*
D03*
X022524Y021850D02*
D03*
X022170D02*
D03*
D107*
X023768Y020000D02*
D03*
X023398D02*
D03*
X049673Y045630D02*
D03*
X049303D02*
D03*
X027079Y014665D02*
D03*
X027449D02*
D03*
X022453D02*
D03*
X022823D02*
D03*
X023398Y020787D02*
D03*
X023768D02*
D03*
X049673Y045197D02*
D03*
X049303D02*
D03*
X028457Y023228D02*
D03*
X028827D02*
D03*
X028457Y022835D02*
D03*
X028827D02*
D03*
X028457Y022047D02*
D03*
X028827D02*
D03*
X028442Y023635D02*
D03*
X028812D02*
D03*
X049673Y044724D02*
D03*
X049303D02*
D03*
D108*
X026890Y014059D02*
D03*
X027441D02*
D03*
X022264D02*
D03*
X022815D02*
D03*
D109*
X029803Y026772D02*
D03*
Y027984D02*
D03*
X029961Y026772D02*
D03*
Y027984D02*
D03*
X030118Y026772D02*
D03*
Y027984D02*
D03*
X030276Y026772D02*
D03*
Y027984D02*
D03*
X030433Y026772D02*
D03*
Y027984D02*
D03*
X030591Y026772D02*
D03*
Y027984D02*
D03*
X030748Y026772D02*
D03*
Y027984D02*
D03*
X030906Y026772D02*
D03*
Y027984D02*
D03*
X031063Y026772D02*
D03*
Y027984D02*
D03*
X031220Y026772D02*
D03*
Y027984D02*
D03*
X031378Y026772D02*
D03*
Y027984D02*
D03*
X031535Y026772D02*
D03*
Y027984D02*
D03*
X031693Y026772D02*
D03*
Y027984D02*
D03*
X031850Y026772D02*
D03*
Y027984D02*
D03*
X032008Y026772D02*
D03*
Y027984D02*
D03*
X032165Y026772D02*
D03*
Y027984D02*
D03*
X032323Y026772D02*
D03*
Y027984D02*
D03*
X032480Y026772D02*
D03*
Y027984D02*
D03*
X032638Y026772D02*
D03*
Y027984D02*
D03*
X032795Y026772D02*
D03*
Y027984D02*
D03*
X032953Y026772D02*
D03*
Y027984D02*
D03*
X033110Y026772D02*
D03*
Y027984D02*
D03*
X033268Y026772D02*
D03*
Y027984D02*
D03*
X033425Y026772D02*
D03*
Y027984D02*
D03*
X033583Y026772D02*
D03*
Y027984D02*
D03*
X033740Y026772D02*
D03*
Y027984D02*
D03*
X033898Y026772D02*
D03*
Y027984D02*
D03*
X034055Y026772D02*
D03*
Y027984D02*
D03*
X034213Y026772D02*
D03*
Y027984D02*
D03*
X034370Y026772D02*
D03*
Y027984D02*
D03*
X034528Y026772D02*
D03*
Y027984D02*
D03*
X034685Y026772D02*
D03*
Y027984D02*
D03*
X034843Y026772D02*
D03*
Y027984D02*
D03*
X035000Y026772D02*
D03*
Y027984D02*
D03*
X035157Y026772D02*
D03*
Y027984D02*
D03*
X035315Y026772D02*
D03*
Y027984D02*
D03*
X035472Y026772D02*
D03*
Y027984D02*
D03*
X035630Y026772D02*
D03*
Y027984D02*
D03*
X035787Y026772D02*
D03*
Y027984D02*
D03*
X035945Y026772D02*
D03*
Y027984D02*
D03*
X036102Y026772D02*
D03*
Y027984D02*
D03*
X036260Y026772D02*
D03*
Y027984D02*
D03*
X036417Y026772D02*
D03*
Y027984D02*
D03*
X036575Y026772D02*
D03*
Y027984D02*
D03*
X036732Y026772D02*
D03*
Y027984D02*
D03*
X036890Y026772D02*
D03*
Y027984D02*
D03*
X037047Y026772D02*
D03*
Y027984D02*
D03*
X037205Y026772D02*
D03*
Y027984D02*
D03*
X037362Y026772D02*
D03*
Y027984D02*
D03*
X037520Y026772D02*
D03*
Y027984D02*
D03*
X029803Y040126D02*
D03*
Y041339D02*
D03*
X029961Y040126D02*
D03*
Y041339D02*
D03*
X030118Y040126D02*
D03*
Y041339D02*
D03*
X030276Y040126D02*
D03*
Y041339D02*
D03*
X030433Y040126D02*
D03*
Y041339D02*
D03*
X030591Y040126D02*
D03*
Y041339D02*
D03*
X030748Y040126D02*
D03*
Y041339D02*
D03*
X030906Y040126D02*
D03*
Y041339D02*
D03*
X031063Y040126D02*
D03*
Y041339D02*
D03*
X031220Y040126D02*
D03*
Y041339D02*
D03*
X031378Y040126D02*
D03*
Y041339D02*
D03*
X031535Y040126D02*
D03*
Y041339D02*
D03*
X031693Y040126D02*
D03*
Y041339D02*
D03*
X031850Y040126D02*
D03*
Y041339D02*
D03*
X032008Y040126D02*
D03*
Y041339D02*
D03*
X032165Y040126D02*
D03*
Y041339D02*
D03*
X032323Y040126D02*
D03*
Y041339D02*
D03*
X032480Y040126D02*
D03*
Y041339D02*
D03*
X032638Y040126D02*
D03*
Y041339D02*
D03*
X032795Y040126D02*
D03*
Y041339D02*
D03*
X032953Y040126D02*
D03*
Y041339D02*
D03*
X033110Y040126D02*
D03*
Y041339D02*
D03*
X033268Y040126D02*
D03*
Y041339D02*
D03*
X033425Y040126D02*
D03*
Y041339D02*
D03*
X033583Y040126D02*
D03*
Y041339D02*
D03*
X033740Y040126D02*
D03*
Y041339D02*
D03*
X033898Y040126D02*
D03*
Y041339D02*
D03*
X034055Y040126D02*
D03*
Y041339D02*
D03*
X034213Y040126D02*
D03*
Y041339D02*
D03*
X034370Y040126D02*
D03*
Y041339D02*
D03*
X034528Y040126D02*
D03*
Y041339D02*
D03*
X034685Y040126D02*
D03*
Y041339D02*
D03*
X034843Y040126D02*
D03*
Y041339D02*
D03*
X035000Y040126D02*
D03*
Y041339D02*
D03*
X035157Y040126D02*
D03*
Y041339D02*
D03*
X035315Y040126D02*
D03*
Y041339D02*
D03*
X035472Y040126D02*
D03*
Y041339D02*
D03*
X035630Y040126D02*
D03*
Y041339D02*
D03*
X035787Y040126D02*
D03*
Y041339D02*
D03*
X035945Y040126D02*
D03*
Y041339D02*
D03*
X036102Y040126D02*
D03*
Y041339D02*
D03*
X036260Y040126D02*
D03*
Y041339D02*
D03*
X036417Y040126D02*
D03*
Y041339D02*
D03*
X036575Y040126D02*
D03*
Y041339D02*
D03*
X036732Y040126D02*
D03*
Y041339D02*
D03*
X036890Y040126D02*
D03*
Y041339D02*
D03*
X037047Y040126D02*
D03*
Y041339D02*
D03*
X037205Y040126D02*
D03*
Y041339D02*
D03*
X037362Y040126D02*
D03*
Y041339D02*
D03*
X037520Y040126D02*
D03*
Y041339D02*
D03*
D110*
X013811Y033760D02*
D03*
X012811D02*
D03*
Y028248D02*
D03*
X013811D02*
D03*
X019193D02*
D03*
X020193D02*
D03*
X019193Y033760D02*
D03*
X020193D02*
D03*
D111*
X024049Y024114D02*
D03*
Y023917D02*
D03*
Y023524D02*
D03*
Y023327D02*
D03*
X023720D02*
D03*
Y023524D02*
D03*
Y023917D02*
D03*
Y024114D02*
D03*
X023753Y025591D02*
D03*
Y025394D02*
D03*
Y025000D02*
D03*
Y024803D02*
D03*
X024082D02*
D03*
Y025000D02*
D03*
Y025394D02*
D03*
Y025591D02*
D03*
D112*
X024049Y023720D02*
D03*
X023720D02*
D03*
X023753Y025197D02*
D03*
X024082D02*
D03*
D113*
X038386Y017451D02*
D03*
X038583D02*
D03*
X038780D02*
D03*
X038976D02*
D03*
X039173D02*
D03*
X039370D02*
D03*
X039567D02*
D03*
X039764D02*
D03*
X039961D02*
D03*
X040157D02*
D03*
X040354D02*
D03*
X040551D02*
D03*
X040748D02*
D03*
X040945D02*
D03*
X041142D02*
D03*
X041339D02*
D03*
X041535D02*
D03*
X041732D02*
D03*
X041929D02*
D03*
D114*
X040167Y020694D02*
D03*
X039911D02*
D03*
X039656D02*
D03*
X039400D02*
D03*
X039144D02*
D03*
X038888D02*
D03*
X038632D02*
D03*
X038376D02*
D03*
Y023007D02*
D03*
X038632D02*
D03*
X038888D02*
D03*
X039144D02*
D03*
X039400D02*
D03*
X039656D02*
D03*
X039911D02*
D03*
X040167D02*
D03*
D115*
X015354Y039173D02*
D03*
D116*
X045079Y030610D02*
D03*
D117*
X012402Y026772D02*
D03*
Y026181D02*
D03*
Y025591D02*
D03*
Y025000D02*
D03*
X026831Y017323D02*
D03*
D118*
X043976Y019488D02*
D03*
X045591D02*
D03*
D119*
X017618Y027657D02*
D03*
X017028D02*
D03*
X016339D02*
D03*
X015748D02*
D03*
D120*
X049055Y028543D02*
D03*
X049764D02*
D03*
X047795Y027756D02*
D03*
X047087D02*
D03*
X049055D02*
D03*
X049764D02*
D03*
X047795Y026969D02*
D03*
X047087D02*
D03*
X049055D02*
D03*
X049764D02*
D03*
X028189Y015827D02*
D03*
X028898D02*
D03*
X028189Y015039D02*
D03*
X028898D02*
D03*
X028701Y019331D02*
D03*
X027992D02*
D03*
D121*
X050748Y021457D02*
D03*
X050039D02*
D03*
X048661D02*
D03*
X049370D02*
D03*
X044724Y020669D02*
D03*
X045433D02*
D03*
X044743Y021442D02*
D03*
X045451D02*
D03*
X042559Y052362D02*
D03*
X043268D02*
D03*
D122*
X025453Y018563D02*
D03*
X025138D02*
D03*
X025453Y019232D02*
D03*
X025138D02*
D03*
D123*
X025925Y017244D02*
D03*
Y017992D02*
D03*
X026831D02*
D03*
D124*
X028858Y016732D02*
D03*
X027835D02*
D03*
D125*
X030709Y020591D02*
D03*
X029843D02*
D03*
Y021220D02*
D03*
X030709D02*
D03*
D126*
X050000Y017500D02*
D03*
Y016752D02*
D03*
X050787Y017126D02*
D03*
D127*
X044685Y026909D02*
D03*
Y027618D02*
D03*
X043898Y026909D02*
D03*
Y027618D02*
D03*
X042618Y024862D02*
D03*
Y024154D02*
D03*
X041043Y024862D02*
D03*
Y024154D02*
D03*
X041831Y024862D02*
D03*
Y024154D02*
D03*
D128*
X050000Y018150D02*
D03*
Y018406D02*
D03*
Y018661D02*
D03*
Y018917D02*
D03*
D129*
X048787D02*
D03*
Y018661D02*
D03*
Y018406D02*
D03*
Y018150D02*
D03*
D130*
X049230Y018533D02*
D03*
D131*
X033465Y020440D02*
D03*
X033268D02*
D03*
X032874D02*
D03*
X032677D02*
D03*
Y020111D02*
D03*
X032874D02*
D03*
X033268D02*
D03*
X033465D02*
D03*
D132*
X033071Y020440D02*
D03*
Y020111D02*
D03*
D133*
X031863Y022650D02*
D03*
Y022847D02*
D03*
Y023044D02*
D03*
Y023241D02*
D03*
Y023438D02*
D03*
Y023635D02*
D03*
Y023832D02*
D03*
Y024028D02*
D03*
Y024225D02*
D03*
X029698D02*
D03*
Y024028D02*
D03*
Y023832D02*
D03*
Y023635D02*
D03*
Y023438D02*
D03*
Y023241D02*
D03*
Y023044D02*
D03*
Y022847D02*
D03*
Y022650D02*
D03*
D134*
X031568Y024520D02*
D03*
X031371D02*
D03*
X031174D02*
D03*
X030977D02*
D03*
X030780D02*
D03*
X030583D02*
D03*
X030387D02*
D03*
X030190D02*
D03*
X029993D02*
D03*
Y022355D02*
D03*
X030190D02*
D03*
X030387D02*
D03*
X030583D02*
D03*
X030780D02*
D03*
X030977D02*
D03*
X031174D02*
D03*
X031371D02*
D03*
X031568D02*
D03*
D135*
X030780Y023438D02*
D03*
D136*
X046260Y018327D02*
D03*
D137*
X048150Y017185D02*
D03*
D138*
X046260Y015945D02*
D03*
D139*
X015108Y048032D02*
D03*
X013189Y015157D02*
D03*
X049803D02*
D03*
Y051772D02*
D03*
X013189D02*
D03*
D140*
X025878Y042913D02*
D03*
D141*
X026878D02*
D03*
D142*
X047654Y041687D02*
D03*
Y041187D02*
D03*
X047154Y041687D02*
D03*
X046654D02*
D03*
X047154Y041187D02*
D03*
X046654D02*
D03*
X046154Y041687D02*
D03*
X045654D02*
D03*
X046154Y041187D02*
D03*
X045654D02*
D03*
D143*
X026457Y014301D02*
D03*
X029055D02*
D03*
D144*
X031299Y019138D02*
D03*
X034055D02*
D03*
X033071D02*
D03*
X032283D02*
D03*
X033071Y018106D02*
D03*
X032283D02*
D03*
X034055D02*
D03*
X031299D02*
D03*
D145*
X030091Y019276D02*
D03*
X035264D02*
D03*
Y017039D02*
D03*
X030091D02*
D03*
D146*
X042126Y040551D02*
D03*
X023228Y027559D02*
D03*
X042126D02*
D03*
X023228Y040551D02*
D03*
D147*
X015910Y019923D02*
D03*
X020310D02*
D03*
X015910Y020523D02*
D03*
X020310D02*
D03*
D148*
X015610Y017323D02*
D03*
X020610D02*
D03*
D149*
X015710Y025323D02*
D03*
X019510D02*
D03*
X016710D02*
D03*
X020510D02*
D03*
D150*
X014935Y016073D02*
D03*
X021285D02*
D03*
D151*
X020510Y024323D02*
D03*
X016110Y023323D02*
D03*
X015710Y024323D02*
D03*
X019710D02*
D03*
X018910D02*
D03*
X018510Y023323D02*
D03*
X019310D02*
D03*
X017710D02*
D03*
X016910D02*
D03*
X016510Y024323D02*
D03*
X017310D02*
D03*
D152*
X020110Y023323D02*
D03*
D153*
X023408Y015884D02*
D03*
X023900Y014900D02*
D03*
X025672D02*
D03*
X026164Y015884D02*
D03*
D154*
X037303Y017136D02*
D03*
X043012D02*
D03*
D155*
X037303Y014774D02*
D03*
X043012D02*
D03*
D156*
X045915Y044094D02*
D03*
D157*
Y051968D02*
D03*
M02*
