G04*
G04 #@! TF.GenerationSoftware,Altium Limited,Altium Designer,22.2.1 (43)*
G04*
G04 Layer_Physical_Order=2*
G04 Layer_Color=32768*
%FSAX24Y24*%
%MOIN*%
G70*
G04*
G04 #@! TF.SameCoordinates,07477AA8-A169-438C-A272-D3E418652323*
G04*
G04*
G04 #@! TF.FilePolarity,Negative*
G04*
G01*
G75*
%ADD161C,0.0400*%
%ADD181C,0.0600*%
%ADD188R,0.2000X0.3000*%
%ADD189O,0.1460X0.0594*%
%ADD190O,0.0594X0.1381*%
%AMTHOVALD191*
21,1,0.0856,0.0994,0,0,180.0*
1,1,0.0994,0.0428,0.0000*
1,1,0.0994,-0.0428,0.0000*
21,0,0.0856,0.0794,0,0,180.0*
1,0,0.0794,0.0428,0.0000*
1,0,0.0794,-0.0428,0.0000*
4,0,4,0.0393,0.0035,0.0744,0.0387,0.0815,0.0316,0.0464,-0.0035,0.0393,0.0035,0.0*
4,0,4,-0.0464,0.0035,-0.0815,-0.0316,-0.0744,-0.0387,-0.0393,-0.0035,-0.0464,0.0035,0.0*
4,0,4,0.0464,0.0035,0.0815,-0.0316,0.0744,-0.0387,0.0393,-0.0035,0.0464,0.0035,0.0*
4,0,4,-0.0393,0.0035,-0.0744,0.0387,-0.0815,0.0316,-0.0464,-0.0035,-0.0393,0.0035,0.0*
%
%ADD191THOVALD191*%

%ADD192C,0.1657*%
G04:AMPARAMS|DCode=193|XSize=103.307mil|YSize=103.307mil|CornerRadius=0mil|HoleSize=0mil|Usage=FLASHONLY|Rotation=0.000|XOffset=0mil|YOffset=0mil|HoleType=Round|Shape=Relief|Width=10mil|Gap=10mil|Entries=4|*
%AMTHD193*
7,0,0,0.1033,0.0833,0.0100,45*
%
%ADD193THD193*%
%ADD194C,0.0633*%
%ADD195C,0.0476*%
G04:AMPARAMS|DCode=196|XSize=87.559mil|YSize=87.559mil|CornerRadius=0mil|HoleSize=0mil|Usage=FLASHONLY|Rotation=0.000|XOffset=0mil|YOffset=0mil|HoleType=Round|Shape=Relief|Width=10mil|Gap=10mil|Entries=4|*
%AMTHD196*
7,0,0,0.0876,0.0676,0.0100,45*
%
%ADD196THD196*%
%AMTHOVALD197*
21,1,0.0276,0.0797,0,0,270.0*
1,1,0.0797,0.0000,0.0138*
1,1,0.0797,0.0000,-0.0138*
21,0,0.0276,0.0597,0,0,270.0*
1,0,0.0597,0.0000,0.0138*
1,0,0.0597,0.0000,-0.0138*
4,0,4,-0.0035,0.0102,-0.0317,0.0384,-0.0246,0.0455,0.0035,0.0173,-0.0035,0.0102,0.0*
4,0,4,-0.0035,-0.0173,0.0246,-0.0455,0.0317,-0.0384,0.0035,-0.0102,-0.0035,-0.0173,0.0*
4,0,4,-0.0035,0.0173,0.0246,0.0455,0.0317,0.0384,0.0035,0.0102,-0.0035,0.0173,0.0*
4,0,4,-0.0035,-0.0102,-0.0317,-0.0384,-0.0246,-0.0455,0.0035,-0.0173,-0.0035,-0.0102,0.0*
%
%ADD197THOVALD197*%

%ADD198C,0.0562*%
G04:AMPARAMS|DCode=199|XSize=96.221mil|YSize=96.221mil|CornerRadius=0mil|HoleSize=0mil|Usage=FLASHONLY|Rotation=0.000|XOffset=0mil|YOffset=0mil|HoleType=Round|Shape=Relief|Width=10mil|Gap=10mil|Entries=4|*
%AMTHD199*
7,0,0,0.0962,0.0762,0.0100,45*
%
%ADD199THD199*%
G04:AMPARAMS|DCode=200|XSize=150.551mil|YSize=150.551mil|CornerRadius=0mil|HoleSize=0mil|Usage=FLASHONLY|Rotation=0.000|XOffset=0mil|YOffset=0mil|HoleType=Round|Shape=Relief|Width=10mil|Gap=10mil|Entries=4|*
%AMTHD200*
7,0,0,0.1506,0.1306,0.0100,45*
%
%ADD200THD200*%
%ADD201C,0.1263*%
%ADD202C,0.1480*%
%ADD203C,0.0650*%
G04:AMPARAMS|DCode=204|XSize=122mil|YSize=122mil|CornerRadius=0mil|HoleSize=0mil|Usage=FLASHONLY|Rotation=0.000|XOffset=0mil|YOffset=0mil|HoleType=Round|Shape=Relief|Width=10mil|Gap=10mil|Entries=4|*
%AMTHD204*
7,0,0,0.1220,0.1020,0.0100,45*
%
%ADD204THD204*%
G04:AMPARAMS|DCode=205|XSize=99.37mil|YSize=99.37mil|CornerRadius=0mil|HoleSize=0mil|Usage=FLASHONLY|Rotation=0.000|XOffset=0mil|YOffset=0mil|HoleType=Round|Shape=Relief|Width=10mil|Gap=10mil|Entries=4|*
%AMTHD205*
7,0,0,0.0994,0.0794,0.0100,45*
%
%ADD205THD205*%
%ADD206C,0.0594*%
%AMTHOVALD207*
21,1,0.0709,0.0954,0,0,90.0*
1,1,0.0954,0.0000,-0.0354*
1,1,0.0954,0.0000,0.0354*
21,0,0.0709,0.0754,0,0,90.0*
1,0,0.0754,0.0000,-0.0354*
1,0,0.0754,0.0000,0.0354*
4,0,4,0.0035,-0.0319,0.0373,-0.0656,0.0302,-0.0727,-0.0035,-0.0390,0.0035,-0.0319,0.0*
4,0,4,0.0035,0.0390,-0.0302,0.0727,-0.0373,0.0656,-0.0035,0.0319,0.0035,0.0390,0.0*
4,0,4,0.0035,-0.0390,-0.0302,-0.0727,-0.0373,-0.0656,-0.0035,-0.0319,0.0035,-0.0390,0.0*
4,0,4,0.0035,0.0319,0.0373,0.0656,0.0302,0.0727,-0.0035,0.0390,0.0035,0.0319,0.0*
%
%ADD207THOVALD207*%

%AMTHOVALD208*
21,1,0.0472,0.0954,0,0,90.0*
1,1,0.0954,0.0000,-0.0236*
1,1,0.0954,0.0000,0.0236*
21,0,0.0472,0.0754,0,0,90.0*
1,0,0.0754,0.0000,-0.0236*
1,0,0.0754,0.0000,0.0236*
4,0,4,0.0035,-0.0201,0.0373,-0.0538,0.0302,-0.0609,-0.0035,-0.0272,0.0035,-0.0201,0.0*
4,0,4,0.0035,0.0272,-0.0302,0.0609,-0.0373,0.0538,-0.0035,0.0201,0.0035,0.0272,0.0*
4,0,4,0.0035,-0.0272,-0.0302,-0.0609,-0.0373,-0.0538,-0.0035,-0.0201,0.0035,-0.0272,0.0*
4,0,4,0.0035,0.0201,0.0373,0.0538,0.0302,0.0609,-0.0035,0.0272,0.0035,0.0201,0.0*
%
%ADD208THOVALD208*%

%ADD209C,0.1381*%
%ADD210C,0.0830*%
%ADD211C,0.0279*%
D161*
X011811Y047441D02*
Y053150D01*
Y047441D02*
X012795D01*
Y046850D02*
Y047441D01*
X011811Y046850D02*
X012795D01*
X011811Y045079D02*
Y046850D01*
Y045079D02*
X012795D01*
Y044488D02*
Y045079D01*
X011811Y044488D02*
X012795D01*
X011811Y013780D02*
Y044488D01*
X051181Y013780D02*
Y053150D01*
X011811D02*
X051181D01*
X011811Y013780D02*
X051181D01*
D181*
X015910Y019923D02*
D03*
X020310D02*
D03*
X015910Y020523D02*
D03*
X020310D02*
D03*
X020510Y024323D02*
D03*
X020110Y023323D02*
D03*
X016110D02*
D03*
X015710Y024323D02*
D03*
X019710D02*
D03*
X018910D02*
D03*
X018510Y023323D02*
D03*
X019310D02*
D03*
X017710D02*
D03*
X016910D02*
D03*
X016510Y024323D02*
D03*
X017310D02*
D03*
D188*
X050050Y037600D02*
D03*
D189*
X046260Y018327D02*
D03*
D190*
X048150Y017185D02*
D03*
D191*
X046260Y015945D02*
D03*
D192*
X015108Y048032D02*
D03*
D193*
X025878Y042913D02*
D03*
D194*
X026878D02*
D03*
X045915Y051968D02*
D03*
D195*
X047654Y041687D02*
D03*
Y041187D02*
D03*
X047154D02*
D03*
X046654D02*
D03*
X046154Y041687D02*
D03*
Y041187D02*
D03*
X045654D02*
D03*
D196*
X047154Y041687D02*
D03*
X046654D02*
D03*
X045654D02*
D03*
D197*
X026457Y014301D02*
D03*
X029055D02*
D03*
D198*
X031299Y019138D02*
D03*
X033071D02*
D03*
X032283D02*
D03*
X033071Y018106D02*
D03*
X032283D02*
D03*
X031299D02*
D03*
D199*
X034055Y019138D02*
D03*
Y018106D02*
D03*
D200*
X030091Y019276D02*
D03*
X035264D02*
D03*
Y017039D02*
D03*
X030091D02*
D03*
D201*
X042126Y040551D02*
D03*
X023228Y027559D02*
D03*
X042126D02*
D03*
X023228Y040551D02*
D03*
D202*
X015610Y017323D02*
D03*
X020610D02*
D03*
D203*
X015710Y025323D02*
D03*
X019510D02*
D03*
X016710D02*
D03*
X020510D02*
D03*
D204*
X014935Y016073D02*
D03*
X021285D02*
D03*
D205*
X023408Y015884D02*
D03*
X023900Y014900D02*
D03*
X026164Y015884D02*
D03*
D206*
X025672Y014900D02*
D03*
D207*
X037303Y017136D02*
D03*
X043012D02*
D03*
D208*
X037303Y014774D02*
D03*
X043012D02*
D03*
D209*
X013189Y015157D02*
D03*
X049803D02*
D03*
Y051772D02*
D03*
X013189D02*
D03*
D210*
X045915Y044094D02*
D03*
D211*
X015050Y026150D02*
D03*
X021250Y028150D02*
D03*
X021550Y027750D02*
D03*
X027400Y030950D02*
D03*
X027900Y030500D02*
D03*
X037087Y029094D02*
D03*
X039367Y023449D02*
D03*
X038039Y022021D02*
D03*
X038200Y022200D02*
D03*
X038000Y022700D02*
D03*
X038043Y021695D02*
D03*
X021500Y039550D02*
D03*
X021550Y042100D02*
D03*
X021018Y039542D02*
D03*
X021260Y041260D02*
D03*
X021200Y042350D02*
D03*
X038583Y038622D02*
D03*
X013550Y046300D02*
D03*
X036850Y029600D02*
D03*
X032462Y029724D02*
D03*
X032689D02*
D03*
X036850Y027150D02*
D03*
X048700Y029150D02*
D03*
X047400Y028750D02*
D03*
X026600Y023800D02*
D03*
X025800Y021700D02*
D03*
X035827Y027657D02*
D03*
X046358Y036417D02*
D03*
X046752D02*
D03*
X046161Y038976D02*
D03*
X048622Y040846D02*
D03*
X026378Y030709D02*
D03*
X033563Y023228D02*
D03*
X029921Y014567D02*
D03*
X028248Y016339D02*
D03*
X034425Y023819D02*
D03*
X034197D02*
D03*
X026539Y016795D02*
D03*
X025409Y018209D02*
D03*
X025182D02*
D03*
X031102Y028642D02*
D03*
X026378Y016634D02*
D03*
X033980Y022280D02*
D03*
X030080Y021585D02*
D03*
X033819Y022441D02*
D03*
X030032Y021807D02*
D03*
X031886Y021646D02*
D03*
X035433Y024882D02*
D03*
Y030945D02*
D03*
X034594Y024921D02*
D03*
X034366D02*
D03*
X034637Y031299D02*
D03*
X034409D02*
D03*
X039646Y041417D02*
D03*
X039806Y041578D02*
D03*
X039409Y040472D02*
D03*
X039570Y040633D02*
D03*
X038425Y040472D02*
D03*
X038595Y040638D02*
D03*
X038346Y039291D02*
D03*
X038087Y039041D02*
D03*
X037756Y038937D02*
D03*
X043976Y018858D02*
D03*
Y019094D02*
D03*
X040312Y042192D02*
D03*
X042370Y023030D02*
D03*
X040152Y042032D02*
D03*
X042143Y023030D02*
D03*
X041740Y022670D02*
D03*
X041513D02*
D03*
X041259Y023140D02*
D03*
X041032D02*
D03*
X040767Y022890D02*
D03*
X040539D02*
D03*
X023228Y042402D02*
D03*
X020468Y035048D02*
D03*
X020485Y034747D02*
D03*
X020468Y035312D02*
D03*
X020191Y034752D02*
D03*
Y035320D02*
D03*
X025591Y030217D02*
D03*
Y022146D02*
D03*
X048169Y026575D02*
D03*
X048524D02*
D03*
X048169Y026870D02*
D03*
X048524D02*
D03*
X048169Y027165D02*
D03*
X048524D02*
D03*
X048169Y027461D02*
D03*
X048524D02*
D03*
X048169Y027756D02*
D03*
X048524D02*
D03*
X048169Y028051D02*
D03*
X048524D02*
D03*
X048169Y028346D02*
D03*
X048524D02*
D03*
X014269Y026560D02*
D03*
X014465Y026777D02*
D03*
X013491Y024225D02*
D03*
X013484Y024506D02*
D03*
X013974Y023137D02*
D03*
X013976Y022933D02*
D03*
X013884Y020240D02*
D03*
X013878Y020472D02*
D03*
X016535Y043504D02*
D03*
Y034843D02*
D03*
X030910Y042900D02*
D03*
X030749Y043061D02*
D03*
X023622Y017992D02*
D03*
X021850Y019134D02*
D03*
X026772Y024016D02*
D03*
X026102Y023346D02*
D03*
X049921Y045157D02*
D03*
X021250Y027330D02*
D03*
X043976Y018661D02*
D03*
Y019331D02*
D03*
X031693Y028346D02*
D03*
X031299Y026378D02*
D03*
X031988Y027362D02*
D03*
X037500Y027165D02*
D03*
X029245Y022847D02*
D03*
X031310Y027350D02*
D03*
X031063Y027523D02*
D03*
X021630Y027260D02*
D03*
X045940Y033290D02*
D03*
X046417Y033203D02*
D03*
X046200Y031680D02*
D03*
X045880Y031660D02*
D03*
X045480Y031770D02*
D03*
X045177Y031763D02*
D03*
X032462Y024803D02*
D03*
X032689D02*
D03*
X020193Y035024D02*
D03*
X039911Y023471D02*
D03*
X039656Y023444D02*
D03*
X021855Y021358D02*
D03*
Y021850D02*
D03*
X015453Y027063D02*
D03*
X029626Y042421D02*
D03*
X027190Y020390D02*
D03*
X027220Y020730D02*
D03*
X027970Y022070D02*
D03*
X028180Y021860D02*
D03*
X030910Y024830D02*
D03*
X031174Y024713D02*
D03*
X048740Y046336D02*
D03*
X048733Y046563D02*
D03*
X048480Y046941D02*
D03*
Y047168D02*
D03*
X029823Y042126D02*
D03*
X032634Y023724D02*
D03*
X029134Y022343D02*
D03*
X029338Y023438D02*
D03*
X029150Y024330D02*
D03*
X029365Y024585D02*
D03*
X030190Y024713D02*
D03*
X045520Y045630D02*
D03*
X045810Y045840D02*
D03*
X031555Y025197D02*
D03*
X030578Y025150D02*
D03*
X029508Y021594D02*
D03*
X040167Y023447D02*
D03*
X033570Y046980D02*
D03*
Y047207D02*
D03*
X031830Y046897D02*
D03*
Y046670D02*
D03*
X048760Y047524D02*
D03*
Y047751D02*
D03*
M02*
