G04*
G04 #@! TF.GenerationSoftware,Altium Limited,Altium Designer,22.1.2 (22)*
G04*
G04 Layer_Physical_Order=3*
G04 Layer_Color=128*
%FSAX24Y24*%
%MOIN*%
G70*
G04*
G04 #@! TF.SameCoordinates,7F836DD3-99AF-427D-BE5B-C3016D41F6B7*
G04*
G04*
G04 #@! TF.FilePolarity,Negative*
G04*
G01*
G75*
%ADD163C,0.0400*%
%ADD183C,0.0600*%
%ADD191C,0.0633*%
%ADD192C,0.0476*%
G04:AMPARAMS|DCode=193|XSize=87.559mil|YSize=87.559mil|CornerRadius=0mil|HoleSize=0mil|Usage=FLASHONLY|Rotation=0.000|XOffset=0mil|YOffset=0mil|HoleType=Round|Shape=Relief|Width=10mil|Gap=10mil|Entries=4|*
%AMTHD193*
7,0,0,0.0876,0.0676,0.0100,45*
%
%ADD193THD193*%
%ADD194C,0.1657*%
%ADD195C,0.0830*%
%ADD196O,0.1460X0.0594*%
%ADD197O,0.0594X0.1381*%
%AMTHOVALD198*
21,1,0.0856,0.0994,0,0,180.0*
1,1,0.0994,0.0428,0.0000*
1,1,0.0994,-0.0428,0.0000*
21,0,0.0856,0.0794,0,0,180.0*
1,0,0.0794,0.0428,0.0000*
1,0,0.0794,-0.0428,0.0000*
4,0,4,0.0393,0.0035,0.0744,0.0387,0.0815,0.0316,0.0464,-0.0035,0.0393,0.0035,0.0*
4,0,4,-0.0464,0.0035,-0.0815,-0.0316,-0.0744,-0.0387,-0.0393,-0.0035,-0.0464,0.0035,0.0*
4,0,4,0.0464,0.0035,0.0815,-0.0316,0.0744,-0.0387,0.0393,-0.0035,0.0464,0.0035,0.0*
4,0,4,-0.0393,0.0035,-0.0744,0.0387,-0.0815,0.0316,-0.0464,-0.0035,-0.0393,0.0035,0.0*
%
%ADD198THOVALD198*%

G04:AMPARAMS|DCode=199|XSize=103.307mil|YSize=103.307mil|CornerRadius=0mil|HoleSize=0mil|Usage=FLASHONLY|Rotation=0.000|XOffset=0mil|YOffset=0mil|HoleType=Round|Shape=Relief|Width=10mil|Gap=10mil|Entries=4|*
%AMTHD199*
7,0,0,0.1033,0.0833,0.0100,45*
%
%ADD199THD199*%
%AMTHOVALD200*
21,1,0.0276,0.0797,0,0,270.0*
1,1,0.0797,0.0000,0.0138*
1,1,0.0797,0.0000,-0.0138*
21,0,0.0276,0.0597,0,0,270.0*
1,0,0.0597,0.0000,0.0138*
1,0,0.0597,0.0000,-0.0138*
4,0,4,-0.0035,0.0102,-0.0317,0.0384,-0.0246,0.0455,0.0035,0.0173,-0.0035,0.0102,0.0*
4,0,4,-0.0035,-0.0173,0.0246,-0.0455,0.0317,-0.0384,0.0035,-0.0102,-0.0035,-0.0173,0.0*
4,0,4,-0.0035,0.0173,0.0246,0.0455,0.0317,0.0384,0.0035,0.0102,-0.0035,0.0173,0.0*
4,0,4,-0.0035,-0.0102,-0.0317,-0.0384,-0.0246,-0.0455,0.0035,-0.0173,-0.0035,-0.0102,0.0*
%
%ADD200THOVALD200*%

%ADD201C,0.0562*%
G04:AMPARAMS|DCode=202|XSize=96.221mil|YSize=96.221mil|CornerRadius=0mil|HoleSize=0mil|Usage=FLASHONLY|Rotation=0.000|XOffset=0mil|YOffset=0mil|HoleType=Round|Shape=Relief|Width=10mil|Gap=10mil|Entries=4|*
%AMTHD202*
7,0,0,0.0962,0.0762,0.0100,45*
%
%ADD202THD202*%
G04:AMPARAMS|DCode=203|XSize=150.551mil|YSize=150.551mil|CornerRadius=0mil|HoleSize=0mil|Usage=FLASHONLY|Rotation=0.000|XOffset=0mil|YOffset=0mil|HoleType=Round|Shape=Relief|Width=10mil|Gap=10mil|Entries=4|*
%AMTHD203*
7,0,0,0.1506,0.1306,0.0100,45*
%
%ADD203THD203*%
%ADD204C,0.1263*%
%ADD205C,0.1480*%
%ADD206C,0.0650*%
G04:AMPARAMS|DCode=207|XSize=122mil|YSize=122mil|CornerRadius=0mil|HoleSize=0mil|Usage=FLASHONLY|Rotation=0.000|XOffset=0mil|YOffset=0mil|HoleType=Round|Shape=Relief|Width=10mil|Gap=10mil|Entries=4|*
%AMTHD207*
7,0,0,0.1220,0.1020,0.0100,45*
%
%ADD207THD207*%
G04:AMPARAMS|DCode=208|XSize=99.37mil|YSize=99.37mil|CornerRadius=0mil|HoleSize=0mil|Usage=FLASHONLY|Rotation=0.000|XOffset=0mil|YOffset=0mil|HoleType=Round|Shape=Relief|Width=10mil|Gap=10mil|Entries=4|*
%AMTHD208*
7,0,0,0.0994,0.0794,0.0100,45*
%
%ADD208THD208*%
%ADD209C,0.0594*%
%AMTHOVALD210*
21,1,0.0709,0.0954,0,0,90.0*
1,1,0.0954,0.0000,-0.0354*
1,1,0.0954,0.0000,0.0354*
21,0,0.0709,0.0754,0,0,90.0*
1,0,0.0754,0.0000,-0.0354*
1,0,0.0754,0.0000,0.0354*
4,0,4,0.0035,-0.0319,0.0373,-0.0656,0.0302,-0.0727,-0.0035,-0.0390,0.0035,-0.0319,0.0*
4,0,4,0.0035,0.0390,-0.0302,0.0727,-0.0373,0.0656,-0.0035,0.0319,0.0035,0.0390,0.0*
4,0,4,0.0035,-0.0390,-0.0302,-0.0727,-0.0373,-0.0656,-0.0035,-0.0319,0.0035,-0.0390,0.0*
4,0,4,0.0035,0.0319,0.0373,0.0656,0.0302,0.0727,-0.0035,0.0390,0.0035,0.0319,0.0*
%
%ADD210THOVALD210*%

%AMTHOVALD211*
21,1,0.0472,0.0954,0,0,90.0*
1,1,0.0954,0.0000,-0.0236*
1,1,0.0954,0.0000,0.0236*
21,0,0.0472,0.0754,0,0,90.0*
1,0,0.0754,0.0000,-0.0236*
1,0,0.0754,0.0000,0.0236*
4,0,4,0.0035,-0.0201,0.0373,-0.0538,0.0302,-0.0609,-0.0035,-0.0272,0.0035,-0.0201,0.0*
4,0,4,0.0035,0.0272,-0.0302,0.0609,-0.0373,0.0538,-0.0035,0.0201,0.0035,0.0272,0.0*
4,0,4,0.0035,-0.0272,-0.0302,-0.0609,-0.0373,-0.0538,-0.0035,-0.0201,0.0035,-0.0272,0.0*
4,0,4,0.0035,0.0201,0.0373,0.0538,0.0302,0.0609,-0.0035,0.0272,0.0035,0.0201,0.0*
%
%ADD211THOVALD211*%

%ADD212C,0.1381*%
%ADD213C,0.0279*%
%ADD214C,0.0298*%
%ADD215R,0.2050X0.3000*%
D163*
X019094Y053150D02*
X051181Y053150D01*
X019094Y052165D02*
Y053150D01*
X018504Y052165D02*
X019094D01*
X018504D02*
Y053150D01*
X016732D02*
X018504D01*
X016732Y052165D02*
Y053150D01*
X016142Y052165D02*
X016732D01*
X016142D02*
Y053150D01*
X011811D02*
X016142D01*
X011811Y047441D02*
Y053150D01*
X051181Y013780D02*
Y053150D01*
X011811Y013780D02*
X051181D01*
X011811D02*
Y047441D01*
D183*
X015910Y019923D02*
D03*
X020310D02*
D03*
X015910Y020523D02*
D03*
X020310D02*
D03*
X020510Y024323D02*
D03*
X020110Y023323D02*
D03*
X016110D02*
D03*
X015710Y024323D02*
D03*
X019710D02*
D03*
X018910D02*
D03*
X018510Y023323D02*
D03*
X019310D02*
D03*
X017710D02*
D03*
X016910D02*
D03*
X016510Y024323D02*
D03*
X017310D02*
D03*
D191*
X016339Y043118D02*
D03*
Y042118D02*
D03*
X015339Y043118D02*
D03*
Y042118D02*
D03*
X013339D02*
D03*
Y043118D02*
D03*
X014339Y042118D02*
D03*
Y043118D02*
D03*
X017339Y042118D02*
D03*
Y043118D02*
D03*
X018339Y042118D02*
D03*
X019339D02*
D03*
X018339Y043118D02*
D03*
X019339D02*
D03*
X045915Y051968D02*
D03*
X026878Y042913D02*
D03*
D192*
X047949Y042278D02*
D03*
Y041778D02*
D03*
X047449D02*
D03*
X046949D02*
D03*
X046449Y042278D02*
D03*
Y041778D02*
D03*
X045949D02*
D03*
X044866Y033018D02*
D03*
Y033518D02*
D03*
X045366Y033018D02*
D03*
X045866D02*
D03*
X045366Y033518D02*
D03*
X045866D02*
D03*
X046366Y033018D02*
D03*
Y033518D02*
D03*
X046866D02*
D03*
D193*
X047449Y042278D02*
D03*
X046949D02*
D03*
X045949D02*
D03*
X046866Y033018D02*
D03*
D194*
X015108Y048032D02*
D03*
D195*
X045915Y044094D02*
D03*
D196*
X046450Y018382D02*
D03*
D197*
X048340Y017240D02*
D03*
D198*
X046450Y016000D02*
D03*
D199*
X025878Y042913D02*
D03*
D200*
X026457Y014301D02*
D03*
X029055D02*
D03*
D201*
X031299Y019138D02*
D03*
X033071D02*
D03*
X032283D02*
D03*
X033071Y018106D02*
D03*
X032283D02*
D03*
X031299D02*
D03*
D202*
X034055Y019138D02*
D03*
Y018106D02*
D03*
D203*
X030091Y019276D02*
D03*
X035264D02*
D03*
Y017039D02*
D03*
X030091D02*
D03*
D204*
X042126Y040551D02*
D03*
X023228Y027559D02*
D03*
X042126D02*
D03*
X023228Y040551D02*
D03*
D205*
X015610Y017323D02*
D03*
X020610D02*
D03*
D206*
X015710Y025323D02*
D03*
X019510D02*
D03*
X016710D02*
D03*
X020510D02*
D03*
D207*
X014935Y016073D02*
D03*
X021285D02*
D03*
D208*
X023408Y015884D02*
D03*
X023900Y014900D02*
D03*
X026164Y015884D02*
D03*
D209*
X025672Y014900D02*
D03*
D210*
X037303Y017136D02*
D03*
X043012D02*
D03*
D211*
X037303Y014774D02*
D03*
X043012D02*
D03*
D212*
X013189Y015157D02*
D03*
X049803D02*
D03*
Y051772D02*
D03*
X013189D02*
D03*
D213*
X028070Y030869D02*
D03*
X027650Y031220D02*
D03*
X026850Y031010D02*
D03*
X032776Y030709D02*
D03*
X032548D02*
D03*
X016732Y040748D02*
D03*
X016634Y034843D02*
D03*
X043731Y018790D02*
D03*
X043729Y019158D02*
D03*
X043726Y018977D02*
D03*
X044197Y018771D02*
D03*
X044195Y019138D02*
D03*
X044192Y018957D02*
D03*
X043971Y018968D02*
D03*
X043974Y019149D02*
D03*
X043976Y018782D02*
D03*
X042370Y023030D02*
D03*
X042143D02*
D03*
X014468Y026575D02*
D03*
X015316Y026180D02*
D03*
X014465Y026777D02*
D03*
X013484Y024506D02*
D03*
X017954Y051411D02*
D03*
X048228Y040846D02*
D03*
X038571Y038622D02*
D03*
X041259Y023140D02*
D03*
X041032D02*
D03*
X049626Y045157D02*
D03*
X045520Y045630D02*
D03*
X045810Y045840D02*
D03*
X048480Y046941D02*
D03*
Y047168D02*
D03*
X017441Y027156D02*
D03*
X021550Y027750D02*
D03*
X037087Y029094D02*
D03*
X039367Y023449D02*
D03*
X038039Y022021D02*
D03*
X038200Y022200D02*
D03*
X038000Y022700D02*
D03*
X038043Y021695D02*
D03*
X021500Y039550D02*
D03*
X021550Y042100D02*
D03*
X021018Y039542D02*
D03*
X021260Y041260D02*
D03*
X021200Y042350D02*
D03*
X036850Y029600D02*
D03*
Y027150D02*
D03*
X026600Y023800D02*
D03*
X025800Y021700D02*
D03*
X035827Y027657D02*
D03*
X045669Y038976D02*
D03*
X033563Y023228D02*
D03*
X029921Y014567D02*
D03*
X028248Y016339D02*
D03*
X034425Y023819D02*
D03*
X034197D02*
D03*
X026539Y016795D02*
D03*
X025409Y018209D02*
D03*
X025182D02*
D03*
X031102Y028642D02*
D03*
X026378Y016634D02*
D03*
X033980Y022280D02*
D03*
X030080Y021585D02*
D03*
X033819Y022441D02*
D03*
X030032Y021807D02*
D03*
X031886Y021646D02*
D03*
X035433Y024882D02*
D03*
Y030945D02*
D03*
X034594Y024921D02*
D03*
X034366D02*
D03*
X034637Y031299D02*
D03*
X034409D02*
D03*
X039646Y041417D02*
D03*
X039806Y041578D02*
D03*
X038425Y040472D02*
D03*
X038595Y040638D02*
D03*
X038346Y039291D02*
D03*
X038087Y039041D02*
D03*
X037756Y038937D02*
D03*
X040312Y042192D02*
D03*
X040152Y042032D02*
D03*
X041740Y022670D02*
D03*
X041513D02*
D03*
X040767Y022890D02*
D03*
X040539D02*
D03*
X023228Y042402D02*
D03*
X020468Y035048D02*
D03*
X020485Y034747D02*
D03*
X020468Y035312D02*
D03*
X020191Y034752D02*
D03*
Y035320D02*
D03*
X025591Y030217D02*
D03*
Y022146D02*
D03*
X047717Y026575D02*
D03*
X048071D02*
D03*
X047717Y026870D02*
D03*
X048071D02*
D03*
X047717Y027165D02*
D03*
X048071D02*
D03*
X047717Y027461D02*
D03*
X048071D02*
D03*
X047717Y027756D02*
D03*
X048071D02*
D03*
X047717Y028051D02*
D03*
X048071D02*
D03*
X047717Y028346D02*
D03*
X048071D02*
D03*
X013491Y024225D02*
D03*
X013974Y023137D02*
D03*
X013976Y022933D02*
D03*
X013884Y020240D02*
D03*
X013878Y020472D02*
D03*
X030910Y042900D02*
D03*
X030749Y043061D02*
D03*
X023622Y017992D02*
D03*
X021850Y019134D02*
D03*
X026772Y024016D02*
D03*
X026102Y023346D02*
D03*
X018261Y027156D02*
D03*
X031693Y028346D02*
D03*
X031299Y026378D02*
D03*
X031988Y027362D02*
D03*
X037500Y027165D02*
D03*
X029245Y022847D02*
D03*
X031310Y027350D02*
D03*
X031063Y027523D02*
D03*
X021630Y027260D02*
D03*
X032462Y024803D02*
D03*
X032689D02*
D03*
X020193Y035024D02*
D03*
X039911Y023471D02*
D03*
X039656Y023444D02*
D03*
X021855Y021358D02*
D03*
Y021850D02*
D03*
X015718Y027092D02*
D03*
X029626Y042421D02*
D03*
X027190Y020390D02*
D03*
X027220Y020730D02*
D03*
X027970Y022070D02*
D03*
X028180Y021860D02*
D03*
X030910Y024830D02*
D03*
X031174Y024713D02*
D03*
X048740Y046336D02*
D03*
X048733Y046563D02*
D03*
X029823Y042126D02*
D03*
X032634Y023724D02*
D03*
X029134Y022343D02*
D03*
X029338Y023438D02*
D03*
X029150Y024330D02*
D03*
X029365Y024585D02*
D03*
X030190Y024713D02*
D03*
X031555Y025197D02*
D03*
X030578Y025150D02*
D03*
X029508Y021594D02*
D03*
X040167Y023447D02*
D03*
X033570Y046980D02*
D03*
Y047207D02*
D03*
X031830Y046897D02*
D03*
Y046670D02*
D03*
X048760Y047524D02*
D03*
Y047751D02*
D03*
D214*
X049785Y047252D02*
D03*
X045669Y034252D02*
D03*
X045374Y028839D02*
D03*
X044980D02*
D03*
X043898Y029429D02*
D03*
X039497Y031150D02*
D03*
X039727D02*
D03*
D215*
X049583Y037600D02*
D03*
M02*
