G04*
G04 #@! TF.GenerationSoftware,Altium Limited,Altium Designer,22.1.2 (22)*
G04*
G04 Layer_Color=128*
%FSAX24Y24*%
%MOIN*%
G70*
G04*
G04 #@! TF.SameCoordinates,7F836DD3-99AF-427D-BE5B-C3016D41F6B7*
G04*
G04*
G04 #@! TF.FilePolarity,Positive*
G04*
G01*
G75*
%ADD226C,0.0020*%
D226*
X016122Y043118D02*
X016555D01*
X016339Y042902D02*
Y043335D01*
X016122Y042118D02*
X016555D01*
X016339Y041902D02*
Y042335D01*
X015122Y043118D02*
X015555D01*
X015339Y042902D02*
Y043335D01*
X015122Y042118D02*
X015555D01*
X015339Y041902D02*
Y042335D01*
X013122Y042118D02*
X013555D01*
X013339Y041902D02*
Y042335D01*
X013122Y043118D02*
X013555D01*
X013339Y042902D02*
Y043335D01*
X014122Y042118D02*
X014555D01*
X014339Y041902D02*
Y042335D01*
X014122Y043118D02*
X014555D01*
X014339Y042902D02*
Y043335D01*
X017122Y042118D02*
X017555D01*
X017339Y041902D02*
Y042335D01*
X017122Y043118D02*
X017555D01*
X017339Y042902D02*
Y043335D01*
X018122Y042118D02*
X018555D01*
X018339Y041902D02*
Y042335D01*
X019122Y042118D02*
X019555D01*
X019339Y041902D02*
Y042335D01*
X018122Y043118D02*
X018555D01*
X018339Y042902D02*
Y043335D01*
X019122Y043118D02*
X019555D01*
X019339Y042902D02*
Y043335D01*
X047811Y042278D02*
X048087D01*
X047949Y042140D02*
Y042415D01*
X047811Y041778D02*
X048087D01*
X047949Y041640D02*
Y041915D01*
X047311Y042278D02*
X047587D01*
X047449Y042140D02*
Y042415D01*
X046811Y042278D02*
X047087D01*
X046949Y042140D02*
Y042415D01*
X047311Y041778D02*
X047587D01*
X047449Y041640D02*
Y041915D01*
X046811Y041778D02*
X047087D01*
X046949Y041640D02*
Y041915D01*
X046311Y042278D02*
X046587D01*
X046449Y042140D02*
Y042415D01*
X045811Y042278D02*
X046087D01*
X045949Y042140D02*
Y042415D01*
X046311Y041778D02*
X046587D01*
X046449Y041640D02*
Y041915D01*
X045811Y041778D02*
X046087D01*
X045949Y041640D02*
Y041915D01*
X044728Y033018D02*
X045004D01*
X044866Y032880D02*
Y033156D01*
X044728Y033518D02*
X045004D01*
X044866Y033380D02*
Y033656D01*
X045228Y033018D02*
X045504D01*
X045366Y032880D02*
Y033156D01*
X045728Y033018D02*
X046004D01*
X045866Y032880D02*
Y033156D01*
X045228Y033518D02*
X045504D01*
X045366Y033380D02*
Y033656D01*
X045728Y033518D02*
X046004D01*
X045866Y033380D02*
Y033656D01*
X046228Y033018D02*
X046504D01*
X046366Y032880D02*
Y033156D01*
X046728Y033018D02*
X047004D01*
X046866Y032880D02*
Y033156D01*
X046228Y033518D02*
X046504D01*
X046366Y033380D02*
Y033656D01*
X046728Y033518D02*
X047004D01*
X046866Y033380D02*
Y033656D01*
X014380Y048032D02*
X015837D01*
X015108Y047303D02*
Y048760D01*
X045699Y051968D02*
X046132D01*
X045915Y051752D02*
Y052185D01*
X045600Y044094D02*
X046230D01*
X045915Y043780D02*
Y044409D01*
X046253Y018382D02*
X046647D01*
X046450Y018185D02*
Y018579D01*
X048143Y017240D02*
X048537D01*
X048340Y017043D02*
Y017437D01*
X046253Y016000D02*
X046647D01*
X046450Y015803D02*
Y016197D01*
X025661Y042913D02*
X026094D01*
X025878Y042697D02*
Y043130D01*
X026661Y042913D02*
X027094D01*
X026878Y042697D02*
Y043130D01*
X026358Y014301D02*
X026555D01*
X026457Y014203D02*
Y014400D01*
X028957Y014301D02*
X029154D01*
X029055Y014203D02*
Y014400D01*
X031118Y019138D02*
X031480D01*
X031299Y018957D02*
Y019319D01*
X033874Y019138D02*
X034236D01*
X034055Y018957D02*
Y019319D01*
X032890Y019138D02*
X033252D01*
X033071Y018957D02*
Y019319D01*
X032102Y019138D02*
X032465D01*
X032283Y018957D02*
Y019319D01*
X032890Y018106D02*
X033252D01*
X033071Y017925D02*
Y018287D01*
X032102Y018106D02*
X032465D01*
X032283Y017925D02*
Y018287D01*
X033874Y018106D02*
X034236D01*
X034055Y017925D02*
Y018287D01*
X031118Y018106D02*
X031480D01*
X031299Y017925D02*
Y018287D01*
X029638Y019276D02*
X030543D01*
X030091Y018823D02*
Y019728D01*
X034811Y019276D02*
X035717D01*
X035264Y018823D02*
Y019728D01*
X034811Y017039D02*
X035717D01*
X035264Y016587D02*
Y017492D01*
X029638Y017039D02*
X030543D01*
X030091Y016587D02*
Y017492D01*
X041594Y040551D02*
X042657D01*
X042126Y040020D02*
Y041083D01*
X022697Y027559D02*
X023760D01*
X023228Y027028D02*
Y028091D01*
X041594Y027559D02*
X042657D01*
X042126Y027028D02*
Y028091D01*
X022697Y040551D02*
X023760D01*
X023228Y040020D02*
Y041083D01*
X015710Y019923D02*
X016110D01*
X015910Y019723D02*
Y020123D01*
X020110Y019923D02*
X020510D01*
X020310Y019723D02*
Y020123D01*
X015710Y020523D02*
X016110D01*
X015910Y020323D02*
Y020723D01*
X020110Y020523D02*
X020510D01*
X020310Y020323D02*
Y020723D01*
X014970Y017323D02*
X016250D01*
X015610Y016683D02*
Y017963D01*
X019970Y017323D02*
X021250D01*
X020610Y016683D02*
Y017963D01*
X015485Y025323D02*
X015935D01*
X015710Y025098D02*
Y025548D01*
X019285Y025323D02*
X019735D01*
X019510Y025098D02*
Y025548D01*
X014625Y016073D02*
X015245D01*
X014935Y015763D02*
Y016383D01*
X020975Y016073D02*
X021595D01*
X021285Y015763D02*
Y016383D01*
X020310Y024323D02*
X020710D01*
X020510Y024123D02*
Y024523D01*
X019910Y023323D02*
X020310D01*
X020110Y023123D02*
Y023523D01*
X015910Y023323D02*
X016310D01*
X016110Y023123D02*
Y023523D01*
X015510Y024323D02*
X015910D01*
X015710Y024123D02*
Y024523D01*
X019510Y024323D02*
X019910D01*
X019710Y024123D02*
Y024523D01*
X018710Y024323D02*
X019110D01*
X018910Y024123D02*
Y024523D01*
X018310Y023323D02*
X018710D01*
X018510Y023123D02*
Y023523D01*
X019110Y023323D02*
X019510D01*
X019310Y023123D02*
Y023523D01*
X017510Y023323D02*
X017910D01*
X017710Y023123D02*
Y023523D01*
X016710Y023323D02*
X017110D01*
X016910Y023123D02*
Y023523D01*
X016310Y024323D02*
X016710D01*
X016510Y024123D02*
Y024523D01*
X017110Y024323D02*
X017510D01*
X017310Y024123D02*
Y024523D01*
X016485Y025323D02*
X016935D01*
X016710Y025098D02*
Y025548D01*
X020285Y025323D02*
X020735D01*
X020510Y025098D02*
Y025548D01*
X023211Y015884D02*
X023605D01*
X023408Y015687D02*
Y016081D01*
X023703Y014900D02*
X024097D01*
X023900Y014703D02*
Y015097D01*
X025475Y014900D02*
X025868D01*
X025672Y014703D02*
Y015097D01*
X025967Y015884D02*
X026361D01*
X026164Y015687D02*
Y016081D01*
X037126Y017136D02*
X037480D01*
X037303Y016959D02*
Y017313D01*
X042835Y017136D02*
X043189D01*
X043012Y016959D02*
Y017313D01*
X037126Y014774D02*
X037480D01*
X037303Y014596D02*
Y014951D01*
X042835Y014774D02*
X043189D01*
X043012Y014596D02*
Y014951D01*
X012598Y015157D02*
X013780D01*
X013189Y014567D02*
Y015748D01*
X049213Y015157D02*
X050394D01*
X049803Y014567D02*
Y015748D01*
X049213Y051772D02*
X050394D01*
X049803Y051181D02*
Y052362D01*
X012598Y051772D02*
X013780D01*
X013189Y051181D02*
Y052362D01*
X032199Y030882D02*
X032277D01*
X032238Y030843D02*
Y030921D01*
X028031Y030869D02*
X028109D01*
X028070Y030829D02*
Y030908D01*
X027611Y031220D02*
X027689D01*
X027650Y031181D02*
Y031259D01*
X026811Y031010D02*
X026889D01*
X026850Y030971D02*
Y031049D01*
X033917Y031299D02*
X033996D01*
X033957Y031260D02*
Y031339D01*
X032736Y030709D02*
X032815D01*
X032776Y030669D02*
Y030748D01*
X032925Y027656D02*
X033004D01*
X032964Y027616D02*
Y027695D01*
X032509Y030709D02*
X032588D01*
X032548Y030669D02*
Y030748D01*
X036116Y023300D02*
X036195D01*
X036155Y023261D02*
Y023339D01*
X036955Y023310D02*
X037034D01*
X036995Y023271D02*
Y023349D01*
X049754Y047638D02*
X049852D01*
X049803Y047589D02*
Y047687D01*
X049736Y047252D02*
X049835D01*
X049785Y047202D02*
Y047301D01*
X044016Y037520D02*
X044094D01*
X044055Y037480D02*
Y037559D01*
X045620Y034252D02*
X045718D01*
X045669Y034203D02*
Y034301D01*
X016693Y040748D02*
X016772D01*
X016732Y040709D02*
Y040787D01*
X045325Y028839D02*
X045423D01*
X045374Y028789D02*
Y028888D01*
X044931Y028839D02*
X045030D01*
X044980Y028789D02*
Y028888D01*
X043848Y029429D02*
X043947D01*
X043898Y029380D02*
Y029478D01*
X016204Y038277D02*
X016282D01*
X016243Y038238D02*
Y038317D01*
X016204Y037766D02*
X016282D01*
X016243Y037726D02*
Y037805D01*
X016204Y037096D02*
X016282D01*
X016243Y037057D02*
Y037136D01*
X015217Y038327D02*
X015295D01*
X015256Y038287D02*
Y038366D01*
X015217Y037736D02*
X015295D01*
X015256Y037697D02*
Y037776D01*
X015217Y037106D02*
X015295D01*
X015256Y037067D02*
Y037146D01*
X016594Y034843D02*
X016673D01*
X016634Y034803D02*
Y034882D01*
X043692Y018790D02*
X043770D01*
X043731Y018751D02*
Y018830D01*
X043689Y019158D02*
X043768D01*
X043729Y019118D02*
Y019197D01*
X043687Y018977D02*
X043766D01*
X043726Y018938D02*
Y019016D01*
X044158Y018771D02*
X044237D01*
X044197Y018731D02*
Y018810D01*
X044155Y019138D02*
X044234D01*
X044195Y019099D02*
Y019177D01*
X044153Y018957D02*
X044232D01*
X044192Y018918D02*
Y018997D01*
X043932Y018968D02*
X044011D01*
X043971Y018929D02*
Y019008D01*
X043935Y019149D02*
X044013D01*
X043974Y019110D02*
Y019188D01*
X043937Y018782D02*
X044016D01*
X043976Y018742D02*
Y018821D01*
X049272Y017717D02*
X049350D01*
X049311Y017677D02*
Y017756D01*
X042331Y023030D02*
X042410D01*
X042370Y022991D02*
Y023069D01*
X042104Y023030D02*
X042182D01*
X042143Y022991D02*
Y023069D01*
X042712Y024123D02*
X042791D01*
X042751Y024083D02*
Y024162D01*
X042573Y023909D02*
X042652D01*
X042612Y023870D02*
Y023949D01*
X041908Y023912D02*
X041987D01*
X041948Y023873D02*
Y023952D01*
X045254Y025011D02*
X045333D01*
X045293Y024972D02*
Y025051D01*
X043661Y024288D02*
X043740D01*
X043701Y024249D02*
Y024328D01*
X014429Y026575D02*
X014508D01*
X014468Y026535D02*
Y026614D01*
X015276Y026180D02*
X015355D01*
X015316Y026140D02*
Y026219D01*
X015174Y026860D02*
X015253D01*
X015213Y026821D02*
Y026900D01*
X014426Y026777D02*
X014504D01*
X014465Y026738D02*
Y026816D01*
X013445Y024506D02*
X013524D01*
X013484Y024467D02*
Y024545D01*
X017680Y052676D02*
X017759D01*
X017720Y052636D02*
Y052715D01*
X017602Y052459D02*
X017680D01*
X017641Y052420D02*
Y052498D01*
X017514Y052211D02*
X017593D01*
X017554Y052171D02*
Y052250D01*
X017514Y051461D02*
X017593D01*
X017554Y051421D02*
Y051500D01*
X017914Y051411D02*
X017993D01*
X017954Y051371D02*
Y051450D01*
X044154Y039744D02*
X044252D01*
X044203Y039695D02*
Y039793D01*
X049821Y033647D02*
X049900D01*
X049861Y033608D02*
Y033687D01*
X049837Y034040D02*
X049916D01*
X049876Y034001D02*
Y034079D01*
X049662Y034496D02*
X049740D01*
X049701Y034457D02*
Y034536D01*
X048711Y033635D02*
X048789D01*
X048750Y033595D02*
Y033674D01*
X048720Y034045D02*
X048799D01*
X048760Y034006D02*
Y034085D01*
X048720Y034488D02*
X048799D01*
X048760Y034449D02*
Y034528D01*
X048189Y040846D02*
X048268D01*
X048228Y040807D02*
Y040886D01*
X038532Y038622D02*
X038611D01*
X038571Y038583D02*
Y038661D01*
X041219Y023140D02*
X041298D01*
X041259Y023101D02*
Y023179D01*
X040992Y023140D02*
X041071D01*
X041032Y023101D02*
Y023179D01*
X039448Y031150D02*
X039547D01*
X039497Y031101D02*
Y031199D01*
X039678Y031150D02*
X039776D01*
X039727Y031101D02*
Y031199D01*
X038976Y040630D02*
X039055D01*
X039016Y040591D02*
Y040669D01*
X049350Y044449D02*
X049429D01*
X049390Y044409D02*
Y044488D01*
X049587Y045157D02*
X049665D01*
X049626Y045118D02*
Y045197D01*
X049350Y046929D02*
X049429D01*
X049390Y046890D02*
Y046968D01*
X044941Y040354D02*
X045020D01*
X044980Y040315D02*
Y040394D01*
X044252Y052756D02*
X044331D01*
X044291Y052717D02*
Y052795D01*
X045481Y045630D02*
X045559D01*
X045520Y045591D02*
Y045669D01*
X045771Y045840D02*
X045849D01*
X045810Y045801D02*
Y045879D01*
X043858Y052756D02*
X043937D01*
X043898Y052717D02*
Y052795D01*
X042205Y052205D02*
X042283D01*
X042244Y052165D02*
Y052244D01*
X042205Y052520D02*
X042283D01*
X042244Y052480D02*
Y052559D01*
X047402Y044409D02*
X047480D01*
X047441Y044370D02*
Y044449D01*
X048504Y044606D02*
X048583D01*
X048543Y044567D02*
Y044646D01*
X047402Y044764D02*
X047480D01*
X047441Y044724D02*
Y044803D01*
X048399Y046161D02*
X048478D01*
X048439Y046122D02*
Y046201D01*
X048407Y051673D02*
X048486D01*
X048447Y051634D02*
Y051713D01*
X048407Y048524D02*
X048486D01*
X048447Y048484D02*
Y048563D01*
X048407Y049114D02*
X048486D01*
X048447Y049075D02*
Y049154D01*
X048407Y049705D02*
X048486D01*
X048447Y049665D02*
Y049744D01*
X048407Y050295D02*
X048486D01*
X048447Y050256D02*
Y050335D01*
X048407Y050886D02*
X048486D01*
X048447Y050846D02*
Y050925D01*
X048407Y051476D02*
X048486D01*
X048447Y051437D02*
Y051516D01*
X048407Y047933D02*
X048486D01*
X048447Y047894D02*
Y047972D01*
X048441Y046941D02*
X048519D01*
X048480Y046901D02*
Y046980D01*
X048441Y047168D02*
X048519D01*
X048480Y047128D02*
Y047207D01*
X024764Y018209D02*
X024843D01*
X024803Y018169D02*
Y018248D01*
X049694Y023667D02*
X049772D01*
X049733Y023628D02*
Y023707D01*
X049351Y023377D02*
X049430D01*
X049391Y023337D02*
Y023416D01*
X017401Y027156D02*
X017480D01*
X017441Y027116D02*
Y027195D01*
X021511Y027750D02*
X021589D01*
X021550Y027711D02*
Y027789D01*
X037047Y029094D02*
X037126D01*
X037087Y029055D02*
Y029134D01*
X039328Y023449D02*
X039406D01*
X039367Y023409D02*
Y023488D01*
X038000Y022021D02*
X038079D01*
X038039Y021982D02*
Y022061D01*
X038161Y022200D02*
X038239D01*
X038200Y022161D02*
Y022239D01*
X037961Y022700D02*
X038039D01*
X038000Y022661D02*
Y022739D01*
X038004Y021695D02*
X038083D01*
X038043Y021655D02*
Y021734D01*
X049819Y032500D02*
X049897D01*
X049858Y032461D02*
Y032539D01*
X048719Y032500D02*
X048797D01*
X048758Y032461D02*
Y032539D01*
X021461Y039550D02*
X021539D01*
X021500Y039511D02*
Y039589D01*
X021511Y042100D02*
X021589D01*
X021550Y042061D02*
Y042139D01*
X020978Y039542D02*
X021057D01*
X021018Y039503D02*
Y039582D01*
X021220Y041260D02*
X021299D01*
X021260Y041220D02*
Y041299D01*
X021161Y042350D02*
X021239D01*
X021200Y042311D02*
Y042389D01*
X036811Y029600D02*
X036889D01*
X036850Y029561D02*
Y029639D01*
X036811Y027150D02*
X036889D01*
X036850Y027111D02*
Y027189D01*
X026561Y023800D02*
X026639D01*
X026600Y023761D02*
Y023839D01*
X025911Y020700D02*
X025989D01*
X025950Y020661D02*
Y020739D01*
X024061Y020300D02*
X024139D01*
X024100Y020261D02*
Y020339D01*
X025761Y021700D02*
X025839D01*
X025800Y021661D02*
Y021739D01*
X022702Y021378D02*
X022780D01*
X022741Y021339D02*
Y021417D01*
X022702Y021850D02*
X022780D01*
X022741Y021811D02*
Y021890D01*
X035787Y027657D02*
X035866D01*
X035827Y027618D02*
Y027697D01*
X045630Y038976D02*
X045709D01*
X045669Y038937D02*
Y039016D01*
X048733Y034773D02*
X048812D01*
X048773Y034734D02*
Y034812D01*
X035022Y031297D02*
X035101D01*
X035061Y031257D02*
Y031336D01*
X033917Y024902D02*
X033996D01*
X033957Y024862D02*
Y024941D01*
X035000Y024902D02*
X035079D01*
X035039Y024862D02*
Y024941D01*
X034272Y022000D02*
X034350D01*
X034311Y021960D02*
Y022039D01*
X033622Y022835D02*
X033701D01*
X033661Y022795D02*
Y022874D01*
X033524Y023228D02*
X033602D01*
X033563Y023189D02*
Y023268D01*
X029882Y014567D02*
X029961D01*
X029921Y014528D02*
Y014606D01*
X026831Y016831D02*
X026909D01*
X026870Y016791D02*
Y016870D01*
X028209Y016339D02*
X028287D01*
X028248Y016299D02*
Y016378D01*
X027831Y016434D02*
X027909D01*
X027870Y016395D02*
Y016474D01*
X027961Y016039D02*
X028040D01*
X028000Y016000D02*
Y016078D01*
X034385Y023819D02*
X034464D01*
X034425Y023780D02*
Y023858D01*
X034158Y023819D02*
X034237D01*
X034197Y023780D02*
Y023858D01*
X026499Y016795D02*
X026578D01*
X026539Y016755D02*
Y016834D01*
X025369Y018209D02*
X025448D01*
X025409Y018169D02*
Y018248D01*
X025142Y018209D02*
X025221D01*
X025182Y018169D02*
Y018248D01*
X031063Y028642D02*
X031142D01*
X031102Y028602D02*
Y028681D01*
X026339Y016634D02*
X026417D01*
X026378Y016595D02*
Y016673D01*
X028301Y018370D02*
X028379D01*
X028340Y018331D02*
Y018409D01*
X033940Y022280D02*
X034019D01*
X033980Y022241D02*
Y022320D01*
X030041Y021585D02*
X030120D01*
X030080Y021546D02*
Y021625D01*
X033780Y022441D02*
X033858D01*
X033819Y022402D02*
Y022480D01*
X029992Y021807D02*
X030071D01*
X030032Y021768D02*
Y021847D01*
X031847Y021646D02*
X031926D01*
X031886Y021607D02*
Y021686D01*
X034902Y022244D02*
X034980D01*
X034941Y022205D02*
Y022283D01*
X035276Y027100D02*
X035354D01*
X035315Y027061D02*
Y027140D01*
X035394Y024882D02*
X035472D01*
X035433Y024843D02*
Y024921D01*
X035394Y030945D02*
X035472D01*
X035433Y030906D02*
Y030984D01*
X033031Y030610D02*
X033110D01*
X033071Y030571D02*
Y030650D01*
X035433Y024252D02*
X035512D01*
X035472Y024213D02*
Y024291D01*
X033012Y023504D02*
X033091D01*
X033051Y023465D02*
Y023543D01*
X034554Y024921D02*
X034633D01*
X034594Y024882D02*
Y024961D01*
X034327Y024921D02*
X034406D01*
X034366Y024882D02*
Y024961D01*
X034200Y027656D02*
X034279D01*
X034239Y027616D02*
Y027695D01*
X034200Y027100D02*
X034279D01*
X034239Y027061D02*
Y027140D01*
X034597Y031299D02*
X034676D01*
X034637Y031260D02*
Y031339D01*
X034370Y031299D02*
X034449D01*
X034409Y031260D02*
Y031339D01*
X042913Y042480D02*
X042992D01*
X042953Y042441D02*
Y042520D01*
X039606Y041417D02*
X039685D01*
X039646Y041378D02*
Y041457D01*
X039767Y041578D02*
X039846D01*
X039806Y041539D02*
Y041617D01*
X038386Y040472D02*
X038465D01*
X038425Y040433D02*
Y040512D01*
X038556Y040638D02*
X038634D01*
X038595Y040598D02*
Y040677D01*
X038307Y039291D02*
X038386D01*
X038346Y039252D02*
Y039331D01*
X037292Y039742D02*
X037370D01*
X037331Y039703D02*
Y039782D01*
X038048Y039041D02*
X038126D01*
X038087Y039001D02*
Y039080D01*
X037717Y038937D02*
X037795D01*
X037756Y038898D02*
Y038976D01*
X039693Y023720D02*
X039772D01*
X039733Y023681D02*
Y023760D01*
X040273Y042192D02*
X040352D01*
X040312Y042153D02*
Y042232D01*
X040112Y042032D02*
X040191D01*
X040152Y041992D02*
Y042071D01*
X041701Y022670D02*
X041780D01*
X041740Y022631D02*
Y022709D01*
X041474Y022670D02*
X041552D01*
X041513Y022631D02*
Y022709D01*
X040727Y022890D02*
X040806D01*
X040767Y022851D02*
Y022929D01*
X040500Y022890D02*
X040579D01*
X040539Y022851D02*
Y022929D01*
X023189Y042402D02*
X023268D01*
X023228Y042362D02*
Y042441D01*
X033031Y024803D02*
X033110D01*
X033071Y024764D02*
Y024843D01*
X032047Y024803D02*
X032126D01*
X032087Y024764D02*
Y024843D01*
X049705Y026772D02*
X049783D01*
X049744Y026732D02*
Y026811D01*
X049705Y027087D02*
X049783D01*
X049744Y027047D02*
Y027126D01*
X049705Y027402D02*
X049783D01*
X049744Y027362D02*
Y027441D01*
X049705Y027717D02*
X049783D01*
X049744Y027677D02*
Y027756D01*
X049705Y028031D02*
X049783D01*
X049744Y027992D02*
Y028071D01*
X049705Y028386D02*
X049783D01*
X049744Y028346D02*
Y028425D01*
X049705Y028701D02*
X049783D01*
X049744Y028661D02*
Y028740D01*
X049566Y025105D02*
X049645D01*
X049606Y025066D02*
Y025145D01*
X048966Y025112D02*
X049044D01*
X049005Y025073D02*
Y025152D01*
X048499Y023331D02*
X048578D01*
X048538Y023292D02*
Y023371D01*
X047888Y023328D02*
X047967D01*
X047928Y023288D02*
Y023367D01*
X047737Y024223D02*
X047816D01*
X047777Y024184D02*
Y024263D01*
X041931Y022370D02*
X042009D01*
X041970Y022331D02*
Y022409D01*
X040811Y022450D02*
X040889D01*
X040850Y022411D02*
Y022489D01*
X020429Y035048D02*
X020507D01*
X020468Y035009D02*
Y035087D01*
X020445Y034747D02*
X020524D01*
X020485Y034708D02*
Y034786D01*
X020429Y035312D02*
X020507D01*
X020468Y035272D02*
Y035351D01*
X020152Y034752D02*
X020230D01*
X020191Y034713D02*
Y034792D01*
X020152Y035320D02*
X020230D01*
X020191Y035281D02*
Y035360D01*
X021501Y037660D02*
X021579D01*
X021540Y037621D02*
Y037699D01*
X025551Y030217D02*
X025630D01*
X025591Y030177D02*
Y030256D01*
X025551Y022146D02*
X025630D01*
X025591Y022106D02*
Y022185D01*
X032271Y027100D02*
X032350D01*
X032310Y027061D02*
Y027140D01*
X047677Y026575D02*
X047756D01*
X047717Y026535D02*
Y026614D01*
X048032Y026575D02*
X048110D01*
X048071Y026535D02*
Y026614D01*
X047677Y026870D02*
X047756D01*
X047717Y026831D02*
Y026909D01*
X048032Y026870D02*
X048110D01*
X048071Y026831D02*
Y026909D01*
X047677Y027165D02*
X047756D01*
X047717Y027126D02*
Y027205D01*
X048032Y027165D02*
X048110D01*
X048071Y027126D02*
Y027205D01*
X047677Y027461D02*
X047756D01*
X047717Y027421D02*
Y027500D01*
X048032Y027461D02*
X048110D01*
X048071Y027421D02*
Y027500D01*
X047677Y027756D02*
X047756D01*
X047717Y027717D02*
Y027795D01*
X048032Y027756D02*
X048110D01*
X048071Y027717D02*
Y027795D01*
X047677Y028051D02*
X047756D01*
X047717Y028012D02*
Y028091D01*
X048032Y028051D02*
X048110D01*
X048071Y028012D02*
Y028091D01*
X047677Y028346D02*
X047756D01*
X047717Y028307D02*
Y028386D01*
X048032Y028346D02*
X048110D01*
X048071Y028307D02*
Y028386D01*
X013452Y024225D02*
X013531D01*
X013491Y024186D02*
Y024265D01*
X013934Y023137D02*
X014013D01*
X013974Y023098D02*
Y023177D01*
X013937Y022933D02*
X014016D01*
X013976Y022894D02*
Y022972D01*
X013845Y020240D02*
X013923D01*
X013884Y020201D02*
Y020279D01*
X013839Y020472D02*
X013917D01*
X013878Y020433D02*
Y020512D01*
X031220Y042874D02*
X031299D01*
X031260Y042835D02*
Y042913D01*
X030709Y043425D02*
X030787D01*
X030748Y043386D02*
Y043465D01*
X030871Y042900D02*
X030949D01*
X030910Y042861D02*
Y042939D01*
X030710Y043061D02*
X030789D01*
X030749Y043021D02*
Y043100D01*
X031535Y046772D02*
X031614D01*
X031575Y046732D02*
Y046811D01*
X033268Y047087D02*
X033346D01*
X033307Y047047D02*
Y047126D01*
X038386Y040118D02*
X038465D01*
X038425Y040079D02*
Y040157D01*
X040748Y042205D02*
X040827D01*
X040787Y042165D02*
Y042244D01*
X040197Y041614D02*
X040276D01*
X040236Y041575D02*
Y041654D01*
X039567Y040984D02*
X039646D01*
X039606Y040945D02*
Y041024D01*
X023583Y017992D02*
X023661D01*
X023622Y017953D02*
Y018032D01*
X021811Y019134D02*
X021890D01*
X021850Y019094D02*
Y019173D01*
X026732Y024016D02*
X026811D01*
X026772Y023976D02*
Y024055D01*
X026063Y023346D02*
X026142D01*
X026102Y023307D02*
Y023386D01*
X045039Y030610D02*
X045118D01*
X045079Y030571D02*
Y030650D01*
X044843Y030394D02*
X044921D01*
X044882Y030354D02*
Y030433D01*
X045236Y030394D02*
X045315D01*
X045276Y030354D02*
Y030433D01*
X045236Y030827D02*
X045315D01*
X045276Y030787D02*
Y030866D01*
X044843Y030827D02*
X044921D01*
X044882Y030787D02*
Y030866D01*
X017815Y034094D02*
X017894D01*
X017854Y034055D02*
Y034134D01*
X017815Y034409D02*
X017894D01*
X017854Y034370D02*
Y034449D01*
X018110Y033917D02*
X018189D01*
X018150Y033878D02*
Y033957D01*
X018110Y034626D02*
X018189D01*
X018150Y034587D02*
Y034665D01*
X014872Y033150D02*
X014951D01*
X014911Y033110D02*
Y033189D01*
X014872Y033504D02*
X014951D01*
X014911Y033465D02*
Y033543D01*
X014872Y033819D02*
X014951D01*
X014911Y033780D02*
Y033858D01*
X014872Y034134D02*
X014951D01*
X014911Y034094D02*
Y034173D01*
X014872Y034409D02*
X014951D01*
X014911Y034370D02*
Y034449D01*
X019311Y035157D02*
X019390D01*
X019350Y035118D02*
Y035197D01*
X019311Y035394D02*
X019390D01*
X019350Y035354D02*
Y035433D01*
X019311Y035630D02*
X019390D01*
X019350Y035591D02*
Y035669D01*
X019311Y035866D02*
X019390D01*
X019350Y035827D02*
Y035906D01*
X019321Y036108D02*
X019400D01*
X019361Y036069D02*
Y036148D01*
X022323Y018819D02*
X022402D01*
X022362Y018780D02*
Y018858D01*
X018221Y027156D02*
X018300D01*
X018261Y027116D02*
Y027195D01*
X020301Y040940D02*
X020379D01*
X020340Y040901D02*
Y040979D01*
X048091Y022500D02*
X048169D01*
X048130Y022461D02*
Y022539D01*
X047579Y022500D02*
X047657D01*
X047618Y022461D02*
Y022539D01*
X048091Y022972D02*
X048169D01*
X048130Y022933D02*
Y023012D01*
X047579Y022972D02*
X047657D01*
X047618Y022933D02*
Y023012D01*
X048346Y022717D02*
X048425D01*
X048386Y022677D02*
Y022756D01*
X047835Y022717D02*
X047913D01*
X047874Y022677D02*
Y022756D01*
X047323Y022717D02*
X047402D01*
X047362Y022677D02*
Y022756D01*
X049008Y023702D02*
X049086D01*
X049047Y023663D02*
Y023741D01*
X049008Y024204D02*
X049086D01*
X049047Y024165D02*
Y024244D01*
X049002Y024704D02*
X049081D01*
X049041Y024665D02*
Y024744D01*
X048396Y024696D02*
X048475D01*
X048436Y024657D02*
Y024735D01*
X048386Y024213D02*
X048465D01*
X048425Y024173D02*
Y024252D01*
X048386Y023701D02*
X048465D01*
X048425Y023661D02*
Y023740D01*
X048130Y023937D02*
X048209D01*
X048169Y023898D02*
Y023976D01*
X048130Y024469D02*
X048209D01*
X048169Y024429D02*
Y024508D01*
X048720Y024469D02*
X048799D01*
X048760Y024429D02*
Y024508D01*
X048720Y023937D02*
X048799D01*
X048760Y023898D02*
Y023976D01*
X049311Y023957D02*
X049390D01*
X049350Y023917D02*
Y023996D01*
X049311Y024488D02*
X049390D01*
X049350Y024449D02*
Y024528D01*
X049094Y025669D02*
X049173D01*
X049134Y025630D02*
Y025709D01*
X049606Y025669D02*
X049685D01*
X049646Y025630D02*
Y025709D01*
X050118Y025669D02*
X050197D01*
X050157Y025630D02*
Y025709D01*
X049350Y025433D02*
X049429D01*
X049390Y025394D02*
Y025472D01*
X049862Y025433D02*
X049941D01*
X049902Y025394D02*
Y025472D01*
X049862Y025925D02*
X049941D01*
X049902Y025886D02*
Y025965D01*
X049350Y025925D02*
X049429D01*
X049390Y025886D02*
Y025965D01*
X044911Y027480D02*
X044990D01*
X044951Y027441D02*
Y027520D01*
X044911Y027795D02*
X044990D01*
X044951Y027756D02*
Y027835D01*
X044911Y028031D02*
X044990D01*
X044951Y027992D02*
Y028071D01*
X044596Y028031D02*
X044675D01*
X044636Y027992D02*
Y028071D01*
X044321Y028031D02*
X044400D01*
X044360Y027992D02*
Y028071D01*
X044045Y028031D02*
X044124D01*
X044085Y027992D02*
Y028071D01*
X043770Y028031D02*
X043848D01*
X043809Y027992D02*
Y028071D01*
X043494Y028031D02*
X043573D01*
X043533Y027992D02*
Y028071D01*
X046240Y026654D02*
X046319D01*
X046280Y026614D02*
Y026693D01*
X046240Y027008D02*
X046319D01*
X046280Y026969D02*
Y027047D01*
X046240Y027323D02*
X046319D01*
X046280Y027283D02*
Y027362D01*
X046240Y027638D02*
X046319D01*
X046280Y027598D02*
Y027677D01*
X046240Y027992D02*
X046319D01*
X046280Y027953D02*
Y028031D01*
X043811Y020689D02*
X043889D01*
X043850Y020650D02*
Y020729D01*
X043811Y021304D02*
X043889D01*
X043850Y021264D02*
Y021343D01*
X043811Y021969D02*
X043889D01*
X043850Y021929D02*
Y022008D01*
X044223Y021961D02*
X044301D01*
X044262Y021922D02*
Y022001D01*
X043442Y022500D02*
X043520D01*
X043481Y022461D02*
Y022540D01*
X043960Y022493D02*
X044039D01*
X044000Y022454D02*
Y022533D01*
X043970Y022966D02*
X044048D01*
X044009Y022926D02*
Y023005D01*
X043442Y022973D02*
X043520D01*
X043481Y022933D02*
Y023012D01*
X043200Y023238D02*
X043279D01*
X043239Y023198D02*
Y023277D01*
X043184Y022747D02*
X043262D01*
X043223Y022708D02*
Y022786D01*
X043172Y022268D02*
X043251D01*
X043211Y022228D02*
Y022307D01*
X043702Y022268D02*
X043781D01*
X043742Y022228D02*
Y022307D01*
X044216Y022282D02*
X044295D01*
X044256Y022242D02*
Y022321D01*
X044202Y022747D02*
X044281D01*
X044242Y022708D02*
Y022786D01*
X044186Y023312D02*
X044265D01*
X044225Y023273D02*
Y023351D01*
X043693Y023303D02*
X043772D01*
X043732Y023263D02*
Y023342D01*
X045209Y025439D02*
X045288D01*
X045249Y025399D02*
Y025478D01*
X045238Y025919D02*
X045316D01*
X045277Y025880D02*
Y025959D01*
X045715Y025932D02*
X045794D01*
X045755Y025893D02*
Y025971D01*
X045719Y025448D02*
X045797D01*
X045758Y025409D02*
Y025487D01*
X045992Y025228D02*
X046071D01*
X046031Y025189D02*
Y025267D01*
X045470Y025231D02*
X045549D01*
X045510Y025192D02*
Y025270D01*
X044964Y025228D02*
X045043D01*
X045003Y025189D02*
Y025267D01*
X044974Y025693D02*
X045052D01*
X045013Y025654D02*
Y025733D01*
X045472Y025709D02*
X045551D01*
X045512Y025669D02*
Y025748D01*
X045979Y025693D02*
X046058D01*
X046019Y025654D02*
Y025733D01*
X045967Y026206D02*
X046046D01*
X046006Y026166D02*
Y026245D01*
X045480Y026193D02*
X045558D01*
X045519Y026154D02*
Y026232D01*
X044967Y026187D02*
X045046D01*
X045007Y026147D02*
Y026226D01*
X045461Y024213D02*
X045539D01*
X045500Y024173D02*
Y024252D01*
X045464Y024725D02*
X045543D01*
X045503Y024686D02*
Y024764D01*
X045445Y023565D02*
X045524D01*
X045484Y023526D02*
Y023604D01*
X043661Y023702D02*
X043740D01*
X043701Y023663D02*
Y023741D01*
X043652Y023927D02*
X043730D01*
X043691Y023888D02*
Y023967D01*
X043284Y023961D02*
X043362D01*
X043323Y023922D02*
Y024001D01*
X044890Y024214D02*
X044968D01*
X044929Y024175D02*
Y024253D01*
X044295Y024214D02*
X044374D01*
X044334Y024175D02*
Y024253D01*
X044864Y023701D02*
X044943D01*
X044903Y023661D02*
Y023740D01*
X044291Y023720D02*
X044370D01*
X044331Y023681D02*
Y023760D01*
X043996Y023917D02*
X044075D01*
X044035Y023878D02*
Y023957D01*
X045159Y023971D02*
X045238D01*
X045198Y023932D02*
Y024011D01*
X044587Y023957D02*
X044665D01*
X044626Y023917D02*
Y023996D01*
X045177Y024469D02*
X045256D01*
X045217Y024429D02*
Y024508D01*
X044843Y024724D02*
X044921D01*
X044882Y024685D02*
Y024764D01*
X044587Y024469D02*
X044665D01*
X044626Y024429D02*
Y024508D01*
X044291Y024705D02*
X044370D01*
X044331Y024665D02*
Y024744D01*
X043986Y024490D02*
X044064D01*
X044025Y024451D02*
Y024529D01*
X031654Y028346D02*
X031732D01*
X031693Y028307D02*
Y028386D01*
X031260Y026378D02*
X031339D01*
X031299Y026339D02*
Y026417D01*
X032127Y027656D02*
X032206D01*
X032167Y027616D02*
Y027695D01*
X030301Y027120D02*
X030379D01*
X030340Y027081D02*
Y027159D01*
X031949Y027362D02*
X032028D01*
X031988Y027323D02*
Y027402D01*
X037461Y027165D02*
X037539D01*
X037500Y027126D02*
Y027205D01*
X029206Y022847D02*
X029284D01*
X029245Y022808D02*
Y022887D01*
X034961Y041050D02*
X035039D01*
X035000Y041011D02*
Y041089D01*
X031331Y027663D02*
X031410D01*
X031370Y027624D02*
Y027702D01*
X031271Y027350D02*
X031349D01*
X031310Y027311D02*
Y027389D01*
X031024Y027523D02*
X031102D01*
X031063Y027484D02*
Y027562D01*
X021591Y027260D02*
X021669D01*
X021630Y027221D02*
Y027299D01*
X027571Y016400D02*
X027649D01*
X027610Y016361D02*
Y016439D01*
X027361Y016720D02*
X027439D01*
X027400Y016681D02*
Y016759D01*
X027891Y014889D02*
X027969D01*
X027930Y014849D02*
Y014928D01*
X027941Y018990D02*
X028019D01*
X027980Y018951D02*
Y019029D01*
X027671Y019350D02*
X027749D01*
X027710Y019311D02*
Y019389D01*
X027991Y019680D02*
X028069D01*
X028030Y019641D02*
Y019719D01*
X027321Y018110D02*
X027399D01*
X027360Y018071D02*
Y018149D01*
X044843Y042677D02*
X044921D01*
X044882Y042638D02*
Y042717D01*
X044213Y042480D02*
X044291D01*
X044252Y042441D02*
Y042520D01*
X043898Y042480D02*
X043976D01*
X043937Y042441D02*
Y042520D01*
X043228Y042480D02*
X043307D01*
X043268Y042441D02*
Y042520D01*
X050138Y040354D02*
X050217D01*
X050177Y040315D02*
Y040394D01*
X050138Y034764D02*
X050217D01*
X050177Y034724D02*
Y034803D01*
X049665Y034764D02*
X049744D01*
X049705Y034724D02*
Y034803D01*
X044941D02*
X045020D01*
X044980Y034764D02*
Y034843D01*
X043701Y037520D02*
X043780D01*
X043740Y037480D02*
Y037559D01*
X032422Y024803D02*
X032501D01*
X032462Y024764D02*
Y024843D01*
X032650Y024803D02*
X032728D01*
X032689Y024764D02*
Y024843D01*
X044449Y028839D02*
X044528D01*
X044488Y028799D02*
Y028878D01*
X044055Y028839D02*
X044134D01*
X044094Y028799D02*
Y028878D01*
X044055Y030709D02*
X044134D01*
X044095Y030669D02*
Y030748D01*
X046122Y030315D02*
X046201D01*
X046161Y030276D02*
Y030354D01*
X030177Y040453D02*
X030256D01*
X030217Y040413D02*
Y040492D01*
X020154Y035024D02*
X020232D01*
X020193Y034984D02*
Y035063D01*
X039872Y023471D02*
X039951D01*
X039911Y023432D02*
Y023511D01*
X039616Y023444D02*
X039695D01*
X039656Y023405D02*
Y023484D01*
X034016Y040453D02*
X034094D01*
X034055Y040413D02*
Y040492D01*
X037292Y041032D02*
X037370D01*
X037331Y040993D02*
Y041072D01*
X021816Y021358D02*
X021894D01*
X021855Y021319D02*
Y021398D01*
X021816Y021850D02*
X021894D01*
X021855Y021811D02*
Y021890D01*
X015679Y027092D02*
X015758D01*
X015718Y027053D02*
Y027132D01*
X016073Y027096D02*
X016152D01*
X016112Y027057D02*
Y027135D01*
X029587Y042421D02*
X029665D01*
X029626Y042382D02*
Y042461D01*
X047835Y021457D02*
X047913D01*
X047874Y021417D02*
Y021496D01*
X048169Y021791D02*
X048248D01*
X048209Y021752D02*
Y021831D01*
X050256Y021791D02*
X050335D01*
X050295Y021752D02*
Y021831D01*
X050256Y021122D02*
X050335D01*
X050295Y021083D02*
Y021161D01*
X047244Y021850D02*
X047323D01*
X047283Y021811D02*
Y021890D01*
X027151Y020390D02*
X027229D01*
X027190Y020351D02*
Y020429D01*
X027181Y020730D02*
X027259D01*
X027220Y020691D02*
Y020769D01*
X027931Y022070D02*
X028009D01*
X027970Y022031D02*
Y022109D01*
X028141Y021860D02*
X028219D01*
X028180Y021821D02*
Y021899D01*
X030871Y024830D02*
X030949D01*
X030910Y024791D02*
Y024869D01*
X031135Y024713D02*
X031213D01*
X031174Y024673D02*
Y024752D01*
X031839Y021292D02*
X031917D01*
X031878Y021253D02*
Y021332D01*
X023441Y023720D02*
X023520D01*
X023480Y023681D02*
Y023760D01*
X024230Y023720D02*
X024309D01*
X024270Y023681D02*
Y023760D01*
X024247Y025197D02*
X024326D01*
X024287Y025157D02*
Y025236D01*
X023504Y025197D02*
X023583D01*
X023543Y025157D02*
Y025236D01*
X048791Y046850D02*
X048869D01*
X048830Y046811D02*
Y046889D01*
X048701Y046336D02*
X048780D01*
X048740Y046297D02*
Y046376D01*
X048694Y046563D02*
X048772D01*
X048733Y046524D02*
Y046603D01*
X048811Y047200D02*
X048889D01*
X048850Y047161D02*
Y047239D01*
X029621Y026620D02*
X029699D01*
X029660Y026581D02*
Y026659D01*
X034803Y027100D02*
X034882D01*
X034843Y027061D02*
Y027140D01*
X033858Y027100D02*
X033937D01*
X033898Y027061D02*
Y027140D01*
X033071Y027100D02*
X033150D01*
X033110Y027061D02*
Y027140D01*
X031496Y027100D02*
X031575D01*
X031535Y027061D02*
Y027140D01*
X030709Y027100D02*
X030787D01*
X030748Y027061D02*
Y027140D01*
X037323Y027656D02*
X037402D01*
X037362Y027616D02*
Y027695D01*
X035433Y027656D02*
X035512D01*
X035472Y027616D02*
Y027695D01*
X034803Y027656D02*
X034882D01*
X034843Y027616D02*
Y027695D01*
X033701Y027656D02*
X033780D01*
X033740Y027616D02*
Y027695D01*
X030709Y027656D02*
X030787D01*
X030748Y027616D02*
Y027695D01*
X029764Y027656D02*
X029843D01*
X029803Y027616D02*
Y027695D01*
X030236Y027656D02*
X030315D01*
X030276Y027616D02*
Y027695D01*
X036850Y039746D02*
X036929D01*
X036890Y039706D02*
Y039785D01*
X036378Y039746D02*
X036457D01*
X036417Y039706D02*
Y039785D01*
X035906Y039746D02*
X035984D01*
X035945Y039706D02*
Y039785D01*
X035433Y039746D02*
X035512D01*
X035472Y039706D02*
Y039785D01*
X034961Y039746D02*
X035039D01*
X035000Y039706D02*
Y039785D01*
X034488Y039746D02*
X034567D01*
X034528Y039706D02*
Y039785D01*
X032598Y039746D02*
X032677D01*
X032638Y039706D02*
Y039785D01*
X032126Y039746D02*
X032205D01*
X032165Y039706D02*
Y039785D01*
X031654Y039746D02*
X031732D01*
X031693Y039706D02*
Y039785D01*
X031181Y039746D02*
X031260D01*
X031220Y039706D02*
Y039785D01*
X030709Y039746D02*
X030787D01*
X030748Y039706D02*
Y039785D01*
X036850Y041030D02*
X036929D01*
X036890Y040991D02*
Y041070D01*
X036378Y041037D02*
X036457D01*
X036417Y040998D02*
Y041077D01*
X035906Y041035D02*
X035984D01*
X035945Y040996D02*
Y041074D01*
X035433Y041018D02*
X035512D01*
X035472Y040978D02*
Y041057D01*
X034488Y041638D02*
X034567D01*
X034528Y041598D02*
Y041677D01*
X034016Y041655D02*
X034094D01*
X034055Y041616D02*
Y041694D01*
X033543Y041677D02*
X033622D01*
X033583Y041638D02*
Y041717D01*
X033071Y041680D02*
X033150D01*
X033110Y041640D02*
Y041719D01*
X032598Y041678D02*
X032677D01*
X032638Y041638D02*
Y041717D01*
X032126Y041045D02*
X032205D01*
X032165Y041005D02*
Y041084D01*
X031654Y041047D02*
X031732D01*
X031693Y041008D02*
Y041086D01*
X031181Y041040D02*
X031260D01*
X031220Y041000D02*
Y041079D01*
X030709Y041038D02*
X030787D01*
X030748Y040999D02*
Y041077D01*
X030236Y041036D02*
X030315D01*
X030276Y040996D02*
Y041075D01*
X029783Y042126D02*
X029862D01*
X029823Y042087D02*
Y042165D01*
X032595Y023724D02*
X032674D01*
X032634Y023685D02*
Y023763D01*
X029094Y022343D02*
X029173D01*
X029134Y022303D02*
Y022382D01*
X028417Y022246D02*
X028496D01*
X028456Y022206D02*
Y022285D01*
X028401Y023440D02*
X028479D01*
X028440Y023401D02*
Y023479D01*
X029298Y023438D02*
X029377D01*
X029338Y023398D02*
Y023477D01*
X029111Y024330D02*
X029189D01*
X029150Y024291D02*
Y024369D01*
X029326Y024585D02*
X029405D01*
X029365Y024546D02*
Y024625D01*
X030150Y024713D02*
X030229D01*
X030190Y024673D02*
Y024752D01*
X031168Y025190D02*
X031247D01*
X031208Y025150D02*
Y025229D01*
X030184Y025150D02*
X030263D01*
X030224Y025111D02*
Y025190D01*
X031516Y025197D02*
X031594D01*
X031555Y025157D02*
Y025236D01*
X030539Y025150D02*
X030617D01*
X030578Y025111D02*
Y025190D01*
X029764Y021614D02*
X029843D01*
X029803Y021575D02*
Y021654D01*
X029114Y021594D02*
X029193D01*
X029154Y021555D02*
Y021634D01*
X029469Y021594D02*
X029547D01*
X029508Y021555D02*
Y021634D01*
X028996Y021122D02*
X029075D01*
X029035Y021083D02*
Y021161D01*
X031437Y020531D02*
X031516D01*
X031476Y020492D02*
Y020571D01*
X038337Y023414D02*
X038415D01*
X038376Y023375D02*
Y023453D01*
X040128Y023447D02*
X040207D01*
X040167Y023408D02*
Y023487D01*
X038740Y016700D02*
X038819D01*
X038780Y016660D02*
Y016739D01*
X039921Y016719D02*
X040000D01*
X039961Y016680D02*
Y016759D01*
X040512Y016709D02*
X040591D01*
X040551Y016669D02*
Y016748D01*
X041102Y016702D02*
X041181D01*
X041142Y016662D02*
Y016741D01*
X041693Y016702D02*
X041772D01*
X041732Y016663D02*
Y016742D01*
X033531Y046980D02*
X033609D01*
X033570Y046941D02*
Y047019D01*
X033531Y047207D02*
X033609D01*
X033570Y047168D02*
Y047247D01*
X031791Y046897D02*
X031869D01*
X031830Y046858D02*
Y046937D01*
X031791Y046670D02*
X031869D01*
X031830Y046631D02*
Y046709D01*
X033031Y019831D02*
X033110D01*
X033071Y019792D02*
Y019870D01*
X033031Y020709D02*
X033110D01*
X033071Y020670D02*
Y020749D01*
X048721Y047524D02*
X048799D01*
X048760Y047485D02*
Y047564D01*
X048721Y047751D02*
X048799D01*
X048760Y047712D02*
Y047791D01*
X031174Y023005D02*
X031253D01*
X031213Y022965D02*
Y023044D01*
X030741Y023005D02*
X030820D01*
X030780Y022965D02*
Y023044D01*
X030308Y023005D02*
X030387D01*
X030347Y022965D02*
Y023044D01*
X031174Y023438D02*
X031253D01*
X031213Y023398D02*
Y023477D01*
X030741Y023438D02*
X030820D01*
X030780Y023398D02*
Y023477D01*
X030308Y023438D02*
X030387D01*
X030347Y023398D02*
Y023477D01*
X031174Y023871D02*
X031253D01*
X031213Y023832D02*
Y023910D01*
X030741Y023871D02*
X030820D01*
X030780Y023832D02*
Y023910D01*
X030308Y023871D02*
X030387D01*
X030347Y023832D02*
Y023910D01*
M02*
