G04*
G04 #@! TF.GenerationSoftware,Altium Limited,Altium Designer,22.2.1 (43)*
G04*
G04 Layer_Color=16711935*
%FSAX24Y24*%
%MOIN*%
G70*
G04*
G04 #@! TF.SameCoordinates,07477AA8-A169-438C-A272-D3E418652323*
G04*
G04*
G04 #@! TF.FilePolarity,Negative*
G04*
G01*
G75*
%ADD136O,0.1852X0.0789*%
%ADD137O,0.0789X0.1655*%
%ADD138O,0.1655X0.0789*%
%ADD139C,0.2442*%
%ADD140C,0.0710*%
%ADD141R,0.0710X0.0710*%
%ADD142C,0.0493*%
%ADD143O,0.0434X0.0710*%
%ADD144C,0.0639*%
%ADD145C,0.1438*%
%ADD146C,0.2049*%
%ADD147C,0.0620*%
%ADD148C,0.1360*%
%ADD149C,0.0755*%
%ADD150C,0.1010*%
%ADD151C,0.0680*%
%ADD152R,0.0680X0.0680*%
%ADD153C,0.0671*%
%ADD154O,0.0671X0.1379*%
%ADD155O,0.0671X0.1143*%
%ADD156C,0.0630*%
%ADD157C,0.0433*%
%ADD216R,0.0237X0.0611*%
%ADD217R,0.0828X0.0690*%
%ADD218R,0.0710X0.0631*%
%ADD219C,0.0080*%
D136*
X046260Y018327D02*
D03*
D137*
X048150Y017185D02*
D03*
D138*
X046260Y015945D02*
D03*
D139*
X013189Y015157D02*
D03*
X049803D02*
D03*
Y051772D02*
D03*
X013189D02*
D03*
D140*
X025878Y042913D02*
D03*
D141*
X026878D02*
D03*
D142*
X047654Y041687D02*
D03*
Y041187D02*
D03*
X047154Y041687D02*
D03*
X046654D02*
D03*
X047154Y041187D02*
D03*
X046654D02*
D03*
X046154Y041687D02*
D03*
X045654D02*
D03*
X046154Y041187D02*
D03*
X045654D02*
D03*
D143*
X026457Y014301D02*
D03*
X029055D02*
D03*
D144*
X031299Y019138D02*
D03*
X034055D02*
D03*
X033071D02*
D03*
X032283D02*
D03*
X033071Y018106D02*
D03*
X032283D02*
D03*
X034055D02*
D03*
X031299D02*
D03*
D145*
X030091Y019276D02*
D03*
X035264D02*
D03*
Y017039D02*
D03*
X030091D02*
D03*
D146*
X042126Y040551D02*
D03*
X023228Y027559D02*
D03*
X042126D02*
D03*
X023228Y040551D02*
D03*
D147*
X015910Y019923D02*
D03*
X020310D02*
D03*
X015910Y020523D02*
D03*
X020310D02*
D03*
D148*
X015610Y017323D02*
D03*
X020610D02*
D03*
D149*
X015710Y025323D02*
D03*
X019510D02*
D03*
X016710D02*
D03*
X020510D02*
D03*
D150*
X014935Y016073D02*
D03*
X021285D02*
D03*
D151*
X020510Y024323D02*
D03*
X016110Y023323D02*
D03*
X015710Y024323D02*
D03*
X019710D02*
D03*
X018910D02*
D03*
X018510Y023323D02*
D03*
X019310D02*
D03*
X017710D02*
D03*
X016910D02*
D03*
X016510Y024323D02*
D03*
X017310D02*
D03*
D152*
X020110Y023323D02*
D03*
D153*
X023408Y015884D02*
D03*
X023900Y014900D02*
D03*
X025672D02*
D03*
X026164Y015884D02*
D03*
D154*
X037303Y017136D02*
D03*
X043012D02*
D03*
D155*
X037303Y014774D02*
D03*
X043012D02*
D03*
D156*
X045915Y044094D02*
D03*
D157*
Y051968D02*
D03*
D216*
X027756Y015354D02*
D03*
X028012D02*
D03*
X028268D02*
D03*
X027500D02*
D03*
X027244D02*
D03*
D217*
X028228Y014301D02*
D03*
X027283D02*
D03*
D218*
X026496Y015266D02*
D03*
X029016D02*
D03*
D219*
X015108Y048032D02*
D03*
M02*
