G04*
G04 #@! TF.GenerationSoftware,Altium Limited,Altium Designer,22.2.1 (43)*
G04*
G04 Layer_Physical_Order=4*
G04 Layer_Color=16711680*
%FSAX24Y24*%
%MOIN*%
G70*
G04*
G04 #@! TF.SameCoordinates,07477AA8-A169-438C-A272-D3E418652323*
G04*
G04*
G04 #@! TF.FilePolarity,Positive*
G04*
G01*
G75*
%ADD14C,0.0100*%
%ADD19C,0.0080*%
%ADD156C,0.0630*%
%ADD157C,0.0433*%
%ADD161C,0.0400*%
%ADD162C,0.0200*%
%ADD164C,0.0800*%
%ADD166C,0.0300*%
%ADD167O,0.1772X0.0709*%
%ADD168O,0.0709X0.1575*%
%ADD169O,0.1575X0.0709*%
%ADD170C,0.2362*%
%ADD171R,0.0630X0.0630*%
%ADD172C,0.0413*%
%ADD173O,0.0354X0.0630*%
%ADD174C,0.0559*%
%ADD175C,0.1358*%
%ADD176C,0.1969*%
%ADD177C,0.0540*%
%ADD178C,0.1280*%
%ADD179C,0.0675*%
%ADD180C,0.0930*%
%ADD181C,0.0600*%
%ADD182R,0.0600X0.0600*%
%ADD183C,0.0591*%
%ADD184O,0.0591X0.1299*%
%ADD185O,0.0591X0.1063*%
%ADD186C,0.0177*%
%ADD187C,0.0197*%
%ADD213R,0.0157X0.0531*%
%ADD214R,0.0748X0.0610*%
%ADD215R,0.0630X0.0551*%
G36*
X048821Y052515D02*
X048750Y052417D01*
X048662Y052244D01*
X048602Y052060D01*
X048572Y051869D01*
Y051815D01*
X048525Y051791D01*
X048474Y051812D01*
X048419D01*
X048368Y051791D01*
X048329Y051752D01*
X048308Y051701D01*
Y051646D01*
X048329Y051595D01*
X048349Y051575D01*
X048329Y051555D01*
X048308Y051504D01*
Y051449D01*
X048329Y051398D01*
X048368Y051359D01*
X048419Y051338D01*
X048474D01*
X048525Y051359D01*
X048564Y051398D01*
X048572Y051416D01*
X048625Y051414D01*
X048662Y051299D01*
X048750Y051126D01*
X048864Y050970D01*
X049001Y050833D01*
X049158Y050719D01*
X049331Y050631D01*
X049515Y050571D01*
X049706Y050541D01*
X049900D01*
X050091Y050571D01*
X050276Y050631D01*
X050448Y050719D01*
X050605Y050833D01*
X050643Y050870D01*
X050689Y050851D01*
Y040493D01*
X050642D01*
X050591Y040472D01*
X050552Y040433D01*
X050531Y040382D01*
Y040327D01*
X050552Y040276D01*
X050591Y040237D01*
X050642Y040216D01*
X050689D01*
Y039129D01*
X049055D01*
X049017Y039113D01*
X049001Y039075D01*
Y036122D01*
X049017Y036084D01*
X049055Y036068D01*
X050689D01*
Y034902D01*
X050642D01*
X050591Y034881D01*
X050552Y034842D01*
X050531Y034791D01*
Y034736D01*
X050552Y034685D01*
X050591Y034646D01*
X050642Y034625D01*
X050689D01*
Y025841D01*
X050639Y025807D01*
X050638Y025808D01*
X050583D01*
X050532Y025787D01*
X050493Y025748D01*
X050472Y025697D01*
Y025642D01*
X050493Y025591D01*
X050532Y025552D01*
X050583Y025531D01*
X050638D01*
X050639Y025531D01*
X050689Y025498D01*
Y021917D01*
X050670Y021909D01*
X050631Y021870D01*
X050609Y021819D01*
Y021764D01*
X050631Y021713D01*
X050670Y021674D01*
X050689Y021666D01*
Y021248D01*
X050670Y021240D01*
X050631Y021201D01*
X050609Y021150D01*
Y021094D01*
X050631Y021044D01*
X050670Y021005D01*
X050689Y020997D01*
Y017913D01*
X048429D01*
X048354Y017971D01*
X048255Y018012D01*
X048150Y018026D01*
X048044Y018012D01*
X047946Y017971D01*
X047870Y017913D01*
X046981D01*
X046971Y017963D01*
X046995Y017974D01*
X047080Y018038D01*
X047145Y018123D01*
X047185Y018221D01*
X047199Y018327D01*
X047185Y018432D01*
X047145Y018531D01*
X047080Y018615D01*
X046995Y018680D01*
X046897Y018721D01*
X046791Y018735D01*
X045728D01*
X045623Y018721D01*
X045524Y018680D01*
X045440Y018615D01*
X045375Y018531D01*
X045334Y018432D01*
X045321Y018327D01*
X045334Y018221D01*
X045375Y018123D01*
X045440Y018038D01*
X045524Y017974D01*
X045549Y017963D01*
X045539Y017913D01*
X044430D01*
Y018661D01*
X044415Y018779D01*
X044390Y018839D01*
X044415Y018898D01*
X044430Y019016D01*
Y019165D01*
X044415Y019283D01*
X044369Y019392D01*
X044297Y019486D01*
X044203Y019558D01*
X044094Y019604D01*
X043976Y019619D01*
X043859Y019604D01*
X043749Y019558D01*
X043655Y019486D01*
X043583Y019392D01*
X043538Y019283D01*
X043522Y019165D01*
Y019016D01*
X043538Y018898D01*
X043563Y018839D01*
X043538Y018779D01*
X043522Y018661D01*
Y017913D01*
X036817D01*
X036797Y017960D01*
X036984Y018147D01*
X037040Y018229D01*
X037059Y018327D01*
Y021182D01*
X037040Y021280D01*
X036984Y021362D01*
X034674Y023673D01*
X034694Y023708D01*
X034713Y023781D01*
Y023857D01*
X034694Y023930D01*
X034656Y023996D01*
X034602Y024050D01*
X034536Y024088D01*
X034463Y024107D01*
X034387D01*
X034313Y024088D01*
X034311Y024087D01*
X034309Y024088D01*
X034235Y024107D01*
X034159D01*
X034086Y024088D01*
X034020Y024050D01*
X033967Y023996D01*
X033929Y023930D01*
X033909Y023857D01*
Y023781D01*
X033929Y023708D01*
X033961Y023651D01*
Y023502D01*
X033981Y023404D01*
X034036Y023321D01*
X034924Y022433D01*
X034919Y022408D01*
X034907Y022380D01*
X034862Y022362D01*
X034823Y022323D01*
X034802Y022272D01*
Y022217D01*
X034823Y022166D01*
X034862Y022127D01*
X034913Y022106D01*
X034969D01*
X035019Y022127D01*
X035058Y022166D01*
X035077Y022210D01*
X035105Y022222D01*
X035130Y022228D01*
X036359Y020998D01*
Y018511D01*
X036305Y018457D01*
X034836D01*
X034738Y018437D01*
X034655Y018382D01*
X034432Y018159D01*
X034378Y018175D01*
X034362Y018233D01*
X034319Y018309D01*
X034257Y018370D01*
X034182Y018413D01*
X034098Y018436D01*
X034012D01*
X033928Y018413D01*
X033853Y018370D01*
X033791Y018309D01*
X033748Y018233D01*
X033726Y018150D01*
Y018063D01*
X033748Y017979D01*
X033761Y017957D01*
X033736Y017913D01*
X033567D01*
X033529Y017963D01*
X033550Y018043D01*
Y018169D01*
X033518Y018291D01*
X033455Y018401D01*
X033365Y018490D01*
X033256Y018553D01*
X033134Y018586D01*
X033008D01*
X032886Y018553D01*
X032776Y018490D01*
X032711Y018425D01*
X032677Y018406D01*
X032643Y018425D01*
X032578Y018490D01*
X032469Y018553D01*
X032347Y018586D01*
X032220D01*
X032098Y018553D01*
X031989Y018490D01*
X031900Y018401D01*
X031837Y018291D01*
X031804Y018169D01*
Y018043D01*
X031825Y017963D01*
X031787Y017913D01*
X031618D01*
X031593Y017957D01*
X031606Y017979D01*
X031629Y018063D01*
Y018150D01*
X031606Y018233D01*
X031563Y018309D01*
X031502Y018370D01*
X031426Y018413D01*
X031343Y018436D01*
X031256D01*
X031172Y018413D01*
X031097Y018370D01*
X031036Y018309D01*
X030992Y018233D01*
X030990Y018224D01*
X030941Y018211D01*
X030862Y018290D01*
X030780Y018346D01*
X030682Y018365D01*
X028479D01*
Y018398D01*
X028457Y018448D01*
X028419Y018487D01*
X028368Y018509D01*
X028312D01*
X028291Y018500D01*
X028070Y018720D01*
X027988Y018775D01*
X027890Y018795D01*
X026512D01*
X026415Y018775D01*
X026332Y018720D01*
X025977Y018365D01*
X025686D01*
X025655Y018359D01*
X025640Y018386D01*
X025586Y018440D01*
X025520Y018478D01*
X025447Y018497D01*
X025371D01*
X025297Y018478D01*
X025295Y018476D01*
X025293Y018478D01*
X025220Y018497D01*
X025144D01*
X025070Y018478D01*
X025004Y018440D01*
X024951Y018386D01*
X024929Y018349D01*
X024885Y018328D01*
X024865Y018333D01*
X024831Y018347D01*
X024776D01*
X024725Y018326D01*
X024686Y018287D01*
X024665Y018236D01*
Y018181D01*
X024686Y018130D01*
X024725Y018091D01*
X024776Y018070D01*
X024831D01*
X024865Y018084D01*
X024885Y018090D01*
X024929Y018068D01*
X024951Y018031D01*
X024987Y017995D01*
X025008Y017963D01*
X024982Y017913D01*
X023068D01*
X022352Y018630D01*
X022372Y018680D01*
X022390D01*
X022441Y018701D01*
X022480Y018740D01*
X022501Y018791D01*
Y018846D01*
X022480Y018897D01*
X022441Y018936D01*
X022390Y018957D01*
X022335D01*
X022284Y018936D01*
X022245Y018897D01*
X022224Y018846D01*
Y018829D01*
X022174Y018808D01*
X022161Y018821D01*
X022067Y018893D01*
X021957Y018938D01*
X021840Y018954D01*
X014267D01*
X013151Y020070D01*
Y027070D01*
X020386Y034306D01*
X020485Y034293D01*
X020602Y034308D01*
X020712Y034354D01*
X020806Y034426D01*
X020878Y034520D01*
X020923Y034629D01*
X020938Y034747D01*
Y035006D01*
X020923Y035123D01*
X020922Y035126D01*
Y035312D01*
X020907Y035429D01*
X020861Y035539D01*
X020789Y035633D01*
X020695Y035705D01*
X020586Y035750D01*
X020468Y035766D01*
X020351Y035750D01*
X020241Y035705D01*
X020147Y035633D01*
X020075Y035539D01*
X020030Y035429D01*
X020014Y035312D01*
Y035166D01*
X019964Y035146D01*
X019870Y035073D01*
X012448Y027651D01*
X012402Y027670D01*
Y030315D01*
Y044386D01*
X012795D01*
X012834Y044394D01*
X012867Y044416D01*
X012889Y044449D01*
X012897Y044488D01*
Y045079D01*
X012889Y045118D01*
X012867Y045151D01*
X012834Y045173D01*
X012795Y045181D01*
X012402D01*
Y045826D01*
X012452Y045858D01*
X012474Y045849D01*
X012529D01*
X012565Y045864D01*
X012584Y045867D01*
X012624Y045843D01*
X012633Y045821D01*
X012672Y045783D01*
X012722Y045761D01*
X012778D01*
X012829Y045783D01*
X012867Y045821D01*
X012889Y045872D01*
Y045928D01*
X012867Y045978D01*
X012829Y046017D01*
X012778Y046039D01*
X012722D01*
X012687Y046024D01*
X012667Y046020D01*
X012628Y046045D01*
X012619Y046066D01*
X012580Y046105D01*
X012529Y046126D01*
X012474D01*
X012466Y046123D01*
X012407Y046143D01*
X012402Y046149D01*
Y046748D01*
X012795D01*
X012834Y046756D01*
X012867Y046778D01*
X012889Y046811D01*
X012897Y046850D01*
Y047441D01*
X012889Y047480D01*
X012867Y047513D01*
X012834Y047535D01*
X012795Y047543D01*
X012402D01*
Y050767D01*
X012446Y050790D01*
X012544Y050719D01*
X012716Y050631D01*
X012901Y050571D01*
X013092Y050541D01*
X013286D01*
X013477Y050571D01*
X013662Y050631D01*
X013834Y050719D01*
X013991Y050833D01*
X014128Y050970D01*
X014242Y051126D01*
X014330Y051299D01*
X014390Y051483D01*
X014420Y051675D01*
Y051869D01*
X014390Y052060D01*
X014330Y052244D01*
X014242Y052417D01*
X014171Y052515D01*
X014194Y052559D01*
X042098D01*
X042106Y052547D01*
Y052492D01*
X042127Y052441D01*
X042166Y052402D01*
X042197Y052389D01*
Y052335D01*
X042166Y052322D01*
X042127Y052283D01*
X042106Y052232D01*
Y052177D01*
X042127Y052126D01*
X042166Y052087D01*
X042217Y052066D01*
X042272D01*
X042323Y052087D01*
X042362Y052126D01*
X042383Y052177D01*
Y052232D01*
X042362Y052283D01*
X042323Y052322D01*
X042291Y052335D01*
Y052389D01*
X042323Y052402D01*
X042362Y052441D01*
X042383Y052492D01*
Y052547D01*
X042391Y052559D01*
X048798D01*
X048821Y052515D01*
D02*
G37*
%LPC*%
G36*
X045950Y052235D02*
X045880D01*
X045812Y052217D01*
X045752Y052182D01*
X045702Y052132D01*
X045667Y052071D01*
X045649Y052004D01*
Y051933D01*
X045667Y051866D01*
X045702Y051805D01*
X045752Y051755D01*
X045812Y051720D01*
X045880Y051702D01*
X045950D01*
X046018Y051720D01*
X046079Y051755D01*
X046129Y051805D01*
X046164Y051866D01*
X046182Y051933D01*
Y052004D01*
X046164Y052071D01*
X046129Y052132D01*
X046079Y052182D01*
X046018Y052217D01*
X045950Y052235D01*
D02*
G37*
G36*
X048474Y051024D02*
X048419D01*
X048368Y051003D01*
X048329Y050964D01*
X048308Y050913D01*
Y050858D01*
X048329Y050807D01*
X048368Y050768D01*
X048419Y050747D01*
X048474D01*
X048525Y050768D01*
X048564Y050807D01*
X048585Y050858D01*
Y050913D01*
X048564Y050964D01*
X048525Y051003D01*
X048474Y051024D01*
D02*
G37*
G36*
Y050434D02*
X048419D01*
X048368Y050413D01*
X048329Y050374D01*
X048308Y050323D01*
Y050268D01*
X048329Y050217D01*
X048368Y050178D01*
X048419Y050157D01*
X048474D01*
X048525Y050178D01*
X048564Y050217D01*
X048585Y050268D01*
Y050323D01*
X048564Y050374D01*
X048525Y050413D01*
X048474Y050434D01*
D02*
G37*
G36*
Y049843D02*
X048419D01*
X048368Y049822D01*
X048329Y049783D01*
X048308Y049732D01*
Y049677D01*
X048329Y049626D01*
X048368Y049587D01*
X048419Y049566D01*
X048474D01*
X048525Y049587D01*
X048564Y049626D01*
X048585Y049677D01*
Y049732D01*
X048564Y049783D01*
X048525Y049822D01*
X048474Y049843D01*
D02*
G37*
G36*
Y049253D02*
X048419D01*
X048368Y049232D01*
X048329Y049193D01*
X048308Y049142D01*
Y049087D01*
X048329Y049036D01*
X048368Y048997D01*
X048419Y048976D01*
X048474D01*
X048525Y048997D01*
X048564Y049036D01*
X048585Y049087D01*
Y049142D01*
X048564Y049193D01*
X048525Y049232D01*
X048474Y049253D01*
D02*
G37*
G36*
Y048662D02*
X048419D01*
X048368Y048641D01*
X048329Y048602D01*
X048308Y048551D01*
Y048496D01*
X048329Y048445D01*
X048368Y048406D01*
X048419Y048385D01*
X048474D01*
X048525Y048406D01*
X048564Y048445D01*
X048585Y048496D01*
Y048551D01*
X048564Y048602D01*
X048525Y048641D01*
X048474Y048662D01*
D02*
G37*
G36*
X015185Y048810D02*
X015032D01*
X014881Y048780D01*
X014740Y048721D01*
X014612Y048636D01*
X014504Y048528D01*
X014418Y048400D01*
X014360Y048259D01*
X014330Y048108D01*
Y047955D01*
X014360Y047804D01*
X014418Y047663D01*
X014504Y047535D01*
X014612Y047427D01*
X014740Y047342D01*
X014881Y047283D01*
X015032Y047253D01*
X015185D01*
X015335Y047283D01*
X015477Y047342D01*
X015604Y047427D01*
X015713Y047535D01*
X015798Y047663D01*
X015857Y047804D01*
X015887Y047955D01*
Y048108D01*
X015857Y048259D01*
X015798Y048400D01*
X015713Y048528D01*
X015604Y048636D01*
X015477Y048721D01*
X015335Y048780D01*
X015185Y048810D01*
D02*
G37*
G36*
X048474Y048072D02*
X048419D01*
X048368Y048051D01*
X048329Y048012D01*
X048319Y047988D01*
X033390D01*
X033293Y047968D01*
X033210Y047913D01*
X032430Y047133D01*
X031998D01*
X031941Y047166D01*
X031868Y047186D01*
X031792D01*
X031719Y047166D01*
X031653Y047128D01*
X031599Y047074D01*
X031561Y047009D01*
X031541Y046935D01*
Y046908D01*
X031496Y046889D01*
X031457Y046850D01*
X031436Y046799D01*
Y046744D01*
X031457Y046693D01*
X031496Y046654D01*
X031541Y046635D01*
Y046632D01*
X031561Y046559D01*
X031599Y046493D01*
X031653Y046439D01*
X031719Y046401D01*
X031792Y046381D01*
X031868D01*
X031941Y046401D01*
X031998Y046434D01*
X032615D01*
X032712Y046453D01*
X032795Y046508D01*
X033231Y046945D01*
X033249Y046944D01*
X033285Y046930D01*
X033301Y046869D01*
X033339Y046803D01*
X033393Y046749D01*
X033459Y046711D01*
X033532Y046691D01*
X033571D01*
X033598Y046673D01*
X033696Y046654D01*
X033943D01*
X033962Y046607D01*
X033327Y045973D01*
X032980Y045625D01*
X032687Y045918D01*
X032604Y045973D01*
X032507Y045993D01*
X032243D01*
X032145Y045973D01*
X032063Y045918D01*
X031792Y045647D01*
X031737Y045565D01*
X031717Y045467D01*
Y045204D01*
X031737Y045106D01*
X031792Y045023D01*
X031830Y044985D01*
X031811Y044939D01*
X031697D01*
X031599Y044920D01*
X031517Y044864D01*
X031246Y044594D01*
X031191Y044511D01*
X031171Y044414D01*
Y044150D01*
X031191Y044052D01*
X031246Y043970D01*
X031285Y043931D01*
X031027Y043673D01*
X030862Y043507D01*
X030827Y043543D01*
X030776Y043564D01*
X030720D01*
X030670Y043543D01*
X030631Y043504D01*
X030609Y043453D01*
Y043398D01*
X030631Y043347D01*
X030599Y043307D01*
X030572Y043292D01*
X030518Y043238D01*
X030480Y043172D01*
X030461Y043099D01*
Y043023D01*
X030480Y042949D01*
X030518Y042883D01*
X030572Y042830D01*
X030638Y042792D01*
X030640Y042791D01*
X030641Y042789D01*
X030679Y042723D01*
X030733Y042669D01*
X030799Y042631D01*
X030872Y042611D01*
X030948D01*
X031021Y042631D01*
X031087Y042669D01*
X031141Y042723D01*
X031159Y042754D01*
X031181Y042757D01*
X031232Y042735D01*
X031287D01*
X031338Y042757D01*
X031377Y042796D01*
X031398Y042846D01*
Y042902D01*
X031377Y042953D01*
X031338Y042991D01*
X031338Y042994D01*
X031522Y043178D01*
X031963Y043619D01*
X032018Y043701D01*
X032037Y043799D01*
Y043942D01*
X032087Y043976D01*
X032159Y043962D01*
X032423D01*
X032521Y043981D01*
X032603Y044036D01*
X032874Y044307D01*
X032929Y044390D01*
X032949Y044487D01*
Y044751D01*
X032934Y044823D01*
X032968Y044873D01*
X033112D01*
X033209Y044892D01*
X033292Y044948D01*
X033822Y045478D01*
X034451Y046107D01*
X048311D01*
X048321Y046083D01*
X048360Y046044D01*
X048411Y046023D01*
X048466D01*
X048517Y046044D01*
X048556Y046083D01*
X048585Y046093D01*
X048629Y046067D01*
X048702Y046048D01*
X048778D01*
X048852Y046067D01*
X048917Y046105D01*
X048971Y046159D01*
X049009Y046225D01*
X049029Y046298D01*
Y046374D01*
X049009Y046448D01*
X049003Y046457D01*
X049022Y046525D01*
Y046601D01*
X049002Y046675D01*
X048964Y046741D01*
X048940Y046764D01*
X048947Y046771D01*
X048969Y046822D01*
Y046878D01*
X048947Y046929D01*
X048909Y046967D01*
X048858Y046989D01*
X048802D01*
X048787Y047001D01*
X048783Y047024D01*
X048817Y047056D01*
X048828Y047061D01*
X048878D01*
X048928Y047083D01*
X048967Y047122D01*
X048989Y047172D01*
Y047228D01*
X048967Y047278D01*
X048945Y047301D01*
X048991Y047347D01*
X049029Y047413D01*
X049049Y047486D01*
Y047562D01*
X049029Y047636D01*
X049028Y047638D01*
X049029Y047640D01*
X049049Y047713D01*
Y047789D01*
X049029Y047863D01*
X048991Y047929D01*
X048937Y047982D01*
X048871Y048020D01*
X048798Y048040D01*
X048722D01*
X048649Y048020D01*
X048620Y048004D01*
X048564Y048012D01*
X048525Y048051D01*
X048474Y048072D01*
D02*
G37*
G36*
X049713Y047068D02*
X049657D01*
X049607Y047047D01*
X049568Y047008D01*
X049546Y046957D01*
Y046902D01*
X049568Y046851D01*
X049607Y046812D01*
X049657Y046791D01*
X049713D01*
X049764Y046812D01*
X049803Y046851D01*
X049824Y046902D01*
Y046957D01*
X049803Y047008D01*
X049764Y047047D01*
X049713Y047068D01*
D02*
G37*
G36*
X013528Y046039D02*
X013472D01*
X013421Y046017D01*
X013383Y045978D01*
X013361Y045928D01*
Y045872D01*
X013383Y045821D01*
X013421Y045783D01*
X013472Y045761D01*
X013528D01*
X013578Y045783D01*
X013617Y045821D01*
X013639Y045872D01*
Y045928D01*
X013617Y045978D01*
X013578Y046017D01*
X013528Y046039D01*
D02*
G37*
G36*
X045838Y045979D02*
X045782D01*
X045732Y045957D01*
X045716Y045942D01*
X035013D01*
X034974Y045934D01*
X034941Y045912D01*
X031552Y042523D01*
X029720D01*
X029704Y042539D01*
X029654Y042560D01*
X029598D01*
X029547Y042539D01*
X029509Y042500D01*
X029487Y042449D01*
Y042394D01*
X029509Y042343D01*
X029547Y042304D01*
X029598Y042283D01*
X029654D01*
X029704Y042304D01*
X029720Y042319D01*
X031594D01*
X031634Y042327D01*
X031667Y042349D01*
X035055Y045738D01*
X035189D01*
X035209Y045688D01*
X031749Y042228D01*
X029917D01*
X029901Y042243D01*
X029850Y042265D01*
X029795D01*
X029744Y042243D01*
X029705Y042204D01*
X029684Y042154D01*
Y042098D01*
X029705Y042047D01*
X029744Y042009D01*
X029795Y041987D01*
X029850D01*
X029901Y042009D01*
X029917Y042024D01*
X031791D01*
X031830Y042032D01*
X031863Y042054D01*
X035338Y045528D01*
X045426D01*
X045441Y045513D01*
X045492Y045491D01*
X045548D01*
X045599Y045513D01*
X045637Y045552D01*
X045659Y045602D01*
Y045658D01*
X045646Y045688D01*
X045669Y045730D01*
X045719Y045735D01*
X045732Y045723D01*
X045782Y045701D01*
X045838D01*
X045889Y045723D01*
X045927Y045761D01*
X045949Y045812D01*
Y045868D01*
X045927Y045918D01*
X045889Y045957D01*
X045838Y045979D01*
D02*
G37*
G36*
X049949Y045296D02*
X049894D01*
X049843Y045275D01*
X049827Y045259D01*
X035354D01*
X035315Y045252D01*
X035282Y045230D01*
X031966Y041913D01*
X028900D01*
X028340Y042474D01*
X028307Y042496D01*
X028268Y042504D01*
X027255D01*
X027243Y042548D01*
X027243Y042554D01*
Y043278D01*
X026513D01*
Y042554D01*
X026513Y042548D01*
X026501Y042504D01*
X025952D01*
X025945Y042554D01*
X026019Y042573D01*
X026102Y042621D01*
X026170Y042689D01*
X026218Y042773D01*
X026243Y042865D01*
Y042961D01*
X026218Y043054D01*
X026170Y043137D01*
X026102Y043205D01*
X026019Y043253D01*
X025926Y043278D01*
X025830D01*
X025737Y043253D01*
X025654Y043205D01*
X025586Y043137D01*
X025538Y043054D01*
X025513Y042961D01*
Y042865D01*
X025538Y042773D01*
X025586Y042689D01*
X025654Y042621D01*
X025737Y042573D01*
X025811Y042554D01*
X025804Y042504D01*
X023322D01*
X023307Y042519D01*
X023256Y042540D01*
X023201D01*
X023150Y042519D01*
X023111Y042480D01*
X023090Y042429D01*
Y042374D01*
X023111Y042323D01*
X023150Y042284D01*
X023201Y042263D01*
X023256D01*
X023307Y042284D01*
X023322Y042300D01*
X028225D01*
X028786Y041739D01*
X028819Y041717D01*
X028858Y041709D01*
X032008D01*
X032047Y041717D01*
X032080Y041739D01*
X035397Y045056D01*
X049827D01*
X049843Y045040D01*
X049894Y045019D01*
X049949D01*
X050000Y045040D01*
X050039Y045079D01*
X050060Y045130D01*
Y045185D01*
X050039Y045236D01*
X050000Y045275D01*
X049949Y045296D01*
D02*
G37*
G36*
X047469Y044902D02*
X047413D01*
X047362Y044881D01*
X047323Y044842D01*
X047302Y044791D01*
Y044736D01*
X047323Y044685D01*
X047362Y044646D01*
X047413Y044625D01*
X047469D01*
X047519Y044646D01*
X047558Y044685D01*
X047580Y044736D01*
Y044791D01*
X047558Y044842D01*
X047519Y044881D01*
X047469Y044902D01*
D02*
G37*
G36*
X048571Y044745D02*
X048516D01*
X048465Y044724D01*
X048426Y044685D01*
X048405Y044634D01*
Y044579D01*
X048426Y044528D01*
X048465Y044489D01*
X048516Y044468D01*
X048571D01*
X048622Y044489D01*
X048661Y044528D01*
X048682Y044579D01*
Y044634D01*
X048661Y044685D01*
X048622Y044724D01*
X048571Y044745D01*
D02*
G37*
G36*
X049713Y044587D02*
X049657D01*
X049607Y044566D01*
X049568Y044527D01*
X049546Y044476D01*
Y044421D01*
X049568Y044370D01*
X049607Y044331D01*
X049657Y044310D01*
X049713D01*
X049764Y044331D01*
X049803Y044370D01*
X049824Y044421D01*
Y044476D01*
X049803Y044527D01*
X049764Y044566D01*
X049713Y044587D01*
D02*
G37*
G36*
X047469Y044548D02*
X047413D01*
X047362Y044527D01*
X047323Y044488D01*
X047302Y044437D01*
Y044382D01*
X047323Y044331D01*
X047362Y044292D01*
X047413Y044271D01*
X047469D01*
X047519Y044292D01*
X047558Y044331D01*
X047580Y044382D01*
Y044437D01*
X047558Y044488D01*
X047519Y044527D01*
X047469Y044548D01*
D02*
G37*
G36*
X045963Y044459D02*
X045867D01*
X045774Y044435D01*
X045691Y044387D01*
X045623Y044319D01*
X045575Y044235D01*
X045550Y044143D01*
Y044046D01*
X045575Y043954D01*
X045623Y043870D01*
X045691Y043802D01*
X045774Y043754D01*
X045867Y043730D01*
X045963D01*
X046056Y043754D01*
X046139Y043802D01*
X046207Y043870D01*
X046255Y043954D01*
X046280Y044046D01*
Y044143D01*
X046255Y044235D01*
X046207Y044319D01*
X046139Y044387D01*
X046056Y044435D01*
X045963Y044459D01*
D02*
G37*
G36*
X041680Y043853D02*
X041625D01*
X041574Y043832D01*
X041535Y043793D01*
X041514Y043742D01*
Y043687D01*
X041535Y043636D01*
X041574Y043597D01*
X041625Y043576D01*
X041680D01*
X041731Y043597D01*
X041770Y043636D01*
X041791Y043687D01*
Y043742D01*
X041770Y043793D01*
X041731Y043832D01*
X041680Y043853D01*
D02*
G37*
G36*
X044909Y042816D02*
X044854D01*
X044803Y042795D01*
X044764Y042756D01*
X044743Y042705D01*
Y042650D01*
X044764Y042599D01*
X044803Y042560D01*
X044854Y042539D01*
X044909D01*
X044960Y042560D01*
X044999Y042599D01*
X045020Y042650D01*
Y042705D01*
X044999Y042756D01*
X044960Y042795D01*
X044909Y042816D01*
D02*
G37*
G36*
X044280Y042619D02*
X044224D01*
X044173Y042598D01*
X044134Y042559D01*
X044122Y042528D01*
X044067D01*
X044054Y042559D01*
X044016Y042598D01*
X043965Y042619D01*
X043909D01*
X043859Y042598D01*
X043820Y042559D01*
X043798Y042508D01*
Y042453D01*
X043820Y042402D01*
X043859Y042363D01*
X043909Y042342D01*
X043965D01*
X044016Y042363D01*
X044054Y042402D01*
X044067Y042433D01*
X044122D01*
X044134Y042402D01*
X044173Y042363D01*
X044224Y042342D01*
X044280D01*
X044330Y042363D01*
X044369Y042402D01*
X044391Y042453D01*
Y042508D01*
X044369Y042559D01*
X044330Y042598D01*
X044280Y042619D01*
D02*
G37*
G36*
X043295D02*
X043240D01*
X043189Y042598D01*
X043150Y042559D01*
X043137Y042528D01*
X043083D01*
X043070Y042559D01*
X043031Y042598D01*
X042980Y042619D01*
X042925D01*
X042874Y042598D01*
X042835Y042559D01*
X042814Y042508D01*
Y042453D01*
X042835Y042402D01*
X042874Y042363D01*
X042925Y042342D01*
X042980D01*
X043031Y042363D01*
X043070Y042402D01*
X043083Y042433D01*
X043137D01*
X043150Y042402D01*
X043189Y042363D01*
X043240Y042342D01*
X043295D01*
X043346Y042363D01*
X043385Y042402D01*
X043406Y042453D01*
Y042508D01*
X043385Y042559D01*
X043346Y042598D01*
X043295Y042619D01*
D02*
G37*
G36*
X041306Y042278D02*
X041251D01*
X041200Y042257D01*
X041161Y042218D01*
X041140Y042167D01*
Y042112D01*
X041161Y042061D01*
X041200Y042022D01*
X041251Y042001D01*
X041306D01*
X041357Y042022D01*
X041396Y042061D01*
X041417Y042112D01*
Y042167D01*
X041396Y042218D01*
X041357Y042257D01*
X041306Y042278D01*
D02*
G37*
G36*
X040350Y042481D02*
X040275D01*
X040201Y042461D01*
X040135Y042423D01*
X040082Y042370D01*
X040044Y042304D01*
X040043Y042301D01*
X040040Y042301D01*
X039975Y042263D01*
X039921Y042209D01*
X039883Y042143D01*
X039863Y042070D01*
Y041994D01*
X039883Y041920D01*
X039892Y041906D01*
X039859Y041863D01*
X039844Y041867D01*
X039768D01*
X039695Y041847D01*
X039629Y041809D01*
X039575Y041755D01*
X039537Y041689D01*
X039537Y041687D01*
X039534Y041686D01*
X039468Y041648D01*
X039415Y041595D01*
X039377Y041529D01*
X039357Y041455D01*
Y041379D01*
X039377Y041306D01*
X039415Y041240D01*
X039468Y041186D01*
X039524Y041154D01*
X039528Y041115D01*
X039525Y041099D01*
X039489Y041063D01*
X039468Y041012D01*
Y040957D01*
X039476Y040937D01*
X039459Y040902D01*
X039393Y040864D01*
X039339Y040810D01*
X039301Y040744D01*
X039301Y040742D01*
X039298Y040741D01*
X039232Y040703D01*
X039201Y040672D01*
X039143Y040685D01*
X039133Y040708D01*
X039094Y040747D01*
X039043Y040768D01*
X038988D01*
X038937Y040747D01*
X038921Y040731D01*
X038865Y040746D01*
X038864Y040749D01*
X038826Y040815D01*
X038772Y040869D01*
X038706Y040907D01*
X038633Y040926D01*
X038557D01*
X038484Y040907D01*
X038418Y040869D01*
X038364Y040815D01*
X038326Y040749D01*
X038325Y040744D01*
X038314Y040741D01*
X038248Y040703D01*
X038194Y040650D01*
X038156Y040584D01*
X038137Y040510D01*
Y040434D01*
X038156Y040361D01*
X038194Y040295D01*
X038248Y040242D01*
X038271Y040228D01*
X038308Y040197D01*
X038287Y040146D01*
Y040091D01*
X038308Y040040D01*
X038347Y040001D01*
X038398Y039980D01*
X038453D01*
X038504Y040001D01*
X038531Y040027D01*
X038655Y039903D01*
Y038787D01*
X038614Y038759D01*
X038610Y038761D01*
X038555D01*
X038504Y038740D01*
X038465Y038701D01*
X038444Y038650D01*
Y038613D01*
X038370Y038539D01*
X038320Y038560D01*
Y038663D01*
X038411Y038754D01*
X038431Y038784D01*
X038438Y038819D01*
Y039187D01*
X038464Y039213D01*
X038485Y039264D01*
Y039319D01*
X038464Y039370D01*
X038425Y039409D01*
X038374Y039430D01*
X038319D01*
X038268Y039409D01*
X038229Y039370D01*
X038208Y039319D01*
Y039264D01*
X038229Y039213D01*
X038255Y039187D01*
Y039129D01*
X038205Y039119D01*
X038205Y039119D01*
X038166Y039158D01*
X038115Y039179D01*
X038060D01*
X038009Y039158D01*
X037970Y039119D01*
X037949Y039068D01*
Y039013D01*
X037970Y038962D01*
X037995Y038936D01*
Y025053D01*
X037945Y025032D01*
X037848Y025130D01*
Y038833D01*
X037873Y038859D01*
X037894Y038909D01*
Y038965D01*
X037873Y039016D01*
X037834Y039054D01*
X037783Y039076D01*
X037728D01*
X037677Y039054D01*
X037638Y039016D01*
X037617Y038965D01*
Y038909D01*
X037638Y038859D01*
X037664Y038833D01*
Y027262D01*
X037630Y027249D01*
X037614Y027247D01*
X037578Y027283D01*
X037528Y027304D01*
X037491D01*
X037324Y027471D01*
X037325Y027475D01*
X037349Y027517D01*
X037390D01*
X037441Y027538D01*
X037480Y027577D01*
X037501Y027628D01*
Y027683D01*
X037480Y027734D01*
X037441Y027773D01*
X037390Y027794D01*
X037335D01*
X037284Y027773D01*
X037245Y027734D01*
X037224Y027683D01*
Y027655D01*
X037223Y027654D01*
X037178Y027624D01*
X037149Y027639D01*
Y028970D01*
X037165Y028977D01*
X037204Y029016D01*
X037225Y029067D01*
Y029122D01*
X037204Y029173D01*
X037165Y029212D01*
X037114Y029233D01*
X037059D01*
X037008Y029212D01*
X036992Y029196D01*
X036942Y029216D01*
Y029496D01*
X036967Y029522D01*
X036989Y029572D01*
Y029628D01*
X036967Y029678D01*
X036929Y029717D01*
X036878Y029739D01*
X036822D01*
X036772Y029717D01*
X036733Y029678D01*
X036711Y029628D01*
Y029572D01*
X036733Y029522D01*
X036758Y029496D01*
Y027254D01*
X036733Y027229D01*
X036711Y027178D01*
Y027122D01*
X036733Y027071D01*
X036772Y027033D01*
X036822Y027011D01*
X036878D01*
X036929Y027033D01*
X036967Y027071D01*
X036989Y027122D01*
Y027178D01*
X036967Y027229D01*
X036942Y027254D01*
Y027478D01*
X036992Y027493D01*
X036993Y027491D01*
X037029Y027455D01*
X037059Y027435D01*
X037094Y027428D01*
X037108D01*
X037361Y027174D01*
Y027138D01*
X037383Y027087D01*
X037422Y027048D01*
X037472Y027027D01*
X037528D01*
X037578Y027048D01*
X037614Y027084D01*
X037630Y027082D01*
X037664Y027069D01*
Y025092D01*
X037671Y025056D01*
X037691Y025027D01*
X039131Y023587D01*
X039112Y023540D01*
X038749D01*
X038714Y023533D01*
X038684Y023514D01*
X038565Y023394D01*
X038515Y023415D01*
Y023442D01*
X038493Y023493D01*
X038454Y023531D01*
X038404Y023553D01*
X038348D01*
X038297Y023531D01*
X038259Y023493D01*
X038237Y023442D01*
Y023386D01*
X038259Y023336D01*
X038297Y023297D01*
X038348Y023275D01*
X038375D01*
X038396Y023225D01*
X038009Y022839D01*
X037972D01*
X037922Y022817D01*
X037883Y022778D01*
X037861Y022728D01*
Y022672D01*
X037883Y022622D01*
X037922Y022583D01*
X037972Y022561D01*
X038028D01*
X038078Y022583D01*
X038117Y022622D01*
X038139Y022672D01*
Y022709D01*
X038787Y023357D01*
X039263D01*
X039288Y023331D01*
X039326Y023316D01*
X039345Y023264D01*
X038995Y022914D01*
X038822D01*
X038787Y022907D01*
X038757Y022887D01*
X038209Y022339D01*
X038172D01*
X038122Y022317D01*
X038083Y022278D01*
X038061Y022228D01*
Y022172D01*
X038053Y022160D01*
X038012D01*
X037961Y022139D01*
X037922Y022100D01*
X037901Y022049D01*
Y021994D01*
X037922Y021943D01*
X037961Y021904D01*
X038012Y021883D01*
X038015D01*
X038016Y021833D01*
X037965Y021812D01*
X037926Y021773D01*
X037905Y021722D01*
Y021667D01*
X037926Y021616D01*
X037965Y021577D01*
X038016Y021556D01*
X038071D01*
X038122Y021577D01*
X038147Y021603D01*
X038415D01*
X038450Y021610D01*
X038479Y021630D01*
X040159Y023309D01*
X040195D01*
X040246Y023330D01*
X040253Y023337D01*
X040303Y023316D01*
Y023058D01*
X040271Y023001D01*
X040251Y022928D01*
Y022852D01*
X040271Y022779D01*
X040309Y022713D01*
X040362Y022659D01*
X040428Y022621D01*
X040501Y022601D01*
X040577D01*
X040651Y022621D01*
X040653Y022622D01*
X040655Y022621D01*
X040729Y022601D01*
X040735D01*
X040755Y022551D01*
X040733Y022529D01*
X040711Y022478D01*
Y022422D01*
X040733Y022371D01*
X040771Y022333D01*
X040822Y022311D01*
X040878D01*
X040929Y022333D01*
X040967Y022371D01*
X040989Y022422D01*
Y022478D01*
X040967Y022529D01*
X040929Y022567D01*
X040903Y022578D01*
X040900Y022634D01*
X040944Y022659D01*
X040998Y022713D01*
X041036Y022779D01*
X041055Y022851D01*
X041070D01*
X041143Y022871D01*
X041145Y022872D01*
X041147Y022871D01*
X041221Y022851D01*
X041227D01*
X041256Y022801D01*
X041244Y022781D01*
X041224Y022708D01*
Y022632D01*
X041244Y022559D01*
X041282Y022493D01*
X041336Y022439D01*
X041402Y022401D01*
X041475Y022381D01*
X041551D01*
X041624Y022401D01*
X041627Y022402D01*
X041629Y022401D01*
X041702Y022381D01*
X041778D01*
X041792Y022385D01*
X041831Y022355D01*
Y022342D01*
X041853Y022292D01*
X041891Y022253D01*
X041942Y022231D01*
X041998D01*
X042049Y022253D01*
X042087Y022292D01*
X042109Y022342D01*
Y022398D01*
X042087Y022448D01*
X042049Y022487D01*
X042030Y022495D01*
X042007Y022555D01*
X042009Y022559D01*
X042029Y022632D01*
Y022708D01*
X042028Y022710D01*
X042069Y022751D01*
X042105Y022741D01*
X042181D01*
X042254Y022761D01*
X042257Y022762D01*
X042259Y022761D01*
X042332Y022741D01*
X042408D01*
X042482Y022761D01*
X042547Y022799D01*
X042601Y022853D01*
X042639Y022919D01*
X042659Y022992D01*
Y023068D01*
X042639Y023141D01*
X042606Y023198D01*
Y023769D01*
X042645D01*
X042696Y023790D01*
X042735Y023829D01*
X042756Y023880D01*
Y023935D01*
X042735Y023986D01*
X042696Y024025D01*
X042645Y024046D01*
X042606D01*
Y024932D01*
X042587Y025029D01*
X042532Y025112D01*
X041160Y026484D01*
Y027066D01*
X041210Y027078D01*
X041241Y027017D01*
X041337Y026885D01*
X041452Y026770D01*
X041584Y026674D01*
X041729Y026601D01*
X041884Y026550D01*
X042045Y026525D01*
X042207D01*
X042368Y026550D01*
X042523Y026601D01*
X042668Y026674D01*
X042800Y026770D01*
X042915Y026885D01*
X043011Y027017D01*
X043084Y027162D01*
X043135Y027317D01*
X043160Y027478D01*
Y027640D01*
X043135Y027801D01*
X043084Y027956D01*
X043011Y028101D01*
X042915Y028233D01*
X042800Y028348D01*
X042668Y028444D01*
X042523Y028518D01*
X042368Y028568D01*
X042207Y028593D01*
X042045D01*
X041884Y028568D01*
X041729Y028518D01*
X041584Y028444D01*
X041452Y028348D01*
X041337Y028233D01*
X041241Y028101D01*
X041210Y028040D01*
X041160Y028052D01*
Y040058D01*
X041210Y040070D01*
X041241Y040009D01*
X041337Y039877D01*
X041452Y039762D01*
X041584Y039667D01*
X041729Y039593D01*
X041884Y039542D01*
X042045Y039517D01*
X042207D01*
X042368Y039542D01*
X042523Y039593D01*
X042668Y039667D01*
X042800Y039762D01*
X042915Y039877D01*
X043011Y040009D01*
X043084Y040154D01*
X043135Y040309D01*
X043160Y040470D01*
Y040633D01*
X043135Y040793D01*
X043084Y040948D01*
X043011Y041093D01*
X042915Y041225D01*
X042800Y041340D01*
X042668Y041436D01*
X042523Y041510D01*
X042368Y041560D01*
X042207Y041585D01*
X042045D01*
X041884Y041560D01*
X041729Y041510D01*
X041584Y041436D01*
X041452Y041340D01*
X041337Y041225D01*
X041241Y041093D01*
X041210Y041032D01*
X041160Y041044D01*
Y041573D01*
X041141Y041671D01*
X041086Y041753D01*
X040819Y042020D01*
X040835Y042075D01*
X040866Y042087D01*
X040905Y042126D01*
X040926Y042177D01*
Y042232D01*
X040905Y042283D01*
X040866Y042322D01*
X040815Y042343D01*
X040760D01*
X040709Y042322D01*
X040670Y042283D01*
X040611Y042269D01*
X040587Y042283D01*
X040581Y042304D01*
X040543Y042370D01*
X040490Y042423D01*
X040424Y042461D01*
X040350Y042481D01*
D02*
G37*
G36*
X047604Y041991D02*
X047535Y041973D01*
X047465Y041932D01*
X047408Y041875D01*
X047401Y041863D01*
X047342Y041861D01*
X047311Y041892D01*
X047253Y041926D01*
X047187Y041944D01*
X047120D01*
X047054Y041926D01*
X046996Y041892D01*
X046948Y041845D01*
X046932Y041817D01*
X046875D01*
X046859Y041845D01*
X046811Y041892D01*
X046753Y041926D01*
X046687Y041944D01*
X046620D01*
X046554Y041926D01*
X046496Y041892D01*
X046448Y041845D01*
X046432Y041817D01*
X046375D01*
X046359Y041845D01*
X046311Y041892D01*
X046253Y041926D01*
X046187Y041944D01*
X046120D01*
X046054Y041926D01*
X045996Y041892D01*
X045948Y041845D01*
X045932Y041817D01*
X045875D01*
X045859Y041845D01*
X045811Y041892D01*
X045753Y041926D01*
X045687Y041944D01*
X045620D01*
X045554Y041926D01*
X045496Y041892D01*
X045448Y041845D01*
X045414Y041786D01*
X045397Y041721D01*
Y041653D01*
X045414Y041588D01*
X045448Y041529D01*
X045496Y041482D01*
X045523Y041466D01*
Y041408D01*
X045496Y041392D01*
X045448Y041345D01*
X045414Y041286D01*
X045397Y041221D01*
Y041153D01*
X045414Y041088D01*
X045448Y041029D01*
X045496Y040982D01*
X045552Y040949D01*
Y040862D01*
X045559Y040823D01*
X045581Y040790D01*
X046059Y040312D01*
Y039070D01*
X046044Y039055D01*
X046023Y039004D01*
Y038949D01*
X046044Y038898D01*
X046083Y038859D01*
X046134Y038838D01*
X046189D01*
X046240Y038859D01*
X046279Y038898D01*
X046300Y038949D01*
Y039004D01*
X046279Y039055D01*
X046263Y039070D01*
Y040354D01*
X046256Y040393D01*
X046234Y040426D01*
X045757Y040903D01*
X045761Y040952D01*
X045811Y040982D01*
X045859Y041029D01*
X045875Y041057D01*
X045932D01*
X045948Y041029D01*
X045996Y040982D01*
X046054Y040948D01*
X046120Y040930D01*
X046187D01*
X046253Y040948D01*
X046311Y040982D01*
X046359Y041029D01*
X046375Y041057D01*
X046432D01*
X046448Y041029D01*
X046496Y040982D01*
X046554Y040948D01*
X046620Y040930D01*
X046687D01*
X046753Y040948D01*
X046811Y040982D01*
X046859Y041029D01*
X046875Y041057D01*
X046932D01*
X046948Y041029D01*
X046996Y040982D01*
X047054Y040948D01*
X047120Y040930D01*
X047187D01*
X047249Y040947D01*
X047422Y040774D01*
X047455Y040752D01*
X047494Y040745D01*
X048528D01*
X048544Y040729D01*
X048594Y040708D01*
X048650D01*
X048701Y040729D01*
X048740Y040768D01*
X048761Y040819D01*
Y040874D01*
X048740Y040925D01*
X048701Y040964D01*
X048650Y040985D01*
X048594D01*
X048544Y040964D01*
X048528Y040948D01*
X047849D01*
X047828Y040998D01*
X047859Y041029D01*
X047893Y041088D01*
X047910Y041153D01*
Y041221D01*
X047893Y041286D01*
X047859Y041345D01*
X047828Y041376D01*
X047830Y041435D01*
X047842Y041442D01*
X047899Y041499D01*
X047939Y041569D01*
X047958Y041637D01*
X047654D01*
Y041687D01*
X047604D01*
Y041991D01*
D02*
G37*
G36*
X047704Y041991D02*
Y041737D01*
X047958D01*
X047939Y041805D01*
X047899Y041875D01*
X047842Y041932D01*
X047772Y041973D01*
X047704Y041991D01*
D02*
G37*
G36*
X033138Y041818D02*
X033083D01*
X033032Y041797D01*
X032993Y041758D01*
X032972Y041707D01*
Y041652D01*
X032993Y041601D01*
X033032Y041562D01*
X033083Y041541D01*
X033138D01*
X033189Y041562D01*
X033228Y041601D01*
X033249Y041652D01*
Y041707D01*
X033228Y041758D01*
X033189Y041797D01*
X033138Y041818D01*
D02*
G37*
G36*
X032665Y041816D02*
X032610D01*
X032559Y041795D01*
X032520Y041756D01*
X032499Y041705D01*
Y041650D01*
X032520Y041599D01*
X032559Y041560D01*
X032610Y041539D01*
X032665D01*
X032716Y041560D01*
X032755Y041599D01*
X032776Y041650D01*
Y041705D01*
X032755Y041756D01*
X032716Y041795D01*
X032665Y041816D01*
D02*
G37*
G36*
X033610Y041816D02*
X033555D01*
X033504Y041795D01*
X033465Y041756D01*
X033444Y041705D01*
Y041650D01*
X033465Y041599D01*
X033504Y041560D01*
X033555Y041539D01*
X033610D01*
X033661Y041560D01*
X033700Y041599D01*
X033721Y041650D01*
Y041705D01*
X033700Y041756D01*
X033661Y041795D01*
X033610Y041816D01*
D02*
G37*
G36*
X034083Y041793D02*
X034028D01*
X033977Y041772D01*
X033938Y041733D01*
X033917Y041682D01*
Y041627D01*
X033938Y041576D01*
X033977Y041537D01*
X034028Y041516D01*
X034083D01*
X034134Y041537D01*
X034173Y041576D01*
X034194Y041627D01*
Y041682D01*
X034173Y041733D01*
X034134Y041772D01*
X034083Y041793D01*
D02*
G37*
G36*
X034555Y041776D02*
X034500D01*
X034449Y041755D01*
X034410Y041716D01*
X034389Y041665D01*
Y041610D01*
X034410Y041559D01*
X034449Y041520D01*
X034500Y041499D01*
X034555D01*
X034606Y041520D01*
X034645Y041559D01*
X034666Y041610D01*
Y041665D01*
X034645Y041716D01*
X034606Y041755D01*
X034555Y041776D01*
D02*
G37*
G36*
X035028Y041189D02*
X034972D01*
X034922Y041167D01*
X034883Y041129D01*
X034861Y041078D01*
Y041022D01*
X034883Y040971D01*
X034922Y040933D01*
X034972Y040911D01*
X035028D01*
X035078Y040933D01*
X035117Y040971D01*
X035139Y041022D01*
Y041078D01*
X035117Y041129D01*
X035078Y041167D01*
X035028Y041189D01*
D02*
G37*
G36*
X031720Y041186D02*
X031665D01*
X031614Y041165D01*
X031575Y041126D01*
X031554Y041075D01*
Y041020D01*
X031575Y040969D01*
X031614Y040930D01*
X031665Y040908D01*
X031720D01*
X031771Y040930D01*
X031810Y040969D01*
X031832Y041020D01*
Y041075D01*
X031810Y041126D01*
X031771Y041165D01*
X031720Y041186D01*
D02*
G37*
G36*
X032193Y041183D02*
X032138D01*
X032087Y041162D01*
X032048Y041123D01*
X032027Y041072D01*
Y041017D01*
X032048Y040966D01*
X032087Y040927D01*
X032138Y040906D01*
X032193D01*
X032244Y040927D01*
X032283Y040966D01*
X032304Y041017D01*
Y041072D01*
X032283Y041123D01*
X032244Y041162D01*
X032193Y041183D01*
D02*
G37*
G36*
X031248Y041178D02*
X031193D01*
X031142Y041157D01*
X031103Y041118D01*
X031082Y041067D01*
Y041012D01*
X031103Y040961D01*
X031142Y040922D01*
X031193Y040901D01*
X031248D01*
X031299Y040922D01*
X031338Y040961D01*
X031359Y041012D01*
Y041067D01*
X031338Y041118D01*
X031299Y041157D01*
X031248Y041178D01*
D02*
G37*
G36*
X030776Y041177D02*
X030720D01*
X030670Y041156D01*
X030631Y041117D01*
X030609Y041066D01*
Y041010D01*
X030631Y040960D01*
X030670Y040921D01*
X030720Y040899D01*
X030776D01*
X030827Y040921D01*
X030866Y040960D01*
X030887Y041010D01*
Y041066D01*
X030866Y041117D01*
X030827Y041156D01*
X030776Y041177D01*
D02*
G37*
G36*
X036445Y041176D02*
X036390D01*
X036339Y041155D01*
X036300Y041116D01*
X036279Y041065D01*
Y041010D01*
X036300Y040959D01*
X036339Y040920D01*
X036390Y040899D01*
X036445D01*
X036496Y040920D01*
X036535Y040959D01*
X036556Y041010D01*
Y041065D01*
X036535Y041116D01*
X036496Y041155D01*
X036445Y041176D01*
D02*
G37*
G36*
X030303Y041174D02*
X030248D01*
X030197Y041153D01*
X030158Y041114D01*
X030137Y041063D01*
Y041008D01*
X030158Y040957D01*
X030197Y040918D01*
X030248Y040897D01*
X030303D01*
X030354Y040918D01*
X030393Y040957D01*
X030414Y041008D01*
Y041063D01*
X030393Y041114D01*
X030354Y041153D01*
X030303Y041174D01*
D02*
G37*
G36*
X035972Y041173D02*
X035917D01*
X035866Y041152D01*
X035827Y041113D01*
X035806Y041062D01*
Y041007D01*
X035827Y040956D01*
X035866Y040917D01*
X035917Y040896D01*
X035972D01*
X036023Y040917D01*
X036062Y040956D01*
X036083Y041007D01*
Y041062D01*
X036062Y041113D01*
X036023Y041152D01*
X035972Y041173D01*
D02*
G37*
G36*
X037359Y041171D02*
X037304D01*
X037253Y041150D01*
X037214Y041111D01*
X037193Y041060D01*
Y041005D01*
X037214Y040954D01*
X037253Y040915D01*
X037304Y040894D01*
X037359D01*
X037410Y040915D01*
X037449Y040954D01*
X037470Y041005D01*
Y041060D01*
X037449Y041111D01*
X037410Y041150D01*
X037359Y041171D01*
D02*
G37*
G36*
X036917Y041169D02*
X036862D01*
X036811Y041148D01*
X036772Y041109D01*
X036751Y041058D01*
Y041003D01*
X036772Y040952D01*
X036811Y040913D01*
X036862Y040892D01*
X036917D01*
X036968Y040913D01*
X037007Y040952D01*
X037028Y041003D01*
Y041058D01*
X037007Y041109D01*
X036968Y041148D01*
X036917Y041169D01*
D02*
G37*
G36*
X035500Y041156D02*
X035445D01*
X035394Y041135D01*
X035355Y041096D01*
X035334Y041045D01*
Y040990D01*
X035355Y040939D01*
X035394Y040900D01*
X035445Y040879D01*
X035500D01*
X035551Y040900D01*
X035590Y040939D01*
X035611Y040990D01*
Y041045D01*
X035590Y041096D01*
X035551Y041135D01*
X035500Y041156D01*
D02*
G37*
G36*
X020368Y041079D02*
X020312D01*
X020261Y041057D01*
X020223Y041019D01*
X020201Y040968D01*
Y040912D01*
X020223Y040862D01*
X020261Y040823D01*
X020312Y040801D01*
X020368D01*
X020419Y040823D01*
X020457Y040862D01*
X020479Y040912D01*
Y040968D01*
X020457Y041019D01*
X020419Y041057D01*
X020368Y041079D01*
D02*
G37*
G36*
X034083Y040591D02*
X034028D01*
X033977Y040570D01*
X033938Y040531D01*
X033917Y040480D01*
Y040425D01*
X033938Y040374D01*
X033977Y040335D01*
X034028Y040314D01*
X034083D01*
X034134Y040335D01*
X034173Y040374D01*
X034194Y040425D01*
Y040480D01*
X034173Y040531D01*
X034134Y040570D01*
X034083Y040591D01*
D02*
G37*
G36*
X030244D02*
X030189D01*
X030138Y040570D01*
X030099Y040531D01*
X030078Y040480D01*
Y040425D01*
X030099Y040374D01*
X030138Y040335D01*
X030189Y040314D01*
X030244D01*
X030295Y040335D01*
X030334Y040374D01*
X030355Y040425D01*
Y040480D01*
X030334Y040531D01*
X030295Y040570D01*
X030244Y040591D01*
D02*
G37*
G36*
X045500Y040493D02*
X045445D01*
X045394Y040472D01*
X045355Y040433D01*
X045334Y040382D01*
Y040327D01*
X045355Y040276D01*
X045394Y040237D01*
X045445Y040216D01*
X045500D01*
X045551Y040237D01*
X045590Y040276D01*
X045611Y040327D01*
Y040382D01*
X045590Y040433D01*
X045551Y040472D01*
X045500Y040493D01*
D02*
G37*
G36*
X016535Y043657D02*
X016477Y043645D01*
X016427Y043612D01*
X016394Y043562D01*
X016382Y043504D01*
Y039818D01*
X016332Y039808D01*
X016318Y039842D01*
X016279Y039881D01*
X016228Y039902D01*
X016173D01*
X016122Y039881D01*
X016083Y039842D01*
X016062Y039791D01*
Y039736D01*
X016083Y039685D01*
X016122Y039646D01*
X016173Y039625D01*
X016228D01*
X016279Y039646D01*
X016318Y039685D01*
X016332Y039720D01*
X016382Y039710D01*
Y039306D01*
X016332Y039296D01*
X016318Y039330D01*
X016279Y039369D01*
X016228Y039391D01*
X016173D01*
X016122Y039369D01*
X016083Y039330D01*
X016062Y039280D01*
Y039224D01*
X016083Y039173D01*
X016122Y039134D01*
X016173Y039113D01*
X016228D01*
X016279Y039134D01*
X016318Y039173D01*
X016332Y039208D01*
X016382Y039198D01*
Y038637D01*
X016332Y038627D01*
X016318Y038661D01*
X016279Y038700D01*
X016228Y038721D01*
X016173D01*
X016122Y038700D01*
X016083Y038661D01*
X016062Y038610D01*
Y038555D01*
X016083Y038504D01*
X016122Y038465D01*
X016173Y038444D01*
X016228D01*
X016279Y038465D01*
X016318Y038504D01*
X016332Y038539D01*
X016382Y038529D01*
Y034843D01*
X016394Y034784D01*
X016427Y034734D01*
X016477Y034701D01*
X016535Y034690D01*
X016594Y034701D01*
X016644Y034734D01*
X016677Y034784D01*
X016688Y034843D01*
Y043504D01*
X016677Y043562D01*
X016644Y043612D01*
X016594Y043645D01*
X016535Y043657D01*
D02*
G37*
G36*
X014535Y039942D02*
X014480D01*
X014429Y039921D01*
X014390Y039882D01*
X014369Y039831D01*
Y039776D01*
X014390Y039725D01*
X014429Y039686D01*
X014480Y039665D01*
X014535D01*
X014586Y039686D01*
X014625Y039725D01*
X014646Y039776D01*
Y039831D01*
X014625Y039882D01*
X014586Y039921D01*
X014535Y039942D01*
D02*
G37*
G36*
X036917Y039884D02*
X036862D01*
X036811Y039863D01*
X036772Y039824D01*
X036751Y039773D01*
Y039718D01*
X036772Y039667D01*
X036811Y039628D01*
X036862Y039607D01*
X036917D01*
X036968Y039628D01*
X037007Y039667D01*
X037028Y039718D01*
Y039773D01*
X037007Y039824D01*
X036968Y039863D01*
X036917Y039884D01*
D02*
G37*
G36*
X036445D02*
X036390D01*
X036339Y039863D01*
X036300Y039824D01*
X036279Y039773D01*
Y039718D01*
X036300Y039667D01*
X036339Y039628D01*
X036390Y039607D01*
X036445D01*
X036496Y039628D01*
X036535Y039667D01*
X036556Y039718D01*
Y039773D01*
X036535Y039824D01*
X036496Y039863D01*
X036445Y039884D01*
D02*
G37*
G36*
X035972D02*
X035917D01*
X035866Y039863D01*
X035827Y039824D01*
X035806Y039773D01*
Y039718D01*
X035827Y039667D01*
X035866Y039628D01*
X035917Y039607D01*
X035972D01*
X036023Y039628D01*
X036062Y039667D01*
X036083Y039718D01*
Y039773D01*
X036062Y039824D01*
X036023Y039863D01*
X035972Y039884D01*
D02*
G37*
G36*
X035500D02*
X035445D01*
X035394Y039863D01*
X035355Y039824D01*
X035334Y039773D01*
Y039718D01*
X035355Y039667D01*
X035394Y039628D01*
X035445Y039607D01*
X035500D01*
X035551Y039628D01*
X035590Y039667D01*
X035611Y039718D01*
Y039773D01*
X035590Y039824D01*
X035551Y039863D01*
X035500Y039884D01*
D02*
G37*
G36*
X035028D02*
X034972D01*
X034922Y039863D01*
X034883Y039824D01*
X034861Y039773D01*
Y039718D01*
X034883Y039667D01*
X034922Y039628D01*
X034972Y039607D01*
X035028D01*
X035078Y039628D01*
X035117Y039667D01*
X035139Y039718D01*
Y039773D01*
X035117Y039824D01*
X035078Y039863D01*
X035028Y039884D01*
D02*
G37*
G36*
X034555D02*
X034500D01*
X034449Y039863D01*
X034410Y039824D01*
X034389Y039773D01*
Y039718D01*
X034410Y039667D01*
X034449Y039628D01*
X034500Y039607D01*
X034555D01*
X034606Y039628D01*
X034645Y039667D01*
X034666Y039718D01*
Y039773D01*
X034645Y039824D01*
X034606Y039863D01*
X034555Y039884D01*
D02*
G37*
G36*
X032665D02*
X032610D01*
X032559Y039863D01*
X032520Y039824D01*
X032499Y039773D01*
Y039718D01*
X032520Y039667D01*
X032559Y039628D01*
X032610Y039607D01*
X032665D01*
X032716Y039628D01*
X032755Y039667D01*
X032776Y039718D01*
Y039773D01*
X032755Y039824D01*
X032716Y039863D01*
X032665Y039884D01*
D02*
G37*
G36*
X032193D02*
X032138D01*
X032087Y039863D01*
X032048Y039824D01*
X032027Y039773D01*
Y039718D01*
X032048Y039667D01*
X032087Y039628D01*
X032138Y039607D01*
X032193D01*
X032244Y039628D01*
X032283Y039667D01*
X032304Y039718D01*
Y039773D01*
X032283Y039824D01*
X032244Y039863D01*
X032193Y039884D01*
D02*
G37*
G36*
X031720D02*
X031665D01*
X031614Y039863D01*
X031575Y039824D01*
X031554Y039773D01*
Y039718D01*
X031575Y039667D01*
X031614Y039628D01*
X031665Y039607D01*
X031720D01*
X031771Y039628D01*
X031810Y039667D01*
X031832Y039718D01*
Y039773D01*
X031810Y039824D01*
X031771Y039863D01*
X031720Y039884D01*
D02*
G37*
G36*
X031248D02*
X031193D01*
X031142Y039863D01*
X031103Y039824D01*
X031082Y039773D01*
Y039718D01*
X031103Y039667D01*
X031142Y039628D01*
X031193Y039607D01*
X031248D01*
X031299Y039628D01*
X031338Y039667D01*
X031359Y039718D01*
Y039773D01*
X031338Y039824D01*
X031299Y039863D01*
X031248Y039884D01*
D02*
G37*
G36*
X030776D02*
X030720D01*
X030670Y039863D01*
X030631Y039824D01*
X030609Y039773D01*
Y039718D01*
X030631Y039667D01*
X030670Y039628D01*
X030720Y039607D01*
X030776D01*
X030827Y039628D01*
X030866Y039667D01*
X030887Y039718D01*
Y039773D01*
X030866Y039824D01*
X030827Y039863D01*
X030776Y039884D01*
D02*
G37*
G36*
X037359Y039881D02*
X037304D01*
X037253Y039860D01*
X037214Y039821D01*
X037193Y039770D01*
Y039715D01*
X037214Y039664D01*
X037253Y039625D01*
X037304Y039604D01*
X037359D01*
X037410Y039625D01*
X037449Y039664D01*
X037470Y039715D01*
Y039770D01*
X037449Y039821D01*
X037410Y039860D01*
X037359Y039881D01*
D02*
G37*
G36*
X023310Y041585D02*
X023147D01*
X022986Y041560D01*
X022831Y041510D01*
X022686Y041436D01*
X022555Y041340D01*
X022439Y041225D01*
X022344Y041093D01*
X022270Y040948D01*
X022220Y040793D01*
X022194Y040633D01*
Y040470D01*
X022220Y040309D01*
X022270Y040154D01*
X022344Y040009D01*
X022439Y039877D01*
X022555Y039762D01*
X022686Y039667D01*
X022831Y039593D01*
X022986Y039542D01*
X023147Y039517D01*
X023310D01*
X023471Y039542D01*
X023625Y039593D01*
X023770Y039667D01*
X023902Y039762D01*
X024017Y039877D01*
X024113Y040009D01*
X024187Y040154D01*
X024237Y040309D01*
X024263Y040470D01*
Y040633D01*
X024237Y040793D01*
X024187Y040948D01*
X024113Y041093D01*
X024017Y041225D01*
X023902Y041340D01*
X023770Y041436D01*
X023625Y041510D01*
X023471Y041560D01*
X023310Y041585D01*
D02*
G37*
G36*
X021578Y042239D02*
X021522D01*
X021472Y042217D01*
X021433Y042179D01*
X021411Y042128D01*
Y042072D01*
X021433Y042021D01*
X021458Y041996D01*
Y039683D01*
X021421Y039667D01*
X021383Y039629D01*
X021361Y039578D01*
Y039522D01*
X021383Y039471D01*
X021421Y039433D01*
X021472Y039411D01*
X021528D01*
X021579Y039433D01*
X021617Y039471D01*
X021639Y039522D01*
Y039578D01*
X021634Y039589D01*
X021635Y039591D01*
X021642Y039626D01*
Y041996D01*
X021667Y042021D01*
X021689Y042072D01*
Y042128D01*
X021667Y042179D01*
X021628Y042217D01*
X021578Y042239D01*
D02*
G37*
G36*
X021228Y042489D02*
X021172D01*
X021121Y042467D01*
X021083Y042428D01*
X021061Y042378D01*
Y042322D01*
X021083Y042271D01*
X021108Y042246D01*
Y041491D01*
X020953Y041335D01*
X020933Y041305D01*
X020926Y041270D01*
Y039646D01*
X020900Y039621D01*
X020879Y039570D01*
Y039515D01*
X020900Y039464D01*
X020939Y039425D01*
X020990Y039404D01*
X021045D01*
X021096Y039425D01*
X021135Y039464D01*
X021156Y039515D01*
Y039570D01*
X021135Y039621D01*
X021109Y039646D01*
Y041232D01*
X021265Y041388D01*
X021285Y041417D01*
X021292Y041453D01*
Y042246D01*
X021317Y042271D01*
X021339Y042322D01*
Y042378D01*
X021317Y042428D01*
X021279Y042467D01*
X021228Y042489D01*
D02*
G37*
G36*
X014535Y039351D02*
X014480D01*
X014429Y039330D01*
X014390Y039291D01*
X014369Y039240D01*
Y039185D01*
X014390Y039134D01*
X014429Y039095D01*
X014480Y039074D01*
X014535D01*
X014586Y039095D01*
X014625Y039134D01*
X014646Y039185D01*
Y039240D01*
X014625Y039291D01*
X014586Y039330D01*
X014535Y039351D01*
D02*
G37*
G36*
Y038721D02*
X014480D01*
X014429Y038700D01*
X014390Y038661D01*
X014369Y038610D01*
Y038555D01*
X014390Y038504D01*
X014429Y038465D01*
X014480Y038444D01*
X014535D01*
X014586Y038465D01*
X014625Y038504D01*
X014646Y038555D01*
Y038610D01*
X014625Y038661D01*
X014586Y038700D01*
X014535Y038721D01*
D02*
G37*
G36*
X044516Y038131D02*
X044461D01*
X044410Y038110D01*
X044371Y038071D01*
X044350Y038020D01*
Y037965D01*
X044371Y037914D01*
X044410Y037875D01*
X044461Y037854D01*
X044516D01*
X044567Y037875D01*
X044606Y037914D01*
X044627Y037965D01*
Y038020D01*
X044606Y038071D01*
X044567Y038110D01*
X044516Y038131D01*
D02*
G37*
G36*
X044083Y037658D02*
X044028D01*
X043977Y037637D01*
X043938Y037598D01*
X043925Y037567D01*
X043871D01*
X043858Y037598D01*
X043819Y037637D01*
X043768Y037658D01*
X043713D01*
X043662Y037637D01*
X043623Y037598D01*
X043602Y037547D01*
Y037492D01*
X043623Y037441D01*
X043662Y037402D01*
X043713Y037381D01*
X043768D01*
X043819Y037402D01*
X043858Y037441D01*
X043871Y037472D01*
X043925D01*
X043938Y037441D01*
X043977Y037402D01*
X044028Y037381D01*
X044083D01*
X044134Y037402D01*
X044173Y037441D01*
X044194Y037492D01*
Y037547D01*
X044173Y037598D01*
X044134Y037637D01*
X044083Y037658D01*
D02*
G37*
G36*
X021568Y037799D02*
X021512D01*
X021462Y037777D01*
X021423Y037738D01*
X021401Y037688D01*
Y037632D01*
X021423Y037582D01*
X021462Y037543D01*
X021512Y037521D01*
X021568D01*
X021618Y037543D01*
X021657Y037582D01*
X021679Y037632D01*
Y037688D01*
X021657Y037738D01*
X021618Y037777D01*
X021568Y037799D01*
D02*
G37*
G36*
X019388Y036247D02*
X019333D01*
X019282Y036226D01*
X019243Y036187D01*
X019222Y036136D01*
Y036081D01*
X019243Y036030D01*
X019248Y036025D01*
X019272Y035984D01*
X019233Y035945D01*
X019212Y035894D01*
Y035839D01*
X019233Y035788D01*
X019240Y035781D01*
X019271Y035748D01*
X019240Y035715D01*
X019233Y035708D01*
X019212Y035657D01*
Y035602D01*
X019233Y035551D01*
X019240Y035544D01*
X019271Y035512D01*
X019240Y035479D01*
X019233Y035472D01*
X019212Y035421D01*
Y035366D01*
X019233Y035315D01*
X019240Y035308D01*
X019271Y035276D01*
X019240Y035243D01*
X019233Y035236D01*
X019212Y035185D01*
Y035130D01*
X019233Y035079D01*
X019272Y035040D01*
X019323Y035019D01*
X019378D01*
X019429Y035040D01*
X019468Y035079D01*
X019489Y035130D01*
Y035185D01*
X019468Y035236D01*
X019461Y035243D01*
X019430Y035276D01*
X019461Y035308D01*
X019468Y035315D01*
X019489Y035366D01*
Y035421D01*
X019468Y035472D01*
X019461Y035479D01*
X019430Y035512D01*
X019461Y035544D01*
X019468Y035551D01*
X019489Y035602D01*
Y035657D01*
X019468Y035708D01*
X019461Y035715D01*
X019430Y035748D01*
X019461Y035781D01*
X019468Y035788D01*
X019489Y035839D01*
Y035894D01*
X019468Y035945D01*
X019463Y035949D01*
X019439Y035991D01*
X019478Y036030D01*
X019499Y036081D01*
Y036136D01*
X019478Y036187D01*
X019439Y036226D01*
X019388Y036247D01*
D02*
G37*
G36*
X045500Y034942D02*
X045445D01*
X045394Y034921D01*
X045355Y034882D01*
X045334Y034831D01*
Y034776D01*
X045355Y034725D01*
X045394Y034686D01*
X045445Y034665D01*
X045500D01*
X045551Y034686D01*
X045590Y034725D01*
X045611Y034776D01*
Y034831D01*
X045590Y034882D01*
X045551Y034921D01*
X045500Y034942D01*
D02*
G37*
G36*
X049292Y034912D02*
X049237D01*
X049186Y034891D01*
X049147Y034852D01*
X049126Y034801D01*
Y034745D01*
X049147Y034695D01*
X049186Y034656D01*
X049237Y034634D01*
X049292D01*
X049343Y034656D01*
X049382Y034695D01*
X049403Y034745D01*
Y034801D01*
X049382Y034852D01*
X049343Y034891D01*
X049292Y034912D01*
D02*
G37*
G36*
X050224Y034902D02*
X050169D01*
X050118Y034881D01*
X050079Y034842D01*
X050058Y034791D01*
Y034736D01*
X050079Y034685D01*
X050118Y034646D01*
X050169Y034625D01*
X050224D01*
X050275Y034646D01*
X050314Y034685D01*
X050335Y034736D01*
Y034791D01*
X050314Y034842D01*
X050275Y034881D01*
X050224Y034902D01*
D02*
G37*
G36*
X021622Y033643D02*
X021567D01*
X021516Y033621D01*
X021477Y033582D01*
X021456Y033531D01*
Y033476D01*
X021477Y033425D01*
X021516Y033386D01*
X021567Y033365D01*
X021622D01*
X021673Y033386D01*
X021712Y033425D01*
X021733Y033476D01*
Y033531D01*
X021712Y033582D01*
X021673Y033621D01*
X021622Y033643D01*
D02*
G37*
G36*
X020913D02*
X020858D01*
X020807Y033621D01*
X020768Y033582D01*
X020747Y033531D01*
Y033476D01*
X020768Y033425D01*
X020807Y033386D01*
X020858Y033365D01*
X020913D01*
X020964Y033386D01*
X021003Y033425D01*
X021024Y033476D01*
Y033531D01*
X021003Y033582D01*
X020964Y033621D01*
X020913Y033643D01*
D02*
G37*
G36*
X014181Y034548D02*
X014126D01*
X014075Y034527D01*
X014036Y034488D01*
X014015Y034437D01*
Y034382D01*
X014036Y034331D01*
X014066Y034302D01*
X014071Y034272D01*
X014066Y034242D01*
X014036Y034212D01*
X014015Y034161D01*
Y034106D01*
X014036Y034055D01*
X014075Y034016D01*
X014106Y034003D01*
Y033949D01*
X014075Y033936D01*
X014036Y033897D01*
X014015Y033846D01*
Y033791D01*
X014036Y033740D01*
X014075Y033701D01*
X014106Y033688D01*
Y033634D01*
X014075Y033621D01*
X014036Y033582D01*
X014015Y033531D01*
Y033476D01*
X014036Y033425D01*
X014075Y033386D01*
X014126Y033365D01*
X014181D01*
X014232Y033386D01*
X014271Y033425D01*
X014292Y033476D01*
Y033531D01*
X014271Y033582D01*
X014232Y033621D01*
X014201Y033634D01*
Y033688D01*
X014232Y033701D01*
X014271Y033740D01*
X014292Y033791D01*
Y033846D01*
X014271Y033897D01*
X014232Y033936D01*
X014201Y033949D01*
Y034003D01*
X014232Y034016D01*
X014271Y034055D01*
X014292Y034106D01*
Y034161D01*
X014271Y034212D01*
X014242Y034242D01*
X014236Y034272D01*
X014242Y034302D01*
X014271Y034331D01*
X014292Y034382D01*
Y034437D01*
X014271Y034488D01*
X014232Y034527D01*
X014181Y034548D01*
D02*
G37*
G36*
X021445Y033347D02*
X021390D01*
X021339Y033326D01*
X021300Y033287D01*
X021287Y033256D01*
X021233D01*
X021220Y033287D01*
X021181Y033326D01*
X021130Y033347D01*
X021075D01*
X021024Y033326D01*
X020985Y033287D01*
X020964Y033236D01*
Y033181D01*
X020985Y033130D01*
X021024Y033091D01*
X021075Y033070D01*
X021130D01*
X021181Y033091D01*
X021220Y033130D01*
X021233Y033161D01*
X021287D01*
X021300Y033130D01*
X021339Y033091D01*
X021390Y033070D01*
X021445D01*
X021496Y033091D01*
X021535Y033130D01*
X021556Y033181D01*
Y033236D01*
X021535Y033287D01*
X021496Y033326D01*
X021445Y033347D01*
D02*
G37*
G36*
X014181Y033288D02*
X014126D01*
X014075Y033267D01*
X014036Y033228D01*
X014015Y033177D01*
Y033122D01*
X014036Y033071D01*
X014075Y033032D01*
X014126Y033011D01*
X014181D01*
X014232Y033032D01*
X014271Y033071D01*
X014292Y033122D01*
Y033177D01*
X014271Y033228D01*
X014232Y033267D01*
X014181Y033288D01*
D02*
G37*
G36*
X050378Y032639D02*
X050322D01*
X050272Y032617D01*
X050233Y032578D01*
X050211Y032528D01*
Y032472D01*
X050233Y032422D01*
X050272Y032383D01*
X050322Y032361D01*
X050378D01*
X050429Y032383D01*
X050467Y032422D01*
X050489Y032472D01*
Y032528D01*
X050467Y032578D01*
X050429Y032617D01*
X050378Y032639D01*
D02*
G37*
G36*
X049278D02*
X049222D01*
X049172Y032617D01*
X049133Y032578D01*
X049111Y032528D01*
Y032472D01*
X049133Y032422D01*
X049172Y032383D01*
X049222Y032361D01*
X049278D01*
X049328Y032383D01*
X049367Y032422D01*
X049389Y032472D01*
Y032528D01*
X049367Y032578D01*
X049328Y032617D01*
X049278Y032639D01*
D02*
G37*
G36*
X046780Y036556D02*
X046724D01*
X046673Y036535D01*
X046634Y036496D01*
X046613Y036445D01*
Y036390D01*
X046634Y036339D01*
X046650Y036323D01*
Y034574D01*
X045408Y033332D01*
X045386Y033299D01*
X045378Y033260D01*
Y031864D01*
X045363Y031848D01*
X045361Y031844D01*
X045308Y031838D01*
X045279Y031870D01*
Y033285D01*
X046430Y034436D01*
X046452Y034469D01*
X046460Y034508D01*
Y036323D01*
X046476Y036339D01*
X046497Y036390D01*
Y036445D01*
X046476Y036496D01*
X046437Y036535D01*
X046386Y036556D01*
X046331D01*
X046280Y036535D01*
X046241Y036496D01*
X046220Y036445D01*
Y036390D01*
X046241Y036339D01*
X046256Y036323D01*
Y034550D01*
X045105Y033399D01*
X045083Y033366D01*
X045075Y033327D01*
Y031857D01*
X045060Y031841D01*
X045038Y031791D01*
Y031735D01*
X045060Y031684D01*
X045099Y031645D01*
X045149Y031624D01*
X045205D01*
X045256Y031645D01*
X045295Y031684D01*
X045303Y031705D01*
X045357D01*
X045363Y031692D01*
X045402Y031653D01*
X045452Y031631D01*
X045508D01*
X045559Y031653D01*
X045597Y031692D01*
X045619Y031742D01*
Y031798D01*
X045597Y031848D01*
X045582Y031864D01*
Y033218D01*
X046824Y034460D01*
X046846Y034493D01*
X046854Y034532D01*
Y036323D01*
X046869Y036339D01*
X046891Y036390D01*
Y036445D01*
X046869Y036496D01*
X046830Y036535D01*
X046780Y036556D01*
D02*
G37*
G36*
X034675Y031588D02*
X034599D01*
X034525Y031568D01*
X034523Y031567D01*
X034521Y031568D01*
X034447Y031588D01*
X034371D01*
X034298Y031568D01*
X034232Y031530D01*
X034179Y031476D01*
X034141Y031411D01*
X034130Y031373D01*
X034078Y031369D01*
X034074Y031378D01*
X034035Y031417D01*
X033984Y031438D01*
X033929D01*
X033878Y031417D01*
X033839Y031378D01*
X033818Y031327D01*
Y031272D01*
X033839Y031221D01*
X033878Y031182D01*
X033929Y031161D01*
X033984D01*
X034035Y031182D01*
X034074Y031221D01*
X034078Y031229D01*
X034130Y031226D01*
X034141Y031188D01*
X034173Y031131D01*
Y027778D01*
X034161Y027773D01*
X034122Y027734D01*
X034101Y027683D01*
Y027628D01*
X034122Y027577D01*
X034161Y027538D01*
X034173Y027533D01*
Y027223D01*
X034161Y027218D01*
X034122Y027179D01*
X034101Y027128D01*
Y027073D01*
X034122Y027022D01*
X034161Y026983D01*
X034173Y026978D01*
Y025883D01*
X034149Y025847D01*
X034130Y025750D01*
Y025089D01*
X034097Y025033D01*
X034096Y025029D01*
X034041Y025014D01*
X034035Y025019D01*
X033984Y025040D01*
X033929D01*
X033878Y025019D01*
X033839Y024980D01*
X033818Y024929D01*
Y024874D01*
X033839Y024823D01*
X033878Y024784D01*
X033929Y024763D01*
X033984D01*
X034035Y024784D01*
X034049Y024798D01*
X034057Y024800D01*
X034110Y024788D01*
X034135Y024744D01*
X034189Y024690D01*
X034255Y024652D01*
X034328Y024633D01*
X034404D01*
X034478Y024652D01*
X034480Y024654D01*
X034482Y024652D01*
X034556Y024633D01*
X034632D01*
X034705Y024652D01*
X034771Y024690D01*
X034825Y024744D01*
X034862Y024810D01*
X034867Y024826D01*
X034919Y024829D01*
X034922Y024823D01*
X034961Y024784D01*
X035012Y024763D01*
X035067D01*
X035118Y024784D01*
X035157Y024823D01*
X035178Y024874D01*
Y024929D01*
X035157Y024980D01*
X035118Y025019D01*
X035067Y025040D01*
X035012D01*
X034961Y025019D01*
X034927Y024985D01*
X034899Y024986D01*
X034873Y024993D01*
X034862Y025033D01*
X034830Y025089D01*
Y025581D01*
X034854Y025616D01*
X034873Y025714D01*
Y026963D01*
X034921Y026983D01*
X034960Y027022D01*
X034981Y027073D01*
Y027128D01*
X034960Y027179D01*
X034921Y027218D01*
X034873Y027238D01*
Y027518D01*
X034921Y027538D01*
X034960Y027577D01*
X034981Y027628D01*
Y027683D01*
X034960Y027734D01*
X034921Y027773D01*
X034873Y027793D01*
Y031131D01*
X034906Y031188D01*
X034906Y031189D01*
X034961Y031201D01*
X034983Y031179D01*
X035034Y031158D01*
X035089D01*
X035140Y031179D01*
X035179Y031218D01*
X035200Y031269D01*
Y031324D01*
X035179Y031375D01*
X035140Y031414D01*
X035089Y031435D01*
X035034D01*
X034983Y031414D01*
X034962Y031393D01*
X034907Y031406D01*
X034906Y031411D01*
X034868Y031476D01*
X034814Y031530D01*
X034748Y031568D01*
X034675Y031588D01*
D02*
G37*
G36*
X045968Y033429D02*
X045912D01*
X045862Y033407D01*
X045823Y033368D01*
X045801Y033318D01*
Y033262D01*
X045823Y033212D01*
X045838Y033196D01*
Y032342D01*
X045808Y032312D01*
X045786Y032279D01*
X045778Y032240D01*
Y031754D01*
X045763Y031739D01*
X045741Y031688D01*
Y031632D01*
X045763Y031581D01*
X045802Y031543D01*
X045852Y031521D01*
X045908D01*
X045958Y031543D01*
X045997Y031581D01*
X046017Y031629D01*
X046030Y031633D01*
X046069Y031635D01*
X046083Y031602D01*
X046122Y031563D01*
X046172Y031541D01*
X046228D01*
X046279Y031563D01*
X046317Y031602D01*
X046339Y031652D01*
Y031708D01*
X046317Y031758D01*
X046302Y031774D01*
Y031908D01*
X046489Y032095D01*
X046512Y032128D01*
X046519Y032167D01*
Y033109D01*
X046535Y033124D01*
X046556Y033175D01*
Y033230D01*
X046535Y033281D01*
X046496Y033320D01*
X046445Y033341D01*
X046390D01*
X046339Y033320D01*
X046300Y033281D01*
X046279Y033230D01*
Y033175D01*
X046300Y033124D01*
X046315Y033109D01*
Y032210D01*
X046128Y032022D01*
X046106Y031989D01*
X046098Y031950D01*
Y031774D01*
X046083Y031758D01*
X046063Y031711D01*
X046050Y031707D01*
X046011Y031705D01*
X045997Y031739D01*
X045982Y031754D01*
Y032198D01*
X046012Y032228D01*
X046034Y032261D01*
X046042Y032300D01*
Y033196D01*
X046057Y033212D01*
X046079Y033262D01*
Y033318D01*
X046057Y033368D01*
X046019Y033407D01*
X045968Y033429D01*
D02*
G37*
G36*
X045303Y030965D02*
X045248D01*
X045197Y030944D01*
X045158Y030905D01*
X045137Y030854D01*
Y030799D01*
X045142Y030788D01*
X045106Y030749D01*
X045051D01*
X045016Y030788D01*
X045020Y030799D01*
Y030854D01*
X044999Y030905D01*
X044960Y030944D01*
X044909Y030965D01*
X044854D01*
X044803Y030944D01*
X044764Y030905D01*
X044743Y030854D01*
Y030799D01*
X044764Y030748D01*
X044803Y030709D01*
X044854Y030688D01*
X044909D01*
X044945Y030649D01*
X044940Y030638D01*
Y030583D01*
X044944Y030572D01*
X044909Y030532D01*
X044854D01*
X044803Y030511D01*
X044764Y030472D01*
X044743Y030421D01*
Y030366D01*
X044764Y030315D01*
X044803Y030276D01*
X044854Y030255D01*
X044909D01*
X044960Y030276D01*
X044999Y030315D01*
X045020Y030366D01*
Y030421D01*
X045016Y030432D01*
X045051Y030472D01*
X045106D01*
X045142Y030432D01*
X045137Y030421D01*
Y030366D01*
X045158Y030315D01*
X045197Y030276D01*
X045248Y030255D01*
X045303D01*
X045354Y030276D01*
X045393Y030315D01*
X045414Y030366D01*
Y030421D01*
X045393Y030472D01*
X045354Y030511D01*
X045303Y030532D01*
X045248D01*
X045213Y030572D01*
X045217Y030583D01*
Y030638D01*
X045213Y030649D01*
X045248Y030688D01*
X045303D01*
X045354Y030709D01*
X045393Y030748D01*
X045414Y030799D01*
Y030854D01*
X045393Y030905D01*
X045354Y030944D01*
X045303Y030965D01*
D02*
G37*
G36*
X044122Y030847D02*
X044067D01*
X044016Y030826D01*
X043977Y030787D01*
X043956Y030736D01*
Y030681D01*
X043977Y030630D01*
X044016Y030591D01*
X044067Y030570D01*
X044122D01*
X044173Y030591D01*
X044212Y030630D01*
X044233Y030681D01*
Y030736D01*
X044212Y030787D01*
X044173Y030826D01*
X044122Y030847D01*
D02*
G37*
G36*
X026406Y030847D02*
X026350D01*
X026299Y030826D01*
X026260Y030787D01*
X026239Y030736D01*
Y030700D01*
X025779Y030240D01*
X025761Y030241D01*
X025724Y030256D01*
X025708Y030295D01*
X025669Y030334D01*
X025618Y030355D01*
X025563D01*
X025512Y030334D01*
X025473Y030295D01*
X025452Y030244D01*
Y030189D01*
X025473Y030138D01*
X025499Y030112D01*
Y022250D01*
X025473Y022224D01*
X025452Y022173D01*
Y022118D01*
X025473Y022067D01*
X025512Y022028D01*
X025563Y022007D01*
X025618D01*
X025661Y022025D01*
X025687Y022014D01*
X025708Y021997D01*
Y021804D01*
X025683Y021779D01*
X025661Y021728D01*
Y021672D01*
X025683Y021621D01*
X025721Y021583D01*
X025772Y021561D01*
X025828D01*
X025879Y021583D01*
X025917Y021621D01*
X025939Y021672D01*
Y021728D01*
X025917Y021779D01*
X025892Y021804D01*
Y021967D01*
X025912Y021996D01*
X025919Y022032D01*
Y022310D01*
X025912Y022345D01*
X025892Y022375D01*
X025852Y022415D01*
Y029972D01*
X025885Y030005D01*
X025905Y030035D01*
X025912Y030070D01*
Y030113D01*
X026369Y030570D01*
X026406D01*
X026456Y030591D01*
X026495Y030630D01*
X026517Y030681D01*
Y030736D01*
X026495Y030787D01*
X026456Y030826D01*
X026406Y030847D01*
D02*
G37*
G36*
X046189Y030454D02*
X046134D01*
X046083Y030432D01*
X046044Y030393D01*
X046023Y030343D01*
Y030287D01*
X046044Y030236D01*
X046083Y030197D01*
X046134Y030176D01*
X046189D01*
X046240Y030197D01*
X046279Y030236D01*
X046300Y030287D01*
Y030343D01*
X046279Y030393D01*
X046240Y030432D01*
X046189Y030454D01*
D02*
G37*
G36*
X029905Y031506D02*
X027576D01*
X027541Y031499D01*
X027511Y031479D01*
X026037Y030006D01*
X026018Y029976D01*
X026011Y029941D01*
Y023451D01*
X025985Y023425D01*
X025964Y023374D01*
Y023319D01*
X025985Y023268D01*
X026024Y023229D01*
X026075Y023208D01*
X026130D01*
X026181Y023229D01*
X026220Y023268D01*
X026241Y023319D01*
Y023374D01*
X026220Y023425D01*
X026194Y023451D01*
Y029903D01*
X026432Y030141D01*
X026446Y030139D01*
X026481Y030119D01*
Y023938D01*
X026483Y023927D01*
Y023879D01*
X026483Y023879D01*
X026461Y023828D01*
Y023772D01*
X026483Y023721D01*
X026521Y023683D01*
X026572Y023661D01*
X026628D01*
X026679Y023683D01*
X026717Y023721D01*
X026739Y023772D01*
Y023828D01*
X026738Y023830D01*
X026772Y023877D01*
X026799D01*
X026850Y023898D01*
X026889Y023937D01*
X026910Y023988D01*
Y024043D01*
X026889Y024094D01*
X026863Y024120D01*
Y029851D01*
X028023Y031011D01*
X029785D01*
X030427Y030369D01*
Y027771D01*
X030377Y027750D01*
X030354Y027773D01*
X030303Y027794D01*
X030248D01*
X030197Y027773D01*
X030158Y027734D01*
X030137Y027683D01*
Y027628D01*
X030158Y027577D01*
X030197Y027538D01*
X030248Y027517D01*
X030303D01*
X030354Y027538D01*
X030377Y027561D01*
X030427Y027540D01*
Y027288D01*
X030377Y027255D01*
X030368Y027259D01*
X030312D01*
X030261Y027237D01*
X030223Y027199D01*
X030201Y027148D01*
Y027092D01*
X030223Y027041D01*
X030261Y027003D01*
X030312Y026981D01*
X030368D01*
X030377Y026985D01*
X030427Y026952D01*
Y026863D01*
X030434Y026828D01*
X030454Y026798D01*
X030939Y026313D01*
X030969Y026293D01*
X031004Y026286D01*
X031195D01*
X031221Y026260D01*
X031272Y026239D01*
X031327D01*
X031378Y026260D01*
X031417Y026299D01*
X031438Y026350D01*
Y026406D01*
X031417Y026456D01*
X031378Y026495D01*
X031327Y026517D01*
X031272D01*
X031221Y026495D01*
X031195Y026470D01*
X031042D01*
X030610Y026901D01*
Y026971D01*
X030660Y026992D01*
X030670Y026983D01*
X030720Y026962D01*
X030776D01*
X030827Y026983D01*
X030866Y027022D01*
X030887Y027073D01*
Y027128D01*
X030866Y027179D01*
X030827Y027218D01*
X030776Y027239D01*
X030720D01*
X030670Y027218D01*
X030660Y027209D01*
X030610Y027229D01*
Y027527D01*
X030660Y027547D01*
X030670Y027538D01*
X030720Y027517D01*
X030776D01*
X030827Y027538D01*
X030866Y027577D01*
X030887Y027628D01*
Y027683D01*
X030866Y027734D01*
X030827Y027773D01*
X030776Y027794D01*
X030720D01*
X030670Y027773D01*
X030660Y027764D01*
X030610Y027785D01*
Y030407D01*
X030603Y030442D01*
X030583Y030471D01*
X029888Y031167D01*
X029858Y031187D01*
X029823Y031194D01*
X027985D01*
X027950Y031187D01*
X027920Y031167D01*
X026735Y029982D01*
X026685Y030003D01*
Y030091D01*
X027406Y030811D01*
X027428D01*
X027478Y030833D01*
X027517Y030872D01*
X027539Y030922D01*
Y030978D01*
X027517Y031028D01*
X027478Y031067D01*
X027444Y031082D01*
X027426Y031135D01*
X027614Y031322D01*
X029867D01*
X031896Y029293D01*
Y027466D01*
X031871Y027441D01*
X031850Y027390D01*
Y027335D01*
X031871Y027284D01*
X031910Y027245D01*
X031961Y027224D01*
X032016D01*
X032067Y027245D01*
X032106Y027284D01*
X032127Y027335D01*
Y027390D01*
X032106Y027441D01*
X032102Y027445D01*
X032105Y027481D01*
X032139Y027517D01*
X032194D01*
X032202Y027520D01*
X032244Y027493D01*
Y027223D01*
X032232Y027218D01*
X032193Y027179D01*
X032172Y027128D01*
Y027073D01*
X032193Y027022D01*
X032232Y026983D01*
X032244Y026978D01*
Y024994D01*
X032231Y024980D01*
X032211Y024946D01*
X032168Y024922D01*
X032146Y024929D01*
X032114Y024942D01*
X032059D01*
X032008Y024921D01*
X031969Y024882D01*
X031948Y024831D01*
Y024776D01*
X031969Y024725D01*
X032008Y024686D01*
X032059Y024665D01*
X032114D01*
X032146Y024678D01*
X032168Y024684D01*
X032211Y024661D01*
X032231Y024626D01*
X032285Y024572D01*
X032350Y024534D01*
X032424Y024515D01*
X032500D01*
X032573Y024534D01*
X032575Y024536D01*
X032578Y024534D01*
X032651Y024515D01*
X032727D01*
X032800Y024534D01*
X032866Y024572D01*
X032920Y024626D01*
X032942Y024665D01*
X032989Y024684D01*
X033006Y024680D01*
X033043Y024665D01*
X033098D01*
X033149Y024686D01*
X033188Y024725D01*
X033209Y024776D01*
Y024831D01*
X033188Y024882D01*
X033149Y024921D01*
X033098Y024942D01*
X033043D01*
X033006Y024926D01*
X032989Y024922D01*
X032952Y024936D01*
X032944Y024943D01*
Y027009D01*
X032988Y027021D01*
X032994Y027021D01*
X033032Y026983D01*
X033083Y026962D01*
X033138D01*
X033189Y026983D01*
X033228Y027022D01*
X033249Y027073D01*
Y027128D01*
X033228Y027179D01*
X033189Y027218D01*
X033138Y027239D01*
X033083D01*
X033032Y027218D01*
X032994Y027180D01*
X032988Y027180D01*
X032944Y027191D01*
Y027517D01*
X032980D01*
X033031Y027538D01*
X033070Y027577D01*
X033091Y027628D01*
Y027683D01*
X033070Y027734D01*
X033031Y027773D01*
X032980Y027794D01*
X032944D01*
Y029573D01*
X032983Y029606D01*
X033006Y029600D01*
X033016Y029596D01*
X033071D01*
X033122Y029617D01*
X033161Y029656D01*
X033182Y029707D01*
Y029762D01*
X033161Y029813D01*
X033122Y029852D01*
X033071Y029873D01*
X033016D01*
X032965Y029852D01*
X032947Y029854D01*
X032920Y029902D01*
X032866Y029955D01*
X032800Y029993D01*
X032727Y030013D01*
X032651D01*
X032578Y029993D01*
X032575Y029992D01*
X032573Y029993D01*
X032500Y030013D01*
X032424D01*
X032399Y030006D01*
X032349Y030034D01*
X032347Y030039D01*
X032328Y030084D01*
X032289Y030123D01*
X032238Y030145D01*
X032183D01*
X032132Y030123D01*
X032093Y030084D01*
X032072Y030034D01*
Y029978D01*
X032093Y029927D01*
X032132Y029889D01*
X032159Y029877D01*
X032185Y029845D01*
X032188Y029817D01*
X032173Y029762D01*
Y029686D01*
X032193Y029613D01*
X032231Y029547D01*
X032244Y029534D01*
Y027819D01*
X032202Y027791D01*
X032194Y027794D01*
X032139D01*
X032130Y027790D01*
X032080Y027824D01*
Y029331D01*
X032073Y029366D01*
X032053Y029396D01*
X029970Y031479D01*
X029940Y031499D01*
X029905Y031506D01*
D02*
G37*
G36*
X048728Y029289D02*
X048672D01*
X048622Y029267D01*
X048583Y029228D01*
X048561Y029178D01*
Y029141D01*
X048262Y028842D01*
X047504D01*
X047478Y028867D01*
X047428Y028889D01*
X047372D01*
X047322Y028867D01*
X047283Y028828D01*
X047261Y028778D01*
Y028722D01*
X047283Y028672D01*
X047322Y028633D01*
X047372Y028611D01*
X047428D01*
X047478Y028633D01*
X047504Y028658D01*
X048300D01*
X048335Y028665D01*
X048365Y028685D01*
X048691Y029011D01*
X048728D01*
X048779Y029033D01*
X048817Y029072D01*
X048839Y029122D01*
Y029178D01*
X048817Y029228D01*
X048779Y029267D01*
X048728Y029289D01*
D02*
G37*
G36*
X044516Y028977D02*
X044461D01*
X044410Y028956D01*
X044371Y028917D01*
X044350Y028866D01*
Y028811D01*
X044371Y028760D01*
X044410Y028721D01*
X044461Y028700D01*
X044516D01*
X044567Y028721D01*
X044606Y028760D01*
X044627Y028811D01*
Y028866D01*
X044606Y028917D01*
X044567Y028956D01*
X044516Y028977D01*
D02*
G37*
G36*
X044122D02*
X044067D01*
X044016Y028956D01*
X043977Y028917D01*
X043956Y028866D01*
Y028811D01*
X043977Y028760D01*
X044016Y028721D01*
X044067Y028700D01*
X044122D01*
X044173Y028721D01*
X044212Y028760D01*
X044233Y028811D01*
Y028866D01*
X044212Y028917D01*
X044173Y028956D01*
X044122Y028977D01*
D02*
G37*
G36*
X050224Y028839D02*
X050169D01*
X050118Y028818D01*
X050079Y028779D01*
X050058Y028728D01*
Y028673D01*
X050079Y028622D01*
X050118Y028583D01*
X050150Y028570D01*
Y028516D01*
X050118Y028503D01*
X050079Y028464D01*
X050058Y028413D01*
Y028358D01*
X050079Y028307D01*
X050118Y028268D01*
X050169Y028247D01*
X050224D01*
X050275Y028268D01*
X050314Y028307D01*
X050335Y028358D01*
Y028413D01*
X050314Y028464D01*
X050275Y028503D01*
X050244Y028516D01*
Y028570D01*
X050275Y028583D01*
X050314Y028622D01*
X050335Y028673D01*
Y028728D01*
X050314Y028779D01*
X050275Y028818D01*
X050224Y028839D01*
D02*
G37*
G36*
X045185Y028170D02*
X045130D01*
X045079Y028149D01*
X045040Y028110D01*
X045027Y028079D01*
X044973D01*
X044960Y028110D01*
X044921Y028149D01*
X044870Y028170D01*
X044815D01*
X044764Y028149D01*
X044735Y028120D01*
X044705Y028114D01*
X044675Y028120D01*
X044645Y028149D01*
X044594Y028170D01*
X044539D01*
X044488Y028149D01*
X044459Y028120D01*
X044429Y028114D01*
X044399Y028120D01*
X044370Y028149D01*
X044319Y028170D01*
X044264D01*
X044213Y028149D01*
X044183Y028120D01*
X044154Y028114D01*
X044124Y028120D01*
X044094Y028149D01*
X044043Y028170D01*
X043988D01*
X043937Y028149D01*
X043908Y028120D01*
X043878Y028114D01*
X043848Y028120D01*
X043819Y028149D01*
X043768Y028170D01*
X043713D01*
X043662Y028149D01*
X043623Y028110D01*
X043602Y028059D01*
Y028004D01*
X043623Y027953D01*
X043662Y027914D01*
X043713Y027893D01*
X043768D01*
X043819Y027914D01*
X043848Y027943D01*
X043878Y027949D01*
X043908Y027943D01*
X043937Y027914D01*
X043988Y027893D01*
X044043D01*
X044094Y027914D01*
X044124Y027943D01*
X044154Y027949D01*
X044183Y027943D01*
X044213Y027914D01*
X044264Y027893D01*
X044319D01*
X044370Y027914D01*
X044399Y027943D01*
X044429Y027949D01*
X044459Y027943D01*
X044488Y027914D01*
X044539Y027893D01*
X044594D01*
X044645Y027914D01*
X044675Y027943D01*
X044705Y027949D01*
X044735Y027943D01*
X044764Y027914D01*
X044815Y027893D01*
X044870D01*
X044921Y027914D01*
X044960Y027953D01*
X044973Y027984D01*
X045027D01*
X045040Y027953D01*
X045047Y027946D01*
X045078Y027913D01*
X045047Y027881D01*
X045040Y027874D01*
X045019Y027823D01*
Y027768D01*
X045040Y027717D01*
X045079Y027678D01*
X045110Y027665D01*
Y027611D01*
X045079Y027598D01*
X045040Y027559D01*
X045019Y027508D01*
Y027453D01*
X045040Y027402D01*
X045079Y027363D01*
X045130Y027342D01*
X045185D01*
X045236Y027363D01*
X045275Y027402D01*
X045296Y027453D01*
Y027508D01*
X045275Y027559D01*
X045236Y027598D01*
X045205Y027611D01*
Y027665D01*
X045236Y027678D01*
X045275Y027717D01*
X045296Y027768D01*
Y027823D01*
X045275Y027874D01*
X045268Y027881D01*
X045237Y027913D01*
X045268Y027946D01*
X045275Y027953D01*
X045296Y028004D01*
Y028059D01*
X045275Y028110D01*
X045236Y028149D01*
X045185Y028170D01*
D02*
G37*
G36*
X046760Y028131D02*
X046705D01*
X046654Y028110D01*
X046615Y028071D01*
X046594Y028020D01*
Y027965D01*
X046615Y027914D01*
X046654Y027875D01*
X046705Y027854D01*
X046760D01*
X046811Y027875D01*
X046850Y027914D01*
X046871Y027965D01*
Y028020D01*
X046850Y028071D01*
X046811Y028110D01*
X046760Y028131D01*
D02*
G37*
G36*
X021578Y027889D02*
X021522D01*
X021472Y027867D01*
X021456Y027852D01*
X019778D01*
X019739Y027844D01*
X019705Y027822D01*
X017308Y025425D01*
X017084D01*
X017071Y025472D01*
X017020Y025561D01*
X016948Y025633D01*
X016860Y025684D01*
X016761Y025710D01*
X016659D01*
X016561Y025684D01*
X016472Y025633D01*
X016400Y025561D01*
X016349Y025472D01*
X016332Y025408D01*
X016282Y025415D01*
Y025800D01*
X016274Y025839D01*
X016252Y025872D01*
X015902Y026222D01*
X015869Y026244D01*
X015830Y026252D01*
X015144D01*
X015129Y026267D01*
X015078Y026289D01*
X015022D01*
X014971Y026267D01*
X014933Y026228D01*
X014911Y026178D01*
Y026122D01*
X014933Y026072D01*
X014971Y026033D01*
X015022Y026011D01*
X015078D01*
X015129Y026033D01*
X015144Y026048D01*
X015788D01*
X016078Y025758D01*
Y025561D01*
X016028Y025547D01*
X016020Y025561D01*
X015948Y025633D01*
X015860Y025684D01*
X015761Y025710D01*
X015659D01*
X015561Y025684D01*
X015472Y025633D01*
X015400Y025561D01*
X015349Y025472D01*
X015323Y025374D01*
Y025272D01*
X015349Y025173D01*
X015400Y025085D01*
X015472Y025013D01*
X015561Y024962D01*
X015659Y024935D01*
X015761D01*
X015860Y024962D01*
X015948Y025013D01*
X016020Y025085D01*
X016028Y025098D01*
X016078Y025085D01*
Y024835D01*
X015875Y024632D01*
X015845Y024649D01*
X015756Y024673D01*
X015664D01*
X015575Y024649D01*
X015495Y024603D01*
X015430Y024538D01*
X015384Y024458D01*
X015360Y024369D01*
Y024277D01*
X015384Y024188D01*
X015430Y024108D01*
X015495Y024043D01*
X015575Y023997D01*
X015664Y023973D01*
X015756D01*
X015845Y023997D01*
X015925Y024043D01*
X015990Y024108D01*
X015999Y024122D01*
X016053Y024116D01*
X016110Y024016D01*
X016203Y023923D01*
X016317Y023857D01*
X016444Y023823D01*
X016576D01*
X016703Y023857D01*
X016817Y023923D01*
X016910Y024016D01*
X017003Y023923D01*
X017117Y023857D01*
X017244Y023823D01*
X017376D01*
X017503Y023857D01*
X017617Y023923D01*
X017710Y024016D01*
X017776Y024130D01*
X017810Y024257D01*
Y024389D01*
X017776Y024516D01*
X017710Y024630D01*
X017617Y024723D01*
X017503Y024789D01*
X017376Y024823D01*
X017244D01*
X017117Y024789D01*
X017003Y024723D01*
X016910Y024630D01*
X016817Y024723D01*
X016703Y024789D01*
X016576Y024823D01*
X016444D01*
X016332Y024793D01*
X016294Y024813D01*
X016282Y024826D01*
Y025231D01*
X016332Y025237D01*
X016349Y025173D01*
X016400Y025085D01*
X016472Y025013D01*
X016561Y024962D01*
X016659Y024935D01*
X016761D01*
X016860Y024962D01*
X016948Y025013D01*
X017020Y025085D01*
X017071Y025173D01*
X017084Y025221D01*
X017350D01*
X017389Y025229D01*
X017422Y025251D01*
X019820Y027648D01*
X021456D01*
X021472Y027633D01*
X021522Y027611D01*
X021578D01*
X021628Y027633D01*
X021667Y027671D01*
X021689Y027722D01*
Y027778D01*
X021667Y027829D01*
X021628Y027867D01*
X021578Y027889D01*
D02*
G37*
G36*
X035461Y031083D02*
X035405D01*
X035355Y031062D01*
X035316Y031023D01*
X035294Y030972D01*
Y030917D01*
X035316Y030866D01*
X035341Y030841D01*
Y029358D01*
X035229Y029245D01*
X035209Y029216D01*
X035202Y029181D01*
Y027374D01*
X035209Y027339D01*
X035229Y027309D01*
X035257Y027281D01*
X035246Y027222D01*
X035236Y027218D01*
X035197Y027179D01*
X035176Y027128D01*
Y027073D01*
X035197Y027022D01*
X035236Y026983D01*
X035287Y026962D01*
X035343D01*
X035352Y026966D01*
X035402Y026932D01*
Y025087D01*
X035383Y025067D01*
X035363Y025038D01*
X035356Y025003D01*
Y025000D01*
X035355Y024999D01*
X035316Y024960D01*
X035294Y024909D01*
Y024854D01*
X035316Y024803D01*
X035355Y024764D01*
X035405Y024743D01*
X035461D01*
X035512Y024764D01*
X035551Y024803D01*
X035572Y024854D01*
Y024909D01*
X035551Y024960D01*
X035543Y024968D01*
X035558Y024984D01*
X035578Y025014D01*
X035585Y025049D01*
Y027174D01*
X035578Y027209D01*
X035558Y027239D01*
X035386Y027412D01*
Y027487D01*
X035436Y027521D01*
X035445Y027517D01*
X035500D01*
X035551Y027538D01*
X035590Y027577D01*
X035611Y027628D01*
Y027683D01*
X035590Y027734D01*
X035551Y027773D01*
X035500Y027794D01*
X035445D01*
X035436Y027790D01*
X035386Y027824D01*
Y029142D01*
X035498Y029255D01*
X035518Y029285D01*
X035525Y029320D01*
Y030841D01*
X035551Y030866D01*
X035572Y030917D01*
Y030972D01*
X035551Y031023D01*
X035512Y031062D01*
X035461Y031083D01*
D02*
G37*
G36*
X033768Y027794D02*
X033713D01*
X033662Y027773D01*
X033623Y027734D01*
X033602Y027683D01*
Y027628D01*
X033623Y027577D01*
X033662Y027538D01*
X033713Y027517D01*
X033768D01*
X033819Y027538D01*
X033858Y027577D01*
X033879Y027628D01*
Y027683D01*
X033858Y027734D01*
X033819Y027773D01*
X033768Y027794D01*
D02*
G37*
G36*
X029831D02*
X029776D01*
X029725Y027773D01*
X029686Y027734D01*
X029665Y027683D01*
Y027628D01*
X029686Y027577D01*
X029725Y027538D01*
X029776Y027517D01*
X029831D01*
X029882Y027538D01*
X029921Y027577D01*
X029942Y027628D01*
Y027683D01*
X029921Y027734D01*
X029882Y027773D01*
X029831Y027794D01*
D02*
G37*
G36*
X031130Y028780D02*
X031075D01*
X031024Y028759D01*
X030985Y028720D01*
X030964Y028669D01*
Y028614D01*
X030985Y028563D01*
X031011Y028538D01*
Y027653D01*
X031009Y027650D01*
X030984Y027640D01*
X030946Y027601D01*
X030924Y027551D01*
Y027495D01*
X030946Y027444D01*
X030984Y027406D01*
X031035Y027384D01*
X031091D01*
X031126Y027399D01*
X031146Y027390D01*
X031167Y027374D01*
X031171Y027368D01*
Y027322D01*
X031193Y027271D01*
X031232Y027233D01*
X031282Y027211D01*
X031338D01*
X031388Y027233D01*
X031427Y027271D01*
X031449Y027322D01*
Y027359D01*
X031758Y027668D01*
X031778Y027698D01*
X031785Y027733D01*
Y028242D01*
X031810Y028268D01*
X031831Y028319D01*
Y028374D01*
X031810Y028425D01*
X031771Y028464D01*
X031720Y028485D01*
X031665D01*
X031614Y028464D01*
X031575Y028425D01*
X031554Y028374D01*
Y028319D01*
X031575Y028268D01*
X031601Y028242D01*
Y027771D01*
X031551Y027721D01*
X031492Y027732D01*
X031488Y027742D01*
X031449Y027781D01*
X031398Y027802D01*
X031343D01*
X031292Y027781D01*
X031253Y027742D01*
X031244Y027720D01*
X031194Y027730D01*
Y028538D01*
X031220Y028563D01*
X031241Y028614D01*
Y028669D01*
X031220Y028720D01*
X031181Y028759D01*
X031130Y028780D01*
D02*
G37*
G36*
X033925Y027239D02*
X033870D01*
X033819Y027218D01*
X033780Y027179D01*
X033759Y027128D01*
Y027073D01*
X033780Y027022D01*
X033819Y026983D01*
X033870Y026962D01*
X033925D01*
X033976Y026983D01*
X034015Y027022D01*
X034036Y027073D01*
Y027128D01*
X034015Y027179D01*
X033976Y027218D01*
X033925Y027239D01*
D02*
G37*
G36*
X031563D02*
X031508D01*
X031457Y027218D01*
X031418Y027179D01*
X031397Y027128D01*
Y027073D01*
X031418Y027022D01*
X031457Y026983D01*
X031508Y026962D01*
X031563D01*
X031614Y026983D01*
X031653Y027022D01*
X031674Y027073D01*
Y027128D01*
X031653Y027179D01*
X031614Y027218D01*
X031563Y027239D01*
D02*
G37*
G36*
X015874Y027205D02*
X015819D01*
X015768Y027184D01*
X015729Y027145D01*
X015708Y027094D01*
Y027039D01*
X015729Y026988D01*
X015768Y026949D01*
X015819Y026928D01*
X015874D01*
X015925Y026949D01*
X015964Y026988D01*
X015985Y027039D01*
Y027094D01*
X015964Y027145D01*
X015925Y027184D01*
X015874Y027205D01*
D02*
G37*
G36*
X015087Y027200D02*
X015031D01*
X014981Y027178D01*
X014942Y027139D01*
X014920Y027089D01*
Y027033D01*
X014942Y026982D01*
X014981Y026943D01*
X015031Y026922D01*
X015087D01*
X015138Y026943D01*
X015177Y026982D01*
X015198Y027033D01*
Y027089D01*
X015177Y027139D01*
X015138Y027178D01*
X015087Y027200D01*
D02*
G37*
G36*
X046760Y027776D02*
X046705D01*
X046654Y027755D01*
X046615Y027716D01*
X046594Y027665D01*
Y027610D01*
X046615Y027559D01*
X046654Y027520D01*
X046685Y027507D01*
Y027453D01*
X046654Y027440D01*
X046615Y027401D01*
X046594Y027350D01*
Y027295D01*
X046615Y027244D01*
X046654Y027205D01*
X046685Y027192D01*
Y027138D01*
X046654Y027125D01*
X046615Y027086D01*
X046594Y027035D01*
Y026980D01*
X046615Y026929D01*
X046654Y026890D01*
X046705Y026869D01*
X046760D01*
X046811Y026890D01*
X046850Y026929D01*
X046871Y026980D01*
Y027035D01*
X046850Y027086D01*
X046811Y027125D01*
X046780Y027138D01*
Y027192D01*
X046811Y027205D01*
X046850Y027244D01*
X046871Y027295D01*
Y027350D01*
X046850Y027401D01*
X046811Y027440D01*
X046780Y027453D01*
Y027507D01*
X046811Y027520D01*
X046850Y027559D01*
X046871Y027610D01*
Y027665D01*
X046850Y027716D01*
X046811Y027755D01*
X046760Y027776D01*
D02*
G37*
G36*
X050224Y028170D02*
X050169D01*
X050118Y028149D01*
X050079Y028110D01*
X050058Y028059D01*
Y028004D01*
X050079Y027953D01*
X050118Y027914D01*
X050150Y027901D01*
Y027847D01*
X050118Y027834D01*
X050079Y027795D01*
X050058Y027744D01*
Y027689D01*
X050079Y027638D01*
X050118Y027599D01*
X050150Y027586D01*
Y027532D01*
X050118Y027519D01*
X050079Y027480D01*
X050058Y027429D01*
Y027374D01*
X050079Y027323D01*
X050118Y027284D01*
X050150Y027271D01*
Y027217D01*
X050118Y027204D01*
X050079Y027165D01*
X050058Y027114D01*
Y027059D01*
X050079Y027008D01*
X050118Y026969D01*
X050150Y026956D01*
Y026902D01*
X050118Y026889D01*
X050079Y026850D01*
X050058Y026799D01*
Y026744D01*
X050079Y026693D01*
X050118Y026654D01*
X050169Y026633D01*
X050224D01*
X050275Y026654D01*
X050314Y026693D01*
X050335Y026744D01*
Y026799D01*
X050314Y026850D01*
X050275Y026889D01*
X050244Y026902D01*
Y026956D01*
X050275Y026969D01*
X050314Y027008D01*
X050335Y027059D01*
Y027114D01*
X050314Y027165D01*
X050275Y027204D01*
X050244Y027217D01*
Y027271D01*
X050275Y027284D01*
X050314Y027323D01*
X050335Y027374D01*
Y027429D01*
X050314Y027480D01*
X050275Y027519D01*
X050244Y027532D01*
Y027586D01*
X050275Y027599D01*
X050314Y027638D01*
X050335Y027689D01*
Y027744D01*
X050314Y027795D01*
X050275Y027834D01*
X050244Y027847D01*
Y027901D01*
X050275Y027914D01*
X050314Y027953D01*
X050335Y028004D01*
Y028059D01*
X050314Y028110D01*
X050275Y028149D01*
X050224Y028170D01*
D02*
G37*
G36*
X023310Y028593D02*
X023147D01*
X022986Y028568D01*
X022831Y028518D01*
X022686Y028444D01*
X022555Y028348D01*
X022439Y028233D01*
X022344Y028101D01*
X022270Y027956D01*
X022220Y027801D01*
X022194Y027640D01*
Y027478D01*
X022220Y027317D01*
X022270Y027162D01*
X022344Y027017D01*
X022439Y026885D01*
X022555Y026770D01*
X022686Y026674D01*
X022831Y026601D01*
X022986Y026550D01*
X023147Y026525D01*
X023310D01*
X023471Y026550D01*
X023625Y026601D01*
X023770Y026674D01*
X023902Y026770D01*
X024017Y026885D01*
X024113Y027017D01*
X024187Y027162D01*
X024237Y027317D01*
X024263Y027478D01*
Y027640D01*
X024237Y027801D01*
X024187Y027956D01*
X024113Y028101D01*
X024017Y028233D01*
X023902Y028348D01*
X023770Y028444D01*
X023625Y028518D01*
X023471Y028568D01*
X023310Y028593D01*
D02*
G37*
G36*
X046760Y026792D02*
X046705D01*
X046654Y026771D01*
X046615Y026732D01*
X046594Y026681D01*
Y026626D01*
X046615Y026575D01*
X046654Y026536D01*
X046705Y026515D01*
X046760D01*
X046811Y026536D01*
X046850Y026575D01*
X046871Y026626D01*
Y026681D01*
X046850Y026732D01*
X046811Y026771D01*
X046760Y026792D01*
D02*
G37*
G36*
X029688Y026759D02*
X029632D01*
X029581Y026737D01*
X029543Y026699D01*
X029521Y026648D01*
Y026592D01*
X029543Y026542D01*
X029581Y026503D01*
X029632Y026481D01*
X029688D01*
X029739Y026503D01*
X029777Y026542D01*
X029799Y026592D01*
Y026648D01*
X029777Y026699D01*
X029739Y026737D01*
X029688Y026759D01*
D02*
G37*
G36*
X046487Y026344D02*
X046431D01*
X046380Y026323D01*
X046341Y026284D01*
X046320Y026233D01*
Y026178D01*
X046341Y026127D01*
X046380Y026088D01*
X046431Y026067D01*
X046487D01*
X046537Y026088D01*
X046576Y026127D01*
X046598Y026178D01*
Y026233D01*
X046576Y026284D01*
X046537Y026323D01*
X046487Y026344D01*
D02*
G37*
G36*
X045999Y026332D02*
X045944D01*
X045893Y026310D01*
X045854Y026271D01*
X045833Y026221D01*
Y026165D01*
X045854Y026114D01*
X045893Y026075D01*
X045944Y026054D01*
X045999D01*
X046050Y026075D01*
X046089Y026114D01*
X046110Y026165D01*
Y026221D01*
X046089Y026271D01*
X046050Y026310D01*
X045999Y026332D01*
D02*
G37*
G36*
X045487Y026325D02*
X045432D01*
X045381Y026304D01*
X045342Y026265D01*
X045321Y026214D01*
Y026159D01*
X045342Y026108D01*
X045381Y026069D01*
X045432Y026048D01*
X045487D01*
X045538Y026069D01*
X045577Y026108D01*
X045598Y026159D01*
Y026214D01*
X045577Y026265D01*
X045538Y026304D01*
X045487Y026325D01*
D02*
G37*
G36*
X046235Y026071D02*
X046180D01*
X046129Y026050D01*
X046090Y026011D01*
X046069Y025960D01*
Y025904D01*
X046090Y025854D01*
X046129Y025815D01*
X046180Y025793D01*
X046235D01*
X046286Y025815D01*
X046325Y025854D01*
X046346Y025904D01*
Y025960D01*
X046325Y026011D01*
X046286Y026050D01*
X046235Y026071D01*
D02*
G37*
G36*
X050382Y026064D02*
X050327D01*
X050276Y026043D01*
X050237Y026004D01*
X050216Y025953D01*
Y025898D01*
X050237Y025847D01*
X050276Y025808D01*
X050327Y025787D01*
X050382D01*
X050433Y025808D01*
X050472Y025847D01*
X050493Y025898D01*
Y025953D01*
X050472Y026004D01*
X050433Y026043D01*
X050382Y026064D01*
D02*
G37*
G36*
X049870D02*
X049815D01*
X049764Y026043D01*
X049725Y026004D01*
X049704Y025953D01*
Y025898D01*
X049725Y025847D01*
X049764Y025808D01*
X049815Y025787D01*
X049870D01*
X049921Y025808D01*
X049960Y025847D01*
X049981Y025898D01*
Y025953D01*
X049960Y026004D01*
X049921Y026043D01*
X049870Y026064D01*
D02*
G37*
G36*
X021658Y027399D02*
X021602D01*
X021551Y027377D01*
X021513Y027339D01*
X021491Y027288D01*
Y027232D01*
X021513Y027181D01*
X021528Y027166D01*
Y026485D01*
X020702Y025659D01*
X020660Y025684D01*
X020561Y025710D01*
X020459D01*
X020361Y025684D01*
X020272Y025633D01*
X020200Y025561D01*
X020149Y025472D01*
X020123Y025374D01*
Y025272D01*
X020149Y025173D01*
X020200Y025085D01*
X020272Y025013D01*
X020361Y024962D01*
X020459Y024935D01*
X020561D01*
X020660Y024962D01*
X020748Y025013D01*
X020820Y025085D01*
X020871Y025173D01*
X020898Y025272D01*
Y025374D01*
X020871Y025472D01*
X020847Y025515D01*
X021702Y026370D01*
X021724Y026404D01*
X021732Y026443D01*
Y027166D01*
X021747Y027181D01*
X021769Y027232D01*
Y027288D01*
X021747Y027339D01*
X021709Y027377D01*
X021658Y027399D01*
D02*
G37*
G36*
X021278Y027469D02*
X021222D01*
X021172Y027447D01*
X021133Y027408D01*
X021111Y027358D01*
Y027302D01*
X021133Y027252D01*
X021148Y027236D01*
Y027105D01*
X019702Y025659D01*
X019660Y025684D01*
X019561Y025710D01*
X019459D01*
X019361Y025684D01*
X019272Y025633D01*
X019200Y025561D01*
X019149Y025472D01*
X019123Y025374D01*
Y025272D01*
X019149Y025173D01*
X019200Y025085D01*
X019272Y025013D01*
X019361Y024962D01*
X019459Y024935D01*
X019561D01*
X019660Y024962D01*
X019748Y025013D01*
X019820Y025085D01*
X019871Y025173D01*
X019898Y025272D01*
Y025374D01*
X019871Y025472D01*
X019847Y025515D01*
X021322Y026990D01*
X021344Y027024D01*
X021352Y027063D01*
Y027236D01*
X021367Y027252D01*
X021389Y027302D01*
Y027358D01*
X021367Y027408D01*
X021328Y027447D01*
X021278Y027469D01*
D02*
G37*
G36*
X045757Y026058D02*
X045702D01*
X045651Y026037D01*
X045612Y025998D01*
X045591Y025947D01*
Y025892D01*
X045612Y025841D01*
X045651Y025802D01*
X045702Y025781D01*
X045757D01*
X045797Y025797D01*
X045830Y025774D01*
X045838Y025764D01*
X045826Y025736D01*
Y025681D01*
X045847Y025630D01*
X045886Y025591D01*
X045937Y025570D01*
X045992D01*
X046043Y025591D01*
X046082Y025630D01*
X046103Y025681D01*
Y025736D01*
X046082Y025787D01*
X046043Y025826D01*
X045992Y025847D01*
X045937D01*
X045897Y025831D01*
X045864Y025855D01*
X045857Y025864D01*
X045868Y025892D01*
Y025947D01*
X045847Y025998D01*
X045808Y026037D01*
X045757Y026058D01*
D02*
G37*
G36*
X046499Y025832D02*
X046444D01*
X046393Y025811D01*
X046354Y025772D01*
X046333Y025721D01*
Y025666D01*
X046354Y025615D01*
X046393Y025576D01*
X046444Y025555D01*
X046499D01*
X046550Y025576D01*
X046589Y025615D01*
X046610Y025666D01*
Y025721D01*
X046589Y025772D01*
X046550Y025811D01*
X046499Y025832D01*
D02*
G37*
G36*
X045493D02*
X045438D01*
X045387Y025811D01*
X045348Y025772D01*
X045327Y025721D01*
Y025666D01*
X045348Y025615D01*
X045387Y025576D01*
X045438Y025555D01*
X045493D01*
X045544Y025576D01*
X045583Y025615D01*
X045604Y025666D01*
Y025721D01*
X045583Y025772D01*
X045544Y025811D01*
X045493Y025832D01*
D02*
G37*
G36*
X050126Y025808D02*
X050071D01*
X050020Y025787D01*
X049981Y025748D01*
X049960Y025697D01*
Y025642D01*
X049981Y025591D01*
X050020Y025552D01*
X050071Y025531D01*
X050126D01*
X050177Y025552D01*
X050216Y025591D01*
X050237Y025642D01*
Y025697D01*
X050216Y025748D01*
X050177Y025787D01*
X050126Y025808D01*
D02*
G37*
G36*
X049614D02*
X049559D01*
X049508Y025787D01*
X049469Y025748D01*
X049448Y025697D01*
Y025642D01*
X049469Y025591D01*
X049508Y025552D01*
X049559Y025531D01*
X049614D01*
X049665Y025552D01*
X049704Y025591D01*
X049725Y025642D01*
Y025697D01*
X049704Y025748D01*
X049665Y025787D01*
X049614Y025808D01*
D02*
G37*
G36*
X045729Y025577D02*
X045674D01*
X045623Y025556D01*
X045584Y025517D01*
X045563Y025466D01*
Y025411D01*
X045579Y025372D01*
X045537Y025343D01*
X045535Y025345D01*
X045484Y025367D01*
X045429D01*
X045378Y025345D01*
X045339Y025306D01*
X045318Y025255D01*
Y025200D01*
X045339Y025149D01*
X045378Y025110D01*
X045429Y025089D01*
X045484D01*
X045499Y025096D01*
X045537Y025057D01*
X045528Y025035D01*
Y024980D01*
X045549Y024929D01*
X045588Y024890D01*
X045639Y024869D01*
X045694D01*
X045745Y024890D01*
X045784Y024929D01*
X045805Y024980D01*
Y025035D01*
X045784Y025086D01*
X045745Y025125D01*
X045694Y025146D01*
X045639D01*
X045624Y025140D01*
X045586Y025178D01*
X045595Y025200D01*
Y025255D01*
X045579Y025295D01*
X045621Y025323D01*
X045623Y025321D01*
X045674Y025300D01*
X045729D01*
X045780Y025321D01*
X045819Y025360D01*
X045840Y025411D01*
Y025466D01*
X045819Y025517D01*
X045780Y025556D01*
X045729Y025577D01*
D02*
G37*
G36*
X046238Y025587D02*
X046183D01*
X046132Y025565D01*
X046093Y025526D01*
X046072Y025476D01*
Y025420D01*
X046093Y025369D01*
X046132Y025330D01*
X046183Y025309D01*
X046238D01*
X046289Y025330D01*
X046328Y025369D01*
X046349Y025420D01*
Y025476D01*
X046328Y025526D01*
X046289Y025565D01*
X046238Y025587D01*
D02*
G37*
G36*
X050382Y025572D02*
X050327D01*
X050276Y025551D01*
X050237Y025512D01*
X050216Y025461D01*
Y025405D01*
X050237Y025355D01*
X050276Y025316D01*
X050327Y025294D01*
X050382D01*
X050433Y025316D01*
X050472Y025355D01*
X050493Y025405D01*
Y025461D01*
X050472Y025512D01*
X050433Y025551D01*
X050382Y025572D01*
D02*
G37*
G36*
X049870D02*
X049815D01*
X049764Y025551D01*
X049725Y025512D01*
X049704Y025461D01*
Y025405D01*
X049725Y025355D01*
X049764Y025316D01*
X049815Y025294D01*
X049870D01*
X049921Y025316D01*
X049960Y025355D01*
X049981Y025405D01*
Y025461D01*
X049960Y025512D01*
X049921Y025551D01*
X049870Y025572D01*
D02*
G37*
G36*
X045990Y025370D02*
X045935D01*
X045884Y025349D01*
X045845Y025310D01*
X045824Y025259D01*
Y025203D01*
X045845Y025153D01*
X045884Y025114D01*
X045935Y025092D01*
X045990D01*
X046041Y025114D01*
X046080Y025153D01*
X046101Y025203D01*
Y025259D01*
X046080Y025310D01*
X046041Y025349D01*
X045990Y025370D01*
D02*
G37*
G36*
X046512Y025367D02*
X046457D01*
X046406Y025345D01*
X046367Y025306D01*
X046346Y025255D01*
Y025200D01*
X046367Y025149D01*
X046406Y025110D01*
X046457Y025089D01*
X046512D01*
X046563Y025110D01*
X046602Y025149D01*
X046623Y025200D01*
Y025255D01*
X046602Y025306D01*
X046563Y025345D01*
X046512Y025367D01*
D02*
G37*
G36*
X024314Y025335D02*
X024259D01*
X024208Y025314D01*
X024169Y025275D01*
X024148Y025224D01*
Y025169D01*
X024169Y025118D01*
X024208Y025079D01*
X024259Y025058D01*
X024314D01*
X024365Y025079D01*
X024404Y025118D01*
X024425Y025169D01*
Y025224D01*
X024404Y025275D01*
X024365Y025314D01*
X024314Y025335D01*
D02*
G37*
G36*
X023571D02*
X023516D01*
X023465Y025314D01*
X023426Y025275D01*
X023405Y025224D01*
Y025169D01*
X023426Y025118D01*
X023465Y025079D01*
X023516Y025058D01*
X023571D01*
X023622Y025079D01*
X023661Y025118D01*
X023682Y025169D01*
Y025224D01*
X023661Y025275D01*
X023622Y025314D01*
X023571Y025335D01*
D02*
G37*
G36*
X031235Y025328D02*
X031180D01*
X031129Y025307D01*
X031090Y025268D01*
X031069Y025217D01*
Y025162D01*
X031090Y025111D01*
X031129Y025072D01*
X031180Y025051D01*
X031235D01*
X031286Y025072D01*
X031325Y025111D01*
X031346Y025162D01*
Y025217D01*
X031325Y025268D01*
X031286Y025307D01*
X031235Y025328D01*
D02*
G37*
G36*
X030251Y025289D02*
X030196D01*
X030145Y025268D01*
X030106Y025229D01*
X030085Y025178D01*
Y025123D01*
X030106Y025072D01*
X030145Y025033D01*
X030196Y025012D01*
X030251D01*
X030302Y025033D01*
X030341Y025072D01*
X030362Y025123D01*
Y025178D01*
X030341Y025229D01*
X030302Y025268D01*
X030251Y025289D01*
D02*
G37*
G36*
X049485Y025251D02*
X049430D01*
X049379Y025230D01*
X049340Y025191D01*
X049319Y025140D01*
Y025085D01*
X049340Y025034D01*
X049379Y024995D01*
X049430Y024974D01*
X049485D01*
X049536Y024995D01*
X049575Y025034D01*
X049596Y025085D01*
Y025140D01*
X049575Y025191D01*
X049536Y025230D01*
X049485Y025251D01*
D02*
G37*
G36*
X050086Y025244D02*
X050031D01*
X049980Y025223D01*
X049941Y025184D01*
X049920Y025133D01*
Y025078D01*
X049941Y025027D01*
X049980Y024988D01*
X050031Y024967D01*
X050086D01*
X050137Y024988D01*
X050176Y025027D01*
X050197Y025078D01*
Y025133D01*
X050176Y025184D01*
X050137Y025223D01*
X050086Y025244D01*
D02*
G37*
G36*
X030938Y024969D02*
X030882D01*
X030831Y024947D01*
X030793Y024908D01*
X030771Y024858D01*
Y024836D01*
X030750Y024814D01*
X030284D01*
X030268Y024830D01*
X030217Y024851D01*
X030162D01*
X030111Y024830D01*
X030096Y024814D01*
X029493D01*
X029453Y024807D01*
X029420Y024785D01*
X029360Y024724D01*
X029338D01*
X029287Y024703D01*
X029248Y024664D01*
X029227Y024613D01*
Y024558D01*
X029243Y024517D01*
X029232Y024476D01*
X029224Y024460D01*
X029208Y024456D01*
X029178Y024469D01*
X029122D01*
X029072Y024447D01*
X029033Y024409D01*
X029011Y024358D01*
Y024302D01*
X029033Y024251D01*
X029072Y024213D01*
X029122Y024191D01*
X029178D01*
X029228Y024213D01*
X029244Y024228D01*
X030791D01*
X030830Y024236D01*
X030864Y024258D01*
X031180Y024574D01*
X031202D01*
X031252Y024595D01*
X031291Y024634D01*
X031313Y024685D01*
Y024740D01*
X031291Y024791D01*
X031252Y024830D01*
X031202Y024851D01*
X031146D01*
X031095Y024830D01*
X031049Y024854D01*
Y024858D01*
X031027Y024908D01*
X030989Y024947D01*
X030938Y024969D01*
D02*
G37*
G36*
X019776Y024823D02*
X019644D01*
X019517Y024789D01*
X019403Y024723D01*
X019310Y024630D01*
X019217Y024723D01*
X019103Y024789D01*
X018976Y024823D01*
X018844D01*
X018717Y024789D01*
X018603Y024723D01*
X018510Y024630D01*
X018444Y024516D01*
X018410Y024389D01*
Y024257D01*
X018444Y024130D01*
X018510Y024016D01*
X018603Y023923D01*
X018717Y023857D01*
X018844Y023823D01*
X018976D01*
X019103Y023857D01*
X019217Y023923D01*
X019310Y024016D01*
X019403Y023923D01*
X019517Y023857D01*
X019644Y023823D01*
X019776D01*
X019903Y023857D01*
X020017Y023923D01*
X020110Y024016D01*
X020168Y024116D01*
X020222Y024122D01*
X020230Y024108D01*
X020295Y024043D01*
X020375Y023997D01*
X020464Y023973D01*
X020469D01*
Y023719D01*
X020460Y023673D01*
X020419Y023673D01*
X019760D01*
Y023640D01*
X019723Y023630D01*
X019710Y023630D01*
X019617Y023723D01*
X019503Y023789D01*
X019376Y023823D01*
X019244D01*
X019117Y023789D01*
X019003Y023723D01*
X018910Y023630D01*
X018817Y023723D01*
X018703Y023789D01*
X018576Y023823D01*
X018444D01*
X018317Y023789D01*
X018203Y023723D01*
X018110Y023630D01*
X018017Y023723D01*
X017903Y023789D01*
X017776Y023823D01*
X017644D01*
X017517Y023789D01*
X017403Y023723D01*
X017310Y023630D01*
X017217Y023723D01*
X017103Y023789D01*
X016976Y023823D01*
X016844D01*
X016717Y023789D01*
X016603Y023723D01*
X016510Y023630D01*
X016452Y023530D01*
X016399Y023523D01*
X016390Y023538D01*
X016325Y023603D01*
X016245Y023649D01*
X016156Y023673D01*
X016064D01*
X015975Y023649D01*
X015895Y023603D01*
X015830Y023538D01*
X015784Y023458D01*
X015760Y023369D01*
Y023277D01*
X015784Y023188D01*
X015830Y023108D01*
X015895Y023043D01*
X015975Y022997D01*
X016064Y022973D01*
X016156D01*
X016245Y022997D01*
X016325Y023043D01*
X016390Y023108D01*
X016399Y023122D01*
X016452Y023116D01*
X016510Y023016D01*
X016603Y022923D01*
X016717Y022857D01*
X016844Y022823D01*
X016976D01*
X017103Y022857D01*
X017217Y022923D01*
X017310Y023016D01*
X017403Y022923D01*
X017517Y022857D01*
X017644Y022823D01*
X017776D01*
X017903Y022857D01*
X018017Y022923D01*
X018110Y023016D01*
X018203Y022923D01*
X018317Y022857D01*
X018444Y022823D01*
X018576D01*
X018703Y022857D01*
X018817Y022923D01*
X018910Y023016D01*
X019003Y022923D01*
X019117Y022857D01*
X019244Y022823D01*
X019376D01*
X019503Y022857D01*
X019617Y022923D01*
X019710Y023016D01*
X019723Y023016D01*
X019760Y023006D01*
Y022973D01*
X020008D01*
Y022311D01*
X020016Y022272D01*
X020038Y022239D01*
X020991Y021286D01*
X021024Y021264D01*
X021063Y021256D01*
X021761D01*
X021777Y021241D01*
X021828Y021220D01*
X021883D01*
X021934Y021241D01*
X021973Y021280D01*
X021994Y021331D01*
Y021386D01*
X021973Y021437D01*
X021934Y021476D01*
X021883Y021497D01*
X021828D01*
X021777Y021476D01*
X021761Y021460D01*
X021105D01*
X020212Y022353D01*
Y022973D01*
X020460Y022973D01*
X020469Y022926D01*
Y022441D01*
X020477Y022402D01*
X020499Y022369D01*
X021089Y021778D01*
X021122Y021756D01*
X021161Y021748D01*
X021761D01*
X021777Y021733D01*
X021828Y021712D01*
X021883D01*
X021934Y021733D01*
X021973Y021772D01*
X021994Y021823D01*
Y021878D01*
X021973Y021929D01*
X021934Y021968D01*
X021883Y021989D01*
X021828D01*
X021777Y021968D01*
X021761Y021952D01*
X021204D01*
X020673Y022483D01*
Y024013D01*
X020725Y024043D01*
X020790Y024108D01*
X020836Y024188D01*
X020860Y024277D01*
Y024369D01*
X020836Y024458D01*
X020790Y024538D01*
X020725Y024603D01*
X020645Y024649D01*
X020556Y024673D01*
X020464D01*
X020375Y024649D01*
X020295Y024603D01*
X020230Y024538D01*
X020222Y024523D01*
X020168Y024530D01*
X020110Y024630D01*
X020017Y024723D01*
X019903Y024789D01*
X019776Y024823D01*
D02*
G37*
G36*
X045984Y024864D02*
X045928D01*
X045878Y024842D01*
X045839Y024803D01*
X045817Y024753D01*
Y024697D01*
X045839Y024646D01*
X045878Y024607D01*
X045928Y024586D01*
X045984D01*
X046035Y024607D01*
X046074Y024646D01*
X046095Y024697D01*
Y024753D01*
X046074Y024803D01*
X046035Y024842D01*
X045984Y024864D01*
D02*
G37*
G36*
X045362Y024863D02*
X045307D01*
X045256Y024842D01*
X045217Y024803D01*
X045196Y024752D01*
Y024697D01*
X045217Y024646D01*
X045256Y024607D01*
X045307Y024586D01*
X045362D01*
X045413Y024607D01*
X045452Y024646D01*
X045473Y024697D01*
Y024752D01*
X045452Y024803D01*
X045413Y024842D01*
X045362Y024863D01*
D02*
G37*
G36*
X044811Y024843D02*
X044756D01*
X044705Y024822D01*
X044666Y024783D01*
X044645Y024732D01*
Y024677D01*
X044666Y024626D01*
X044705Y024587D01*
X044756Y024566D01*
X044811D01*
X044862Y024587D01*
X044901Y024626D01*
X044922Y024677D01*
Y024732D01*
X044901Y024783D01*
X044862Y024822D01*
X044811Y024843D01*
D02*
G37*
G36*
X049522Y024843D02*
X049467D01*
X049416Y024822D01*
X049377Y024783D01*
X049356Y024732D01*
Y024677D01*
X049377Y024626D01*
X049416Y024587D01*
X049467Y024566D01*
X049522D01*
X049573Y024587D01*
X049612Y024626D01*
X049633Y024677D01*
Y024732D01*
X049612Y024783D01*
X049573Y024822D01*
X049522Y024843D01*
D02*
G37*
G36*
X048916Y024835D02*
X048861D01*
X048810Y024814D01*
X048771Y024775D01*
X048750Y024724D01*
Y024668D01*
X048771Y024618D01*
X048810Y024579D01*
X048861Y024557D01*
X048916D01*
X048967Y024579D01*
X049006Y024618D01*
X049027Y024668D01*
Y024724D01*
X049006Y024775D01*
X048967Y024814D01*
X048916Y024835D01*
D02*
G37*
G36*
X044505Y024629D02*
X044450D01*
X044399Y024608D01*
X044360Y024569D01*
X044339Y024518D01*
Y024462D01*
X044360Y024412D01*
X044399Y024373D01*
X044450Y024351D01*
X044505D01*
X044556Y024373D01*
X044595Y024412D01*
X044616Y024462D01*
Y024518D01*
X044595Y024569D01*
X044556Y024608D01*
X044505Y024629D01*
D02*
G37*
G36*
X049831Y024627D02*
X049776D01*
X049725Y024606D01*
X049686Y024567D01*
X049665Y024516D01*
Y024461D01*
X049686Y024410D01*
X049725Y024371D01*
X049776Y024350D01*
X049831D01*
X049882Y024371D01*
X049921Y024410D01*
X049942Y024461D01*
Y024516D01*
X049921Y024567D01*
X049882Y024606D01*
X049831Y024627D01*
D02*
G37*
G36*
X049240Y024607D02*
X049185D01*
X049134Y024586D01*
X049095Y024547D01*
X049074Y024496D01*
Y024441D01*
X049095Y024390D01*
X049134Y024351D01*
X049185Y024330D01*
X049240D01*
X049291Y024351D01*
X049330Y024390D01*
X049351Y024441D01*
Y024496D01*
X049330Y024547D01*
X049291Y024586D01*
X049240Y024607D01*
D02*
G37*
G36*
X048650D02*
X048594D01*
X048544Y024586D01*
X048505Y024547D01*
X048483Y024496D01*
Y024441D01*
X048505Y024390D01*
X048544Y024351D01*
X048594Y024330D01*
X048650D01*
X048701Y024351D01*
X048740Y024390D01*
X048761Y024441D01*
Y024496D01*
X048740Y024547D01*
X048701Y024586D01*
X048650Y024607D01*
D02*
G37*
G36*
X045697D02*
X045642D01*
X045591Y024586D01*
X045552Y024547D01*
X045531Y024496D01*
Y024441D01*
X045552Y024390D01*
X045591Y024351D01*
X045642Y024330D01*
X045697D01*
X045748Y024351D01*
X045787Y024390D01*
X045808Y024441D01*
Y024496D01*
X045787Y024547D01*
X045748Y024586D01*
X045697Y024607D01*
D02*
G37*
G36*
X045106D02*
X045051D01*
X045000Y024586D01*
X044961Y024547D01*
X044940Y024496D01*
Y024441D01*
X044961Y024390D01*
X045000Y024351D01*
X045051Y024330D01*
X045106D01*
X045157Y024351D01*
X045196Y024390D01*
X045217Y024441D01*
Y024496D01*
X045196Y024547D01*
X045157Y024586D01*
X045106Y024607D01*
D02*
G37*
G36*
X035500Y024391D02*
X035445D01*
X035394Y024369D01*
X035355Y024330D01*
X035334Y024280D01*
Y024224D01*
X035355Y024173D01*
X035394Y024134D01*
X035445Y024113D01*
X035500D01*
X035551Y024134D01*
X035590Y024173D01*
X035611Y024224D01*
Y024280D01*
X035590Y024330D01*
X035551Y024369D01*
X035500Y024391D01*
D02*
G37*
G36*
X044082Y024386D02*
X044027D01*
X043976Y024365D01*
X043937Y024326D01*
X043916Y024275D01*
Y024220D01*
X043937Y024169D01*
X043976Y024130D01*
X044027Y024109D01*
X044082D01*
X044133Y024130D01*
X044172Y024169D01*
X044193Y024220D01*
Y024275D01*
X044172Y024326D01*
X044133Y024365D01*
X044082Y024386D01*
D02*
G37*
G36*
X048257Y024362D02*
X048202D01*
X048151Y024341D01*
X048112Y024302D01*
X048091Y024251D01*
Y024196D01*
X048112Y024145D01*
X048151Y024106D01*
X048202Y024085D01*
X048257D01*
X048308Y024106D01*
X048347Y024145D01*
X048368Y024196D01*
Y024251D01*
X048347Y024302D01*
X048308Y024341D01*
X048257Y024362D01*
D02*
G37*
G36*
X045409Y024353D02*
X045354D01*
X045303Y024331D01*
X045264Y024292D01*
X045243Y024242D01*
Y024186D01*
X045264Y024135D01*
X045303Y024096D01*
X045354Y024075D01*
X045409D01*
X045460Y024096D01*
X045499Y024135D01*
X045520Y024186D01*
Y024242D01*
X045499Y024292D01*
X045460Y024331D01*
X045409Y024353D01*
D02*
G37*
G36*
X044815D02*
X044759D01*
X044709Y024331D01*
X044670Y024292D01*
X044648Y024242D01*
Y024186D01*
X044670Y024135D01*
X044709Y024096D01*
X044759Y024075D01*
X044815D01*
X044866Y024096D01*
X044905Y024135D01*
X044926Y024186D01*
Y024242D01*
X044905Y024292D01*
X044866Y024331D01*
X044815Y024353D01*
D02*
G37*
G36*
X048906Y024351D02*
X048850D01*
X048799Y024330D01*
X048760Y024291D01*
X048739Y024240D01*
Y024185D01*
X048760Y024134D01*
X048799Y024095D01*
X048850Y024074D01*
X048906D01*
X048956Y024095D01*
X048995Y024134D01*
X049017Y024185D01*
Y024240D01*
X048995Y024291D01*
X048956Y024330D01*
X048906Y024351D01*
D02*
G37*
G36*
X045980Y024351D02*
X045925D01*
X045874Y024330D01*
X045835Y024291D01*
X045814Y024240D01*
Y024185D01*
X045835Y024134D01*
X045874Y024095D01*
X045925Y024074D01*
X045980D01*
X046031Y024095D01*
X046070Y024134D01*
X046091Y024185D01*
Y024240D01*
X046070Y024291D01*
X046031Y024330D01*
X045980Y024351D01*
D02*
G37*
G36*
X049527Y024343D02*
X049472D01*
X049421Y024322D01*
X049382Y024283D01*
X049361Y024232D01*
Y024177D01*
X049382Y024126D01*
X049421Y024087D01*
X049472Y024066D01*
X049527D01*
X049578Y024087D01*
X049617Y024126D01*
X049638Y024177D01*
Y024232D01*
X049617Y024283D01*
X049578Y024322D01*
X049527Y024343D01*
D02*
G37*
G36*
X043231Y024261D02*
X043176D01*
X043125Y024240D01*
X043086Y024201D01*
X043065Y024150D01*
Y024095D01*
X043086Y024044D01*
X043125Y024005D01*
X043176Y023984D01*
X043231D01*
X043282Y024005D01*
X043321Y024044D01*
X043343Y024095D01*
Y024150D01*
X043321Y024201D01*
X043282Y024240D01*
X043231Y024261D01*
D02*
G37*
G36*
X014468Y027027D02*
X014371Y027007D01*
X014288Y026952D01*
X013311Y025975D01*
X013256Y025892D01*
X013237Y025795D01*
Y024225D01*
X013256Y024128D01*
X013311Y024045D01*
X013394Y023990D01*
X013491Y023970D01*
X013589Y023990D01*
X013672Y024045D01*
X013727Y024128D01*
X013746Y024225D01*
Y025689D01*
X014649Y026591D01*
X014704Y026674D01*
X014723Y026772D01*
X014704Y026869D01*
X014649Y026952D01*
X014566Y027007D01*
X014468Y027027D01*
D02*
G37*
G36*
X045679Y024110D02*
X045623D01*
X045573Y024089D01*
X045534Y024050D01*
X045512Y023999D01*
Y023944D01*
X045534Y023893D01*
X045573Y023854D01*
X045623Y023833D01*
X045679D01*
X045730Y023854D01*
X045769Y023893D01*
X045790Y023944D01*
Y023999D01*
X045769Y024050D01*
X045730Y024089D01*
X045679Y024110D01*
D02*
G37*
G36*
X049831Y024095D02*
X049776D01*
X049725Y024074D01*
X049686Y024035D01*
X049665Y023984D01*
Y023929D01*
X049686Y023878D01*
X049725Y023839D01*
X049776Y023818D01*
X049831D01*
X049882Y023839D01*
X049921Y023878D01*
X049942Y023929D01*
Y023984D01*
X049921Y024035D01*
X049882Y024074D01*
X049831Y024095D01*
D02*
G37*
G36*
X045106D02*
X045051D01*
X045000Y024074D01*
X044961Y024035D01*
X044940Y023984D01*
Y023929D01*
X044961Y023878D01*
X045000Y023839D01*
X045051Y023818D01*
X045106D01*
X045157Y023839D01*
X045196Y023878D01*
X045217Y023929D01*
Y023984D01*
X045196Y024035D01*
X045157Y024074D01*
X045106Y024095D01*
D02*
G37*
G36*
X049240Y024076D02*
X049185D01*
X049134Y024054D01*
X049095Y024016D01*
X049074Y023965D01*
Y023909D01*
X049095Y023859D01*
X049134Y023820D01*
X049185Y023798D01*
X049240D01*
X049291Y023820D01*
X049330Y023859D01*
X049351Y023909D01*
Y023965D01*
X049330Y024016D01*
X049291Y024054D01*
X049240Y024076D01*
D02*
G37*
G36*
X048650D02*
X048594D01*
X048544Y024054D01*
X048505Y024016D01*
X048483Y023965D01*
Y023909D01*
X048505Y023859D01*
X048544Y023820D01*
X048594Y023798D01*
X048650D01*
X048701Y023820D01*
X048740Y023859D01*
X048761Y023909D01*
Y023965D01*
X048740Y024016D01*
X048701Y024054D01*
X048650Y024076D01*
D02*
G37*
G36*
X043701Y024075D02*
X043646D01*
X043595Y024053D01*
X043556Y024014D01*
X043535Y023964D01*
Y023908D01*
X043556Y023857D01*
X043595Y023818D01*
X043646Y023797D01*
X043701D01*
X043752Y023818D01*
X043791Y023857D01*
X043813Y023908D01*
Y023964D01*
X043791Y024014D01*
X043752Y024053D01*
X043701Y024075D01*
D02*
G37*
G36*
X044516Y024056D02*
X044461D01*
X044410Y024035D01*
X044371Y023996D01*
X044350Y023945D01*
Y023890D01*
X044371Y023839D01*
X044410Y023800D01*
X044461Y023779D01*
X044516D01*
X044567Y023800D01*
X044606Y023839D01*
X044627Y023890D01*
Y023945D01*
X044606Y023996D01*
X044567Y024035D01*
X044516Y024056D01*
D02*
G37*
G36*
X031243Y024019D02*
X031184D01*
X031129Y023997D01*
X031087Y023955D01*
X031065Y023900D01*
Y023841D01*
X031087Y023787D01*
X031129Y023745D01*
X031184Y023722D01*
X031243D01*
X031297Y023745D01*
X031339Y023787D01*
X031362Y023841D01*
Y023900D01*
X031339Y023955D01*
X031297Y023997D01*
X031243Y024019D01*
D02*
G37*
G36*
X030810D02*
X030751D01*
X030696Y023997D01*
X030654Y023955D01*
X030632Y023900D01*
Y023841D01*
X030654Y023787D01*
X030696Y023745D01*
X030751Y023722D01*
X030810D01*
X030864Y023745D01*
X030906Y023787D01*
X030929Y023841D01*
Y023900D01*
X030906Y023955D01*
X030864Y023997D01*
X030810Y024019D01*
D02*
G37*
G36*
X030377D02*
X030318D01*
X030263Y023997D01*
X030221Y023955D01*
X030199Y023900D01*
Y023841D01*
X030221Y023787D01*
X030263Y023745D01*
X030318Y023722D01*
X030377D01*
X030431Y023745D01*
X030473Y023787D01*
X030496Y023841D01*
Y023900D01*
X030473Y023955D01*
X030431Y023997D01*
X030377Y024019D01*
D02*
G37*
G36*
X024297Y023859D02*
X024242D01*
X024191Y023838D01*
X024152Y023799D01*
X024131Y023748D01*
Y023693D01*
X024152Y023642D01*
X024191Y023603D01*
X024242Y023582D01*
X024297D01*
X024348Y023603D01*
X024387Y023642D01*
X024408Y023693D01*
Y023748D01*
X024387Y023799D01*
X024348Y023838D01*
X024297Y023859D01*
D02*
G37*
G36*
X023508D02*
X023453D01*
X023402Y023838D01*
X023363Y023799D01*
X023342Y023748D01*
Y023693D01*
X023363Y023642D01*
X023402Y023603D01*
X023453Y023582D01*
X023508D01*
X023559Y023603D01*
X023598Y023642D01*
X023619Y023693D01*
Y023748D01*
X023598Y023799D01*
X023559Y023838D01*
X023508Y023859D01*
D02*
G37*
G36*
X044811Y023859D02*
X044756D01*
X044705Y023838D01*
X044666Y023799D01*
X044645Y023748D01*
Y023693D01*
X044666Y023642D01*
X044705Y023603D01*
X044756Y023582D01*
X044811D01*
X044862Y023603D01*
X044901Y023642D01*
X044922Y023693D01*
Y023748D01*
X044901Y023799D01*
X044862Y023838D01*
X044811Y023859D01*
D02*
G37*
G36*
X049527Y023841D02*
X049472D01*
X049421Y023820D01*
X049382Y023781D01*
X049361Y023730D01*
Y023674D01*
X049382Y023624D01*
X049421Y023585D01*
X049472Y023563D01*
X049527D01*
X049578Y023585D01*
X049617Y023624D01*
X049638Y023674D01*
Y023730D01*
X049617Y023781D01*
X049578Y023820D01*
X049527Y023841D01*
D02*
G37*
G36*
X045383Y023839D02*
X045328D01*
X045277Y023818D01*
X045238Y023779D01*
X045217Y023728D01*
Y023673D01*
X045238Y023622D01*
X045277Y023583D01*
X045328Y023562D01*
X045383D01*
X045434Y023583D01*
X045473Y023622D01*
X045494Y023673D01*
Y023728D01*
X045473Y023779D01*
X045434Y023818D01*
X045383Y023839D01*
D02*
G37*
G36*
X048906Y023839D02*
X048850D01*
X048799Y023818D01*
X048760Y023779D01*
X048739Y023728D01*
Y023673D01*
X048760Y023622D01*
X048799Y023583D01*
X048850Y023562D01*
X048906D01*
X048956Y023583D01*
X048995Y023622D01*
X049017Y023673D01*
Y023728D01*
X048995Y023779D01*
X048956Y023818D01*
X048906Y023839D01*
D02*
G37*
G36*
X044104Y024049D02*
X044049D01*
X043998Y024028D01*
X043959Y023989D01*
X043938Y023938D01*
Y023883D01*
X043959Y023832D01*
X043964Y023827D01*
X043981Y023772D01*
X043973Y023753D01*
X043960Y023721D01*
Y023666D01*
X043981Y023615D01*
X044020Y023576D01*
X044071Y023555D01*
X044126D01*
X044177Y023576D01*
X044216Y023615D01*
X044237Y023666D01*
Y023721D01*
X044216Y023772D01*
X044210Y023778D01*
X044194Y023832D01*
X044202Y023852D01*
X044215Y023883D01*
Y023938D01*
X044194Y023989D01*
X044155Y024028D01*
X044104Y024049D01*
D02*
G37*
G36*
X050213Y023806D02*
X050158D01*
X050107Y023785D01*
X050068Y023746D01*
X050047Y023695D01*
Y023640D01*
X050068Y023589D01*
X050107Y023550D01*
X050158Y023529D01*
X050213D01*
X050264Y023550D01*
X050303Y023589D01*
X050324Y023640D01*
Y023695D01*
X050303Y023746D01*
X050264Y023785D01*
X050213Y023806D01*
D02*
G37*
G36*
X045965Y023704D02*
X045910D01*
X045859Y023683D01*
X045820Y023644D01*
X045799Y023593D01*
Y023537D01*
X045820Y023487D01*
X045859Y023448D01*
X045910Y023426D01*
X045965D01*
X046016Y023448D01*
X046055Y023487D01*
X046076Y023537D01*
Y023593D01*
X046055Y023644D01*
X046016Y023683D01*
X045965Y023704D01*
D02*
G37*
G36*
X033079Y023643D02*
X033024D01*
X032973Y023621D01*
X032934Y023582D01*
X032913Y023531D01*
Y023476D01*
X032934Y023425D01*
X032973Y023386D01*
X033024Y023365D01*
X033079D01*
X033130Y023386D01*
X033169Y023425D01*
X033190Y023476D01*
Y023531D01*
X033169Y023582D01*
X033130Y023621D01*
X033079Y023643D01*
D02*
G37*
G36*
X027928Y030639D02*
X027872D01*
X027822Y030617D01*
X027783Y030578D01*
X027761Y030528D01*
Y030472D01*
X027783Y030422D01*
X027798Y030406D01*
Y027116D01*
X027782Y027100D01*
X027760Y027067D01*
X027752Y027028D01*
Y023622D01*
X027760Y023583D01*
X027782Y023550D01*
X028557Y022775D01*
X028590Y022753D01*
X028629Y022745D01*
X029151D01*
X029166Y022730D01*
X029217Y022709D01*
X029272D01*
X029323Y022730D01*
X029362Y022769D01*
X029383Y022820D01*
Y022875D01*
X029362Y022926D01*
X029323Y022965D01*
X029272Y022986D01*
X029217D01*
X029166Y022965D01*
X029151Y022949D01*
X028671D01*
X028346Y023275D01*
X028374Y023317D01*
X028412Y023301D01*
X028468D01*
X028519Y023323D01*
X028557Y023361D01*
X028579Y023412D01*
Y023468D01*
X028557Y023519D01*
X028519Y023557D01*
X028468Y023579D01*
X028412D01*
X028361Y023557D01*
X028323Y023519D01*
X028301Y023468D01*
Y023412D01*
X028317Y023374D01*
X028275Y023346D01*
X027956Y023664D01*
Y026986D01*
X027972Y027001D01*
X027994Y027034D01*
X028002Y027073D01*
Y030406D01*
X028017Y030422D01*
X028039Y030472D01*
Y030528D01*
X028017Y030578D01*
X027978Y030617D01*
X027928Y030639D01*
D02*
G37*
G36*
X031243Y023586D02*
X031184D01*
X031129Y023564D01*
X031087Y023522D01*
X031065Y023467D01*
Y023408D01*
X031087Y023354D01*
X031129Y023312D01*
X031184Y023289D01*
X031243D01*
X031297Y023312D01*
X031339Y023354D01*
X031362Y023408D01*
Y023467D01*
X031339Y023522D01*
X031297Y023564D01*
X031243Y023586D01*
D02*
G37*
G36*
X030810D02*
X030751D01*
X030696Y023564D01*
X030654Y023522D01*
X030632Y023467D01*
Y023408D01*
X030654Y023354D01*
X030696Y023312D01*
X030751Y023289D01*
X030810D01*
X030864Y023312D01*
X030906Y023354D01*
X030929Y023408D01*
Y023467D01*
X030906Y023522D01*
X030864Y023564D01*
X030810Y023586D01*
D02*
G37*
G36*
X030377D02*
X030318D01*
X030263Y023564D01*
X030221Y023522D01*
X030199Y023467D01*
Y023408D01*
X030221Y023354D01*
X030263Y023312D01*
X030318Y023289D01*
X030377D01*
X030431Y023312D01*
X030473Y023354D01*
X030496Y023408D01*
Y023467D01*
X030473Y023522D01*
X030431Y023564D01*
X030377Y023586D01*
D02*
G37*
G36*
X049871Y023515D02*
X049816D01*
X049765Y023494D01*
X049726Y023455D01*
X049705Y023404D01*
Y023349D01*
X049726Y023298D01*
X049765Y023259D01*
X049816Y023238D01*
X049871D01*
X049922Y023259D01*
X049961Y023298D01*
X049982Y023349D01*
Y023404D01*
X049961Y023455D01*
X049922Y023494D01*
X049871Y023515D01*
D02*
G37*
G36*
X049019Y023470D02*
X048964D01*
X048913Y023449D01*
X048874Y023410D01*
X048853Y023359D01*
Y023304D01*
X048874Y023253D01*
X048913Y023214D01*
X048964Y023193D01*
X049019D01*
X049070Y023214D01*
X049109Y023253D01*
X049130Y023304D01*
Y023359D01*
X049109Y023410D01*
X049070Y023449D01*
X049019Y023470D01*
D02*
G37*
G36*
X048408Y023466D02*
X048353D01*
X048302Y023445D01*
X048263Y023406D01*
X048242Y023355D01*
Y023300D01*
X048263Y023249D01*
X048302Y023210D01*
X048353Y023189D01*
X048408D01*
X048459Y023210D01*
X048498Y023249D01*
X048519Y023300D01*
Y023355D01*
X048498Y023406D01*
X048459Y023445D01*
X048408Y023466D01*
D02*
G37*
G36*
X044706Y023451D02*
X044651D01*
X044600Y023430D01*
X044561Y023391D01*
X044540Y023340D01*
Y023285D01*
X044561Y023234D01*
X044600Y023195D01*
X044651Y023174D01*
X044706D01*
X044757Y023195D01*
X044796Y023234D01*
X044817Y023285D01*
Y023340D01*
X044796Y023391D01*
X044757Y023430D01*
X044706Y023451D01*
D02*
G37*
G36*
X037022Y023449D02*
X036967D01*
X036916Y023427D01*
X036877Y023389D01*
X036856Y023338D01*
Y023282D01*
X036877Y023231D01*
X036916Y023193D01*
X036967Y023171D01*
X037022D01*
X037073Y023193D01*
X037112Y023231D01*
X037133Y023282D01*
Y023338D01*
X037112Y023389D01*
X037073Y023427D01*
X037022Y023449D01*
D02*
G37*
G36*
X044213Y023441D02*
X044157D01*
X044107Y023420D01*
X044068Y023381D01*
X044046Y023330D01*
Y023275D01*
X044068Y023224D01*
X044107Y023185D01*
X044157Y023164D01*
X044213D01*
X044264Y023185D01*
X044303Y023224D01*
X044324Y023275D01*
Y023330D01*
X044303Y023381D01*
X044264Y023420D01*
X044213Y023441D01*
D02*
G37*
G36*
X036183Y023439D02*
X036128D01*
X036077Y023417D01*
X036038Y023379D01*
X036017Y023328D01*
Y023272D01*
X036038Y023221D01*
X036077Y023183D01*
X036128Y023161D01*
X036183D01*
X036234Y023183D01*
X036273Y023221D01*
X036294Y023272D01*
Y023328D01*
X036273Y023379D01*
X036234Y023417D01*
X036183Y023439D01*
D02*
G37*
G36*
X043720Y023376D02*
X043664D01*
X043613Y023355D01*
X043574Y023316D01*
X043553Y023265D01*
Y023210D01*
X043574Y023159D01*
X043613Y023120D01*
X043664Y023099D01*
X043720D01*
X043770Y023120D01*
X043809Y023159D01*
X043831Y023210D01*
Y023265D01*
X043809Y023316D01*
X043770Y023355D01*
X043720Y023376D01*
D02*
G37*
G36*
X031243Y023153D02*
X031184D01*
X031129Y023131D01*
X031087Y023089D01*
X031065Y023034D01*
Y022975D01*
X031087Y022921D01*
X031129Y022879D01*
X031184Y022856D01*
X031243D01*
X031297Y022879D01*
X031339Y022921D01*
X031362Y022975D01*
Y023034D01*
X031339Y023089D01*
X031297Y023131D01*
X031243Y023153D01*
D02*
G37*
G36*
X030810D02*
X030751D01*
X030696Y023131D01*
X030654Y023089D01*
X030632Y023034D01*
Y022975D01*
X030654Y022921D01*
X030696Y022879D01*
X030751Y022856D01*
X030810D01*
X030864Y022879D01*
X030906Y022921D01*
X030929Y022975D01*
Y023034D01*
X030906Y023089D01*
X030864Y023131D01*
X030810Y023153D01*
D02*
G37*
G36*
X030377D02*
X030318D01*
X030263Y023131D01*
X030221Y023089D01*
X030199Y023034D01*
Y022975D01*
X030221Y022921D01*
X030263Y022879D01*
X030318Y022856D01*
X030377D01*
X030431Y022879D01*
X030473Y022921D01*
X030496Y022975D01*
Y023034D01*
X030473Y023089D01*
X030431Y023131D01*
X030377Y023153D01*
D02*
G37*
G36*
X043961Y023111D02*
X043906D01*
X043855Y023090D01*
X043816Y023051D01*
X043795Y023000D01*
Y022945D01*
X043816Y022894D01*
X043855Y022855D01*
X043906Y022834D01*
X043961D01*
X044012Y022855D01*
X044051Y022894D01*
X044072Y022945D01*
Y023000D01*
X044051Y023051D01*
X044012Y023090D01*
X043961Y023111D01*
D02*
G37*
G36*
X048610Y023111D02*
X048555D01*
X048504Y023090D01*
X048465Y023051D01*
X048444Y023000D01*
Y022945D01*
X048465Y022894D01*
X048504Y022855D01*
X048555Y022834D01*
X048610D01*
X048661Y022855D01*
X048700Y022894D01*
X048721Y022945D01*
Y023000D01*
X048700Y023051D01*
X048661Y023090D01*
X048610Y023111D01*
D02*
G37*
G36*
X048098D02*
X048043D01*
X047992Y023090D01*
X047953Y023051D01*
X047932Y023000D01*
Y022945D01*
X047953Y022894D01*
X047992Y022855D01*
X048043Y022834D01*
X048098D01*
X048149Y022855D01*
X048188Y022894D01*
X048209Y022945D01*
Y023000D01*
X048188Y023051D01*
X048149Y023090D01*
X048098Y023111D01*
D02*
G37*
G36*
X044489Y023104D02*
X044434D01*
X044383Y023083D01*
X044344Y023044D01*
X044323Y022993D01*
Y022938D01*
X044344Y022887D01*
X044383Y022848D01*
X044434Y022827D01*
X044489D01*
X044530Y022844D01*
X044560Y022823D01*
X044571Y022811D01*
X044556Y022775D01*
Y022719D01*
X044577Y022668D01*
X044616Y022629D01*
X044667Y022608D01*
X044722D01*
X044773Y022629D01*
X044812Y022668D01*
X044833Y022719D01*
Y022775D01*
X044812Y022825D01*
X044773Y022864D01*
X044722Y022886D01*
X044667D01*
X044626Y022868D01*
X044596Y022889D01*
X044585Y022902D01*
X044600Y022938D01*
Y022993D01*
X044579Y023044D01*
X044540Y023083D01*
X044489Y023104D01*
D02*
G37*
G36*
X043703Y022886D02*
X043648D01*
X043597Y022864D01*
X043558Y022825D01*
X043537Y022775D01*
Y022719D01*
X043558Y022668D01*
X043597Y022629D01*
X043648Y022608D01*
X043703D01*
X043754Y022629D01*
X043793Y022668D01*
X043814Y022719D01*
Y022775D01*
X043793Y022825D01*
X043754Y022864D01*
X043703Y022886D01*
D02*
G37*
G36*
X048866Y022855D02*
X048811D01*
X048760Y022834D01*
X048721Y022795D01*
X048700Y022744D01*
Y022689D01*
X048721Y022638D01*
X048760Y022599D01*
X048811Y022578D01*
X048866D01*
X048917Y022599D01*
X048956Y022638D01*
X048977Y022689D01*
Y022744D01*
X048956Y022795D01*
X048917Y022834D01*
X048866Y022855D01*
D02*
G37*
G36*
X048354D02*
X048299D01*
X048248Y022834D01*
X048209Y022795D01*
X048188Y022744D01*
Y022689D01*
X048209Y022638D01*
X048248Y022599D01*
X048299Y022578D01*
X048354D01*
X048405Y022599D01*
X048444Y022638D01*
X048465Y022689D01*
Y022744D01*
X048444Y022795D01*
X048405Y022834D01*
X048354Y022855D01*
D02*
G37*
G36*
X047843D02*
X047787D01*
X047736Y022834D01*
X047697Y022795D01*
X047676Y022744D01*
Y022689D01*
X047697Y022638D01*
X047736Y022599D01*
X047787Y022578D01*
X047843D01*
X047893Y022599D01*
X047932Y022638D01*
X047954Y022689D01*
Y022744D01*
X047932Y022795D01*
X047893Y022834D01*
X047843Y022855D01*
D02*
G37*
G36*
X042841Y022718D02*
X042786D01*
X042735Y022697D01*
X042696Y022658D01*
X042675Y022607D01*
Y022552D01*
X042696Y022501D01*
X042735Y022462D01*
X042786Y022441D01*
X042841D01*
X042892Y022462D01*
X042931Y022501D01*
X042952Y022552D01*
Y022607D01*
X042931Y022658D01*
X042892Y022697D01*
X042841Y022718D01*
D02*
G37*
G36*
X043961Y022639D02*
X043906D01*
X043855Y022618D01*
X043816Y022579D01*
X043795Y022528D01*
Y022473D01*
X043816Y022422D01*
X043855Y022383D01*
X043906Y022362D01*
X043961D01*
X044012Y022383D01*
X044051Y022422D01*
X044072Y022473D01*
Y022528D01*
X044051Y022579D01*
X044012Y022618D01*
X043961Y022639D01*
D02*
G37*
G36*
X048610Y022639D02*
X048555D01*
X048504Y022617D01*
X048465Y022578D01*
X048444Y022528D01*
Y022472D01*
X048465Y022422D01*
X048504Y022383D01*
X048555Y022361D01*
X048610D01*
X048661Y022383D01*
X048700Y022422D01*
X048721Y022472D01*
Y022528D01*
X048700Y022578D01*
X048661Y022617D01*
X048610Y022639D01*
D02*
G37*
G36*
X048098D02*
X048043D01*
X047992Y022617D01*
X047953Y022578D01*
X047932Y022528D01*
Y022472D01*
X047953Y022422D01*
X047992Y022383D01*
X048043Y022361D01*
X048098D01*
X048149Y022383D01*
X048188Y022422D01*
X048209Y022472D01*
Y022528D01*
X048188Y022578D01*
X048149Y022617D01*
X048098Y022639D01*
D02*
G37*
G36*
X044480Y022632D02*
X044425D01*
X044374Y022611D01*
X044335Y022572D01*
X044314Y022521D01*
Y022466D01*
X044335Y022415D01*
X044374Y022376D01*
X044425Y022355D01*
X044480D01*
X044531Y022376D01*
X044570Y022415D01*
X044591Y022466D01*
Y022521D01*
X044570Y022572D01*
X044531Y022611D01*
X044480Y022632D01*
D02*
G37*
G36*
X043692Y022406D02*
X043636D01*
X043586Y022385D01*
X043547Y022346D01*
X043525Y022295D01*
Y022240D01*
X043547Y022189D01*
X043586Y022150D01*
X043636Y022129D01*
X043692D01*
X043743Y022150D01*
X043782Y022189D01*
X043803Y022240D01*
Y022295D01*
X043782Y022346D01*
X043743Y022385D01*
X043692Y022406D01*
D02*
G37*
G36*
X028484Y022384D02*
X028429D01*
X028378Y022363D01*
X028339Y022324D01*
X028318Y022273D01*
Y022218D01*
X028339Y022167D01*
X028378Y022128D01*
X028429Y022107D01*
X028484D01*
X028535Y022128D01*
X028574Y022167D01*
X028595Y022218D01*
Y022273D01*
X028574Y022324D01*
X028535Y022363D01*
X028484Y022384D01*
D02*
G37*
G36*
X033689Y022973D02*
X033634D01*
X033583Y022952D01*
X033544Y022913D01*
X033523Y022862D01*
Y022807D01*
X033544Y022756D01*
X033583Y022717D01*
X033607Y022707D01*
X033620Y022650D01*
X033588Y022618D01*
X033550Y022552D01*
X033540Y022514D01*
X030724D01*
X030626Y022495D01*
X030543Y022439D01*
X030167Y022063D01*
X030143Y022076D01*
X030070Y022096D01*
X029994D01*
X029920Y022076D01*
X029854Y022038D01*
X029801Y021984D01*
X029763Y021919D01*
X029743Y021845D01*
Y021769D01*
X029750Y021742D01*
X029725Y021732D01*
X029686Y021693D01*
X029665Y021642D01*
Y021587D01*
X029686Y021536D01*
X029725Y021497D01*
X029776Y021476D01*
X029811D01*
X029811Y021474D01*
X029849Y021408D01*
X029903Y021355D01*
X029969Y021317D01*
X030042Y021297D01*
X030118D01*
X030192Y021317D01*
X030257Y021354D01*
X030342D01*
X030440Y021373D01*
X030522Y021429D01*
X030908Y021814D01*
X033742D01*
X033840Y021834D01*
X033922Y021889D01*
X034028Y021995D01*
X034091Y022011D01*
X034124Y022030D01*
X034172Y022001D01*
Y021972D01*
X034194Y021921D01*
X034233Y021882D01*
X034283Y021861D01*
X034339D01*
X034390Y021882D01*
X034429Y021921D01*
X034450Y021972D01*
Y022027D01*
X034429Y022078D01*
X034390Y022117D01*
X034339Y022138D01*
X034289D01*
X034275Y022149D01*
X034251Y022179D01*
X034268Y022242D01*
Y022318D01*
X034248Y022392D01*
X034210Y022458D01*
X034157Y022511D01*
X034091Y022549D01*
X034088Y022550D01*
X034088Y022552D01*
X034050Y022618D01*
X033996Y022672D01*
X033930Y022710D01*
X033857Y022730D01*
X033818D01*
X033817Y022730D01*
X033789Y022780D01*
X033800Y022807D01*
Y022862D01*
X033779Y022913D01*
X033740Y022952D01*
X033689Y022973D01*
D02*
G37*
G36*
X044222Y022406D02*
X044167D01*
X044116Y022385D01*
X044077Y022346D01*
X044056Y022295D01*
Y022240D01*
X044077Y022189D01*
X044116Y022150D01*
X044167Y022129D01*
X044202D01*
X044211Y022112D01*
X044217Y022079D01*
X044185Y022047D01*
X044164Y021996D01*
Y021941D01*
X044185Y021890D01*
X044224Y021851D01*
X044275Y021830D01*
X044330D01*
X044381Y021851D01*
X044420Y021890D01*
X044441Y021941D01*
Y021996D01*
X044420Y022047D01*
X044381Y022086D01*
X044330Y022107D01*
X044295D01*
X044286Y022124D01*
X044280Y022157D01*
X044312Y022189D01*
X044333Y022240D01*
Y022295D01*
X044312Y022346D01*
X044273Y022385D01*
X044222Y022406D01*
D02*
G37*
G36*
X044736Y022420D02*
X044681D01*
X044630Y022399D01*
X044591Y022360D01*
X044570Y022309D01*
Y022254D01*
X044591Y022203D01*
X044630Y022164D01*
X044673Y022146D01*
X044678Y022114D01*
X044676Y022095D01*
X044636Y022079D01*
X044597Y022040D01*
X044576Y021989D01*
Y021934D01*
X044597Y021883D01*
X044636Y021844D01*
X044687Y021823D01*
X044742D01*
X044793Y021844D01*
X044832Y021883D01*
X044853Y021934D01*
Y021989D01*
X044832Y022040D01*
X044793Y022079D01*
X044750Y022097D01*
X044745Y022130D01*
X044747Y022148D01*
X044787Y022164D01*
X044826Y022203D01*
X044847Y022254D01*
Y022309D01*
X044826Y022360D01*
X044787Y022399D01*
X044736Y022420D01*
D02*
G37*
G36*
X047764Y021989D02*
X047709D01*
X047658Y021968D01*
X047619Y021929D01*
X047598Y021878D01*
Y021823D01*
X047619Y021772D01*
X047658Y021733D01*
X047709Y021712D01*
X047764D01*
X047815Y021733D01*
X047854Y021772D01*
X047875Y021823D01*
Y021878D01*
X047854Y021929D01*
X047815Y021968D01*
X047764Y021989D01*
D02*
G37*
G36*
X022769D02*
X022713D01*
X022662Y021968D01*
X022623Y021929D01*
X022602Y021878D01*
Y021823D01*
X022623Y021772D01*
X022662Y021733D01*
X022713Y021712D01*
X022769D01*
X022819Y021733D01*
X022858Y021772D01*
X022880Y021823D01*
Y021878D01*
X022858Y021929D01*
X022819Y021968D01*
X022769Y021989D01*
D02*
G37*
G36*
X048689Y021930D02*
X048634D01*
X048583Y021909D01*
X048544Y021870D01*
X048523Y021819D01*
Y021764D01*
X048544Y021713D01*
X048583Y021674D01*
X048634Y021653D01*
X048689D01*
X048740Y021674D01*
X048779Y021713D01*
X048800Y021764D01*
Y021819D01*
X048779Y021870D01*
X048740Y021909D01*
X048689Y021930D01*
D02*
G37*
G36*
X029181Y021733D02*
X029126D01*
X029075Y021712D01*
X029036Y021673D01*
X029015Y021622D01*
Y021567D01*
X029036Y021516D01*
X029075Y021477D01*
X029126Y021456D01*
X029181D01*
X029232Y021477D01*
X029271Y021516D01*
X029292Y021567D01*
Y021622D01*
X029271Y021673D01*
X029232Y021712D01*
X029181Y021733D01*
D02*
G37*
G36*
X048354Y021595D02*
X048299D01*
X048248Y021574D01*
X048209Y021535D01*
X048188Y021484D01*
Y021429D01*
X048209Y021378D01*
X048248Y021339D01*
X048299Y021318D01*
X048354D01*
X048405Y021339D01*
X048444Y021378D01*
X048465Y021429D01*
Y021484D01*
X048444Y021535D01*
X048405Y021574D01*
X048354Y021595D01*
D02*
G37*
G36*
X022769Y021517D02*
X022713D01*
X022662Y021495D01*
X022623Y021456D01*
X022602Y021406D01*
Y021350D01*
X022623Y021299D01*
X022662Y021260D01*
X022713Y021239D01*
X022769D01*
X022819Y021260D01*
X022858Y021299D01*
X022880Y021350D01*
Y021406D01*
X022858Y021456D01*
X022819Y021495D01*
X022769Y021517D01*
D02*
G37*
G36*
X044330Y021442D02*
X044275D01*
X044224Y021421D01*
X044185Y021382D01*
X044164Y021331D01*
Y021276D01*
X044185Y021225D01*
X044224Y021186D01*
X044275Y021165D01*
X044330D01*
X044381Y021186D01*
X044420Y021225D01*
X044441Y021276D01*
Y021331D01*
X044420Y021382D01*
X044381Y021421D01*
X044330Y021442D01*
D02*
G37*
G36*
X031905Y021431D02*
X031850D01*
X031799Y021410D01*
X031760Y021371D01*
X031739Y021320D01*
Y021265D01*
X031760Y021214D01*
X031799Y021175D01*
X031850Y021154D01*
X031905D01*
X031956Y021175D01*
X031995Y021214D01*
X032016Y021265D01*
Y021320D01*
X031995Y021371D01*
X031956Y021410D01*
X031905Y021431D01*
D02*
G37*
G36*
X029063Y021261D02*
X029008D01*
X028957Y021240D01*
X028918Y021201D01*
X028897Y021150D01*
Y021094D01*
X028918Y021044D01*
X028957Y021005D01*
X029008Y020983D01*
X029063D01*
X029114Y021005D01*
X029153Y021044D01*
X029174Y021094D01*
Y021150D01*
X029153Y021201D01*
X029114Y021240D01*
X029063Y021261D01*
D02*
G37*
G36*
X033098Y020848D02*
X033043D01*
X032992Y020827D01*
X032953Y020788D01*
X032932Y020737D01*
Y020682D01*
X032953Y020631D01*
X032992Y020592D01*
X033043Y020571D01*
X033098D01*
X033149Y020592D01*
X033188Y020631D01*
X033209Y020682D01*
Y020737D01*
X033188Y020788D01*
X033149Y020827D01*
X033098Y020848D01*
D02*
G37*
G36*
X025978Y020839D02*
X025922D01*
X025872Y020817D01*
X025833Y020779D01*
X025811Y020728D01*
Y020672D01*
X025833Y020622D01*
X025872Y020583D01*
X025922Y020561D01*
X025978D01*
X026028Y020583D01*
X026067Y020622D01*
X026089Y020672D01*
Y020728D01*
X026067Y020779D01*
X026028Y020817D01*
X025978Y020839D01*
D02*
G37*
G36*
X044330Y020828D02*
X044275D01*
X044224Y020807D01*
X044185Y020768D01*
X044164Y020717D01*
Y020662D01*
X044185Y020611D01*
X044224Y020572D01*
X044275Y020551D01*
X044330D01*
X044381Y020572D01*
X044420Y020611D01*
X044441Y020662D01*
Y020717D01*
X044420Y020768D01*
X044381Y020807D01*
X044330Y020828D01*
D02*
G37*
G36*
X031504Y020670D02*
X031449D01*
X031398Y020649D01*
X031359Y020610D01*
X031338Y020559D01*
Y020504D01*
X031359Y020453D01*
X031398Y020414D01*
X031449Y020393D01*
X031504D01*
X031555Y020414D01*
X031594Y020453D01*
X031615Y020504D01*
Y020559D01*
X031594Y020610D01*
X031555Y020649D01*
X031504Y020670D01*
D02*
G37*
G36*
X027998Y022209D02*
X027942D01*
X027891Y022187D01*
X027853Y022148D01*
X027831Y022098D01*
Y022076D01*
X027148Y021392D01*
X027126Y021359D01*
X027118Y021320D01*
Y020824D01*
X027103Y020808D01*
X027081Y020758D01*
Y020702D01*
X027103Y020652D01*
X027141Y020613D01*
X027153Y020608D01*
X027174Y020550D01*
X027162Y020529D01*
X027111Y020507D01*
X027073Y020468D01*
X027051Y020418D01*
Y020362D01*
X027073Y020312D01*
X027111Y020273D01*
X027162Y020251D01*
X027218D01*
X027269Y020273D01*
X027307Y020312D01*
X027329Y020362D01*
Y020384D01*
X027562Y020618D01*
X027584Y020651D01*
X027592Y020690D01*
Y021128D01*
X028186Y021721D01*
X028208D01*
X028259Y021743D01*
X028297Y021781D01*
X028319Y021832D01*
Y021888D01*
X028297Y021939D01*
X028259Y021977D01*
X028208Y021999D01*
X028152D01*
X028143Y021995D01*
X028105Y022033D01*
X028109Y022042D01*
Y022098D01*
X028087Y022148D01*
X028049Y022187D01*
X027998Y022209D01*
D02*
G37*
G36*
X024128Y020439D02*
X024072D01*
X024021Y020417D01*
X023983Y020378D01*
X023961Y020328D01*
Y020272D01*
X023983Y020222D01*
X024021Y020183D01*
X024072Y020161D01*
X024128D01*
X024179Y020183D01*
X024217Y020222D01*
X024239Y020272D01*
Y020328D01*
X024217Y020378D01*
X024179Y020417D01*
X024128Y020439D01*
D02*
G37*
G36*
X013976Y023349D02*
X013879Y023330D01*
X013796Y023275D01*
X013741Y023192D01*
X013721Y023094D01*
Y022645D01*
X013704Y022627D01*
X013648Y022544D01*
X013629Y022447D01*
Y020240D01*
X013648Y020142D01*
X013704Y020060D01*
X013786Y020005D01*
X013884Y019985D01*
X013981Y020005D01*
X014064Y020060D01*
X014119Y020142D01*
X014139Y020240D01*
Y022341D01*
X014157Y022359D01*
X014212Y022442D01*
X014231Y022539D01*
Y022933D01*
Y023094D01*
X014212Y023192D01*
X014157Y023275D01*
X014074Y023330D01*
X013976Y023349D01*
D02*
G37*
G36*
X033098Y019969D02*
X033043D01*
X032992Y019948D01*
X032953Y019909D01*
X032932Y019858D01*
Y019803D01*
X032953Y019752D01*
X032992Y019713D01*
X033043Y019692D01*
X033098D01*
X033149Y019713D01*
X033188Y019752D01*
X033209Y019803D01*
Y019858D01*
X033188Y019909D01*
X033149Y019948D01*
X033098Y019969D01*
D02*
G37*
G36*
X020352Y020843D02*
X020268D01*
X020187Y020821D01*
X020114Y020779D01*
X020054Y020719D01*
X020012Y020646D01*
X019990Y020565D01*
Y020481D01*
X020012Y020399D01*
X020054Y020326D01*
X020114Y020267D01*
X020140Y020252D01*
Y020194D01*
X020114Y020179D01*
X020054Y020119D01*
X020012Y020046D01*
X019990Y019965D01*
Y019881D01*
X020012Y019799D01*
X020054Y019726D01*
X020114Y019667D01*
X020187Y019625D01*
X020268Y019603D01*
X020352D01*
X020434Y019625D01*
X020507Y019667D01*
X020566Y019726D01*
X020608Y019799D01*
X020630Y019881D01*
Y019965D01*
X020608Y020046D01*
X020566Y020119D01*
X020507Y020179D01*
X020481Y020194D01*
Y020252D01*
X020507Y020267D01*
X020566Y020326D01*
X020608Y020399D01*
X020630Y020481D01*
Y020565D01*
X020608Y020646D01*
X020566Y020719D01*
X020507Y020779D01*
X020434Y020821D01*
X020352Y020843D01*
D02*
G37*
G36*
X015952D02*
X015868D01*
X015787Y020821D01*
X015714Y020779D01*
X015654Y020719D01*
X015612Y020646D01*
X015590Y020565D01*
Y020481D01*
X015612Y020399D01*
X015654Y020326D01*
X015714Y020267D01*
X015740Y020252D01*
Y020194D01*
X015714Y020179D01*
X015654Y020119D01*
X015612Y020046D01*
X015590Y019965D01*
Y019881D01*
X015612Y019799D01*
X015654Y019726D01*
X015714Y019667D01*
X015787Y019625D01*
X015868Y019603D01*
X015952D01*
X016034Y019625D01*
X016107Y019667D01*
X016166Y019726D01*
X016208Y019799D01*
X016230Y019881D01*
Y019965D01*
X016208Y020046D01*
X016166Y020119D01*
X016107Y020179D01*
X016081Y020194D01*
Y020252D01*
X016107Y020267D01*
X016166Y020326D01*
X016208Y020399D01*
X016230Y020481D01*
Y020565D01*
X016208Y020646D01*
X016166Y020719D01*
X016107Y020779D01*
X016034Y020821D01*
X015952Y020843D01*
D02*
G37*
G36*
X028058Y019819D02*
X028002D01*
X027952Y019797D01*
X027913Y019758D01*
X027891Y019708D01*
Y019652D01*
X027913Y019602D01*
X027952Y019563D01*
X028002Y019541D01*
X028058D01*
X028108Y019563D01*
X028147Y019602D01*
X028169Y019652D01*
Y019708D01*
X028147Y019758D01*
X028108Y019797D01*
X028058Y019819D01*
D02*
G37*
G36*
X033134Y019617D02*
X033008D01*
X032886Y019585D01*
X032776Y019522D01*
X032711Y019456D01*
X032677Y019438D01*
X032643Y019456D01*
X032578Y019522D01*
X032469Y019585D01*
X032347Y019617D01*
X032220D01*
X032098Y019585D01*
X031989Y019522D01*
X031900Y019432D01*
X031837Y019323D01*
X031804Y019201D01*
Y019075D01*
X031837Y018953D01*
X031900Y018843D01*
X031989Y018754D01*
X032098Y018691D01*
X032220Y018658D01*
X032347D01*
X032469Y018691D01*
X032578Y018754D01*
X032643Y018819D01*
X032677Y018838D01*
X032711Y018819D01*
X032776Y018754D01*
X032886Y018691D01*
X033008Y018658D01*
X033134D01*
X033256Y018691D01*
X033365Y018754D01*
X033455Y018843D01*
X033518Y018953D01*
X033550Y019075D01*
Y019201D01*
X033518Y019323D01*
X033455Y019432D01*
X033365Y019522D01*
X033256Y019585D01*
X033134Y019617D01*
D02*
G37*
G36*
X027738Y019489D02*
X027682D01*
X027631Y019467D01*
X027593Y019428D01*
X027571Y019378D01*
Y019322D01*
X027593Y019272D01*
X027631Y019233D01*
X027682Y019211D01*
X027738D01*
X027789Y019233D01*
X027827Y019272D01*
X027849Y019322D01*
Y019378D01*
X027827Y019428D01*
X027789Y019467D01*
X027738Y019489D01*
D02*
G37*
G36*
X028008Y019129D02*
X027952D01*
X027901Y019107D01*
X027863Y019068D01*
X027841Y019018D01*
Y018962D01*
X027863Y018911D01*
X027901Y018873D01*
X027952Y018851D01*
X028008D01*
X028059Y018873D01*
X028097Y018911D01*
X028119Y018962D01*
Y019018D01*
X028097Y019068D01*
X028059Y019107D01*
X028008Y019129D01*
D02*
G37*
G36*
X034098Y019467D02*
X034012D01*
X033928Y019445D01*
X033853Y019401D01*
X033791Y019340D01*
X033748Y019265D01*
X033726Y019181D01*
Y019094D01*
X033748Y019011D01*
X033791Y018935D01*
X033853Y018874D01*
X033928Y018831D01*
X034012Y018808D01*
X034098D01*
X034182Y018831D01*
X034257Y018874D01*
X034319Y018935D01*
X034362Y019011D01*
X034385Y019094D01*
Y019181D01*
X034362Y019265D01*
X034319Y019340D01*
X034257Y019401D01*
X034182Y019445D01*
X034098Y019467D01*
D02*
G37*
G36*
X031343D02*
X031256D01*
X031172Y019445D01*
X031097Y019401D01*
X031036Y019340D01*
X030992Y019265D01*
X030970Y019181D01*
Y019094D01*
X030992Y019011D01*
X031036Y018935D01*
X031097Y018874D01*
X031172Y018831D01*
X031256Y018808D01*
X031343D01*
X031426Y018831D01*
X031502Y018874D01*
X031563Y018935D01*
X031606Y019011D01*
X031629Y019094D01*
Y019181D01*
X031606Y019265D01*
X031563Y019340D01*
X031502Y019401D01*
X031426Y019445D01*
X031343Y019467D01*
D02*
G37*
G36*
X035336Y020005D02*
X035192D01*
X035051Y019977D01*
X034918Y019922D01*
X034799Y019842D01*
X034697Y019740D01*
X034618Y019621D01*
X034563Y019488D01*
X034535Y019347D01*
Y019204D01*
X034563Y019063D01*
X034618Y018930D01*
X034697Y018811D01*
X034799Y018709D01*
X034918Y018629D01*
X035051Y018574D01*
X035192Y018546D01*
X035336D01*
X035476Y018574D01*
X035609Y018629D01*
X035729Y018709D01*
X035830Y018811D01*
X035910Y018930D01*
X035965Y019063D01*
X035993Y019204D01*
Y019347D01*
X035965Y019488D01*
X035910Y019621D01*
X035830Y019740D01*
X035729Y019842D01*
X035609Y019922D01*
X035476Y019977D01*
X035336Y020005D01*
D02*
G37*
G36*
X030162D02*
X030019D01*
X029878Y019977D01*
X029745Y019922D01*
X029626Y019842D01*
X029524Y019740D01*
X029444Y019621D01*
X029389Y019488D01*
X029361Y019347D01*
Y019204D01*
X029389Y019063D01*
X029444Y018930D01*
X029524Y018811D01*
X029626Y018709D01*
X029745Y018629D01*
X029878Y018574D01*
X030019Y018546D01*
X030162D01*
X030303Y018574D01*
X030436Y018629D01*
X030555Y018709D01*
X030657Y018811D01*
X030737Y018930D01*
X030792Y019063D01*
X030820Y019204D01*
Y019347D01*
X030792Y019488D01*
X030737Y019621D01*
X030657Y019740D01*
X030555Y019842D01*
X030436Y019922D01*
X030303Y019977D01*
X030162Y020005D01*
D02*
G37*
%LPD*%
D14*
X021063Y021358D02*
X021855D01*
X021161Y021850D02*
X021855D01*
X015050Y026150D02*
X015830D01*
X016180Y025800D01*
X017350Y025323D02*
X019778Y027750D01*
X021550D01*
X026585Y023815D02*
X026600Y023800D01*
X026583Y030133D02*
X027400Y030950D01*
X026583Y023938D02*
X026585Y023935D01*
Y023815D02*
Y023935D01*
X026583Y023938D02*
Y030133D01*
X027854Y023622D02*
Y027028D01*
X027900Y027073D02*
Y030500D01*
X027854Y027028D02*
X027900Y027073D01*
X031208Y043492D02*
X031592Y043877D01*
Y043984D01*
X031426Y044150D02*
X031592Y043984D01*
X031426Y044150D02*
Y044414D01*
X031697Y044684D01*
X031961D01*
X032238Y044407D01*
X032344D01*
X032504Y044566D01*
Y044672D01*
X031972Y045204D02*
X032504Y044672D01*
X031972Y045204D02*
Y045467D01*
X032243Y045738D01*
X032507D01*
X032927Y045318D01*
X033033D01*
X033508Y045792D01*
X031342Y043358D02*
X031782Y043799D01*
Y044062D01*
X031616Y044229D02*
X031782Y044062D01*
X031616Y044229D02*
Y044335D01*
X031776Y044494D01*
X031882D01*
X032159Y044217D01*
X032423D01*
X032694Y044487D01*
Y044751D01*
X032162Y045282D02*
X032694Y044751D01*
X032162Y045282D02*
Y045389D01*
X032322Y045548D01*
X032428D01*
X032848Y045128D01*
X033112D01*
X033642Y045658D01*
X030814Y043099D02*
X031208Y043492D01*
X033508Y045792D02*
X034267Y046552D01*
X030949Y042965D02*
X031342Y043358D01*
X033642Y045658D02*
X034345Y046362D01*
X040716Y038300D02*
Y038404D01*
X040657Y038463D02*
X040716Y038404D01*
X040586Y038463D02*
X040657D01*
X040558Y038491D02*
X040586Y038463D01*
X040558Y038491D02*
Y038574D01*
X040586Y038602D01*
X040657D01*
X040716Y038661D01*
Y038850D01*
Y026299D02*
Y038300D01*
Y038850D02*
Y041494D01*
X039496Y040016D02*
Y040200D01*
X039437Y039957D02*
X039496Y040016D01*
X039366Y039957D02*
X039437D01*
X039339Y039929D02*
X039366Y039957D01*
X039339Y039845D02*
Y039929D01*
Y039845D02*
X039366Y039818D01*
X039437D01*
X039496Y039759D01*
Y039709D02*
Y039759D01*
Y040200D02*
Y040375D01*
Y039200D02*
Y039709D01*
X039686Y034154D02*
Y035050D01*
Y034154D02*
X039745Y034095D01*
X039745D01*
X039916Y033924D01*
Y033588D02*
Y033924D01*
X039745Y033418D02*
X039916Y033588D01*
X039630Y033418D02*
X039745D01*
X039571Y033358D02*
X039630Y033418D01*
X039571Y033180D02*
Y033358D01*
Y033180D02*
X039630Y033121D01*
X039710D01*
X039881Y032950D01*
Y032615D02*
Y032950D01*
X039710Y032444D02*
X039881Y032615D01*
X039625Y032444D02*
X039710D01*
X039566Y032385D02*
X039625Y032444D01*
X039566Y032207D02*
Y032385D01*
Y032207D02*
X039625Y032147D01*
X039753D01*
X039923Y031977D01*
Y031641D02*
Y031977D01*
X039753Y031470D02*
X039923Y031641D01*
X039625Y031470D02*
X039753D01*
X039566Y031411D02*
X039625Y031470D01*
X039566Y031233D02*
Y031411D01*
Y031233D02*
X039625Y031174D01*
X039753D01*
X039923Y031003D01*
Y030667D02*
Y031003D01*
X039753Y030497D02*
X039923Y030667D01*
X039625Y030497D02*
X039753D01*
X039566Y030437D02*
X039625Y030497D01*
X039566Y030259D02*
Y030437D01*
Y030259D02*
X039625Y030200D01*
X039753D01*
X039923Y030029D01*
Y029694D02*
Y030029D01*
X039753Y029523D02*
X039923Y029694D01*
X039625Y029523D02*
X039753D01*
X039566Y029464D02*
X039625Y029523D01*
X039566Y029285D02*
Y029464D01*
Y029285D02*
X039625Y029226D01*
X039753D01*
X039923Y029055D01*
Y028720D02*
Y029055D01*
X039753Y028549D02*
X039923Y028720D01*
X039625Y028549D02*
X039753D01*
X039566Y028490D02*
X039625Y028549D01*
X039566Y028312D02*
Y028490D01*
Y028312D02*
X039625Y028252D01*
X039753D01*
X039923Y028082D01*
Y027746D02*
Y028082D01*
X039753Y027576D02*
X039923Y027746D01*
X039625Y027576D02*
X039753D01*
X039566Y027516D02*
X039625Y027576D01*
X039566Y027338D02*
Y027516D01*
Y027338D02*
X039625Y027279D01*
X039753D01*
X039923Y027108D01*
Y026773D02*
Y027108D01*
X039753Y026602D02*
X039923Y026773D01*
X039745Y026602D02*
X039753D01*
X039686Y026543D02*
X039745Y026602D01*
X039686Y025950D02*
Y026543D01*
X039496Y034075D02*
Y035050D01*
Y034075D02*
X039667Y033905D01*
X039667D01*
X039726Y033845D01*
Y033667D02*
Y033845D01*
X039667Y033608D02*
X039726Y033667D01*
X039552Y033608D02*
X039667D01*
X039381Y033437D02*
X039552Y033608D01*
X039381Y033102D02*
Y033437D01*
Y033102D02*
X039552Y032931D01*
X039631D01*
X039691Y032872D01*
Y032693D02*
Y032872D01*
X039631Y032634D02*
X039691Y032693D01*
X039547Y032634D02*
X039631D01*
X039376Y032463D02*
X039547Y032634D01*
X039376Y032128D02*
Y032463D01*
Y032128D02*
X039547Y031957D01*
X039674D01*
X039733Y031898D01*
Y031720D02*
Y031898D01*
X039674Y031660D02*
X039733Y031720D01*
X039547Y031660D02*
X039674D01*
X039376Y031490D02*
X039547Y031660D01*
X039376Y031154D02*
Y031490D01*
Y031154D02*
X039547Y030984D01*
X039674D01*
X039733Y030924D01*
Y030746D02*
Y030924D01*
X039674Y030687D02*
X039733Y030746D01*
X039547Y030687D02*
X039674D01*
X039376Y030516D02*
X039547Y030687D01*
X039376Y030180D02*
Y030516D01*
Y030180D02*
X039547Y030010D01*
X039674D01*
X039733Y029950D01*
Y029772D02*
Y029950D01*
X039674Y029713D02*
X039733Y029772D01*
X039547Y029713D02*
X039674D01*
X039376Y029542D02*
X039547Y029713D01*
X039376Y029207D02*
Y029542D01*
Y029207D02*
X039547Y029036D01*
X039674D01*
X039733Y028977D01*
Y028799D02*
Y028977D01*
X039674Y028739D02*
X039733Y028799D01*
X039547Y028739D02*
X039674D01*
X039376Y028569D02*
X039547Y028739D01*
X039376Y028233D02*
Y028569D01*
Y028233D02*
X039547Y028062D01*
X039674D01*
X039733Y028003D01*
Y027825D02*
Y028003D01*
X039674Y027766D02*
X039733Y027825D01*
X039547Y027766D02*
X039674D01*
X039376Y027595D02*
X039547Y027766D01*
X039376Y027259D02*
Y027595D01*
Y027259D02*
X039547Y027089D01*
X039674D01*
X039733Y027029D01*
Y026851D02*
Y027029D01*
X039674Y026792D02*
X039733Y026851D01*
X039667Y026792D02*
X039674D01*
X039496Y026621D02*
X039667Y026792D01*
X039496Y025950D02*
Y026621D01*
X039686Y035050D02*
Y037050D01*
Y025786D02*
Y025950D01*
X039496Y035050D02*
Y037050D01*
Y025708D02*
Y025950D01*
X041240Y023255D02*
Y024232D01*
X039686Y025786D02*
X041240Y024232D01*
X041050Y023255D02*
Y024154D01*
X039496Y025708D02*
X041050Y024154D01*
X039686Y038846D02*
Y039200D01*
X039515Y038676D02*
X039686Y038846D01*
X039499Y038676D02*
X039515D01*
X039440Y038616D02*
X039499Y038676D01*
X039440Y038438D02*
Y038616D01*
Y038438D02*
X039499Y038379D01*
X039753D01*
X039923Y038208D01*
Y037873D02*
Y038208D01*
X039753Y037702D02*
X039923Y037873D01*
X039499Y037702D02*
X039753D01*
X039440Y037643D02*
X039499Y037702D01*
X039440Y037464D02*
Y037643D01*
Y037464D02*
X039499Y037405D01*
X039515D01*
X039686Y037234D01*
Y037050D02*
Y037234D01*
X039496Y038925D02*
Y039200D01*
X039437Y038866D02*
X039496Y038925D01*
X039421Y038866D02*
X039437D01*
X039250Y038695D02*
X039421Y038866D01*
X039250Y038359D02*
Y038695D01*
Y038359D02*
X039421Y038189D01*
X039674D01*
X039733Y038129D01*
Y037951D02*
Y038129D01*
X039674Y037892D02*
X039733Y037951D01*
X039421Y037892D02*
X039674D01*
X039250Y037721D02*
X039421Y037892D01*
X039250Y037386D02*
Y037721D01*
Y037386D02*
X039421Y037215D01*
X039437D01*
X039496Y037156D01*
Y037050D02*
Y037156D01*
X039686Y039200D02*
Y040454D01*
X040073Y038150D02*
Y039104D01*
X040244Y039274D01*
X040289D01*
X040349Y039334D01*
Y039512D01*
X040289Y039571D02*
X040349Y039512D01*
X040007Y039571D02*
X040289D01*
X039836Y039742D02*
X040007Y039571D01*
X039836Y039742D02*
Y040077D01*
X040007Y040248D01*
X040289D01*
X040349Y040307D01*
Y040486D01*
X040289Y040545D02*
X040349Y040486D01*
X040244Y040545D02*
X040289D01*
X040073Y040716D02*
X040244Y040545D01*
X040073Y040716D02*
Y040900D01*
X040263Y038150D02*
Y039025D01*
X040323Y039084D01*
X040368D01*
X040539Y039255D01*
Y039591D01*
X040368Y039761D02*
X040539Y039591D01*
X040085Y039761D02*
X040368D01*
X040026Y039821D02*
X040085Y039761D01*
X040026Y039821D02*
Y039999D01*
X040085Y040058D01*
X040368D01*
X040539Y040229D01*
Y040564D01*
X040368Y040735D02*
X040539Y040564D01*
X040323Y040735D02*
X040368D01*
X040263Y040794D02*
X040323Y040735D01*
X040263Y040794D02*
Y040900D01*
X040073Y026036D02*
Y038150D01*
Y040900D02*
Y041011D01*
X040263Y026115D02*
Y038150D01*
Y040900D02*
Y041089D01*
X039100Y037433D02*
Y037738D01*
X038929Y037263D02*
X039100Y037433D01*
X038929Y037263D02*
X038929D01*
X038870Y037203D02*
X038929Y037263D01*
X038870Y037025D02*
Y037203D01*
Y037025D02*
X038929Y036966D01*
X039044D01*
X039215Y036795D01*
Y036460D02*
Y036795D01*
X039044Y036289D02*
X039215Y036460D01*
X038898Y036289D02*
X039044D01*
X038839Y036230D02*
X038898Y036289D01*
X038839Y036051D02*
Y036230D01*
Y036051D02*
X038898Y035992D01*
X039057D01*
X039227Y035821D01*
Y035486D02*
Y035821D01*
X039057Y035315D02*
X039227Y035486D01*
X038884Y035315D02*
X039057D01*
X038824Y035256D02*
X038884Y035315D01*
X038824Y035078D02*
Y035256D01*
Y035078D02*
X038884Y035018D01*
X039057D01*
X039227Y034848D01*
Y034512D02*
Y034848D01*
X039057Y034341D02*
X039227Y034512D01*
X038884Y034341D02*
X039057D01*
X038824Y034282D02*
X038884Y034341D01*
X038824Y034104D02*
Y034282D01*
Y034104D02*
X038884Y034045D01*
X039057D01*
X039227Y033874D01*
Y033538D02*
Y033874D01*
X039057Y033368D02*
X039227Y033538D01*
X038884Y033368D02*
X039057D01*
X038824Y033308D02*
X038884Y033368D01*
X038824Y033130D02*
Y033308D01*
Y033130D02*
X038884Y033071D01*
X039057D01*
X039227Y032900D01*
Y032565D02*
Y032900D01*
X039057Y032394D02*
X039227Y032565D01*
X038884Y032394D02*
X039057D01*
X038824Y032335D02*
X038884Y032394D01*
X038824Y032157D02*
Y032335D01*
Y032157D02*
X038884Y032097D01*
X039057D01*
X039227Y031927D01*
Y031591D02*
Y031927D01*
X039057Y031420D02*
X039227Y031591D01*
X038884Y031420D02*
X039057D01*
X038824Y031361D02*
X038884Y031420D01*
X038824Y031183D02*
Y031361D01*
Y031183D02*
X038884Y031124D01*
X039057D01*
X039227Y030953D01*
Y030617D02*
Y030953D01*
X039057Y030447D02*
X039227Y030617D01*
X038884Y030447D02*
X039057D01*
X038824Y030387D02*
X038884Y030447D01*
X038824Y030209D02*
Y030387D01*
Y030209D02*
X038884Y030150D01*
X039057D01*
X039227Y029979D01*
Y029644D02*
Y029979D01*
X039057Y029473D02*
X039227Y029644D01*
X038884Y029473D02*
X039057D01*
X038824Y029414D02*
X038884Y029473D01*
X038824Y029235D02*
Y029414D01*
Y029235D02*
X038884Y029176D01*
X039057D01*
X039227Y029005D01*
Y028670D02*
Y029005D01*
X039057Y028499D02*
X039227Y028670D01*
X038884Y028499D02*
X039057D01*
X038824Y028440D02*
X038884Y028499D01*
X038824Y028262D02*
Y028440D01*
Y028262D02*
X038884Y028202D01*
X039057D01*
X039227Y028032D01*
Y027696D02*
Y028032D01*
X039057Y027526D02*
X039227Y027696D01*
X038884Y027526D02*
X039057D01*
X038824Y027466D02*
X038884Y027526D01*
X038824Y027288D02*
Y027466D01*
Y027288D02*
X038884Y027229D01*
X039057D01*
X039227Y027058D01*
Y026723D02*
Y027058D01*
X039057Y026552D02*
X039227Y026723D01*
X038884Y026552D02*
X039057D01*
X038824Y026493D02*
X038884Y026552D01*
X038824Y026314D02*
Y026493D01*
Y026314D02*
X038884Y026255D01*
X038929D01*
X039100Y026084D01*
Y025900D02*
Y026084D01*
X038910Y037512D02*
Y037738D01*
X038851Y037453D02*
X038910Y037512D01*
X038851Y037453D02*
X038851D01*
X038680Y037282D02*
X038851Y037453D01*
X038680Y036946D02*
Y037282D01*
Y036946D02*
X038851Y036776D01*
X038966D01*
X039025Y036716D01*
Y036538D02*
Y036716D01*
X038966Y036479D02*
X039025Y036538D01*
X038820Y036479D02*
X038966D01*
X038649Y036308D02*
X038820Y036479D01*
X038649Y035973D02*
Y036308D01*
Y035973D02*
X038820Y035802D01*
X038978D01*
X039037Y035743D01*
Y035565D02*
Y035743D01*
X038978Y035505D02*
X039037Y035565D01*
X038805Y035505D02*
X038978D01*
X038634Y035334D02*
X038805Y035505D01*
X038634Y034999D02*
Y035334D01*
Y034999D02*
X038805Y034828D01*
X038978D01*
X039037Y034769D01*
Y034591D02*
Y034769D01*
X038978Y034531D02*
X039037Y034591D01*
X038805Y034531D02*
X038978D01*
X038634Y034361D02*
X038805Y034531D01*
X038634Y034025D02*
Y034361D01*
Y034025D02*
X038805Y033855D01*
X038978D01*
X039037Y033795D01*
Y033617D02*
Y033795D01*
X038978Y033558D02*
X039037Y033617D01*
X038805Y033558D02*
X038978D01*
X038634Y033387D02*
X038805Y033558D01*
X038634Y033052D02*
Y033387D01*
Y033052D02*
X038805Y032881D01*
X038978D01*
X039037Y032822D01*
Y032643D02*
Y032822D01*
X038978Y032584D02*
X039037Y032643D01*
X038805Y032584D02*
X038978D01*
X038634Y032413D02*
X038805Y032584D01*
X038634Y032078D02*
Y032413D01*
Y032078D02*
X038805Y031907D01*
X038978D01*
X039037Y031848D01*
Y031670D02*
Y031848D01*
X038978Y031610D02*
X039037Y031670D01*
X038805Y031610D02*
X038978D01*
X038634Y031440D02*
X038805Y031610D01*
X038634Y031104D02*
Y031440D01*
Y031104D02*
X038805Y030934D01*
X038978D01*
X039037Y030874D01*
Y030696D02*
Y030874D01*
X038978Y030637D02*
X039037Y030696D01*
X038805Y030637D02*
X038978D01*
X038634Y030466D02*
X038805Y030637D01*
X038634Y030130D02*
Y030466D01*
Y030130D02*
X038805Y029960D01*
X038978D01*
X039037Y029900D01*
Y029722D02*
Y029900D01*
X038978Y029663D02*
X039037Y029722D01*
X038805Y029663D02*
X038978D01*
X038634Y029492D02*
X038805Y029663D01*
X038634Y029157D02*
Y029492D01*
Y029157D02*
X038805Y028986D01*
X038978D01*
X039037Y028927D01*
Y028749D02*
Y028927D01*
X038978Y028689D02*
X039037Y028749D01*
X038805Y028689D02*
X038978D01*
X038634Y028519D02*
X038805Y028689D01*
X038634Y028183D02*
Y028519D01*
Y028183D02*
X038805Y028012D01*
X038978D01*
X039037Y027953D01*
Y027775D02*
Y027953D01*
X038978Y027716D02*
X039037Y027775D01*
X038805Y027716D02*
X038978D01*
X038634Y027545D02*
X038805Y027716D01*
X038634Y027209D02*
Y027545D01*
Y027209D02*
X038805Y027039D01*
X038978D01*
X039037Y026979D01*
Y026801D02*
Y026979D01*
X038978Y026742D02*
X039037Y026801D01*
X038805Y026742D02*
X038978D01*
X038634Y026571D02*
X038805Y026742D01*
X038634Y026236D02*
Y026571D01*
Y026236D02*
X038805Y026065D01*
X038851D01*
X038910Y026006D01*
Y025900D02*
Y026006D01*
X039100Y037738D02*
Y040087D01*
X038910Y037738D02*
Y040009D01*
X039100Y025618D02*
Y025900D01*
X038910Y025539D02*
Y025900D01*
X038634Y040554D02*
X039100Y040087D01*
X038910Y025539D02*
X040558Y023891D01*
X039100Y025618D02*
X040748Y023969D01*
X038446Y040472D02*
X038910Y040009D01*
X040906Y026378D02*
Y041573D01*
X032476Y029655D02*
X032499Y029633D01*
X032689Y024803D02*
Y029724D01*
X032499Y024895D02*
Y029633D01*
X032476Y024872D02*
X032499Y024895D01*
X032476Y029655D02*
Y029710D01*
X032462Y029724D02*
X032476Y029710D01*
X045177Y033327D02*
X046358Y034508D01*
Y036417D01*
X046752Y034532D02*
Y036417D01*
X045480Y033260D02*
X046752Y034532D01*
X045654Y040862D02*
Y041187D01*
X046161Y038976D02*
Y040354D01*
X045654Y040862D02*
X046161Y040354D01*
X047154Y041187D02*
X047494Y040846D01*
X048622D01*
X029724Y014764D02*
X029921Y014567D01*
X028671Y014764D02*
X029724D01*
X028268Y015167D02*
X028671Y014764D01*
X028268Y015167D02*
Y015354D01*
X028258Y015364D02*
Y016329D01*
X028248Y016339D02*
X028258Y016329D01*
Y015364D02*
X028268Y015354D01*
X034406Y023580D02*
X036804Y021182D01*
X034216Y023502D02*
X036614Y021103D01*
X036804Y018327D02*
Y021182D01*
X036614Y018406D02*
Y021103D01*
X034406Y023580D02*
Y023746D01*
X034216Y023502D02*
Y023746D01*
X034212Y023750D02*
X034216Y023746D01*
X034212Y023750D02*
Y023804D01*
X034197Y023819D02*
X034212Y023804D01*
X034410Y023750D02*
Y023804D01*
X034425Y023819D01*
X034406Y023746D02*
X034410Y023750D01*
X036410Y018202D02*
X036614Y018406D01*
X036489Y018012D02*
X036804Y018327D01*
X034836Y018202D02*
X036410D01*
X034914Y018012D02*
X036489D01*
X034134Y017231D02*
X034914Y018012D01*
X034055Y017421D02*
X034836Y018202D01*
X031371Y017421D02*
X034055D01*
X031292Y017231D02*
X034134D01*
X030603Y017920D02*
X031292Y017231D01*
X030682Y018110D02*
X031371Y017421D01*
X028241Y017920D02*
X030603D01*
X028320Y018110D02*
X030682D01*
X027890Y018540D02*
X028320Y018110D01*
X027812Y018350D02*
X028241Y017920D01*
X026512Y018540D02*
X027890D01*
X026591Y018350D02*
X027812D01*
X026083Y018110D02*
X026512Y018540D01*
X026161Y017920D02*
X026591Y018350D01*
X025409Y018188D02*
Y018209D01*
Y018188D02*
X025447Y018149D01*
Y018139D02*
Y018149D01*
Y018139D02*
X025506Y018080D01*
X025656D01*
X025686Y018110D01*
X025734Y017890D02*
X025765Y017920D01*
X025219Y018098D02*
X025427Y017890D01*
X025196Y018139D02*
X025219Y018117D01*
X025182Y018209D02*
X025196Y018194D01*
X025765Y017920D02*
X026161D01*
X025427Y017890D02*
X025734D01*
X025219Y018098D02*
Y018117D01*
X025196Y018139D02*
Y018194D01*
X025686Y018110D02*
X026083D01*
X027074Y016233D02*
X027447D01*
X026575Y016732D02*
X027074Y016233D01*
X027983Y015383D02*
Y015684D01*
X027973Y015694D02*
X027983Y015684D01*
Y015383D02*
X028012Y015354D01*
X027469Y016211D02*
X027561D01*
X027447Y016233D02*
X027469Y016211D01*
X027973Y015694D02*
Y015800D01*
X027561Y016211D02*
X027973Y015800D01*
X026440Y016598D02*
X026995Y016043D01*
X027783Y015381D02*
Y015721D01*
X027483Y016021D02*
X027783Y015721D01*
X027756Y015354D02*
X027783Y015381D01*
X027369Y016043D02*
X027391Y016021D01*
X026995Y016043D02*
X027369D01*
X027391Y016021D02*
X027483D01*
X030802Y022069D02*
X033742D01*
X030095Y021600D02*
X030150D01*
X030724Y022259D02*
X033663D01*
X030150Y021600D02*
X030158Y021609D01*
X030040Y021799D02*
X030264D01*
X030032Y021807D02*
X030040Y021799D01*
X030342Y021609D02*
X030802Y022069D01*
X030158Y021609D02*
X030342D01*
X030080Y021585D02*
X030095Y021600D01*
X030264Y021799D02*
X030724Y022259D01*
X033742Y022069D02*
X033915Y022242D01*
X033920D01*
X033959Y022280D01*
X033980D01*
X033780Y022381D02*
X033819Y022420D01*
X033663Y022259D02*
X033780Y022376D01*
Y022381D01*
X033819Y022420D02*
Y022441D01*
X034366Y024921D02*
X034381Y024936D01*
Y024991D01*
X034385Y024994D01*
Y025750D02*
X034428Y025793D01*
X034385Y024994D02*
Y025750D01*
X034575Y025671D02*
X034618Y025714D01*
X034575Y024994D02*
Y025671D01*
Y024994D02*
X034579Y024991D01*
Y024936D02*
X034594Y024921D01*
X034579Y024936D02*
Y024991D01*
X034428Y025793D02*
Y031226D01*
X034618Y025714D02*
Y031226D01*
X034409Y031299D02*
X034424Y031284D01*
X034618Y031226D02*
X034622Y031230D01*
X034424D02*
Y031284D01*
X034622Y031230D02*
Y031284D01*
X034637Y031299D01*
X034424Y031230D02*
X034428Y031226D01*
X040263Y026115D02*
X041722Y024656D01*
X040073Y026036D02*
X041532Y024578D01*
X039667Y041417D02*
X040073Y041011D01*
X039847Y041506D02*
X040263Y041089D01*
X039570Y040612D02*
Y040633D01*
X039409Y040462D02*
X039496Y040375D01*
X039409Y040462D02*
Y040472D01*
X039648Y040492D02*
X039686Y040454D01*
X039648Y040492D02*
Y040534D01*
X039570Y040612D02*
X039648Y040534D01*
X040716Y026299D02*
X042162Y024853D01*
X040178Y042032D02*
X040716Y041494D01*
X040906Y026378D02*
X042352Y024932D01*
X040312Y042166D02*
X040906Y041573D01*
X041725Y022685D02*
Y022781D01*
X041722Y022785D02*
X041725Y022781D01*
X041528Y022685D02*
Y022781D01*
X041532Y022785D01*
X039806Y041557D02*
Y041578D01*
X041532Y022785D02*
Y024578D01*
X041513Y022670D02*
X041528Y022685D01*
X039646Y041417D02*
X039667D01*
X039847Y041506D02*
Y041516D01*
X041722Y022785D02*
Y024656D01*
X039806Y041557D02*
X039847Y041516D01*
X041046Y023155D02*
Y023251D01*
X041050Y023255D01*
X041032Y023140D02*
X041046Y023155D01*
X041244D02*
X041259Y023140D01*
X041244Y023155D02*
Y023251D01*
X041240Y023255D02*
X041244Y023251D01*
X040558Y023005D02*
Y023891D01*
X038595Y040617D02*
X038634Y040578D01*
X040748Y023005D02*
Y023969D01*
Y023005D02*
X040752Y023001D01*
X040539Y022890D02*
X040554Y022905D01*
X038425Y040472D02*
X038446D01*
X040752Y022905D02*
Y023001D01*
X038595Y040617D02*
Y040638D01*
X040752Y022905D02*
X040767Y022890D01*
X040554Y022905D02*
Y023001D01*
X038634Y040554D02*
Y040578D01*
X040554Y023001D02*
X040558Y023005D01*
X042162Y023049D02*
Y024853D01*
X042352Y023049D02*
Y024932D01*
X040312Y042166D02*
Y042192D01*
X042352Y023049D02*
X042370Y023030D01*
X040152Y042032D02*
X040178D01*
X042143Y023030D02*
X042162Y023049D01*
X041725Y022685D02*
X041740Y022670D01*
X023228Y042402D02*
X028268D01*
X028858Y041811D01*
X030793Y024713D02*
X030910Y024830D01*
X029493Y024713D02*
X030793D01*
X032476Y024818D02*
Y024872D01*
X032462Y024803D02*
X032476Y024818D01*
X034345Y046362D02*
X048667D01*
X034267Y046552D02*
X048667D01*
X028858Y041811D02*
X032008D01*
X035354Y045157D02*
X049921D01*
X032008Y041811D02*
X035354Y045157D01*
X021250Y027063D02*
Y027330D01*
X019510Y025323D02*
X021250Y027063D01*
X027854Y023622D02*
X028629Y022847D01*
X029245D01*
X020510Y025323D02*
X021630Y026443D01*
Y027260D01*
X045177Y031763D02*
Y033327D01*
X045480Y031770D02*
Y033260D01*
X046417Y032167D02*
Y033203D01*
X046200Y031950D02*
X046417Y032167D01*
X046200Y031680D02*
Y031950D01*
X045880Y031660D02*
Y032240D01*
X045940Y032300D01*
Y033290D01*
X020110Y022311D02*
X021063Y021358D01*
X020110Y022311D02*
Y023323D01*
X020571Y022441D02*
X021161Y021850D01*
X020571Y022441D02*
Y024262D01*
X020510Y024323D02*
X020571Y024262D01*
X016180Y024793D02*
Y025800D01*
X015710Y024323D02*
X016180Y024793D01*
X016710Y025323D02*
X017350D01*
X029626Y042421D02*
X031594D01*
X027190Y020390D02*
X027490Y020690D01*
Y021170D01*
X028180Y021860D01*
X027220Y020730D02*
Y021320D01*
X027970Y022070D01*
X030791Y024330D02*
X031174Y024713D01*
X044802Y046952D02*
X048468D01*
X048725Y046351D02*
X048740Y046336D01*
X048677Y046351D02*
X048725D01*
X044723Y047142D02*
X048191D01*
X048468Y046952D02*
X048480Y046941D01*
X048725Y046556D02*
X048733Y046563D01*
X048217Y047168D02*
X048480D01*
X048667Y046362D02*
X048677Y046351D01*
X048191Y047142D02*
X048217Y047168D01*
X048671Y046556D02*
X048725D01*
X035295Y045630D02*
X045520D01*
X029823Y042126D02*
X031791D01*
X035295Y045630D01*
X031594Y042421D02*
X035013Y045840D01*
X045810D01*
X029150Y024330D02*
X030791D01*
X029365Y024585D02*
X029493Y024713D01*
X033775Y047099D02*
X044679D01*
X033696Y046909D02*
X044758D01*
X033665Y047209D02*
X033775Y047099D01*
X033570Y047207D02*
Y047209D01*
X033665D01*
X033570Y046979D02*
Y046980D01*
X044679Y047099D02*
X044723Y047142D01*
X033626Y046979D02*
X033696Y046909D01*
X044758D02*
X044802Y046952D01*
X033570Y046979D02*
X033626D01*
X031830Y046670D02*
X031845Y046685D01*
X033469Y047543D02*
X048687D01*
X048691Y047539D01*
X031845Y046685D02*
X031899D01*
X031845Y046882D02*
X031899D01*
X031903Y046879D02*
X032536D01*
X033390Y047733D02*
X048687D01*
X031903Y046689D02*
X032615D01*
X031830Y046897D02*
X031845Y046882D01*
X031899D02*
X031903Y046879D01*
X032615Y046689D02*
X033469Y047543D01*
X048691Y047737D02*
X048745D01*
X048687Y047733D02*
X048691Y047737D01*
Y047539D02*
X048745D01*
Y047737D02*
X048760Y047751D01*
X032536Y046879D02*
X033390Y047733D01*
X031899Y046685D02*
X031903Y046689D01*
X048745Y047539D02*
X048760Y047524D01*
X048667Y046552D02*
X048671Y046556D01*
D19*
X037058Y029066D02*
X037087Y029094D01*
X037058Y027556D02*
Y029066D01*
X039911Y023471D02*
Y023829D01*
X039714Y023250D02*
X039911Y023448D01*
Y023471D01*
X039650Y023250D02*
X039714D01*
X038421Y022021D02*
X039650Y023250D01*
X038039Y022021D02*
X038421D01*
X038822Y022822D02*
X039033D01*
X038200Y022200D02*
X038822Y022822D01*
X039033D02*
X039656Y023444D01*
X038749Y023449D02*
X039399D01*
X038000Y022700D02*
X038749Y023449D01*
X037756Y025092D02*
X039399Y023449D01*
X038043Y021695D02*
X038415D01*
X040167Y023447D01*
X021500Y039576D02*
X021550Y039626D01*
Y042100D01*
X021500Y039550D02*
Y039576D01*
X021200Y041453D02*
Y042350D01*
X021018Y041270D02*
X021200Y041453D01*
X021018Y039542D02*
Y041270D01*
X038386Y038425D02*
X038583Y038622D01*
X038386Y025591D02*
Y038425D01*
X036850Y027150D02*
Y029600D01*
X048300Y028750D02*
X048700Y029150D01*
X047400Y028750D02*
X048300D01*
X026102Y029941D02*
X027576Y031414D01*
X029905D01*
X026102Y023346D02*
Y029941D01*
X029905Y031414D02*
X031988Y029331D01*
X026772Y029889D02*
X027985Y031102D01*
X029823D01*
X026772Y024016D02*
Y029889D01*
X029823Y031102D02*
X030519Y030407D01*
X025800Y021700D02*
Y022005D01*
X025827Y022032D01*
Y022310D01*
X025820Y030151D02*
X026378Y030709D01*
X025820Y030070D02*
Y030151D01*
X025760Y030010D02*
X025820Y030070D01*
X031082Y027542D02*
Y027598D01*
X031102Y027618D01*
X031063Y027523D02*
X031082Y027542D01*
X031102Y027618D02*
Y028642D01*
X035447Y024896D02*
Y025003D01*
X035433Y024882D02*
X035447Y024896D01*
Y025003D02*
X035494Y025049D01*
Y027174D01*
X035294Y027374D02*
X035494Y027174D01*
X035294Y027374D02*
Y029181D01*
X035433Y029320D01*
Y030945D01*
X037094Y027520D02*
X037146D01*
X037058Y027556D02*
X037094Y027520D01*
X037146D02*
X037500Y027165D01*
X038346Y038819D02*
Y039291D01*
X038228Y038701D02*
X038346Y038819D01*
X038228Y025512D02*
Y038701D01*
X038386Y025591D02*
X040167Y023809D01*
X038228Y025512D02*
X039911Y023829D01*
X038087Y025013D02*
Y039041D01*
Y025013D02*
X039656Y023444D01*
X037756Y025092D02*
Y038937D01*
X040167Y023447D02*
Y023809D01*
X025760Y022377D02*
Y030010D01*
Y022377D02*
X025827Y022310D01*
X025591Y022146D02*
Y030217D01*
X030519Y026863D02*
Y030407D01*
Y026863D02*
X031004Y026378D01*
X031299D01*
X031693Y027733D02*
Y028346D01*
X031310Y027350D02*
X031693Y027733D01*
X031988Y027362D02*
Y029331D01*
D156*
X025878Y042913D02*
D03*
X045915Y044094D02*
D03*
D157*
Y051968D02*
D03*
D161*
X013491Y024225D02*
Y025795D01*
X014468Y026772D01*
X013976Y022933D02*
Y023094D01*
Y022539D02*
Y022933D01*
X013884Y020240D02*
Y022447D01*
X013976Y022539D01*
D162*
X030727Y021290D02*
X031084Y021646D01*
X031886D01*
X016535Y034843D02*
Y043504D01*
X029338Y023438D02*
X029512D01*
X031886Y022976D02*
X032634Y023724D01*
X031555Y024803D02*
X032634Y023724D01*
X031555Y024803D02*
Y025197D01*
X031302Y025450D02*
X031555Y025197D01*
X030878Y025450D02*
X031302D01*
X030578Y025150D02*
X030878Y025450D01*
X029680Y021290D02*
X030727D01*
X029508Y021462D02*
X029680Y021290D01*
X029508Y021462D02*
Y021594D01*
Y021969D01*
X029134Y022343D02*
X029508Y021969D01*
D164*
X028961Y016572D02*
X029755Y015778D01*
X036940D01*
X037106Y015945D01*
X021840Y018500D02*
X022950Y017390D01*
X028161D02*
X028961Y016590D01*
X022950Y017390D02*
X028161D01*
X043976Y019016D02*
Y019165D01*
X037106Y015945D02*
X043406D01*
X028961Y016572D02*
Y016590D01*
X020468Y035022D02*
Y035048D01*
X020485Y034747D02*
Y035006D01*
X020468Y035048D02*
Y035312D01*
X012697Y027258D02*
X020191Y034752D01*
X012697Y019882D02*
Y027258D01*
X020468Y035022D02*
X020485Y035006D01*
X014079Y018500D02*
X021840D01*
X012697Y019882D02*
X014079Y018500D01*
X043976Y016516D02*
Y018661D01*
X043406Y015945D02*
X043976Y016516D01*
D166*
X026457Y014301D02*
X026467Y014312D01*
Y015237D01*
X026496Y015266D01*
X029016D02*
X029103Y015178D01*
X029055Y014297D02*
Y014301D01*
Y014297D02*
X029080Y014272D01*
X030118D01*
X030315Y014469D02*
Y014764D01*
X030118Y014272D02*
X030315Y014469D01*
X029103Y015178D02*
X029900D01*
X030315Y014764D01*
X026585Y015354D02*
X027165D01*
X026496Y015266D02*
X026585Y015354D01*
X026457Y014301D02*
X027283D01*
X028228D02*
X029055D01*
X026331Y015391D02*
Y015618D01*
X026181Y015768D02*
X026331Y015618D01*
X026181Y015768D02*
Y015846D01*
D167*
X046260Y018327D02*
D03*
D168*
X048150Y017185D02*
D03*
D169*
X046260Y015945D02*
D03*
D170*
X013189Y015157D02*
D03*
X049803D02*
D03*
Y051772D02*
D03*
X013189D02*
D03*
D171*
X026878Y042913D02*
D03*
D172*
X047654Y041687D02*
D03*
Y041187D02*
D03*
X047154Y041687D02*
D03*
X046654D02*
D03*
X047154Y041187D02*
D03*
X046654D02*
D03*
X046154Y041687D02*
D03*
X045654D02*
D03*
X046154Y041187D02*
D03*
X045654D02*
D03*
D173*
X026457Y014301D02*
D03*
X029055D02*
D03*
D174*
X031299Y019138D02*
D03*
X034055D02*
D03*
X033071D02*
D03*
X032283D02*
D03*
X033071Y018106D02*
D03*
X032283D02*
D03*
X034055D02*
D03*
X031299D02*
D03*
D175*
X030091Y019276D02*
D03*
X035264D02*
D03*
Y017039D02*
D03*
X030091D02*
D03*
D176*
X042126Y040551D02*
D03*
X023228Y027559D02*
D03*
X042126D02*
D03*
X023228Y040551D02*
D03*
D177*
X015910Y019923D02*
D03*
X020310D02*
D03*
X015910Y020523D02*
D03*
X020310D02*
D03*
D178*
X015610Y017323D02*
D03*
X020610D02*
D03*
D179*
X015710Y025323D02*
D03*
X019510D02*
D03*
X016710D02*
D03*
X020510D02*
D03*
D180*
X014935Y016073D02*
D03*
X021285D02*
D03*
D181*
X020510Y024323D02*
D03*
X016110Y023323D02*
D03*
X015710Y024323D02*
D03*
X019710D02*
D03*
X018910D02*
D03*
X018510Y023323D02*
D03*
X019310D02*
D03*
X017710D02*
D03*
X016910D02*
D03*
X016510Y024323D02*
D03*
X017310D02*
D03*
D182*
X020110Y023323D02*
D03*
D183*
X023408Y015884D02*
D03*
X023900Y014900D02*
D03*
X025672D02*
D03*
X026164Y015884D02*
D03*
D184*
X037303Y017136D02*
D03*
X043012D02*
D03*
D185*
X037303Y014774D02*
D03*
X043012D02*
D03*
D186*
X024803Y018209D02*
D03*
X050186Y023667D02*
D03*
X049843Y023377D02*
D03*
X015050Y026150D02*
D03*
X021250Y028150D02*
D03*
X021550Y027750D02*
D03*
X027400Y030950D02*
D03*
X027900Y030500D02*
D03*
X037087Y029094D02*
D03*
X039367Y023449D02*
D03*
X038039Y022021D02*
D03*
X038200Y022200D02*
D03*
X038000Y022700D02*
D03*
X038043Y021695D02*
D03*
X050350Y032500D02*
D03*
X049250D02*
D03*
X021500Y039550D02*
D03*
X021550Y042100D02*
D03*
X021018Y039542D02*
D03*
X021260Y041260D02*
D03*
X021200Y042350D02*
D03*
X038583Y038622D02*
D03*
X013550Y046300D02*
D03*
X013500Y045900D02*
D03*
X012502Y045987D02*
D03*
X012750Y045900D02*
D03*
X012285Y046066D02*
D03*
X036850Y029600D02*
D03*
X032211Y030006D02*
D03*
X032462Y029724D02*
D03*
X032689D02*
D03*
X036850Y027150D02*
D03*
X048700Y029150D02*
D03*
X047400Y028750D02*
D03*
X026600Y023800D02*
D03*
X025950Y020700D02*
D03*
X024100Y020300D02*
D03*
X025800Y021700D02*
D03*
X022741Y021378D02*
D03*
Y021850D02*
D03*
X035827Y027657D02*
D03*
X046358Y036417D02*
D03*
X046752D02*
D03*
X046161Y038976D02*
D03*
X048622Y040846D02*
D03*
X049265Y034773D02*
D03*
X026378Y030709D02*
D03*
X033957Y031299D02*
D03*
X035061Y031297D02*
D03*
X033957Y024902D02*
D03*
X035039D02*
D03*
X034311Y022000D02*
D03*
X033661Y022835D02*
D03*
X033563Y023228D02*
D03*
X029921Y014567D02*
D03*
X026870Y016831D02*
D03*
X028248Y016339D02*
D03*
X027870Y016434D02*
D03*
X028000Y016039D02*
D03*
X034425Y023819D02*
D03*
X034197D02*
D03*
X026539Y016795D02*
D03*
X025409Y018209D02*
D03*
X025182D02*
D03*
X031102Y028642D02*
D03*
X026378Y016634D02*
D03*
X028340Y018370D02*
D03*
X033980Y022280D02*
D03*
X030080Y021585D02*
D03*
X033819Y022441D02*
D03*
X030032Y021807D02*
D03*
X031886Y021646D02*
D03*
X034941Y022244D02*
D03*
X035315Y027100D02*
D03*
X035433Y024882D02*
D03*
Y030945D02*
D03*
X033044Y029734D02*
D03*
X035472Y024252D02*
D03*
X033051Y023504D02*
D03*
X034594Y024921D02*
D03*
X034366D02*
D03*
X034239Y027656D02*
D03*
Y027100D02*
D03*
X034637Y031299D02*
D03*
X034409D02*
D03*
X042953Y042480D02*
D03*
X039646Y041417D02*
D03*
X039806Y041578D02*
D03*
X039409Y040472D02*
D03*
X039570Y040633D02*
D03*
X038425Y040472D02*
D03*
X038595Y040638D02*
D03*
X038346Y039291D02*
D03*
X037331Y039742D02*
D03*
X038087Y039041D02*
D03*
X037756Y038937D02*
D03*
X039733Y023720D02*
D03*
X043976Y018858D02*
D03*
Y019094D02*
D03*
X040312Y042192D02*
D03*
X042370Y023030D02*
D03*
X040152Y042032D02*
D03*
X042143Y023030D02*
D03*
X041740Y022670D02*
D03*
X041513D02*
D03*
X041259Y023140D02*
D03*
X041032D02*
D03*
X040767Y022890D02*
D03*
X040539D02*
D03*
X023228Y042402D02*
D03*
X033071Y024803D02*
D03*
X032087D02*
D03*
X050197Y026772D02*
D03*
Y027087D02*
D03*
Y027402D02*
D03*
Y027717D02*
D03*
Y028031D02*
D03*
Y028386D02*
D03*
Y028701D02*
D03*
X050058Y025105D02*
D03*
X049458Y025112D02*
D03*
X048991Y023331D02*
D03*
X048380Y023328D02*
D03*
X048229Y024223D02*
D03*
X041970Y022370D02*
D03*
X040850Y022450D02*
D03*
X020468Y035048D02*
D03*
X020485Y034747D02*
D03*
X020468Y035312D02*
D03*
X020191Y034752D02*
D03*
Y035320D02*
D03*
X021540Y037660D02*
D03*
X025591Y030217D02*
D03*
Y022146D02*
D03*
X032310Y027100D02*
D03*
X048169Y026575D02*
D03*
X048524D02*
D03*
X048169Y026870D02*
D03*
X048524D02*
D03*
X048169Y027165D02*
D03*
X048524D02*
D03*
X048169Y027461D02*
D03*
X048524D02*
D03*
X048169Y027756D02*
D03*
X048524D02*
D03*
X048169Y028051D02*
D03*
X048524D02*
D03*
X048169Y028346D02*
D03*
X048524D02*
D03*
X014269Y026560D02*
D03*
X014465Y026777D02*
D03*
X013491Y024225D02*
D03*
X013484Y024506D02*
D03*
X013974Y023137D02*
D03*
X013976Y022933D02*
D03*
X013884Y020240D02*
D03*
X013878Y020472D02*
D03*
X016535Y043504D02*
D03*
Y034843D02*
D03*
X031260Y042874D02*
D03*
X030748Y043425D02*
D03*
X030910Y042900D02*
D03*
X030749Y043061D02*
D03*
X031575Y046772D02*
D03*
X033307Y047087D02*
D03*
X038425Y040118D02*
D03*
X040787Y042205D02*
D03*
X040236Y041614D02*
D03*
X039606Y040984D02*
D03*
X039016Y040630D02*
D03*
X023622Y017992D02*
D03*
X021850Y019134D02*
D03*
X026772Y024016D02*
D03*
X026102Y023346D02*
D03*
X045079Y030610D02*
D03*
X044882Y030394D02*
D03*
X045276D02*
D03*
Y030827D02*
D03*
X044882D02*
D03*
X021417Y033209D02*
D03*
X021102D02*
D03*
X021594Y033504D02*
D03*
X020886D02*
D03*
X014154Y033150D02*
D03*
Y033504D02*
D03*
Y033819D02*
D03*
Y034134D02*
D03*
Y034409D02*
D03*
X014508Y038583D02*
D03*
Y039213D02*
D03*
Y039803D02*
D03*
X016201Y038583D02*
D03*
Y039252D02*
D03*
Y039764D02*
D03*
X019350Y035157D02*
D03*
Y035394D02*
D03*
Y035630D02*
D03*
Y035866D02*
D03*
X019361Y036108D02*
D03*
X049921Y045157D02*
D03*
X049685Y044449D02*
D03*
X047441Y044409D02*
D03*
X048543Y044606D02*
D03*
X047441Y044764D02*
D03*
X022362Y018819D02*
D03*
X021250Y027330D02*
D03*
X020340Y040940D02*
D03*
X043976Y018661D02*
D03*
Y019331D02*
D03*
X041278Y042140D02*
D03*
X049685Y046929D02*
D03*
X048583Y022500D02*
D03*
X048071D02*
D03*
X048583Y022972D02*
D03*
X048071D02*
D03*
X048839Y022717D02*
D03*
X048327D02*
D03*
X047815D02*
D03*
X049500Y023702D02*
D03*
Y024204D02*
D03*
X049494Y024704D02*
D03*
X048889Y024696D02*
D03*
X048878Y024213D02*
D03*
Y023701D02*
D03*
X048622Y023937D02*
D03*
Y024469D02*
D03*
X049213D02*
D03*
Y023937D02*
D03*
X049803Y023957D02*
D03*
X049803Y024488D02*
D03*
X049587Y025669D02*
D03*
X050098D02*
D03*
X050610D02*
D03*
X049843Y025433D02*
D03*
X050354D02*
D03*
Y025925D02*
D03*
X049843D02*
D03*
X045157Y027480D02*
D03*
Y027795D02*
D03*
Y028031D02*
D03*
X044843D02*
D03*
X044567D02*
D03*
X044291D02*
D03*
X044016D02*
D03*
X043740D02*
D03*
X046732Y026654D02*
D03*
Y027008D02*
D03*
Y027323D02*
D03*
Y027638D02*
D03*
Y027992D02*
D03*
X043204Y024123D02*
D03*
X042814Y022580D02*
D03*
X044303Y020689D02*
D03*
Y021304D02*
D03*
Y021969D02*
D03*
X044715Y021961D02*
D03*
X043934Y022500D02*
D03*
X044452Y022493D02*
D03*
X044462Y022966D02*
D03*
X043934Y022973D02*
D03*
X043692Y023238D02*
D03*
X043676Y022747D02*
D03*
X043664Y022268D02*
D03*
X044194D02*
D03*
X044708Y022282D02*
D03*
X044694Y022747D02*
D03*
X044678Y023312D02*
D03*
X044185Y023303D02*
D03*
X045667Y025008D02*
D03*
X045701Y025439D02*
D03*
X045730Y025919D02*
D03*
X046207Y025932D02*
D03*
X046211Y025448D02*
D03*
X046484Y025228D02*
D03*
X045962Y025231D02*
D03*
X045456Y025228D02*
D03*
X045466Y025693D02*
D03*
X045965Y025709D02*
D03*
X046472Y025693D02*
D03*
X046459Y026206D02*
D03*
X045972Y026193D02*
D03*
X045459Y026187D02*
D03*
X045953Y024213D02*
D03*
X045956Y024725D02*
D03*
X045937Y023565D02*
D03*
X044098Y023694D02*
D03*
X044076Y023911D02*
D03*
X044054Y024247D02*
D03*
X043674Y023936D02*
D03*
X042618Y023908D02*
D03*
X041945D02*
D03*
X045382Y024214D02*
D03*
X044787D02*
D03*
X045356Y023701D02*
D03*
X044783Y023720D02*
D03*
X044488Y023917D02*
D03*
X045651Y023971D02*
D03*
X045079Y023957D02*
D03*
X045669Y024469D02*
D03*
X045335Y024724D02*
D03*
X045079Y024469D02*
D03*
X044783Y024705D02*
D03*
X044478Y024490D02*
D03*
X036995Y023310D02*
D03*
X036155Y023300D02*
D03*
X031693Y028346D02*
D03*
X031299Y026378D02*
D03*
X032167Y027656D02*
D03*
X030340Y027120D02*
D03*
X031988Y027362D02*
D03*
X037500Y027165D02*
D03*
X029245Y022847D02*
D03*
X035000Y041050D02*
D03*
X031370Y027663D02*
D03*
X031310Y027350D02*
D03*
X031063Y027523D02*
D03*
X021630Y027260D02*
D03*
X027610Y016400D02*
D03*
X027400Y016720D02*
D03*
X027930Y014889D02*
D03*
X027980Y018990D02*
D03*
X027710Y019350D02*
D03*
X028030Y019680D02*
D03*
X027360Y018110D02*
D03*
X045940Y033290D02*
D03*
X046417Y033203D02*
D03*
X046200Y031680D02*
D03*
X045880Y031660D02*
D03*
X045480Y031770D02*
D03*
X045177Y031763D02*
D03*
X042244Y052205D02*
D03*
Y052520D02*
D03*
X044291Y052756D02*
D03*
X043898D02*
D03*
X041652Y043715D02*
D03*
X044882Y042677D02*
D03*
X044252Y042480D02*
D03*
X043937D02*
D03*
X043268D02*
D03*
X045472Y040354D02*
D03*
X050669D02*
D03*
Y034764D02*
D03*
X050197D02*
D03*
X045472Y034803D02*
D03*
X044055Y037520D02*
D03*
X044488Y037992D02*
D03*
X043740Y037520D02*
D03*
X032462Y024803D02*
D03*
X032689D02*
D03*
X044488Y028839D02*
D03*
X044094D02*
D03*
X044095Y030709D02*
D03*
X046161Y030315D02*
D03*
X030217Y040453D02*
D03*
X020193Y035024D02*
D03*
X039911Y023471D02*
D03*
X039656Y023444D02*
D03*
X034055Y040453D02*
D03*
X037331Y041032D02*
D03*
X021855Y021358D02*
D03*
Y021850D02*
D03*
X015059Y027061D02*
D03*
X015453Y027063D02*
D03*
X015846Y027066D02*
D03*
X029626Y042421D02*
D03*
X048327Y021457D02*
D03*
X048661Y021791D02*
D03*
X050748D02*
D03*
Y021122D02*
D03*
X047736Y021850D02*
D03*
X049016Y016929D02*
D03*
X027190Y020390D02*
D03*
X027220Y020730D02*
D03*
X027970Y022070D02*
D03*
X028180Y021860D02*
D03*
X030910Y024830D02*
D03*
X031174Y024713D02*
D03*
X031878Y021292D02*
D03*
X023480Y023720D02*
D03*
X024270D02*
D03*
X024287Y025197D02*
D03*
X023543D02*
D03*
X048439Y046161D02*
D03*
X048830Y046850D02*
D03*
X048740Y046336D02*
D03*
X048733Y046563D02*
D03*
X048480Y046941D02*
D03*
Y047168D02*
D03*
X048850Y047200D02*
D03*
X048447Y047933D02*
D03*
Y048524D02*
D03*
Y049114D02*
D03*
Y049705D02*
D03*
Y050295D02*
D03*
Y050886D02*
D03*
Y051476D02*
D03*
Y051673D02*
D03*
X029660Y026620D02*
D03*
X034843Y027100D02*
D03*
X033898D02*
D03*
X033110D02*
D03*
X031535D02*
D03*
X030748D02*
D03*
X037362Y027656D02*
D03*
X035472D02*
D03*
X034843D02*
D03*
X033740D02*
D03*
X032953D02*
D03*
X030748D02*
D03*
X029803D02*
D03*
X030276D02*
D03*
X036890Y039746D02*
D03*
X036417D02*
D03*
X035945D02*
D03*
X035472D02*
D03*
X035000D02*
D03*
X034528D02*
D03*
X032638D02*
D03*
X032165D02*
D03*
X031693D02*
D03*
X031220D02*
D03*
X030748D02*
D03*
X036890Y041030D02*
D03*
X036417Y041037D02*
D03*
X035945Y041035D02*
D03*
X035472Y041018D02*
D03*
X034528Y041638D02*
D03*
X034055Y041655D02*
D03*
X033583Y041677D02*
D03*
X033110Y041680D02*
D03*
X032638Y041678D02*
D03*
X032165Y041045D02*
D03*
X031693Y041047D02*
D03*
X031220Y041040D02*
D03*
X030748Y041038D02*
D03*
X030276Y041036D02*
D03*
X029823Y042126D02*
D03*
X032634Y023724D02*
D03*
X029134Y022343D02*
D03*
X028456Y022246D02*
D03*
X028440Y023440D02*
D03*
X029338Y023438D02*
D03*
X029150Y024330D02*
D03*
X029365Y024585D02*
D03*
X030190Y024713D02*
D03*
X045520Y045630D02*
D03*
X045810Y045840D02*
D03*
X031208Y025190D02*
D03*
X030224Y025150D02*
D03*
X031555Y025197D02*
D03*
X030578Y025150D02*
D03*
X029803Y021614D02*
D03*
X029154Y021594D02*
D03*
X029508Y021594D02*
D03*
X029035Y021122D02*
D03*
X031476Y020531D02*
D03*
X038376Y023414D02*
D03*
X040167Y023447D02*
D03*
X038780Y016700D02*
D03*
X039961Y016719D02*
D03*
X040551Y016709D02*
D03*
X041142Y016702D02*
D03*
X041732Y016702D02*
D03*
X033570Y046980D02*
D03*
Y047207D02*
D03*
X031830Y046897D02*
D03*
Y046670D02*
D03*
X033071Y019831D02*
D03*
Y020709D02*
D03*
X048760Y047524D02*
D03*
Y047751D02*
D03*
D187*
X031213Y023005D02*
D03*
X030780D02*
D03*
X030347D02*
D03*
X031213Y023438D02*
D03*
X030780D02*
D03*
X030347D02*
D03*
X031213Y023871D02*
D03*
X030780D02*
D03*
X030347D02*
D03*
D213*
X027756Y015354D02*
D03*
X028012D02*
D03*
X028268D02*
D03*
X027500D02*
D03*
X027244D02*
D03*
D214*
X028228Y014301D02*
D03*
X027283D02*
D03*
D215*
X026496Y015266D02*
D03*
X029016D02*
D03*
M02*
