G04*
G04 #@! TF.GenerationSoftware,Altium Limited,Altium Designer,22.1.2 (22)*
G04*
G04 Layer_Physical_Order=1*
G04 Layer_Color=255*
%FSAX24Y24*%
%MOIN*%
G70*
G04*
G04 #@! TF.SameCoordinates,7F836DD3-99AF-427D-BE5B-C3016D41F6B7*
G04*
G04*
G04 #@! TF.FilePolarity,Positive*
G04*
G01*
G75*
%ADD14C,0.0100*%
%ADD19C,0.0150*%
%ADD20C,0.0080*%
%ADD26R,0.0217X0.0098*%
%ADD29R,0.0413X0.0551*%
%ADD30R,0.0244X0.0244*%
G04:AMPARAMS|DCode=31|XSize=22.2mil|YSize=7.9mil|CornerRadius=2mil|HoleSize=0mil|Usage=FLASHONLY|Rotation=0.000|XOffset=0mil|YOffset=0mil|HoleType=Round|Shape=RoundedRectangle|*
%AMROUNDEDRECTD31*
21,1,0.0222,0.0039,0,0,0.0*
21,1,0.0183,0.0079,0,0,0.0*
1,1,0.0039,0.0092,-0.0020*
1,1,0.0039,-0.0092,-0.0020*
1,1,0.0039,-0.0092,0.0020*
1,1,0.0039,0.0092,0.0020*
%
%ADD31ROUNDEDRECTD31*%
%ADD32R,0.0354X0.0236*%
%ADD33R,0.1250X0.1250*%
%ADD34R,0.0228X0.0244*%
%ADD35R,0.0244X0.0244*%
G04:AMPARAMS|DCode=36|XSize=31.5mil|YSize=94.5mil|CornerRadius=15.7mil|HoleSize=0mil|Usage=FLASHONLY|Rotation=270.000|XOffset=0mil|YOffset=0mil|HoleType=Round|Shape=RoundedRectangle|*
%AMROUNDEDRECTD36*
21,1,0.0315,0.0630,0,0,270.0*
21,1,0.0000,0.0945,0,0,270.0*
1,1,0.0315,-0.0315,0.0000*
1,1,0.0315,-0.0315,0.0000*
1,1,0.0315,0.0315,0.0000*
1,1,0.0315,0.0315,0.0000*
%
%ADD36ROUNDEDRECTD36*%
G04:AMPARAMS|DCode=37|XSize=94.5mil|YSize=31.5mil|CornerRadius=15.7mil|HoleSize=0mil|Usage=FLASHONLY|Rotation=270.000|XOffset=0mil|YOffset=0mil|HoleType=Round|Shape=RoundedRectangle|*
%AMROUNDEDRECTD37*
21,1,0.0945,0.0000,0,0,270.0*
21,1,0.0630,0.0315,0,0,270.0*
1,1,0.0315,0.0000,-0.0315*
1,1,0.0315,0.0000,0.0315*
1,1,0.0315,0.0000,0.0315*
1,1,0.0315,0.0000,-0.0315*
%
%ADD37ROUNDEDRECTD37*%
%ADD38R,0.0890X0.0850*%
%ADD39R,0.0433X0.0571*%
%ADD40R,0.1083X0.0472*%
%ADD41R,0.0610X0.0118*%
%ADD42R,0.0394X0.0354*%
%ADD43R,0.0244X0.0228*%
%ADD44R,0.0335X0.0689*%
%ADD45R,0.0691X0.0240*%
G04:AMPARAMS|DCode=46|XSize=69.1mil|YSize=24mil|CornerRadius=12mil|HoleSize=0mil|Usage=FLASHONLY|Rotation=0.000|XOffset=0mil|YOffset=0mil|HoleType=Round|Shape=RoundedRectangle|*
%AMROUNDEDRECTD46*
21,1,0.0691,0.0000,0,0,0.0*
21,1,0.0451,0.0240,0,0,0.0*
1,1,0.0240,0.0226,0.0000*
1,1,0.0240,-0.0226,0.0000*
1,1,0.0240,-0.0226,0.0000*
1,1,0.0240,0.0226,0.0000*
%
%ADD46ROUNDEDRECTD46*%
%ADD47R,0.0433X0.0866*%
%ADD48R,0.0394X0.0433*%
G04:AMPARAMS|DCode=49|XSize=48.7mil|YSize=8.4mil|CornerRadius=4.2mil|HoleSize=0mil|Usage=FLASHONLY|Rotation=180.000|XOffset=0mil|YOffset=0mil|HoleType=Round|Shape=RoundedRectangle|*
%AMROUNDEDRECTD49*
21,1,0.0487,0.0000,0,0,180.0*
21,1,0.0404,0.0084,0,0,180.0*
1,1,0.0084,-0.0202,0.0000*
1,1,0.0084,0.0202,0.0000*
1,1,0.0084,0.0202,0.0000*
1,1,0.0084,-0.0202,0.0000*
%
%ADD49ROUNDEDRECTD49*%
%ADD50R,0.0487X0.0084*%
%ADD51R,0.0236X0.0236*%
G04:AMPARAMS|DCode=52|XSize=71.1mil|YSize=24.1mil|CornerRadius=12.1mil|HoleSize=0mil|Usage=FLASHONLY|Rotation=270.000|XOffset=0mil|YOffset=0mil|HoleType=Round|Shape=RoundedRectangle|*
%AMROUNDEDRECTD52*
21,1,0.0711,0.0000,0,0,270.0*
21,1,0.0470,0.0241,0,0,270.0*
1,1,0.0241,0.0000,-0.0235*
1,1,0.0241,0.0000,0.0235*
1,1,0.0241,0.0000,0.0235*
1,1,0.0241,0.0000,-0.0235*
%
%ADD52ROUNDEDRECTD52*%
%ADD53R,0.0241X0.0711*%
G04:AMPARAMS|DCode=54|XSize=71.1mil|YSize=24.1mil|CornerRadius=12.1mil|HoleSize=0mil|Usage=FLASHONLY|Rotation=0.000|XOffset=0mil|YOffset=0mil|HoleType=Round|Shape=RoundedRectangle|*
%AMROUNDEDRECTD54*
21,1,0.0711,0.0000,0,0,0.0*
21,1,0.0470,0.0241,0,0,0.0*
1,1,0.0241,0.0235,0.0000*
1,1,0.0241,-0.0235,0.0000*
1,1,0.0241,-0.0235,0.0000*
1,1,0.0241,0.0235,0.0000*
%
%ADD54ROUNDEDRECTD54*%
%ADD55R,0.0711X0.0241*%
%ADD56R,0.0079X0.0276*%
%ADD57R,0.0787X0.1181*%
%ADD58R,0.0492X0.1575*%
%ADD59R,0.0433X0.0748*%
%ADD60R,0.0110X0.1024*%
%ADD61R,0.0177X0.0581*%
G04:AMPARAMS|DCode=62|XSize=65.3mil|YSize=24.7mil|CornerRadius=12.3mil|HoleSize=0mil|Usage=FLASHONLY|Rotation=180.000|XOffset=0mil|YOffset=0mil|HoleType=Round|Shape=RoundedRectangle|*
%AMROUNDEDRECTD62*
21,1,0.0653,0.0000,0,0,180.0*
21,1,0.0406,0.0247,0,0,180.0*
1,1,0.0247,-0.0203,0.0000*
1,1,0.0247,0.0203,0.0000*
1,1,0.0247,0.0203,0.0000*
1,1,0.0247,-0.0203,0.0000*
%
%ADD62ROUNDEDRECTD62*%
%ADD63R,0.0653X0.0247*%
%ADD64R,0.0571X0.0433*%
%ADD65R,0.0118X0.0118*%
%ADD66R,0.0118X0.0354*%
%ADD67R,0.0354X0.0118*%
%ADD68R,0.0394X0.0394*%
%ADD69R,0.0866X0.0610*%
%ADD70R,0.0827X0.0500*%
%ADD71R,0.0394X0.0394*%
%ADD72R,0.0413X0.0551*%
%ADD73R,0.0512X0.0433*%
%ADD74C,0.0364*%
%ADD75R,0.0433X0.0394*%
%ADD76R,0.0433X0.0354*%
%ADD77R,0.0157X0.0354*%
%ADD78R,0.0394X0.0236*%
%ADD79R,0.0709X0.0492*%
%ADD80R,0.0217X0.0315*%
%ADD81R,0.0551X0.0453*%
%ADD82R,0.0354X0.0315*%
%ADD83R,0.0551X0.0413*%
%ADD84R,0.0236X0.0512*%
%ADD85R,0.0276X0.0165*%
%ADD86R,0.0213X0.0165*%
%ADD87R,0.0673X0.0933*%
G04:AMPARAMS|DCode=88|XSize=7.9mil|YSize=22.2mil|CornerRadius=2mil|HoleSize=0mil|Usage=FLASHONLY|Rotation=0.000|XOffset=0mil|YOffset=0mil|HoleType=Round|Shape=RoundedRectangle|*
%AMROUNDEDRECTD88*
21,1,0.0079,0.0183,0,0,0.0*
21,1,0.0039,0.0222,0,0,0.0*
1,1,0.0039,0.0020,-0.0092*
1,1,0.0039,-0.0020,-0.0092*
1,1,0.0039,-0.0020,0.0092*
1,1,0.0039,0.0020,0.0092*
%
%ADD88ROUNDEDRECTD88*%
%ADD89O,0.0354X0.0110*%
%ADD90O,0.0110X0.0354*%
%ADD91R,0.1457X0.1457*%
G04:AMPARAMS|DCode=95|XSize=22.2mil|YSize=15.7mil|CornerRadius=2mil|HoleSize=0mil|Usage=FLASHONLY|Rotation=0.000|XOffset=0mil|YOffset=0mil|HoleType=Round|Shape=RoundedRectangle|*
%AMROUNDEDRECTD95*
21,1,0.0222,0.0118,0,0,0.0*
21,1,0.0183,0.0157,0,0,0.0*
1,1,0.0039,0.0092,-0.0059*
1,1,0.0039,-0.0092,-0.0059*
1,1,0.0039,-0.0092,0.0059*
1,1,0.0039,0.0092,0.0059*
%
%ADD95ROUNDEDRECTD95*%
%ADD102R,0.0394X0.0669*%
%ADD114R,0.0709X0.0709*%
%ADD137C,0.0433*%
%ADD138C,0.0630*%
%ADD158R,0.1575X0.1575*%
%ADD159C,0.0394*%
G04:AMPARAMS|DCode=160|XSize=15.7mil|YSize=22.2mil|CornerRadius=2mil|HoleSize=0mil|Usage=FLASHONLY|Rotation=0.000|XOffset=0mil|YOffset=0mil|HoleType=Round|Shape=RoundedRectangle|*
%AMROUNDEDRECTD160*
21,1,0.0157,0.0183,0,0,0.0*
21,1,0.0118,0.0222,0,0,0.0*
1,1,0.0039,0.0059,-0.0092*
1,1,0.0039,-0.0059,-0.0092*
1,1,0.0039,-0.0059,0.0092*
1,1,0.0039,0.0059,0.0092*
%
%ADD160ROUNDEDRECTD160*%
%ADD161C,0.0200*%
%ADD162C,0.0800*%
%ADD163C,0.0400*%
%ADD164C,0.0300*%
%ADD165C,0.0120*%
%ADD166C,0.0700*%
%ADD167C,0.0650*%
%ADD168R,0.0650X0.0650*%
%ADD169C,0.0413*%
%ADD170C,0.2362*%
%ADD171O,0.1772X0.0709*%
%ADD172O,0.0709X0.1575*%
%ADD173O,0.1575X0.0709*%
%ADD174R,0.0630X0.0630*%
%ADD175O,0.0354X0.0630*%
%ADD176C,0.0559*%
%ADD177C,0.1358*%
%ADD178C,0.1969*%
%ADD179C,0.0540*%
%ADD180C,0.1280*%
%ADD181C,0.0675*%
%ADD182C,0.0930*%
%ADD183C,0.0600*%
%ADD184R,0.0600X0.0600*%
%ADD185C,0.0591*%
%ADD186O,0.0591X0.1299*%
%ADD187O,0.0591X0.1063*%
%ADD188C,0.0177*%
%ADD189C,0.0197*%
G36*
X043701Y052657D02*
X043701Y052362D01*
X043726Y052322D01*
Y052285D01*
X043898D01*
Y052185D01*
X043998D01*
Y052013D01*
X044069D01*
X044070Y052013D01*
X044119D01*
X044120Y052013D01*
X044191D01*
Y052185D01*
X044291D01*
Y052285D01*
X044463D01*
Y052357D01*
X044511Y052362D01*
X045472D01*
Y051280D01*
X045375D01*
Y051475D01*
X045020D01*
Y051290D01*
X044665D01*
Y051280D01*
X044665D01*
Y051278D01*
X044587D01*
Y050691D01*
X044665D01*
Y050689D01*
X044665D01*
Y050678D01*
X045020D01*
Y050494D01*
X045020D01*
Y050297D01*
X045020D01*
Y050097D01*
X045020D01*
Y049912D01*
X044665D01*
Y049902D01*
X044665D01*
Y049900D01*
X044587D01*
Y045079D01*
X044665D01*
Y044970D01*
X045020D01*
Y044785D01*
X045375D01*
Y044987D01*
X045472D01*
Y043110D01*
X045102D01*
X045054Y043115D01*
X045054Y043160D01*
Y043187D01*
X044882D01*
X044710D01*
Y043115D01*
X044662Y043110D01*
X042609D01*
Y043168D01*
X042609Y043180D01*
Y043218D01*
X042609Y043230D01*
Y043286D01*
X042155D01*
Y043230D01*
X042155Y043218D01*
Y043180D01*
X042155Y043168D01*
Y043110D01*
X041831D01*
Y050787D01*
X042815Y051772D01*
Y052027D01*
X042826D01*
Y052668D01*
X042913Y052756D01*
X043602D01*
X043701Y052657D01*
D02*
G37*
G36*
X021654Y035925D02*
Y033957D01*
X018996D01*
Y034055D01*
Y034547D01*
X019783Y035335D01*
X020472Y036024D01*
X021555Y036024D01*
X021654Y035925D01*
D02*
G37*
G36*
X044715Y027166D02*
X044578D01*
Y026909D01*
Y026653D01*
X044715D01*
Y025098D01*
X044094D01*
Y024991D01*
X043818D01*
Y024508D01*
X037795D01*
X037106Y023819D01*
Y023707D01*
X037101Y023681D01*
X037106Y023655D01*
Y023524D01*
X036970D01*
Y023581D01*
X036179D01*
Y023524D01*
X036047D01*
X035999Y023529D01*
Y023601D01*
X035827D01*
Y023801D01*
X035999D01*
Y023873D01*
X035784D01*
X035743Y023919D01*
Y024664D01*
X035736Y024699D01*
X035716Y024729D01*
X035680Y024765D01*
Y026575D01*
X038091D01*
Y027264D01*
X041134D01*
X041168Y027162D01*
X041241Y027017D01*
X041337Y026885D01*
X041452Y026770D01*
X041584Y026674D01*
X041729Y026601D01*
X041884Y026550D01*
X042045Y026525D01*
X042207D01*
X042368Y026550D01*
X042523Y026601D01*
X042668Y026674D01*
X042800Y026770D01*
X042915Y026885D01*
X043011Y027017D01*
X043084Y027162D01*
X043118Y027264D01*
X044715D01*
Y027166D01*
D02*
G37*
G36*
X049862Y026732D02*
X050372Y026222D01*
X050352Y026172D01*
X050257D01*
Y025925D01*
X050057D01*
Y026172D01*
X049746D01*
Y025925D01*
X049546D01*
Y026172D01*
X049234D01*
Y025925D01*
X049034D01*
Y026172D01*
X048900D01*
X048880Y026222D01*
X049035Y026378D01*
Y026601D01*
X049054Y026643D01*
X049085Y026643D01*
X049211D01*
Y026969D01*
Y027294D01*
X049085D01*
X049054Y027294D01*
X049035Y027336D01*
Y027388D01*
X049054Y027430D01*
X049085Y027430D01*
X049211D01*
Y027756D01*
Y028082D01*
X049085D01*
X049054Y028082D01*
X049035Y028124D01*
Y028176D01*
X049054Y028218D01*
X049085Y028218D01*
X049211D01*
Y028543D01*
Y028869D01*
X049094D01*
X049079Y028885D01*
X049065Y028919D01*
X049075Y028937D01*
X049862D01*
Y026732D01*
D02*
G37*
G36*
X050257Y025206D02*
X050278D01*
X050298Y025160D01*
X050256Y025118D01*
X049902D01*
X049823Y025039D01*
Y023425D01*
X049665Y023268D01*
X048885D01*
X048878Y023272D01*
X048831Y023281D01*
X048826Y023280D01*
X048821Y023282D01*
X048760D01*
X048724Y023268D01*
X048681D01*
Y023257D01*
X048652Y023219D01*
X048486D01*
Y022972D01*
X048286D01*
Y023219D01*
X047974D01*
Y022972D01*
X047774D01*
Y023219D01*
X047462D01*
Y022972D01*
X047362D01*
Y022872D01*
X047096D01*
Y022726D01*
Y022600D01*
X047362D01*
Y022500D01*
X047462D01*
Y022253D01*
X047774D01*
Y022500D01*
X047974D01*
Y022253D01*
X048286D01*
Y022500D01*
X048486D01*
Y022253D01*
X048585D01*
X048605Y022207D01*
X048484Y022087D01*
Y021838D01*
X048475Y021792D01*
X048434Y021792D01*
X048309D01*
Y021457D01*
X048209D01*
Y021357D01*
X047942D01*
X047942Y021121D01*
X047894Y021117D01*
X047800D01*
X047480Y021438D01*
X047459Y021472D01*
X047456Y021505D01*
Y021542D01*
X047283D01*
Y021642D01*
X047183D01*
Y021806D01*
X047111D01*
X047106Y021854D01*
Y022165D01*
X046992Y022280D01*
Y023307D01*
X047657D01*
Y023898D01*
X046988D01*
Y024082D01*
X047012Y024106D01*
X047032Y024135D01*
X047039Y024170D01*
Y024400D01*
X047046Y024406D01*
X047059Y024404D01*
X047096Y024382D01*
Y024313D01*
X047362D01*
X047629D01*
Y024440D01*
X047675Y024449D01*
X047697D01*
X047776Y024528D01*
Y024972D01*
X047814Y024992D01*
X047863Y024972D01*
Y024824D01*
X048169D01*
Y024624D01*
X047863D01*
Y024458D01*
Y024313D01*
X048169D01*
Y024113D01*
X047863D01*
Y023946D01*
Y023801D01*
X048169D01*
Y023701D01*
X048269D01*
Y023434D01*
X048660D01*
Y023701D01*
X048860D01*
Y023434D01*
X049066D01*
Y023622D01*
X049094Y023628D01*
Y023917D01*
X049488D01*
X049500Y023946D01*
X049656D01*
Y024113D01*
X049350D01*
Y024313D01*
X049656D01*
Y024458D01*
Y024624D01*
X049350D01*
Y024724D01*
X049250D01*
Y024991D01*
X048743D01*
X048722Y025041D01*
X048839Y025157D01*
Y025168D01*
X048867Y025206D01*
X049034D01*
Y025453D01*
X049234D01*
Y025206D01*
X049546D01*
Y025453D01*
X049746D01*
Y025206D01*
X050057D01*
Y025453D01*
X050257D01*
Y025206D01*
D02*
G37*
G36*
X046855Y028082D02*
X046734D01*
Y027756D01*
Y027430D01*
X046855D01*
Y027294D01*
X046734D01*
Y026969D01*
Y026643D01*
X046855D01*
Y025163D01*
X046791Y025098D01*
X045807D01*
X045657Y024949D01*
X045611Y024968D01*
Y024991D01*
X045405D01*
Y024724D01*
X045205D01*
Y024991D01*
X044786D01*
X044765Y025041D01*
X044823Y025098D01*
Y025206D01*
X044989D01*
Y025453D01*
X045189D01*
Y025206D01*
X045500D01*
Y025453D01*
X045700D01*
Y025206D01*
X046012D01*
Y025453D01*
X046112D01*
Y025553D01*
X046379D01*
Y025678D01*
Y025825D01*
X046112D01*
Y025925D01*
X046012D01*
Y026172D01*
X045700D01*
Y025925D01*
X045500D01*
Y026172D01*
X045189D01*
Y025925D01*
X044989D01*
Y026172D01*
X044823D01*
Y027165D01*
X044769Y027220D01*
Y027264D01*
X044753Y027302D01*
X044730Y027311D01*
X044740Y027361D01*
X044804D01*
Y027518D01*
X044478D01*
X044153D01*
Y027362D01*
X044017D01*
Y027518D01*
X043691D01*
X043365D01*
Y027362D01*
X043180D01*
X043148Y027400D01*
X043160Y027478D01*
Y027640D01*
X043135Y027801D01*
X043084Y027956D01*
X043011Y028101D01*
X043008Y028105D01*
X043030Y028150D01*
X045413D01*
X045709Y028445D01*
X046855D01*
Y028082D01*
D02*
G37*
G36*
X048957Y026476D02*
X048760Y026280D01*
Y025197D01*
X048661Y025098D01*
X047677D01*
Y025073D01*
X047629Y025070D01*
X047627Y025070D01*
X047462D01*
Y024843D01*
Y024615D01*
X047616D01*
X047642Y024571D01*
X047579Y024508D01*
X047087D01*
X047039Y024555D01*
Y026635D01*
X047086Y026643D01*
X047089Y026643D01*
X047243D01*
Y026969D01*
Y027294D01*
X047089D01*
X047086Y027294D01*
X047039Y027302D01*
Y027423D01*
X047086Y027430D01*
X047089Y027430D01*
X047243D01*
Y027756D01*
Y028082D01*
X047089D01*
X047086Y028082D01*
X047039Y028089D01*
Y028937D01*
X048957D01*
Y026476D01*
D02*
G37*
G36*
X043818Y024313D02*
X044124D01*
Y024113D01*
X043818D01*
Y023946D01*
Y023801D01*
X044124D01*
Y023701D01*
X044224D01*
Y023434D01*
X044481D01*
X044528Y023425D01*
Y023219D01*
X044441D01*
Y022972D01*
X044241D01*
Y023219D01*
X043929D01*
Y022972D01*
X043729D01*
Y023219D01*
X043417D01*
Y022972D01*
X043317D01*
Y022872D01*
X043050D01*
Y022726D01*
Y022600D01*
X043317D01*
Y022500D01*
X043417D01*
Y022253D01*
X043729D01*
Y022500D01*
X043929D01*
Y022253D01*
X044241D01*
Y022500D01*
X044441D01*
Y022253D01*
X044528D01*
Y021778D01*
X044390D01*
Y021442D01*
Y021107D01*
X044528D01*
Y021005D01*
X044372D01*
Y020669D01*
Y020334D01*
X044422D01*
X044441Y020288D01*
X044331Y020177D01*
X042559D01*
X042411Y020325D01*
X042430Y020371D01*
X042518D01*
Y020846D01*
X042618D01*
Y020946D01*
X043113D01*
Y021322D01*
X042997D01*
Y021376D01*
X042825D01*
Y021576D01*
X042997D01*
Y021641D01*
X042997D01*
Y021682D01*
X042997D01*
Y022011D01*
X042927D01*
Y023327D01*
X043543D01*
Y023356D01*
X043583D01*
Y023810D01*
X043543D01*
Y023819D01*
X040197D01*
Y024409D01*
X040265D01*
Y024254D01*
X040591D01*
X040916D01*
Y024409D01*
X041052D01*
Y024254D01*
X041378D01*
X041704D01*
Y024409D01*
X041840D01*
Y024254D01*
X042165D01*
X042491D01*
Y024409D01*
X043050D01*
Y024313D01*
X043317D01*
X043583D01*
Y024409D01*
X043740D01*
Y024454D01*
X043818D01*
Y024313D01*
D02*
G37*
G36*
X045561Y023681D02*
X045364Y023484D01*
X045049D01*
Y023917D01*
X045561D01*
Y023681D01*
D02*
G37*
G36*
X045644Y023312D02*
X045686Y023269D01*
X045666Y023219D01*
X045189D01*
Y022972D01*
X045089D01*
Y022872D01*
X044822D01*
Y022726D01*
Y022600D01*
X045089D01*
Y022500D01*
X045189D01*
Y022253D01*
X045500D01*
Y022500D01*
X045700D01*
Y022253D01*
X046012D01*
Y022500D01*
X046212D01*
Y022253D01*
X046299D01*
Y021161D01*
X046324Y021137D01*
Y021107D01*
X046353D01*
X046398Y021063D01*
X048563D01*
Y022047D01*
X048760Y022244D01*
Y023228D01*
X048821D01*
X048867Y023219D01*
X048867Y023178D01*
Y023072D01*
X049134D01*
Y022872D01*
X048867D01*
Y022726D01*
Y022600D01*
X049134D01*
Y022500D01*
X049234D01*
Y022253D01*
X049546D01*
Y022500D01*
X049746D01*
Y022253D01*
X050057D01*
Y022500D01*
X050157D01*
Y022600D01*
X050424D01*
Y022726D01*
Y022872D01*
X050157D01*
Y023072D01*
X050424D01*
Y023219D01*
X050470Y023228D01*
X050630D01*
Y017314D01*
X050553D01*
Y017106D01*
Y016899D01*
X050630D01*
Y016831D01*
X049941D01*
Y017913D01*
X049807D01*
Y017969D01*
X049812Y018017D01*
X049900D01*
Y018150D01*
X050000D01*
Y018250D01*
X050188D01*
Y018273D01*
Y018306D01*
X050000D01*
Y018506D01*
X050188D01*
Y018529D01*
Y018561D01*
X050000D01*
Y018761D01*
X050188D01*
Y018785D01*
Y019050D01*
X049812D01*
Y019017D01*
X049784Y019012D01*
X049751Y018989D01*
X049667Y018906D01*
X049617Y018926D01*
Y019050D01*
X049252D01*
Y019094D01*
X048601D01*
Y019276D01*
X048087D01*
Y019094D01*
X047853D01*
Y019276D01*
X047339D01*
Y019094D01*
X046101D01*
X046074Y019133D01*
X046074Y019144D01*
Y019388D01*
X045591D01*
X045107D01*
Y019144D01*
X045107Y019133D01*
X045080Y019094D01*
X044487D01*
X044459Y019133D01*
Y019843D01*
X044429D01*
Y020177D01*
X044626Y020374D01*
Y023327D01*
X045634D01*
X045644Y023312D01*
D02*
G37*
%LPC*%
G36*
X043534Y052698D02*
X043368D01*
Y052462D01*
X043534D01*
Y052698D01*
D02*
G37*
G36*
X043168D02*
X043001D01*
Y052462D01*
X043168D01*
Y052698D01*
D02*
G37*
G36*
X043534Y052262D02*
X043368D01*
Y052027D01*
X043534D01*
Y052262D01*
D02*
G37*
G36*
X043168D02*
X043001D01*
Y052027D01*
X043168D01*
Y052262D01*
D02*
G37*
G36*
X044463Y052085D02*
X044391D01*
Y052013D01*
X044463D01*
Y052085D01*
D02*
G37*
G36*
X043798Y052085D02*
X043726D01*
Y052013D01*
X043798D01*
Y052085D01*
D02*
G37*
G36*
X045375Y051684D02*
X045120D01*
Y051675D01*
X045375D01*
Y051684D01*
D02*
G37*
G36*
X044920D02*
X044665D01*
Y051675D01*
X044920D01*
Y051684D01*
D02*
G37*
G36*
X045375Y044388D02*
X045120D01*
Y044379D01*
X045375D01*
Y044388D01*
D02*
G37*
G36*
X044920D02*
X044665D01*
Y044379D01*
X044920D01*
Y044388D01*
D02*
G37*
G36*
X044430Y043731D02*
X044194D01*
Y043565D01*
X044430D01*
Y043731D01*
D02*
G37*
G36*
X043446D02*
X043210D01*
Y043565D01*
X043446D01*
Y043731D01*
D02*
G37*
G36*
X043994D02*
X043759D01*
Y043565D01*
X043994D01*
Y043731D01*
D02*
G37*
G36*
X043010D02*
X042775D01*
Y043565D01*
X043010D01*
Y043731D01*
D02*
G37*
G36*
X042609Y043554D02*
X042482D01*
Y043486D01*
X042609D01*
Y043554D01*
D02*
G37*
G36*
X042282D02*
X042155D01*
Y043486D01*
X042282D01*
Y043554D01*
D02*
G37*
G36*
X045054Y043459D02*
X044982D01*
Y043387D01*
X045054D01*
Y043459D01*
D02*
G37*
G36*
X044782D02*
X044710D01*
Y043387D01*
X044782D01*
Y043459D01*
D02*
G37*
G36*
X044430Y043365D02*
X044194D01*
Y043198D01*
X044430D01*
Y043365D01*
D02*
G37*
G36*
X043994D02*
X043759D01*
Y043198D01*
X043994D01*
Y043365D01*
D02*
G37*
G36*
X043446D02*
X043210D01*
Y043198D01*
X043446D01*
Y043365D01*
D02*
G37*
G36*
X043010D02*
X042775D01*
Y043198D01*
X043010D01*
Y043365D01*
D02*
G37*
G36*
X044017Y027166D02*
X043791D01*
Y027009D01*
X044017D01*
Y027166D01*
D02*
G37*
G36*
X043591D02*
X043365D01*
Y027009D01*
X043591D01*
Y027166D01*
D02*
G37*
G36*
X044378D02*
X044153D01*
Y027009D01*
X044378D01*
Y027166D01*
D02*
G37*
G36*
Y026809D02*
X044153D01*
Y026653D01*
X044378D01*
Y026809D01*
D02*
G37*
G36*
X044017Y026809D02*
X043791D01*
Y026653D01*
X044017D01*
Y026809D01*
D02*
G37*
G36*
X043591D02*
X043365D01*
Y026653D01*
X043591D01*
Y026809D01*
D02*
G37*
G36*
X044607Y026172D02*
X044441D01*
Y026025D01*
X044607D01*
Y026172D01*
D02*
G37*
G36*
X043217D02*
X043050D01*
Y026025D01*
X043217D01*
Y026172D01*
D02*
G37*
G36*
X044241D02*
X043929D01*
Y025925D01*
X043729D01*
Y026172D01*
X043417D01*
Y025925D01*
X043317D01*
Y025825D01*
X043050D01*
Y025678D01*
Y025553D01*
X043317D01*
Y025453D01*
X043417D01*
Y025206D01*
X043729D01*
Y025453D01*
X043929D01*
Y025206D01*
X044241D01*
Y025453D01*
X044341D01*
Y025553D01*
X044607D01*
Y025678D01*
Y025825D01*
X044341D01*
Y025925D01*
X044241D01*
Y026172D01*
D02*
G37*
G36*
X044607Y025353D02*
X044441D01*
Y025206D01*
X044607D01*
Y025353D01*
D02*
G37*
G36*
X043217D02*
X043050D01*
Y025206D01*
X043217D01*
Y025353D01*
D02*
G37*
G36*
X042491Y025119D02*
X042265D01*
Y024962D01*
X042491D01*
Y025119D01*
D02*
G37*
G36*
X042065D02*
X041840D01*
Y024962D01*
X042065D01*
Y025119D01*
D02*
G37*
G36*
X041704D02*
X041478D01*
Y024962D01*
X041704D01*
Y025119D01*
D02*
G37*
G36*
X041278D02*
X041052D01*
Y024962D01*
X041278D01*
Y025119D01*
D02*
G37*
G36*
X040916D02*
X040691D01*
Y024962D01*
X040916D01*
Y025119D01*
D02*
G37*
G36*
X040491D02*
X040265D01*
Y024962D01*
X040491D01*
Y025119D01*
D02*
G37*
G36*
X043583Y025070D02*
X043417D01*
Y024943D01*
X043583D01*
Y025070D01*
D02*
G37*
G36*
X043217D02*
X043050D01*
Y024943D01*
X043217D01*
Y025070D01*
D02*
G37*
G36*
X043583Y024743D02*
X043417D01*
Y024615D01*
X043583D01*
Y024743D01*
D02*
G37*
G36*
X043217D02*
X043050D01*
Y024615D01*
X043217D01*
Y024743D01*
D02*
G37*
G36*
X042491Y024762D02*
X042265D01*
Y024606D01*
X042491D01*
Y024762D01*
D02*
G37*
G36*
X042065D02*
X041840D01*
Y024606D01*
X042065D01*
Y024762D01*
D02*
G37*
G36*
X041704Y024762D02*
X041478D01*
Y024606D01*
X041704D01*
Y024762D01*
D02*
G37*
G36*
X041278D02*
X041052D01*
Y024606D01*
X041278D01*
Y024762D01*
D02*
G37*
G36*
X040916Y024762D02*
X040691D01*
Y024606D01*
X040916D01*
Y024762D01*
D02*
G37*
G36*
X040491D02*
X040265D01*
Y024606D01*
X040491D01*
Y024762D01*
D02*
G37*
G36*
X036970Y023851D02*
X036675D01*
Y023781D01*
X036970D01*
Y023851D01*
D02*
G37*
G36*
X036475D02*
X036179D01*
Y023781D01*
X036475D01*
Y023851D01*
D02*
G37*
G36*
X049411Y028869D02*
Y028643D01*
X049568D01*
Y028869D01*
X049411D01*
D02*
G37*
G36*
X049568Y028443D02*
X049411D01*
Y028218D01*
X049568D01*
Y028443D01*
D02*
G37*
G36*
X049411Y028082D02*
Y027856D01*
X049568D01*
Y028082D01*
X049411D01*
D02*
G37*
G36*
X049568Y027656D02*
X049411D01*
Y027430D01*
X049568D01*
Y027656D01*
D02*
G37*
G36*
X049411Y027294D02*
Y027069D01*
X049568D01*
Y027294D01*
X049411D01*
D02*
G37*
G36*
X049568Y026869D02*
X049411D01*
Y026643D01*
X049568D01*
Y026869D01*
D02*
G37*
G36*
X049656Y024991D02*
X049450D01*
Y024824D01*
X049656D01*
Y024991D01*
D02*
G37*
G36*
X047629Y024113D02*
X047462D01*
Y023985D01*
X047629D01*
Y024113D01*
D02*
G37*
G36*
X047262D02*
X047096D01*
Y023985D01*
X047262D01*
Y024113D01*
D02*
G37*
G36*
X049542Y023615D02*
X049540D01*
X049432Y023507D01*
Y023506D01*
X049464Y023519D01*
X049529Y023584D01*
X049542Y023615D01*
D02*
G37*
G36*
X048069Y023601D02*
X047863D01*
Y023434D01*
X048069D01*
Y023601D01*
D02*
G37*
G36*
X047262Y023219D02*
X047096D01*
Y023072D01*
X047262D01*
Y023219D01*
D02*
G37*
G36*
Y022400D02*
X047096D01*
Y022253D01*
X047262D01*
Y022400D01*
D02*
G37*
G36*
X047383Y021806D02*
Y021742D01*
X047456D01*
Y021806D01*
X047383D01*
D02*
G37*
G36*
X048109Y021792D02*
X047942D01*
Y021557D01*
X048109D01*
Y021792D01*
D02*
G37*
G36*
X046534Y028082D02*
X046377D01*
Y027856D01*
X046534D01*
Y028082D01*
D02*
G37*
G36*
X044017Y027875D02*
X043791D01*
Y027718D01*
X044017D01*
Y027875D01*
D02*
G37*
G36*
X043591D02*
X043365D01*
Y027718D01*
X043591D01*
Y027875D01*
D02*
G37*
G36*
X044804D02*
X044578D01*
Y027718D01*
X044804D01*
Y027875D01*
D02*
G37*
G36*
X044378D02*
X044153D01*
Y027718D01*
X044378D01*
Y027875D01*
D02*
G37*
G36*
X046534Y027656D02*
X046377D01*
Y027430D01*
X046534D01*
Y027656D01*
D02*
G37*
G36*
Y027294D02*
X046377D01*
Y027069D01*
X046534D01*
Y027294D01*
D02*
G37*
G36*
Y026869D02*
X046377D01*
Y026643D01*
X046534D01*
Y026869D01*
D02*
G37*
G36*
X046379Y026172D02*
X046212D01*
Y026025D01*
X046379D01*
Y026172D01*
D02*
G37*
G36*
Y025353D02*
X046212D01*
Y025206D01*
X046379D01*
Y025353D01*
D02*
G37*
G36*
X048859Y028869D02*
X048702D01*
Y028643D01*
X048859D01*
Y028869D01*
D02*
G37*
G36*
X048502D02*
X048346D01*
Y028643D01*
X048502D01*
Y028869D01*
D02*
G37*
G36*
X048859Y028443D02*
X048702D01*
Y028218D01*
X048859D01*
Y028443D01*
D02*
G37*
G36*
X048502D02*
X048346D01*
Y028218D01*
X048502D01*
Y028443D01*
D02*
G37*
G36*
X048859Y028082D02*
X048702D01*
Y027856D01*
X048859D01*
Y028082D01*
D02*
G37*
G36*
X047443D02*
Y027856D01*
X047599D01*
Y028082D01*
X047443D01*
D02*
G37*
G36*
X048502D02*
X048346D01*
Y027856D01*
X048502D01*
Y028082D01*
D02*
G37*
G36*
X048859Y027656D02*
X048702D01*
Y027430D01*
X048859D01*
Y027656D01*
D02*
G37*
G36*
X048502D02*
X048346D01*
Y027430D01*
X048502D01*
Y027656D01*
D02*
G37*
G36*
X047599D02*
X047443D01*
Y027430D01*
X047599D01*
Y027656D01*
D02*
G37*
G36*
X048859Y027294D02*
X048702D01*
Y027069D01*
X048859D01*
Y027294D01*
D02*
G37*
G36*
X047443D02*
Y027069D01*
X047599D01*
Y027294D01*
X047443D01*
D02*
G37*
G36*
X048502D02*
X048346D01*
Y027069D01*
X048502D01*
Y027294D01*
D02*
G37*
G36*
X048859Y026869D02*
X048702D01*
Y026643D01*
X048859D01*
Y026869D01*
D02*
G37*
G36*
X048502D02*
X048346D01*
Y026643D01*
X048502D01*
Y026869D01*
D02*
G37*
G36*
X047599D02*
X047443D01*
Y026643D01*
X047599D01*
Y026869D01*
D02*
G37*
G36*
X048652Y026172D02*
X048486D01*
Y026025D01*
X048652D01*
Y026172D01*
D02*
G37*
G36*
X047262D02*
X047096D01*
Y026025D01*
X047262D01*
Y026172D01*
D02*
G37*
G36*
X048286D02*
X047974D01*
Y025925D01*
X047774D01*
Y026172D01*
X047462D01*
Y025925D01*
X047362D01*
Y025825D01*
X047096D01*
Y025678D01*
Y025553D01*
X047362D01*
Y025453D01*
X047462D01*
Y025206D01*
X047774D01*
Y025453D01*
X047974D01*
Y025206D01*
X048286D01*
Y025453D01*
X048386D01*
Y025553D01*
X048652D01*
Y025678D01*
Y025825D01*
X048386D01*
Y025925D01*
X048286D01*
Y026172D01*
D02*
G37*
G36*
X048652Y025353D02*
X048486D01*
Y025206D01*
X048652D01*
Y025353D01*
D02*
G37*
G36*
X047262D02*
X047096D01*
Y025206D01*
X047262D01*
Y025353D01*
D02*
G37*
G36*
Y025070D02*
X047096D01*
Y024943D01*
X047262D01*
Y025070D01*
D02*
G37*
G36*
Y024743D02*
X047096D01*
Y024615D01*
X047262D01*
Y024743D01*
D02*
G37*
G36*
X043583Y024113D02*
X043417D01*
Y023985D01*
X043583D01*
Y024113D01*
D02*
G37*
G36*
X043217D02*
X043050D01*
Y023985D01*
X043217D01*
Y024113D01*
D02*
G37*
G36*
X042491Y024054D02*
X042265D01*
Y023897D01*
X042491D01*
Y024054D01*
D02*
G37*
G36*
X042065D02*
X041840D01*
Y023897D01*
X042065D01*
Y024054D01*
D02*
G37*
G36*
X041704Y024054D02*
X041478D01*
Y023897D01*
X041704D01*
Y024054D01*
D02*
G37*
G36*
X041278D02*
X041052D01*
Y023897D01*
X041278D01*
Y024054D01*
D02*
G37*
G36*
X040916Y024054D02*
X040691D01*
Y023897D01*
X040916D01*
Y024054D01*
D02*
G37*
G36*
X040491D02*
X040265D01*
Y023897D01*
X040491D01*
Y024054D01*
D02*
G37*
G36*
X044024Y023601D02*
X043818D01*
Y023434D01*
X044024D01*
Y023601D01*
D02*
G37*
G36*
X043217Y023219D02*
X043050D01*
Y023072D01*
X043217D01*
Y023219D01*
D02*
G37*
G36*
Y022400D02*
X043050D01*
Y022253D01*
X043217D01*
Y022400D01*
D02*
G37*
G36*
X044190Y021778D02*
X044023D01*
Y021542D01*
X044190D01*
Y021778D01*
D02*
G37*
G36*
Y021342D02*
X044023D01*
Y021107D01*
X044190D01*
Y021342D01*
D02*
G37*
G36*
X044172Y021005D02*
X044005D01*
Y020769D01*
X044172D01*
Y021005D01*
D02*
G37*
G36*
X043113Y020746D02*
X042718D01*
Y020371D01*
X043113D01*
Y020746D01*
D02*
G37*
G36*
X044172Y020569D02*
X044005D01*
Y020334D01*
X044172D01*
Y020569D01*
D02*
G37*
G36*
X044989Y023219D02*
X044822D01*
Y023072D01*
X044989D01*
Y023219D01*
D02*
G37*
G36*
X050424Y022400D02*
X050257D01*
Y022253D01*
X050424D01*
Y022400D01*
D02*
G37*
G36*
X049034D02*
X048867D01*
Y022253D01*
X049034D01*
Y022400D01*
D02*
G37*
G36*
X044989D02*
X044822D01*
Y022253D01*
X044989D01*
Y022400D01*
D02*
G37*
G36*
X049853Y021792D02*
X049687D01*
Y021557D01*
X049853D01*
Y021792D01*
D02*
G37*
G36*
X049487D02*
X049320D01*
Y021557D01*
X049487D01*
Y021792D01*
D02*
G37*
G36*
X049184D02*
X049017D01*
Y021557D01*
X049184D01*
Y021792D01*
D02*
G37*
G36*
X048817D02*
X048651D01*
Y021557D01*
X048817D01*
Y021792D01*
D02*
G37*
G36*
X045265Y021778D02*
X045099D01*
Y021542D01*
X045265D01*
Y021778D01*
D02*
G37*
G36*
X044899D02*
X044732D01*
Y021542D01*
X044899D01*
Y021778D01*
D02*
G37*
G36*
X049853Y021357D02*
X049687D01*
Y021121D01*
X049853D01*
Y021357D01*
D02*
G37*
G36*
X049487D02*
X049320D01*
Y021121D01*
X049487D01*
Y021357D01*
D02*
G37*
G36*
X049184Y021357D02*
X049017D01*
Y021121D01*
X049184D01*
Y021357D01*
D02*
G37*
G36*
X048817D02*
X048651D01*
Y021121D01*
X048817D01*
Y021357D01*
D02*
G37*
G36*
X045265Y021342D02*
X045099D01*
Y021107D01*
X045265D01*
Y021342D01*
D02*
G37*
G36*
X044899D02*
X044732D01*
Y021107D01*
X044899D01*
Y021342D01*
D02*
G37*
G36*
X050295Y021944D02*
X050237Y021933D01*
X050187Y021899D01*
X050154Y021850D01*
X050142Y021792D01*
X050029D01*
Y021121D01*
X050142D01*
X050154Y021064D01*
X050187Y021014D01*
X050237Y020981D01*
X050295Y020969D01*
X050354Y020981D01*
X050403Y021014D01*
X050437Y021064D01*
X050448Y021121D01*
X050562D01*
Y021792D01*
X050448D01*
X050437Y021850D01*
X050403Y021899D01*
X050354Y021933D01*
X050295Y021944D01*
D02*
G37*
G36*
X045247Y021005D02*
X045080D01*
Y020769D01*
X045247D01*
Y021005D01*
D02*
G37*
G36*
X044880D02*
X044714D01*
Y020769D01*
X044880D01*
Y021005D01*
D02*
G37*
G36*
X045247Y020569D02*
X045080D01*
Y020334D01*
X045247D01*
Y020569D01*
D02*
G37*
G36*
X044880D02*
X044714D01*
Y020334D01*
X044880D01*
Y020569D01*
D02*
G37*
G36*
X046074Y019843D02*
X045691D01*
Y019588D01*
X046074D01*
Y019843D01*
D02*
G37*
G36*
X045491D02*
X045107D01*
Y019588D01*
X045491D01*
Y019843D01*
D02*
G37*
G36*
X049075Y019512D02*
X049025Y019512D01*
X048721D01*
Y019168D01*
X049025D01*
X049065Y019168D01*
X049115Y019168D01*
X049419D01*
Y019512D01*
X049075Y019512D01*
D02*
G37*
G36*
X050188Y018050D02*
X050100D01*
Y018017D01*
X050188D01*
Y018050D01*
D02*
G37*
G36*
X050353Y017314D02*
X050226D01*
Y017206D01*
X050353D01*
Y017314D01*
D02*
G37*
G36*
Y017006D02*
X050226D01*
Y016899D01*
X050353D01*
Y017006D01*
D02*
G37*
%LPD*%
D14*
X028470Y032040D02*
X030380D01*
X027650Y031220D02*
X028470Y032040D01*
X030315Y029803D02*
X031102Y029016D01*
X022583Y029803D02*
X030315D01*
X031102Y028642D02*
Y029016D01*
X036210Y029820D02*
X036730Y029300D01*
X030380Y032040D02*
X032600Y029820D01*
X036210D01*
X036730Y029300D02*
X037350D01*
X033854Y030315D02*
X044468D01*
X033197Y031250D02*
X033936Y030512D01*
X044468D01*
X032843Y031054D02*
X033116D01*
X033854Y030315D01*
X032762Y031250D02*
X033197D01*
X032563Y030778D02*
X032579Y030794D01*
X032548Y030709D02*
X032563Y030723D01*
X032958Y027661D02*
Y027979D01*
X032953Y027984D02*
X032958Y027979D01*
X032579Y031068D02*
X032762Y031250D01*
X032776Y030986D02*
X032843Y031054D01*
X032958Y027661D02*
X032964Y027656D01*
X032776Y030709D02*
Y030986D01*
X032563Y030723D02*
Y030778D01*
X032579Y030794D02*
Y031068D01*
X043012Y032087D02*
X043209Y031890D01*
Y031508D02*
Y031890D01*
Y031508D02*
X043220Y031496D01*
X043209Y032480D02*
Y039469D01*
X043504Y032480D02*
Y038084D01*
X043609Y038189D01*
X043504Y032480D02*
X044094Y031890D01*
X043609Y038189D02*
X044187D01*
X043012Y039764D02*
X044094Y040846D01*
X043012Y032087D02*
Y039764D01*
X043209Y039469D02*
X044390Y040650D01*
X045768D01*
X045925Y039823D02*
Y040492D01*
X045768Y040650D02*
X045925Y040492D01*
X044094Y040846D02*
X046161D01*
X046398Y040610D01*
Y039823D02*
Y040610D01*
X046106Y032090D02*
Y032758D01*
X045906Y031890D02*
X046106Y032090D01*
X044094Y031890D02*
X045906D01*
X046106Y032758D02*
X046366Y033018D01*
X044305Y038071D02*
X044902D01*
X044187Y038189D02*
X044305Y038071D01*
X043846Y036873D02*
X044571Y037598D01*
X044311Y037126D02*
X044902D01*
X043996Y036811D02*
X044311Y037126D01*
X043996Y032677D02*
Y036811D01*
X043846Y032433D02*
Y036873D01*
X044571Y037598D02*
X044902D01*
X045669Y032087D02*
X045866Y032283D01*
Y033018D01*
X044193Y032087D02*
X045669D01*
X043846Y032433D02*
X044193Y032087D01*
X043996Y032677D02*
X044390Y032283D01*
X045571D01*
X044193Y032874D02*
Y036516D01*
X044390Y032677D02*
X044980D01*
X044193Y032874D02*
X044390Y032677D01*
X044193Y036516D02*
X044331Y036654D01*
X044980Y032677D02*
X045321Y033018D01*
X045366D01*
X044331Y036654D02*
X044902D01*
X044628Y036181D02*
X044902D01*
X044390Y035943D02*
X044628Y036181D01*
X044390Y033268D02*
Y035943D01*
Y033268D02*
X044580Y033078D01*
X044806D02*
X044866Y033018D01*
X044580Y033078D02*
X044806D01*
X045669Y034252D02*
X045925Y034508D01*
Y035374D01*
X044866Y033518D02*
X045453Y034104D01*
Y035374D01*
X045366Y033518D02*
X046398Y034549D01*
Y035374D01*
X046870Y034522D02*
Y035374D01*
X045866Y033518D02*
X046870Y034522D01*
X047343Y034494D02*
Y035374D01*
X046366Y033518D02*
X047343Y034494D01*
X047638Y034289D02*
Y034547D01*
X046866Y033518D02*
X047638Y034289D01*
X047815Y034724D02*
Y035374D01*
X047638Y034547D02*
X047815Y034724D01*
X047949Y040685D02*
Y041778D01*
X047815Y040551D02*
X047949Y040685D01*
X046949Y041778D02*
X046965Y041761D01*
Y041421D02*
Y041761D01*
Y041421D02*
X047343Y041043D01*
Y039823D02*
Y041043D01*
X047815Y039823D02*
Y040551D01*
X048780Y044724D02*
X049008D01*
X047992Y044980D02*
X048524D01*
X048780Y044724D01*
X050000Y046093D02*
X050025Y046117D01*
X036575Y026516D02*
X036614Y026476D01*
X036575Y026516D02*
Y026772D01*
X036417Y026476D02*
X036417Y026476D01*
Y026772D01*
X036260Y026516D02*
Y026772D01*
X036220Y026476D02*
X036260Y026516D01*
X036102Y026496D02*
X036122Y026476D01*
X036102Y026496D02*
Y026772D01*
X035925Y026476D02*
X035945Y026496D01*
Y026772D01*
X035728Y026476D02*
X035787Y026535D01*
Y026772D01*
X015714Y025327D02*
Y026514D01*
X015718Y026518D01*
X015710Y025323D02*
X015714Y025327D01*
X016112Y025938D02*
Y026526D01*
Y025938D02*
X016230Y025820D01*
X049016Y016909D02*
Y017341D01*
X049230D01*
X049398Y017508D01*
X049717D01*
X049016Y016555D02*
X049088Y016627D01*
X049206D02*
X049311Y016732D01*
X049088Y016627D02*
X049206D01*
X049429Y017146D02*
X050453D01*
X049311Y016732D02*
Y017028D01*
X049429Y017146D01*
X049019Y017714D02*
X049308D01*
X049016Y017711D02*
X049019Y017714D01*
X049308D02*
X049311Y017717D01*
X042972Y023583D02*
X043228D01*
X042825Y023435D02*
X042972Y023583D01*
X042825Y021846D02*
Y023435D01*
X042143Y023030D02*
X042162Y023011D01*
X041266Y021202D02*
X042162Y022098D01*
X041345Y021012D02*
X042352Y022019D01*
Y023011D02*
X042370Y023030D01*
X042352Y022019D02*
Y023011D01*
X042162Y022098D02*
Y023011D01*
X040264Y021012D02*
X041345D01*
X040156Y021202D02*
X041266D01*
X015320Y026184D02*
Y026521D01*
X015316Y026180D02*
X015320Y026184D01*
Y026521D02*
X015325Y026526D01*
X017178Y052557D02*
X017543D01*
X017641Y052459D02*
Y052597D01*
X017543Y052557D02*
X017641Y052459D01*
X017739Y052557D01*
X017798Y052754D02*
X018104D01*
X017641Y052597D02*
X017798Y052754D01*
X017739Y052557D02*
X018104D01*
Y051833D02*
Y052164D01*
X017931Y051661D02*
X018104Y051833D01*
X017931Y051661D02*
X018319D01*
X017931D02*
X017942Y051649D01*
Y051422D02*
Y051649D01*
Y051422D02*
X017954Y051411D01*
X048287Y039823D02*
Y040767D01*
X048228Y040826D02*
X048287Y040767D01*
X048228Y040826D02*
Y040846D01*
X047343Y039823D02*
X047343Y039823D01*
X039707Y031224D02*
Y040479D01*
X041240Y023121D02*
X041259Y023140D01*
X041240Y022271D02*
Y023121D01*
X040867Y021898D02*
X041240Y022271D01*
X040646Y018064D02*
X040743Y017967D01*
Y017456D02*
Y017967D01*
X040646Y018064D02*
Y018434D01*
X040743Y017456D02*
X040748Y017451D01*
X038716Y041470D02*
X039707Y040479D01*
X038716Y041470D02*
Y041626D01*
X036691Y042520D02*
X037822D01*
X038716Y041626D01*
X036084Y041913D02*
X036691Y042520D01*
X036084Y041450D02*
Y041913D01*
X039111Y021421D02*
X039588Y021898D01*
X040867D01*
X039111Y019969D02*
X040646Y018434D01*
X039111Y020727D02*
Y021421D01*
Y020727D02*
X039144Y020694D01*
X039111Y019969D02*
Y020661D01*
X039144Y020694D01*
X039517Y031224D02*
Y040400D01*
X039512Y031165D02*
Y031219D01*
X039517Y031224D01*
X039497Y031150D02*
X039512Y031165D01*
X041032Y023140D02*
X041050Y023121D01*
Y022349D02*
Y023121D01*
X040789Y022088D02*
X041050Y022349D01*
X040456Y018064D02*
Y018355D01*
X040359Y017967D02*
X040456Y018064D01*
X039509Y022088D02*
X040789D01*
X040359Y017456D02*
Y017967D01*
X040354Y017451D02*
X040359Y017456D01*
X038670Y041165D02*
Y041248D01*
X038619Y041115D02*
X038670Y041165D01*
X038526Y041391D02*
Y041489D01*
Y041391D02*
X038670Y041248D01*
X038768Y041066D02*
X038851D01*
X038619Y041075D02*
X038678Y041016D01*
X038619Y041075D02*
Y041115D01*
X036770Y042330D02*
X037744D01*
X038526Y041548D01*
X036274Y041834D02*
X036770Y042330D01*
X038526Y041489D02*
Y041548D01*
X036274Y041450D02*
Y041834D01*
X038935Y040983D02*
X039517Y040400D01*
X038851Y041066D02*
X038935Y040983D01*
X038921Y021499D02*
X039509Y022088D01*
X038921Y019891D02*
X040456Y018355D01*
X038718Y041016D02*
X038768Y041066D01*
X038921Y020727D02*
Y021499D01*
X038678Y041016D02*
X038718D01*
X038888Y020694D02*
X038921Y020661D01*
Y019891D02*
Y020661D01*
X038888Y020694D02*
X038921Y020727D01*
X049403Y045172D02*
X049611D01*
X049384Y044455D02*
X049390Y044449D01*
X049384Y044455D02*
Y044718D01*
X049378Y044724D02*
X049384Y044718D01*
X049611Y045172D02*
X049626Y045157D01*
X049378Y045197D02*
X049403Y045172D01*
X045020Y046850D02*
X045480D01*
X045810Y046520D01*
X045356Y046654D02*
X045520Y046490D01*
X045020Y046654D02*
X045356D01*
X047996Y047733D02*
X048687D01*
X047992Y047539D02*
X047996Y047543D01*
X048687D01*
X047992Y047736D02*
X047996Y047733D01*
X047992Y051673D02*
X048447D01*
X047992Y051476D02*
X048447D01*
X047992Y047933D02*
X048447D01*
X047992Y048524D02*
X048447D01*
X047992Y049114D02*
X048447D01*
X047992Y049705D02*
X048447D01*
X047992Y050295D02*
X048447D01*
X047992Y050886D02*
X048447D01*
X048402Y047356D02*
X048673D01*
X047992Y046949D02*
X047996Y046952D01*
X048407D01*
X047996Y047142D02*
X048407D01*
X047992Y047146D02*
X047996Y047142D01*
X047992Y047343D02*
X048001Y047352D01*
X048397D01*
X048402Y047356D01*
X045520Y045630D02*
Y046490D01*
X047441Y044409D02*
X047452Y044399D01*
X047441Y044764D02*
X047452Y044774D01*
X047983D01*
X047992Y044783D01*
X045810Y045840D02*
Y046520D01*
X047452Y044399D02*
X047983D01*
X047992Y044390D01*
Y046555D02*
X047996Y046552D01*
X047992Y046358D02*
X047996Y046362D01*
X047992Y046161D02*
X048439D01*
X047996Y046552D02*
X048570D01*
X047996Y046362D02*
X048570D01*
Y046552D02*
X048574Y046556D01*
X048570Y046362D02*
X048581Y046351D01*
X047992Y044587D02*
X048001Y044596D01*
X048533D01*
X048543Y044606D01*
X024025Y017585D02*
X024400D01*
X024016Y017594D02*
X024025Y017585D01*
X024016Y016535D02*
Y017224D01*
X024025Y017215D01*
X024400D01*
X037520Y040695D02*
X037933Y040282D01*
Y039705D02*
Y040282D01*
Y039705D02*
X038346Y039291D01*
X016230Y024990D02*
Y025820D01*
X021550Y027750D02*
Y028770D01*
X022583Y029803D01*
X021630Y027260D02*
X021800Y027430D01*
Y028710D01*
X022696Y029606D01*
X017235Y023753D02*
X017381Y023900D01*
X017481D02*
X017710Y024129D01*
X017381Y023900D02*
X017481D01*
X017710Y024129D02*
Y025361D01*
X017900Y024050D02*
Y025282D01*
X017460Y023710D02*
X017560D01*
X017900Y024050D01*
X017425Y023675D02*
X017460Y023710D01*
X017425Y023603D02*
Y023675D01*
Y023603D02*
X017704Y023323D01*
X017710D01*
X030136Y028051D02*
Y028362D01*
X029948Y028550D02*
X030136Y028362D01*
X028550Y028550D02*
X029948D01*
X023753Y025000D02*
X024082D01*
X025000D01*
X028550Y028550D01*
X023750Y024997D02*
X023753Y025000D01*
X021422Y026568D02*
X022993Y024997D01*
X023750D01*
X018917Y026568D02*
X021422D01*
X017710Y025361D02*
X018917Y026568D01*
X016916Y023323D02*
X017235Y023641D01*
Y023753D01*
X016910Y023323D02*
X016916D01*
X029946Y028051D02*
Y028283D01*
X029870Y028360D02*
X029946Y028283D01*
X028629Y028360D02*
X029870D01*
X021343Y026378D02*
X022915Y024807D01*
X023750D01*
X025072Y024803D02*
X028629Y028360D01*
X024082Y024803D02*
X025072D01*
X023750Y024807D02*
X023753Y024803D01*
X024082D01*
X018996Y026378D02*
X021343D01*
X017900Y025282D02*
X018996Y026378D01*
X037800Y027700D02*
Y028850D01*
X037350Y029300D02*
X037800Y028850D01*
X038409Y021639D02*
X039318Y022548D01*
X038599Y020727D02*
Y021560D01*
X039397Y022358D01*
X038409Y020727D02*
Y021639D01*
X039397Y022358D02*
X040468D01*
X039318Y022548D02*
X040389D01*
X020669Y040650D02*
X021555D01*
X021752Y040846D01*
X020518Y040498D02*
X020669Y040650D01*
X033738Y044053D02*
X033817Y044132D01*
Y044343D01*
X034004Y044529D01*
X034177D01*
X034252Y044604D01*
Y044830D01*
X034177Y044905D02*
X034252Y044830D01*
X033846Y044905D02*
X034177D01*
X033660Y045091D02*
X033846Y044905D01*
X033660Y045091D02*
Y045474D01*
X033846Y045660D01*
X034330D01*
X034405Y045736D01*
Y045961D01*
X034330Y046036D02*
X034405Y045961D01*
X034004Y046036D02*
X034330D01*
X033817Y046222D02*
X034004Y046036D01*
X033817Y046222D02*
Y046407D01*
X034007Y044053D02*
Y044264D01*
X034082Y044339D01*
X034255D01*
X034442Y044526D01*
Y044908D01*
X034255Y045095D02*
X034442Y044908D01*
X033925Y045095D02*
X034255D01*
X033850Y045170D02*
X033925Y045095D01*
X033850Y045170D02*
Y045395D01*
X033925Y045470D01*
X034409D01*
X034595Y045657D01*
Y046040D01*
X034409Y046226D02*
X034595Y046040D01*
X034082Y046226D02*
X034409D01*
X034007Y046301D02*
X034082Y046226D01*
X034007Y046301D02*
Y046407D01*
X031360Y041675D02*
X033738Y044053D01*
X033817Y046407D02*
Y046940D01*
X034007Y046407D02*
Y047019D01*
X031550Y041596D02*
X034007Y044053D01*
X038146Y040799D02*
X038247Y040697D01*
X038064Y040799D02*
X038146D01*
X037971Y040706D02*
X038064Y040799D01*
X037931Y040706D02*
X037971D01*
X037872Y040765D02*
X037931Y040706D01*
X037872Y040765D02*
Y040805D01*
X037965Y040897D01*
Y040980D01*
X037903Y041041D02*
X037965Y040980D01*
X037903Y041041D02*
Y041304D01*
X037390Y042960D02*
X037695D01*
X037331Y042901D02*
X037390Y042960D01*
X037331Y042830D02*
Y042901D01*
X037303Y042803D02*
X037331Y042830D01*
X037220Y042803D02*
X037303D01*
X037192Y042830D02*
X037220Y042803D01*
X037192Y042830D02*
Y042932D01*
X037164Y042960D02*
X037192Y042932D01*
X037080Y042960D02*
X037164D01*
X037052Y042932D02*
X037080Y042960D01*
X037052Y042830D02*
Y042932D01*
X037025Y042803D02*
X037052Y042830D01*
X036941Y042803D02*
X037025D01*
X036913Y042830D02*
X036941Y042803D01*
X036913Y042830D02*
Y042901D01*
X036854Y042960D02*
X036913Y042901D01*
X036665Y042960D02*
X036854D01*
X036659D02*
X036665D01*
X038247Y040697D02*
X038372Y040573D01*
X037903Y041304D02*
Y041318D01*
X035802Y042103D02*
X036659Y042960D01*
X038762Y043690D02*
X040260Y042192D01*
X038684Y043500D02*
X040152Y042032D01*
X037471Y041750D02*
X037903Y041318D01*
X036860Y041750D02*
X037471D01*
X037800Y043150D02*
X038144D01*
X038315Y042979D01*
Y042680D02*
Y042979D01*
Y042680D02*
X038441Y042554D01*
X038525D01*
X038752Y042781D01*
X038993D01*
X039230Y042544D01*
Y042302D02*
Y042544D01*
X039003Y042075D02*
X039230Y042302D01*
X039003Y041991D02*
Y042075D01*
Y041991D02*
X039129Y041865D01*
X039213D01*
X039245Y041897D01*
X039487D01*
X039617Y041767D01*
X037695Y042960D02*
X038065D01*
X038125Y042901D01*
Y042601D02*
Y042901D01*
Y042601D02*
X038362Y042364D01*
X038603D01*
X038830Y042591D01*
X038914D01*
X039040Y042465D01*
Y042381D02*
Y042465D01*
X038813Y042154D02*
X039040Y042381D01*
X038813Y041913D02*
Y042154D01*
Y041913D02*
X039051Y041675D01*
X039292D01*
X039324Y041707D01*
X039408D01*
X039483Y041633D01*
X036580Y043150D02*
X037800D01*
X039617Y041767D02*
X039781Y041603D01*
X039483Y041633D02*
X039607Y041508D01*
X036901Y027749D02*
X037200Y027450D01*
X036901Y027749D02*
Y027892D01*
X037200Y027450D02*
X037550D01*
X037800Y027700D01*
X026600Y023800D02*
X026650Y023750D01*
Y020250D02*
Y023750D01*
X024950Y019850D02*
X026250D01*
X026650Y020250D01*
X026100Y020050D02*
X026500Y020450D01*
X024850Y020050D02*
X026100D01*
X026500Y020450D02*
Y021000D01*
X024500Y019700D02*
X024850Y020050D01*
X024016Y018916D02*
X024950Y019850D01*
X024016Y017594D02*
Y018916D01*
X027250Y024300D02*
X027300Y024250D01*
X026650Y024300D02*
X027250D01*
X026350Y024000D02*
X026650Y024300D01*
X026350Y022850D02*
Y024000D01*
X026050Y021950D02*
Y022550D01*
X026350Y022850D01*
X026240Y021055D02*
Y021760D01*
Y021055D02*
X026244Y021059D01*
X026235Y021049D02*
X026240Y021055D01*
X026441Y021059D02*
X026500Y021000D01*
X026244Y021059D02*
X026441D01*
X023550Y019700D02*
X024500D01*
X023462Y019788D02*
Y019936D01*
Y019788D02*
X023550Y019700D01*
X023398Y020000D02*
X023462Y019936D01*
X025447Y021049D02*
X026235D01*
X025442Y021055D02*
X025447Y021049D01*
X026050Y021950D02*
X026240Y021760D01*
X024600Y021950D02*
X026050D01*
X023768Y021118D02*
X024600Y021950D01*
X023768Y020787D02*
Y021118D01*
X023110Y017264D02*
X023112Y017261D01*
Y016848D02*
Y017261D01*
Y016848D02*
X023327Y016634D01*
X024016Y016535D02*
X025689Y014862D01*
X024803Y014822D02*
Y015256D01*
Y014822D02*
X025255Y014370D01*
X025886D01*
X026378Y014862D01*
X026575D01*
X026772Y014665D01*
X023425Y016634D02*
X024803Y015256D01*
X023327Y016634D02*
X023425D01*
X026772Y014455D02*
Y014665D01*
X026890Y014059D02*
Y014337D01*
X026772Y014455D02*
X026890Y014337D01*
X045711Y036179D02*
X048171D01*
X045571Y036319D02*
X045711Y036179D01*
X045571Y036319D02*
Y036909D01*
X045669Y037008D01*
Y038976D01*
X048171Y036179D02*
X048287Y036063D01*
Y035374D02*
Y036063D01*
X033563Y023228D02*
Y023456D01*
X033571Y023465D02*
X033576D01*
X033563Y023456D02*
X033571Y023465D01*
X029921Y014567D02*
X034547D01*
X028248Y016318D02*
Y016339D01*
X027917Y016239D02*
X028189D01*
Y016259D02*
X028248Y016318D01*
X028189Y016239D02*
Y016259D01*
X027878Y016200D02*
X027917Y016239D01*
X026378Y016339D02*
X026517Y016200D01*
X027878D01*
X025886Y016634D02*
X026181Y016339D01*
X026378D01*
X025886Y017205D02*
X025925Y017244D01*
X025886Y016634D02*
Y017205D01*
X034488Y023858D02*
X035164D01*
X034016Y024055D02*
X034183Y023888D01*
X033576Y024055D02*
X034016D01*
X026518Y016795D02*
X026539D01*
X026378Y016634D02*
Y016655D01*
X026340Y016693D02*
X026378Y016655D01*
X026340Y016693D02*
Y016699D01*
X026479Y016833D02*
X026518Y016795D01*
X025409Y018209D02*
Y018519D01*
X025453Y018563D01*
X025182Y018209D02*
Y018519D01*
X025138Y018563D02*
X025182Y018519D01*
X030866Y028583D02*
X031102Y028346D01*
X030866Y028583D02*
Y028976D01*
X030236Y029606D02*
X030866Y028976D01*
X031102Y028346D02*
X031693D01*
X022696Y029606D02*
X030236D01*
X023756Y025397D02*
X024807D01*
X023615Y025401D02*
X023746D01*
X028359Y028950D02*
X030204D01*
X023756Y025587D02*
X024728D01*
X030282Y029140D02*
X030609Y028814D01*
X030419Y028051D02*
Y028735D01*
X030609Y028051D02*
Y028814D01*
X028281Y029140D02*
X030282D01*
X030204Y028950D02*
X030419Y028735D01*
X026473Y017934D02*
Y018583D01*
X025540Y019030D02*
X026025D01*
X026283Y017934D02*
Y018504D01*
X025431Y018840D02*
X025947D01*
X026532Y017992D02*
X026831D01*
X026474Y016833D02*
X026479D01*
X025453Y019232D02*
X025482Y019204D01*
Y019089D02*
X025540Y019030D01*
X025482Y019089D02*
Y019204D01*
X026473Y017934D02*
X026532Y017992D01*
X026398Y016992D02*
X026473Y017067D01*
X026398Y016909D02*
X026474Y016833D01*
X026473Y017067D02*
Y017934D01*
X026398Y016909D02*
Y016992D01*
X026283Y017145D02*
Y017934D01*
X025138Y019134D02*
Y019232D01*
Y019134D02*
X025431Y018840D01*
X026224Y017992D02*
X026283Y017934D01*
X026208Y017071D02*
X026283Y017145D01*
X026208Y016830D02*
X026340Y016699D01*
X025925Y017992D02*
X026224D01*
X026208Y016830D02*
Y017071D01*
X025947Y018840D02*
X026283Y018504D01*
X026025Y019030D02*
X026473Y018583D01*
X036417Y016437D02*
Y021161D01*
X034547Y014567D02*
X036417Y016437D01*
X035433Y022146D02*
X036417Y021161D01*
X035433Y022146D02*
Y022453D01*
X034324Y022651D02*
Y023300D01*
X034018Y022345D02*
X034324Y022651D01*
X034685Y023661D02*
X035164D01*
X034324Y023300D02*
X034685Y023661D01*
X030581Y022353D02*
X030583Y022355D01*
X030581Y022224D02*
Y022353D01*
X030580Y022222D02*
X030581Y022224D01*
X030580Y021965D02*
Y022222D01*
X030215Y021600D02*
X030580Y021965D01*
X030095Y021600D02*
X030215D01*
X030080Y021585D02*
X030095Y021600D01*
X033884Y022480D02*
X034134Y022730D01*
Y023543D01*
X033819Y023858D02*
X034134Y023543D01*
X033576Y023858D02*
X033819D01*
X030390Y022044D02*
Y022222D01*
X030388Y022224D02*
X030390Y022222D01*
X030388Y022224D02*
Y022353D01*
X030387Y022355D02*
X030388Y022353D01*
X030046Y021822D02*
X030169D01*
X030390Y022044D01*
X030032Y021807D02*
X030046Y021822D01*
X031666Y021646D02*
X031886D01*
X034951Y022254D02*
Y022443D01*
X034961Y022453D01*
X034941Y022244D02*
X034951Y022254D01*
X035315Y026772D02*
Y027100D01*
X033209Y023661D02*
X033576D01*
X033051Y023504D02*
X033209Y023661D01*
X035164Y024252D02*
X035472D01*
X034385Y024282D02*
Y024848D01*
X034568Y024114D02*
Y024197D01*
X034575Y024204D01*
X033576Y024252D02*
X034030D01*
X034058Y024224D01*
X034326D02*
X034385Y024282D01*
X034058Y024224D02*
X034326D01*
X034575Y024204D02*
Y024848D01*
X034568Y024114D02*
X034626Y024055D01*
X035164D01*
X030136Y039683D02*
Y040059D01*
X029946Y039762D02*
Y040059D01*
X034239Y027656D02*
X034254Y027670D01*
X034291D01*
X034239Y027100D02*
X034254Y027086D01*
X034291D01*
X034370Y027750D02*
Y027984D01*
X034291Y027086D02*
X034370Y027006D01*
X034291Y027670D02*
X034370Y027750D01*
Y026772D02*
Y027006D01*
X034637Y031299D02*
Y031859D01*
X030136Y036360D02*
X034637Y031859D01*
X034409Y031299D02*
Y031818D01*
X029946Y036281D02*
X034409Y031818D01*
X029946Y036281D02*
Y039762D01*
X030136Y036360D02*
Y039683D01*
X039607Y041477D02*
X039641Y041443D01*
X039671D01*
X039832Y041567D02*
Y041603D01*
X039681Y041403D02*
X039727D01*
X039671Y041413D02*
Y041443D01*
X039607Y041477D02*
Y041508D01*
X039781Y041603D02*
X039832D01*
X039671Y041413D02*
X039681Y041403D01*
X038425Y040472D02*
Y040493D01*
X036781Y041940D02*
X037550D01*
X038372Y040547D02*
X038425Y040493D01*
X038372Y040547D02*
Y040573D01*
X038094Y041120D02*
X038576Y040638D01*
X038094Y041120D02*
Y041396D01*
X037550Y041940D02*
X038094Y041396D01*
X038576Y040638D02*
X038595D01*
X037520Y040695D02*
Y041339D01*
X037331Y039763D02*
X037362Y039794D01*
X037520Y039608D02*
X038087Y039041D01*
X037331Y039742D02*
Y039763D01*
X037362Y039794D02*
Y040126D01*
X037520Y039608D02*
Y040126D01*
X040134Y020661D02*
X040167Y020694D01*
X040134Y020303D02*
Y020661D01*
Y020303D02*
X040193Y020245D01*
X040457D01*
X040167Y020694D02*
X040206Y020732D01*
X040457Y020245D02*
X041827Y018874D01*
Y018064D02*
Y018874D01*
X040206Y020954D02*
X040264Y021012D01*
X040206Y020732D02*
Y020954D01*
X041924Y017456D02*
X041929Y017451D01*
X041924Y017456D02*
Y017967D01*
X041827Y018064D02*
X041924Y017967D01*
X035143Y041430D02*
Y042553D01*
X036280Y043690D01*
X038762D01*
X040260Y042192D02*
X040312D01*
X039911Y020694D02*
X039944Y020661D01*
Y020225D02*
Y020661D01*
X039911Y020694D02*
X039950Y020732D01*
X039944Y020225D02*
X040114Y020055D01*
X039950Y020997D02*
X040156Y021202D01*
X041535Y017451D02*
X041541Y017456D01*
Y017967D01*
X039950Y020732D02*
Y020997D01*
X040114Y020055D02*
X040378D01*
X041541Y017967D02*
X041637Y018064D01*
X040378Y020055D02*
X041637Y018796D01*
Y018064D02*
Y018796D01*
X035333Y041430D02*
Y042474D01*
X036359Y043500D01*
X038684D01*
X041722Y022651D02*
X041740Y022670D01*
X041722Y022063D02*
Y022651D01*
X041136Y021478D02*
X041722Y022063D01*
X041237Y018064D02*
X041333Y017967D01*
X041237Y018064D02*
Y018583D01*
X041333Y017456D02*
X041339Y017451D01*
X041333Y017456D02*
Y017967D01*
X035612Y042182D02*
X036580Y043150D01*
X035612Y041440D02*
Y042182D01*
X039882Y021478D02*
X041136D01*
X039623Y021219D02*
X039882Y021478D01*
X039623Y020197D02*
X041237Y018583D01*
X039623Y020727D02*
X039656Y020694D01*
X039623Y020727D02*
Y021219D01*
Y020197D02*
Y020661D01*
X039656Y020694D01*
X041513Y022670D02*
X041532Y022651D01*
Y022142D02*
Y022651D01*
X041058Y021668D02*
X041532Y022142D01*
X040950Y017967D02*
X041047Y018064D01*
Y018505D01*
X040950Y017456D02*
Y017967D01*
X040945Y017451D02*
X040950Y017456D01*
X035802Y041440D02*
Y042103D01*
X039803Y021668D02*
X041058D01*
X039433Y021298D02*
X039803Y021668D01*
X039433Y020119D02*
X041047Y018505D01*
X039433Y020727D02*
Y021298D01*
X039400Y020694D02*
X039433Y020727D01*
Y020119D02*
Y020661D01*
X039400Y020694D02*
X039433Y020661D01*
X036557Y041420D02*
Y041715D01*
X038599Y020661D02*
X038632Y020694D01*
X038599Y019741D02*
Y020661D01*
Y020727D02*
X038632Y020694D01*
X038599Y019741D02*
X040056Y018284D01*
Y018064D02*
X040152Y017967D01*
Y017456D02*
Y017967D01*
X040056Y018064D02*
Y018284D01*
X040152Y017456D02*
X040157Y017451D01*
X040468Y022358D02*
X040748Y022638D01*
Y022871D02*
X040767Y022890D01*
X040748Y022638D02*
Y022871D01*
X036557Y041715D02*
X036781Y041940D01*
X036747Y041637D02*
X036860Y041750D01*
X038376Y020694D02*
X038409Y020661D01*
Y019662D02*
Y020661D01*
X038376Y020694D02*
X038409Y020727D01*
Y019662D02*
X039866Y018205D01*
X039764Y017451D02*
X039769Y017456D01*
Y017967D01*
X039866Y018064D01*
Y018205D01*
X040389Y022548D02*
X040558Y022716D01*
X040539Y022890D02*
X040558Y022871D01*
Y022716D02*
Y022871D01*
X036747Y041420D02*
Y041637D01*
X021752Y041280D02*
X022874Y042402D01*
X023228D01*
X021752Y040846D02*
Y041280D01*
X032317Y026778D02*
Y027094D01*
Y026778D02*
X032323Y026772D01*
X032310Y027100D02*
X032317Y027094D01*
X030887Y041480D02*
Y042029D01*
X032077Y043219D02*
Y045217D01*
X031077Y041480D02*
Y041950D01*
X030887Y042029D02*
X032077Y043219D01*
X031077Y041950D02*
X032267Y043140D01*
Y045138D01*
X031360Y041480D02*
Y041675D01*
X031550Y041480D02*
Y041596D01*
X030419Y041480D02*
Y042704D01*
X030749Y043040D02*
Y043061D01*
X030889Y042900D02*
X030910D01*
X030609Y041480D02*
Y042625D01*
X030419Y042704D02*
X030711Y042996D01*
X030609Y042625D02*
X030845Y042861D01*
X030851D01*
X030711Y043001D02*
X030749Y043040D01*
X030851Y042861D02*
X030889Y042900D01*
X030711Y042996D02*
Y043001D01*
X022819Y014661D02*
X022823Y014665D01*
X022819Y014063D02*
Y014661D01*
X022815Y014059D02*
X022819Y014063D01*
X027445Y014661D02*
X027449Y014665D01*
X027445Y014063D02*
Y014661D01*
X027441Y014059D02*
X027445Y014063D01*
X017005Y024603D02*
Y024695D01*
X017285Y024323D02*
X017310D01*
X017005Y024603D02*
X017285Y024323D01*
X017338Y025028D02*
Y025534D01*
X017005Y024695D02*
X017338Y025028D01*
Y025534D02*
X018674Y026870D01*
X024807Y025397D02*
X028359Y028950D01*
X016535Y024323D02*
X016815Y024603D01*
Y024774D01*
X016510Y024323D02*
X016535D01*
X017148Y025106D02*
Y025612D01*
X016815Y024774D02*
X017148Y025106D01*
X023753Y025591D02*
X023756Y025587D01*
X017148Y025612D02*
X018596Y027060D01*
X024728Y025587D02*
X028281Y029140D01*
X023192Y025587D02*
X023750D01*
X023753Y025591D01*
X023113Y025397D02*
X023750D01*
X023753Y025394D01*
X021719Y027060D02*
X023192Y025587D01*
X018674Y026870D02*
X021640D01*
X023113Y025397D01*
X018596Y027060D02*
X021719D01*
X019206Y026076D02*
X021177D01*
X019284Y025886D02*
X021099D01*
X021177Y026076D02*
X023142Y024111D01*
X023064Y023921D02*
X023717D01*
X023720Y023917D01*
X023142Y024111D02*
X023717D01*
X023720Y024114D01*
X021099Y025886D02*
X023064Y023921D01*
X018025Y027160D02*
X018256D01*
X018261Y027156D01*
X018020Y027165D02*
X018025Y027160D01*
X018777Y025647D02*
X019206Y026076D01*
X018777Y025168D02*
Y025647D01*
X018967Y025569D02*
X019284Y025886D01*
X018967Y025247D02*
Y025569D01*
X030136Y026830D02*
Y027133D01*
X029913Y027355D02*
X030136Y027133D01*
X028340Y027355D02*
X029913D01*
X025098Y024114D02*
X028340Y027355D01*
X024049Y024114D02*
X025098D01*
X023720D02*
X024049D01*
X019215Y024628D02*
Y024730D01*
X018910Y024323D02*
X019215Y024628D01*
X029946Y026830D02*
Y027054D01*
X029835Y027165D02*
X029946Y027054D01*
X028418Y027165D02*
X029835D01*
X025170Y023917D02*
X028418Y027165D01*
X024049Y023917D02*
X025170D01*
X023720D02*
X024049D01*
X019405Y024628D02*
X019710Y024323D01*
X018967Y025247D02*
X019405Y024809D01*
Y024628D02*
Y024809D01*
X018777Y025168D02*
X019215Y024730D01*
X032166Y027656D02*
Y027984D01*
X032165Y027984D02*
X032166Y027984D01*
Y027656D02*
X032167Y027656D01*
X029245Y022847D02*
X029698D01*
X029006Y022904D02*
X029146Y023044D01*
X029698D01*
X029028Y022650D02*
X029698D01*
X028891Y022904D02*
X029006D01*
X028827Y022835D02*
Y022840D01*
X028891Y022904D01*
X020518Y040118D02*
Y040498D01*
X035000Y041050D02*
Y041339D01*
X035000Y041050D02*
X035000Y041050D01*
X050527Y025212D02*
Y026591D01*
X050157Y024843D02*
X050527Y025212D01*
X031374Y027667D02*
Y027981D01*
X031378Y027984D01*
X031370Y027663D02*
X031374Y027667D01*
X032480Y024213D02*
Y024785D01*
X032462Y024803D02*
X032480Y024785D01*
X032099Y023832D02*
X032480Y024213D01*
X031863Y023832D02*
X032099D01*
X032670Y024134D02*
Y024785D01*
X032689Y024803D01*
X032171Y023635D02*
X032670Y024134D01*
X031863Y023635D02*
X032171D01*
X044095Y030709D02*
X044468D01*
X046161Y030315D02*
X046161Y030315D01*
X045689Y030315D02*
X046161D01*
X045177Y029614D02*
X045374Y029417D01*
X045177Y029614D02*
Y030000D01*
X044980Y029417D02*
X044980Y029417D01*
X044980Y029417D02*
Y030000D01*
X044488Y029429D02*
Y029823D01*
Y029409D02*
Y029429D01*
X044783Y029724D01*
Y030000D01*
X044488Y029823D02*
X044586Y029921D01*
Y030118D01*
X030276Y040126D02*
Y040394D01*
X030217Y040453D02*
X030276Y040394D01*
X030433Y040126D02*
Y040630D01*
X030283Y040780D02*
X030433Y040630D01*
X029760Y040780D02*
X030283D01*
X034055Y040126D02*
Y040453D01*
X034055Y040453D02*
X034055Y040453D01*
X037352Y041074D02*
Y041328D01*
X037331Y041053D02*
X037352Y041074D01*
Y041328D02*
X037362Y041339D01*
X037331Y041032D02*
Y041053D01*
X022170Y021358D02*
X022170Y021358D01*
X021855Y021358D02*
X022170D01*
X021855Y021850D02*
X022170D01*
X016110Y023323D02*
Y024870D01*
X016230Y024990D01*
X015718Y026257D02*
Y026518D01*
X015710Y025323D02*
Y025970D01*
X029626Y040914D02*
Y042421D01*
Y040914D02*
X029760Y040780D01*
X047283Y021642D02*
Y021850D01*
X046890Y021272D02*
X047283D01*
X046890Y021642D02*
Y023524D01*
X046949Y023583D01*
X047362D01*
X046024Y024843D02*
X046063D01*
X049705Y017520D02*
X049717Y017508D01*
X049705Y017520D02*
Y018799D01*
X049823Y018917D01*
X050000D01*
X027220Y020730D02*
X027460Y020490D01*
Y018860D02*
Y020490D01*
X027970Y022070D02*
Y024010D01*
X028290Y024330D01*
X028180Y023900D02*
X028320Y024040D01*
X028180Y021860D02*
Y023900D01*
X028290Y024330D02*
X029150D01*
X029300Y024040D02*
Y024160D01*
Y023920D02*
Y024040D01*
X028320D02*
X029300D01*
X032500Y023535D02*
X032662Y023697D01*
X031555Y024980D02*
X031559Y024984D01*
X030977Y024520D02*
Y024763D01*
X030910Y024830D02*
X030977Y024763D01*
X031174Y024520D02*
Y024713D01*
Y024751D01*
X031666Y021292D02*
X031878D01*
X031656Y021282D02*
X031666Y021292D01*
X033275Y020118D02*
Y022377D01*
X031996Y023238D02*
X032288D01*
X032342Y023184D01*
X031865Y023239D02*
X031994D01*
X031863Y023241D02*
X031865Y023239D01*
X031994D02*
X031996Y023238D01*
X032342Y023184D02*
X032736D01*
X033465Y020111D02*
Y020440D01*
Y022455D01*
X033670Y018871D02*
Y019699D01*
X033465Y019904D02*
X033670Y019699D01*
X033335Y018536D02*
X033670Y018871D01*
X033465Y019904D02*
Y020111D01*
X032893Y018536D02*
X033335D01*
X032998Y018106D02*
X033071D01*
X032772Y018332D02*
X032998Y018106D01*
X032772Y018415D02*
X032893Y018536D01*
X032772Y018332D02*
Y018415D01*
X031996Y023048D02*
X032209D01*
X032263Y022994D01*
X031994Y023046D02*
X031996Y023048D01*
X031863Y023044D02*
X031865Y023046D01*
X031994D01*
X032263Y022994D02*
X032657D01*
X033480Y018950D02*
Y019620D01*
X033275Y019825D02*
X033480Y019620D01*
X033256Y018726D02*
X033480Y018950D01*
X033275Y019825D02*
Y020104D01*
X032582Y018494D02*
X032814Y018726D01*
X033256D01*
X032356Y018106D02*
X032582Y018332D01*
Y018494D01*
X032283Y018106D02*
X032356D01*
X032736Y023184D02*
X033465Y022455D01*
X032657Y022994D02*
X033275Y022377D01*
X032074Y022844D02*
X032871Y022048D01*
Y020115D02*
Y022048D01*
X032681Y020115D02*
Y021969D01*
X031996Y022654D02*
X032681Y021969D01*
X031994Y022845D02*
X031996Y022844D01*
X032074D01*
X031863Y022847D02*
X031865Y022845D01*
X031994D01*
X032772Y019397D02*
X033032Y019138D01*
X033071D01*
X032871Y019579D02*
Y020108D01*
X032772Y019397D02*
Y019480D01*
X032871Y019579D01*
X031994Y022652D02*
X031996Y022654D01*
X031863Y022650D02*
X031865Y022652D01*
X031994D01*
X032582Y019559D02*
X032681Y019657D01*
Y020108D01*
X032582Y019397D02*
Y019559D01*
X032323Y019138D02*
X032582Y019397D01*
X032283Y019138D02*
X032323D01*
X023480Y023720D02*
X023720D01*
X024049D02*
X024270D01*
X024082Y025197D02*
X024287D01*
X023543D02*
X023753D01*
X048732Y046752D02*
X048830Y046850D01*
X048725Y046351D02*
X048740Y046336D01*
X048673Y047356D02*
X048829Y047200D01*
X048581Y046351D02*
X048725D01*
X048725Y046556D02*
X048733Y046563D01*
X048829Y047200D02*
X048850D01*
X047992Y046752D02*
X048732D01*
X048574Y046556D02*
X048725D01*
X030609Y026403D02*
Y026720D01*
X030419Y026482D02*
Y026720D01*
X030387Y026181D02*
X030609Y026403D01*
X030308Y026371D02*
X030419Y026482D01*
X029660Y026620D02*
X029770D01*
X029803Y026653D01*
Y026772D01*
X034843D02*
Y027100D01*
X033898Y026772D02*
Y027100D01*
X033110Y026772D02*
Y027100D01*
X031535Y026772D02*
Y027100D01*
X030748Y026892D02*
Y027100D01*
X037362Y027656D02*
Y027984D01*
X035472Y027656D02*
Y027984D01*
X034843Y027656D02*
Y027984D01*
X033740Y027656D02*
Y027984D01*
X030748Y027656D02*
Y027984D01*
X029803Y027656D02*
Y027984D01*
X030276Y027656D02*
Y027984D01*
X036890Y039746D02*
Y040126D01*
X036417Y039746D02*
Y040126D01*
X035945Y039746D02*
Y040126D01*
X035472Y039746D02*
Y040126D01*
X035000Y039746D02*
Y040126D01*
X034528Y039746D02*
Y040126D01*
X032638Y039746D02*
Y040126D01*
X032165Y039746D02*
Y040126D01*
X031693Y039746D02*
Y040126D01*
X031220Y039746D02*
Y040126D01*
X030748Y039746D02*
Y040126D01*
X036890Y041030D02*
Y041339D01*
X036417Y041037D02*
Y041339D01*
X035945Y041035D02*
Y041339D01*
X035472Y041018D02*
Y041339D01*
X034528D02*
Y041638D01*
X034055Y041339D02*
Y041655D01*
X033583Y041339D02*
Y041677D01*
X033110Y041339D02*
Y041680D01*
X032638Y041339D02*
Y041678D01*
X032165Y041045D02*
Y041339D01*
X031693Y041047D02*
Y041339D01*
X031220Y041040D02*
Y041339D01*
X030748Y041038D02*
Y041339D01*
X030276Y041036D02*
Y041339D01*
X029803D02*
Y042126D01*
X032500Y023504D02*
Y023535D01*
X032434Y023438D02*
X032500Y023504D01*
X032634Y023724D02*
X032662Y023697D01*
X031863Y023438D02*
X032434D01*
X028917Y022343D02*
X029134D01*
X028819Y022441D02*
X028917Y022343D01*
X028819Y022441D02*
X029028Y022650D01*
X029278Y023228D02*
X029291Y023241D01*
X028827Y023228D02*
X029278D01*
X029338Y023438D02*
X029698D01*
X028812Y023635D02*
X029698D01*
X029291Y023241D02*
X029698D01*
X029365Y024225D02*
Y024585D01*
Y024225D02*
X029698D01*
X029300Y024160D02*
X029365Y024225D01*
X029300Y023920D02*
X029388Y023832D01*
X029698D01*
X030190Y024713D02*
Y024740D01*
Y024520D02*
Y024713D01*
X027460Y018860D02*
X027737Y018583D01*
X027972D01*
X027190Y018730D02*
Y020390D01*
Y018730D02*
X027972Y017948D01*
Y017638D02*
Y017948D01*
X027362Y017531D02*
X027669Y017224D01*
X028150D01*
X028346Y017421D01*
Y017638D01*
X024049Y023327D02*
X025367D01*
X023720D02*
X024049D01*
Y023524D02*
X025295D01*
X028143Y026371D01*
X021781Y022300D02*
X022815Y023334D01*
X023714D01*
X021703Y022490D02*
X022736Y023524D01*
X023720D01*
X018510Y023323D02*
X018815Y023018D01*
X019173Y022300D02*
X021781D01*
X018815Y022658D02*
Y023018D01*
Y022658D02*
X019173Y022300D01*
X028221Y026181D02*
X030387D01*
X025367Y023327D02*
X028221Y026181D01*
X019005Y023018D02*
X019310Y023323D01*
X019251Y022490D02*
X021703D01*
X019005Y022736D02*
Y023018D01*
Y022736D02*
X019251Y022490D01*
X028143Y026371D02*
X030308D01*
X023720Y023524D02*
X024049D01*
X031208Y024973D02*
Y025190D01*
X030224Y024973D02*
Y025150D01*
X031555Y025197D02*
X031559Y025193D01*
Y024984D02*
Y025193D01*
X031555Y024980D02*
X031562Y024973D01*
X031568Y024520D02*
Y024934D01*
X030578Y024973D02*
Y025150D01*
X030583Y024520D02*
Y024934D01*
X029291Y021122D02*
X029744D01*
X029035D02*
X029291D01*
X029803Y021260D02*
Y021614D01*
Y021260D02*
X029843Y021220D01*
X029744Y021122D02*
X029843Y021220D01*
X029154Y021594D02*
Y021772D01*
X029508Y021594D02*
Y021772D01*
X028800Y022060D02*
X028813Y022047D01*
X029134D01*
X029442Y022355D01*
X029993D01*
X029508Y021772D02*
X029783Y022047D01*
X030118D01*
X030188Y022117D01*
Y022353D02*
X030190Y022355D01*
X030188Y022117D02*
Y022353D01*
X030276Y021448D02*
X030778Y021951D01*
X030276Y020974D02*
Y021448D01*
X030778Y021951D02*
Y022353D01*
X030709Y021220D02*
X030751Y021263D01*
Y021538D01*
X030977Y021764D01*
Y022355D01*
X031260Y020531D02*
X031476D01*
X030768D02*
X031260D01*
X030709Y020591D02*
X030768Y020531D01*
X029793Y020591D02*
X029843D01*
X029291Y020768D02*
X029616D01*
X029793Y020591D01*
X029843D02*
X029892D01*
X030276Y020974D01*
X030778Y022353D02*
X030780Y022355D01*
X030709Y021220D02*
X030885Y021044D01*
X031102D01*
X031260Y020886D01*
X031282Y021282D02*
X031656D01*
X031272Y021272D02*
X031282Y021282D01*
X031272Y021643D02*
Y021972D01*
X031371Y022071D01*
Y022355D01*
X031570Y022100D02*
X031666Y022004D01*
Y021646D02*
Y022004D01*
X031568Y022355D02*
X031570Y022353D01*
Y022100D02*
Y022353D01*
X038780Y016700D02*
Y017451D01*
X039961Y016719D02*
Y017451D01*
X040551Y016709D02*
Y017451D01*
X041142Y016702D02*
Y017451D01*
X041732Y016702D02*
Y017451D01*
X033585Y047192D02*
X033639D01*
X033585Y046995D02*
X033639D01*
X033570Y046980D02*
X033585Y046995D01*
X033759Y046999D02*
X033817Y046940D01*
X033837Y047189D02*
X034007Y047019D01*
X033643Y047189D02*
X033837D01*
X033639Y046995D02*
X033643Y046999D01*
X033639Y047192D02*
X033643Y047189D01*
X033570Y047207D02*
X033585Y047192D01*
X033643Y046999D02*
X033759D01*
X032077Y045217D02*
Y046630D01*
X032267Y045138D02*
Y046709D01*
X031830Y046897D02*
X031845Y046882D01*
X031899D02*
X031903Y046879D01*
X031845Y046685D02*
X031899D01*
X031903Y046689D02*
X032019D01*
X032097Y046879D02*
X032267Y046709D01*
X031845Y046882D02*
X031899D01*
X031903Y046879D02*
X032097D01*
X032019Y046689D02*
X032077Y046630D01*
X031899Y046685D02*
X031903Y046689D01*
X031830Y046670D02*
X031845Y046685D01*
X033071Y019831D02*
Y020111D01*
Y020440D02*
Y020709D01*
D19*
X032854Y023504D02*
X033051D01*
X028430Y023228D02*
Y023430D01*
X028457Y022047D02*
Y022433D01*
Y022449D02*
X028465Y022441D01*
X028457Y022449D02*
Y022835D01*
Y022433D02*
X028465Y022441D01*
X028440Y023440D02*
X028442Y023442D01*
X028430Y023430D02*
X028440Y023440D01*
X028442Y023442D02*
Y023635D01*
D20*
X046947Y024170D02*
Y029027D01*
X047082Y029162D02*
X049935D01*
X046947Y029027D02*
X047082Y029162D01*
X046878Y024102D02*
X046947Y024170D01*
X026003Y030690D02*
X031068D01*
X028350Y031230D02*
X030712D01*
X031024Y030550D02*
X032614Y028960D01*
X031068Y030690D02*
X032578Y029180D01*
X025749Y030550D02*
X031024D01*
X031740Y029650D02*
X032670Y028720D01*
X032552Y029390D02*
X036140D01*
X032614Y028960D02*
X035220D01*
X032578Y029180D02*
X035290D01*
X030712Y031230D02*
X032552Y029390D01*
X032648Y028520D02*
X033810D01*
X031589Y029579D02*
X032648Y028520D01*
X031447Y029537D02*
X032795Y028189D01*
X031350Y029450D02*
X032637Y028163D01*
X031447Y029537D02*
X031447D01*
X032637Y027985D02*
Y028163D01*
X032795Y027985D02*
Y028189D01*
X036140Y029390D02*
X036680Y028850D01*
X035290Y029180D02*
X036102Y028368D01*
X035220Y028960D02*
X035945Y028235D01*
X032670Y028720D02*
X033880D01*
X034213Y028387D01*
Y027984D02*
Y028387D01*
X033810Y028520D02*
X034055Y028275D01*
Y027984D02*
Y028275D01*
X021518Y039550D02*
Y040118D01*
Y039422D02*
Y039550D01*
X032795Y027985D02*
X032795Y027984D01*
X032637Y027985D02*
X032638Y027984D01*
X032480Y027985D02*
Y028132D01*
X031260Y029350D02*
X031262D01*
X032480Y027985D02*
X032480Y027984D01*
X031262Y029350D02*
X032480Y028132D01*
X031993Y030803D02*
X032755Y030040D01*
X026878Y037392D02*
Y042913D01*
X031993Y030803D02*
Y032277D01*
X026878Y037392D02*
X031993Y032277D01*
X032755Y030040D02*
X036410D01*
X022770Y033529D02*
X025749Y030550D01*
X023070Y033623D02*
X026003Y030690D01*
X028070Y030869D02*
Y030886D01*
X028124Y030941D01*
Y031004D01*
X028350Y031230D01*
X026850Y031010D02*
X027761D01*
X028251Y031500D01*
X023827Y029943D02*
X030373D01*
X031486Y028830D01*
X031570D01*
X022580Y031190D02*
X023827Y029943D01*
X031570Y028830D02*
X031920Y028480D01*
Y028230D02*
Y028480D01*
X031851Y027985D02*
Y028161D01*
X031850Y027984D02*
X031851Y027985D01*
Y028161D02*
X031920Y028230D01*
X036680Y028850D02*
X037095D01*
X030640Y031500D02*
X032520Y029620D01*
X036170D01*
X028251Y031500D02*
X030640D01*
X036630Y029094D02*
X037087D01*
X036170Y029620D02*
X036300Y029490D01*
Y029424D02*
Y029490D01*
Y029424D02*
X036630Y029094D01*
X036410Y030040D02*
X036850Y029600D01*
X029685Y035276D02*
X034006Y030955D01*
X035423D01*
X029685Y035276D02*
Y039911D01*
X035366Y023465D02*
X035501Y023600D01*
Y023611D02*
X035544Y023653D01*
X035501Y023600D02*
Y023611D01*
X035544Y023653D02*
Y023812D01*
X049935Y029162D02*
X050527Y028570D01*
X020866Y042184D02*
X020950Y042100D01*
X020866Y042184D02*
Y044882D01*
X020950Y042100D02*
X021550D01*
X016904Y048844D02*
Y052661D01*
Y048844D02*
X020866Y044882D01*
X021200Y042350D02*
Y045335D01*
X017178Y049357D02*
X021200Y045335D01*
X017178Y049357D02*
Y052164D01*
X017169Y052745D02*
X017178Y052754D01*
X016988Y052745D02*
X017169D01*
X016904Y052661D02*
X016988Y052745D01*
X018104Y052361D02*
X018113Y052351D01*
X018263D01*
X018354Y052261D01*
Y052004D02*
Y052261D01*
Y052004D02*
X018689Y051669D01*
Y051661D02*
Y051669D01*
X034705Y038622D02*
X038571D01*
X049008Y045197D02*
Y045630D01*
X049378D02*
Y046110D01*
X049385Y046117D01*
X046732Y045079D02*
X047283Y045630D01*
X045020Y045079D02*
X046732D01*
X024508Y018242D02*
Y019094D01*
Y018242D02*
X025625Y017125D01*
Y015616D02*
Y017125D01*
X024547Y022797D02*
X025553D01*
X022736Y020986D02*
X024547Y022797D01*
X022736Y018169D02*
Y020986D01*
X046024Y024213D02*
X046027Y024216D01*
X046313D01*
X046498Y024400D01*
X046690D01*
X046693Y024398D01*
X046024Y023583D02*
X046480D01*
X046693Y023796D02*
Y024028D01*
X046480Y023583D02*
X046693Y023796D01*
X037205Y026772D02*
Y027150D01*
X031988Y027362D02*
X036993D01*
X037205Y027150D01*
X037095Y028850D02*
X037520Y028425D01*
X037947Y022200D02*
X038200D01*
X037795Y021795D02*
X038021Y022021D01*
X038039D01*
X037598Y021851D02*
X037947Y022200D01*
X037795Y019587D02*
Y021795D01*
X037800Y022500D02*
X038000Y022700D01*
X037106Y019291D02*
Y021852D01*
X037754Y022500D01*
X037800D01*
X038043Y019634D02*
Y021695D01*
Y019634D02*
X039567Y018110D01*
X037598Y019488D02*
Y021851D01*
X037520Y027984D02*
Y028425D01*
X036969Y027131D02*
X037047Y027053D01*
X036850Y027150D02*
X036869Y027131D01*
X036969D01*
X037047Y026772D02*
Y027053D01*
X046797Y024102D02*
X046878D01*
X046722Y024028D02*
X046797Y024102D01*
X050527Y026591D02*
Y028570D01*
X045770Y023316D02*
X046310D01*
X046496Y023130D01*
X045709Y024567D02*
X045984Y024843D01*
X046024D01*
X045709Y023377D02*
Y024567D01*
Y023377D02*
X045770Y023316D01*
X046496Y021642D02*
Y023130D01*
X026790Y020192D02*
Y023997D01*
X026772Y024016D02*
X026790Y023997D01*
X026303Y019705D02*
X026790Y020192D01*
X025118Y019705D02*
X026303D01*
X024508Y019094D02*
X025118Y019705D01*
X025635Y021535D02*
X025800Y021700D01*
X025236Y021535D02*
X025635D01*
X023398Y021134D02*
X024409Y022146D01*
X025591D01*
X025553Y022797D02*
X026102Y023346D01*
X025625Y015616D02*
X025844Y015396D01*
X026730D01*
X027079Y015047D01*
Y014665D02*
Y015047D01*
X035787Y027697D02*
X035827Y027657D01*
X035787Y027697D02*
Y027984D01*
X023070Y033623D02*
Y037870D01*
X022770Y033529D02*
Y037790D01*
X033740Y039587D02*
X034705Y038622D01*
X035368Y023213D02*
X035433Y023147D01*
X035368Y023213D02*
Y023463D01*
X035366Y023465D02*
X035368Y023463D01*
X035433Y022823D02*
Y023147D01*
X035164Y023465D02*
X035366D01*
X034961Y022823D02*
X035433D01*
X034961Y022823D02*
X034961Y022823D01*
X035433D02*
X035433Y022823D01*
X035544Y023812D02*
X035651Y023919D01*
X035433Y024882D02*
X035651Y024664D01*
Y023919D02*
Y024664D01*
X035423Y030955D02*
X035433Y030945D01*
X029685Y039911D02*
X029803Y040029D01*
Y040126D01*
X033898Y039724D02*
X034685Y038937D01*
X037756D01*
X022244Y033563D02*
Y037945D01*
X021607Y038583D02*
X022244Y037945D01*
X021018Y038031D02*
Y038491D01*
X021110Y038583D01*
X021607D01*
X022244Y033563D02*
X025591Y030217D01*
X023398Y020787D02*
Y021134D01*
Y020402D02*
Y020787D01*
Y020402D02*
X023406Y020394D01*
X023760D02*
X023768Y020386D01*
Y020000D02*
Y020386D01*
X023760Y020394D02*
X024047Y020681D01*
X024536D01*
X024996Y020516D02*
Y021295D01*
X025236Y021535D01*
X025205Y020307D02*
X025442D01*
X024996Y020516D02*
X025205Y020307D01*
X019882Y037106D02*
X020018Y037242D01*
Y038031D01*
X020518Y037612D02*
X020866Y037264D01*
X020518Y037612D02*
Y038031D01*
X020866Y037106D02*
Y037264D01*
X021518Y039422D02*
X023070Y037870D01*
X021018Y039542D02*
Y040118D01*
Y039542D02*
X022770Y037790D01*
X036102Y027984D02*
Y028368D01*
X035945Y027984D02*
Y028235D01*
X047283Y045630D02*
X049008D01*
X031378Y026483D02*
Y026772D01*
X031299Y026378D02*
Y026404D01*
X031378Y026483D01*
X030300Y026920D02*
Y027080D01*
X030340Y027120D01*
X037205Y026772D02*
X037205Y026772D01*
X037520D02*
Y027119D01*
X037500Y027139D02*
X037520Y027119D01*
X037500Y027139D02*
Y027165D01*
X033740Y039587D02*
Y040126D01*
X022362Y016516D02*
X022453Y016425D01*
X022362Y016516D02*
Y017264D01*
X022453Y014665D02*
Y016425D01*
X031220Y027260D02*
X031310Y027350D01*
X031220Y026772D02*
Y027260D01*
X031063Y026772D02*
Y027523D01*
X037106Y019291D02*
X038386Y018012D01*
Y017451D02*
Y018012D01*
X037598Y019488D02*
X038976Y018110D01*
Y017451D02*
Y018110D01*
X037795Y019587D02*
X039173Y018209D01*
Y017451D02*
Y018209D01*
X039567Y017451D02*
Y018110D01*
X033898Y039724D02*
Y040126D01*
X030276Y026896D02*
X030300Y026920D01*
X030276Y026772D02*
Y026896D01*
D26*
X018104Y052754D02*
D03*
Y052557D02*
D03*
Y052361D02*
D03*
Y052164D02*
D03*
X017178D02*
D03*
Y052361D02*
D03*
Y052557D02*
D03*
Y052754D02*
D03*
D29*
X048344Y018950D02*
D03*
X047596D02*
D03*
D30*
X049247Y019340D02*
D03*
X048893D02*
D03*
X017576Y051661D02*
D03*
X017931D02*
D03*
X023406Y020394D02*
D03*
X023760D02*
D03*
X028465Y022441D02*
D03*
X028819D02*
D03*
X020335Y040748D02*
D03*
X019980D02*
D03*
X039547Y023720D02*
D03*
X039193D02*
D03*
X031208Y024973D02*
D03*
X031562D02*
D03*
X032854Y023504D02*
D03*
X032500D02*
D03*
X030224Y024973D02*
D03*
X030578D02*
D03*
X029154Y021772D02*
D03*
X029508D02*
D03*
X022524Y021358D02*
D03*
X022170D02*
D03*
X022524Y021850D02*
D03*
X022170D02*
D03*
D31*
X024049Y024114D02*
D03*
Y023917D02*
D03*
Y023524D02*
D03*
Y023327D02*
D03*
X023720D02*
D03*
Y023524D02*
D03*
Y023917D02*
D03*
Y024114D02*
D03*
X024082Y025591D02*
D03*
Y025394D02*
D03*
Y025000D02*
D03*
Y024803D02*
D03*
X023753D02*
D03*
Y025000D02*
D03*
Y025394D02*
D03*
Y025591D02*
D03*
D32*
X041280Y043386D02*
D03*
Y043012D02*
D03*
Y042638D02*
D03*
X042382D02*
D03*
Y043012D02*
D03*
Y043386D02*
D03*
D33*
X015945Y034597D02*
D03*
Y040796D02*
D03*
D34*
X043591Y031102D02*
D03*
X043220D02*
D03*
X043591Y031496D02*
D03*
X043220D02*
D03*
X018689Y051661D02*
D03*
X018319D02*
D03*
X041449Y042126D02*
D03*
X041819D02*
D03*
X049008Y045630D02*
D03*
X049378D02*
D03*
X049008Y045197D02*
D03*
X049378D02*
D03*
X049008Y044724D02*
D03*
X049378D02*
D03*
X023768Y020000D02*
D03*
X023398D02*
D03*
X027079Y014665D02*
D03*
X027449D02*
D03*
X022453D02*
D03*
X022823D02*
D03*
X023398Y020787D02*
D03*
X023768D02*
D03*
X028457Y023228D02*
D03*
X028827D02*
D03*
X028457Y022835D02*
D03*
X028827D02*
D03*
X028457Y022047D02*
D03*
X028827D02*
D03*
X028442Y023635D02*
D03*
X028812D02*
D03*
X017650Y027165D02*
D03*
X018020D02*
D03*
D35*
X035827Y023346D02*
D03*
Y023701D02*
D03*
X015325Y026526D02*
D03*
Y026880D02*
D03*
X050000Y047618D02*
D03*
Y047264D02*
D03*
X043898Y052185D02*
D03*
Y052539D02*
D03*
X044291Y052185D02*
D03*
Y052539D02*
D03*
X026240Y020689D02*
D03*
Y021043D02*
D03*
X044215Y039477D02*
D03*
Y039123D02*
D03*
X044488Y029055D02*
D03*
Y029409D02*
D03*
X044094Y029055D02*
D03*
Y029409D02*
D03*
X031666Y021292D02*
D03*
Y021646D02*
D03*
X031260Y020886D02*
D03*
Y020531D02*
D03*
X029291Y020768D02*
D03*
Y021122D02*
D03*
X049016Y016909D02*
D03*
Y016555D02*
D03*
X016112Y026880D02*
D03*
Y026526D02*
D03*
X044882Y042933D02*
D03*
Y043287D02*
D03*
D36*
X044902Y038071D02*
D03*
Y036181D02*
D03*
Y036654D02*
D03*
Y037126D02*
D03*
Y037598D02*
D03*
Y038543D02*
D03*
Y039016D02*
D03*
D37*
X050177Y035374D02*
D03*
X049705D02*
D03*
X049232D02*
D03*
X048760D02*
D03*
X048287D02*
D03*
X047815D02*
D03*
X047343D02*
D03*
X046870D02*
D03*
X046398D02*
D03*
X045925D02*
D03*
X045453D02*
D03*
X044980D02*
D03*
Y039823D02*
D03*
X045453D02*
D03*
X045925D02*
D03*
X046398D02*
D03*
X046870D02*
D03*
X047343D02*
D03*
X047815D02*
D03*
X048287D02*
D03*
X048760D02*
D03*
X049232D02*
D03*
X049705D02*
D03*
X050177D02*
D03*
D38*
X042618Y020846D02*
D03*
Y018917D02*
D03*
D39*
X039902Y043406D02*
D03*
X040610D02*
D03*
X043268Y052362D02*
D03*
X042559D02*
D03*
X018150Y034252D02*
D03*
X018858D02*
D03*
X050295Y021457D02*
D03*
X049587D02*
D03*
X048209D02*
D03*
X048917D02*
D03*
X044272Y020669D02*
D03*
X044980D02*
D03*
X044290Y021442D02*
D03*
X044999D02*
D03*
D40*
X047687Y052106D02*
D03*
Y043957D02*
D03*
D41*
X047992Y051673D02*
D03*
Y051476D02*
D03*
Y051280D02*
D03*
Y051083D02*
D03*
Y050886D02*
D03*
Y050689D02*
D03*
Y050492D02*
D03*
Y050295D02*
D03*
Y050098D02*
D03*
Y049902D02*
D03*
Y049705D02*
D03*
Y049508D02*
D03*
Y049311D02*
D03*
Y049114D02*
D03*
Y048917D02*
D03*
Y048720D02*
D03*
Y048524D02*
D03*
Y048327D02*
D03*
Y048130D02*
D03*
Y047933D02*
D03*
Y047736D02*
D03*
Y047539D02*
D03*
Y047343D02*
D03*
Y047146D02*
D03*
Y046949D02*
D03*
Y046752D02*
D03*
Y046555D02*
D03*
Y046358D02*
D03*
Y046161D02*
D03*
Y045177D02*
D03*
Y044980D02*
D03*
Y044783D02*
D03*
Y044587D02*
D03*
Y044390D02*
D03*
X045020Y051575D02*
D03*
Y051378D02*
D03*
Y051181D02*
D03*
Y050984D02*
D03*
Y050787D02*
D03*
Y050591D02*
D03*
Y050394D02*
D03*
Y050197D02*
D03*
Y050000D02*
D03*
Y049803D02*
D03*
Y049606D02*
D03*
Y049409D02*
D03*
Y049213D02*
D03*
Y049016D02*
D03*
Y048819D02*
D03*
Y048622D02*
D03*
Y048425D02*
D03*
Y048228D02*
D03*
Y048032D02*
D03*
Y047835D02*
D03*
Y047638D02*
D03*
Y047441D02*
D03*
Y047244D02*
D03*
Y047047D02*
D03*
Y046850D02*
D03*
Y046654D02*
D03*
Y046457D02*
D03*
Y046260D02*
D03*
Y046063D02*
D03*
Y045079D02*
D03*
Y044882D02*
D03*
Y044685D02*
D03*
Y044488D02*
D03*
D42*
X050025Y046599D02*
D03*
X049385D02*
D03*
Y046117D02*
D03*
X050025D02*
D03*
D43*
X046722Y024028D02*
D03*
Y024398D02*
D03*
X024000Y017215D02*
D03*
Y017585D02*
D03*
X024400Y017215D02*
D03*
Y017585D02*
D03*
X035433Y022823D02*
D03*
Y022453D02*
D03*
X034961Y022453D02*
D03*
Y022823D02*
D03*
X044980Y029047D02*
D03*
Y029417D02*
D03*
X045374Y029047D02*
D03*
Y029417D02*
D03*
X047283Y021272D02*
D03*
Y021642D02*
D03*
X046890D02*
D03*
Y021272D02*
D03*
X027362Y017902D02*
D03*
Y017531D02*
D03*
X031272Y021643D02*
D03*
Y021272D02*
D03*
X046496Y021642D02*
D03*
Y021272D02*
D03*
X042825Y021476D02*
D03*
Y021846D02*
D03*
X049016Y017711D02*
D03*
Y017341D02*
D03*
X015718Y026888D02*
D03*
Y026518D02*
D03*
D44*
X012984Y023583D02*
D03*
X013984D02*
D03*
Y021299D02*
D03*
X012984D02*
D03*
Y017559D02*
D03*
X013984D02*
D03*
Y019843D02*
D03*
X012984D02*
D03*
D45*
X036575Y023681D02*
D03*
D46*
Y023307D02*
D03*
Y022933D02*
D03*
X037500D02*
D03*
Y023681D02*
D03*
D47*
X049829Y033070D02*
D03*
X048687D02*
D03*
D48*
X049258Y033700D02*
D03*
D49*
X033576Y023465D02*
D03*
Y023661D02*
D03*
Y023858D02*
D03*
Y024055D02*
D03*
Y024252D02*
D03*
X035164D02*
D03*
Y024055D02*
D03*
Y023858D02*
D03*
Y023661D02*
D03*
D50*
Y023465D02*
D03*
D51*
X026890Y014059D02*
D03*
X027441D02*
D03*
X022264D02*
D03*
X022815D02*
D03*
D52*
X023110Y017264D02*
D03*
X022362D02*
D03*
Y018169D02*
D03*
X022736D02*
D03*
D53*
X023110D02*
D03*
D54*
X025442Y021055D02*
D03*
Y020307D02*
D03*
X024536D02*
D03*
Y020681D02*
D03*
D55*
Y021055D02*
D03*
D56*
X029803Y026772D02*
D03*
Y027984D02*
D03*
X029961Y026772D02*
D03*
Y027984D02*
D03*
X030118Y026772D02*
D03*
Y027984D02*
D03*
X030276Y026772D02*
D03*
Y027984D02*
D03*
X030433Y026772D02*
D03*
Y027984D02*
D03*
X030591Y026772D02*
D03*
Y027984D02*
D03*
X030748Y026772D02*
D03*
Y027984D02*
D03*
X030906Y026772D02*
D03*
Y027984D02*
D03*
X031063Y026772D02*
D03*
Y027984D02*
D03*
X031220Y026772D02*
D03*
Y027984D02*
D03*
X031378Y026772D02*
D03*
Y027984D02*
D03*
X031535Y026772D02*
D03*
Y027984D02*
D03*
X031693Y026772D02*
D03*
Y027984D02*
D03*
X031850Y026772D02*
D03*
Y027984D02*
D03*
X032008Y026772D02*
D03*
Y027984D02*
D03*
X032165Y026772D02*
D03*
Y027984D02*
D03*
X032323Y026772D02*
D03*
Y027984D02*
D03*
X032480Y026772D02*
D03*
Y027984D02*
D03*
X032638Y026772D02*
D03*
Y027984D02*
D03*
X032795Y026772D02*
D03*
Y027984D02*
D03*
X032953Y026772D02*
D03*
Y027984D02*
D03*
X033110Y026772D02*
D03*
Y027984D02*
D03*
X033268Y026772D02*
D03*
Y027984D02*
D03*
X033425Y026772D02*
D03*
Y027984D02*
D03*
X033583Y026772D02*
D03*
Y027984D02*
D03*
X033740Y026772D02*
D03*
Y027984D02*
D03*
X033898Y026772D02*
D03*
Y027984D02*
D03*
X034055Y026772D02*
D03*
Y027984D02*
D03*
X034213Y026772D02*
D03*
Y027984D02*
D03*
X034370Y026772D02*
D03*
Y027984D02*
D03*
X034528Y026772D02*
D03*
Y027984D02*
D03*
X034685Y026772D02*
D03*
Y027984D02*
D03*
X034843Y026772D02*
D03*
Y027984D02*
D03*
X035000Y026772D02*
D03*
Y027984D02*
D03*
X035157Y026772D02*
D03*
Y027984D02*
D03*
X035315Y026772D02*
D03*
Y027984D02*
D03*
X035472Y026772D02*
D03*
Y027984D02*
D03*
X035630Y026772D02*
D03*
Y027984D02*
D03*
X035787Y026772D02*
D03*
Y027984D02*
D03*
X035945Y026772D02*
D03*
Y027984D02*
D03*
X036102Y026772D02*
D03*
Y027984D02*
D03*
X036260Y026772D02*
D03*
Y027984D02*
D03*
X036417Y026772D02*
D03*
Y027984D02*
D03*
X036575Y026772D02*
D03*
Y027984D02*
D03*
X036732Y026772D02*
D03*
Y027984D02*
D03*
X036890Y026772D02*
D03*
Y027984D02*
D03*
X037047Y026772D02*
D03*
Y027984D02*
D03*
X037205Y026772D02*
D03*
Y027984D02*
D03*
X037362Y026772D02*
D03*
Y027984D02*
D03*
X037520Y026772D02*
D03*
Y027984D02*
D03*
X029803Y040126D02*
D03*
Y041339D02*
D03*
X029961Y040126D02*
D03*
Y041339D02*
D03*
X030118Y040126D02*
D03*
Y041339D02*
D03*
X030276Y040126D02*
D03*
Y041339D02*
D03*
X030433Y040126D02*
D03*
Y041339D02*
D03*
X030591Y040126D02*
D03*
Y041339D02*
D03*
X030748Y040126D02*
D03*
Y041339D02*
D03*
X030906Y040126D02*
D03*
Y041339D02*
D03*
X031063Y040126D02*
D03*
Y041339D02*
D03*
X031220Y040126D02*
D03*
Y041339D02*
D03*
X031378Y040126D02*
D03*
Y041339D02*
D03*
X031535Y040126D02*
D03*
Y041339D02*
D03*
X031693Y040126D02*
D03*
Y041339D02*
D03*
X031850Y040126D02*
D03*
Y041339D02*
D03*
X032008Y040126D02*
D03*
Y041339D02*
D03*
X032165Y040126D02*
D03*
Y041339D02*
D03*
X032323Y040126D02*
D03*
Y041339D02*
D03*
X032480Y040126D02*
D03*
Y041339D02*
D03*
X032638Y040126D02*
D03*
Y041339D02*
D03*
X032795Y040126D02*
D03*
Y041339D02*
D03*
X032953Y040126D02*
D03*
Y041339D02*
D03*
X033110Y040126D02*
D03*
Y041339D02*
D03*
X033268Y040126D02*
D03*
Y041339D02*
D03*
X033425Y040126D02*
D03*
Y041339D02*
D03*
X033583Y040126D02*
D03*
Y041339D02*
D03*
X033740Y040126D02*
D03*
Y041339D02*
D03*
X033898Y040126D02*
D03*
Y041339D02*
D03*
X034055Y040126D02*
D03*
Y041339D02*
D03*
X034213Y040126D02*
D03*
Y041339D02*
D03*
X034370Y040126D02*
D03*
Y041339D02*
D03*
X034528Y040126D02*
D03*
Y041339D02*
D03*
X034685Y040126D02*
D03*
Y041339D02*
D03*
X034843Y040126D02*
D03*
Y041339D02*
D03*
X035000Y040126D02*
D03*
Y041339D02*
D03*
X035157Y040126D02*
D03*
Y041339D02*
D03*
X035315Y040126D02*
D03*
Y041339D02*
D03*
X035472Y040126D02*
D03*
Y041339D02*
D03*
X035630Y040126D02*
D03*
Y041339D02*
D03*
X035787Y040126D02*
D03*
Y041339D02*
D03*
X035945Y040126D02*
D03*
Y041339D02*
D03*
X036102Y040126D02*
D03*
Y041339D02*
D03*
X036260Y040126D02*
D03*
Y041339D02*
D03*
X036417Y040126D02*
D03*
Y041339D02*
D03*
X036575Y040126D02*
D03*
Y041339D02*
D03*
X036732Y040126D02*
D03*
Y041339D02*
D03*
X036890Y040126D02*
D03*
Y041339D02*
D03*
X037047Y040126D02*
D03*
Y041339D02*
D03*
X037205Y040126D02*
D03*
Y041339D02*
D03*
X037362Y040126D02*
D03*
Y041339D02*
D03*
X037520Y040126D02*
D03*
Y041339D02*
D03*
D57*
X021260Y035630D02*
D03*
X018898D02*
D03*
D58*
X014569Y033760D02*
D03*
X013569D02*
D03*
Y028248D02*
D03*
X014569D02*
D03*
X019951D02*
D03*
X020951D02*
D03*
X019951Y033760D02*
D03*
X020951D02*
D03*
D59*
X020866Y037106D02*
D03*
X019882D02*
D03*
D60*
X038386Y017451D02*
D03*
X038583D02*
D03*
X038780D02*
D03*
X038976D02*
D03*
X039173D02*
D03*
X039370D02*
D03*
X039567D02*
D03*
X039764D02*
D03*
X039961D02*
D03*
X040157D02*
D03*
X040354D02*
D03*
X040551D02*
D03*
X040748D02*
D03*
X040945D02*
D03*
X041142D02*
D03*
X041339D02*
D03*
X041535D02*
D03*
X041732D02*
D03*
X041929D02*
D03*
D61*
X040167Y020694D02*
D03*
X039911D02*
D03*
X039656D02*
D03*
X039400D02*
D03*
X039144D02*
D03*
X038888D02*
D03*
X038632D02*
D03*
X038376D02*
D03*
Y023007D02*
D03*
X038632D02*
D03*
X038888D02*
D03*
X039144D02*
D03*
X039400D02*
D03*
X039656D02*
D03*
X039911D02*
D03*
X040167D02*
D03*
D62*
X020491Y041372D02*
D03*
X021260Y041732D02*
D03*
D63*
Y041012D02*
D03*
D64*
X043898Y037835D02*
D03*
Y038543D02*
D03*
X043110Y042756D02*
D03*
Y043465D02*
D03*
X044094Y042756D02*
D03*
Y043465D02*
D03*
D65*
X045571Y030118D02*
D03*
X044586D02*
D03*
X045571Y031102D02*
D03*
X044586D02*
D03*
D66*
X044783Y031220D02*
D03*
X044980D02*
D03*
X045177D02*
D03*
X045374D02*
D03*
Y030000D02*
D03*
X045177D02*
D03*
X044980D02*
D03*
X044783D02*
D03*
D67*
X045689Y030905D02*
D03*
Y030709D02*
D03*
Y030512D02*
D03*
Y030315D02*
D03*
X044468D02*
D03*
Y030512D02*
D03*
Y030709D02*
D03*
Y030905D02*
D03*
D68*
X012894Y026772D02*
D03*
Y026181D02*
D03*
Y025591D02*
D03*
Y025000D02*
D03*
X026831Y017323D02*
D03*
D69*
X043976Y019488D02*
D03*
X045591D02*
D03*
D70*
X013976Y026569D02*
D03*
Y025006D02*
D03*
D71*
X017618Y027657D02*
D03*
X017028D02*
D03*
X016339D02*
D03*
X015748D02*
D03*
D72*
X048602Y028543D02*
D03*
X049311D02*
D03*
X047343Y027756D02*
D03*
X046634D02*
D03*
X048602D02*
D03*
X049311D02*
D03*
X047343Y026969D02*
D03*
X046634D02*
D03*
X048602D02*
D03*
X049311D02*
D03*
X028189Y015827D02*
D03*
X028898D02*
D03*
X028189Y015039D02*
D03*
X028898D02*
D03*
X028701Y019331D02*
D03*
X027992D02*
D03*
D73*
X049350Y024724D02*
D03*
X048760D02*
D03*
X048169D02*
D03*
Y024213D02*
D03*
X048760D02*
D03*
X049350D02*
D03*
X048760Y023701D02*
D03*
X048169D02*
D03*
X045305Y024724D02*
D03*
X044715D02*
D03*
X044124D02*
D03*
Y024213D02*
D03*
X044715D02*
D03*
X045305D02*
D03*
X044715Y023701D02*
D03*
X044124D02*
D03*
D74*
X049332Y023715D02*
D03*
X045287D02*
D03*
D75*
X048386Y022500D02*
D03*
X047874D02*
D03*
X047362D02*
D03*
X048386Y022972D02*
D03*
X047874D02*
D03*
X047362D02*
D03*
Y025925D02*
D03*
X047874D02*
D03*
X048386D02*
D03*
X047362Y025453D02*
D03*
X047874D02*
D03*
X048386D02*
D03*
X049134D02*
D03*
X049646D02*
D03*
X050157D02*
D03*
X049134Y025925D02*
D03*
X049646D02*
D03*
X050157D02*
D03*
X049134Y022972D02*
D03*
X049646D02*
D03*
X050157D02*
D03*
X049134Y022500D02*
D03*
X049646D02*
D03*
X050157D02*
D03*
X044341D02*
D03*
X043829D02*
D03*
X043317D02*
D03*
X044341Y022972D02*
D03*
X043829D02*
D03*
X043317D02*
D03*
Y025925D02*
D03*
X043829D02*
D03*
X044341D02*
D03*
X043317Y025453D02*
D03*
X043829D02*
D03*
X044341D02*
D03*
X045089D02*
D03*
X045600D02*
D03*
X046112D02*
D03*
X045089Y025925D02*
D03*
X045600D02*
D03*
X046112D02*
D03*
X045089Y022972D02*
D03*
X045600D02*
D03*
X046112D02*
D03*
X045089Y022500D02*
D03*
X045600D02*
D03*
X046112D02*
D03*
D76*
X047362Y023583D02*
D03*
Y024213D02*
D03*
Y024843D02*
D03*
X050157D02*
D03*
Y024213D02*
D03*
Y023583D02*
D03*
X043317D02*
D03*
Y024213D02*
D03*
Y024843D02*
D03*
X046112D02*
D03*
Y024213D02*
D03*
Y023583D02*
D03*
D77*
X025453Y018563D02*
D03*
X025138D02*
D03*
X025453Y019232D02*
D03*
X025138D02*
D03*
D78*
X025925Y017244D02*
D03*
Y017992D02*
D03*
X026831D02*
D03*
D79*
X028858Y016732D02*
D03*
X027835D02*
D03*
D80*
X028720Y017638D02*
D03*
X028346D02*
D03*
X027972D02*
D03*
Y018583D02*
D03*
X028346D02*
D03*
X028720D02*
D03*
D81*
X030709Y020591D02*
D03*
X029843D02*
D03*
Y021220D02*
D03*
X030709D02*
D03*
D82*
X049665Y017480D02*
D03*
Y016732D02*
D03*
X050453Y017106D02*
D03*
D83*
X044478Y026909D02*
D03*
Y027618D02*
D03*
X043691Y026909D02*
D03*
Y027618D02*
D03*
X042165Y024862D02*
D03*
Y024154D02*
D03*
X040591Y024862D02*
D03*
Y024154D02*
D03*
X041378Y024862D02*
D03*
Y024154D02*
D03*
D84*
X020018Y040118D02*
D03*
X020518D02*
D03*
X021018D02*
D03*
X021518D02*
D03*
Y038031D02*
D03*
X021018D02*
D03*
X020518D02*
D03*
X020018D02*
D03*
D85*
X050000Y018150D02*
D03*
Y018406D02*
D03*
Y018661D02*
D03*
Y018917D02*
D03*
D86*
X048787D02*
D03*
Y018661D02*
D03*
Y018406D02*
D03*
Y018150D02*
D03*
D87*
X049230Y018533D02*
D03*
D88*
X033465Y020440D02*
D03*
X033268D02*
D03*
X032874D02*
D03*
X032677D02*
D03*
Y020111D02*
D03*
X032874D02*
D03*
X033268D02*
D03*
X033465D02*
D03*
D89*
X031863Y022650D02*
D03*
Y022847D02*
D03*
Y023044D02*
D03*
Y023241D02*
D03*
Y023438D02*
D03*
Y023635D02*
D03*
Y023832D02*
D03*
Y024028D02*
D03*
Y024225D02*
D03*
X029698D02*
D03*
Y024028D02*
D03*
Y023832D02*
D03*
Y023635D02*
D03*
Y023438D02*
D03*
Y023241D02*
D03*
Y023044D02*
D03*
Y022847D02*
D03*
Y022650D02*
D03*
D90*
X031568Y024520D02*
D03*
X031371D02*
D03*
X031174D02*
D03*
X030977D02*
D03*
X030780D02*
D03*
X030583D02*
D03*
X030387D02*
D03*
X030190D02*
D03*
X029993D02*
D03*
Y022355D02*
D03*
X030190D02*
D03*
X030387D02*
D03*
X030583D02*
D03*
X030780D02*
D03*
X030977D02*
D03*
X031174D02*
D03*
X031371D02*
D03*
X031568D02*
D03*
D91*
X030780Y023438D02*
D03*
D95*
X024049Y023720D02*
D03*
X023720D02*
D03*
X024082Y025197D02*
D03*
X023753D02*
D03*
D102*
X017641Y052459D02*
D03*
D114*
X045079Y030610D02*
D03*
D137*
X045915Y051968D02*
D03*
D138*
Y044094D02*
D03*
X025878Y042913D02*
D03*
D158*
X015945Y037697D02*
D03*
D159*
X048917Y041339D02*
D03*
X046752Y040846D02*
D03*
X049508Y041339D02*
D03*
X050098D02*
D03*
D160*
X033071Y020440D02*
D03*
Y020111D02*
D03*
D161*
X035827Y023346D02*
X035849Y023324D01*
X036131D01*
X036155Y023300D01*
X036660Y023310D02*
X036995D01*
X036155Y023300D02*
X036490D01*
X049803Y047638D02*
X049980D01*
X050000Y047618D01*
X050012Y046129D02*
Y047251D01*
Y046129D02*
X050025Y046117D01*
X050000Y047264D02*
X050012Y047251D01*
X049785Y047252D02*
X049988D01*
X050000Y047264D01*
X044055Y037520D02*
Y037697D01*
X018799Y040748D02*
X019783Y041732D01*
X015993Y040748D02*
X018799D01*
X015945Y040796D02*
X015993Y040748D01*
X019783Y041732D02*
X021260D01*
X045374Y028839D02*
Y029047D01*
X044980Y028839D02*
Y029047D01*
X044075Y029429D02*
X044094Y029409D01*
X043898Y029429D02*
X044075D01*
X015984Y038384D02*
X016091Y038277D01*
X015984Y038384D02*
Y038386D01*
X016135Y037205D02*
X016243Y037096D01*
X016091Y038277D02*
X016243D01*
X015984Y037874D02*
X016135D01*
X016243Y037766D01*
X016470Y034843D02*
X016634D01*
X016213Y034586D02*
X016470Y034843D01*
X016213Y034329D02*
Y034586D01*
X015420Y034072D02*
X015677Y034329D01*
X016213D01*
X043128Y022500D02*
X043228D01*
X044152D01*
X043740Y022539D02*
Y022972D01*
X043228D02*
Y023012D01*
X044252Y022972D02*
Y023012D01*
X043740Y022972D02*
Y023051D01*
X015305Y026860D02*
X015325Y026880D01*
X015213Y026860D02*
X015305D01*
X017554Y051639D02*
X017565Y051649D01*
X017554Y051461D02*
Y051639D01*
X017554Y051461D02*
X017554Y051461D01*
X044203Y039489D02*
Y039744D01*
Y039489D02*
X044215Y039477D01*
X049385Y046599D02*
X049390Y046604D01*
Y046929D01*
X044980Y040138D02*
Y040354D01*
X044291Y052539D02*
Y052756D01*
X042244Y052205D02*
X042461D01*
X042244Y052520D02*
X042461D01*
X043898Y052539D02*
Y052756D01*
X017441Y027156D02*
X017640D01*
X017650Y027165D01*
X023221Y017598D02*
X023505D01*
X023622Y017716D01*
Y017992D01*
X049858Y032500D02*
Y033067D01*
X049862Y033071D01*
X048760Y033110D02*
Y034980D01*
X048720Y033071D02*
X048758Y033033D01*
Y032500D02*
Y033033D01*
X021260Y041012D02*
Y041260D01*
X025950Y020700D02*
X026229D01*
X026240Y020689D01*
X024529Y020300D02*
X024536Y020307D01*
X024100Y020300D02*
X024529D01*
X022544Y021378D02*
X022741D01*
X022524Y021850D02*
X022741D01*
X049862Y033071D02*
Y034094D01*
X049705Y034252D02*
X049862Y034094D01*
X049705Y034252D02*
Y034764D01*
X048720Y033071D02*
X048760Y033110D01*
X027870Y016434D02*
Y016627D01*
X028000Y016039D02*
X028046D01*
X028340Y018370D02*
Y018587D01*
X028046Y016039D02*
X028117Y015968D01*
X042953Y042480D02*
Y042697D01*
X039547Y023720D02*
X039733D01*
X048860Y024792D02*
Y025028D01*
X021536Y037664D02*
Y038013D01*
Y037664D02*
X021540Y037660D01*
X049902Y025925D02*
X050157D01*
X049646D02*
X049902D01*
X049646Y025453D02*
X050157D01*
X049134D02*
X049646D01*
X049390Y025925D02*
X049646D01*
X049134D02*
X049390D01*
X045512D02*
X046024D01*
X045512Y025453D02*
X046024D01*
X045000D02*
X045512D01*
X045000D02*
X045000D01*
Y025925D01*
Y025453D02*
Y025453D01*
Y025925D02*
X045512D01*
X050157Y025669D02*
Y025925D01*
Y025453D02*
Y025669D01*
Y025413D02*
Y025453D01*
X049134Y025669D02*
Y025925D01*
Y025453D02*
Y025669D01*
Y025413D02*
Y025453D01*
X049646Y025669D02*
Y025925D01*
Y025453D02*
Y025669D01*
Y025413D02*
Y025453D01*
X049350Y024488D02*
Y024606D01*
Y024094D02*
Y024488D01*
X049350Y023957D02*
Y024213D01*
Y023701D02*
Y023957D01*
X048760Y024705D02*
X049272D01*
X048268D02*
X048760D01*
X046024Y025925D02*
Y025965D01*
Y025453D02*
Y025925D01*
X048760Y024705D02*
Y024724D01*
Y024469D02*
Y024705D01*
Y024213D02*
Y024469D01*
Y024213D02*
X049272D01*
X048760Y023937D02*
Y024114D01*
Y023701D02*
Y023937D01*
Y023602D02*
Y023701D01*
X048425Y024213D02*
X048681D01*
X048169D02*
X048425D01*
X048169Y024469D02*
Y024724D01*
Y024213D02*
Y024469D01*
Y023937D02*
Y024114D01*
Y023701D02*
Y023937D01*
Y023602D02*
Y023701D01*
X048760D02*
X049272D01*
X048425D02*
X048681D01*
X048169D02*
X048425D01*
X048386Y022717D02*
Y022972D01*
Y022500D02*
Y022717D01*
Y022461D02*
Y022500D01*
X048130Y022972D02*
X048386D01*
X047874D02*
X048130D01*
Y022500D02*
X048386D01*
X047874D02*
X048130D01*
X047362Y022717D02*
Y022972D01*
Y022500D02*
Y022717D01*
Y022461D02*
Y022500D01*
X047618Y022972D02*
X047874D01*
X047362D02*
X047618D01*
Y022500D02*
X047874D01*
X047362D02*
X047618D01*
X047874Y022717D02*
Y022972D01*
Y022500D02*
Y022717D01*
Y022461D02*
Y022500D01*
X045512Y025925D02*
Y025965D01*
Y025709D02*
Y025925D01*
Y025453D02*
Y025709D01*
Y025453D02*
Y025453D01*
X044882Y024724D02*
Y025236D01*
Y024724D02*
X045138D01*
X044626D02*
X044882D01*
X045217Y024469D02*
Y024724D01*
Y024213D02*
Y024469D01*
X045198Y023971D02*
Y024227D01*
Y023715D02*
Y023971D01*
X044626Y024469D02*
Y024724D01*
Y024213D02*
Y024469D01*
Y024213D02*
X045138D01*
X044626Y023957D02*
Y024213D01*
Y023701D02*
Y023957D01*
Y023701D02*
Y023701D01*
X044331Y024705D02*
X044449D01*
X044025D02*
X044331D01*
X044035Y024213D02*
X044547D01*
X044025Y024705D02*
Y024746D01*
Y024490D02*
Y024705D01*
Y024234D02*
Y024490D01*
X044035Y023801D02*
Y024313D01*
X044903Y023701D02*
X045159D01*
X044626D02*
X044903D01*
X044135D02*
X044626D01*
X043740Y022972D02*
X044252D01*
Y022500D02*
Y022972D01*
X043228D02*
X043740D01*
X043228Y022500D02*
Y022972D01*
X027360Y017893D02*
Y018110D01*
X023110Y017487D02*
X023221Y017598D01*
X023110Y017264D02*
Y017487D01*
X021850Y016890D02*
Y019134D01*
Y016890D02*
X022047Y016693D01*
Y014606D02*
Y016693D01*
Y014606D02*
X022282Y014372D01*
Y014077D02*
Y014372D01*
X026890Y014059D02*
X026890Y014059D01*
X022264Y014059D02*
X022282Y014077D01*
X017854Y034094D02*
X018071D01*
X017854Y034409D02*
X018071D01*
X018150Y033917D02*
Y034134D01*
Y034409D02*
Y034626D01*
X014695Y033150D02*
X014911D01*
X014695Y033504D02*
X014911D01*
X014695Y033819D02*
X014911D01*
X014695Y034134D02*
X014911D01*
X014695Y034409D02*
X014911D01*
X019134Y035157D02*
X019350D01*
X019134Y035394D02*
X019350D01*
X019134Y035630D02*
X019350D01*
X019134Y035866D02*
X019350D01*
X019144Y036108D02*
X019361D01*
X022524Y021358D02*
X022544Y021378D01*
X022362Y018169D02*
Y018819D01*
X022362Y018819D01*
X021518Y038031D02*
X021536Y038013D01*
X020335Y040748D02*
X020340Y040753D01*
Y040940D01*
X047874Y025453D02*
X048386D01*
X047462Y025925D02*
X048386D01*
X047362Y025453D02*
X047874D01*
X048386Y025413D02*
Y025925D01*
X047874Y025413D02*
Y025925D01*
X047362Y025413D02*
Y025925D01*
X020018Y041089D02*
X020300Y041372D01*
X020018Y040256D02*
Y041089D01*
X020300Y041372D02*
X020491D01*
X050161Y022455D02*
Y022967D01*
X027610Y016400D02*
Y016617D01*
X027400Y016720D02*
X027617D01*
X027930Y014889D02*
X028147D01*
X027980Y018990D02*
Y019207D01*
X027710Y019350D02*
X027927D01*
X028030Y019463D02*
Y019680D01*
X044882Y042677D02*
Y042894D01*
X044252Y042480D02*
Y042697D01*
X043937Y042480D02*
Y042697D01*
X043268Y042480D02*
Y042697D01*
X050177Y040138D02*
Y040354D01*
Y034764D02*
Y034980D01*
X049705Y034764D02*
Y034980D01*
X044980Y034803D02*
Y035020D01*
X043740Y037520D02*
Y037736D01*
X044488Y028839D02*
Y029055D01*
X044094Y028839D02*
Y029055D01*
Y029409D02*
X044488D01*
X020026Y040110D02*
Y040110D01*
X043328Y025453D02*
X044152D01*
X044252Y025413D02*
Y025925D01*
X043740Y025413D02*
Y025925D01*
X043228Y025313D02*
Y025825D01*
X043128Y025925D02*
X044152D01*
X015718Y026888D02*
Y027092D01*
X016112Y026880D02*
Y027096D01*
X045984Y021272D02*
X046496D01*
Y020760D02*
Y021272D01*
X046024Y022461D02*
Y022972D01*
X045512Y022461D02*
Y022972D01*
X045000Y022461D02*
Y022972D01*
X045512Y022972D02*
X046024D01*
X045000Y022500D02*
X046024D01*
X045000Y022972D02*
X045512D01*
X049646Y022500D02*
X050157D01*
X049134Y022461D02*
X049646D01*
Y022972D02*
X050157D01*
X049646Y022461D02*
Y022972D01*
X049134Y022461D02*
Y022972D01*
X049646D01*
X047874Y021457D02*
X048209D01*
Y021791D01*
X050295Y021457D02*
Y021791D01*
Y021122D02*
Y021457D01*
D162*
X047677Y026969D02*
Y028346D01*
X042643Y018892D02*
X042808D01*
X043885Y017815D02*
X044980D01*
X045492Y018327D02*
X047264D01*
X042808Y018892D02*
X043885Y017815D01*
X042618Y018917D02*
X042643Y018892D01*
X044980Y017815D02*
X045492Y018327D01*
X043971Y018968D02*
Y019393D01*
X047264Y018327D02*
X047441Y018504D01*
D163*
X013984Y017671D02*
X014522Y018209D01*
X013984Y017559D02*
Y017671D01*
X014522Y018209D02*
X014961D01*
X012984Y018459D02*
X013325Y018799D01*
X012984Y017559D02*
Y018459D01*
X012952Y023438D02*
X012952D01*
X012792Y019987D02*
X012952D01*
X012525Y020254D02*
Y023011D01*
X012952Y023438D01*
X012525Y020254D02*
X012792Y019987D01*
X012894Y027032D02*
X013569Y027707D01*
X012894Y026772D02*
Y027032D01*
X013992Y023727D02*
Y024990D01*
X013976Y025006D02*
X013992Y024990D01*
X012894Y025000D02*
X013970D01*
X013976Y025006D01*
Y022933D02*
Y023137D01*
X013878Y019850D02*
Y020472D01*
X013976Y026569D02*
X014234D01*
X014348Y026683D02*
X014454Y026788D01*
X014234Y026569D02*
X014240Y026575D01*
X014468D01*
X019951Y028248D02*
X020951D01*
X018916Y027661D02*
X019905D01*
X019951Y027707D01*
Y028248D01*
X018913Y027657D02*
X018916Y027661D01*
X013569Y027991D02*
Y028248D01*
Y027707D02*
Y027991D01*
X013615Y028037D01*
X014523D01*
X014569Y028083D01*
Y028248D01*
X015299Y027657D02*
X015365D01*
X014485Y026777D02*
X015365Y027657D01*
X014465Y026777D02*
X014485D01*
X015365Y027657D02*
X015748D01*
X013484Y024194D02*
Y024506D01*
X017618Y027657D02*
X018913D01*
X013984Y023148D02*
Y023583D01*
X012984D02*
Y023694D01*
X013484Y024194D01*
X013878Y019850D02*
X013886Y019843D01*
X013017Y021542D02*
X013620Y022146D01*
X013017Y021332D02*
Y021542D01*
X013620Y022146D02*
X016043D01*
X013968Y021106D02*
Y021283D01*
Y021106D02*
X014550Y020523D01*
X016043Y022146D02*
X017666Y020523D01*
X020310D01*
X014550D02*
X015910D01*
X014961Y018209D02*
X016675Y019923D01*
X020310D01*
X013325Y018799D02*
X014787D01*
X015910Y019923D01*
X012894Y025591D02*
Y026181D01*
X016339Y027657D02*
X017028D01*
D164*
X044054Y039016D02*
X044902D01*
X043784Y038543D02*
X044902D01*
X026870Y016831D02*
Y017283D01*
X026831Y017323D02*
X026870Y017283D01*
X028365Y014449D02*
X029030D01*
X028189Y014625D02*
X028365Y014449D01*
X028189Y015039D02*
X028189Y015039D01*
X028189Y014625D02*
Y015039D01*
X028189Y015039D02*
X028189Y015039D01*
X029030Y014449D02*
X029055Y014424D01*
Y014301D02*
Y014424D01*
X028189Y015039D02*
Y015827D01*
D165*
X038081Y022500D02*
X038818D01*
X037931Y022350D02*
X038081Y022500D01*
X049232Y033760D02*
X049291Y033701D01*
X049232Y033760D02*
Y035374D01*
X039378Y023029D02*
Y023438D01*
Y023029D02*
X039400Y023007D01*
X039367Y023449D02*
X039378Y023438D01*
X037400Y019337D02*
Y021933D01*
X037816Y022350D01*
X037931D01*
X038818Y022500D02*
X038888Y022570D01*
Y023007D01*
X039656D02*
Y023444D01*
X039911Y023007D02*
Y023471D01*
X037400Y019337D02*
X038583Y018154D01*
Y017451D02*
Y018154D01*
X038376Y023007D02*
Y023414D01*
X040167Y023007D02*
Y023447D01*
X039173Y023701D02*
X039193Y023720D01*
X039168Y023696D02*
X039173Y023701D01*
X039144Y023007D02*
X039168Y023032D01*
Y023696D01*
X037500Y023681D02*
X037520Y023701D01*
X039173D01*
D166*
X027461Y021476D02*
Y024429D01*
X028720Y025689D01*
X036001D01*
X028898Y018661D02*
Y019134D01*
X028701Y019331D02*
X028898Y019134D01*
X030407Y015307D02*
X031299Y016199D01*
X028863Y015307D02*
Y016728D01*
Y015307D02*
X030407D01*
X027461Y021476D02*
X028701Y020236D01*
Y019331D02*
Y020236D01*
X028863Y016737D02*
Y017413D01*
X028858Y016732D02*
X028863Y016737D01*
X028858Y016732D02*
X028863Y016728D01*
X031299Y018106D02*
Y019138D01*
Y016199D02*
Y018106D01*
D167*
X016339Y043118D02*
D03*
Y042118D02*
D03*
X015339Y043118D02*
D03*
Y042118D02*
D03*
X013339Y043118D02*
D03*
X014339Y042118D02*
D03*
Y043118D02*
D03*
X017339Y042118D02*
D03*
Y043118D02*
D03*
X018339Y042118D02*
D03*
X019339D02*
D03*
X018339Y043118D02*
D03*
X019339D02*
D03*
D168*
X013339Y042118D02*
D03*
D169*
X047949Y042278D02*
D03*
Y041778D02*
D03*
X047449Y042278D02*
D03*
X046949D02*
D03*
X047449Y041778D02*
D03*
X046949D02*
D03*
X046449Y042278D02*
D03*
X045949D02*
D03*
X046449Y041778D02*
D03*
X045949D02*
D03*
X044866Y033018D02*
D03*
Y033518D02*
D03*
X045366Y033018D02*
D03*
X045866D02*
D03*
X045366Y033518D02*
D03*
X045866D02*
D03*
X046366Y033018D02*
D03*
X046866D02*
D03*
X046366Y033518D02*
D03*
X046866D02*
D03*
D170*
X015108Y048032D02*
D03*
X013189Y015157D02*
D03*
X049803D02*
D03*
Y051772D02*
D03*
X013189D02*
D03*
D171*
X046450Y018382D02*
D03*
D172*
X048340Y017240D02*
D03*
D173*
X046450Y016000D02*
D03*
D174*
X026878Y042913D02*
D03*
D175*
X026457Y014301D02*
D03*
X029055D02*
D03*
D176*
X031299Y019138D02*
D03*
X034055D02*
D03*
X033071D02*
D03*
X032283D02*
D03*
X033071Y018106D02*
D03*
X032283D02*
D03*
X034055D02*
D03*
X031299D02*
D03*
D177*
X030091Y019276D02*
D03*
X035264D02*
D03*
Y017039D02*
D03*
X030091D02*
D03*
D178*
X042126Y040551D02*
D03*
X023228Y027559D02*
D03*
X042126D02*
D03*
X023228Y040551D02*
D03*
D179*
X015910Y019923D02*
D03*
X020310D02*
D03*
X015910Y020523D02*
D03*
X020310D02*
D03*
D180*
X015610Y017323D02*
D03*
X020610D02*
D03*
D181*
X015710Y025323D02*
D03*
X019510D02*
D03*
X016710D02*
D03*
X020510D02*
D03*
D182*
X014935Y016073D02*
D03*
X021285D02*
D03*
D183*
X020510Y024323D02*
D03*
X016110Y023323D02*
D03*
X015710Y024323D02*
D03*
X019710D02*
D03*
X018910D02*
D03*
X018510Y023323D02*
D03*
X019310D02*
D03*
X017710D02*
D03*
X016910D02*
D03*
X016510Y024323D02*
D03*
X017310D02*
D03*
D184*
X020110Y023323D02*
D03*
D185*
X023408Y015884D02*
D03*
X023900Y014900D02*
D03*
X025672D02*
D03*
X026164Y015884D02*
D03*
D186*
X037303Y017136D02*
D03*
X043012D02*
D03*
D187*
X037303Y014774D02*
D03*
X043012D02*
D03*
D188*
X032238Y030882D02*
D03*
X028070Y030869D02*
D03*
X027650Y031220D02*
D03*
X026850Y031010D02*
D03*
X033957Y031299D02*
D03*
X032776Y030709D02*
D03*
X032964Y027656D02*
D03*
X032548Y030709D02*
D03*
X036155Y023300D02*
D03*
X036995Y023310D02*
D03*
X049803Y047638D02*
D03*
X049785Y047252D02*
D03*
X044055Y037520D02*
D03*
X045669Y034252D02*
D03*
X016732Y040748D02*
D03*
X045374Y028839D02*
D03*
X044980D02*
D03*
X043898Y029429D02*
D03*
X016243Y038277D02*
D03*
Y037766D02*
D03*
Y037096D02*
D03*
X015256Y038327D02*
D03*
Y037736D02*
D03*
Y037106D02*
D03*
X016634Y034843D02*
D03*
X043731Y018790D02*
D03*
X043729Y019158D02*
D03*
X043726Y018977D02*
D03*
X044197Y018771D02*
D03*
X044195Y019138D02*
D03*
X044192Y018957D02*
D03*
X043971Y018968D02*
D03*
X043974Y019149D02*
D03*
X043976Y018782D02*
D03*
X049311Y017717D02*
D03*
X042370Y023030D02*
D03*
X042143D02*
D03*
X042751Y024123D02*
D03*
X042612Y023909D02*
D03*
X041948Y023912D02*
D03*
X045293Y025011D02*
D03*
X043701Y024288D02*
D03*
X014468Y026575D02*
D03*
X015316Y026180D02*
D03*
X015213Y026860D02*
D03*
X014465Y026777D02*
D03*
X013484Y024506D02*
D03*
X017720Y052676D02*
D03*
X017641Y052459D02*
D03*
X017554Y052211D02*
D03*
Y051461D02*
D03*
X017954Y051411D02*
D03*
X044203Y039744D02*
D03*
X049861Y033647D02*
D03*
X049876Y034040D02*
D03*
X049701Y034496D02*
D03*
X048750Y033635D02*
D03*
X048760Y034045D02*
D03*
X048760Y034488D02*
D03*
X048228Y040846D02*
D03*
X038571Y038622D02*
D03*
X041259Y023140D02*
D03*
X041032D02*
D03*
X039497Y031150D02*
D03*
X039727D02*
D03*
X039016Y040630D02*
D03*
X049390Y044449D02*
D03*
X049626Y045157D02*
D03*
X049390Y046929D02*
D03*
X044980Y040354D02*
D03*
X044291Y052756D02*
D03*
X045520Y045630D02*
D03*
X045810Y045840D02*
D03*
X043898Y052756D02*
D03*
X042244Y052205D02*
D03*
Y052520D02*
D03*
X047441Y044409D02*
D03*
X048543Y044606D02*
D03*
X047441Y044764D02*
D03*
X048439Y046161D02*
D03*
X048447Y051673D02*
D03*
Y048524D02*
D03*
Y049114D02*
D03*
Y049705D02*
D03*
Y050295D02*
D03*
Y050886D02*
D03*
Y051476D02*
D03*
Y047933D02*
D03*
X048480Y046941D02*
D03*
Y047168D02*
D03*
X024803Y018209D02*
D03*
X049733Y023667D02*
D03*
X049391Y023377D02*
D03*
X017441Y027156D02*
D03*
X021550Y027750D02*
D03*
X037087Y029094D02*
D03*
X039367Y023449D02*
D03*
X038039Y022021D02*
D03*
X038200Y022200D02*
D03*
X038000Y022700D02*
D03*
X038043Y021695D02*
D03*
X049858Y032500D02*
D03*
X048758D02*
D03*
X021500Y039550D02*
D03*
X021550Y042100D02*
D03*
X021018Y039542D02*
D03*
X021260Y041260D02*
D03*
X021200Y042350D02*
D03*
X036850Y029600D02*
D03*
Y027150D02*
D03*
X026600Y023800D02*
D03*
X025950Y020700D02*
D03*
X024100Y020300D02*
D03*
X025800Y021700D02*
D03*
X022741Y021378D02*
D03*
Y021850D02*
D03*
X035827Y027657D02*
D03*
X045669Y038976D02*
D03*
X048773Y034773D02*
D03*
X035061Y031297D02*
D03*
X033957Y024902D02*
D03*
X035039D02*
D03*
X034311Y022000D02*
D03*
X033661Y022835D02*
D03*
X033563Y023228D02*
D03*
X029921Y014567D02*
D03*
X026870Y016831D02*
D03*
X028248Y016339D02*
D03*
X027870Y016434D02*
D03*
X028000Y016039D02*
D03*
X034425Y023819D02*
D03*
X034197D02*
D03*
X026539Y016795D02*
D03*
X025409Y018209D02*
D03*
X025182D02*
D03*
X031102Y028642D02*
D03*
X026378Y016634D02*
D03*
X028340Y018370D02*
D03*
X033980Y022280D02*
D03*
X030080Y021585D02*
D03*
X033819Y022441D02*
D03*
X030032Y021807D02*
D03*
X031886Y021646D02*
D03*
X034941Y022244D02*
D03*
X035315Y027100D02*
D03*
X035433Y024882D02*
D03*
Y030945D02*
D03*
X033071Y030610D02*
D03*
X035472Y024252D02*
D03*
X033051Y023504D02*
D03*
X034594Y024921D02*
D03*
X034366D02*
D03*
X034239Y027656D02*
D03*
Y027100D02*
D03*
X034637Y031299D02*
D03*
X034409D02*
D03*
X042953Y042480D02*
D03*
X039646Y041417D02*
D03*
X039806Y041578D02*
D03*
X038425Y040472D02*
D03*
X038595Y040638D02*
D03*
X038346Y039291D02*
D03*
X037331Y039742D02*
D03*
X038087Y039041D02*
D03*
X037756Y038937D02*
D03*
X039733Y023720D02*
D03*
X040312Y042192D02*
D03*
X040152Y042032D02*
D03*
X041740Y022670D02*
D03*
X041513D02*
D03*
X040767Y022890D02*
D03*
X040539D02*
D03*
X023228Y042402D02*
D03*
X033071Y024803D02*
D03*
X032087D02*
D03*
X049744Y026772D02*
D03*
Y027087D02*
D03*
Y027402D02*
D03*
Y027717D02*
D03*
Y028031D02*
D03*
Y028386D02*
D03*
Y028701D02*
D03*
X049606Y025105D02*
D03*
X049005Y025112D02*
D03*
X048538Y023331D02*
D03*
X047928Y023328D02*
D03*
X047777Y024223D02*
D03*
X041970Y022370D02*
D03*
X040850Y022450D02*
D03*
X020468Y035048D02*
D03*
X020485Y034747D02*
D03*
X020468Y035312D02*
D03*
X020191Y034752D02*
D03*
Y035320D02*
D03*
X021540Y037660D02*
D03*
X025591Y030217D02*
D03*
Y022146D02*
D03*
X032310Y027100D02*
D03*
X047717Y026575D02*
D03*
X048071D02*
D03*
X047717Y026870D02*
D03*
X048071D02*
D03*
X047717Y027165D02*
D03*
X048071D02*
D03*
X047717Y027461D02*
D03*
X048071D02*
D03*
X047717Y027756D02*
D03*
X048071D02*
D03*
X047717Y028051D02*
D03*
X048071D02*
D03*
X047717Y028346D02*
D03*
X048071D02*
D03*
X013491Y024225D02*
D03*
X013974Y023137D02*
D03*
X013976Y022933D02*
D03*
X013884Y020240D02*
D03*
X013878Y020472D02*
D03*
X031260Y042874D02*
D03*
X030748Y043425D02*
D03*
X030910Y042900D02*
D03*
X030749Y043061D02*
D03*
X031575Y046772D02*
D03*
X033307Y047087D02*
D03*
X038425Y040118D02*
D03*
X040787Y042205D02*
D03*
X040236Y041614D02*
D03*
X039606Y040984D02*
D03*
X023622Y017992D02*
D03*
X021850Y019134D02*
D03*
X026772Y024016D02*
D03*
X026102Y023346D02*
D03*
X045079Y030610D02*
D03*
X044882Y030394D02*
D03*
X045276D02*
D03*
Y030827D02*
D03*
X044882D02*
D03*
X017854Y034094D02*
D03*
Y034409D02*
D03*
X018150Y033917D02*
D03*
Y034626D02*
D03*
X014911Y033150D02*
D03*
Y033504D02*
D03*
Y033819D02*
D03*
Y034134D02*
D03*
Y034409D02*
D03*
X019350Y035157D02*
D03*
Y035394D02*
D03*
Y035630D02*
D03*
Y035866D02*
D03*
X019361Y036108D02*
D03*
X022362Y018819D02*
D03*
X018261Y027156D02*
D03*
X020340Y040940D02*
D03*
X048130Y022500D02*
D03*
X047618D02*
D03*
X048130Y022972D02*
D03*
X047618D02*
D03*
X048386Y022717D02*
D03*
X047874D02*
D03*
X047362D02*
D03*
X049047Y023702D02*
D03*
Y024204D02*
D03*
X049041Y024704D02*
D03*
X048436Y024696D02*
D03*
X048425Y024213D02*
D03*
Y023701D02*
D03*
X048169Y023937D02*
D03*
Y024469D02*
D03*
X048760D02*
D03*
Y023937D02*
D03*
X049350Y023957D02*
D03*
X049350Y024488D02*
D03*
X049134Y025669D02*
D03*
X049646D02*
D03*
X050157D02*
D03*
X049390Y025433D02*
D03*
X049902D02*
D03*
Y025925D02*
D03*
X049390D02*
D03*
X044951Y027480D02*
D03*
Y027795D02*
D03*
Y028031D02*
D03*
X044636D02*
D03*
X044360D02*
D03*
X044085D02*
D03*
X043809D02*
D03*
X043533D02*
D03*
X046280Y026654D02*
D03*
Y027008D02*
D03*
Y027323D02*
D03*
Y027638D02*
D03*
Y027992D02*
D03*
X043850Y020689D02*
D03*
Y021304D02*
D03*
Y021969D02*
D03*
X044262Y021961D02*
D03*
X043481Y022500D02*
D03*
X044000Y022493D02*
D03*
X044009Y022966D02*
D03*
X043481Y022973D02*
D03*
X043239Y023238D02*
D03*
X043223Y022747D02*
D03*
X043211Y022268D02*
D03*
X043742D02*
D03*
X044256Y022282D02*
D03*
X044242Y022747D02*
D03*
X044225Y023312D02*
D03*
X043732Y023303D02*
D03*
X045249Y025439D02*
D03*
X045277Y025919D02*
D03*
X045755Y025932D02*
D03*
X045758Y025448D02*
D03*
X046031Y025228D02*
D03*
X045510Y025231D02*
D03*
X045003Y025228D02*
D03*
X045013Y025693D02*
D03*
X045512Y025709D02*
D03*
X046019Y025693D02*
D03*
X046006Y026206D02*
D03*
X045519Y026193D02*
D03*
X045007Y026187D02*
D03*
X045500Y024213D02*
D03*
X045503Y024725D02*
D03*
X045484Y023565D02*
D03*
X043701Y023702D02*
D03*
X043691Y023927D02*
D03*
X043323Y023961D02*
D03*
X044929Y024214D02*
D03*
X044334D02*
D03*
X044903Y023701D02*
D03*
X044331Y023720D02*
D03*
X044035Y023917D02*
D03*
X045198Y023971D02*
D03*
X044626Y023957D02*
D03*
X045217Y024469D02*
D03*
X044882Y024724D02*
D03*
X044626Y024469D02*
D03*
X044331Y024705D02*
D03*
X044025Y024490D02*
D03*
X031693Y028346D02*
D03*
X031299Y026378D02*
D03*
X032167Y027656D02*
D03*
X030340Y027120D02*
D03*
X031988Y027362D02*
D03*
X037500Y027165D02*
D03*
X029245Y022847D02*
D03*
X035000Y041050D02*
D03*
X031370Y027663D02*
D03*
X031310Y027350D02*
D03*
X031063Y027523D02*
D03*
X021630Y027260D02*
D03*
X027610Y016400D02*
D03*
X027400Y016720D02*
D03*
X027930Y014889D02*
D03*
X027980Y018990D02*
D03*
X027710Y019350D02*
D03*
X028030Y019680D02*
D03*
X027360Y018110D02*
D03*
X044882Y042677D02*
D03*
X044252Y042480D02*
D03*
X043937D02*
D03*
X043268D02*
D03*
X050177Y040354D02*
D03*
Y034764D02*
D03*
X049705D02*
D03*
X044980Y034803D02*
D03*
X043740Y037520D02*
D03*
X032462Y024803D02*
D03*
X032689D02*
D03*
X044488Y028839D02*
D03*
X044094D02*
D03*
X044095Y030709D02*
D03*
X046161Y030315D02*
D03*
X030217Y040453D02*
D03*
X020193Y035024D02*
D03*
X039911Y023471D02*
D03*
X039656Y023444D02*
D03*
X034055Y040453D02*
D03*
X037331Y041032D02*
D03*
X021855Y021358D02*
D03*
Y021850D02*
D03*
X015718Y027092D02*
D03*
X016112Y027096D02*
D03*
X029626Y042421D02*
D03*
X047874Y021457D02*
D03*
X048209Y021791D02*
D03*
X050295D02*
D03*
Y021122D02*
D03*
X047283Y021850D02*
D03*
X027190Y020390D02*
D03*
X027220Y020730D02*
D03*
X027970Y022070D02*
D03*
X028180Y021860D02*
D03*
X030910Y024830D02*
D03*
X031174Y024713D02*
D03*
X031878Y021292D02*
D03*
X023480Y023720D02*
D03*
X024270D02*
D03*
X024287Y025197D02*
D03*
X023543D02*
D03*
X048830Y046850D02*
D03*
X048740Y046336D02*
D03*
X048733Y046563D02*
D03*
X048850Y047200D02*
D03*
X029660Y026620D02*
D03*
X034843Y027100D02*
D03*
X033898D02*
D03*
X033110D02*
D03*
X031535D02*
D03*
X030748D02*
D03*
X037362Y027656D02*
D03*
X035472D02*
D03*
X034843D02*
D03*
X033740D02*
D03*
X030748D02*
D03*
X029803D02*
D03*
X030276D02*
D03*
X036890Y039746D02*
D03*
X036417D02*
D03*
X035945D02*
D03*
X035472D02*
D03*
X035000D02*
D03*
X034528D02*
D03*
X032638D02*
D03*
X032165D02*
D03*
X031693D02*
D03*
X031220D02*
D03*
X030748D02*
D03*
X036890Y041030D02*
D03*
X036417Y041037D02*
D03*
X035945Y041035D02*
D03*
X035472Y041018D02*
D03*
X034528Y041638D02*
D03*
X034055Y041655D02*
D03*
X033583Y041677D02*
D03*
X033110Y041680D02*
D03*
X032638Y041678D02*
D03*
X032165Y041045D02*
D03*
X031693Y041047D02*
D03*
X031220Y041040D02*
D03*
X030748Y041038D02*
D03*
X030276Y041036D02*
D03*
X029823Y042126D02*
D03*
X032634Y023724D02*
D03*
X029134Y022343D02*
D03*
X028456Y022246D02*
D03*
X028440Y023440D02*
D03*
X029338Y023438D02*
D03*
X029150Y024330D02*
D03*
X029365Y024585D02*
D03*
X030190Y024713D02*
D03*
X031208Y025190D02*
D03*
X030224Y025150D02*
D03*
X031555Y025197D02*
D03*
X030578Y025150D02*
D03*
X029803Y021614D02*
D03*
X029154Y021594D02*
D03*
X029508Y021594D02*
D03*
X029035Y021122D02*
D03*
X031476Y020531D02*
D03*
X038376Y023414D02*
D03*
X040167Y023447D02*
D03*
X038780Y016700D02*
D03*
X039961Y016719D02*
D03*
X040551Y016709D02*
D03*
X041142Y016702D02*
D03*
X041732Y016702D02*
D03*
X033570Y046980D02*
D03*
Y047207D02*
D03*
X031830Y046897D02*
D03*
Y046670D02*
D03*
X033071Y019831D02*
D03*
Y020709D02*
D03*
X048760Y047524D02*
D03*
Y047751D02*
D03*
D189*
X031213Y023005D02*
D03*
X030780D02*
D03*
X030347D02*
D03*
X031213Y023438D02*
D03*
X030780D02*
D03*
X030347D02*
D03*
X031213Y023871D02*
D03*
X030780D02*
D03*
X030347D02*
D03*
M02*
