G04*
G04 #@! TF.GenerationSoftware,Altium Limited,Altium Designer,22.2.1 (43)*
G04*
G04 Layer_Physical_Order=1*
G04 Layer_Color=255*
%FSAX24Y24*%
%MOIN*%
G70*
G04*
G04 #@! TF.SameCoordinates,07477AA8-A169-438C-A272-D3E418652323*
G04*
G04*
G04 #@! TF.FilePolarity,Positive*
G04*
G01*
G75*
%ADD14C,0.0100*%
%ADD19C,0.0080*%
%ADD20C,0.0150*%
%ADD33R,0.0571X0.0433*%
%ADD34R,0.0244X0.0228*%
%ADD35R,0.0335X0.0689*%
%ADD36R,0.0691X0.0240*%
G04:AMPARAMS|DCode=37|XSize=69.1mil|YSize=24mil|CornerRadius=12mil|HoleSize=0mil|Usage=FLASHONLY|Rotation=0.000|XOffset=0mil|YOffset=0mil|HoleType=Round|Shape=RoundedRectangle|*
%AMROUNDEDRECTD37*
21,1,0.0691,0.0000,0,0,0.0*
21,1,0.0451,0.0240,0,0,0.0*
1,1,0.0240,0.0226,0.0000*
1,1,0.0240,-0.0226,0.0000*
1,1,0.0240,-0.0226,0.0000*
1,1,0.0240,0.0226,0.0000*
%
%ADD37ROUNDEDRECTD37*%
%ADD38R,0.0244X0.0244*%
%ADD39R,0.0433X0.0866*%
%ADD40R,0.0394X0.0433*%
G04:AMPARAMS|DCode=41|XSize=48.7mil|YSize=8.4mil|CornerRadius=4.2mil|HoleSize=0mil|Usage=FLASHONLY|Rotation=180.000|XOffset=0mil|YOffset=0mil|HoleType=Round|Shape=RoundedRectangle|*
%AMROUNDEDRECTD41*
21,1,0.0487,0.0000,0,0,180.0*
21,1,0.0404,0.0084,0,0,180.0*
1,1,0.0084,-0.0202,0.0000*
1,1,0.0084,0.0202,0.0000*
1,1,0.0084,0.0202,0.0000*
1,1,0.0084,-0.0202,0.0000*
%
%ADD41ROUNDEDRECTD41*%
%ADD42R,0.0487X0.0084*%
%ADD43R,0.0217X0.0413*%
%ADD44R,0.0244X0.0244*%
%ADD45R,0.0228X0.0244*%
%ADD46R,0.0236X0.0236*%
G04:AMPARAMS|DCode=47|XSize=71.1mil|YSize=24.1mil|CornerRadius=12.1mil|HoleSize=0mil|Usage=FLASHONLY|Rotation=270.000|XOffset=0mil|YOffset=0mil|HoleType=Round|Shape=RoundedRectangle|*
%AMROUNDEDRECTD47*
21,1,0.0711,0.0000,0,0,270.0*
21,1,0.0470,0.0241,0,0,270.0*
1,1,0.0241,0.0000,-0.0235*
1,1,0.0241,0.0000,0.0235*
1,1,0.0241,0.0000,0.0235*
1,1,0.0241,0.0000,-0.0235*
%
%ADD47ROUNDEDRECTD47*%
%ADD48R,0.0241X0.0711*%
G04:AMPARAMS|DCode=49|XSize=71.1mil|YSize=24.1mil|CornerRadius=12.1mil|HoleSize=0mil|Usage=FLASHONLY|Rotation=0.000|XOffset=0mil|YOffset=0mil|HoleType=Round|Shape=RoundedRectangle|*
%AMROUNDEDRECTD49*
21,1,0.0711,0.0000,0,0,0.0*
21,1,0.0470,0.0241,0,0,0.0*
1,1,0.0241,0.0235,0.0000*
1,1,0.0241,-0.0235,0.0000*
1,1,0.0241,-0.0235,0.0000*
1,1,0.0241,0.0235,0.0000*
%
%ADD49ROUNDEDRECTD49*%
%ADD50R,0.0711X0.0241*%
%ADD51R,0.0079X0.0276*%
%ADD52R,0.0787X0.1181*%
%ADD53R,0.0492X0.1575*%
%ADD54R,0.0433X0.0748*%
%ADD55R,0.0394X0.0354*%
G04:AMPARAMS|DCode=56|XSize=7.9mil|YSize=22.2mil|CornerRadius=2mil|HoleSize=0mil|Usage=FLASHONLY|Rotation=90.000|XOffset=0mil|YOffset=0mil|HoleType=Round|Shape=RoundedRectangle|*
%AMROUNDEDRECTD56*
21,1,0.0079,0.0183,0,0,90.0*
21,1,0.0039,0.0222,0,0,90.0*
1,1,0.0039,0.0092,0.0020*
1,1,0.0039,0.0092,-0.0020*
1,1,0.0039,-0.0092,-0.0020*
1,1,0.0039,-0.0092,0.0020*
%
%ADD56ROUNDEDRECTD56*%
%ADD57R,0.0110X0.1024*%
%ADD58R,0.0177X0.0581*%
G04:AMPARAMS|DCode=59|XSize=65.3mil|YSize=24.7mil|CornerRadius=12.3mil|HoleSize=0mil|Usage=FLASHONLY|Rotation=180.000|XOffset=0mil|YOffset=0mil|HoleType=Round|Shape=RoundedRectangle|*
%AMROUNDEDRECTD59*
21,1,0.0653,0.0000,0,0,180.0*
21,1,0.0406,0.0247,0,0,180.0*
1,1,0.0247,-0.0203,0.0000*
1,1,0.0247,0.0203,0.0000*
1,1,0.0247,0.0203,0.0000*
1,1,0.0247,-0.0203,0.0000*
%
%ADD59ROUNDEDRECTD59*%
%ADD60R,0.0653X0.0247*%
%ADD61R,0.2000X0.0500*%
%ADD62R,0.0118X0.0118*%
%ADD63R,0.0118X0.0354*%
%ADD64R,0.0354X0.0118*%
%ADD65R,0.0394X0.0394*%
%ADD66R,0.0866X0.0610*%
%ADD67R,0.0827X0.0500*%
%ADD68R,0.0394X0.0394*%
G04:AMPARAMS|DCode=69|XSize=31.5mil|YSize=94.5mil|CornerRadius=15.7mil|HoleSize=0mil|Usage=FLASHONLY|Rotation=270.000|XOffset=0mil|YOffset=0mil|HoleType=Round|Shape=RoundedRectangle|*
%AMROUNDEDRECTD69*
21,1,0.0315,0.0630,0,0,270.0*
21,1,0.0000,0.0945,0,0,270.0*
1,1,0.0315,-0.0315,0.0000*
1,1,0.0315,-0.0315,0.0000*
1,1,0.0315,0.0315,0.0000*
1,1,0.0315,0.0315,0.0000*
%
%ADD69ROUNDEDRECTD69*%
G04:AMPARAMS|DCode=70|XSize=94.5mil|YSize=31.5mil|CornerRadius=15.7mil|HoleSize=0mil|Usage=FLASHONLY|Rotation=270.000|XOffset=0mil|YOffset=0mil|HoleType=Round|Shape=RoundedRectangle|*
%AMROUNDEDRECTD70*
21,1,0.0945,0.0000,0,0,270.0*
21,1,0.0630,0.0315,0,0,270.0*
1,1,0.0315,0.0000,-0.0315*
1,1,0.0315,0.0000,0.0315*
1,1,0.0315,0.0000,0.0315*
1,1,0.0315,0.0000,-0.0315*
%
%ADD70ROUNDEDRECTD70*%
%ADD71R,0.0413X0.0551*%
%ADD72R,0.0433X0.0571*%
%ADD73R,0.0512X0.0433*%
%ADD74C,0.0364*%
%ADD75R,0.0433X0.0394*%
%ADD76R,0.0433X0.0354*%
%ADD77R,0.0157X0.0354*%
%ADD78R,0.0394X0.0236*%
%ADD79R,0.0709X0.0492*%
%ADD80R,0.0217X0.0315*%
%ADD81R,0.0551X0.0453*%
%ADD82R,0.0354X0.0315*%
%ADD83R,0.0551X0.0413*%
%ADD84R,0.0236X0.0512*%
%ADD85R,0.0276X0.0165*%
%ADD86R,0.0213X0.0165*%
%ADD87R,0.0673X0.0933*%
G04:AMPARAMS|DCode=88|XSize=7.9mil|YSize=22.2mil|CornerRadius=2mil|HoleSize=0mil|Usage=FLASHONLY|Rotation=0.000|XOffset=0mil|YOffset=0mil|HoleType=Round|Shape=RoundedRectangle|*
%AMROUNDEDRECTD88*
21,1,0.0079,0.0183,0,0,0.0*
21,1,0.0039,0.0222,0,0,0.0*
1,1,0.0039,0.0020,-0.0092*
1,1,0.0039,-0.0020,-0.0092*
1,1,0.0039,-0.0020,0.0092*
1,1,0.0039,0.0020,0.0092*
%
%ADD88ROUNDEDRECTD88*%
%ADD89O,0.0354X0.0110*%
%ADD90O,0.0110X0.0354*%
%ADD91R,0.1457X0.1457*%
%ADD92R,0.0610X0.0118*%
%ADD93R,0.1083X0.0472*%
%ADD102R,0.0669X0.0394*%
%ADD115R,0.1560X0.1560*%
%ADD116R,0.0709X0.0709*%
%ADD156C,0.0630*%
%ADD157C,0.0433*%
%ADD158R,0.0098X0.0217*%
G04:AMPARAMS|DCode=159|XSize=15.7mil|YSize=22.2mil|CornerRadius=2mil|HoleSize=0mil|Usage=FLASHONLY|Rotation=90.000|XOffset=0mil|YOffset=0mil|HoleType=Round|Shape=RoundedRectangle|*
%AMROUNDEDRECTD159*
21,1,0.0157,0.0183,0,0,90.0*
21,1,0.0118,0.0222,0,0,90.0*
1,1,0.0039,0.0092,0.0059*
1,1,0.0039,0.0092,-0.0059*
1,1,0.0039,-0.0092,-0.0059*
1,1,0.0039,-0.0092,0.0059*
%
%ADD159ROUNDEDRECTD159*%
G04:AMPARAMS|DCode=160|XSize=15.7mil|YSize=22.2mil|CornerRadius=2mil|HoleSize=0mil|Usage=FLASHONLY|Rotation=0.000|XOffset=0mil|YOffset=0mil|HoleType=Round|Shape=RoundedRectangle|*
%AMROUNDEDRECTD160*
21,1,0.0157,0.0183,0,0,0.0*
21,1,0.0118,0.0222,0,0,0.0*
1,1,0.0039,0.0059,-0.0092*
1,1,0.0039,-0.0059,-0.0092*
1,1,0.0039,-0.0059,0.0092*
1,1,0.0039,0.0059,0.0092*
%
%ADD160ROUNDEDRECTD160*%
%ADD161C,0.0400*%
%ADD162C,0.0200*%
%ADD163C,0.0120*%
%ADD164C,0.0800*%
%ADD165C,0.0700*%
%ADD166C,0.0300*%
%ADD167O,0.1772X0.0709*%
%ADD168O,0.0709X0.1575*%
%ADD169O,0.1575X0.0709*%
%ADD170C,0.2362*%
%ADD171R,0.0630X0.0630*%
%ADD172C,0.0413*%
%ADD173O,0.0354X0.0630*%
%ADD174C,0.0559*%
%ADD175C,0.1358*%
%ADD176C,0.1969*%
%ADD177C,0.0540*%
%ADD178C,0.1280*%
%ADD179C,0.0675*%
%ADD180C,0.0930*%
%ADD181C,0.0600*%
%ADD182R,0.0600X0.0600*%
%ADD183C,0.0591*%
%ADD184O,0.0591X0.1299*%
%ADD185O,0.0591X0.1063*%
%ADD186C,0.0177*%
%ADD187C,0.0197*%
G36*
X043701Y052657D02*
X043701Y052362D01*
X043726Y052322D01*
Y052285D01*
X043898D01*
Y052185D01*
X043998D01*
Y052013D01*
X044069D01*
X044070Y052013D01*
X044119D01*
X044120Y052013D01*
X044191D01*
Y052185D01*
X044291D01*
Y052285D01*
X044463D01*
Y052357D01*
X044511Y052362D01*
X045472D01*
Y051280D01*
X045375D01*
Y051475D01*
X045020D01*
Y051290D01*
X044665D01*
Y051280D01*
X044665D01*
Y051278D01*
X044587D01*
Y050691D01*
X044665D01*
Y050689D01*
X044665D01*
Y050678D01*
X045020D01*
Y050494D01*
X045020D01*
Y050297D01*
X045020D01*
Y050097D01*
X045020D01*
Y049912D01*
X044665D01*
Y049902D01*
X044665D01*
Y049900D01*
X044587D01*
Y045079D01*
X044665D01*
Y044970D01*
X045020D01*
Y044785D01*
X045375D01*
Y044987D01*
X045472D01*
Y043110D01*
X045102D01*
X045054Y043115D01*
X045054Y043160D01*
Y043187D01*
X044882D01*
X044710D01*
Y043115D01*
X044662Y043110D01*
X042815D01*
X042618Y042913D01*
X041831D01*
Y043152D01*
X041868Y043182D01*
X041881Y043182D01*
X041926D01*
Y043439D01*
Y043696D01*
X041881D01*
X041868Y043696D01*
X041831Y043727D01*
Y050787D01*
X042815Y051772D01*
Y052027D01*
X042826D01*
Y052668D01*
X042913Y052756D01*
X043602D01*
X043701Y052657D01*
D02*
G37*
G36*
X021654Y035925D02*
Y033957D01*
X018996D01*
Y034055D01*
Y034547D01*
X019783Y035335D01*
X020472Y036024D01*
X021555Y036024D01*
X021654Y035925D01*
D02*
G37*
G36*
X045177Y025295D02*
X044980Y025098D01*
X044094D01*
Y024508D01*
X037795D01*
X037106Y023819D01*
Y023707D01*
X037101Y023681D01*
X037106Y023655D01*
Y023524D01*
X036970D01*
Y023581D01*
X036179D01*
Y023524D01*
X035738D01*
X035722Y023543D01*
Y023863D01*
X035736Y023884D01*
X035743Y023919D01*
Y024664D01*
X035736Y024699D01*
X035716Y024729D01*
X035680Y024765D01*
Y026584D01*
X035719D01*
Y026772D01*
Y026959D01*
X035680D01*
Y027117D01*
X035827Y027264D01*
X036702D01*
X036726Y027214D01*
X036711Y027178D01*
Y027122D01*
X036733Y027071D01*
X036772Y027033D01*
X036822Y027011D01*
X036878D01*
X036881Y027013D01*
X036922Y026976D01*
X036917Y026959D01*
X036643D01*
Y026772D01*
Y026584D01*
X037609D01*
Y026760D01*
X037611Y026772D01*
Y027081D01*
X037617Y027087D01*
X037639Y027138D01*
Y027193D01*
X037630Y027214D01*
X037663Y027264D01*
X041134D01*
X041168Y027162D01*
X041241Y027017D01*
X041337Y026885D01*
X041452Y026770D01*
X041584Y026674D01*
X041729Y026601D01*
X041884Y026550D01*
X042045Y026525D01*
X042207D01*
X042368Y026550D01*
X042523Y026601D01*
X042668Y026674D01*
X042800Y026770D01*
X042915Y026885D01*
X043011Y027017D01*
X043084Y027162D01*
X043118Y027264D01*
X045177D01*
Y025295D01*
D02*
G37*
G36*
X050315Y026732D02*
X050825Y026222D01*
X050804Y026172D01*
X050710D01*
Y025925D01*
X050510D01*
Y026172D01*
X050198D01*
Y025925D01*
X049998D01*
Y026172D01*
X049687D01*
Y025925D01*
X049487D01*
Y026172D01*
X049353D01*
X049332Y026222D01*
X049488Y026378D01*
Y026601D01*
X049507Y026643D01*
X049538Y026643D01*
X049664D01*
Y026969D01*
Y027294D01*
X049538D01*
X049507Y027294D01*
X049488Y027336D01*
Y027388D01*
X049507Y027430D01*
X049538Y027430D01*
X049664D01*
Y027756D01*
Y028082D01*
X049538D01*
X049507Y028082D01*
X049488Y028124D01*
Y028176D01*
X049507Y028218D01*
X049538Y028218D01*
X049664D01*
Y028543D01*
Y028869D01*
X049546D01*
X049531Y028885D01*
X049517Y028919D01*
X049528Y028937D01*
X050315D01*
Y026732D01*
D02*
G37*
G36*
X047308Y028082D02*
X047187D01*
Y027756D01*
Y027430D01*
X047308D01*
Y027294D01*
X047187D01*
Y026969D01*
Y026643D01*
X047308D01*
Y025163D01*
X047244Y025098D01*
X046260D01*
X046231Y025070D01*
X046210D01*
Y025048D01*
X046063Y024902D01*
Y023425D01*
X045431D01*
X045385Y023434D01*
Y023622D01*
X045413Y023628D01*
Y023917D01*
X045807D01*
X045819Y023946D01*
X045975D01*
Y024113D01*
X045669D01*
Y024313D01*
X045975D01*
Y024458D01*
Y024624D01*
X045669D01*
Y024724D01*
X045569D01*
Y024991D01*
X045239D01*
X045218Y025041D01*
X045276Y025098D01*
Y025206D01*
X045353D01*
Y025453D01*
X045553D01*
Y025206D01*
X045865D01*
Y025453D01*
X046065D01*
Y025206D01*
X046376D01*
Y025453D01*
X046476D01*
Y025553D01*
X046743D01*
Y025678D01*
Y025825D01*
X046476D01*
Y025925D01*
X046376D01*
Y026172D01*
X046065D01*
Y025925D01*
X045865D01*
Y026172D01*
X045553D01*
Y025925D01*
X045353D01*
Y026172D01*
X045276D01*
Y027165D01*
X045231Y027210D01*
Y027264D01*
X045215Y027302D01*
X045177Y027318D01*
X045123D01*
X045079Y027362D01*
X045011D01*
Y027518D01*
X044685D01*
X044359D01*
Y027362D01*
X044223D01*
Y027518D01*
X043898D01*
X043572D01*
Y027362D01*
X043406D01*
Y028150D01*
X045866D01*
X046161Y028445D01*
X047308D01*
Y028082D01*
D02*
G37*
G36*
X049409Y026476D02*
X049213Y026280D01*
Y025197D01*
X049114Y025098D01*
X048130D01*
Y025073D01*
X048081Y025070D01*
X048080Y025070D01*
X047915D01*
Y024843D01*
Y024615D01*
X048068D01*
X048094Y024571D01*
X048032Y024508D01*
X047539D01*
X047492Y024555D01*
Y026635D01*
X047539Y026643D01*
X047542Y026643D01*
X047695D01*
Y026969D01*
Y027294D01*
X047542D01*
X047539Y027294D01*
X047492Y027302D01*
Y027423D01*
X047539Y027430D01*
X047542Y027430D01*
X047695D01*
Y027756D01*
Y028082D01*
X047542D01*
X047539Y028082D01*
X047492Y028089D01*
Y028646D01*
X047517Y028672D01*
X047539Y028722D01*
Y028778D01*
X047517Y028828D01*
X047478Y028867D01*
X047441Y028883D01*
Y028937D01*
X049409D01*
Y026476D01*
D02*
G37*
G36*
X044182Y024313D02*
X044488D01*
Y024113D01*
X044182D01*
Y023946D01*
Y023801D01*
X044488D01*
Y023701D01*
X044588D01*
Y023434D01*
X044934D01*
X044980Y023425D01*
Y023266D01*
X044971Y023219D01*
X044930Y023219D01*
X044805D01*
Y022972D01*
X044605D01*
Y023219D01*
X044293D01*
Y022972D01*
X044093D01*
Y023219D01*
X043781D01*
Y022972D01*
X043681D01*
Y022872D01*
X043415D01*
Y022726D01*
Y022600D01*
X043681D01*
Y022500D01*
X043781D01*
Y022253D01*
X044093D01*
Y022500D01*
X044293D01*
Y022253D01*
X044605D01*
Y022500D01*
X044805D01*
Y022253D01*
X044930D01*
X044971Y022253D01*
X044980Y022207D01*
Y021778D01*
X044843D01*
Y021442D01*
Y021107D01*
X044980D01*
Y021005D01*
X044824D01*
Y020669D01*
Y020334D01*
X044875D01*
X044894Y020288D01*
X044783Y020177D01*
X043012D01*
X042618Y020571D01*
Y022654D01*
X042643Y022694D01*
X042715D01*
Y022858D01*
X042815D01*
Y022958D01*
X042987D01*
Y023022D01*
X043012Y023031D01*
X043012Y023031D01*
X043027Y023047D01*
X043307Y023327D01*
X043996D01*
Y023819D01*
X040650D01*
Y024409D01*
X040718D01*
Y024254D01*
X041043D01*
X041369D01*
Y024409D01*
X041505D01*
Y024254D01*
X041831D01*
X042156D01*
Y024409D01*
X042293D01*
Y024254D01*
X042618D01*
X042944D01*
Y024409D01*
X043415D01*
Y024313D01*
X043681D01*
X043948D01*
Y024409D01*
X044182D01*
Y024313D01*
D02*
G37*
G36*
X049687Y025206D02*
X049998D01*
Y025453D01*
X050198D01*
Y025206D01*
X050510D01*
Y025453D01*
X050710D01*
Y025206D01*
X050731D01*
X050750Y025160D01*
X050709Y025118D01*
X050354D01*
X050276Y025039D01*
Y023425D01*
X050118Y023268D01*
X049338D01*
X049330Y023272D01*
X049284Y023281D01*
X049279Y023280D01*
X049274Y023282D01*
X049213D01*
X049177Y023268D01*
X049134D01*
Y023257D01*
X049105Y023219D01*
X048939D01*
Y022972D01*
X048739D01*
Y023219D01*
X048427D01*
Y022972D01*
X048227D01*
Y023219D01*
X047915D01*
Y022972D01*
X047815D01*
Y022872D01*
X047548D01*
Y022726D01*
Y022600D01*
X047815D01*
Y022500D01*
X047915D01*
Y022253D01*
X048227D01*
Y022500D01*
X048427D01*
Y022253D01*
X048739D01*
Y022500D01*
X048939D01*
Y022253D01*
X049038D01*
X049057Y022207D01*
X048937Y022087D01*
Y021838D01*
X048928Y021792D01*
X048887Y021792D01*
X048761D01*
Y021457D01*
X048661D01*
Y021357D01*
X048395D01*
X048395Y021121D01*
X048347Y021117D01*
X048253D01*
X047932Y021438D01*
X047912Y021472D01*
X047908Y021505D01*
Y021542D01*
X047736D01*
Y021642D01*
X047636D01*
Y021806D01*
X047564D01*
X047559Y021854D01*
Y022165D01*
X047444Y022280D01*
Y023307D01*
X048110D01*
Y023898D01*
X047441D01*
Y024111D01*
X047465Y024135D01*
X047485Y024165D01*
X047492Y024200D01*
Y024400D01*
X047498Y024406D01*
X047512Y024404D01*
X047548Y024382D01*
Y024313D01*
X047815D01*
X048081D01*
Y024440D01*
X048128Y024449D01*
X048150D01*
X048228Y024528D01*
Y024972D01*
X048267Y024992D01*
X048316Y024972D01*
Y024824D01*
X048622D01*
Y024624D01*
X048316D01*
Y024458D01*
Y024313D01*
X048622D01*
Y024113D01*
X048316D01*
Y023946D01*
Y023801D01*
X048622D01*
Y023701D01*
X048722D01*
Y023434D01*
X049113D01*
Y023701D01*
X049313D01*
Y023434D01*
X049518D01*
Y023622D01*
X049547Y023628D01*
Y023917D01*
X049941D01*
X049953Y023946D01*
X050109D01*
Y024113D01*
X049803D01*
Y024313D01*
X050109D01*
Y024458D01*
Y024624D01*
X049803D01*
Y024724D01*
X049703D01*
Y024991D01*
X049196D01*
X049175Y025041D01*
X049291Y025157D01*
Y025168D01*
X049320Y025206D01*
X049487D01*
Y025453D01*
X049687D01*
Y025206D01*
D02*
G37*
G36*
X046097Y023312D02*
X046139Y023269D01*
X046118Y023219D01*
X046065D01*
Y022972D01*
X045865D01*
Y023219D01*
X045553D01*
Y022972D01*
X045453D01*
Y022872D01*
X045186D01*
Y022726D01*
Y022600D01*
X045453D01*
Y022500D01*
X045553D01*
Y022253D01*
X045865D01*
Y022500D01*
X046065D01*
Y022253D01*
X046376D01*
Y022500D01*
X046576D01*
Y022253D01*
X046743D01*
X046752Y022207D01*
Y021161D01*
X046777Y021137D01*
Y021107D01*
X046806D01*
X046850Y021063D01*
X049016D01*
Y022047D01*
X049213Y022244D01*
Y023228D01*
X049274D01*
X049320Y023219D01*
X049320Y023178D01*
Y023072D01*
X049587D01*
Y022872D01*
X049320D01*
Y022726D01*
Y022600D01*
X049587D01*
Y022500D01*
X049687D01*
Y022253D01*
X049998D01*
Y022500D01*
X050198D01*
Y022253D01*
X050510D01*
Y022500D01*
X050610D01*
Y022600D01*
X050877D01*
Y022726D01*
Y022872D01*
X050610D01*
Y023072D01*
X050877D01*
Y023219D01*
X050923Y023228D01*
X051079D01*
Y016831D01*
X050394D01*
Y017913D01*
X049807D01*
Y017969D01*
X049812Y018017D01*
X049900D01*
Y018150D01*
X050000D01*
Y018250D01*
X050188D01*
Y018273D01*
Y018306D01*
X050000D01*
Y018506D01*
X050188D01*
Y018529D01*
Y018561D01*
X050000D01*
Y018761D01*
X050188D01*
Y018785D01*
Y019050D01*
X049812D01*
Y019017D01*
X049784Y019012D01*
X049755Y018992D01*
X049731Y018998D01*
X049705Y019008D01*
Y019094D01*
X046101D01*
X046074Y019133D01*
X046074Y019144D01*
Y019388D01*
X045591D01*
X045107D01*
Y019144D01*
X045107Y019133D01*
X045080Y019094D01*
X044882D01*
Y020177D01*
X045079Y020374D01*
Y023327D01*
X046087D01*
X046097Y023312D01*
D02*
G37*
%LPC*%
G36*
X043534Y052698D02*
X043368D01*
Y052462D01*
X043534D01*
Y052698D01*
D02*
G37*
G36*
X043168D02*
X043001D01*
Y052462D01*
X043168D01*
Y052698D01*
D02*
G37*
G36*
X043534Y052262D02*
X043368D01*
Y052027D01*
X043534D01*
Y052262D01*
D02*
G37*
G36*
X043168D02*
X043001D01*
Y052027D01*
X043168D01*
Y052262D01*
D02*
G37*
G36*
X044463Y052085D02*
X044391D01*
Y052013D01*
X044463D01*
Y052085D01*
D02*
G37*
G36*
X043798Y052085D02*
X043726D01*
Y052013D01*
X043798D01*
Y052085D01*
D02*
G37*
G36*
X045375Y051684D02*
X045120D01*
Y051675D01*
X045375D01*
Y051684D01*
D02*
G37*
G36*
X044920D02*
X044665D01*
Y051675D01*
X044920D01*
Y051684D01*
D02*
G37*
G36*
X045375Y044388D02*
X045120D01*
Y044379D01*
X045375D01*
Y044388D01*
D02*
G37*
G36*
X044920D02*
X044665D01*
Y044379D01*
X044920D01*
Y044388D01*
D02*
G37*
G36*
X044430Y043731D02*
X044194D01*
Y043565D01*
X044430D01*
Y043731D01*
D02*
G37*
G36*
X043446D02*
X043210D01*
Y043565D01*
X043446D01*
Y043731D01*
D02*
G37*
G36*
X043994D02*
X043759D01*
Y043565D01*
X043994D01*
Y043731D01*
D02*
G37*
G36*
X043010D02*
X042775D01*
Y043565D01*
X043010D01*
Y043731D01*
D02*
G37*
G36*
X042126Y043696D02*
Y043539D01*
X042184D01*
Y043696D01*
X042126D01*
D02*
G37*
G36*
X045054Y043459D02*
X044982D01*
Y043387D01*
X045054D01*
Y043459D01*
D02*
G37*
G36*
X044782D02*
X044710D01*
Y043387D01*
X044782D01*
Y043459D01*
D02*
G37*
G36*
X044430Y043365D02*
X044194D01*
Y043198D01*
X044430D01*
Y043365D01*
D02*
G37*
G36*
X043994D02*
X043759D01*
Y043198D01*
X043994D01*
Y043365D01*
D02*
G37*
G36*
X043446D02*
X043210D01*
Y043198D01*
X043446D01*
Y043365D01*
D02*
G37*
G36*
X043010D02*
X042775D01*
Y043198D01*
X043010D01*
Y043365D01*
D02*
G37*
G36*
X042184Y043339D02*
X042126D01*
Y043182D01*
X042184D01*
Y043339D01*
D02*
G37*
G36*
X044223Y027166D02*
X043998D01*
Y027009D01*
X044223D01*
Y027166D01*
D02*
G37*
G36*
X043798D02*
X043572D01*
Y027009D01*
X043798D01*
Y027166D01*
D02*
G37*
G36*
X045011D02*
X044785D01*
Y027009D01*
X045011D01*
Y027166D01*
D02*
G37*
G36*
X044585D02*
X044359D01*
Y027009D01*
X044585D01*
Y027166D01*
D02*
G37*
G36*
X045011Y026809D02*
X044785D01*
Y026653D01*
X045011D01*
Y026809D01*
D02*
G37*
G36*
X044585D02*
X044359D01*
Y026653D01*
X044585D01*
Y026809D01*
D02*
G37*
G36*
X044223Y026809D02*
X043998D01*
Y026653D01*
X044223D01*
Y026809D01*
D02*
G37*
G36*
X043798D02*
X043572D01*
Y026653D01*
X043798D01*
Y026809D01*
D02*
G37*
G36*
X044971Y026172D02*
X044805D01*
Y026025D01*
X044971D01*
Y026172D01*
D02*
G37*
G36*
X043581D02*
X043415D01*
Y026025D01*
X043581D01*
Y026172D01*
D02*
G37*
G36*
X044605D02*
X044293D01*
Y025925D01*
X044093D01*
Y026172D01*
X043781D01*
Y025925D01*
X043681D01*
Y025825D01*
X043415D01*
Y025678D01*
Y025553D01*
X043681D01*
Y025453D01*
X043781D01*
Y025206D01*
X044093D01*
Y025453D01*
X044293D01*
Y025206D01*
X044605D01*
Y025453D01*
X044705D01*
Y025553D01*
X044971D01*
Y025678D01*
Y025825D01*
X044705D01*
Y025925D01*
X044605D01*
Y026172D01*
D02*
G37*
G36*
X044971Y025353D02*
X044805D01*
Y025206D01*
X044971D01*
Y025353D01*
D02*
G37*
G36*
X043581D02*
X043415D01*
Y025206D01*
X043581D01*
Y025353D01*
D02*
G37*
G36*
X042156Y025119D02*
X041931D01*
Y024962D01*
X042156D01*
Y025119D01*
D02*
G37*
G36*
X041731D02*
X041505D01*
Y024962D01*
X041731D01*
Y025119D01*
D02*
G37*
G36*
X041369D02*
X041143D01*
Y024962D01*
X041369D01*
Y025119D01*
D02*
G37*
G36*
X040943D02*
X040718D01*
Y024962D01*
X040943D01*
Y025119D01*
D02*
G37*
G36*
X042944D02*
X042718D01*
Y024962D01*
X042944D01*
Y025119D01*
D02*
G37*
G36*
X042518D02*
X042293D01*
Y024962D01*
X042518D01*
Y025119D01*
D02*
G37*
G36*
X043948Y025070D02*
X043781D01*
Y024943D01*
X043948D01*
Y025070D01*
D02*
G37*
G36*
X043581D02*
X043415D01*
Y024943D01*
X043581D01*
Y025070D01*
D02*
G37*
G36*
X043948Y024743D02*
X043781D01*
Y024615D01*
X043948D01*
Y024743D01*
D02*
G37*
G36*
X043581D02*
X043415D01*
Y024615D01*
X043581D01*
Y024743D01*
D02*
G37*
G36*
X042944Y024762D02*
X042718D01*
Y024606D01*
X042944D01*
Y024762D01*
D02*
G37*
G36*
X042518D02*
X042293D01*
Y024606D01*
X042518D01*
Y024762D01*
D02*
G37*
G36*
X042156Y024762D02*
X041931D01*
Y024606D01*
X042156D01*
Y024762D01*
D02*
G37*
G36*
X041731D02*
X041505D01*
Y024606D01*
X041731D01*
Y024762D01*
D02*
G37*
G36*
X041369Y024762D02*
X041143D01*
Y024606D01*
X041369D01*
Y024762D01*
D02*
G37*
G36*
X040943D02*
X040718D01*
Y024606D01*
X040943D01*
Y024762D01*
D02*
G37*
G36*
X036970Y023851D02*
X036675D01*
Y023781D01*
X036970D01*
Y023851D01*
D02*
G37*
G36*
X036475D02*
X036179D01*
Y023781D01*
X036475D01*
Y023851D01*
D02*
G37*
G36*
X049864Y028869D02*
Y028643D01*
X050020D01*
Y028869D01*
X049864D01*
D02*
G37*
G36*
X050020Y028443D02*
X049864D01*
Y028218D01*
X050020D01*
Y028443D01*
D02*
G37*
G36*
X049864Y028082D02*
Y027856D01*
X050020D01*
Y028082D01*
X049864D01*
D02*
G37*
G36*
X050020Y027656D02*
X049864D01*
Y027430D01*
X050020D01*
Y027656D01*
D02*
G37*
G36*
X049864Y027294D02*
Y027069D01*
X050020D01*
Y027294D01*
X049864D01*
D02*
G37*
G36*
X050020Y026869D02*
X049864D01*
Y026643D01*
X050020D01*
Y026869D01*
D02*
G37*
G36*
X046987Y028082D02*
X046830D01*
Y027856D01*
X046987D01*
Y028082D01*
D02*
G37*
G36*
X044223Y027875D02*
X043998D01*
Y027718D01*
X044223D01*
Y027875D01*
D02*
G37*
G36*
X043798D02*
X043572D01*
Y027718D01*
X043798D01*
Y027875D01*
D02*
G37*
G36*
X045011D02*
X044785D01*
Y027718D01*
X045011D01*
Y027875D01*
D02*
G37*
G36*
X044585D02*
X044359D01*
Y027718D01*
X044585D01*
Y027875D01*
D02*
G37*
G36*
X046987Y027656D02*
X046830D01*
Y027430D01*
X046987D01*
Y027656D01*
D02*
G37*
G36*
Y027294D02*
X046830D01*
Y027069D01*
X046987D01*
Y027294D01*
D02*
G37*
G36*
Y026869D02*
X046830D01*
Y026643D01*
X046987D01*
Y026869D01*
D02*
G37*
G36*
X046743Y026172D02*
X046576D01*
Y026025D01*
X046743D01*
Y026172D01*
D02*
G37*
G36*
Y025353D02*
X046576D01*
Y025206D01*
X046743D01*
Y025353D01*
D02*
G37*
G36*
X045975Y024991D02*
X045769D01*
Y024824D01*
X045975D01*
Y024991D01*
D02*
G37*
G36*
X045861Y023615D02*
X045859D01*
X045751Y023507D01*
Y023506D01*
X045782Y023519D01*
X045848Y023584D01*
X045861Y023615D01*
D02*
G37*
G36*
X049312Y028869D02*
X049155D01*
Y028643D01*
X049312D01*
Y028869D01*
D02*
G37*
G36*
X048955D02*
X048798D01*
Y028643D01*
X048955D01*
Y028869D01*
D02*
G37*
G36*
X049312Y028443D02*
X049155D01*
Y028218D01*
X049312D01*
Y028443D01*
D02*
G37*
G36*
X048955D02*
X048798D01*
Y028218D01*
X048955D01*
Y028443D01*
D02*
G37*
G36*
X049312Y028082D02*
X049155D01*
Y027856D01*
X049312D01*
Y028082D01*
D02*
G37*
G36*
X047895D02*
Y027856D01*
X048052D01*
Y028082D01*
X047895D01*
D02*
G37*
G36*
X048955D02*
X048798D01*
Y027856D01*
X048955D01*
Y028082D01*
D02*
G37*
G36*
X049312Y027656D02*
X049155D01*
Y027430D01*
X049312D01*
Y027656D01*
D02*
G37*
G36*
X048955D02*
X048798D01*
Y027430D01*
X048955D01*
Y027656D01*
D02*
G37*
G36*
X048052D02*
X047895D01*
Y027430D01*
X048052D01*
Y027656D01*
D02*
G37*
G36*
X049312Y027294D02*
X049155D01*
Y027069D01*
X049312D01*
Y027294D01*
D02*
G37*
G36*
X047895D02*
Y027069D01*
X048052D01*
Y027294D01*
X047895D01*
D02*
G37*
G36*
X048955D02*
X048798D01*
Y027069D01*
X048955D01*
Y027294D01*
D02*
G37*
G36*
X049312Y026869D02*
X049155D01*
Y026643D01*
X049312D01*
Y026869D01*
D02*
G37*
G36*
X048955D02*
X048798D01*
Y026643D01*
X048955D01*
Y026869D01*
D02*
G37*
G36*
X048052D02*
X047895D01*
Y026643D01*
X048052D01*
Y026869D01*
D02*
G37*
G36*
X049105Y026172D02*
X048939D01*
Y026025D01*
X049105D01*
Y026172D01*
D02*
G37*
G36*
X047715D02*
X047548D01*
Y026025D01*
X047715D01*
Y026172D01*
D02*
G37*
G36*
X048739D02*
X048427D01*
Y025925D01*
X048227D01*
Y026172D01*
X047915D01*
Y025925D01*
X047815D01*
Y025825D01*
X047548D01*
Y025678D01*
Y025553D01*
X047815D01*
Y025453D01*
X047915D01*
Y025206D01*
X048227D01*
Y025453D01*
X048427D01*
Y025206D01*
X048739D01*
Y025453D01*
X048839D01*
Y025553D01*
X049105D01*
Y025678D01*
Y025825D01*
X048839D01*
Y025925D01*
X048739D01*
Y026172D01*
D02*
G37*
G36*
X049105Y025353D02*
X048939D01*
Y025206D01*
X049105D01*
Y025353D01*
D02*
G37*
G36*
X047715D02*
X047548D01*
Y025206D01*
X047715D01*
Y025353D01*
D02*
G37*
G36*
Y025070D02*
X047548D01*
Y024943D01*
X047715D01*
Y025070D01*
D02*
G37*
G36*
Y024743D02*
X047548D01*
Y024615D01*
X047715D01*
Y024743D01*
D02*
G37*
G36*
X043948Y024113D02*
X043781D01*
Y023985D01*
X043948D01*
Y024113D01*
D02*
G37*
G36*
X043581D02*
X043415D01*
Y023985D01*
X043581D01*
Y024113D01*
D02*
G37*
G36*
X042944Y024054D02*
X042718D01*
Y023897D01*
X042944D01*
Y024054D01*
D02*
G37*
G36*
X042518D02*
X042293D01*
Y023897D01*
X042518D01*
Y024054D01*
D02*
G37*
G36*
X042156Y024054D02*
X041931D01*
Y023897D01*
X042156D01*
Y024054D01*
D02*
G37*
G36*
X041731D02*
X041505D01*
Y023897D01*
X041731D01*
Y024054D01*
D02*
G37*
G36*
X041369Y024054D02*
X041143D01*
Y023897D01*
X041369D01*
Y024054D01*
D02*
G37*
G36*
X040943D02*
X040718D01*
Y023897D01*
X040943D01*
Y024054D01*
D02*
G37*
G36*
X044388Y023601D02*
X044182D01*
Y023434D01*
X044388D01*
Y023601D01*
D02*
G37*
G36*
X043581Y023219D02*
X043415D01*
Y023072D01*
X043581D01*
Y023219D01*
D02*
G37*
G36*
X042987Y022758D02*
X042915D01*
Y022694D01*
X042987D01*
Y022758D01*
D02*
G37*
G36*
X043581Y022400D02*
X043415D01*
Y022253D01*
X043581D01*
Y022400D01*
D02*
G37*
G36*
X044643Y021778D02*
X044476D01*
Y021542D01*
X044643D01*
Y021778D01*
D02*
G37*
G36*
Y021342D02*
X044476D01*
Y021107D01*
X044643D01*
Y021342D01*
D02*
G37*
G36*
X044624Y021005D02*
X044458D01*
Y020769D01*
X044624D01*
Y021005D01*
D02*
G37*
G36*
Y020569D02*
X044458D01*
Y020334D01*
X044624D01*
Y020569D01*
D02*
G37*
G36*
X050109Y024991D02*
X049903D01*
Y024824D01*
X050109D01*
Y024991D01*
D02*
G37*
G36*
X048081Y024113D02*
X047915D01*
Y023985D01*
X048081D01*
Y024113D01*
D02*
G37*
G36*
X047715D02*
X047548D01*
Y023985D01*
X047715D01*
Y024113D01*
D02*
G37*
G36*
X049994Y023615D02*
X049993D01*
X049885Y023507D01*
Y023506D01*
X049916Y023519D01*
X049981Y023584D01*
X049994Y023615D01*
D02*
G37*
G36*
X048522Y023601D02*
X048316D01*
Y023434D01*
X048522D01*
Y023601D01*
D02*
G37*
G36*
X047715Y023219D02*
X047548D01*
Y023072D01*
X047715D01*
Y023219D01*
D02*
G37*
G36*
Y022400D02*
X047548D01*
Y022253D01*
X047715D01*
Y022400D01*
D02*
G37*
G36*
X047836Y021806D02*
Y021742D01*
X047908D01*
Y021806D01*
X047836D01*
D02*
G37*
G36*
X048561Y021792D02*
X048395D01*
Y021557D01*
X048561D01*
Y021792D01*
D02*
G37*
G36*
X045353Y023219D02*
X045186D01*
Y023072D01*
X045353D01*
Y023219D01*
D02*
G37*
G36*
X050877Y022400D02*
X050710D01*
Y022253D01*
X050877D01*
Y022400D01*
D02*
G37*
G36*
X049487D02*
X049320D01*
Y022253D01*
X049487D01*
Y022400D01*
D02*
G37*
G36*
X045353D02*
X045186D01*
Y022253D01*
X045353D01*
Y022400D01*
D02*
G37*
G36*
X049637Y021792D02*
X049470D01*
Y021557D01*
X049637D01*
Y021792D01*
D02*
G37*
G36*
X049270D02*
X049104D01*
Y021557D01*
X049270D01*
Y021792D01*
D02*
G37*
G36*
X050306D02*
X050139D01*
Y021557D01*
X050306D01*
Y021792D01*
D02*
G37*
G36*
X049939D02*
X049773D01*
Y021557D01*
X049939D01*
Y021792D01*
D02*
G37*
G36*
X045718Y021778D02*
X045551D01*
Y021542D01*
X045718D01*
Y021778D01*
D02*
G37*
G36*
X045351D02*
X045185D01*
Y021542D01*
X045351D01*
Y021778D01*
D02*
G37*
G36*
X050306Y021357D02*
X050139D01*
Y021121D01*
X050306D01*
Y021357D01*
D02*
G37*
G36*
X049939D02*
X049773D01*
Y021121D01*
X049939D01*
Y021357D01*
D02*
G37*
G36*
X049637Y021357D02*
X049470D01*
Y021121D01*
X049637D01*
Y021357D01*
D02*
G37*
G36*
X049270D02*
X049104D01*
Y021121D01*
X049270D01*
Y021357D01*
D02*
G37*
G36*
X045718Y021342D02*
X045551D01*
Y021107D01*
X045718D01*
Y021342D01*
D02*
G37*
G36*
X045351D02*
X045185D01*
Y021107D01*
X045351D01*
Y021342D01*
D02*
G37*
G36*
X050748Y021944D02*
X050690Y021933D01*
X050640Y021899D01*
X050607Y021850D01*
X050595Y021792D01*
X050482D01*
Y021121D01*
X050595D01*
X050607Y021064D01*
X050640Y021014D01*
X050690Y020981D01*
X050748Y020969D01*
X050807Y020981D01*
X050856Y021014D01*
X050889Y021064D01*
X050901Y021121D01*
X051015D01*
Y021792D01*
X050901D01*
X050889Y021850D01*
X050856Y021899D01*
X050807Y021933D01*
X050748Y021944D01*
D02*
G37*
G36*
X045700Y021005D02*
X045533D01*
Y020769D01*
X045700D01*
Y021005D01*
D02*
G37*
G36*
X045333D02*
X045167D01*
Y020769D01*
X045333D01*
Y021005D01*
D02*
G37*
G36*
X045700Y020569D02*
X045533D01*
Y020334D01*
X045700D01*
Y020569D01*
D02*
G37*
G36*
X045333D02*
X045167D01*
Y020334D01*
X045333D01*
Y020569D01*
D02*
G37*
G36*
X046074Y019843D02*
X045691D01*
Y019588D01*
X046074D01*
Y019843D01*
D02*
G37*
G36*
X045491D02*
X045107D01*
Y019588D01*
X045491D01*
Y019843D01*
D02*
G37*
G36*
X050188Y018050D02*
X050100D01*
Y018017D01*
X050188D01*
Y018050D01*
D02*
G37*
G36*
X051015Y017333D02*
X050887D01*
Y017226D01*
X051015D01*
Y017333D01*
D02*
G37*
G36*
X050687D02*
X050560D01*
Y017226D01*
X050687D01*
Y017333D01*
D02*
G37*
G36*
X051015Y017026D02*
X050887D01*
Y016918D01*
X051015D01*
Y017026D01*
D02*
G37*
G36*
X050687D02*
X050560D01*
Y016918D01*
X050687D01*
Y017026D01*
D02*
G37*
%LPD*%
D14*
X024025Y017585D02*
X024400D01*
X024016Y017594D02*
X024025Y017585D01*
X024016Y016535D02*
Y017224D01*
X024025Y017215D01*
X024400D01*
X037520Y040695D02*
X037933Y040282D01*
Y039705D02*
Y040282D01*
Y039705D02*
X038346Y039291D01*
X045940Y033290D02*
Y033860D01*
X044570Y035230D02*
X045940Y033860D01*
X044570Y035230D02*
Y036970D01*
X016230Y024990D02*
Y025820D01*
X015846Y026204D02*
Y026496D01*
Y026204D02*
X016230Y025820D01*
X015055Y026155D02*
Y026492D01*
X015059Y026496D01*
X015050Y026150D02*
X015055Y026155D01*
X021550Y027750D02*
Y028770D01*
X022583Y029803D01*
X021630Y027260D02*
X021800Y027430D01*
Y028710D01*
X022696Y029606D01*
X017235Y023753D02*
X017381Y023900D01*
X017481D02*
X017710Y024129D01*
X017381Y023900D02*
X017481D01*
X017710Y024129D02*
Y025361D01*
X017900Y024050D02*
Y025282D01*
X017460Y023710D02*
X017560D01*
X017900Y024050D01*
X017425Y023675D02*
X017460Y023710D01*
X017425Y023603D02*
Y023675D01*
Y023603D02*
X017704Y023323D01*
X017710D01*
X030136Y028051D02*
Y028362D01*
X029948Y028550D02*
X030136Y028362D01*
X028550Y028550D02*
X029948D01*
X023753Y025000D02*
X024082D01*
X025000D01*
X028550Y028550D01*
X023750Y024997D02*
X023753Y025000D01*
X021422Y026568D02*
X022993Y024997D01*
X023750D01*
X018917Y026568D02*
X021422D01*
X017710Y025361D02*
X018917Y026568D01*
X016916Y023323D02*
X017235Y023641D01*
Y023753D01*
X016910Y023323D02*
X016916D01*
X029946Y028051D02*
Y028283D01*
X029870Y028360D02*
X029946Y028283D01*
X028629Y028360D02*
X029870D01*
X021343Y026378D02*
X022915Y024807D01*
X023750D01*
X025072Y024803D02*
X028629Y028360D01*
X024082Y024803D02*
X025072D01*
X023750Y024807D02*
X023753Y024803D01*
X024082D01*
X018996Y026378D02*
X021343D01*
X017900Y025282D02*
X018996Y026378D01*
X050650Y046541D02*
Y046550D01*
X050550Y046650D02*
X050650Y046550D01*
X050320Y046599D02*
X050370Y046650D01*
X050550D01*
X050353Y046150D02*
X050591D01*
X050320Y046117D02*
X050353Y046150D01*
X050591D02*
X050650Y046209D01*
X050320Y046599D02*
X050378Y046541D01*
X050650Y046209D02*
Y046541D01*
X030750Y030950D02*
X032400Y029300D01*
X027400Y030950D02*
X030750D01*
X032400Y029300D02*
X037350D01*
X037800Y027700D02*
Y028850D01*
X037350Y029300D02*
X037800Y028850D01*
X038409Y021639D02*
X039318Y022548D01*
X038599Y020727D02*
Y021560D01*
X039397Y022358D01*
X038409Y020727D02*
Y021639D01*
X039397Y022358D02*
X040468D01*
X039318Y022548D02*
X040389D01*
X020669Y040650D02*
X021555D01*
X021752Y040846D01*
X020518Y040498D02*
X020669Y040650D01*
X033738Y044053D02*
X033817Y044132D01*
Y044343D01*
X034004Y044529D01*
X034177D01*
X034252Y044604D01*
Y044830D01*
X034177Y044905D02*
X034252Y044830D01*
X033846Y044905D02*
X034177D01*
X033660Y045091D02*
X033846Y044905D01*
X033660Y045091D02*
Y045474D01*
X033846Y045660D01*
X034330D01*
X034405Y045736D01*
Y045961D01*
X034330Y046036D02*
X034405Y045961D01*
X034004Y046036D02*
X034330D01*
X033817Y046222D02*
X034004Y046036D01*
X033817Y046222D02*
Y046407D01*
X034007Y044053D02*
Y044264D01*
X034082Y044339D01*
X034255D01*
X034442Y044526D01*
Y044908D01*
X034255Y045095D02*
X034442Y044908D01*
X033925Y045095D02*
X034255D01*
X033850Y045170D02*
X033925Y045095D01*
X033850Y045170D02*
Y045395D01*
X033925Y045470D01*
X034409D01*
X034595Y045657D01*
Y046040D01*
X034409Y046226D02*
X034595Y046040D01*
X034082Y046226D02*
X034409D01*
X034007Y046301D02*
X034082Y046226D01*
X034007Y046301D02*
Y046407D01*
X031360Y041675D02*
X033738Y044053D01*
X033817Y046407D02*
Y046940D01*
X034007Y046407D02*
Y047019D01*
X031550Y041596D02*
X034007Y044053D01*
X038146Y040799D02*
X038247Y040697D01*
X038064Y040799D02*
X038146D01*
X037971Y040706D02*
X038064Y040799D01*
X037931Y040706D02*
X037971D01*
X037872Y040765D02*
X037931Y040706D01*
X037872Y040765D02*
Y040805D01*
X037965Y040897D01*
Y040980D01*
X037903Y041041D02*
X037965Y040980D01*
X037903Y041041D02*
Y041304D01*
X037390Y042960D02*
X037695D01*
X037331Y042901D02*
X037390Y042960D01*
X037331Y042830D02*
Y042901D01*
X037303Y042803D02*
X037331Y042830D01*
X037220Y042803D02*
X037303D01*
X037192Y042830D02*
X037220Y042803D01*
X037192Y042830D02*
Y042932D01*
X037164Y042960D02*
X037192Y042932D01*
X037080Y042960D02*
X037164D01*
X037052Y042932D02*
X037080Y042960D01*
X037052Y042830D02*
Y042932D01*
X037025Y042803D02*
X037052Y042830D01*
X036941Y042803D02*
X037025D01*
X036913Y042830D02*
X036941Y042803D01*
X036913Y042830D02*
Y042901D01*
X036854Y042960D02*
X036913Y042901D01*
X036665Y042960D02*
X036854D01*
X036659D02*
X036665D01*
X038247Y040697D02*
X038372Y040573D01*
X037903Y041304D02*
Y041318D01*
X035802Y042103D02*
X036659Y042960D01*
X038851Y041066D02*
X038935Y040983D01*
X038768Y041066D02*
X038851D01*
X038718Y041016D02*
X038768Y041066D01*
X038678Y041016D02*
X038718D01*
X038619Y041075D02*
X038678Y041016D01*
X038619Y041075D02*
Y041115D01*
X038670Y041165D01*
Y041248D01*
X038526Y041391D02*
X038670Y041248D01*
X038526Y041391D02*
Y041489D01*
X038935Y040983D02*
X039344Y040574D01*
X038526Y041489D02*
Y041548D01*
X038762Y043690D02*
X040260Y042192D01*
X038684Y043500D02*
X040152Y042032D01*
X037744Y042330D02*
X038526Y041548D01*
X036770Y042330D02*
X037744D01*
X037471Y041750D02*
X037903Y041318D01*
X036860Y041750D02*
X037471D01*
X038716Y041470D02*
X039553Y040633D01*
X038716Y041470D02*
Y041626D01*
X037822Y042520D02*
X038716Y041626D01*
X036691Y042520D02*
X037822D01*
X037800Y043150D02*
X038144D01*
X038315Y042979D01*
Y042680D02*
Y042979D01*
Y042680D02*
X038441Y042554D01*
X038525D01*
X038752Y042781D01*
X038993D01*
X039230Y042544D01*
Y042302D02*
Y042544D01*
X039003Y042075D02*
X039230Y042302D01*
X039003Y041991D02*
Y042075D01*
Y041991D02*
X039129Y041865D01*
X039213D01*
X039245Y041897D01*
X039487D01*
X039617Y041767D01*
X037695Y042960D02*
X038065D01*
X038125Y042901D01*
Y042601D02*
Y042901D01*
Y042601D02*
X038362Y042364D01*
X038603D01*
X038830Y042591D01*
X038914D01*
X039040Y042465D01*
Y042381D02*
Y042465D01*
X038813Y042154D02*
X039040Y042381D01*
X038813Y041913D02*
Y042154D01*
Y041913D02*
X039051Y041675D01*
X039292D01*
X039324Y041707D01*
X039408D01*
X039483Y041633D01*
X036580Y043150D02*
X037800D01*
X039617Y041767D02*
X039781Y041603D01*
X039483Y041633D02*
X039607Y041508D01*
X013311Y046289D02*
X013539D01*
X013550Y046300D01*
X013300Y046277D02*
X013311Y046289D01*
X012403Y045889D02*
X012502Y045987D01*
X012403Y045525D02*
Y045889D01*
X012206Y046145D02*
Y046450D01*
Y046145D02*
X012364Y045987D01*
X012502D01*
X012403Y046086D02*
X012502Y045987D01*
X012403Y046086D02*
Y046450D01*
X013300Y046277D02*
Y046665D01*
X012797Y046450D02*
X013127D01*
X013300Y046277D01*
X032462Y029724D02*
X032480Y029743D01*
Y030000D02*
X032992Y030512D01*
X032670Y029921D02*
X033064Y030315D01*
X032670Y029743D02*
X032689Y029724D01*
X032670Y029743D02*
Y029921D01*
X032480Y029743D02*
Y030000D01*
X036901Y027749D02*
X037200Y027450D01*
X036901Y027749D02*
Y027892D01*
X037200Y027450D02*
X037550D01*
X037800Y027700D01*
X026600Y023800D02*
X026650Y023750D01*
Y020250D02*
Y023750D01*
X024950Y019850D02*
X026250D01*
X026650Y020250D01*
X026100Y020050D02*
X026500Y020450D01*
X024850Y020050D02*
X026100D01*
X026500Y020450D02*
Y021000D01*
X024500Y019700D02*
X024850Y020050D01*
X024016Y018916D02*
X024950Y019850D01*
X024016Y017594D02*
Y018916D01*
X027250Y024300D02*
X027300Y024250D01*
X026650Y024300D02*
X027250D01*
X026350Y024000D02*
X026650Y024300D01*
X026350Y022850D02*
Y024000D01*
X026050Y021950D02*
Y022550D01*
X026350Y022850D01*
X026240Y021055D02*
Y021760D01*
Y021055D02*
X026244Y021059D01*
X026235Y021049D02*
X026240Y021055D01*
X026441Y021059D02*
X026500Y021000D01*
X026244Y021059D02*
X026441D01*
X023550Y019700D02*
X024500D01*
X023462Y019788D02*
Y019936D01*
Y019788D02*
X023550Y019700D01*
X023398Y020000D02*
X023462Y019936D01*
X025447Y021049D02*
X026235D01*
X025442Y021055D02*
X025447Y021049D01*
X026050Y021950D02*
X026240Y021760D01*
X024600Y021950D02*
X026050D01*
X023768Y021118D02*
X024600Y021950D01*
X023768Y020787D02*
Y021118D01*
X023110Y017264D02*
X023112Y017261D01*
Y016848D02*
Y017261D01*
Y016848D02*
X023327Y016634D01*
X024016Y016535D02*
X025689Y014862D01*
X024803Y014822D02*
Y015256D01*
Y014822D02*
X025255Y014370D01*
X025886D01*
X026378Y014862D01*
X026575D01*
X026772Y014665D01*
X023425Y016634D02*
X024803Y015256D01*
X023327Y016634D02*
X023425D01*
X026772Y014455D02*
Y014665D01*
X026890Y014059D02*
Y014337D01*
X026772Y014455D02*
X026890Y014337D01*
X046203Y036179D02*
X048663D01*
X046063Y036319D02*
X046203Y036179D01*
X046063Y036319D02*
Y036909D01*
X046417Y036497D02*
Y039823D01*
X046358Y036438D02*
X046417Y036497D01*
X046358Y036417D02*
Y036438D01*
X046752Y036417D02*
Y036438D01*
X046890Y036576D01*
Y039823D01*
X046063Y036909D02*
X046161Y037008D01*
Y038976D01*
X048663Y036179D02*
X048780Y036063D01*
Y035374D02*
Y036063D01*
X046949Y040551D02*
X047736D01*
X046654Y040846D02*
Y041187D01*
Y040846D02*
X046949Y040551D01*
X047736D02*
X047835Y040453D01*
Y039823D02*
Y040453D01*
X047699Y041142D02*
X048032D01*
X047654Y041187D02*
X047699Y041142D01*
X048032D02*
X048307Y040866D01*
Y039823D02*
Y040866D01*
X048622Y040846D02*
X048780Y040689D01*
Y039823D02*
Y040689D01*
X033563Y023228D02*
Y023456D01*
X033571Y023465D02*
X033576D01*
X033563Y023456D02*
X033571Y023465D01*
X029921Y014567D02*
X034547D01*
X028248Y016318D02*
Y016339D01*
X027917Y016239D02*
X028189D01*
Y016259D02*
X028248Y016318D01*
X028189Y016239D02*
Y016259D01*
X027878Y016200D02*
X027917Y016239D01*
X026378Y016339D02*
X026517Y016200D01*
X027878D01*
X025886Y016634D02*
X026181Y016339D01*
X026378D01*
X025886Y017205D02*
X025925Y017244D01*
X025886Y016634D02*
Y017205D01*
X034488Y023858D02*
X035164D01*
X034016Y024055D02*
X034183Y023888D01*
X033576Y024055D02*
X034016D01*
X026518Y016795D02*
X026539D01*
X026378Y016634D02*
Y016655D01*
X026340Y016693D02*
X026378Y016655D01*
X026340Y016693D02*
Y016699D01*
X026479Y016833D02*
X026518Y016795D01*
X025409Y018209D02*
Y018519D01*
X025453Y018563D01*
X025182Y018209D02*
Y018519D01*
X025138Y018563D02*
X025182Y018519D01*
X031102Y028642D02*
Y029105D01*
X030404Y029803D02*
X031102Y029105D01*
X030866Y028583D02*
X031102Y028346D01*
X030866Y028583D02*
Y028976D01*
X030236Y029606D02*
X030866Y028976D01*
X022583Y029803D02*
X030404D01*
X031102Y028346D02*
X031693D01*
X022696Y029606D02*
X030236D01*
X023756Y025397D02*
X024807D01*
X023615Y025401D02*
X023746D01*
X028359Y028950D02*
X030204D01*
X023756Y025587D02*
X024728D01*
X030282Y029140D02*
X030609Y028814D01*
X030419Y028051D02*
Y028735D01*
X030609Y028051D02*
Y028814D01*
X028281Y029140D02*
X030282D01*
X030204Y028950D02*
X030419Y028735D01*
X026473Y017934D02*
Y018583D01*
X025540Y019030D02*
X026025D01*
X026283Y017934D02*
Y018504D01*
X025431Y018840D02*
X025947D01*
X026532Y017992D02*
X026831D01*
X026474Y016833D02*
X026479D01*
X025453Y019232D02*
X025482Y019204D01*
Y019089D02*
X025540Y019030D01*
X025482Y019089D02*
Y019204D01*
X026473Y017934D02*
X026532Y017992D01*
X026398Y016992D02*
X026473Y017067D01*
X026398Y016909D02*
X026474Y016833D01*
X026473Y017067D02*
Y017934D01*
X026398Y016909D02*
Y016992D01*
X026283Y017145D02*
Y017934D01*
X025138Y019134D02*
Y019232D01*
Y019134D02*
X025431Y018840D01*
X026224Y017992D02*
X026283Y017934D01*
X026208Y017071D02*
X026283Y017145D01*
X026208Y016830D02*
X026340Y016699D01*
X025925Y017992D02*
X026224D01*
X026208Y016830D02*
Y017071D01*
X025947Y018840D02*
X026283Y018504D01*
X026025Y019030D02*
X026473Y018583D01*
X036417Y016437D02*
Y021161D01*
X034547Y014567D02*
X036417Y016437D01*
X035433Y022146D02*
X036417Y021161D01*
X035433Y022146D02*
Y022453D01*
X034324Y022651D02*
Y023300D01*
X034018Y022345D02*
X034324Y022651D01*
X034685Y023661D02*
X035164D01*
X034324Y023300D02*
X034685Y023661D01*
X030581Y022353D02*
X030583Y022355D01*
X030581Y022224D02*
Y022353D01*
X030580Y022222D02*
X030581Y022224D01*
X030580Y021965D02*
Y022222D01*
X030215Y021600D02*
X030580Y021965D01*
X030095Y021600D02*
X030215D01*
X030080Y021585D02*
X030095Y021600D01*
X033884Y022480D02*
X034134Y022730D01*
Y023543D01*
X033819Y023858D02*
X034134Y023543D01*
X033576Y023858D02*
X033819D01*
X030390Y022044D02*
Y022222D01*
X030388Y022224D02*
X030390Y022222D01*
X030388Y022224D02*
Y022353D01*
X030387Y022355D02*
X030388Y022353D01*
X030046Y021822D02*
X030169D01*
X030390Y022044D01*
X030032Y021807D02*
X030046Y021822D01*
X031666Y021646D02*
X031886D01*
X034951Y022254D02*
Y022443D01*
X034961Y022453D01*
X034941Y022244D02*
X034951Y022254D01*
X035315Y026772D02*
Y027100D01*
X033209Y023661D02*
X033576D01*
X033051Y023504D02*
X033209Y023661D01*
X035164Y024252D02*
X035472D01*
X034385Y024282D02*
Y024848D01*
X034568Y024114D02*
Y024197D01*
X034575Y024204D01*
X033576Y024252D02*
X034030D01*
X034058Y024224D01*
X034326D02*
X034385Y024282D01*
X034058Y024224D02*
X034326D01*
X034575Y024204D02*
Y024848D01*
X034568Y024114D02*
X034626Y024055D01*
X035164D01*
X030136Y039683D02*
Y040059D01*
X029946Y039762D02*
Y040059D01*
X034239Y027656D02*
X034254Y027670D01*
X034291D01*
X034239Y027100D02*
X034254Y027086D01*
X034291D01*
X034370Y027750D02*
Y027984D01*
X034291Y027086D02*
X034370Y027006D01*
X034291Y027670D02*
X034370Y027750D01*
Y026772D02*
Y027006D01*
X034637Y031299D02*
Y031859D01*
X030136Y036360D02*
X034637Y031859D01*
X034409Y031299D02*
Y031818D01*
X029946Y036281D02*
X034409Y031818D01*
X029946Y036281D02*
Y039762D01*
X030136Y036360D02*
Y039683D01*
X039607Y041477D02*
X039641Y041443D01*
X039671D01*
X039832Y041567D02*
Y041603D01*
X039681Y041403D02*
X039727D01*
X039671Y041413D02*
Y041443D01*
X039607Y041477D02*
Y041508D01*
X039781Y041603D02*
X039832D01*
X039671Y041413D02*
X039681Y041403D01*
X039344Y040559D02*
X039409Y040493D01*
X039344Y040559D02*
Y040574D01*
X039553Y040633D02*
X039570D01*
X039409Y040472D02*
Y040493D01*
X038425Y040472D02*
Y040493D01*
X036781Y041940D02*
X037550D01*
X038372Y040547D02*
X038425Y040493D01*
X038372Y040547D02*
Y040573D01*
X038094Y041120D02*
X038576Y040638D01*
X038094Y041120D02*
Y041396D01*
X037550Y041940D02*
X038094Y041396D01*
X038576Y040638D02*
X038595D01*
X037520Y040695D02*
Y041339D01*
X037331Y039763D02*
X037362Y039794D01*
X037520Y039608D02*
X038087Y039041D01*
X037331Y039742D02*
Y039763D01*
X037362Y039794D02*
Y040126D01*
X037520Y039608D02*
Y040126D01*
X040134Y020661D02*
X040167Y020694D01*
X040134Y020303D02*
Y020661D01*
Y020303D02*
X040193Y020245D01*
X040457D01*
X040167Y020694D02*
X040206Y020732D01*
X040457Y020245D02*
X041827Y018874D01*
Y018064D02*
Y018874D01*
X040206Y020954D02*
X040264Y021012D01*
X040206Y020732D02*
Y020954D01*
X041924Y017456D02*
X041929Y017451D01*
X041345Y021012D02*
X042352Y022019D01*
X041924Y017456D02*
Y017967D01*
X041827Y018064D02*
X041924Y017967D01*
X040264Y021012D02*
X041345D01*
X042352Y023011D02*
X042370Y023030D01*
X042352Y022019D02*
Y023011D01*
X035143Y041430D02*
Y042553D01*
X036280Y043690D01*
X038762D01*
X040260Y042192D02*
X040312D01*
X039911Y020694D02*
X039944Y020661D01*
Y020225D02*
Y020661D01*
X039911Y020694D02*
X039950Y020732D01*
X039944Y020225D02*
X040114Y020055D01*
X039950Y020997D02*
X040156Y021202D01*
X041535Y017451D02*
X041541Y017456D01*
Y017967D01*
X039950Y020732D02*
Y020997D01*
X040114Y020055D02*
X040378D01*
X041541Y017967D02*
X041637Y018064D01*
X040378Y020055D02*
X041637Y018796D01*
Y018064D02*
Y018796D01*
X041266Y021202D02*
X042162Y022098D01*
X040156Y021202D02*
X041266D01*
X042143Y023030D02*
X042162Y023011D01*
Y022098D02*
Y023011D01*
X035333Y041430D02*
Y042474D01*
X036359Y043500D01*
X038684D01*
X041722Y022651D02*
X041740Y022670D01*
X041722Y022063D02*
Y022651D01*
X041136Y021478D02*
X041722Y022063D01*
X041237Y018064D02*
X041333Y017967D01*
X041237Y018064D02*
Y018583D01*
X041333Y017456D02*
X041339Y017451D01*
X041333Y017456D02*
Y017967D01*
X035612Y042182D02*
X036580Y043150D01*
X035612Y041440D02*
Y042182D01*
X039882Y021478D02*
X041136D01*
X039623Y021219D02*
X039882Y021478D01*
X039623Y020197D02*
X041237Y018583D01*
X039623Y020727D02*
X039656Y020694D01*
X039623Y020727D02*
Y021219D01*
Y020197D02*
Y020661D01*
X039656Y020694D01*
X041513Y022670D02*
X041532Y022651D01*
Y022142D02*
Y022651D01*
X041058Y021668D02*
X041532Y022142D01*
X040950Y017967D02*
X041047Y018064D01*
Y018505D01*
X040950Y017456D02*
Y017967D01*
X040945Y017451D02*
X040950Y017456D01*
X035802Y041440D02*
Y042103D01*
X039803Y021668D02*
X041058D01*
X039433Y021298D02*
X039803Y021668D01*
X039433Y020119D02*
X041047Y018505D01*
X039433Y020727D02*
Y021298D01*
X039400Y020694D02*
X039433Y020727D01*
Y020119D02*
Y020661D01*
X039400Y020694D02*
X039433Y020661D01*
X036084Y041450D02*
Y041913D01*
X039111Y020661D02*
X039144Y020694D01*
X039111Y019969D02*
Y020661D01*
Y020727D02*
X039144Y020694D01*
X039111Y021421D02*
X039588Y021898D01*
X039111Y019969D02*
X040646Y018434D01*
Y018064D02*
X040743Y017967D01*
Y017456D02*
Y017967D01*
X039111Y020727D02*
Y021421D01*
X040646Y018064D02*
Y018434D01*
X040743Y017456D02*
X040748Y017451D01*
X039588Y021898D02*
X040867D01*
X041240Y022271D01*
Y023121D02*
X041259Y023140D01*
X041240Y022271D02*
Y023121D01*
X036084Y041913D02*
X036691Y042520D01*
X038888Y020694D02*
X038921Y020661D01*
Y019891D02*
Y020661D01*
X038888Y020694D02*
X038921Y020727D01*
Y021499D01*
Y019891D02*
X040456Y018355D01*
X040354Y017451D02*
X040359Y017456D01*
X038921Y021499D02*
X039509Y022088D01*
X040359Y017456D02*
Y017967D01*
X040456Y018064D01*
Y018355D01*
X039509Y022088D02*
X040789D01*
X041050Y022349D01*
X041032Y023140D02*
X041050Y023121D01*
Y022349D02*
Y023121D01*
X036274Y041450D02*
Y041834D01*
X036770Y042330D01*
X036557Y041420D02*
Y041715D01*
X038599Y020661D02*
X038632Y020694D01*
X038599Y019741D02*
Y020661D01*
Y020727D02*
X038632Y020694D01*
X038599Y019741D02*
X040056Y018284D01*
Y018064D02*
X040152Y017967D01*
Y017456D02*
Y017967D01*
X040056Y018064D02*
Y018284D01*
X040152Y017456D02*
X040157Y017451D01*
X040468Y022358D02*
X040748Y022638D01*
Y022871D02*
X040767Y022890D01*
X040748Y022638D02*
Y022871D01*
X036557Y041715D02*
X036781Y041940D01*
X036747Y041637D02*
X036860Y041750D01*
X038376Y020694D02*
X038409Y020661D01*
Y019662D02*
Y020661D01*
X038376Y020694D02*
X038409Y020727D01*
Y019662D02*
X039866Y018205D01*
X039764Y017451D02*
X039769Y017456D01*
Y017967D01*
X039866Y018064D01*
Y018205D01*
X040389Y022548D02*
X040558Y022716D01*
X040539Y022890D02*
X040558Y022871D01*
Y022716D02*
Y022871D01*
X036747Y041420D02*
Y041637D01*
X021752Y041280D02*
X022874Y042402D01*
X023228D01*
X021752Y040846D02*
Y041280D01*
X032317Y026778D02*
Y027094D01*
Y026778D02*
X032323Y026772D01*
X032310Y027100D02*
X032317Y027094D01*
X030887Y041480D02*
Y042029D01*
X032077Y043219D02*
Y045217D01*
X031077Y041480D02*
Y041950D01*
X030887Y042029D02*
X032077Y043219D01*
X031077Y041950D02*
X032267Y043140D01*
Y045138D01*
X031360Y041480D02*
Y041675D01*
X031550Y041480D02*
Y041596D01*
X030419Y041480D02*
Y042704D01*
X030749Y043040D02*
Y043061D01*
X030889Y042900D02*
X030910D01*
X030609Y041480D02*
Y042625D01*
X030419Y042704D02*
X030711Y042996D01*
X030609Y042625D02*
X030845Y042861D01*
X030851D01*
X030711Y043001D02*
X030749Y043040D01*
X030851Y042861D02*
X030889Y042900D01*
X030711Y042996D02*
Y043001D01*
X049673Y045197D02*
X049698Y045172D01*
X049907D01*
X049921Y045157D01*
X049679Y044455D02*
X049685Y044449D01*
X049673Y044724D02*
X049679Y044718D01*
Y044455D02*
Y044718D01*
X047983Y044399D02*
X047992Y044390D01*
X047452Y044399D02*
X047983D01*
X047441Y044409D02*
X047452Y044399D01*
X048001Y044596D02*
X048533D01*
X047992Y044587D02*
X048001Y044596D01*
X048533D02*
X048543Y044606D01*
X047441Y044764D02*
X047452Y044774D01*
X047983D02*
X047992Y044783D01*
X047452Y044774D02*
X047983D01*
X048602Y044980D02*
X048858Y044724D01*
X049303D01*
X047992Y044980D02*
X048602D01*
X022819Y014661D02*
X022823Y014665D01*
X022819Y014063D02*
Y014661D01*
X022815Y014059D02*
X022819Y014063D01*
X027445Y014661D02*
X027449Y014665D01*
X027445Y014063D02*
Y014661D01*
X027441Y014059D02*
X027445Y014063D01*
X017005Y024603D02*
Y024695D01*
X017285Y024323D02*
X017310D01*
X017005Y024603D02*
X017285Y024323D01*
X017338Y025028D02*
Y025534D01*
X017005Y024695D02*
X017338Y025028D01*
Y025534D02*
X018674Y026870D01*
X024807Y025397D02*
X028359Y028950D01*
X016535Y024323D02*
X016815Y024603D01*
Y024774D01*
X016510Y024323D02*
X016535D01*
X017148Y025106D02*
Y025612D01*
X016815Y024774D02*
X017148Y025106D01*
X023753Y025591D02*
X023756Y025587D01*
X017148Y025612D02*
X018596Y027060D01*
X024728Y025587D02*
X028281Y029140D01*
X023192Y025587D02*
X023750D01*
X023753Y025591D01*
X023113Y025397D02*
X023750D01*
X023753Y025394D01*
X021719Y027060D02*
X023192Y025587D01*
X018674Y026870D02*
X021640D01*
X023113Y025397D01*
X018596Y027060D02*
X021719D01*
X019206Y026076D02*
X021177D01*
X019284Y025886D02*
X021099D01*
X021177Y026076D02*
X023142Y024111D01*
X023064Y023921D02*
X023717D01*
X023720Y023917D01*
X023142Y024111D02*
X023717D01*
X023720Y024114D01*
X021099Y025886D02*
X023064Y023921D01*
X021255Y027335D02*
Y027566D01*
X021250Y027330D02*
X021255Y027335D01*
Y027566D02*
X021260Y027571D01*
X018777Y025647D02*
X019206Y026076D01*
X018777Y025168D02*
Y025647D01*
X018967Y025569D02*
X019284Y025886D01*
X018967Y025247D02*
Y025569D01*
X030136Y026830D02*
Y027133D01*
X029913Y027355D02*
X030136Y027133D01*
X028340Y027355D02*
X029913D01*
X025098Y024114D02*
X028340Y027355D01*
X024049Y024114D02*
X025098D01*
X023720D02*
X024049D01*
X019215Y024628D02*
Y024730D01*
X018910Y024323D02*
X019215Y024628D01*
X029946Y026830D02*
Y027054D01*
X029835Y027165D02*
X029946Y027054D01*
X028418Y027165D02*
X029835D01*
X025170Y023917D02*
X028418Y027165D01*
X024049Y023917D02*
X025170D01*
X023720D02*
X024049D01*
X019405Y024628D02*
X019710Y024323D01*
X018967Y025247D02*
X019405Y024809D01*
Y024628D02*
Y024809D01*
X018777Y025168D02*
X019215Y024730D01*
X032166Y027656D02*
Y027984D01*
X032165Y027984D02*
X032166Y027984D01*
Y027656D02*
X032167Y027656D01*
X029245Y022847D02*
X029698D01*
X029006Y022904D02*
X029146Y023044D01*
X029698D01*
X029028Y022650D02*
X029698D01*
X028891Y022904D02*
X029006D01*
X028827Y022835D02*
Y022840D01*
X028891Y022904D01*
X020518Y040118D02*
Y040498D01*
X035000Y041050D02*
Y041339D01*
X035000Y041050D02*
X035000Y041050D01*
X050980Y025212D02*
Y026591D01*
X050610Y024843D02*
X050980Y025212D01*
X042815Y023228D02*
X043169Y023583D01*
X043681D01*
X031374Y027667D02*
Y027981D01*
X031378Y027984D01*
X031370Y027663D02*
X031374Y027667D01*
X044570Y036970D02*
X044726Y037126D01*
X045394D01*
X046417Y033203D02*
Y035374D01*
X046200Y031110D02*
Y031680D01*
X045995Y030905D02*
X046200Y031110D01*
X045689Y030905D02*
X045995D01*
X045571Y031351D02*
X045880Y031660D01*
X045571Y031102D02*
Y031351D01*
X045374Y031664D02*
X045480Y031770D01*
X045374Y031220D02*
Y031664D01*
X045177Y031220D02*
Y031763D01*
X032992Y030512D02*
X044468D01*
X032480Y024213D02*
Y024785D01*
X032462Y024803D02*
X032480Y024785D01*
X032099Y023832D02*
X032480Y024213D01*
X031863Y023832D02*
X032099D01*
X032670Y024134D02*
Y024785D01*
X032689Y024803D01*
X032171Y023635D02*
X032670Y024134D01*
X031863Y023635D02*
X032171D01*
X033064Y030315D02*
X044468D01*
X044980Y028445D02*
Y029047D01*
X044095Y030709D02*
X044468D01*
X046161Y030315D02*
X046161Y030315D01*
X045689Y030315D02*
X046161D01*
X045177Y029614D02*
X045374Y029417D01*
X045177Y029614D02*
Y030000D01*
X044980Y029417D02*
X044980Y029417D01*
X044980Y029417D02*
Y030000D01*
X044980Y029047D02*
X045374D01*
X044488Y029429D02*
Y029823D01*
Y029409D02*
Y029429D01*
X044783Y029724D01*
Y030000D01*
X044488Y029823D02*
X044586Y029921D01*
Y030118D01*
X030276Y040126D02*
Y040394D01*
X030217Y040453D02*
X030276Y040394D01*
X030433Y040126D02*
Y040630D01*
X030283Y040780D02*
X030433Y040630D01*
X029760Y040780D02*
X030283D01*
X034055Y040126D02*
Y040453D01*
X034055Y040453D02*
X034055Y040453D01*
X037352Y041074D02*
Y041328D01*
X037331Y041053D02*
X037352Y041074D01*
Y041328D02*
X037362Y041339D01*
X037331Y041032D02*
Y041053D01*
X022170Y021358D02*
X022170Y021358D01*
X021855Y021358D02*
X022170D01*
X021855Y021850D02*
X022170D01*
X016110Y023323D02*
Y024870D01*
X016230Y024990D01*
X015453Y026227D02*
Y026488D01*
Y026227D02*
X015710Y025970D01*
Y025323D02*
Y025970D01*
X029626Y040914D02*
Y042421D01*
Y040914D02*
X029760Y040780D01*
X047736Y021642D02*
Y021850D01*
X047343Y021272D02*
X047736D01*
X047343Y021642D02*
Y023524D01*
X047402Y023583D01*
X047815D01*
X046476Y024843D02*
X046516D01*
X049016Y016929D02*
Y017138D01*
X050768Y017146D02*
X050787Y017126D01*
X049409Y017146D02*
X050768D01*
X049705Y017520D02*
X049717Y017508D01*
X049992D01*
X049016D02*
X049717D01*
X049992D02*
X050000Y017500D01*
X049705Y017520D02*
Y018799D01*
X049823Y018917D01*
X050000D01*
X027220Y020730D02*
X027460Y020490D01*
Y018860D02*
Y020490D01*
X027970Y022070D02*
Y024010D01*
X028290Y024330D01*
X028180Y023900D02*
X028320Y024040D01*
X028180Y021860D02*
Y023900D01*
X028290Y024330D02*
X029150D01*
X029300Y024040D02*
Y024160D01*
Y023920D02*
Y024040D01*
X028320D02*
X029300D01*
X032500Y023535D02*
X032662Y023697D01*
X031555Y024980D02*
X031559Y024984D01*
X030977Y024520D02*
Y024763D01*
X030910Y024830D02*
X030977Y024763D01*
X031174Y024520D02*
Y024713D01*
Y024751D01*
X031666Y021292D02*
X031878D01*
X031656Y021282D02*
X031666Y021292D01*
X033275Y020118D02*
Y022377D01*
X031996Y023238D02*
X032288D01*
X032342Y023184D01*
X031865Y023239D02*
X031994D01*
X031863Y023241D02*
X031865Y023239D01*
X031994D02*
X031996Y023238D01*
X032342Y023184D02*
X032736D01*
X033465Y020111D02*
Y020440D01*
Y022455D01*
X033670Y018871D02*
Y019699D01*
X033465Y019904D02*
X033670Y019699D01*
X033335Y018536D02*
X033670Y018871D01*
X033465Y019904D02*
Y020111D01*
X032893Y018536D02*
X033335D01*
X032998Y018106D02*
X033071D01*
X032772Y018332D02*
X032998Y018106D01*
X032772Y018415D02*
X032893Y018536D01*
X032772Y018332D02*
Y018415D01*
X031996Y023048D02*
X032209D01*
X032263Y022994D01*
X031994Y023046D02*
X031996Y023048D01*
X031863Y023044D02*
X031865Y023046D01*
X031994D01*
X032263Y022994D02*
X032657D01*
X033480Y018950D02*
Y019620D01*
X033275Y019825D02*
X033480Y019620D01*
X033256Y018726D02*
X033480Y018950D01*
X033275Y019825D02*
Y020104D01*
X032582Y018494D02*
X032814Y018726D01*
X033256D01*
X032356Y018106D02*
X032582Y018332D01*
Y018494D01*
X032283Y018106D02*
X032356D01*
X032736Y023184D02*
X033465Y022455D01*
X032657Y022994D02*
X033275Y022377D01*
X032074Y022844D02*
X032871Y022048D01*
Y020115D02*
Y022048D01*
X032681Y020115D02*
Y021969D01*
X031996Y022654D02*
X032681Y021969D01*
X031994Y022845D02*
X031996Y022844D01*
X032074D01*
X031863Y022847D02*
X031865Y022845D01*
X031994D01*
X032772Y019397D02*
X033032Y019138D01*
X033071D01*
X032871Y019579D02*
Y020108D01*
X032772Y019397D02*
Y019480D01*
X032871Y019579D01*
X031994Y022652D02*
X031996Y022654D01*
X031863Y022650D02*
X031865Y022652D01*
X031994D01*
X032582Y019559D02*
X032681Y019657D01*
Y020108D01*
X032582Y019397D02*
Y019559D01*
X032323Y019138D02*
X032582Y019397D01*
X032283Y019138D02*
X032323D01*
X023480Y023720D02*
X023720D01*
X024049D02*
X024270D01*
X024082Y025197D02*
X024287D01*
X023543D02*
X023753D01*
X047992Y046161D02*
X048439D01*
X048732Y046752D02*
X048830Y046850D01*
X048725Y046351D02*
X048740Y046336D01*
X048570Y046362D02*
X048581Y046351D01*
X048402Y047356D02*
X048673D01*
X048829Y047200D01*
X047992Y047343D02*
X048001Y047352D01*
X048397D02*
X048402Y047356D01*
X048581Y046351D02*
X048725D01*
X048001Y047352D02*
X048397D01*
X048725Y046556D02*
X048733Y046563D01*
X048829Y047200D02*
X048850D01*
X047992Y046752D02*
X048732D01*
X048574Y046556D02*
X048725D01*
X047992Y047933D02*
X048447D01*
X047992Y048524D02*
X048447D01*
X047992Y049114D02*
X048447D01*
X047992Y049705D02*
X048447D01*
X047992Y050295D02*
X048447D01*
X047992Y050886D02*
X048447D01*
X047992Y051476D02*
X048447D01*
X047992Y051673D02*
X048447D01*
X030609Y026403D02*
Y026720D01*
X030419Y026482D02*
Y026720D01*
X030387Y026181D02*
X030609Y026403D01*
X030308Y026371D02*
X030419Y026482D01*
X029660Y026620D02*
X029770D01*
X029803Y026653D01*
Y026772D01*
X034843D02*
Y027100D01*
X033898Y026772D02*
Y027100D01*
X033110Y026772D02*
Y027100D01*
X031535Y026772D02*
Y027100D01*
X030748Y026892D02*
Y027100D01*
X037362Y027656D02*
Y027984D01*
X035472Y027656D02*
Y027984D01*
X034843Y027656D02*
Y027984D01*
X033740Y027656D02*
Y027984D01*
X032953Y027656D02*
Y027984D01*
X030748Y027656D02*
Y027984D01*
X029803Y027656D02*
Y027984D01*
X030276Y027656D02*
Y027984D01*
X036890Y039746D02*
Y040126D01*
X036417Y039746D02*
Y040126D01*
X035945Y039746D02*
Y040126D01*
X035472Y039746D02*
Y040126D01*
X035000Y039746D02*
Y040126D01*
X034528Y039746D02*
Y040126D01*
X032638Y039746D02*
Y040126D01*
X032165Y039746D02*
Y040126D01*
X031693Y039746D02*
Y040126D01*
X031220Y039746D02*
Y040126D01*
X030748Y039746D02*
Y040126D01*
X036890Y041030D02*
Y041339D01*
X036417Y041037D02*
Y041339D01*
X035945Y041035D02*
Y041339D01*
X035472Y041018D02*
Y041339D01*
X034528D02*
Y041638D01*
X034055Y041339D02*
Y041655D01*
X033583Y041339D02*
Y041677D01*
X033110Y041339D02*
Y041680D01*
X032638Y041339D02*
Y041678D01*
X032165Y041045D02*
Y041339D01*
X031693Y041047D02*
Y041339D01*
X031220Y041040D02*
Y041339D01*
X030748Y041038D02*
Y041339D01*
X030276Y041036D02*
Y041339D01*
X029803D02*
Y042126D01*
X032500Y023504D02*
Y023535D01*
X032434Y023438D02*
X032500Y023504D01*
X032634Y023724D02*
X032662Y023697D01*
X031863Y023438D02*
X032434D01*
X028917Y022343D02*
X029134D01*
X028819Y022441D02*
X028917Y022343D01*
X028819Y022441D02*
X029028Y022650D01*
X029278Y023228D02*
X029291Y023241D01*
X028827Y023228D02*
X029278D01*
X029338Y023438D02*
X029698D01*
X028812Y023635D02*
X029698D01*
X029291Y023241D02*
X029698D01*
X029365Y024225D02*
Y024585D01*
Y024225D02*
X029698D01*
X029300Y024160D02*
X029365Y024225D01*
X029300Y023920D02*
X029388Y023832D01*
X029698D01*
X030190Y024713D02*
Y024740D01*
Y024520D02*
Y024713D01*
X027460Y018860D02*
X027737Y018583D01*
X027972D01*
X027190Y018730D02*
Y020390D01*
Y018730D02*
X027972Y017948D01*
Y017638D02*
Y017948D01*
X027362Y017531D02*
X027669Y017224D01*
X028150D01*
X028346Y017421D01*
Y017638D01*
X024049Y023327D02*
X025367D01*
X023720D02*
X024049D01*
Y023524D02*
X025295D01*
X028143Y026371D01*
X021781Y022300D02*
X022815Y023334D01*
X023714D01*
X021703Y022490D02*
X022736Y023524D01*
X023720D01*
X018510Y023323D02*
X018815Y023018D01*
X019173Y022300D02*
X021781D01*
X018815Y022658D02*
Y023018D01*
Y022658D02*
X019173Y022300D01*
X028221Y026181D02*
X030387D01*
X025367Y023327D02*
X028221Y026181D01*
X019005Y023018D02*
X019310Y023323D01*
X019251Y022490D02*
X021703D01*
X019005Y022736D02*
Y023018D01*
Y022736D02*
X019251Y022490D01*
X028143Y026371D02*
X030308D01*
X023720Y023524D02*
X024049D01*
X045520Y045630D02*
Y046490D01*
X045356Y046654D02*
X045520Y046490D01*
X045020Y046654D02*
X045356D01*
X045810Y045840D02*
Y046520D01*
X045480Y046850D02*
X045810Y046520D01*
X045020Y046850D02*
X045480D01*
X031208Y024973D02*
Y025190D01*
X030224Y024973D02*
Y025150D01*
X031555Y025197D02*
X031559Y025193D01*
Y024984D02*
Y025193D01*
X031555Y024980D02*
X031562Y024973D01*
X031568Y024520D02*
Y024934D01*
X030578Y024973D02*
Y025150D01*
X030583Y024520D02*
Y024934D01*
X029291Y021122D02*
X029744D01*
X029035D02*
X029291D01*
X029803Y021260D02*
Y021614D01*
Y021260D02*
X029843Y021220D01*
X029744Y021122D02*
X029843Y021220D01*
X029154Y021594D02*
Y021772D01*
X029508Y021594D02*
Y021772D01*
X028800Y022060D02*
X028813Y022047D01*
X029134D01*
X029442Y022355D01*
X029993D01*
X029508Y021772D02*
X029783Y022047D01*
X030118D01*
X030188Y022117D01*
Y022353D02*
X030190Y022355D01*
X030188Y022117D02*
Y022353D01*
X030276Y021448D02*
X030778Y021951D01*
X030276Y020974D02*
Y021448D01*
X030778Y021951D02*
Y022353D01*
X030709Y021220D02*
X030751Y021263D01*
Y021538D01*
X030977Y021764D01*
Y022355D01*
X031260Y020531D02*
X031476D01*
X030768D02*
X031260D01*
X030709Y020591D02*
X030768Y020531D01*
X029793Y020591D02*
X029843D01*
X029291Y020768D02*
X029616D01*
X029793Y020591D01*
X029843D02*
X029892D01*
X030276Y020974D01*
X030778Y022353D02*
X030780Y022355D01*
X030709Y021220D02*
X030885Y021044D01*
X031102D01*
X031260Y020886D01*
X031282Y021282D02*
X031656D01*
X031272Y021272D02*
X031282Y021282D01*
X031272Y021643D02*
Y021972D01*
X031371Y022071D01*
Y022355D01*
X031570Y022100D02*
X031666Y022004D01*
Y021646D02*
Y022004D01*
X031568Y022355D02*
X031570Y022353D01*
Y022100D02*
Y022353D01*
X038780Y016700D02*
Y017451D01*
X039961Y016719D02*
Y017451D01*
X040551Y016709D02*
Y017451D01*
X041142Y016702D02*
Y017451D01*
X041732Y016702D02*
Y017451D01*
X033585Y047192D02*
X033639D01*
X033585Y046995D02*
X033639D01*
X033570Y046980D02*
X033585Y046995D01*
X033759Y046999D02*
X033817Y046940D01*
X033837Y047189D02*
X034007Y047019D01*
X033643Y047189D02*
X033837D01*
X033639Y046995D02*
X033643Y046999D01*
X033639Y047192D02*
X033643Y047189D01*
X033570Y047207D02*
X033585Y047192D01*
X033643Y046999D02*
X033759D01*
X032077Y045217D02*
Y046630D01*
X032267Y045138D02*
Y046709D01*
X031830Y046897D02*
X031845Y046882D01*
X031899D02*
X031903Y046879D01*
X031845Y046685D02*
X031899D01*
X031903Y046689D02*
X032019D01*
X032097Y046879D02*
X032267Y046709D01*
X031845Y046882D02*
X031899D01*
X031903Y046879D02*
X032097D01*
X032019Y046689D02*
X032077Y046630D01*
X031899Y046685D02*
X031903Y046689D01*
X031830Y046670D02*
X031845Y046685D01*
X033071Y019831D02*
Y020111D01*
Y020440D02*
Y020709D01*
X047996Y046952D02*
X048407D01*
X047992Y046949D02*
X047996Y046952D01*
X047992Y047146D02*
X047996Y047142D01*
X048407D01*
X047996Y047543D02*
X048687D01*
X047992Y047539D02*
X047996Y047543D01*
Y047733D02*
X048687D01*
X047992Y047736D02*
X047996Y047733D01*
X047992Y046555D02*
X047996Y046552D01*
X048570D02*
X048574Y046556D01*
X047996Y046552D02*
X048570D01*
X047992Y046358D02*
X047996Y046362D01*
X048570D01*
D19*
X024508Y018242D02*
Y019094D01*
Y018242D02*
X025625Y017125D01*
Y015616D02*
Y017125D01*
X024547Y022797D02*
X025553D01*
X022736Y020986D02*
X024547Y022797D01*
X022736Y018169D02*
Y020986D01*
X046476Y024213D02*
X046480Y024216D01*
X046766D01*
X046950Y024400D01*
X047143D01*
X047146Y024398D01*
X046476Y023583D02*
X046933D01*
X047146Y023796D02*
Y024028D01*
X046933Y023583D02*
X047146Y023796D01*
X026378Y030709D02*
X030691D01*
X032306Y029094D01*
X027900Y030500D02*
X030600D01*
X032250Y028850D01*
X037205Y026772D02*
Y027150D01*
X031988Y027362D02*
X036993D01*
X037205Y027150D01*
X032306Y029094D02*
X037087D01*
X032250Y028850D02*
X037095D01*
X032190Y028610D02*
X035860D01*
X026417Y030276D02*
X030524D01*
X032190Y028610D01*
X032110Y028390D02*
X035790D01*
X026220Y030079D02*
X030421D01*
X032110Y028390D01*
X037095Y028850D02*
X037520Y028425D01*
X037947Y022200D02*
X038200D01*
X037795Y021795D02*
X038021Y022021D01*
X038039D01*
X037598Y021851D02*
X037947Y022200D01*
X037795Y019587D02*
Y021795D01*
X037800Y022500D02*
X038000Y022700D01*
X037106Y019291D02*
Y021852D01*
X037754Y022500D01*
X037800D01*
X038043Y019634D02*
Y021695D01*
Y019634D02*
X039567Y018110D01*
X037598Y019488D02*
Y021851D01*
X021518Y039422D02*
Y040118D01*
X020950Y042100D02*
X021550D01*
X017800Y045250D02*
X020950Y042100D01*
X012300Y045250D02*
X017800D01*
X012216Y045334D02*
X012300Y045250D01*
X012206Y045525D02*
X012216Y045516D01*
Y045334D02*
Y045516D01*
X018025Y045525D02*
X021200Y042350D01*
X012797Y045525D02*
X018025D01*
X034705Y038622D02*
X038583D01*
X012957Y046700D02*
X013292Y047035D01*
X012700Y046700D02*
X012957D01*
X013292Y047035D02*
X013300D01*
X012600Y046450D02*
X012609Y046459D01*
Y046609D01*
X012700Y046700D01*
X033400Y029600D02*
X036850D01*
X026878Y035222D02*
Y042913D01*
Y035222D02*
X031950Y030150D01*
Y029984D02*
X032484Y029450D01*
X031950Y029984D02*
Y030150D01*
X032484Y029450D02*
X033250D01*
X033400Y029600D01*
X037520Y027984D02*
Y028425D01*
X036969Y027131D02*
X037047Y027053D01*
X036850Y027150D02*
X036869Y027131D01*
X036969D01*
X037047Y026772D02*
Y027053D01*
X047302Y024102D02*
X047400Y024200D01*
Y028750D01*
X047220Y024102D02*
X047302D01*
X047146Y024028D02*
X047220Y024102D01*
X050980Y026591D02*
Y028570D01*
X050400Y029150D02*
X050980Y028570D01*
X048700Y029150D02*
X050400D01*
X046223Y023316D02*
X046763D01*
X046949Y023130D01*
X046161Y024567D02*
X046437Y024843D01*
X046476D01*
X046161Y023377D02*
Y024567D01*
Y023377D02*
X046223Y023316D01*
X046949Y021642D02*
Y023130D01*
X026790Y020192D02*
Y023997D01*
X026772Y024016D02*
X026790Y023997D01*
X026303Y019705D02*
X026790Y020192D01*
X025118Y019705D02*
X026303D01*
X024508Y019094D02*
X025118Y019705D01*
X025635Y021535D02*
X025800Y021700D01*
X025236Y021535D02*
X025635D01*
X023398Y021134D02*
X024409Y022146D01*
X025591D01*
X025553Y022797D02*
X026102Y023346D01*
X025625Y015616D02*
X025844Y015396D01*
X026730D01*
X027079Y015047D01*
Y014665D02*
Y015047D01*
X035787Y027697D02*
X035827Y027657D01*
X035787Y027697D02*
Y027984D01*
X023070Y033623D02*
Y037870D01*
Y033623D02*
X026417Y030276D01*
X022770Y033529D02*
Y037790D01*
Y033529D02*
X026220Y030079D01*
X033740Y039587D02*
X034705Y038622D01*
X035366Y023465D02*
X035551D01*
X035368Y023213D02*
X035433Y023147D01*
X035368Y023213D02*
Y023463D01*
X035366Y023465D02*
X035368Y023463D01*
X035433Y022823D02*
Y023147D01*
X035164Y023465D02*
X035366D01*
X034961Y022823D02*
X035433D01*
X034961Y022823D02*
X034961Y022823D01*
X035433D02*
X035433Y022823D01*
X035551Y023465D02*
X035630Y023543D01*
Y023898D01*
X035651Y023919D01*
X035433Y024882D02*
X035651Y024664D01*
Y023919D02*
Y024664D01*
X035423Y030955D02*
X035433Y030945D01*
X033691Y030955D02*
X035423D01*
X029685Y034961D02*
X033691Y030955D01*
X029685Y034961D02*
Y039911D01*
X029803Y040029D01*
Y040126D01*
X033898Y039724D02*
X034685Y038937D01*
X037756D01*
X022244Y033563D02*
Y037945D01*
X021607Y038583D02*
X022244Y037945D01*
X021018Y038031D02*
Y038491D01*
X021110Y038583D01*
X021607D01*
X022244Y033563D02*
X025591Y030217D01*
X023398Y020787D02*
Y021134D01*
Y020402D02*
Y020787D01*
Y020402D02*
X023406Y020394D01*
X023760D02*
X023768Y020386D01*
Y020000D02*
Y020386D01*
X023760Y020394D02*
X024047Y020681D01*
X024536D01*
X024996Y020516D02*
Y021295D01*
X025236Y021535D01*
X025205Y020307D02*
X025442D01*
X024996Y020516D02*
X025205Y020307D01*
X019882Y037106D02*
X020018Y037242D01*
Y038031D01*
X020518Y037612D02*
X020866Y037264D01*
X020518Y037612D02*
Y038031D01*
X020866Y037106D02*
Y037264D01*
X021518Y039422D02*
X023070Y037870D01*
X021018Y039542D02*
Y040118D01*
Y039542D02*
X022770Y037790D01*
X035860Y028610D02*
X036102Y028368D01*
Y027984D02*
Y028368D01*
X035790Y028390D02*
X035945Y028235D01*
Y027984D02*
Y028235D01*
X049673Y046110D02*
X049680Y046117D01*
X049673Y045630D02*
Y046110D01*
X049303Y045197D02*
Y045630D01*
X046732Y045079D02*
X047283Y045630D01*
X049303D01*
X045020Y045079D02*
X046732D01*
X031378Y026483D02*
Y026772D01*
X031299Y026378D02*
Y026404D01*
X031378Y026483D01*
X030300Y026920D02*
Y027080D01*
X030340Y027120D01*
X037205Y026772D02*
X037205Y026772D01*
X037520D02*
Y027119D01*
X037500Y027139D02*
X037520Y027119D01*
X037500Y027139D02*
Y027165D01*
X033740Y039587D02*
Y040126D01*
X022362Y016516D02*
X022453Y016425D01*
X022362Y016516D02*
Y017264D01*
X022453Y014665D02*
Y016425D01*
X031220Y027260D02*
X031310Y027350D01*
X031220Y026772D02*
Y027260D01*
X031063Y026772D02*
Y027523D01*
X037106Y019291D02*
X038386Y018012D01*
Y017451D02*
Y018012D01*
X037598Y019488D02*
X038976Y018110D01*
Y017451D02*
Y018110D01*
X037795Y019587D02*
X039173Y018209D01*
Y017451D02*
Y018209D01*
X039567Y017451D02*
Y018110D01*
X033898Y039724D02*
Y040126D01*
X030276Y026896D02*
X030300Y026920D01*
X030276Y026772D02*
Y026896D01*
D20*
X032854Y023504D02*
X033051D01*
X028430Y023228D02*
Y023430D01*
X028457Y022047D02*
Y022433D01*
Y022449D02*
X028465Y022441D01*
X028457Y022449D02*
Y022835D01*
Y022433D02*
X028465Y022441D01*
X028440Y023440D02*
X028442Y023442D01*
X028430Y023430D02*
X028440Y023440D01*
X028442Y023442D02*
Y023635D01*
D33*
X021260Y033504D02*
D03*
Y034213D02*
D03*
X043898Y037835D02*
D03*
Y038543D02*
D03*
X043110Y042756D02*
D03*
Y043465D02*
D03*
X044094Y042756D02*
D03*
Y043465D02*
D03*
D34*
X047146Y024028D02*
D03*
Y024398D02*
D03*
X024000Y017215D02*
D03*
Y017585D02*
D03*
X013300Y047035D02*
D03*
Y046665D02*
D03*
X024400Y017215D02*
D03*
Y017585D02*
D03*
X035433Y022823D02*
D03*
Y022453D02*
D03*
X034961Y022453D02*
D03*
Y022823D02*
D03*
X044980Y029047D02*
D03*
Y029417D02*
D03*
X045374Y029047D02*
D03*
Y029417D02*
D03*
X047736Y021272D02*
D03*
Y021642D02*
D03*
X047343D02*
D03*
Y021272D02*
D03*
X027362Y017902D02*
D03*
Y017531D02*
D03*
X031272Y021643D02*
D03*
Y021272D02*
D03*
X046949Y021642D02*
D03*
Y021272D02*
D03*
X042815Y022858D02*
D03*
Y023228D02*
D03*
X049016Y017138D02*
D03*
Y017508D02*
D03*
X021260Y027941D02*
D03*
Y027571D02*
D03*
X015453Y026858D02*
D03*
Y026488D02*
D03*
D35*
X012984Y023583D02*
D03*
X013984D02*
D03*
Y021299D02*
D03*
X012984D02*
D03*
X012886Y017559D02*
D03*
X013886D02*
D03*
Y019843D02*
D03*
X012886D02*
D03*
D36*
X036575Y023681D02*
D03*
D37*
Y023307D02*
D03*
Y022933D02*
D03*
X037500D02*
D03*
Y023681D02*
D03*
D38*
X013300Y045923D02*
D03*
Y046277D02*
D03*
X026240Y020689D02*
D03*
Y021043D02*
D03*
X044488Y038209D02*
D03*
Y038563D02*
D03*
Y029055D02*
D03*
Y029409D02*
D03*
X044094Y029055D02*
D03*
Y029409D02*
D03*
X031666Y021292D02*
D03*
Y021646D02*
D03*
X031260Y020886D02*
D03*
Y020531D02*
D03*
X029291Y020768D02*
D03*
Y021122D02*
D03*
X049409Y017500D02*
D03*
Y017146D02*
D03*
X015059Y026850D02*
D03*
Y026496D02*
D03*
X015846Y026850D02*
D03*
Y026496D02*
D03*
X044882Y042933D02*
D03*
Y043287D02*
D03*
X044291Y052539D02*
D03*
Y052185D02*
D03*
X043898Y052539D02*
D03*
Y052185D02*
D03*
D39*
X050321Y033070D02*
D03*
X049179D02*
D03*
D40*
X049750Y033700D02*
D03*
D41*
X033576Y023465D02*
D03*
Y023661D02*
D03*
Y023858D02*
D03*
Y024055D02*
D03*
Y024252D02*
D03*
X035164D02*
D03*
Y024055D02*
D03*
Y023858D02*
D03*
Y023661D02*
D03*
D42*
Y023465D02*
D03*
D43*
X042026Y042415D02*
D03*
X041652D02*
D03*
X041278D02*
D03*
Y043439D02*
D03*
X041652D02*
D03*
X042026D02*
D03*
D44*
X023406Y020394D02*
D03*
X023760D02*
D03*
X028465Y022441D02*
D03*
X028819D02*
D03*
X020335Y040748D02*
D03*
X019980D02*
D03*
X039547Y023720D02*
D03*
X039193D02*
D03*
X031208Y024973D02*
D03*
X031562D02*
D03*
X032854Y023504D02*
D03*
X032500D02*
D03*
X030224Y024973D02*
D03*
X030578D02*
D03*
X029154Y021772D02*
D03*
X029508D02*
D03*
X022524Y021358D02*
D03*
X022170D02*
D03*
X022524Y021850D02*
D03*
X022170D02*
D03*
D45*
X023768Y020000D02*
D03*
X023398D02*
D03*
X049673Y045630D02*
D03*
X049303D02*
D03*
X027079Y014665D02*
D03*
X027449D02*
D03*
X022453D02*
D03*
X022823D02*
D03*
X023398Y020787D02*
D03*
X023768D02*
D03*
X049673Y045197D02*
D03*
X049303D02*
D03*
X028457Y023228D02*
D03*
X028827D02*
D03*
X028457Y022835D02*
D03*
X028827D02*
D03*
X028457Y022047D02*
D03*
X028827D02*
D03*
X028442Y023635D02*
D03*
X028812D02*
D03*
X049673Y044724D02*
D03*
X049303D02*
D03*
D46*
X026890Y014059D02*
D03*
X027441D02*
D03*
X022264D02*
D03*
X022815D02*
D03*
D47*
X023110Y017264D02*
D03*
X022362D02*
D03*
Y018169D02*
D03*
X022736D02*
D03*
D48*
X023110D02*
D03*
D49*
X025442Y021055D02*
D03*
Y020307D02*
D03*
X024536D02*
D03*
Y020681D02*
D03*
D50*
Y021055D02*
D03*
D51*
X029803Y026772D02*
D03*
Y027984D02*
D03*
X029961Y026772D02*
D03*
Y027984D02*
D03*
X030118Y026772D02*
D03*
Y027984D02*
D03*
X030276Y026772D02*
D03*
Y027984D02*
D03*
X030433Y026772D02*
D03*
Y027984D02*
D03*
X030591Y026772D02*
D03*
Y027984D02*
D03*
X030748Y026772D02*
D03*
Y027984D02*
D03*
X030906Y026772D02*
D03*
Y027984D02*
D03*
X031063Y026772D02*
D03*
Y027984D02*
D03*
X031220Y026772D02*
D03*
Y027984D02*
D03*
X031378Y026772D02*
D03*
Y027984D02*
D03*
X031535Y026772D02*
D03*
Y027984D02*
D03*
X031693Y026772D02*
D03*
Y027984D02*
D03*
X031850Y026772D02*
D03*
Y027984D02*
D03*
X032008Y026772D02*
D03*
Y027984D02*
D03*
X032165Y026772D02*
D03*
Y027984D02*
D03*
X032323Y026772D02*
D03*
Y027984D02*
D03*
X032480Y026772D02*
D03*
Y027984D02*
D03*
X032638Y026772D02*
D03*
Y027984D02*
D03*
X032795Y026772D02*
D03*
Y027984D02*
D03*
X032953Y026772D02*
D03*
Y027984D02*
D03*
X033110Y026772D02*
D03*
Y027984D02*
D03*
X033268Y026772D02*
D03*
Y027984D02*
D03*
X033425Y026772D02*
D03*
Y027984D02*
D03*
X033583Y026772D02*
D03*
Y027984D02*
D03*
X033740Y026772D02*
D03*
Y027984D02*
D03*
X033898Y026772D02*
D03*
Y027984D02*
D03*
X034055Y026772D02*
D03*
Y027984D02*
D03*
X034213Y026772D02*
D03*
Y027984D02*
D03*
X034370Y026772D02*
D03*
Y027984D02*
D03*
X034528Y026772D02*
D03*
Y027984D02*
D03*
X034685Y026772D02*
D03*
Y027984D02*
D03*
X034843Y026772D02*
D03*
Y027984D02*
D03*
X035000Y026772D02*
D03*
Y027984D02*
D03*
X035157Y026772D02*
D03*
Y027984D02*
D03*
X035315Y026772D02*
D03*
Y027984D02*
D03*
X035472Y026772D02*
D03*
Y027984D02*
D03*
X035630Y026772D02*
D03*
Y027984D02*
D03*
X035787Y026772D02*
D03*
Y027984D02*
D03*
X035945Y026772D02*
D03*
Y027984D02*
D03*
X036102Y026772D02*
D03*
Y027984D02*
D03*
X036260Y026772D02*
D03*
Y027984D02*
D03*
X036417Y026772D02*
D03*
Y027984D02*
D03*
X036575Y026772D02*
D03*
Y027984D02*
D03*
X036732Y026772D02*
D03*
Y027984D02*
D03*
X036890Y026772D02*
D03*
Y027984D02*
D03*
X037047Y026772D02*
D03*
Y027984D02*
D03*
X037205Y026772D02*
D03*
Y027984D02*
D03*
X037362Y026772D02*
D03*
Y027984D02*
D03*
X037520Y026772D02*
D03*
Y027984D02*
D03*
X029803Y040126D02*
D03*
Y041339D02*
D03*
X029961Y040126D02*
D03*
Y041339D02*
D03*
X030118Y040126D02*
D03*
Y041339D02*
D03*
X030276Y040126D02*
D03*
Y041339D02*
D03*
X030433Y040126D02*
D03*
Y041339D02*
D03*
X030591Y040126D02*
D03*
Y041339D02*
D03*
X030748Y040126D02*
D03*
Y041339D02*
D03*
X030906Y040126D02*
D03*
Y041339D02*
D03*
X031063Y040126D02*
D03*
Y041339D02*
D03*
X031220Y040126D02*
D03*
Y041339D02*
D03*
X031378Y040126D02*
D03*
Y041339D02*
D03*
X031535Y040126D02*
D03*
Y041339D02*
D03*
X031693Y040126D02*
D03*
Y041339D02*
D03*
X031850Y040126D02*
D03*
Y041339D02*
D03*
X032008Y040126D02*
D03*
Y041339D02*
D03*
X032165Y040126D02*
D03*
Y041339D02*
D03*
X032323Y040126D02*
D03*
Y041339D02*
D03*
X032480Y040126D02*
D03*
Y041339D02*
D03*
X032638Y040126D02*
D03*
Y041339D02*
D03*
X032795Y040126D02*
D03*
Y041339D02*
D03*
X032953Y040126D02*
D03*
Y041339D02*
D03*
X033110Y040126D02*
D03*
Y041339D02*
D03*
X033268Y040126D02*
D03*
Y041339D02*
D03*
X033425Y040126D02*
D03*
Y041339D02*
D03*
X033583Y040126D02*
D03*
Y041339D02*
D03*
X033740Y040126D02*
D03*
Y041339D02*
D03*
X033898Y040126D02*
D03*
Y041339D02*
D03*
X034055Y040126D02*
D03*
Y041339D02*
D03*
X034213Y040126D02*
D03*
Y041339D02*
D03*
X034370Y040126D02*
D03*
Y041339D02*
D03*
X034528Y040126D02*
D03*
Y041339D02*
D03*
X034685Y040126D02*
D03*
Y041339D02*
D03*
X034843Y040126D02*
D03*
Y041339D02*
D03*
X035000Y040126D02*
D03*
Y041339D02*
D03*
X035157Y040126D02*
D03*
Y041339D02*
D03*
X035315Y040126D02*
D03*
Y041339D02*
D03*
X035472Y040126D02*
D03*
Y041339D02*
D03*
X035630Y040126D02*
D03*
Y041339D02*
D03*
X035787Y040126D02*
D03*
Y041339D02*
D03*
X035945Y040126D02*
D03*
Y041339D02*
D03*
X036102Y040126D02*
D03*
Y041339D02*
D03*
X036260Y040126D02*
D03*
Y041339D02*
D03*
X036417Y040126D02*
D03*
Y041339D02*
D03*
X036575Y040126D02*
D03*
Y041339D02*
D03*
X036732Y040126D02*
D03*
Y041339D02*
D03*
X036890Y040126D02*
D03*
Y041339D02*
D03*
X037047Y040126D02*
D03*
Y041339D02*
D03*
X037205Y040126D02*
D03*
Y041339D02*
D03*
X037362Y040126D02*
D03*
Y041339D02*
D03*
X037520Y040126D02*
D03*
Y041339D02*
D03*
D52*
X021260Y035630D02*
D03*
X018898D02*
D03*
D53*
X013811Y033760D02*
D03*
X012811D02*
D03*
Y028248D02*
D03*
X013811D02*
D03*
X019193D02*
D03*
X020193D02*
D03*
X019193Y033760D02*
D03*
X020193D02*
D03*
D54*
X020866Y037106D02*
D03*
X019882D02*
D03*
D55*
X050320Y046117D02*
D03*
X049680D02*
D03*
Y046599D02*
D03*
X050320D02*
D03*
D56*
X024049Y024114D02*
D03*
Y023917D02*
D03*
Y023524D02*
D03*
Y023327D02*
D03*
X023720D02*
D03*
Y023524D02*
D03*
Y023917D02*
D03*
Y024114D02*
D03*
X023753Y025591D02*
D03*
Y025394D02*
D03*
Y025000D02*
D03*
Y024803D02*
D03*
X024082D02*
D03*
Y025000D02*
D03*
Y025394D02*
D03*
Y025591D02*
D03*
D57*
X038386Y017451D02*
D03*
X038583D02*
D03*
X038780D02*
D03*
X038976D02*
D03*
X039173D02*
D03*
X039370D02*
D03*
X039567D02*
D03*
X039764D02*
D03*
X039961D02*
D03*
X040157D02*
D03*
X040354D02*
D03*
X040551D02*
D03*
X040748D02*
D03*
X040945D02*
D03*
X041142D02*
D03*
X041339D02*
D03*
X041535D02*
D03*
X041732D02*
D03*
X041929D02*
D03*
D58*
X040167Y020694D02*
D03*
X039911D02*
D03*
X039656D02*
D03*
X039400D02*
D03*
X039144D02*
D03*
X038888D02*
D03*
X038632D02*
D03*
X038376D02*
D03*
Y023007D02*
D03*
X038632D02*
D03*
X038888D02*
D03*
X039144D02*
D03*
X039400D02*
D03*
X039656D02*
D03*
X039911D02*
D03*
X040167D02*
D03*
D59*
X020491Y041372D02*
D03*
X021260Y041732D02*
D03*
D60*
Y041012D02*
D03*
D61*
X015354Y034848D02*
D03*
Y043498D02*
D03*
D62*
X045571Y030118D02*
D03*
X044586D02*
D03*
X045571Y031102D02*
D03*
X044586D02*
D03*
D63*
X044783Y031220D02*
D03*
X044980D02*
D03*
X045177D02*
D03*
X045374D02*
D03*
Y030000D02*
D03*
X045177D02*
D03*
X044980D02*
D03*
X044783D02*
D03*
D64*
X045689Y030905D02*
D03*
Y030709D02*
D03*
Y030512D02*
D03*
Y030315D02*
D03*
X044468D02*
D03*
Y030512D02*
D03*
Y030709D02*
D03*
Y030905D02*
D03*
D65*
X012402Y026772D02*
D03*
Y026181D02*
D03*
Y025591D02*
D03*
Y025000D02*
D03*
X026831Y017323D02*
D03*
D66*
X043976Y019488D02*
D03*
X045591D02*
D03*
D67*
X013386Y026569D02*
D03*
Y025006D02*
D03*
D68*
X017618Y027657D02*
D03*
X017028D02*
D03*
X016339D02*
D03*
X015748D02*
D03*
D69*
X045394Y036181D02*
D03*
Y036654D02*
D03*
Y037126D02*
D03*
Y037598D02*
D03*
Y038071D02*
D03*
Y038543D02*
D03*
Y039016D02*
D03*
D70*
X050669Y035374D02*
D03*
X050197D02*
D03*
X049724D02*
D03*
X049252D02*
D03*
X048780D02*
D03*
X048307D02*
D03*
X047835D02*
D03*
X047362D02*
D03*
X046890D02*
D03*
X046417D02*
D03*
X045945D02*
D03*
X045472D02*
D03*
Y039823D02*
D03*
X045945D02*
D03*
X046417D02*
D03*
X046890D02*
D03*
X047362D02*
D03*
X047835D02*
D03*
X048307D02*
D03*
X048780D02*
D03*
X049252D02*
D03*
X049724D02*
D03*
X050197D02*
D03*
X050669D02*
D03*
D71*
X049055Y028543D02*
D03*
X049764D02*
D03*
X047795Y027756D02*
D03*
X047087D02*
D03*
X049055D02*
D03*
X049764D02*
D03*
X047795Y026969D02*
D03*
X047087D02*
D03*
X049055D02*
D03*
X049764D02*
D03*
X028189Y015827D02*
D03*
X028898D02*
D03*
X028189Y015039D02*
D03*
X028898D02*
D03*
X028701Y019331D02*
D03*
X027992D02*
D03*
D72*
X050748Y021457D02*
D03*
X050039D02*
D03*
X048661D02*
D03*
X049370D02*
D03*
X044724Y020669D02*
D03*
X045433D02*
D03*
X044743Y021442D02*
D03*
X045451D02*
D03*
X042559Y052362D02*
D03*
X043268D02*
D03*
D73*
X049803Y024724D02*
D03*
X049213D02*
D03*
X048622D02*
D03*
Y024213D02*
D03*
X049213D02*
D03*
X049803D02*
D03*
X049213Y023701D02*
D03*
X048622D02*
D03*
X045669Y024724D02*
D03*
X045079D02*
D03*
X044488D02*
D03*
Y024213D02*
D03*
X045079D02*
D03*
X045669D02*
D03*
X045079Y023701D02*
D03*
X044488D02*
D03*
D74*
X049785Y023715D02*
D03*
X045651D02*
D03*
D75*
X048839Y022500D02*
D03*
X048327D02*
D03*
X047815D02*
D03*
X048839Y022972D02*
D03*
X048327D02*
D03*
X047815D02*
D03*
Y025925D02*
D03*
X048327D02*
D03*
X048839D02*
D03*
X047815Y025453D02*
D03*
X048327D02*
D03*
X048839D02*
D03*
X049587D02*
D03*
X050098D02*
D03*
X050610D02*
D03*
X049587Y025925D02*
D03*
X050098D02*
D03*
X050610D02*
D03*
X049587Y022972D02*
D03*
X050098D02*
D03*
X050610D02*
D03*
X049587Y022500D02*
D03*
X050098D02*
D03*
X050610D02*
D03*
X044705D02*
D03*
X044193D02*
D03*
X043681D02*
D03*
X044705Y022972D02*
D03*
X044193D02*
D03*
X043681D02*
D03*
Y025925D02*
D03*
X044193D02*
D03*
X044705D02*
D03*
X043681Y025453D02*
D03*
X044193D02*
D03*
X044705D02*
D03*
X045453D02*
D03*
X045965D02*
D03*
X046476D02*
D03*
X045453Y025925D02*
D03*
X045965D02*
D03*
X046476D02*
D03*
X045453Y022972D02*
D03*
X045965D02*
D03*
X046476D02*
D03*
X045453Y022500D02*
D03*
X045965D02*
D03*
X046476D02*
D03*
D76*
X047815Y023583D02*
D03*
Y024213D02*
D03*
Y024843D02*
D03*
X050610D02*
D03*
Y024213D02*
D03*
Y023583D02*
D03*
X043681D02*
D03*
Y024213D02*
D03*
Y024843D02*
D03*
X046476D02*
D03*
Y024213D02*
D03*
Y023583D02*
D03*
D77*
X025453Y018563D02*
D03*
X025138D02*
D03*
X025453Y019232D02*
D03*
X025138D02*
D03*
D78*
X025925Y017244D02*
D03*
Y017992D02*
D03*
X026831D02*
D03*
D79*
X028858Y016732D02*
D03*
X027835D02*
D03*
D80*
X028720Y017638D02*
D03*
X028346D02*
D03*
X027972D02*
D03*
Y018583D02*
D03*
X028346D02*
D03*
X028720D02*
D03*
D81*
X030709Y020591D02*
D03*
X029843D02*
D03*
Y021220D02*
D03*
X030709D02*
D03*
D82*
X050000Y017500D02*
D03*
Y016752D02*
D03*
X050787Y017126D02*
D03*
D83*
X044685Y026909D02*
D03*
Y027618D02*
D03*
X043898Y026909D02*
D03*
Y027618D02*
D03*
X042618Y024862D02*
D03*
Y024154D02*
D03*
X041043Y024862D02*
D03*
Y024154D02*
D03*
X041831Y024862D02*
D03*
Y024154D02*
D03*
D84*
X020018Y040118D02*
D03*
X020518D02*
D03*
X021018D02*
D03*
X021518D02*
D03*
Y038031D02*
D03*
X021018D02*
D03*
X020518D02*
D03*
X020018D02*
D03*
D85*
X050000Y018150D02*
D03*
Y018406D02*
D03*
Y018661D02*
D03*
Y018917D02*
D03*
D86*
X048787D02*
D03*
Y018661D02*
D03*
Y018406D02*
D03*
Y018150D02*
D03*
D87*
X049230Y018533D02*
D03*
D88*
X033465Y020440D02*
D03*
X033268D02*
D03*
X032874D02*
D03*
X032677D02*
D03*
Y020111D02*
D03*
X032874D02*
D03*
X033268D02*
D03*
X033465D02*
D03*
D89*
X031863Y022650D02*
D03*
Y022847D02*
D03*
Y023044D02*
D03*
Y023241D02*
D03*
Y023438D02*
D03*
Y023635D02*
D03*
Y023832D02*
D03*
Y024028D02*
D03*
Y024225D02*
D03*
X029698D02*
D03*
Y024028D02*
D03*
Y023832D02*
D03*
Y023635D02*
D03*
Y023438D02*
D03*
Y023241D02*
D03*
Y023044D02*
D03*
Y022847D02*
D03*
Y022650D02*
D03*
D90*
X031568Y024520D02*
D03*
X031371D02*
D03*
X031174D02*
D03*
X030977D02*
D03*
X030780D02*
D03*
X030583D02*
D03*
X030387D02*
D03*
X030190D02*
D03*
X029993D02*
D03*
Y022355D02*
D03*
X030190D02*
D03*
X030387D02*
D03*
X030583D02*
D03*
X030780D02*
D03*
X030977D02*
D03*
X031174D02*
D03*
X031371D02*
D03*
X031568D02*
D03*
D91*
X030780Y023438D02*
D03*
D92*
X045020Y044488D02*
D03*
Y044685D02*
D03*
Y044882D02*
D03*
Y045079D02*
D03*
Y046063D02*
D03*
Y046260D02*
D03*
Y046457D02*
D03*
Y046654D02*
D03*
Y046850D02*
D03*
Y047047D02*
D03*
Y047244D02*
D03*
Y047441D02*
D03*
Y047638D02*
D03*
Y047835D02*
D03*
Y048032D02*
D03*
Y048228D02*
D03*
Y048425D02*
D03*
Y048622D02*
D03*
Y048819D02*
D03*
Y049016D02*
D03*
Y049213D02*
D03*
Y049409D02*
D03*
Y049606D02*
D03*
Y049803D02*
D03*
Y050000D02*
D03*
Y050197D02*
D03*
Y050394D02*
D03*
Y050591D02*
D03*
Y050787D02*
D03*
Y050984D02*
D03*
Y051181D02*
D03*
Y051378D02*
D03*
Y051575D02*
D03*
X047992Y044390D02*
D03*
Y044587D02*
D03*
Y044783D02*
D03*
Y044980D02*
D03*
Y045177D02*
D03*
Y046161D02*
D03*
Y046358D02*
D03*
Y046555D02*
D03*
Y046752D02*
D03*
Y046949D02*
D03*
Y047146D02*
D03*
Y047343D02*
D03*
Y047539D02*
D03*
Y047736D02*
D03*
Y047933D02*
D03*
Y048130D02*
D03*
Y048327D02*
D03*
Y048524D02*
D03*
Y048720D02*
D03*
Y048917D02*
D03*
Y049114D02*
D03*
Y049311D02*
D03*
Y049508D02*
D03*
Y049705D02*
D03*
Y049902D02*
D03*
Y050098D02*
D03*
Y050295D02*
D03*
Y050492D02*
D03*
Y050689D02*
D03*
Y050886D02*
D03*
Y051083D02*
D03*
Y051280D02*
D03*
Y051476D02*
D03*
Y051673D02*
D03*
D93*
X047687Y043957D02*
D03*
Y052106D02*
D03*
D102*
X012502Y045987D02*
D03*
D115*
X015354Y039173D02*
D03*
D116*
X045079Y030610D02*
D03*
D156*
X025878Y042913D02*
D03*
X045915Y044094D02*
D03*
D157*
Y051968D02*
D03*
D158*
X012206Y046450D02*
D03*
X012403D02*
D03*
X012600D02*
D03*
X012797D02*
D03*
Y045525D02*
D03*
X012600D02*
D03*
X012403D02*
D03*
X012206D02*
D03*
D159*
X024049Y023720D02*
D03*
X023720D02*
D03*
X023753Y025197D02*
D03*
X024082D02*
D03*
D160*
X033071Y020440D02*
D03*
Y020111D02*
D03*
D161*
X012350Y020404D02*
Y022837D01*
Y020404D02*
X012767Y019987D01*
X012350Y022837D02*
X012952Y023438D01*
X018913Y027657D02*
X018916Y027661D01*
X019147D02*
X019193Y027707D01*
Y028248D01*
X018916Y027661D02*
X019147D01*
X017618Y027657D02*
X018913D01*
X013750Y024956D02*
X013992Y024714D01*
X013984Y023148D02*
Y023583D01*
X013976Y022933D02*
Y023137D01*
X013992Y023727D02*
Y024714D01*
X013386Y025006D02*
X013436Y024956D01*
X013750D01*
X013484Y024194D02*
Y024506D01*
X012984Y023583D02*
Y023694D01*
X013484Y024194D01*
X012402Y025000D02*
X013380D01*
X013386Y025006D01*
X012767Y019987D02*
X012853D01*
X013878Y019850D02*
Y020472D01*
Y019850D02*
X013886Y019843D01*
X013386Y026569D02*
X014234D01*
X014468Y026803D01*
Y027165D02*
X014961Y027657D01*
X014468Y026803D02*
Y027165D01*
X012886Y019843D02*
Y019954D01*
X012853Y019987D02*
X012886Y019954D01*
X013017Y021542D02*
X013620Y022146D01*
X013017Y021332D02*
Y021542D01*
X013620Y022146D02*
X016043D01*
X013968Y021106D02*
Y021283D01*
Y021106D02*
X014550Y020523D01*
X016043Y022146D02*
X017666Y020523D01*
X020310D01*
X014550D02*
X015910D01*
X012886Y018065D02*
X013226Y018406D01*
X012886Y017559D02*
Y018065D01*
X013886Y017559D02*
Y017671D01*
X014424Y018209D01*
X014961D01*
X016675Y019923D01*
X020310D01*
X013226Y018406D02*
X013583D01*
X013976Y018799D01*
X014787D01*
X015910Y019923D01*
X012402Y025591D02*
Y026181D01*
Y026772D02*
X012765Y027135D01*
Y028202D01*
X012811Y028248D01*
X013811D01*
X014961Y027657D02*
X015748D01*
X016339D02*
X017028D01*
X019193Y028248D02*
X020193D01*
D162*
X021250Y027951D02*
Y028150D01*
Y027951D02*
X021260Y027941D01*
X023221Y017598D02*
X023505D01*
X023622Y017716D01*
Y017992D01*
X050350Y032500D02*
Y033067D01*
X050354Y033071D01*
X049252Y033110D02*
Y034980D01*
X049213Y033071D02*
X049250Y033033D01*
Y032500D02*
Y033033D01*
X021260Y041012D02*
Y041260D01*
X013322Y045901D02*
X013499D01*
X013311Y045911D02*
X013322Y045901D01*
X013499D02*
X013500Y045900D01*
X046358Y029134D02*
X048130D01*
X045669Y028445D02*
X046358Y029134D01*
X025950Y020700D02*
X026229D01*
X026240Y020689D01*
X024529Y020300D02*
X024536Y020307D01*
X024100Y020300D02*
X024529D01*
X022544Y021378D02*
X022741D01*
X022524Y021850D02*
X022741D01*
X050354Y033071D02*
Y034094D01*
X050197Y034252D02*
X050354Y034094D01*
X050197Y034252D02*
Y034764D01*
X049213Y033071D02*
X049252Y033110D01*
X027870Y016434D02*
Y016627D01*
X028000Y016039D02*
X028046D01*
X028340Y018370D02*
Y018587D01*
X028046Y016039D02*
X028117Y015968D01*
X042953Y042480D02*
Y042697D01*
X039547Y023720D02*
X039733D01*
X049313Y024792D02*
Y025028D01*
X021536Y037664D02*
Y038013D01*
Y037664D02*
X021540Y037660D01*
X050354Y025925D02*
X050610D01*
X050098D02*
X050354D01*
X050098Y025453D02*
X050610D01*
X049587D02*
X050098D01*
X049843Y025925D02*
X050098D01*
X049587D02*
X049843D01*
X045965D02*
X046476D01*
X045965Y025453D02*
X046476D01*
X045453D02*
X045965D01*
X045453D02*
X045453D01*
Y025925D01*
Y025453D02*
Y025453D01*
Y025925D02*
X045965D01*
X050610Y025669D02*
Y025925D01*
Y025453D02*
Y025669D01*
Y025413D02*
Y025453D01*
X049587Y025669D02*
Y025925D01*
Y025453D02*
Y025669D01*
Y025413D02*
Y025453D01*
X050098Y025669D02*
Y025925D01*
Y025453D02*
Y025669D01*
Y025413D02*
Y025453D01*
X049803Y024488D02*
Y024606D01*
Y024094D02*
Y024488D01*
X049803Y023957D02*
Y024213D01*
Y023701D02*
Y023957D01*
X049213Y024705D02*
X049724D01*
X048720D02*
X049213D01*
X046476Y025925D02*
Y025965D01*
Y025453D02*
Y025925D01*
X049213Y024705D02*
Y024724D01*
Y024469D02*
Y024705D01*
Y024213D02*
Y024469D01*
Y024213D02*
X049724D01*
X049213Y023937D02*
Y024114D01*
Y023701D02*
Y023937D01*
Y023602D02*
Y023701D01*
X048878Y024213D02*
X049134D01*
X048622D02*
X048878D01*
X048622Y024469D02*
Y024724D01*
Y024213D02*
Y024469D01*
Y023937D02*
Y024114D01*
Y023701D02*
Y023937D01*
Y023602D02*
Y023701D01*
X049213D02*
X049724D01*
X048878D02*
X049134D01*
X048622D02*
X048878D01*
X048839Y022717D02*
Y022972D01*
Y022500D02*
Y022717D01*
Y022461D02*
Y022500D01*
X048583Y022972D02*
X048839D01*
X048327D02*
X048583D01*
Y022500D02*
X048839D01*
X048327D02*
X048583D01*
X047815Y022717D02*
Y022972D01*
Y022500D02*
Y022717D01*
Y022461D02*
Y022500D01*
X048071Y022972D02*
X048327D01*
X047815D02*
X048071D01*
Y022500D02*
X048327D01*
X047815D02*
X048071D01*
X048327Y022717D02*
Y022972D01*
Y022500D02*
Y022717D01*
Y022461D02*
Y022500D01*
X045965Y025925D02*
Y025965D01*
Y025709D02*
Y025925D01*
Y025453D02*
Y025709D01*
Y025453D02*
Y025453D01*
X045335Y024724D02*
Y025236D01*
Y024724D02*
X045591D01*
X045079D02*
X045335D01*
X045669Y024469D02*
Y024724D01*
Y024213D02*
Y024469D01*
X045651Y023971D02*
Y024227D01*
Y023715D02*
Y023971D01*
X045079Y024469D02*
Y024724D01*
Y024213D02*
Y024469D01*
Y024213D02*
X045591D01*
X045079Y023957D02*
Y024213D01*
Y023701D02*
Y023957D01*
Y023701D02*
Y023701D01*
X044783Y024705D02*
X044902D01*
X044478D02*
X044783D01*
X044390D02*
X044478D01*
X044488Y024213D02*
X045000D01*
X044478Y024705D02*
Y024746D01*
Y024490D02*
Y024705D01*
Y024234D02*
Y024490D01*
X044488Y023801D02*
Y024313D01*
X045356Y023701D02*
X045612D01*
X045079D02*
X045356D01*
X044588D02*
X045079D01*
X044193Y022972D02*
X044705D01*
X044193D02*
Y023051D01*
Y022539D02*
Y022972D01*
X044705D02*
Y023012D01*
Y022500D02*
Y022972D01*
X043681D02*
X044193D01*
Y022500D02*
X044605D01*
X043681D02*
X044193D01*
X043581D02*
X043681D01*
Y022972D02*
Y023012D01*
Y022500D02*
Y022972D01*
X027360Y017893D02*
Y018110D01*
X015354Y043498D02*
X018411D01*
X015360Y034843D02*
X016535D01*
X015354Y034848D02*
X015360Y034843D01*
X023110Y017487D02*
X023221Y017598D01*
X023110Y017264D02*
Y017487D01*
X021850Y016890D02*
Y019134D01*
Y016890D02*
X022047Y016693D01*
Y014606D02*
Y016693D01*
Y014606D02*
X022282Y014372D01*
Y014077D02*
Y014372D01*
X026890Y014059D02*
X026890Y014059D01*
X022264Y014059D02*
X022282Y014077D01*
X021417Y033209D02*
Y033425D01*
X021102Y033209D02*
Y033425D01*
X021378Y033504D02*
X021594D01*
X020886D02*
X021102D01*
X013937Y033150D02*
X014154D01*
X013937Y033504D02*
X014154D01*
X013937Y033819D02*
X014154D01*
X013937Y034134D02*
X014154D01*
X013937Y034409D02*
X014154D01*
X014508Y038583D02*
X014724D01*
X014508Y039213D02*
X014724D01*
X014508Y039803D02*
X014724D01*
X015984Y038583D02*
X016201D01*
X015984Y039252D02*
X016201D01*
X015984Y039764D02*
X016201D01*
X019134Y035157D02*
X019350D01*
X019134Y035394D02*
X019350D01*
X019134Y035630D02*
X019350D01*
X019134Y035866D02*
X019350D01*
X019144Y036108D02*
X019361D01*
X022524Y021358D02*
X022544Y021378D01*
X022362Y018169D02*
Y018819D01*
X022362Y018819D01*
X021518Y038031D02*
X021536Y038013D01*
X020335Y040748D02*
X020340Y040753D01*
Y040940D01*
X041278Y042140D02*
Y042356D01*
X049680Y046599D02*
X049685Y046604D01*
Y046929D01*
X048327Y025453D02*
X048839D01*
X047915Y025925D02*
X048839D01*
X047815Y025453D02*
X048327D01*
X048839Y025413D02*
Y025925D01*
X048327Y025413D02*
Y025925D01*
X047815Y025413D02*
Y025925D01*
X036660Y023310D02*
X036995D01*
X036155Y023300D02*
X036490D01*
X020018Y041089D02*
X020300Y041372D01*
X020018Y040256D02*
Y041089D01*
X020300Y041372D02*
X020491D01*
X020177Y041732D02*
X021260D01*
X018411Y043498D02*
X020177Y041732D01*
X050614Y022455D02*
Y022967D01*
X027610Y016400D02*
Y016617D01*
X027400Y016720D02*
X027617D01*
X027930Y014889D02*
X028147D01*
X027980Y018990D02*
Y019207D01*
X027710Y019350D02*
X027927D01*
X028030Y019463D02*
Y019680D01*
X042244Y052205D02*
X042461D01*
X042244Y052520D02*
X042461D01*
X044291Y052539D02*
Y052756D01*
X043898Y052539D02*
Y052756D01*
X041652Y043498D02*
Y043715D01*
X044882Y042677D02*
Y042894D01*
X044252Y042480D02*
Y042697D01*
X043937Y042480D02*
Y042697D01*
X043268Y042480D02*
Y042697D01*
X045472Y040138D02*
Y040354D01*
X050669Y040138D02*
Y040354D01*
Y034764D02*
Y034980D01*
X050197Y034764D02*
Y034980D01*
X045472Y034803D02*
Y035020D01*
X044055Y037520D02*
Y037697D01*
X044488Y037992D02*
Y038209D01*
X043740Y037520D02*
Y037736D01*
X044980Y028445D02*
X045669D01*
X043799D02*
X044980D01*
X043701Y028543D02*
X043799Y028445D01*
X043701Y028543D02*
Y029331D01*
X043780Y029409D01*
X044094D01*
X044488Y028839D02*
Y029055D01*
X044094Y028839D02*
Y029055D01*
Y029409D02*
X044488D01*
X020026Y040110D02*
Y040110D01*
X043781Y025453D02*
X044605D01*
X044705Y025413D02*
Y025925D01*
X044193Y025413D02*
Y025925D01*
X043681Y025313D02*
Y025825D01*
X043581Y025925D02*
X044605D01*
X015059Y026850D02*
Y027061D01*
X015453Y026858D02*
Y027063D01*
X015846Y026850D02*
Y027066D01*
X046437Y021272D02*
X046949D01*
Y020760D02*
Y021272D01*
X046476Y022461D02*
Y022972D01*
X045965Y022461D02*
Y022972D01*
X045453Y022461D02*
Y022972D01*
X045965Y022972D02*
X046476D01*
X045965Y022500D02*
X046476D01*
X045453D02*
X045965D01*
X045453Y022972D02*
X045965D01*
X050098Y022500D02*
X050610D01*
X049587Y022461D02*
X050098D01*
Y022972D02*
X050610D01*
X050098Y022461D02*
Y022972D01*
X049587Y022461D02*
Y022972D01*
X050098D01*
X048327Y021457D02*
X048661D01*
Y021791D01*
X050748Y021457D02*
Y021791D01*
Y021122D02*
Y021457D01*
D163*
X038081Y022500D02*
X038818D01*
X037931Y022350D02*
X038081Y022500D01*
X049724Y033760D02*
X049783Y033701D01*
X049724Y033760D02*
Y035374D01*
X039378Y023029D02*
Y023438D01*
Y023029D02*
X039400Y023007D01*
X039367Y023449D02*
X039378Y023438D01*
X037400Y019337D02*
Y021933D01*
X037816Y022350D01*
X037931D01*
X038818Y022500D02*
X038888Y022570D01*
Y023007D01*
X039656D02*
Y023444D01*
X039911Y023007D02*
Y023471D01*
X037400Y019337D02*
X038583Y018154D01*
Y017451D02*
Y018154D01*
X038376Y023007D02*
Y023414D01*
X040167Y023007D02*
Y023447D01*
X039173Y023701D02*
X039193Y023720D01*
X039168Y023696D02*
X039173Y023701D01*
X039144Y023007D02*
X039168Y023032D01*
Y023696D01*
X037500Y023681D02*
X037520Y023701D01*
X039173D01*
D164*
X048130Y026969D02*
Y029134D01*
X043268Y041929D02*
X043819Y041378D01*
X042210Y042396D02*
X042677Y041929D01*
X042210Y042396D02*
Y042402D01*
X042677Y041929D02*
X043268D01*
X043819Y038781D02*
X044685D01*
X043344D02*
X043819D01*
Y041378D01*
X042638Y034232D02*
Y038075D01*
X043344Y038781D01*
X042638Y034232D02*
X044429Y032441D01*
X043976Y018780D02*
Y019165D01*
X044685Y038780D02*
Y038781D01*
X046496Y032441D02*
X048130Y030807D01*
X044429Y032441D02*
X046496D01*
X048130Y029134D02*
Y030807D01*
X044685Y038780D02*
X045374D01*
X047441Y018504D02*
X048310D01*
X046260Y018327D02*
X047264D01*
X047441Y018504D01*
X048310D02*
X048967D01*
D165*
X027461Y021476D02*
Y024429D01*
X028720Y025689D01*
X036001D01*
X028898Y018661D02*
Y019134D01*
X028701Y019331D02*
X028898Y019134D01*
X030407Y015307D02*
X031299Y016199D01*
X028863Y015307D02*
Y016728D01*
Y015307D02*
X030407D01*
X027461Y021476D02*
X028701Y020236D01*
Y019331D02*
Y020236D01*
X028863Y016737D02*
Y017413D01*
X028858Y016732D02*
X028863Y016737D01*
X028858Y016732D02*
X028863Y016728D01*
X031299Y018106D02*
Y019138D01*
Y016199D02*
Y018106D01*
D166*
X050320Y044094D02*
Y046117D01*
X043819Y041378D02*
X044468Y042028D01*
X045079D01*
X046161Y043110D01*
X049336D01*
X050320Y044094D01*
X026870Y016831D02*
Y017283D01*
X026831Y017323D02*
X026870Y017283D01*
X028365Y014449D02*
X029030D01*
X028189Y014625D02*
X028365Y014449D01*
X028189Y015039D02*
X028189Y015039D01*
X028189Y014625D02*
Y015039D01*
X028189Y015039D02*
X028189Y015039D01*
X029030Y014449D02*
X029055Y014424D01*
Y014301D02*
Y014424D01*
X028189Y015039D02*
Y015827D01*
D167*
X046260Y018327D02*
D03*
D168*
X048150Y017185D02*
D03*
D169*
X046260Y015945D02*
D03*
D170*
X015108Y048032D02*
D03*
X013189Y015157D02*
D03*
X049803D02*
D03*
Y051772D02*
D03*
X013189D02*
D03*
D171*
X026878Y042913D02*
D03*
D172*
X047654Y041687D02*
D03*
Y041187D02*
D03*
X047154Y041687D02*
D03*
X046654D02*
D03*
X047154Y041187D02*
D03*
X046654D02*
D03*
X046154Y041687D02*
D03*
X045654D02*
D03*
X046154Y041187D02*
D03*
X045654D02*
D03*
D173*
X026457Y014301D02*
D03*
X029055D02*
D03*
D174*
X031299Y019138D02*
D03*
X034055D02*
D03*
X033071D02*
D03*
X032283D02*
D03*
X033071Y018106D02*
D03*
X032283D02*
D03*
X034055D02*
D03*
X031299D02*
D03*
D175*
X030091Y019276D02*
D03*
X035264D02*
D03*
Y017039D02*
D03*
X030091D02*
D03*
D176*
X042126Y040551D02*
D03*
X023228Y027559D02*
D03*
X042126D02*
D03*
X023228Y040551D02*
D03*
D177*
X015910Y019923D02*
D03*
X020310D02*
D03*
X015910Y020523D02*
D03*
X020310D02*
D03*
D178*
X015610Y017323D02*
D03*
X020610D02*
D03*
D179*
X015710Y025323D02*
D03*
X019510D02*
D03*
X016710D02*
D03*
X020510D02*
D03*
D180*
X014935Y016073D02*
D03*
X021285D02*
D03*
D181*
X020510Y024323D02*
D03*
X016110Y023323D02*
D03*
X015710Y024323D02*
D03*
X019710D02*
D03*
X018910D02*
D03*
X018510Y023323D02*
D03*
X019310D02*
D03*
X017710D02*
D03*
X016910D02*
D03*
X016510Y024323D02*
D03*
X017310D02*
D03*
D182*
X020110Y023323D02*
D03*
D183*
X023408Y015884D02*
D03*
X023900Y014900D02*
D03*
X025672D02*
D03*
X026164Y015884D02*
D03*
D184*
X037303Y017136D02*
D03*
X043012D02*
D03*
D185*
X037303Y014774D02*
D03*
X043012D02*
D03*
D186*
X024803Y018209D02*
D03*
X050186Y023667D02*
D03*
X049843Y023377D02*
D03*
X015050Y026150D02*
D03*
X021250Y028150D02*
D03*
X021550Y027750D02*
D03*
X027400Y030950D02*
D03*
X027900Y030500D02*
D03*
X037087Y029094D02*
D03*
X039367Y023449D02*
D03*
X038039Y022021D02*
D03*
X038200Y022200D02*
D03*
X038000Y022700D02*
D03*
X038043Y021695D02*
D03*
X050350Y032500D02*
D03*
X049250D02*
D03*
X021500Y039550D02*
D03*
X021550Y042100D02*
D03*
X021018Y039542D02*
D03*
X021260Y041260D02*
D03*
X021200Y042350D02*
D03*
X038583Y038622D02*
D03*
X013550Y046300D02*
D03*
X013500Y045900D02*
D03*
X012502Y045987D02*
D03*
X012750Y045900D02*
D03*
X012285Y046066D02*
D03*
X036850Y029600D02*
D03*
X032211Y030006D02*
D03*
X032462Y029724D02*
D03*
X032689D02*
D03*
X036850Y027150D02*
D03*
X048700Y029150D02*
D03*
X047400Y028750D02*
D03*
X026600Y023800D02*
D03*
X025950Y020700D02*
D03*
X024100Y020300D02*
D03*
X025800Y021700D02*
D03*
X022741Y021378D02*
D03*
Y021850D02*
D03*
X035827Y027657D02*
D03*
X046358Y036417D02*
D03*
X046752D02*
D03*
X046161Y038976D02*
D03*
X048622Y040846D02*
D03*
X049265Y034773D02*
D03*
X026378Y030709D02*
D03*
X033957Y031299D02*
D03*
X035061Y031297D02*
D03*
X033957Y024902D02*
D03*
X035039D02*
D03*
X034311Y022000D02*
D03*
X033661Y022835D02*
D03*
X033563Y023228D02*
D03*
X029921Y014567D02*
D03*
X026870Y016831D02*
D03*
X028248Y016339D02*
D03*
X027870Y016434D02*
D03*
X028000Y016039D02*
D03*
X034425Y023819D02*
D03*
X034197D02*
D03*
X026539Y016795D02*
D03*
X025409Y018209D02*
D03*
X025182D02*
D03*
X031102Y028642D02*
D03*
X026378Y016634D02*
D03*
X028340Y018370D02*
D03*
X033980Y022280D02*
D03*
X030080Y021585D02*
D03*
X033819Y022441D02*
D03*
X030032Y021807D02*
D03*
X031886Y021646D02*
D03*
X034941Y022244D02*
D03*
X035315Y027100D02*
D03*
X035433Y024882D02*
D03*
Y030945D02*
D03*
X033044Y029734D02*
D03*
X035472Y024252D02*
D03*
X033051Y023504D02*
D03*
X034594Y024921D02*
D03*
X034366D02*
D03*
X034239Y027656D02*
D03*
Y027100D02*
D03*
X034637Y031299D02*
D03*
X034409D02*
D03*
X042953Y042480D02*
D03*
X039646Y041417D02*
D03*
X039806Y041578D02*
D03*
X039409Y040472D02*
D03*
X039570Y040633D02*
D03*
X038425Y040472D02*
D03*
X038595Y040638D02*
D03*
X038346Y039291D02*
D03*
X037331Y039742D02*
D03*
X038087Y039041D02*
D03*
X037756Y038937D02*
D03*
X039733Y023720D02*
D03*
X043976Y018858D02*
D03*
Y019094D02*
D03*
X040312Y042192D02*
D03*
X042370Y023030D02*
D03*
X040152Y042032D02*
D03*
X042143Y023030D02*
D03*
X041740Y022670D02*
D03*
X041513D02*
D03*
X041259Y023140D02*
D03*
X041032D02*
D03*
X040767Y022890D02*
D03*
X040539D02*
D03*
X023228Y042402D02*
D03*
X033071Y024803D02*
D03*
X032087D02*
D03*
X050197Y026772D02*
D03*
Y027087D02*
D03*
Y027402D02*
D03*
Y027717D02*
D03*
Y028031D02*
D03*
Y028386D02*
D03*
Y028701D02*
D03*
X050058Y025105D02*
D03*
X049458Y025112D02*
D03*
X048991Y023331D02*
D03*
X048380Y023328D02*
D03*
X048229Y024223D02*
D03*
X041970Y022370D02*
D03*
X040850Y022450D02*
D03*
X020468Y035048D02*
D03*
X020485Y034747D02*
D03*
X020468Y035312D02*
D03*
X020191Y034752D02*
D03*
Y035320D02*
D03*
X021540Y037660D02*
D03*
X025591Y030217D02*
D03*
Y022146D02*
D03*
X032310Y027100D02*
D03*
X048169Y026575D02*
D03*
X048524D02*
D03*
X048169Y026870D02*
D03*
X048524D02*
D03*
X048169Y027165D02*
D03*
X048524D02*
D03*
X048169Y027461D02*
D03*
X048524D02*
D03*
X048169Y027756D02*
D03*
X048524D02*
D03*
X048169Y028051D02*
D03*
X048524D02*
D03*
X048169Y028346D02*
D03*
X048524D02*
D03*
X014269Y026560D02*
D03*
X014465Y026777D02*
D03*
X013491Y024225D02*
D03*
X013484Y024506D02*
D03*
X013974Y023137D02*
D03*
X013976Y022933D02*
D03*
X013884Y020240D02*
D03*
X013878Y020472D02*
D03*
X016535Y043504D02*
D03*
Y034843D02*
D03*
X031260Y042874D02*
D03*
X030748Y043425D02*
D03*
X030910Y042900D02*
D03*
X030749Y043061D02*
D03*
X031575Y046772D02*
D03*
X033307Y047087D02*
D03*
X038425Y040118D02*
D03*
X040787Y042205D02*
D03*
X040236Y041614D02*
D03*
X039606Y040984D02*
D03*
X039016Y040630D02*
D03*
X023622Y017992D02*
D03*
X021850Y019134D02*
D03*
X026772Y024016D02*
D03*
X026102Y023346D02*
D03*
X045079Y030610D02*
D03*
X044882Y030394D02*
D03*
X045276D02*
D03*
Y030827D02*
D03*
X044882D02*
D03*
X021417Y033209D02*
D03*
X021102D02*
D03*
X021594Y033504D02*
D03*
X020886D02*
D03*
X014154Y033150D02*
D03*
Y033504D02*
D03*
Y033819D02*
D03*
Y034134D02*
D03*
Y034409D02*
D03*
X014508Y038583D02*
D03*
Y039213D02*
D03*
Y039803D02*
D03*
X016201Y038583D02*
D03*
Y039252D02*
D03*
Y039764D02*
D03*
X019350Y035157D02*
D03*
Y035394D02*
D03*
Y035630D02*
D03*
Y035866D02*
D03*
X019361Y036108D02*
D03*
X049921Y045157D02*
D03*
X049685Y044449D02*
D03*
X047441Y044409D02*
D03*
X048543Y044606D02*
D03*
X047441Y044764D02*
D03*
X022362Y018819D02*
D03*
X021250Y027330D02*
D03*
X020340Y040940D02*
D03*
X043976Y018661D02*
D03*
Y019331D02*
D03*
X041278Y042140D02*
D03*
X049685Y046929D02*
D03*
X048583Y022500D02*
D03*
X048071D02*
D03*
X048583Y022972D02*
D03*
X048071D02*
D03*
X048839Y022717D02*
D03*
X048327D02*
D03*
X047815D02*
D03*
X049500Y023702D02*
D03*
Y024204D02*
D03*
X049494Y024704D02*
D03*
X048889Y024696D02*
D03*
X048878Y024213D02*
D03*
Y023701D02*
D03*
X048622Y023937D02*
D03*
Y024469D02*
D03*
X049213D02*
D03*
Y023937D02*
D03*
X049803Y023957D02*
D03*
X049803Y024488D02*
D03*
X049587Y025669D02*
D03*
X050098D02*
D03*
X050610D02*
D03*
X049843Y025433D02*
D03*
X050354D02*
D03*
Y025925D02*
D03*
X049843D02*
D03*
X045157Y027480D02*
D03*
Y027795D02*
D03*
Y028031D02*
D03*
X044843D02*
D03*
X044567D02*
D03*
X044291D02*
D03*
X044016D02*
D03*
X043740D02*
D03*
X046732Y026654D02*
D03*
Y027008D02*
D03*
Y027323D02*
D03*
Y027638D02*
D03*
Y027992D02*
D03*
X043204Y024123D02*
D03*
X042814Y022580D02*
D03*
X044303Y020689D02*
D03*
Y021304D02*
D03*
Y021969D02*
D03*
X044715Y021961D02*
D03*
X043934Y022500D02*
D03*
X044452Y022493D02*
D03*
X044462Y022966D02*
D03*
X043934Y022973D02*
D03*
X043692Y023238D02*
D03*
X043676Y022747D02*
D03*
X043664Y022268D02*
D03*
X044194D02*
D03*
X044708Y022282D02*
D03*
X044694Y022747D02*
D03*
X044678Y023312D02*
D03*
X044185Y023303D02*
D03*
X045667Y025008D02*
D03*
X045701Y025439D02*
D03*
X045730Y025919D02*
D03*
X046207Y025932D02*
D03*
X046211Y025448D02*
D03*
X046484Y025228D02*
D03*
X045962Y025231D02*
D03*
X045456Y025228D02*
D03*
X045466Y025693D02*
D03*
X045965Y025709D02*
D03*
X046472Y025693D02*
D03*
X046459Y026206D02*
D03*
X045972Y026193D02*
D03*
X045459Y026187D02*
D03*
X045953Y024213D02*
D03*
X045956Y024725D02*
D03*
X045937Y023565D02*
D03*
X044098Y023694D02*
D03*
X044076Y023911D02*
D03*
X044054Y024247D02*
D03*
X043674Y023936D02*
D03*
X042618Y023908D02*
D03*
X041945D02*
D03*
X045382Y024214D02*
D03*
X044787D02*
D03*
X045356Y023701D02*
D03*
X044783Y023720D02*
D03*
X044488Y023917D02*
D03*
X045651Y023971D02*
D03*
X045079Y023957D02*
D03*
X045669Y024469D02*
D03*
X045335Y024724D02*
D03*
X045079Y024469D02*
D03*
X044783Y024705D02*
D03*
X044478Y024490D02*
D03*
X036995Y023310D02*
D03*
X036155Y023300D02*
D03*
X031693Y028346D02*
D03*
X031299Y026378D02*
D03*
X032167Y027656D02*
D03*
X030340Y027120D02*
D03*
X031988Y027362D02*
D03*
X037500Y027165D02*
D03*
X029245Y022847D02*
D03*
X035000Y041050D02*
D03*
X031370Y027663D02*
D03*
X031310Y027350D02*
D03*
X031063Y027523D02*
D03*
X021630Y027260D02*
D03*
X027610Y016400D02*
D03*
X027400Y016720D02*
D03*
X027930Y014889D02*
D03*
X027980Y018990D02*
D03*
X027710Y019350D02*
D03*
X028030Y019680D02*
D03*
X027360Y018110D02*
D03*
X045940Y033290D02*
D03*
X046417Y033203D02*
D03*
X046200Y031680D02*
D03*
X045880Y031660D02*
D03*
X045480Y031770D02*
D03*
X045177Y031763D02*
D03*
X042244Y052205D02*
D03*
Y052520D02*
D03*
X044291Y052756D02*
D03*
X043898D02*
D03*
X041652Y043715D02*
D03*
X044882Y042677D02*
D03*
X044252Y042480D02*
D03*
X043937D02*
D03*
X043268D02*
D03*
X045472Y040354D02*
D03*
X050669D02*
D03*
Y034764D02*
D03*
X050197D02*
D03*
X045472Y034803D02*
D03*
X044055Y037520D02*
D03*
X044488Y037992D02*
D03*
X043740Y037520D02*
D03*
X032462Y024803D02*
D03*
X032689D02*
D03*
X044488Y028839D02*
D03*
X044094D02*
D03*
X044095Y030709D02*
D03*
X046161Y030315D02*
D03*
X030217Y040453D02*
D03*
X020193Y035024D02*
D03*
X039911Y023471D02*
D03*
X039656Y023444D02*
D03*
X034055Y040453D02*
D03*
X037331Y041032D02*
D03*
X021855Y021358D02*
D03*
Y021850D02*
D03*
X015059Y027061D02*
D03*
X015453Y027063D02*
D03*
X015846Y027066D02*
D03*
X029626Y042421D02*
D03*
X048327Y021457D02*
D03*
X048661Y021791D02*
D03*
X050748D02*
D03*
Y021122D02*
D03*
X047736Y021850D02*
D03*
X049016Y016929D02*
D03*
X027190Y020390D02*
D03*
X027220Y020730D02*
D03*
X027970Y022070D02*
D03*
X028180Y021860D02*
D03*
X030910Y024830D02*
D03*
X031174Y024713D02*
D03*
X031878Y021292D02*
D03*
X023480Y023720D02*
D03*
X024270D02*
D03*
X024287Y025197D02*
D03*
X023543D02*
D03*
X048439Y046161D02*
D03*
X048830Y046850D02*
D03*
X048740Y046336D02*
D03*
X048733Y046563D02*
D03*
X048480Y046941D02*
D03*
Y047168D02*
D03*
X048850Y047200D02*
D03*
X048447Y047933D02*
D03*
Y048524D02*
D03*
Y049114D02*
D03*
Y049705D02*
D03*
Y050295D02*
D03*
Y050886D02*
D03*
Y051476D02*
D03*
Y051673D02*
D03*
X029660Y026620D02*
D03*
X034843Y027100D02*
D03*
X033898D02*
D03*
X033110D02*
D03*
X031535D02*
D03*
X030748D02*
D03*
X037362Y027656D02*
D03*
X035472D02*
D03*
X034843D02*
D03*
X033740D02*
D03*
X032953D02*
D03*
X030748D02*
D03*
X029803D02*
D03*
X030276D02*
D03*
X036890Y039746D02*
D03*
X036417D02*
D03*
X035945D02*
D03*
X035472D02*
D03*
X035000D02*
D03*
X034528D02*
D03*
X032638D02*
D03*
X032165D02*
D03*
X031693D02*
D03*
X031220D02*
D03*
X030748D02*
D03*
X036890Y041030D02*
D03*
X036417Y041037D02*
D03*
X035945Y041035D02*
D03*
X035472Y041018D02*
D03*
X034528Y041638D02*
D03*
X034055Y041655D02*
D03*
X033583Y041677D02*
D03*
X033110Y041680D02*
D03*
X032638Y041678D02*
D03*
X032165Y041045D02*
D03*
X031693Y041047D02*
D03*
X031220Y041040D02*
D03*
X030748Y041038D02*
D03*
X030276Y041036D02*
D03*
X029823Y042126D02*
D03*
X032634Y023724D02*
D03*
X029134Y022343D02*
D03*
X028456Y022246D02*
D03*
X028440Y023440D02*
D03*
X029338Y023438D02*
D03*
X029150Y024330D02*
D03*
X029365Y024585D02*
D03*
X030190Y024713D02*
D03*
X045520Y045630D02*
D03*
X045810Y045840D02*
D03*
X031208Y025190D02*
D03*
X030224Y025150D02*
D03*
X031555Y025197D02*
D03*
X030578Y025150D02*
D03*
X029803Y021614D02*
D03*
X029154Y021594D02*
D03*
X029508Y021594D02*
D03*
X029035Y021122D02*
D03*
X031476Y020531D02*
D03*
X038376Y023414D02*
D03*
X040167Y023447D02*
D03*
X038780Y016700D02*
D03*
X039961Y016719D02*
D03*
X040551Y016709D02*
D03*
X041142Y016702D02*
D03*
X041732Y016702D02*
D03*
X033570Y046980D02*
D03*
Y047207D02*
D03*
X031830Y046897D02*
D03*
Y046670D02*
D03*
X033071Y019831D02*
D03*
Y020709D02*
D03*
X048760Y047524D02*
D03*
Y047751D02*
D03*
D187*
X031213Y023005D02*
D03*
X030780D02*
D03*
X030347D02*
D03*
X031213Y023438D02*
D03*
X030780D02*
D03*
X030347D02*
D03*
X031213Y023871D02*
D03*
X030780D02*
D03*
X030347D02*
D03*
M02*
