G04*
G04 #@! TF.GenerationSoftware,Altium Limited,Altium Designer,22.1.2 (22)*
G04*
G04 Layer_Color=2752767*
%FSAX24Y24*%
%MOIN*%
G70*
G04*
G04 #@! TF.SameCoordinates,7F836DD3-99AF-427D-BE5B-C3016D41F6B7*
G04*
G04*
G04 #@! TF.FilePolarity,Positive*
G04*
G01*
G75*
%ADD226C,0.0020*%
%ADD227C,0.0027*%
%ADD228C,0.0013*%
D226*
X016259Y043038D02*
Y043198D01*
X016419D01*
Y043038D01*
X016259D01*
Y042038D02*
Y042198D01*
X016419D01*
Y042038D01*
X016259D01*
X015259Y043038D02*
Y043198D01*
X015419D01*
Y043038D01*
X015259D01*
Y042038D02*
Y042198D01*
X015419D01*
Y042038D01*
X015259D01*
X013259D02*
Y042198D01*
X013419D01*
Y042038D01*
X013259D01*
Y043038D02*
Y043198D01*
X013419D01*
Y043038D01*
X013259D01*
X014259Y042038D02*
Y042198D01*
X014419D01*
Y042038D01*
X014259D01*
Y043038D02*
Y043198D01*
X014419D01*
Y043038D01*
X014259D01*
X017259Y042038D02*
Y042198D01*
X017419D01*
Y042038D01*
X017259D01*
Y043038D02*
Y043198D01*
X017419D01*
Y043038D01*
X017259D01*
X018259Y042038D02*
Y042198D01*
X018419D01*
Y042038D01*
X018259D01*
X019259D02*
Y042198D01*
X019419D01*
Y042038D01*
X019259D01*
X018259Y043038D02*
Y043198D01*
X018419D01*
Y043038D01*
X018259D01*
X019259D02*
Y043198D01*
X019419D01*
Y043038D01*
X019259D01*
X015108Y047951D02*
X015028Y048112D01*
X015188D01*
X015108Y047951D01*
X045915Y051888D02*
X045955Y051929D01*
X045995D01*
X045955Y051968D01*
X045995Y052009D01*
X045955D01*
X045915Y052049D01*
X045875Y052009D01*
X045835D01*
X045875Y051968D01*
X045835Y051929D01*
X045875D01*
X045915Y051888D01*
X045835Y044014D02*
X045875Y044094D01*
X045835Y044174D01*
X045915Y044134D01*
X045995Y044174D01*
X045955Y044094D01*
X045995Y044014D01*
X045915Y044054D01*
X045835Y044014D01*
X046410Y018342D02*
Y018302D01*
X046490D01*
Y018342D01*
X046530D01*
Y018422D01*
X046490D01*
Y018462D01*
X046410D01*
Y018422D01*
X046370D01*
Y018342D01*
X046410D01*
X048260Y017160D02*
X048300D01*
X048340Y017200D01*
X048380Y017160D01*
X048420D01*
Y017200D01*
X048380Y017240D01*
X048420Y017280D01*
Y017320D01*
X048380D01*
X048340Y017280D01*
X048300Y017320D01*
X048260D01*
Y017280D01*
X048300Y017240D01*
X048260Y017200D01*
Y017160D01*
X046370Y016000D02*
X046450Y016080D01*
X046530Y016000D01*
X046450Y015920D01*
X046370Y016000D01*
X025798Y042833D02*
Y042993D01*
X025958D01*
Y042833D01*
X025798D01*
X026798D02*
Y042993D01*
X026958D01*
Y042833D01*
X026798D01*
X026377Y014221D02*
Y014381D01*
X026537D01*
Y014221D01*
X026377D01*
X026417Y014261D02*
Y014341D01*
X026497D01*
Y014261D01*
X026417D01*
X028975Y014221D02*
Y014381D01*
X029135D01*
Y014221D01*
X028975D01*
X029015Y014261D02*
Y014341D01*
X029095D01*
Y014261D01*
X029015D01*
X030091Y019196D02*
X030011Y019356D01*
X030171D01*
X030091Y019196D01*
Y019236D02*
X030051Y019316D01*
X030131D01*
X030091Y019236D01*
X035264Y019196D02*
X035184Y019356D01*
X035344D01*
X035264Y019196D01*
Y019236D02*
X035224Y019316D01*
X035304D01*
X035264Y019236D01*
Y016959D02*
X035184Y017119D01*
X035344D01*
X035264Y016959D01*
Y016999D02*
X035224Y017079D01*
X035304D01*
X035264Y016999D01*
X030091Y016959D02*
X030011Y017119D01*
X030171D01*
X030091Y016959D01*
Y016999D02*
X030051Y017079D01*
X030131D01*
X030091Y016999D01*
X042126Y040471D02*
X042166Y040511D01*
X042206D01*
X042166Y040551D01*
X042206Y040591D01*
X042166D01*
X042126Y040631D01*
X042086Y040591D01*
X042046D01*
X042086Y040551D01*
X042046Y040511D01*
X042086D01*
X042126Y040471D01*
Y040511D02*
X042146Y040531D01*
X042166D01*
X042146Y040551D01*
X042166Y040571D01*
X042146D01*
X042126Y040591D01*
X042106Y040571D01*
X042086D01*
X042106Y040551D01*
X042086Y040531D01*
X042106D01*
X042126Y040511D01*
X023228Y027479D02*
X023268Y027519D01*
X023308D01*
X023268Y027559D01*
X023308Y027599D01*
X023268D01*
X023228Y027639D01*
X023188Y027599D01*
X023148D01*
X023188Y027559D01*
X023148Y027519D01*
X023188D01*
X023228Y027479D01*
Y027519D02*
X023248Y027539D01*
X023268D01*
X023248Y027559D01*
X023268Y027579D01*
X023248D01*
X023228Y027599D01*
X023208Y027579D01*
X023188D01*
X023208Y027559D01*
X023188Y027539D01*
X023208D01*
X023228Y027519D01*
X042126Y027479D02*
X042166Y027519D01*
X042206D01*
X042166Y027559D01*
X042206Y027599D01*
X042166D01*
X042126Y027639D01*
X042086Y027599D01*
X042046D01*
X042086Y027559D01*
X042046Y027519D01*
X042086D01*
X042126Y027479D01*
Y027519D02*
X042146Y027539D01*
X042166D01*
X042146Y027559D01*
X042166Y027579D01*
X042146D01*
X042126Y027599D01*
X042106Y027579D01*
X042086D01*
X042106Y027559D01*
X042086Y027539D01*
X042106D01*
X042126Y027519D01*
X023228Y040471D02*
X023268Y040511D01*
X023308D01*
X023268Y040551D01*
X023308Y040591D01*
X023268D01*
X023228Y040631D01*
X023188Y040591D01*
X023148D01*
X023188Y040551D01*
X023148Y040511D01*
X023188D01*
X023228Y040471D01*
Y040511D02*
X023248Y040531D01*
X023268D01*
X023248Y040551D01*
X023268Y040571D01*
X023248D01*
X023228Y040591D01*
X023208Y040571D01*
X023188D01*
X023208Y040551D01*
X023188Y040531D01*
X023208D01*
X023228Y040511D01*
X015830Y019843D02*
X015870Y019923D01*
X015830Y020003D01*
X015910Y019963D01*
X015990Y020003D01*
X015950Y019923D01*
X015990Y019843D01*
X015910Y019883D01*
X015830Y019843D01*
X015870Y019883D02*
X015890Y019923D01*
X015870Y019963D01*
X015910Y019943D01*
X015950Y019963D01*
X015930Y019923D01*
X015950Y019883D01*
X015910Y019903D01*
X015870Y019883D01*
X020230Y019843D02*
X020270Y019923D01*
X020230Y020003D01*
X020310Y019963D01*
X020390Y020003D01*
X020350Y019923D01*
X020390Y019843D01*
X020310Y019883D01*
X020230Y019843D01*
X020270Y019883D02*
X020290Y019923D01*
X020270Y019963D01*
X020310Y019943D01*
X020350Y019963D01*
X020330Y019923D01*
X020350Y019883D01*
X020310Y019903D01*
X020270Y019883D01*
X015830Y020443D02*
X015870Y020523D01*
X015830Y020603D01*
X015910Y020563D01*
X015990Y020603D01*
X015950Y020523D01*
X015990Y020443D01*
X015910Y020483D01*
X015830Y020443D01*
X015870Y020483D02*
X015890Y020523D01*
X015870Y020563D01*
X015910Y020543D01*
X015950Y020563D01*
X015930Y020523D01*
X015950Y020483D01*
X015910Y020503D01*
X015870Y020483D01*
X020230Y020443D02*
X020270Y020523D01*
X020230Y020603D01*
X020310Y020563D01*
X020390Y020603D01*
X020350Y020523D01*
X020390Y020443D01*
X020310Y020483D01*
X020230Y020443D01*
X020270Y020483D02*
X020290Y020523D01*
X020270Y020563D01*
X020310Y020543D01*
X020350Y020563D01*
X020330Y020523D01*
X020350Y020483D01*
X020310Y020503D01*
X020270Y020483D01*
X015570Y017283D02*
Y017243D01*
X015650D01*
Y017283D01*
X015690D01*
Y017363D01*
X015650D01*
Y017403D01*
X015570D01*
Y017363D01*
X015530D01*
Y017283D01*
X015570D01*
X015590Y017303D02*
Y017283D01*
X015630D01*
Y017303D01*
X015650D01*
Y017343D01*
X015630D01*
Y017363D01*
X015590D01*
Y017343D01*
X015570D01*
Y017303D01*
X015590D01*
X020570Y017283D02*
Y017243D01*
X020650D01*
Y017283D01*
X020690D01*
Y017363D01*
X020650D01*
Y017403D01*
X020570D01*
Y017363D01*
X020530D01*
Y017283D01*
X020570D01*
X020590Y017303D02*
Y017283D01*
X020630D01*
Y017303D01*
X020650D01*
Y017343D01*
X020630D01*
Y017363D01*
X020590D01*
Y017343D01*
X020570D01*
Y017303D01*
X020590D01*
X015630Y025243D02*
X015670D01*
X015710Y025283D01*
X015750Y025243D01*
X015790D01*
Y025283D01*
X015750Y025323D01*
X015790Y025363D01*
Y025403D01*
X015750D01*
X015710Y025363D01*
X015670Y025403D01*
X015630D01*
Y025363D01*
X015670Y025323D01*
X015630Y025283D01*
Y025243D01*
X015670Y025283D02*
X015690D01*
X015710Y025303D01*
X015730Y025283D01*
X015750D01*
Y025303D01*
X015730Y025323D01*
X015750Y025343D01*
Y025363D01*
X015730D01*
X015710Y025343D01*
X015690Y025363D01*
X015670D01*
Y025343D01*
X015690Y025323D01*
X015670Y025303D01*
Y025283D01*
X019430Y025243D02*
X019470D01*
X019510Y025283D01*
X019550Y025243D01*
X019590D01*
Y025283D01*
X019550Y025323D01*
X019590Y025363D01*
Y025403D01*
X019550D01*
X019510Y025363D01*
X019470Y025403D01*
X019430D01*
Y025363D01*
X019470Y025323D01*
X019430Y025283D01*
Y025243D01*
X019470Y025283D02*
X019490D01*
X019510Y025303D01*
X019530Y025283D01*
X019550D01*
Y025303D01*
X019530Y025323D01*
X019550Y025343D01*
Y025363D01*
X019530D01*
X019510Y025343D01*
X019490Y025363D01*
X019470D01*
Y025343D01*
X019490Y025323D01*
X019470Y025303D01*
Y025283D01*
X014935Y016073D02*
Y016206D01*
X015002Y016273D01*
X015069Y016206D01*
Y016073D01*
Y016173D01*
X014935D01*
X021285Y016073D02*
Y016206D01*
X021352Y016273D01*
X021419Y016206D01*
Y016073D01*
Y016173D01*
X021285D01*
X020430Y024243D02*
X020470Y024323D01*
X020430Y024403D01*
X020510Y024363D01*
X020590Y024403D01*
X020550Y024323D01*
X020590Y024243D01*
X020510Y024283D01*
X020430Y024243D01*
X020470Y024283D02*
X020490Y024323D01*
X020470Y024363D01*
X020510Y024343D01*
X020550Y024363D01*
X020530Y024323D01*
X020550Y024283D01*
X020510Y024303D01*
X020470Y024283D01*
X020030Y023243D02*
X020070Y023323D01*
X020030Y023403D01*
X020110Y023363D01*
X020190Y023403D01*
X020150Y023323D01*
X020190Y023243D01*
X020110Y023283D01*
X020030Y023243D01*
X020070Y023283D02*
X020090Y023323D01*
X020070Y023363D01*
X020110Y023343D01*
X020150Y023363D01*
X020130Y023323D01*
X020150Y023283D01*
X020110Y023303D01*
X020070Y023283D01*
X016030Y023243D02*
X016070Y023323D01*
X016030Y023403D01*
X016110Y023363D01*
X016190Y023403D01*
X016150Y023323D01*
X016190Y023243D01*
X016110Y023283D01*
X016030Y023243D01*
X016070Y023283D02*
X016090Y023323D01*
X016070Y023363D01*
X016110Y023343D01*
X016150Y023363D01*
X016130Y023323D01*
X016150Y023283D01*
X016110Y023303D01*
X016070Y023283D01*
X015630Y024243D02*
X015670Y024323D01*
X015630Y024403D01*
X015710Y024363D01*
X015790Y024403D01*
X015750Y024323D01*
X015790Y024243D01*
X015710Y024283D01*
X015630Y024243D01*
X015670Y024283D02*
X015690Y024323D01*
X015670Y024363D01*
X015710Y024343D01*
X015750Y024363D01*
X015730Y024323D01*
X015750Y024283D01*
X015710Y024303D01*
X015670Y024283D01*
X019630Y024243D02*
X019670Y024323D01*
X019630Y024403D01*
X019710Y024363D01*
X019790Y024403D01*
X019750Y024323D01*
X019790Y024243D01*
X019710Y024283D01*
X019630Y024243D01*
X019670Y024283D02*
X019690Y024323D01*
X019670Y024363D01*
X019710Y024343D01*
X019750Y024363D01*
X019730Y024323D01*
X019750Y024283D01*
X019710Y024303D01*
X019670Y024283D01*
X018830Y024243D02*
X018870Y024323D01*
X018830Y024403D01*
X018910Y024363D01*
X018990Y024403D01*
X018950Y024323D01*
X018990Y024243D01*
X018910Y024283D01*
X018830Y024243D01*
X018870Y024283D02*
X018890Y024323D01*
X018870Y024363D01*
X018910Y024343D01*
X018950Y024363D01*
X018930Y024323D01*
X018950Y024283D01*
X018910Y024303D01*
X018870Y024283D01*
X018430Y023243D02*
X018470Y023323D01*
X018430Y023403D01*
X018510Y023363D01*
X018590Y023403D01*
X018550Y023323D01*
X018590Y023243D01*
X018510Y023283D01*
X018430Y023243D01*
X018470Y023283D02*
X018490Y023323D01*
X018470Y023363D01*
X018510Y023343D01*
X018550Y023363D01*
X018530Y023323D01*
X018550Y023283D01*
X018510Y023303D01*
X018470Y023283D01*
X019230Y023243D02*
X019270Y023323D01*
X019230Y023403D01*
X019310Y023363D01*
X019390Y023403D01*
X019350Y023323D01*
X019390Y023243D01*
X019310Y023283D01*
X019230Y023243D01*
X019270Y023283D02*
X019290Y023323D01*
X019270Y023363D01*
X019310Y023343D01*
X019350Y023363D01*
X019330Y023323D01*
X019350Y023283D01*
X019310Y023303D01*
X019270Y023283D01*
X017630Y023243D02*
X017670Y023323D01*
X017630Y023403D01*
X017710Y023363D01*
X017790Y023403D01*
X017750Y023323D01*
X017790Y023243D01*
X017710Y023283D01*
X017630Y023243D01*
X017670Y023283D02*
X017690Y023323D01*
X017670Y023363D01*
X017710Y023343D01*
X017750Y023363D01*
X017730Y023323D01*
X017750Y023283D01*
X017710Y023303D01*
X017670Y023283D01*
X016830Y023243D02*
X016870Y023323D01*
X016830Y023403D01*
X016910Y023363D01*
X016990Y023403D01*
X016950Y023323D01*
X016990Y023243D01*
X016910Y023283D01*
X016830Y023243D01*
X016870Y023283D02*
X016890Y023323D01*
X016870Y023363D01*
X016910Y023343D01*
X016950Y023363D01*
X016930Y023323D01*
X016950Y023283D01*
X016910Y023303D01*
X016870Y023283D01*
X016430Y024243D02*
X016470Y024323D01*
X016430Y024403D01*
X016510Y024363D01*
X016590Y024403D01*
X016550Y024323D01*
X016590Y024243D01*
X016510Y024283D01*
X016430Y024243D01*
X016470Y024283D02*
X016490Y024323D01*
X016470Y024363D01*
X016510Y024343D01*
X016550Y024363D01*
X016530Y024323D01*
X016550Y024283D01*
X016510Y024303D01*
X016470Y024283D01*
X017230Y024243D02*
X017270Y024323D01*
X017230Y024403D01*
X017310Y024363D01*
X017390Y024403D01*
X017350Y024323D01*
X017390Y024243D01*
X017310Y024283D01*
X017230Y024243D01*
X017270Y024283D02*
X017290Y024323D01*
X017270Y024363D01*
X017310Y024343D01*
X017350Y024363D01*
X017330Y024323D01*
X017350Y024283D01*
X017310Y024303D01*
X017270Y024283D01*
X016630Y025243D02*
X016670D01*
X016710Y025283D01*
X016750Y025243D01*
X016790D01*
Y025283D01*
X016750Y025323D01*
X016790Y025363D01*
Y025403D01*
X016750D01*
X016710Y025363D01*
X016670Y025403D01*
X016630D01*
Y025363D01*
X016670Y025323D01*
X016630Y025283D01*
Y025243D01*
X016670Y025283D02*
X016690D01*
X016710Y025303D01*
X016730Y025283D01*
X016750D01*
Y025303D01*
X016730Y025323D01*
X016750Y025343D01*
Y025363D01*
X016730D01*
X016710Y025343D01*
X016690Y025363D01*
X016670D01*
Y025343D01*
X016690Y025323D01*
X016670Y025303D01*
Y025283D01*
X020430Y025243D02*
X020470D01*
X020510Y025283D01*
X020550Y025243D01*
X020590D01*
Y025283D01*
X020550Y025323D01*
X020590Y025363D01*
Y025403D01*
X020550D01*
X020510Y025363D01*
X020470Y025403D01*
X020430D01*
Y025363D01*
X020470Y025323D01*
X020430Y025283D01*
Y025243D01*
X020470Y025283D02*
X020490D01*
X020510Y025303D01*
X020530Y025283D01*
X020550D01*
Y025303D01*
X020530Y025323D01*
X020550Y025343D01*
Y025363D01*
X020530D01*
X020510Y025343D01*
X020490Y025363D01*
X020470D01*
Y025343D01*
X020490Y025323D01*
X020470Y025303D01*
Y025283D01*
X023408Y016084D02*
Y015884D01*
X023508D01*
X023541Y015918D01*
Y015951D01*
X023508Y015984D01*
X023408D01*
X023508D01*
X023541Y016018D01*
Y016051D01*
X023508Y016084D01*
X023408D01*
X023900Y015100D02*
Y014900D01*
X024000D01*
X024033Y014933D01*
Y014967D01*
X024000Y015000D01*
X023900D01*
X024000D01*
X024033Y015033D01*
Y015067D01*
X024000Y015100D01*
X023900D01*
X025672D02*
Y014900D01*
X025772D01*
X025805Y014933D01*
Y014967D01*
X025772Y015000D01*
X025672D01*
X025772D01*
X025805Y015033D01*
Y015067D01*
X025772Y015100D01*
X025672D01*
X026164Y016084D02*
Y015884D01*
X026264D01*
X026297Y015918D01*
Y015951D01*
X026264Y015984D01*
X026164D01*
X026264D01*
X026297Y016018D01*
Y016051D01*
X026264Y016084D01*
X026164D01*
X037436Y017302D02*
X037403Y017336D01*
X037336D01*
X037303Y017302D01*
Y017169D01*
X037336Y017136D01*
X037403D01*
X037436Y017169D01*
X043145Y017302D02*
X043112Y017336D01*
X043045D01*
X043012Y017302D01*
Y017169D01*
X043045Y017136D01*
X043112D01*
X043145Y017169D01*
X037303Y014974D02*
Y014774D01*
X037403D01*
X037436Y014807D01*
Y014940D01*
X037403Y014974D01*
X037303D01*
X043012D02*
Y014774D01*
X043112D01*
X043145Y014807D01*
Y014940D01*
X043112Y014974D01*
X043012D01*
X013322Y015357D02*
X013189D01*
Y015157D01*
X013322D01*
X013189Y015257D02*
X013256D01*
X049936Y015357D02*
X049803D01*
Y015157D01*
X049936D01*
X049803Y015257D02*
X049870D01*
X049936Y051972D02*
X049803D01*
Y051772D01*
X049936D01*
X049803Y051872D02*
X049870D01*
X013322Y051972D02*
X013189D01*
Y051772D01*
X013322D01*
X013189Y051872D02*
X013256D01*
X032371Y031082D02*
X032238D01*
Y030982D01*
X032305D01*
X032238D01*
Y030882D01*
X028203Y031069D02*
X028070D01*
Y030969D01*
X028137D01*
X028070D01*
Y030869D01*
X027783Y031420D02*
X027650D01*
Y031320D01*
X027717D01*
X027650D01*
Y031220D01*
X026983Y031210D02*
X026850D01*
Y031110D01*
X026917D01*
X026850D01*
Y031010D01*
X034090Y031499D02*
X033957D01*
Y031399D01*
X034023D01*
X033957D01*
Y031299D01*
X032909Y030909D02*
X032776D01*
Y030809D01*
X032842D01*
X032776D01*
Y030709D01*
X033097Y027856D02*
X032964D01*
Y027756D01*
X033031D01*
X032964D01*
Y027656D01*
X032682Y030909D02*
X032548D01*
Y030809D01*
X032615D01*
X032548D01*
Y030709D01*
X036289Y023500D02*
X036155D01*
Y023400D01*
X036222D01*
X036155D01*
Y023300D01*
X037128Y023510D02*
X036995D01*
Y023410D01*
X037061D01*
X036995D01*
Y023310D01*
X049936Y047804D02*
X049903Y047838D01*
X049836D01*
X049803Y047804D01*
Y047671D01*
X049836Y047638D01*
X049903D01*
X049936Y047671D01*
Y047738D01*
X049870D01*
X049919Y047418D02*
X049885Y047452D01*
X049819D01*
X049785Y047418D01*
Y047285D01*
X049819Y047252D01*
X049885D01*
X049919Y047285D01*
Y047352D01*
X049852D01*
X044188Y037720D02*
X044055D01*
Y037620D01*
X044122D01*
X044055D01*
Y037520D01*
X045803Y034419D02*
X045769Y034452D01*
X045703D01*
X045669Y034419D01*
Y034285D01*
X045703Y034252D01*
X045769D01*
X045803Y034285D01*
Y034352D01*
X045736D01*
X016866Y040948D02*
X016732D01*
Y040848D01*
X016799D01*
X016732D01*
Y040748D01*
X045507Y029005D02*
X045474Y029039D01*
X045407D01*
X045374Y029005D01*
Y028872D01*
X045407Y028839D01*
X045474D01*
X045507Y028872D01*
Y028939D01*
X045441D01*
X045114Y029005D02*
X045080Y029039D01*
X045014D01*
X044980Y029005D01*
Y028872D01*
X045014Y028839D01*
X045080D01*
X045114Y028872D01*
Y028939D01*
X045047D01*
X044031Y029596D02*
X043998Y029629D01*
X043931D01*
X043898Y029596D01*
Y029462D01*
X043931Y029429D01*
X043998D01*
X044031Y029462D01*
Y029529D01*
X043964D01*
X016376Y038477D02*
X016243D01*
Y038377D01*
X016310D01*
X016243D01*
Y038277D01*
X016376Y037966D02*
X016243D01*
Y037866D01*
X016310D01*
X016243D01*
Y037766D01*
X016376Y037296D02*
X016243D01*
Y037196D01*
X016310D01*
X016243D01*
Y037096D01*
X015389Y038527D02*
X015256D01*
Y038427D01*
X015323D01*
X015256D01*
Y038327D01*
X015389Y037936D02*
X015256D01*
Y037836D01*
X015323D01*
X015256D01*
Y037736D01*
X015389Y037306D02*
X015256D01*
Y037206D01*
X015323D01*
X015256D01*
Y037106D01*
X016767Y035042D02*
X016634D01*
Y034942D01*
X016701D01*
X016634D01*
Y034843D01*
X043864Y018990D02*
X043731D01*
Y018890D01*
X043798D01*
X043731D01*
Y018790D01*
X043862Y019358D02*
X043729D01*
Y019258D01*
X043795D01*
X043729D01*
Y019158D01*
X043859Y019177D02*
X043726D01*
Y019077D01*
X043793D01*
X043726D01*
Y018977D01*
X044330Y018971D02*
X044197D01*
Y018871D01*
X044264D01*
X044197D01*
Y018771D01*
X044328Y019338D02*
X044195D01*
Y019238D01*
X044261D01*
X044195D01*
Y019138D01*
X044325Y019157D02*
X044192D01*
Y019057D01*
X044259D01*
X044192D01*
Y018957D01*
X044105Y019168D02*
X043971D01*
Y019068D01*
X044038D01*
X043971D01*
Y018968D01*
X044107Y019349D02*
X043974D01*
Y019249D01*
X044041D01*
X043974D01*
Y019149D01*
X044110Y018982D02*
X043976D01*
Y018882D01*
X044043D01*
X043976D01*
Y018782D01*
X049444Y017916D02*
X049311D01*
Y017816D01*
X049378D01*
X049311D01*
Y017717D01*
X042503Y023230D02*
X042370D01*
Y023130D01*
X042437D01*
X042370D01*
Y023030D01*
X042276Y023230D02*
X042143D01*
Y023130D01*
X042210D01*
X042143D01*
Y023030D01*
X042884Y024323D02*
X042751D01*
Y024223D01*
X042818D01*
X042751D01*
Y024123D01*
X042746Y024109D02*
X042612D01*
Y024009D01*
X042679D01*
X042612D01*
Y023909D01*
X042081Y024112D02*
X041948D01*
Y024012D01*
X042014D01*
X041948D01*
Y023912D01*
X045427Y025211D02*
X045293D01*
Y025111D01*
X045360D01*
X045293D01*
Y025011D01*
X043834Y024488D02*
X043701D01*
Y024388D01*
X043767D01*
X043701D01*
Y024288D01*
X014602Y026775D02*
X014468D01*
Y026675D01*
X014535D01*
X014468D01*
Y026575D01*
X015449Y026379D02*
X015316D01*
Y026279D01*
X015382D01*
X015316D01*
Y026180D01*
X015347Y027060D02*
X015213D01*
Y026960D01*
X015280D01*
X015213D01*
Y026860D01*
X014598Y026977D02*
X014465D01*
Y026877D01*
X014532D01*
X014465D01*
Y026777D01*
X013618Y024706D02*
X013484D01*
Y024606D01*
X013551D01*
X013484D01*
Y024506D01*
X017853Y052876D02*
X017720D01*
Y052776D01*
X017786D01*
X017720D01*
Y052676D01*
X017774Y052659D02*
X017641D01*
Y052559D01*
X017708D01*
X017641D01*
Y052459D01*
X017687Y052411D02*
X017554D01*
Y052311D01*
X017620D01*
X017554D01*
Y052211D01*
X017687Y051661D02*
X017554D01*
Y051561D01*
X017620D01*
X017554D01*
Y051461D01*
X018087Y051611D02*
X017954D01*
Y051511D01*
X018020D01*
X017954D01*
Y051411D01*
X044336Y039911D02*
X044303Y039944D01*
X044236D01*
X044203Y039911D01*
Y039777D01*
X044236Y039744D01*
X044303D01*
X044336Y039777D01*
Y039844D01*
X044269D01*
X049994Y033847D02*
X049861D01*
Y033747D01*
X049927D01*
X049861D01*
Y033647D01*
X050010Y034240D02*
X049876D01*
Y034140D01*
X049943D01*
X049876D01*
Y034040D01*
X049834Y034696D02*
X049701D01*
Y034596D01*
X049768D01*
X049701D01*
Y034496D01*
X048883Y033835D02*
X048750D01*
Y033735D01*
X048817D01*
X048750D01*
Y033635D01*
X048893Y034245D02*
X048760D01*
Y034145D01*
X048826D01*
X048760D01*
Y034045D01*
X048893Y034688D02*
X048760D01*
Y034588D01*
X048826D01*
X048760D01*
Y034488D01*
X048362Y041046D02*
X048228D01*
Y040946D01*
X048295D01*
X048228D01*
Y040846D01*
X038705Y038822D02*
X038571D01*
Y038722D01*
X038638D01*
X038571D01*
Y038622D01*
X041392Y023340D02*
X041259D01*
Y023240D01*
X041325D01*
X041259D01*
Y023140D01*
X041165Y023340D02*
X041032D01*
Y023240D01*
X041098D01*
X041032D01*
Y023140D01*
X039631Y031317D02*
X039597Y031350D01*
X039531D01*
X039497Y031317D01*
Y031183D01*
X039531Y031150D01*
X039597D01*
X039631Y031183D01*
Y031250D01*
X039564D01*
X039860Y031317D02*
X039827Y031350D01*
X039760D01*
X039727Y031317D01*
Y031183D01*
X039760Y031150D01*
X039827D01*
X039860Y031183D01*
Y031250D01*
X039794D01*
X039149Y040830D02*
X039016D01*
Y040730D01*
X039082D01*
X039016D01*
Y040630D01*
X049523Y044649D02*
X049390D01*
Y044549D01*
X049456D01*
X049390D01*
Y044449D01*
X049759Y045357D02*
X049626D01*
Y045257D01*
X049693D01*
X049626D01*
Y045157D01*
X049523Y047129D02*
X049390D01*
Y047029D01*
X049456D01*
X049390D01*
Y046929D01*
X045114Y040554D02*
X044980D01*
Y040454D01*
X045047D01*
X044980D01*
Y040354D01*
X044425Y052956D02*
X044291D01*
Y052856D01*
X044358D01*
X044291D01*
Y052756D01*
X045653Y045830D02*
X045520D01*
Y045730D01*
X045587D01*
X045520D01*
Y045630D01*
X045943Y046040D02*
X045810D01*
Y045940D01*
X045877D01*
X045810D01*
Y045840D01*
X044031Y052956D02*
X043898D01*
Y052856D01*
X043964D01*
X043898D01*
Y052756D01*
X042377Y052405D02*
X042244D01*
Y052305D01*
X042311D01*
X042244D01*
Y052205D01*
X042377Y052720D02*
X042244D01*
Y052620D01*
X042311D01*
X042244D01*
Y052520D01*
X047574Y044609D02*
X047441D01*
Y044509D01*
X047508D01*
X047441D01*
Y044409D01*
X048677Y044806D02*
X048543D01*
Y044706D01*
X048610D01*
X048543D01*
Y044606D01*
X047574Y044964D02*
X047441D01*
Y044864D01*
X047508D01*
X047441D01*
Y044764D01*
X048572Y046361D02*
X048439D01*
Y046261D01*
X048505D01*
X048439D01*
Y046161D01*
X048580Y051873D02*
X048447D01*
Y051773D01*
X048513D01*
X048447D01*
Y051673D01*
X048580Y048724D02*
X048447D01*
Y048624D01*
X048513D01*
X048447D01*
Y048524D01*
X048580Y049314D02*
X048447D01*
Y049214D01*
X048513D01*
X048447D01*
Y049114D01*
X048580Y049905D02*
X048447D01*
Y049805D01*
X048513D01*
X048447D01*
Y049705D01*
X048580Y050495D02*
X048447D01*
Y050395D01*
X048513D01*
X048447D01*
Y050295D01*
X048580Y051086D02*
X048447D01*
Y050986D01*
X048513D01*
X048447D01*
Y050886D01*
X048580Y051676D02*
X048447D01*
Y051576D01*
X048513D01*
X048447D01*
Y051476D01*
X048580Y048133D02*
X048447D01*
Y048033D01*
X048513D01*
X048447D01*
Y047933D01*
X048613Y047140D02*
X048480D01*
Y047041D01*
X048547D01*
X048480D01*
Y046941D01*
X048613Y047368D02*
X048480D01*
Y047268D01*
X048547D01*
X048480D01*
Y047168D01*
X024936Y018409D02*
X024803D01*
Y018309D01*
X024870D01*
X024803D01*
Y018209D01*
X049866Y023867D02*
X049733D01*
Y023767D01*
X049800D01*
X049733D01*
Y023667D01*
X049524Y023577D02*
X049391D01*
Y023477D01*
X049457D01*
X049391D01*
Y023377D01*
X017574Y027355D02*
X017441D01*
Y027255D01*
X017507D01*
X017441D01*
Y027156D01*
X021683Y027950D02*
X021550D01*
Y027850D01*
X021617D01*
X021550D01*
Y027750D01*
X037220Y029294D02*
X037087D01*
Y029194D01*
X037153D01*
X037087D01*
Y029094D01*
X039500Y023649D02*
X039367D01*
Y023549D01*
X039434D01*
X039367D01*
Y023449D01*
X038173Y022221D02*
X038039D01*
Y022121D01*
X038106D01*
X038039D01*
Y022021D01*
X038333Y022400D02*
X038200D01*
Y022300D01*
X038267D01*
X038200D01*
Y022200D01*
X038133Y022900D02*
X038000D01*
Y022800D01*
X038067D01*
X038000D01*
Y022700D01*
X038176Y021895D02*
X038043D01*
Y021795D01*
X038110D01*
X038043D01*
Y021695D01*
X049991Y032700D02*
X049858D01*
Y032600D01*
X049925D01*
X049858D01*
Y032500D01*
X048891Y032700D02*
X048758D01*
Y032600D01*
X048825D01*
X048758D01*
Y032500D01*
X021633Y039750D02*
X021500D01*
Y039650D01*
X021567D01*
X021500D01*
Y039550D01*
X021683Y042300D02*
X021550D01*
Y042200D01*
X021617D01*
X021550D01*
Y042100D01*
X021151Y039742D02*
X021018D01*
Y039642D01*
X021084D01*
X021018D01*
Y039542D01*
X021393Y041460D02*
X021260D01*
Y041360D01*
X021326D01*
X021260D01*
Y041260D01*
X021333Y042550D02*
X021200D01*
Y042450D01*
X021267D01*
X021200D01*
Y042350D01*
X036983Y029800D02*
X036850D01*
Y029700D01*
X036917D01*
X036850D01*
Y029600D01*
X036983Y027350D02*
X036850D01*
Y027250D01*
X036917D01*
X036850D01*
Y027150D01*
X026733Y024000D02*
X026600D01*
Y023900D01*
X026667D01*
X026600D01*
Y023800D01*
X026083Y020900D02*
X025950D01*
Y020800D01*
X026017D01*
X025950D01*
Y020700D01*
X024233Y020500D02*
X024100D01*
Y020400D01*
X024167D01*
X024100D01*
Y020300D01*
X025933Y021900D02*
X025800D01*
Y021800D01*
X025867D01*
X025800D01*
Y021700D01*
X022874Y021578D02*
X022741D01*
Y021478D01*
X022808D01*
X022741D01*
Y021378D01*
X022874Y022050D02*
X022741D01*
Y021950D01*
X022808D01*
X022741D01*
Y021850D01*
X035960Y027857D02*
X035827D01*
Y027757D01*
X035893D01*
X035827D01*
Y027657D01*
X045803Y039176D02*
X045669D01*
Y039076D01*
X045736D01*
X045669D01*
Y038976D01*
X048906Y034973D02*
X048773D01*
Y034873D01*
X048839D01*
X048773D01*
Y034773D01*
X035195Y031497D02*
X035061D01*
Y031397D01*
X035128D01*
X035061D01*
Y031297D01*
X034090Y025102D02*
X033957D01*
Y025002D01*
X034023D01*
X033957D01*
Y024902D01*
X035173Y025102D02*
X035039D01*
Y025002D01*
X035106D01*
X035039D01*
Y024902D01*
X034444Y022200D02*
X034311D01*
Y022100D01*
X034378D01*
X034311D01*
Y022000D01*
X033795Y023035D02*
X033661D01*
Y022935D01*
X033728D01*
X033661D01*
Y022835D01*
X033696Y023428D02*
X033563D01*
Y023328D01*
X033630D01*
X033563D01*
Y023228D01*
X030055Y014767D02*
X029921D01*
Y014667D01*
X029988D01*
X029921D01*
Y014567D01*
X027003Y017031D02*
X026870D01*
Y016931D01*
X026937D01*
X026870D01*
Y016831D01*
X028381Y016539D02*
X028248D01*
Y016439D01*
X028315D01*
X028248D01*
Y016339D01*
X028003Y016634D02*
X027870D01*
Y016534D01*
X027937D01*
X027870D01*
Y016434D01*
X028134Y016239D02*
X028000D01*
Y016139D01*
X028067D01*
X028000D01*
Y016039D01*
X034558Y024019D02*
X034425D01*
Y023919D01*
X034491D01*
X034425D01*
Y023819D01*
X034331Y024019D02*
X034197D01*
Y023919D01*
X034264D01*
X034197D01*
Y023819D01*
X026672Y016995D02*
X026539D01*
Y016895D01*
X026605D01*
X026539D01*
Y016795D01*
X025542Y018409D02*
X025409D01*
Y018309D01*
X025475D01*
X025409D01*
Y018209D01*
X025315Y018409D02*
X025182D01*
Y018309D01*
X025248D01*
X025182D01*
Y018209D01*
X031236Y028842D02*
X031102D01*
Y028742D01*
X031169D01*
X031102D01*
Y028642D01*
X026511Y016834D02*
X026378D01*
Y016734D01*
X026445D01*
X026378D01*
Y016634D01*
X028473Y018570D02*
X028340D01*
Y018470D01*
X028407D01*
X028340D01*
Y018370D01*
X034113Y022480D02*
X033980D01*
Y022380D01*
X034046D01*
X033980D01*
Y022280D01*
X030214Y021785D02*
X030080D01*
Y021685D01*
X030147D01*
X030080D01*
Y021585D01*
X033952Y022641D02*
X033819D01*
Y022541D01*
X033886D01*
X033819D01*
Y022441D01*
X030165Y022007D02*
X030032D01*
Y021907D01*
X030098D01*
X030032D01*
Y021807D01*
X032020Y021846D02*
X031886D01*
Y021746D01*
X031953D01*
X031886D01*
Y021646D01*
X035074Y022444D02*
X034941D01*
Y022344D01*
X035008D01*
X034941D01*
Y022244D01*
X035448Y027300D02*
X035315D01*
Y027200D01*
X035382D01*
X035315D01*
Y027100D01*
X035566Y025082D02*
X035433D01*
Y024982D01*
X035500D01*
X035433D01*
Y024882D01*
X035566Y031145D02*
X035433D01*
Y031045D01*
X035500D01*
X035433D01*
Y030945D01*
X033204Y030810D02*
X033071D01*
Y030710D01*
X033138D01*
X033071D01*
Y030610D01*
X035606Y024452D02*
X035472D01*
Y024352D01*
X035539D01*
X035472D01*
Y024252D01*
X033184Y023704D02*
X033051D01*
Y023604D01*
X033118D01*
X033051D01*
Y023504D01*
X034727Y025121D02*
X034594D01*
Y025021D01*
X034660D01*
X034594D01*
Y024921D01*
X034500Y025121D02*
X034366D01*
Y025021D01*
X034433D01*
X034366D01*
Y024921D01*
X034373Y027856D02*
X034239D01*
Y027756D01*
X034306D01*
X034239D01*
Y027656D01*
X034373Y027300D02*
X034239D01*
Y027200D01*
X034306D01*
X034239D01*
Y027100D01*
X034770Y031499D02*
X034637D01*
Y031399D01*
X034703D01*
X034637D01*
Y031299D01*
X034543Y031499D02*
X034409D01*
Y031399D01*
X034476D01*
X034409D01*
Y031299D01*
X043086Y042680D02*
X042953D01*
Y042580D01*
X043019D01*
X042953D01*
Y042480D01*
X039779Y041617D02*
X039646D01*
Y041517D01*
X039712D01*
X039646D01*
Y041417D01*
X039940Y041778D02*
X039806D01*
Y041678D01*
X039873D01*
X039806D01*
Y041578D01*
X038558Y040672D02*
X038425D01*
Y040572D01*
X038492D01*
X038425D01*
Y040472D01*
X038728Y040838D02*
X038595D01*
Y040738D01*
X038662D01*
X038595D01*
Y040638D01*
X038480Y039491D02*
X038346D01*
Y039391D01*
X038413D01*
X038346D01*
Y039291D01*
X037464Y039942D02*
X037331D01*
Y039842D01*
X037398D01*
X037331D01*
Y039742D01*
X038220Y039241D02*
X038087D01*
Y039141D01*
X038154D01*
X038087D01*
Y039041D01*
X037889Y039137D02*
X037756D01*
Y039037D01*
X037823D01*
X037756D01*
Y038937D01*
X039866Y023920D02*
X039733D01*
Y023820D01*
X039799D01*
X039733D01*
Y023720D01*
X040446Y042392D02*
X040312D01*
Y042292D01*
X040379D01*
X040312D01*
Y042192D01*
X040285Y042232D02*
X040152D01*
Y042132D01*
X040219D01*
X040152D01*
Y042032D01*
X041873Y022870D02*
X041740D01*
Y022770D01*
X041807D01*
X041740D01*
Y022670D01*
X041646Y022870D02*
X041513D01*
Y022770D01*
X041580D01*
X041513D01*
Y022670D01*
X040900Y023090D02*
X040767D01*
Y022990D01*
X040833D01*
X040767D01*
Y022890D01*
X040673Y023090D02*
X040539D01*
Y022990D01*
X040606D01*
X040539D01*
Y022890D01*
X023362Y042602D02*
X023228D01*
Y042502D01*
X023295D01*
X023228D01*
Y042402D01*
X033204Y025003D02*
X033071D01*
Y024903D01*
X033138D01*
X033071D01*
Y024803D01*
X032220Y025003D02*
X032087D01*
Y024903D01*
X032153D01*
X032087D01*
Y024803D01*
X049877Y026972D02*
X049744D01*
Y026872D01*
X049811D01*
X049744D01*
Y026772D01*
X049877Y027287D02*
X049744D01*
Y027187D01*
X049811D01*
X049744D01*
Y027087D01*
X049877Y027602D02*
X049744D01*
Y027502D01*
X049811D01*
X049744D01*
Y027402D01*
X049877Y027916D02*
X049744D01*
Y027817D01*
X049811D01*
X049744D01*
Y027717D01*
X049877Y028231D02*
X049744D01*
Y028131D01*
X049811D01*
X049744D01*
Y028031D01*
X049877Y028586D02*
X049744D01*
Y028486D01*
X049811D01*
X049744D01*
Y028386D01*
X049877Y028901D02*
X049744D01*
Y028801D01*
X049811D01*
X049744D01*
Y028701D01*
X049739Y025305D02*
X049606D01*
Y025205D01*
X049672D01*
X049606D01*
Y025105D01*
X049138Y025312D02*
X049005D01*
Y025212D01*
X049072D01*
X049005D01*
Y025112D01*
X048672Y023531D02*
X048538D01*
Y023431D01*
X048605D01*
X048538D01*
Y023331D01*
X048061Y023528D02*
X047928D01*
Y023428D01*
X047994D01*
X047928D01*
Y023328D01*
X047910Y024423D02*
X047777D01*
Y024323D01*
X047843D01*
X047777D01*
Y024223D01*
X042103Y022570D02*
X041970D01*
Y022470D01*
X042037D01*
X041970D01*
Y022370D01*
X040983Y022650D02*
X040850D01*
Y022550D01*
X040917D01*
X040850D01*
Y022450D01*
X020601Y035248D02*
X020468D01*
Y035148D01*
X020535D01*
X020468D01*
Y035048D01*
X020618Y034947D02*
X020485D01*
Y034847D01*
X020551D01*
X020485D01*
Y034747D01*
X020601Y035512D02*
X020468D01*
Y035412D01*
X020535D01*
X020468D01*
Y035312D01*
X020324Y034952D02*
X020191D01*
Y034852D01*
X020258D01*
X020191D01*
Y034752D01*
X020324Y035520D02*
X020191D01*
Y035420D01*
X020258D01*
X020191D01*
Y035320D01*
X021673Y037860D02*
X021540D01*
Y037760D01*
X021607D01*
X021540D01*
Y037660D01*
X025724Y030416D02*
X025591D01*
Y030317D01*
X025657D01*
X025591D01*
Y030217D01*
X025724Y022346D02*
X025591D01*
Y022246D01*
X025657D01*
X025591D01*
Y022146D01*
X032444Y027300D02*
X032310D01*
Y027200D01*
X032377D01*
X032310D01*
Y027100D01*
X047850Y026775D02*
X047717D01*
Y026675D01*
X047783D01*
X047717D01*
Y026575D01*
X048204Y026775D02*
X048071D01*
Y026675D01*
X048138D01*
X048071D01*
Y026575D01*
X047850Y027070D02*
X047717D01*
Y026970D01*
X047783D01*
X047717D01*
Y026870D01*
X048204Y027070D02*
X048071D01*
Y026970D01*
X048138D01*
X048071D01*
Y026870D01*
X047850Y027365D02*
X047717D01*
Y027265D01*
X047783D01*
X047717D01*
Y027165D01*
X048204Y027365D02*
X048071D01*
Y027265D01*
X048138D01*
X048071D01*
Y027165D01*
X047850Y027661D02*
X047717D01*
Y027561D01*
X047783D01*
X047717D01*
Y027461D01*
X048204Y027661D02*
X048071D01*
Y027561D01*
X048138D01*
X048071D01*
Y027461D01*
X047850Y027956D02*
X047717D01*
Y027856D01*
X047783D01*
X047717D01*
Y027756D01*
X048204Y027956D02*
X048071D01*
Y027856D01*
X048138D01*
X048071D01*
Y027756D01*
X047850Y028251D02*
X047717D01*
Y028151D01*
X047783D01*
X047717D01*
Y028051D01*
X048204Y028251D02*
X048071D01*
Y028151D01*
X048138D01*
X048071D01*
Y028051D01*
X047850Y028546D02*
X047717D01*
Y028446D01*
X047783D01*
X047717D01*
Y028346D01*
X048204Y028546D02*
X048071D01*
Y028446D01*
X048138D01*
X048071D01*
Y028346D01*
X013625Y024425D02*
X013491D01*
Y024325D01*
X013558D01*
X013491D01*
Y024225D01*
X014107Y023337D02*
X013974D01*
Y023237D01*
X014040D01*
X013974D01*
Y023137D01*
X014110Y023133D02*
X013976D01*
Y023033D01*
X014043D01*
X013976D01*
Y022933D01*
X014017Y020440D02*
X013884D01*
Y020340D01*
X013951D01*
X013884D01*
Y020240D01*
X014011Y020672D02*
X013878D01*
Y020572D01*
X013945D01*
X013878D01*
Y020472D01*
X031393Y043074D02*
X031260D01*
Y042974D01*
X031326D01*
X031260D01*
Y042874D01*
X030881Y043625D02*
X030748D01*
Y043525D01*
X030815D01*
X030748D01*
Y043425D01*
X031043Y043100D02*
X030910D01*
Y043000D01*
X030977D01*
X030910D01*
Y042900D01*
X030883Y043261D02*
X030749D01*
Y043161D01*
X030816D01*
X030749D01*
Y043061D01*
X031708Y046972D02*
X031575D01*
Y046872D01*
X031641D01*
X031575D01*
Y046772D01*
X033440Y047287D02*
X033307D01*
Y047187D01*
X033374D01*
X033307D01*
Y047087D01*
X038558Y040318D02*
X038425D01*
Y040218D01*
X038492D01*
X038425D01*
Y040118D01*
X040921Y042405D02*
X040787D01*
Y042305D01*
X040854D01*
X040787D01*
Y042205D01*
X040370Y041814D02*
X040236D01*
Y041714D01*
X040303D01*
X040236D01*
Y041614D01*
X039740Y041184D02*
X039606D01*
Y041084D01*
X039673D01*
X039606D01*
Y040984D01*
X023755Y018192D02*
X023622D01*
Y018092D01*
X023689D01*
X023622D01*
Y017992D01*
X021984Y019334D02*
X021850D01*
Y019234D01*
X021917D01*
X021850D01*
Y019134D01*
X026905Y024216D02*
X026772D01*
Y024116D01*
X026838D01*
X026772D01*
Y024016D01*
X026236Y023546D02*
X026102D01*
Y023446D01*
X026169D01*
X026102D01*
Y023346D01*
X045212Y030810D02*
X045079D01*
Y030710D01*
X045145D01*
X045079D01*
Y030610D01*
X045015Y030594D02*
X044882D01*
Y030494D01*
X044949D01*
X044882D01*
Y030394D01*
X045409Y030594D02*
X045276D01*
Y030494D01*
X045342D01*
X045276D01*
Y030394D01*
X045409Y031027D02*
X045276D01*
Y030927D01*
X045342D01*
X045276D01*
Y030827D01*
X045015Y031027D02*
X044882D01*
Y030927D01*
X044949D01*
X044882D01*
Y030827D01*
X017988Y034294D02*
X017854D01*
Y034194D01*
X017921D01*
X017854D01*
Y034094D01*
X017988Y034609D02*
X017854D01*
Y034509D01*
X017921D01*
X017854D01*
Y034409D01*
X018283Y034117D02*
X018150D01*
Y034017D01*
X018216D01*
X018150D01*
Y033917D01*
X018283Y034826D02*
X018150D01*
Y034726D01*
X018216D01*
X018150D01*
Y034626D01*
X015045Y033350D02*
X014911D01*
Y033250D01*
X014978D01*
X014911D01*
Y033150D01*
X015045Y033704D02*
X014911D01*
Y033604D01*
X014978D01*
X014911D01*
Y033504D01*
X015045Y034019D02*
X014911D01*
Y033919D01*
X014978D01*
X014911D01*
Y033819D01*
X015045Y034334D02*
X014911D01*
Y034234D01*
X014978D01*
X014911D01*
Y034134D01*
X015045Y034609D02*
X014911D01*
Y034509D01*
X014978D01*
X014911D01*
Y034409D01*
X019484Y035357D02*
X019350D01*
Y035257D01*
X019417D01*
X019350D01*
Y035157D01*
X019484Y035594D02*
X019350D01*
Y035494D01*
X019417D01*
X019350D01*
Y035394D01*
X019484Y035830D02*
X019350D01*
Y035730D01*
X019417D01*
X019350D01*
Y035630D01*
X019484Y036066D02*
X019350D01*
Y035966D01*
X019417D01*
X019350D01*
Y035866D01*
X019494Y036308D02*
X019361D01*
Y036208D01*
X019427D01*
X019361D01*
Y036108D01*
X022496Y019019D02*
X022362D01*
Y018919D01*
X022429D01*
X022362D01*
Y018819D01*
X018394Y027355D02*
X018261D01*
Y027255D01*
X018327D01*
X018261D01*
Y027156D01*
X020473Y041140D02*
X020340D01*
Y041040D01*
X020407D01*
X020340D01*
Y040940D01*
X048263Y022700D02*
X048130D01*
Y022600D01*
X048197D01*
X048130D01*
Y022500D01*
X047751Y022700D02*
X047618D01*
Y022600D01*
X047685D01*
X047618D01*
Y022500D01*
X048263Y023172D02*
X048130D01*
Y023072D01*
X048197D01*
X048130D01*
Y022972D01*
X047751Y023172D02*
X047618D01*
Y023072D01*
X047685D01*
X047618D01*
Y022972D01*
X048519Y022916D02*
X048386D01*
Y022817D01*
X048452D01*
X048386D01*
Y022717D01*
X048007Y022916D02*
X047874D01*
Y022817D01*
X047941D01*
X047874D01*
Y022717D01*
X047495Y022916D02*
X047362D01*
Y022817D01*
X047429D01*
X047362D01*
Y022717D01*
X049180Y023902D02*
X049047D01*
Y023802D01*
X049114D01*
X049047D01*
Y023702D01*
X049180Y024404D02*
X049047D01*
Y024304D01*
X049114D01*
X049047D01*
Y024204D01*
X049175Y024904D02*
X049041D01*
Y024804D01*
X049108D01*
X049041D01*
Y024704D01*
X048569Y024896D02*
X048436D01*
Y024796D01*
X048502D01*
X048436D01*
Y024696D01*
X048558Y024413D02*
X048425D01*
Y024313D01*
X048492D01*
X048425D01*
Y024213D01*
X048558Y023901D02*
X048425D01*
Y023801D01*
X048492D01*
X048425D01*
Y023701D01*
X048303Y024137D02*
X048169D01*
Y024037D01*
X048236D01*
X048169D01*
Y023937D01*
X048303Y024668D02*
X048169D01*
Y024568D01*
X048236D01*
X048169D01*
Y024469D01*
X048893Y024668D02*
X048760D01*
Y024568D01*
X048826D01*
X048760D01*
Y024469D01*
X048893Y024137D02*
X048760D01*
Y024037D01*
X048826D01*
X048760D01*
Y023937D01*
X049484Y024157D02*
X049350D01*
Y024057D01*
X049417D01*
X049350D01*
Y023957D01*
X049484Y024688D02*
X049350D01*
Y024588D01*
X049417D01*
X049350D01*
Y024488D01*
X049267Y025869D02*
X049134D01*
Y025769D01*
X049201D01*
X049134D01*
Y025669D01*
X049779Y025869D02*
X049646D01*
Y025769D01*
X049712D01*
X049646D01*
Y025669D01*
X050291Y025869D02*
X050157D01*
Y025769D01*
X050224D01*
X050157D01*
Y025669D01*
X049523Y025633D02*
X049390D01*
Y025533D01*
X049456D01*
X049390D01*
Y025433D01*
X050035Y025633D02*
X049902D01*
Y025533D01*
X049968D01*
X049902D01*
Y025433D01*
X050035Y026125D02*
X049902D01*
Y026025D01*
X049968D01*
X049902D01*
Y025925D01*
X049523Y026125D02*
X049390D01*
Y026025D01*
X049456D01*
X049390D01*
Y025925D01*
X045084Y027680D02*
X044951D01*
Y027580D01*
X045017D01*
X044951D01*
Y027480D01*
X045084Y027995D02*
X044951D01*
Y027895D01*
X045017D01*
X044951D01*
Y027795D01*
X045084Y028231D02*
X044951D01*
Y028131D01*
X045017D01*
X044951D01*
Y028031D01*
X044769Y028231D02*
X044636D01*
Y028131D01*
X044702D01*
X044636D01*
Y028031D01*
X044494Y028231D02*
X044360D01*
Y028131D01*
X044427D01*
X044360D01*
Y028031D01*
X044218Y028231D02*
X044085D01*
Y028131D01*
X044151D01*
X044085D01*
Y028031D01*
X043942Y028231D02*
X043809D01*
Y028131D01*
X043876D01*
X043809D01*
Y028031D01*
X043667Y028231D02*
X043533D01*
Y028131D01*
X043600D01*
X043533D01*
Y028031D01*
X046413Y026853D02*
X046280D01*
Y026754D01*
X046346D01*
X046280D01*
Y026654D01*
X046413Y027208D02*
X046280D01*
Y027108D01*
X046346D01*
X046280D01*
Y027008D01*
X046413Y027523D02*
X046280D01*
Y027423D01*
X046346D01*
X046280D01*
Y027323D01*
X046413Y027838D02*
X046280D01*
Y027738D01*
X046346D01*
X046280D01*
Y027638D01*
X046413Y028192D02*
X046280D01*
Y028092D01*
X046346D01*
X046280D01*
Y027992D01*
X043983Y020889D02*
X043850D01*
Y020789D01*
X043917D01*
X043850D01*
Y020689D01*
X043983Y021504D02*
X043850D01*
Y021404D01*
X043917D01*
X043850D01*
Y021304D01*
X043983Y022169D02*
X043850D01*
Y022069D01*
X043917D01*
X043850D01*
Y021969D01*
X044395Y022161D02*
X044262D01*
Y022061D01*
X044329D01*
X044262D01*
Y021961D01*
X043614Y022700D02*
X043481D01*
Y022600D01*
X043548D01*
X043481D01*
Y022500D01*
X044133Y022693D02*
X044000D01*
Y022593D01*
X044066D01*
X044000D01*
Y022493D01*
X044142Y023166D02*
X044009D01*
Y023066D01*
X044076D01*
X044009D01*
Y022966D01*
X043614Y023172D02*
X043481D01*
Y023073D01*
X043548D01*
X043481D01*
Y022973D01*
X043372Y023438D02*
X043239D01*
Y023338D01*
X043306D01*
X043239D01*
Y023238D01*
X043356Y022947D02*
X043223D01*
Y022847D01*
X043290D01*
X043223D01*
Y022747D01*
X043345Y022468D02*
X043211D01*
Y022368D01*
X043278D01*
X043211D01*
Y022268D01*
X043875Y022468D02*
X043742D01*
Y022368D01*
X043808D01*
X043742D01*
Y022268D01*
X044389Y022482D02*
X044256D01*
Y022382D01*
X044322D01*
X044256D01*
Y022282D01*
X044375Y022947D02*
X044242D01*
Y022847D01*
X044308D01*
X044242D01*
Y022747D01*
X044359Y023512D02*
X044225D01*
Y023412D01*
X044292D01*
X044225D01*
Y023312D01*
X043866Y023503D02*
X043732D01*
Y023403D01*
X043799D01*
X043732D01*
Y023303D01*
X045382Y025638D02*
X045249D01*
Y025538D01*
X045315D01*
X045249D01*
Y025439D01*
X045410Y026119D02*
X045277D01*
Y026019D01*
X045344D01*
X045277D01*
Y025919D01*
X045888Y026132D02*
X045755D01*
Y026032D01*
X045821D01*
X045755D01*
Y025932D01*
X045891Y025648D02*
X045758D01*
Y025548D01*
X045825D01*
X045758D01*
Y025448D01*
X046165Y025428D02*
X046031D01*
Y025328D01*
X046098D01*
X046031D01*
Y025228D01*
X045643Y025431D02*
X045510D01*
Y025331D01*
X045576D01*
X045510D01*
Y025231D01*
X045137Y025428D02*
X045003D01*
Y025328D01*
X045070D01*
X045003D01*
Y025228D01*
X045146Y025893D02*
X045013D01*
Y025793D01*
X045080D01*
X045013D01*
Y025693D01*
X045645Y025909D02*
X045512D01*
Y025809D01*
X045578D01*
X045512D01*
Y025709D01*
X046152Y025893D02*
X046019D01*
Y025793D01*
X046085D01*
X046019D01*
Y025693D01*
X046140Y026405D02*
X046006D01*
Y026305D01*
X046073D01*
X046006D01*
Y026206D01*
X045652Y026393D02*
X045519D01*
Y026293D01*
X045586D01*
X045519D01*
Y026193D01*
X045140Y026387D02*
X045007D01*
Y026287D01*
X045073D01*
X045007D01*
Y026187D01*
X045633Y024413D02*
X045500D01*
Y024313D01*
X045567D01*
X045500D01*
Y024213D01*
X045637Y024925D02*
X045503D01*
Y024825D01*
X045570D01*
X045503D01*
Y024725D01*
X045618Y023765D02*
X045484D01*
Y023665D01*
X045551D01*
X045484D01*
Y023565D01*
X043834Y023902D02*
X043701D01*
Y023802D01*
X043767D01*
X043701D01*
Y023702D01*
X043824Y024127D02*
X043691D01*
Y024027D01*
X043758D01*
X043691D01*
Y023927D01*
X043456Y024161D02*
X043323D01*
Y024061D01*
X043390D01*
X043323D01*
Y023961D01*
X045062Y024414D02*
X044929D01*
Y024314D01*
X044996D01*
X044929D01*
Y024214D01*
X044468Y024414D02*
X044334D01*
Y024314D01*
X044401D01*
X044334D01*
Y024214D01*
X045036Y023901D02*
X044903D01*
Y023801D01*
X044970D01*
X044903D01*
Y023701D01*
X044464Y023920D02*
X044331D01*
Y023820D01*
X044397D01*
X044331D01*
Y023720D01*
X044169Y024117D02*
X044035D01*
Y024017D01*
X044102D01*
X044035D01*
Y023917D01*
X045332Y024171D02*
X045198D01*
Y024071D01*
X045265D01*
X045198D01*
Y023971D01*
X044759Y024157D02*
X044626D01*
Y024057D01*
X044693D01*
X044626D01*
Y023957D01*
X045350Y024668D02*
X045217D01*
Y024568D01*
X045283D01*
X045217D01*
Y024469D01*
X045015Y024924D02*
X044882D01*
Y024824D01*
X044949D01*
X044882D01*
Y024724D01*
X044759Y024668D02*
X044626D01*
Y024568D01*
X044693D01*
X044626D01*
Y024469D01*
X044464Y024905D02*
X044331D01*
Y024805D01*
X044397D01*
X044331D01*
Y024705D01*
X044158Y024690D02*
X044025D01*
Y024590D01*
X044092D01*
X044025D01*
Y024490D01*
X031826Y028546D02*
X031693D01*
Y028446D01*
X031760D01*
X031693D01*
Y028346D01*
X031432Y026578D02*
X031299D01*
Y026478D01*
X031366D01*
X031299D01*
Y026378D01*
X032300Y027856D02*
X032167D01*
Y027756D01*
X032233D01*
X032167D01*
Y027656D01*
X030473Y027320D02*
X030340D01*
Y027220D01*
X030407D01*
X030340D01*
Y027120D01*
X032121Y027562D02*
X031988D01*
Y027462D01*
X032055D01*
X031988D01*
Y027362D01*
X037633Y027365D02*
X037500D01*
Y027265D01*
X037567D01*
X037500D01*
Y027165D01*
X029378Y023047D02*
X029245D01*
Y022947D01*
X029312D01*
X029245D01*
Y022847D01*
X035133Y041250D02*
X035000D01*
Y041150D01*
X035067D01*
X035000D01*
Y041050D01*
X031504Y027863D02*
X031370D01*
Y027763D01*
X031437D01*
X031370D01*
Y027663D01*
X031443Y027550D02*
X031310D01*
Y027450D01*
X031377D01*
X031310D01*
Y027350D01*
X031196Y027723D02*
X031063D01*
Y027623D01*
X031130D01*
X031063D01*
Y027523D01*
X021763Y027460D02*
X021630D01*
Y027360D01*
X021697D01*
X021630D01*
Y027260D01*
X027743Y016600D02*
X027610D01*
Y016500D01*
X027677D01*
X027610D01*
Y016400D01*
X027533Y016920D02*
X027400D01*
Y016820D01*
X027467D01*
X027400D01*
Y016720D01*
X028063Y015089D02*
X027930D01*
Y014989D01*
X027997D01*
X027930D01*
Y014889D01*
X028113Y019190D02*
X027980D01*
Y019090D01*
X028047D01*
X027980D01*
Y018990D01*
X027843Y019550D02*
X027710D01*
Y019450D01*
X027777D01*
X027710D01*
Y019350D01*
X028163Y019880D02*
X028030D01*
Y019780D01*
X028097D01*
X028030D01*
Y019680D01*
X027493Y018310D02*
X027360D01*
Y018210D01*
X027427D01*
X027360D01*
Y018110D01*
X045015Y042877D02*
X044882D01*
Y042777D01*
X044949D01*
X044882D01*
Y042677D01*
X044385Y042680D02*
X044252D01*
Y042580D01*
X044319D01*
X044252D01*
Y042480D01*
X044070Y042680D02*
X043937D01*
Y042580D01*
X044004D01*
X043937D01*
Y042480D01*
X043401Y042680D02*
X043268D01*
Y042580D01*
X043334D01*
X043268D01*
Y042480D01*
X050310Y040554D02*
X050177D01*
Y040454D01*
X050244D01*
X050177D01*
Y040354D01*
X050310Y034964D02*
X050177D01*
Y034864D01*
X050244D01*
X050177D01*
Y034764D01*
X049838Y034964D02*
X049705D01*
Y034864D01*
X049771D01*
X049705D01*
Y034764D01*
X045114Y035003D02*
X044980D01*
Y034903D01*
X045047D01*
X044980D01*
Y034803D01*
X043873Y037720D02*
X043740D01*
Y037620D01*
X043807D01*
X043740D01*
Y037520D01*
X032595Y025003D02*
X032462D01*
Y024903D01*
X032528D01*
X032462D01*
Y024803D01*
X032822Y025003D02*
X032689D01*
Y024903D01*
X032756D01*
X032689D01*
Y024803D01*
X044621Y029039D02*
X044488D01*
Y028939D01*
X044555D01*
X044488D01*
Y028839D01*
X044228Y029039D02*
X044094D01*
Y028939D01*
X044161D01*
X044094D01*
Y028839D01*
X044228Y030909D02*
X044095D01*
Y030809D01*
X044161D01*
X044095D01*
Y030709D01*
X046295Y030515D02*
X046161D01*
Y030415D01*
X046228D01*
X046161D01*
Y030315D01*
X030350Y040653D02*
X030217D01*
Y040553D01*
X030283D01*
X030217D01*
Y040453D01*
X020326Y035224D02*
X020193D01*
Y035124D01*
X020260D01*
X020193D01*
Y035024D01*
X040045Y023671D02*
X039911D01*
Y023571D01*
X039978D01*
X039911D01*
Y023471D01*
X039789Y023644D02*
X039656D01*
Y023544D01*
X039722D01*
X039656D01*
Y023444D01*
X034188Y040653D02*
X034055D01*
Y040553D01*
X034122D01*
X034055D01*
Y040453D01*
X037464Y041232D02*
X037331D01*
Y041132D01*
X037398D01*
X037331D01*
Y041032D01*
X021988Y021558D02*
X021855D01*
Y021458D01*
X021922D01*
X021855D01*
Y021358D01*
X021988Y022050D02*
X021855D01*
Y021950D01*
X021922D01*
X021855D01*
Y021850D01*
X015852Y027292D02*
X015718D01*
Y027192D01*
X015785D01*
X015718D01*
Y027092D01*
X016245Y027296D02*
X016112D01*
Y027196D01*
X016179D01*
X016112D01*
Y027096D01*
X029759Y042621D02*
X029626D01*
Y042521D01*
X029693D01*
X029626D01*
Y042421D01*
X048007Y021657D02*
X047874D01*
Y021557D01*
X047941D01*
X047874D01*
Y021457D01*
X048342Y021991D02*
X048209D01*
Y021891D01*
X048275D01*
X048209D01*
Y021791D01*
X050429Y021991D02*
X050295D01*
Y021891D01*
X050362D01*
X050295D01*
Y021791D01*
X050429Y021322D02*
X050295D01*
Y021222D01*
X050362D01*
X050295D01*
Y021122D01*
X047417Y022050D02*
X047283D01*
Y021950D01*
X047350D01*
X047283D01*
Y021850D01*
X027323Y020590D02*
X027190D01*
Y020490D01*
X027257D01*
X027190D01*
Y020390D01*
X027353Y020930D02*
X027220D01*
Y020830D01*
X027287D01*
X027220D01*
Y020730D01*
X028103Y022270D02*
X027970D01*
Y022170D01*
X028037D01*
X027970D01*
Y022070D01*
X028313Y022060D02*
X028180D01*
Y021960D01*
X028247D01*
X028180D01*
Y021860D01*
X031043Y025030D02*
X030910D01*
Y024930D01*
X030977D01*
X030910D01*
Y024830D01*
X031307Y024912D02*
X031174D01*
Y024812D01*
X031241D01*
X031174D01*
Y024713D01*
X032011Y021492D02*
X031878D01*
Y021392D01*
X031945D01*
X031878D01*
Y021292D01*
X023614Y023920D02*
X023480D01*
Y023820D01*
X023547D01*
X023480D01*
Y023720D01*
X024403Y023920D02*
X024270D01*
Y023820D01*
X024336D01*
X024270D01*
Y023720D01*
X024420Y025397D02*
X024287D01*
Y025297D01*
X024353D01*
X024287D01*
Y025197D01*
X023676Y025397D02*
X023543D01*
Y025297D01*
X023610D01*
X023543D01*
Y025197D01*
X048963Y047050D02*
X048830D01*
Y046950D01*
X048897D01*
X048830D01*
Y046850D01*
X048874Y046536D02*
X048740D01*
Y046436D01*
X048807D01*
X048740D01*
Y046336D01*
X048866Y046763D02*
X048733D01*
Y046663D01*
X048800D01*
X048733D01*
Y046563D01*
X048983Y047400D02*
X048850D01*
Y047300D01*
X048917D01*
X048850D01*
Y047200D01*
X029793Y026820D02*
X029660D01*
Y026720D01*
X029727D01*
X029660D01*
Y026620D01*
X034976Y027300D02*
X034843D01*
Y027200D01*
X034909D01*
X034843D01*
Y027100D01*
X034031Y027300D02*
X033898D01*
Y027200D01*
X033964D01*
X033898D01*
Y027100D01*
X033244Y027300D02*
X033110D01*
Y027200D01*
X033177D01*
X033110D01*
Y027100D01*
X031669Y027300D02*
X031535D01*
Y027200D01*
X031602D01*
X031535D01*
Y027100D01*
X030881Y027300D02*
X030748D01*
Y027200D01*
X030815D01*
X030748D01*
Y027100D01*
X037496Y027856D02*
X037362D01*
Y027756D01*
X037429D01*
X037362D01*
Y027656D01*
X035606Y027856D02*
X035472D01*
Y027756D01*
X035539D01*
X035472D01*
Y027656D01*
X034976Y027856D02*
X034843D01*
Y027756D01*
X034909D01*
X034843D01*
Y027656D01*
X033873Y027856D02*
X033740D01*
Y027756D01*
X033807D01*
X033740D01*
Y027656D01*
X030881Y027856D02*
X030748D01*
Y027756D01*
X030815D01*
X030748D01*
Y027656D01*
X029936Y027856D02*
X029803D01*
Y027756D01*
X029870D01*
X029803D01*
Y027656D01*
X030409Y027856D02*
X030276D01*
Y027756D01*
X030342D01*
X030276D01*
Y027656D01*
X037023Y039946D02*
X036890D01*
Y039846D01*
X036956D01*
X036890D01*
Y039746D01*
X036551Y039946D02*
X036417D01*
Y039846D01*
X036484D01*
X036417D01*
Y039746D01*
X036078Y039946D02*
X035945D01*
Y039846D01*
X036012D01*
X035945D01*
Y039746D01*
X035606Y039946D02*
X035472D01*
Y039846D01*
X035539D01*
X035472D01*
Y039746D01*
X035133Y039946D02*
X035000D01*
Y039846D01*
X035067D01*
X035000D01*
Y039746D01*
X034661Y039946D02*
X034528D01*
Y039846D01*
X034594D01*
X034528D01*
Y039746D01*
X032771Y039946D02*
X032638D01*
Y039846D01*
X032704D01*
X032638D01*
Y039746D01*
X032299Y039946D02*
X032165D01*
Y039846D01*
X032232D01*
X032165D01*
Y039746D01*
X031826Y039946D02*
X031693D01*
Y039846D01*
X031760D01*
X031693D01*
Y039746D01*
X031354Y039946D02*
X031220D01*
Y039846D01*
X031287D01*
X031220D01*
Y039746D01*
X030881Y039946D02*
X030748D01*
Y039846D01*
X030815D01*
X030748D01*
Y039746D01*
X037023Y041230D02*
X036890D01*
Y041130D01*
X036956D01*
X036890D01*
Y041030D01*
X036551Y041237D02*
X036417D01*
Y041137D01*
X036484D01*
X036417D01*
Y041037D01*
X036078Y041235D02*
X035945D01*
Y041135D01*
X036012D01*
X035945D01*
Y041035D01*
X035606Y041217D02*
X035472D01*
Y041118D01*
X035539D01*
X035472D01*
Y041018D01*
X034661Y041837D02*
X034528D01*
Y041738D01*
X034594D01*
X034528D01*
Y041638D01*
X034188Y041855D02*
X034055D01*
Y041755D01*
X034122D01*
X034055D01*
Y041655D01*
X033716Y041877D02*
X033583D01*
Y041777D01*
X033649D01*
X033583D01*
Y041677D01*
X033244Y041880D02*
X033110D01*
Y041780D01*
X033177D01*
X033110D01*
Y041680D01*
X032771Y041878D02*
X032638D01*
Y041778D01*
X032704D01*
X032638D01*
Y041678D01*
X032299Y041245D02*
X032165D01*
Y041145D01*
X032232D01*
X032165D01*
Y041045D01*
X031826Y041247D02*
X031693D01*
Y041147D01*
X031760D01*
X031693D01*
Y041047D01*
X031354Y041239D02*
X031220D01*
Y041139D01*
X031287D01*
X031220D01*
Y041040D01*
X030881Y041238D02*
X030748D01*
Y041138D01*
X030815D01*
X030748D01*
Y041038D01*
X030409Y041236D02*
X030276D01*
Y041136D01*
X030342D01*
X030276D01*
Y041036D01*
X029956Y042326D02*
X029823D01*
Y042226D01*
X029889D01*
X029823D01*
Y042126D01*
X032768Y023924D02*
X032634D01*
Y023824D01*
X032701D01*
X032634D01*
Y023724D01*
X029267Y022542D02*
X029134D01*
Y022442D01*
X029200D01*
X029134D01*
Y022343D01*
X028590Y022446D02*
X028456D01*
Y022346D01*
X028523D01*
X028456D01*
Y022246D01*
X028573Y023640D02*
X028440D01*
Y023540D01*
X028507D01*
X028440D01*
Y023440D01*
X029471Y023638D02*
X029338D01*
Y023538D01*
X029404D01*
X029338D01*
Y023438D01*
X029283Y024530D02*
X029150D01*
Y024430D01*
X029217D01*
X029150D01*
Y024330D01*
X029498Y024785D02*
X029365D01*
Y024685D01*
X029432D01*
X029365D01*
Y024585D01*
X030323Y024912D02*
X030190D01*
Y024812D01*
X030256D01*
X030190D01*
Y024713D01*
X031341Y025390D02*
X031208D01*
Y025290D01*
X031275D01*
X031208D01*
Y025190D01*
X030357Y025350D02*
X030224D01*
Y025250D01*
X030290D01*
X030224D01*
Y025150D01*
X031688Y025397D02*
X031555D01*
Y025297D01*
X031622D01*
X031555D01*
Y025197D01*
X030711Y025350D02*
X030578D01*
Y025250D01*
X030645D01*
X030578D01*
Y025150D01*
X029936Y021814D02*
X029803D01*
Y021714D01*
X029870D01*
X029803D01*
Y021614D01*
X029287Y021794D02*
X029154D01*
Y021694D01*
X029220D01*
X029154D01*
Y021594D01*
X029641Y021794D02*
X029508D01*
Y021694D01*
X029575D01*
X029508D01*
Y021594D01*
X029169Y021322D02*
X029035D01*
Y021222D01*
X029102D01*
X029035D01*
Y021122D01*
X031610Y020731D02*
X031476D01*
Y020631D01*
X031543D01*
X031476D01*
Y020531D01*
X038509Y023614D02*
X038376D01*
Y023514D01*
X038443D01*
X038376D01*
Y023414D01*
X040301Y023647D02*
X040167D01*
Y023547D01*
X040234D01*
X040167D01*
Y023447D01*
X038913Y016899D02*
X038780D01*
Y016799D01*
X038846D01*
X038780D01*
Y016700D01*
X040094Y016919D02*
X039961D01*
Y016819D01*
X040027D01*
X039961D01*
Y016719D01*
X040684Y016909D02*
X040551D01*
Y016809D01*
X040618D01*
X040551D01*
Y016709D01*
X041275Y016902D02*
X041142D01*
Y016802D01*
X041208D01*
X041142D01*
Y016702D01*
X041866Y016902D02*
X041732D01*
Y016802D01*
X041799D01*
X041732D01*
Y016702D01*
X033703Y047180D02*
X033570D01*
Y047080D01*
X033637D01*
X033570D01*
Y046980D01*
X033703Y047407D02*
X033570D01*
Y047307D01*
X033637D01*
X033570D01*
Y047207D01*
X031963Y047097D02*
X031830D01*
Y046997D01*
X031897D01*
X031830D01*
Y046897D01*
X031963Y046870D02*
X031830D01*
Y046770D01*
X031897D01*
X031830D01*
Y046670D01*
X033204Y020031D02*
X033071D01*
Y019931D01*
X033138D01*
X033071D01*
Y019831D01*
X033204Y020909D02*
X033071D01*
Y020809D01*
X033138D01*
X033071D01*
Y020709D01*
X048893Y047724D02*
X048760D01*
Y047624D01*
X048827D01*
X048760D01*
Y047524D01*
X048893Y047951D02*
X048760D01*
Y047851D01*
X048827D01*
X048760D01*
Y047751D01*
X031347Y023205D02*
X031213D01*
Y023105D01*
X031280D01*
X031213D01*
Y023005D01*
X030914Y023205D02*
X030780D01*
Y023105D01*
X030847D01*
X030780D01*
Y023005D01*
X030480Y023205D02*
X030347D01*
Y023105D01*
X030414D01*
X030347D01*
Y023005D01*
X031347Y023638D02*
X031213D01*
Y023538D01*
X031280D01*
X031213D01*
Y023438D01*
X030914Y023638D02*
X030780D01*
Y023538D01*
X030847D01*
X030780D01*
Y023438D01*
X030480Y023638D02*
X030347D01*
Y023538D01*
X030414D01*
X030347D01*
Y023438D01*
X031347Y024071D02*
X031213D01*
Y023971D01*
X031280D01*
X031213D01*
Y023871D01*
X030914Y024071D02*
X030780D01*
Y023971D01*
X030847D01*
X030780D01*
Y023871D01*
X030480Y024071D02*
X030347D01*
Y023971D01*
X030414D01*
X030347D01*
Y023871D01*
D227*
X048029Y042278D02*
G03*
X048029Y042278I-000080J000000D01*
G01*
Y041778D02*
G03*
X048029Y041778I-000080J000000D01*
G01*
X047529Y042278D02*
G03*
X047529Y042278I-000080J000000D01*
G01*
X047029D02*
G03*
X047029Y042278I-000080J000000D01*
G01*
X047529Y041778D02*
G03*
X047529Y041778I-000080J000000D01*
G01*
X047029D02*
G03*
X047029Y041778I-000080J000000D01*
G01*
X046529Y042278D02*
G03*
X046529Y042278I-000080J000000D01*
G01*
X046029D02*
G03*
X046029Y042278I-000080J000000D01*
G01*
X046529Y041778D02*
G03*
X046529Y041778I-000080J000000D01*
G01*
X046029D02*
G03*
X046029Y041778I-000080J000000D01*
G01*
X044946Y033018D02*
G03*
X044946Y033018I-000080J000000D01*
G01*
Y033518D02*
G03*
X044946Y033518I-000080J000000D01*
G01*
X045446Y033018D02*
G03*
X045446Y033018I-000080J000000D01*
G01*
X045946D02*
G03*
X045946Y033018I-000080J000000D01*
G01*
X045446Y033518D02*
G03*
X045446Y033518I-000080J000000D01*
G01*
X045946D02*
G03*
X045946Y033518I-000080J000000D01*
G01*
X046446Y033018D02*
G03*
X046446Y033018I-000080J000000D01*
G01*
X046946D02*
G03*
X046946Y033018I-000080J000000D01*
G01*
X046446Y033518D02*
G03*
X046446Y033518I-000080J000000D01*
G01*
X046946D02*
G03*
X046946Y033518I-000080J000000D01*
G01*
X031379Y019138D02*
G03*
X031379Y019138I-000080J000000D01*
G01*
X034135D02*
G03*
X034135Y019138I-000080J000000D01*
G01*
X033151D02*
G03*
X033151Y019138I-000080J000000D01*
G01*
X032363D02*
G03*
X032363Y019138I-000080J000000D01*
G01*
X033151Y018106D02*
G03*
X033151Y018106I-000080J000000D01*
G01*
X032363D02*
G03*
X032363Y018106I-000080J000000D01*
G01*
X034135D02*
G03*
X034135Y018106I-000080J000000D01*
G01*
X031379D02*
G03*
X031379Y018106I-000080J000000D01*
G01*
D228*
X031339Y019138D02*
G03*
X031339Y019138I-000040J000000D01*
G01*
X034095D02*
G03*
X034095Y019138I-000040J000000D01*
G01*
X033111D02*
G03*
X033111Y019138I-000040J000000D01*
G01*
X032323D02*
G03*
X032323Y019138I-000040J000000D01*
G01*
X033111Y018106D02*
G03*
X033111Y018106I-000040J000000D01*
G01*
X032323D02*
G03*
X032323Y018106I-000040J000000D01*
G01*
X034095D02*
G03*
X034095Y018106I-000040J000000D01*
G01*
X031339D02*
G03*
X031339Y018106I-000040J000000D01*
G01*
M02*
