M48
;Layer_Color=9474304
;FILE_FORMAT=2:4
INCH
;TYPE=PLATED
T1F00S00C0.0079
T3F00S00C0.0276
T5F00S00C0.0362
T6F00S00C0.0394
T8F00S00C0.0400
T9F00S00C0.0433
T10F00S00C0.0450
T11F00S00C0.0620
T12F00S00C0.0906
T13F00S00C0.1063
T14F00S00C0.1181
;TYPE=NON_PLATED
T15F00S00C0.0433
T16F00S00C0.0630
T17F00S00C0.1280
T18F00S00C0.1457
%
T01
X027930Y014889
X029921Y014567
X049016Y016929
X048327Y021457
X048661Y021791
X048583Y022500
Y022972
X048327Y022717
X048071Y022500
Y022972
X047815Y022717
X047736Y021850
X048839Y022717
X048991Y023331
X048878Y023701
X048622Y023937
X048878Y024213
X048889Y024696
X048622Y024469
X049213
X049494Y024704
X049458Y025112
X050058Y025105
X049843Y025433
X050098Y025669
X050354Y025433
X050610Y025669
X050354Y025925
X049843
X049587Y025669
X049803Y024488
X049803Y023957
X049500Y024204
Y023702
X049213Y023937
X049843Y023377
X050186Y023667
X048380Y023328
X048229Y024223
X048169Y026575
Y026870
Y027165
Y027461
Y027756
Y028051
Y028346
X048524
Y028051
Y027756
Y027461
Y027165
Y026870
Y026575
X050197Y026772
Y027087
Y027402
Y027717
Y028031
Y028386
Y028701
X048700Y029150
X047400Y028750
X050748Y021791
Y021122
X044303Y021304
Y020689
Y021969
X044194Y022268
X044452Y022493
X044708Y022282
X044715Y021961
X044694Y022747
X044462Y022966
X043934Y022973
Y022500
X043664Y022268
X043676Y022747
X043692Y023238
X044185Y023303
X044098Y023694
X044076Y023911
X044054Y024247
X044478Y024490
X044783Y024705
X044787Y024214
X044783Y023720
X044488Y023917
X045079Y023957
Y024469
X045335Y024724
X045382Y024214
X045651Y023971
X045669Y024469
X045953Y024213
X045956Y024725
X045962Y025231
X046211Y025448
X046207Y025932
X045965Y025709
X045730Y025919
X045466Y025693
X045456Y025228
X045667Y025008
X045701Y025439
X045459Y026187
X045972Y026193
X046459Y026206
X046472Y025693
X046484Y025228
X046732Y026654
Y027008
Y027323
Y027638
Y027992
X045157Y028031
Y027795
Y027480
X044843Y028031
X044567
X044291
X044016
X043740
X044094Y028839
X044488
X044882Y030394
X045276
X045079Y030610
X044882Y030827
X045276
X044095Y030709
X046161Y030315
X045937Y023565
X045356Y023701
X044678Y023312
X043674Y023936
X043204Y024123
X042618Y023908
X041945
X042143Y023030
X042370
X042814Y022580
X041970Y022370
X041740Y022670
X041513
X041259Y023140
X041032
X040767Y022890
X040539
X040850Y022450
X040167Y023447
X039911Y023471
X039656Y023444
X039367Y023449
X039733Y023720
X038376Y023414
X038000Y022700
X038200Y022200
X038039Y022021
X038043Y021695
X036995Y023310
X036155Y023300
X035472Y024252
X035433Y024882
X035039Y024902
X034594Y024921
X034366
X033957Y024902
X033071Y024803
X032689
X032462
X032087
X031555Y025197
X031299Y026378
X031535Y027100
X031310Y027350
X031370Y027663
X032167Y027656
X031988Y027362
X032310Y027100
X033110
X032953Y027656
X033740
X034239
Y027100
X033898
X034843
X035315
X035472Y027656
X035827Y027657
X034843Y027656
X036850Y027150
X037500Y027165
X037362Y027656
X037087Y029094
X036850Y029600
X035433Y030945
X033044Y029734
X032689Y029724
X032462
X032211Y030006
X031693Y028346
X032634Y023724
X033051Y023504
X033563Y023228
X033661Y022835
X033819Y022441
X033980Y022280
X034311Y022000
X034941Y022244
X034425Y023819
X034197
X033071Y020709
Y019831
X031476Y020531
X031878Y021292
X031886Y021646
X038780Y016700
X039961Y016719
X040551Y016709
X041142Y016702
X041732Y016702
X043976Y018661
Y018858
Y019094
Y019331
X030080Y021585
X030032Y021807
X029803Y021614
X029508Y021594
X029154Y021594
X029035Y021122
X029134Y022343
X029245Y022847
X029338Y023438
X028440Y023440
X028456Y022246
X027970Y022070
X028180Y021860
X027220Y020730
X027190Y020390
X025950Y020700
X025800Y021700
X025591Y022146
X026102Y023346
X026600Y023800
X026772Y024016
X029150Y024330
X029365Y024585
X030190Y024713
X030224Y025150
X030578Y025150
X030910Y024830
X031174Y024713
X031208Y025190
X031213Y023871
Y023438
Y023005
X030780
X030347
Y023438
X030780
Y023871
X030347
X030340Y027120
X030748Y027100
Y027656
X031063Y027523
X030276Y027656
X029803
X029660Y026620
X031102Y028642
X027900Y030500
X027400Y030950
X026378Y030709
X025591Y030217
X024287Y025197
X023543
X023480Y023720
X024270
X022741Y021850
Y021378
X021855Y021358
Y021850
X021850Y019134
X022362Y018819
X023622Y017992
X024803Y018209
X025182Y018209
X025409
X027360Y018110
X028340Y018370
X027980Y018990
X027710Y019350
X028030Y019680
X027870Y016434
X027610Y016400
X027400Y016720
X026870Y016831
X026539Y016795
X026378Y016634
X028248Y016339
X028000Y016039
X024100Y020300
X021630Y027260
X021250Y027330
X021550Y027750
X021250Y028150
X015846Y027066
X015453Y027063
X015059Y027061
X014465Y026777
X014269Y026560
X015050Y026150
X013484Y024506
X013491Y024225
X013974Y023137
X013976Y022933
X013878Y020472
X013884Y020240
X014154Y033150
Y033504
Y033819
Y034134
Y034409
X014508Y038583
Y039213
Y039803
X013500Y045900
X013550Y046300
X012750Y045900
X012502Y045987
X012285Y046066
X016535Y043504
X016201Y039764
Y039252
Y038583
X016535Y034843
X019350Y035157
Y035394
Y035630
Y035866
X019361Y036108
X020191Y035320
X020468Y035312
Y035048
X020193Y035024
X020191Y034752
X020485Y034747
X020886Y033504
X021102Y033209
X021417
X021594Y033504
X021540Y037660
X021500Y039550
X021018Y039542
X021260Y041260
X021550Y042100
X021200Y042350
X023228Y042402
X020340Y040940
X030276Y041036
X030748Y041038
X031220Y041040
Y039746
X030748
X030217Y040453
X029823Y042126
X029626Y042421
X030910Y042900
X030749Y043061
X030748Y043425
X031260Y042874
X031693Y041047
X032165Y041045
X032638Y041678
X033110Y041680
X033583Y041677
X034055Y041655
X034528Y041638
X035000Y041050
X035472Y041018
X035945Y041035
X036417Y041037
X036890Y041030
X037331Y041032
Y039742
X036890Y039746
X036417
X035945
X035472
X035000
X034528
X034055Y040453
X032638Y039746
X032165
X031693
X037756Y038937
X038087Y039041
X038346Y039291
X038425Y040118
Y040472
X038595Y040638
X039016Y040630
X039409Y040472
X039570Y040633
X039606Y040984
X039646Y041417
X039806Y041578
X040236Y041614
X040152Y042032
X040312Y042192
X040787Y042205
X041278Y042140
X041652Y043715
X042953Y042480
X043268
X043937
X044252
X044882Y042677
X045472Y040354
X046161Y038976
X044488Y037992
X044055Y037520
X043740
X046358Y036417
X046752
X045472Y034803
X045940Y033290
X046417Y033203
X046200Y031680
X045880Y031660
X045480Y031770
X045177Y031763
X035061Y031297
X034637Y031299
X034409
X033957Y031299
X038583Y038622
X045520Y045630
X045810Y045840
X031830Y046670
X031575Y046772
X048830Y046850
X048733Y046563
X048740Y046336
X048439Y046161
X048543Y044606
X047441Y044764
Y044409
X049685Y044449
X049921Y045157
X050669Y040354
X048622Y040846
X049265Y034773
X050197Y034764
X050669
X050350Y032500
X049250
X049685Y046929
X048850Y047200
X048480Y047168
Y046941
X048760Y047524
Y047751
X048447Y047933
Y048524
Y049114
Y049705
Y050295
Y050886
Y051476
Y051673
X044291Y052756
X043898
X042244Y052520
Y052205
X033570Y047207
Y046980
X033307Y047087
X031830Y046897
T03
X045654Y041187
Y041687
X046154
X046654
Y041187
X046154
X047154
X047654
Y041687
X047154
T05
X031299Y018106
X032283
X033071
X034055
Y019138
X033071
X032283
X031299
T06
X023900Y014900
X025672
X026164Y015884
X023408
T08
X015910Y019923
Y020523
X016110Y023323
X016910
X017710
X018510
X019310
X020110
X020510Y024323
X019710
X018910
X017310
X016510
X015710
X020310Y020523
Y019923
T09
X025878Y042913
X026878
T10
X015710Y025323
X016710
X019510
X020510
T11
X021285Y016073
X014935
T12
X035264Y017039
Y019276
X030091
Y017039
T13
X042126Y027559
X023228
Y040551
X042126
T14
X013189Y015157
X049803
Y051772
X013189
T15
X045915Y051968
T16
X045915Y044094
T17
X020610Y017323
X015610
T18
X015108Y048032
M30
