M48
;Layer_Color=9474304
;FILE_FORMAT=2:4
INCH
;TYPE=PLATED
T1F00S00C0.0079
T2F00S00C0.0098
T4F00S00C0.0276
T6F00S00C0.0362
T7F00S00C0.0394
T9F00S00C0.0400
T10F00S00C0.0433
T11F00S00C0.0450
T12F00S00C0.0620
T13F00S00C0.0906
T14F00S00C0.1063
T15F00S00C0.1181
;TYPE=NON_PLATED
T16F00S00C0.0433
T17F00S00C0.0630
T18F00S00C0.1280
T19F00S00C0.1457
%
T01
X027930Y014889
X029921Y014567
X049311Y017717
X050295Y021122
Y021791
X048209
X047874Y021457
X047283Y021850
X047362Y022717
X047618Y022500
Y022972
X048130
Y022500
X047874Y022717
X048386
X048538Y023331
X048425Y023701
X048169Y023937
X048425Y024213
X048436Y024696
X048169Y024469
X048760
X049041Y024704
X049005Y025112
X049606Y025105
X049390Y025433
X049646Y025669
X049902Y025433
X050157Y025669
X049902Y025925
X049390
X049134Y025669
X049350Y024488
X049350Y023957
X049047Y024204
Y023702
X048760Y023937
X049391Y023377
X049733Y023667
X047928Y023328
X047777Y024223
X047717Y026575
Y026870
Y027165
Y027461
Y027756
Y028051
Y028346
X048071
Y028051
Y027756
Y027461
Y027165
Y026870
Y026575
X049744Y026772
Y027087
Y027402
Y027717
Y028031
Y028386
Y028701
X046280Y027992
Y027638
Y027323
Y027008
Y026654
X046006Y026206
X045519Y026193
X045512Y025709
X045277Y025919
X045755Y025932
X045758Y025448
X045510Y025231
X045293Y025011
X045249Y025439
X045003Y025228
X045013Y025693
X045007Y026187
X044951Y027480
Y027795
Y028031
X044636
X044360
X044085
X043809
X043533
X044094Y028839
X044488
X044882Y030394
X045276
X045079Y030610
X044882Y030827
X045276
X044095Y030709
X046161Y030315
X046019Y025693
X046031Y025228
X045503Y024725
X045500Y024213
X045217Y024469
X045198Y023971
X044929Y024214
X044903Y023701
X044626Y023957
Y024469
X044882Y024724
X044331Y024705
X044334Y024214
X044331Y023720
X044035Y023917
X043691Y023927
X043701Y023702
X043732Y023303
X044225Y023312
X044009Y022966
X044242Y022747
X044256Y022282
X044262Y021961
X043850Y021969
X043742Y022268
X044000Y022493
X043481Y022500
Y022973
X043223Y022747
X043211Y022268
X043239Y023238
X043323Y023961
X043701Y024288
X044025Y024490
X042751Y024123
X042612Y023909
X041948Y023912
X042143Y023030
X042370
X041740Y022670
X041513
X041259Y023140
X041032
X040767Y022890
X040539
X040850Y022450
X041970Y022370
X040167Y023447
X039911Y023471
X039656Y023444
X039367Y023449
X039733Y023720
X038376Y023414
X038000Y022700
X038200Y022200
X038039Y022021
X038043Y021695
X036995Y023310
X036155Y023300
X035472Y024252
X035433Y024882
X035039Y024902
X034594Y024921
X034366
X033957Y024902
X033071Y024803
X032689
X032462
X032087
X031555Y025197
X031299Y026378
X031535Y027100
X031310Y027350
X031370Y027663
X032167Y027656
X031988Y027362
X032310Y027100
X033110
X032964Y027656
X033740
X034239
Y027100
X033898
X034843
X035315
X035472Y027656
X035827Y027657
X034843Y027656
X036850Y027150
X037500Y027165
X037362Y027656
X037087Y029094
X036850Y029600
X035433Y030945
X033071Y030610
X032776Y030709
X032548
X032238Y030882
X031693Y028346
X032634Y023724
X033051Y023504
X033563Y023228
X033661Y022835
X033819Y022441
X033980Y022280
X034311Y022000
X034941Y022244
X034425Y023819
X034197
X033071Y020709
Y019831
X031476Y020531
X031878Y021292
X031886Y021646
X038780Y016700
X039961Y016719
X040551Y016709
X041142Y016702
X041732Y016702
X043731Y018790
X043726Y018977
X043729Y019158
X043974Y019149
X043971Y018968
X043976Y018782
X044197Y018771
X044192Y018957
X044195Y019138
X043850Y020689
Y021304
X045484Y023565
X031213Y023438
Y023005
X030780
X030347
Y023438
X030780
Y023871
X031213
X030347
X030190Y024713
X030224Y025150
X030578Y025150
X030910Y024830
X031174Y024713
X031208Y025190
X030748Y027100
X030340Y027120
X030276Y027656
X030748
X031063Y027523
X031102Y028642
X029803Y027656
X029660Y026620
X029365Y024585
X029150Y024330
X029338Y023438
X029245Y022847
X029134Y022343
X029154Y021594
X029508Y021594
X029803Y021614
X030080Y021585
X030032Y021807
X029035Y021122
X028180Y021860
X027970Y022070
X028456Y022246
X028440Y023440
X026600Y023800
X026772Y024016
X026102Y023346
X025591Y022146
X025800Y021700
X025950Y020700
X027220Y020730
X027190Y020390
X028030Y019680
X027710Y019350
X027980Y018990
X028340Y018370
X027360Y018110
X027400Y016720
X027610Y016400
X027870Y016434
X028248Y016339
X028000Y016039
X026870Y016831
X026539Y016795
X026378Y016634
X025409Y018209
X025182
X024803Y018209
X023622Y017992
X022362Y018819
X021850Y019134
X021855Y021358
Y021850
X022741
Y021378
X024100Y020300
X024270Y023720
X023480
X023543Y025197
X024287
X021630Y027260
X021550Y027750
X018261Y027156
X017441
X016112Y027096
X015718Y027092
X025591Y030217
X026850Y031010
X027650Y031220
X028070Y030869
X015213Y026860
X015316Y026180
X014468Y026575
X014465Y026777
X013484Y024506
X013491Y024225
X013974Y023137
X013976Y022933
X013878Y020472
X013884Y020240
X014911Y033150
Y033504
Y033819
Y034134
Y034409
X015256Y037106
Y037736
Y038327
X016243Y038277
Y037766
Y037096
X016634Y034843
X017854Y034409
Y034094
X018150Y033917
Y034626
X019350Y035157
Y035394
Y035630
Y035866
X019361Y036108
X020191Y035320
X020468Y035312
Y035048
X020193Y035024
X020191Y034752
X020485Y034747
X021540Y037660
X021500Y039550
X021018Y039542
X021260Y041260
X021550Y042100
X021200Y042350
X023228Y042402
X020340Y040940
X016732Y040748
X030217Y040453
X030276Y041036
X030748Y041038
X031220Y041040
Y039746
X030748
X029823Y042126
X029626Y042421
X030910Y042900
X030749Y043061
X030748Y043425
X031260Y042874
X031693Y041047
X032165Y041045
X032638Y041678
X033110Y041680
X033583Y041677
X034055Y041655
X034528Y041638
X035000Y041050
X035472Y041018
X035945Y041035
X036417Y041037
X036890Y041030
X037331Y041032
Y039742
X036890Y039746
X036417
X035945
X035472
X035000
X034528
X034055Y040453
X032638Y039746
X032165
X031693
X037756Y038937
X038087Y039041
X038346Y039291
X038571Y038622
X038425Y040118
Y040472
X038595Y040638
X039016Y040630
X039606Y040984
X039646Y041417
X039806Y041578
X040236Y041614
X040152Y042032
X040312Y042192
X040787Y042205
X042953Y042480
X043268
X043937
X044252
X044882Y042677
X044980Y040354
X045669Y038976
X044055Y037520
X043740
X044980Y034803
X045520Y045630
X045810Y045840
X031830Y046670
X031575Y046772
X033957Y031299
X034409Y031299
X034637
X035061Y031297
X048758Y032500
X049858
X049861Y033647
X049876Y034040
X049701Y034496
X049705Y034764
X050177
X048773Y034773
X048760Y034488
X048760Y034045
X048750Y033635
X048228Y040846
X050177Y040354
X049390Y044449
X049626Y045157
X048543Y044606
X047441Y044764
Y044409
X048439Y046161
X048740Y046336
X048733Y046563
X048830Y046850
X048850Y047200
X048480Y047168
Y046941
X048760Y047524
Y047751
X048447Y047933
Y048524
Y049114
Y049705
Y050295
Y050886
Y051476
Y051673
X049390Y046929
X044291Y052756
X043898
X042244Y052520
Y052205
X033570Y047207
Y046980
X033307Y047087
X031830Y046897
X017954Y051411
X017554Y051461
Y052211
X017641Y052459
X017720Y052676
T02
X039497Y031150
X039727
X043898Y029429
X044980Y028839
X045374
X045669Y034252
X044203Y039744
X049785Y047252
X049803Y047638
T04
X044866Y033018
Y033518
X045366
Y033018
X045866
Y033518
X046366
Y033018
X046866
Y033518
X046449Y041778
Y042278
X045949
Y041778
X046949
Y042278
X047449
X047949
Y041778
X047449
T06
X031299Y018106
X032283
X033071
X034055
Y019138
X033071
X032283
X031299
T07
X023900Y014900
X025672
X026164Y015884
X023408
T09
X015910Y019923
Y020523
X016110Y023323
X016910
X017710
X018510
X019310
X020110
X020510Y024323
X019710
X018910
X017310
X016510
X015710
X020310Y020523
Y019923
T10
X013339Y042118
Y043118
X014339
X015339
Y042118
X014339
X016339
Y043118
X017339
Y042118
X018339
X019339
Y043118
X018339
X025878Y042913
X026878
T11
X015710Y025323
X016710
X019510
X020510
T12
X021285Y016073
X014935
T13
X035264Y017039
Y019276
X030091
Y017039
T14
X042126Y027559
X023228
Y040551
X042126
T15
X013189Y015157
X049803
Y051772
X013189
T16
X045915Y051968
T17
X045915Y044094
T18
X020610Y017323
X015610
T19
X015108Y048032
M30
